<?xml version="1.0" encoding="utf-8" standalone="no"?>
<!DOCTYPE svg PUBLIC "-//W3C//DTD SVG 1.1//EN"
  "http://www.w3.org/Graphics/SVG/1.1/DTD/svg11.dtd">
<!-- Created with matplotlib (https://matplotlib.org/) -->
<svg height="648pt" version="1.1" viewBox="0 0 864 648" width="864pt" xmlns="http://www.w3.org/2000/svg" xmlns:xlink="http://www.w3.org/1999/xlink">
 <defs>
  <style type="text/css">
*{stroke-linecap:butt;stroke-linejoin:round;white-space:pre;}
  </style>
 </defs>
 <g id="figure_1">
  <g id="patch_1">
   <path d="M 0 648 
L 864 648 
L 864 0 
L 0 0 
z
" style="fill:#ffffff;"/>
  </g>
  <g id="axes_1">
   <g id="patch_2">
    <path d="M 108 576.72 
L 777.6 576.72 
L 777.6 77.76 
L 108 77.76 
z
" style="fill:#ffffff;"/>
   </g>
   <g id="PolyCollection_1">
    <defs>
     <path d="M 178.008706 -212.121096 
L 166.500384 -212.121096 
L 165.714643 -216.846879 
L 164.866573 -221.409108 
L 163.95633 -225.818726 
L 162.984776 -230.085614 
L 161.95358 -234.218722 
L 160.865287 -238.226185 
L 159.723342 -242.115417 
L 158.532086 -245.893195 
L 157.296706 -249.565729 
L 156.023176 -253.138725 
L 154.718216 -256.617436 
L 153.389276 -260.00671 
L 152.044583 -263.311032 
L 150.693253 -266.534555 
L 149.345452 -269.681138 
L 148.012577 -272.754368 
L 146.707408 -275.757587 
L 145.444169 -278.693913 
L 144.238425 -281.566262 
L 143.106771 -284.377363 
L 142.066276 -287.129773 
L 141.133685 -289.825893 
L 140.324418 -292.467979 
L 139.65144 -295.058155 
L 139.124126 -297.59842 
L 138.747232 -300.090663 
L 138.520123 -302.536664 
L 138.436364 -304.93811 
L 138.483761 -307.296594 
L 138.644906 -309.613626 
L 138.898194 -311.890639 
L 139.219266 -314.128991 
L 139.582742 -316.329973 
L 139.964112 -318.494813 
L 140.341587 -320.624678 
L 140.697757 -322.720681 
L 141.020868 -324.783881 
L 141.305616 -326.815289 
L 141.553354 -328.815871 
L 141.771712 -330.786548 
L 141.973654 -332.728201 
L 142.176071 -334.641672 
L 142.398055 -336.527767 
L 142.659028 -338.38726 
L 142.976908 -340.22089 
L 143.366486 -342.029366 
L 143.838169 -343.81337 
L 144.397186 -345.573554 
L 145.043303 -347.310547 
L 145.771037 -349.024952 
L 146.570314 -350.717349 
L 147.427453 -352.388295 
L 148.326357 -354.038327 
L 149.249782 -355.667964 
L 150.180545 -357.277702 
L 151.102585 -358.868021 
L 152.001809 -360.439386 
L 152.866681 -361.992241 
L 153.688577 -363.527019 
L 154.461908 -365.044135 
L 155.184061 -366.543991 
L 155.855213 -368.026975 
L 156.478035 -369.493463 
L 157.057341 -370.943818 
L 157.599693 -372.378391 
L 158.112973 -373.797521 
L 158.605934 -375.201538 
L 159.087729 -376.59076 
L 159.567425 -377.965496 
L 160.053523 -379.326044 
L 160.553485 -380.672695 
L 161.073311 -382.005729 
L 161.617175 -383.325419 
L 162.187168 -384.63203 
L 162.783143 -385.925819 
L 163.402707 -387.207033 
L 164.041337 -388.475917 
L 164.692643 -389.732704 
L 165.348729 -390.977623 
L 166.000659 -392.210897 
L 166.638968 -393.43274 
L 167.254202 -394.643364 
L 167.837437 -395.842972 
L 168.380754 -397.031763 
L 168.877633 -398.209929 
L 169.323256 -399.377661 
L 169.714691 -400.535139 
L 170.05097 -401.682544 
L 170.333049 -402.820049 
L 170.563659 -403.947824 
L 170.74708 -405.066032 
L 170.888828 -406.174836 
L 170.995305 -407.274392 
L 171.073411 -408.364853 
L 171.130162 -409.446369 
L 171.172315 -410.519085 
L 171.206052 -411.583142 
L 171.236707 -412.63868 
L 171.268576 -413.685834 
L 173.240514 -413.685834 
L 173.240514 -413.685834 
L 173.272384 -412.63868 
L 173.303039 -411.583142 
L 173.336776 -410.519085 
L 173.378929 -409.446369 
L 173.435679 -408.364853 
L 173.513786 -407.274392 
L 173.620263 -406.174836 
L 173.762011 -405.066032 
L 173.945432 -403.947824 
L 174.176042 -402.820049 
L 174.458121 -401.682544 
L 174.7944 -400.535139 
L 175.185835 -399.377661 
L 175.631458 -398.209929 
L 176.128337 -397.031763 
L 176.671654 -395.842972 
L 177.254889 -394.643364 
L 177.870123 -393.43274 
L 178.508432 -392.210897 
L 179.160362 -390.977623 
L 179.816448 -389.732704 
L 180.467754 -388.475917 
L 181.106384 -387.207033 
L 181.725947 -385.925819 
L 182.321923 -384.63203 
L 182.891916 -383.325419 
L 183.43578 -382.005729 
L 183.955606 -380.672695 
L 184.455568 -379.326044 
L 184.941666 -377.965496 
L 185.421362 -376.59076 
L 185.903156 -375.201538 
L 186.396118 -373.797521 
L 186.909398 -372.378391 
L 187.45175 -370.943818 
L 188.031056 -369.493463 
L 188.653878 -368.026975 
L 189.32503 -366.543991 
L 190.047183 -365.044135 
L 190.820514 -363.527019 
L 191.64241 -361.992241 
L 192.507282 -360.439386 
L 193.406506 -358.868021 
L 194.328546 -357.277702 
L 195.259309 -355.667964 
L 196.182734 -354.038327 
L 197.081638 -352.388295 
L 197.938777 -350.717349 
L 198.738054 -349.024952 
L 199.465788 -347.310547 
L 200.111905 -345.573554 
L 200.670922 -343.81337 
L 201.142605 -342.029366 
L 201.532183 -340.22089 
L 201.850063 -338.38726 
L 202.111036 -336.527767 
L 202.33302 -334.641672 
L 202.535437 -332.728201 
L 202.737379 -330.786548 
L 202.955737 -328.815871 
L 203.203475 -326.815289 
L 203.488223 -324.783881 
L 203.811334 -322.720681 
L 204.167504 -320.624678 
L 204.544979 -318.494813 
L 204.926349 -316.329973 
L 205.289825 -314.128991 
L 205.610897 -311.890639 
L 205.864185 -309.613626 
L 206.02533 -307.296594 
L 206.072727 -304.93811 
L 205.988968 -302.536664 
L 205.761859 -300.090663 
L 205.384965 -297.59842 
L 204.857651 -295.058155 
L 204.184673 -292.467979 
L 203.375405 -289.825893 
L 202.442815 -287.129773 
L 201.40232 -284.377363 
L 200.270666 -281.566262 
L 199.064922 -278.693913 
L 197.801683 -275.757587 
L 196.496514 -272.754368 
L 195.163639 -269.681138 
L 193.815838 -266.534555 
L 192.464508 -263.311032 
L 191.119815 -260.00671 
L 189.790875 -256.617436 
L 188.485915 -253.138725 
L 187.212385 -249.565729 
L 185.977004 -245.893195 
L 184.785748 -242.115417 
L 183.643804 -238.226185 
L 182.555511 -234.218722 
L 181.524315 -230.085614 
L 180.552761 -225.818726 
L 179.642518 -221.409108 
L 178.794447 -216.846879 
L 178.008706 -212.121096 
z
" id="m3411cdcf38" style="stroke:#000000;"/>
    </defs>
    <g clip-path="url(#p4dd760d3a6)">
     <use style="fill:#dd7373;stroke:#000000;" x="0" xlink:href="#m3411cdcf38" y="648"/>
    </g>
   </g>
   <g id="PolyCollection_2">
    <defs>
     <path d="M 310.038322 -185.67424 
L 305.016223 -185.67424 
L 304.118434 -193.410691 
L 303.018948 -200.718205 
L 301.714775 -207.641856 
L 300.217369 -214.219968 
L 298.55174 -220.485399 
L 296.751962 -226.466528 
L 294.854904 -232.188043 
L 292.895292 -237.671545 
L 290.904684 -242.936049 
L 288.914529 -247.998377 
L 286.960571 -252.873486 
L 285.084374 -257.574731 
L 283.329032 -262.114087 
L 281.729684 -266.502333 
L 280.30331 -270.749207 
L 279.043869 -274.863534 
L 277.926904 -278.853338 
L 276.923003 -282.725936 
L 276.014532 -286.488017 
L 275.207649 -290.145716 
L 274.533318 -293.704667 
L 274.036149 -297.170064 
L 273.755768 -300.546699 
L 273.709091 -303.839006 
L 273.881462 -307.051095 
L 274.230356 -310.186781 
L 274.699466 -313.249615 
L 275.236315 -316.242905 
L 275.805433 -319.169741 
L 276.391943 -322.033007 
L 276.995761 -324.835408 
L 277.621534 -327.579476 
L 278.271293 -330.267592 
L 278.944474 -332.901991 
L 279.644721 -335.484778 
L 280.387994 -338.017937 
L 281.204961 -340.503339 
L 282.133612 -342.942751 
L 283.203799 -345.337845 
L 284.4205 -347.690202 
L 285.754036 -350.00132 
L 287.142528 -352.272621 
L 288.506374 -354.505453 
L 289.769398 -356.701099 
L 290.879034 -358.860775 
L 291.818944 -360.985642 
L 292.610781 -363.076804 
L 293.305607 -365.135314 
L 293.968364 -367.162175 
L 294.660151 -369.158347 
L 295.423085 -371.124744 
L 296.271353 -373.062242 
L 297.190269 -374.971678 
L 298.142882 -376.853853 
L 299.081555 -378.709535 
L 299.96072 -380.539459 
L 300.74698 -382.34433 
L 301.424168 -384.124826 
L 301.992974 -385.881596 
L 302.466646 -387.615263 
L 302.865083 -389.326428 
L 303.209448 -391.015668 
L 303.518473 -392.683536 
L 303.806613 -394.330567 
L 304.083596 -395.957276 
L 304.354738 -397.564157 
L 304.621505 -399.151689 
L 304.881993 -400.720331 
L 305.131279 -402.270528 
L 305.361856 -403.802709 
L 305.564575 -405.317287 
L 305.730474 -406.814663 
L 305.853422 -408.295222 
L 305.932868 -409.759339 
L 305.975536 -411.207375 
L 305.995066 -412.639679 
L 306.009347 -414.056588 
L 306.036326 -415.458432 
L 306.089747 -416.845525 
L 306.176306 -418.218177 
L 306.295029 -419.576684 
L 306.438754 -420.921335 
L 306.596839 -422.25241 
L 306.757973 -423.570179 
L 306.912265 -424.874908 
L 307.052282 -426.16685 
L 307.173229 -427.446255 
L 307.272639 -428.713362 
L 307.349898 -429.968408 
L 307.405794 -431.211618 
L 307.442111 -432.443214 
L 307.461295 -433.663411 
L 307.46624 -434.872418 
L 307.460214 -436.070439 
L 307.446878 -437.257671 
L 307.430253 -438.434307 
L 307.414475 -439.600534 
L 307.40328 -440.756535 
L 307.399342 -441.902488 
L 307.655203 -441.902488 
L 307.655203 -441.902488 
L 307.651266 -440.756535 
L 307.64007 -439.600534 
L 307.624292 -438.434307 
L 307.607668 -437.257671 
L 307.594332 -436.070439 
L 307.588306 -434.872418 
L 307.59325 -433.663411 
L 307.612434 -432.443214 
L 307.648751 -431.211618 
L 307.704648 -429.968408 
L 307.781907 -428.713362 
L 307.881316 -427.446255 
L 308.002264 -426.16685 
L 308.142281 -424.874908 
L 308.296572 -423.570179 
L 308.457707 -422.25241 
L 308.615791 -420.921335 
L 308.759517 -419.576684 
L 308.878239 -418.218177 
L 308.964798 -416.845525 
L 309.01822 -415.458432 
L 309.045198 -414.056588 
L 309.059479 -412.639679 
L 309.079009 -411.207375 
L 309.121677 -409.759339 
L 309.201123 -408.295222 
L 309.324071 -406.814663 
L 309.48997 -405.317287 
L 309.692689 -403.802709 
L 309.923266 -402.270528 
L 310.172552 -400.720331 
L 310.43304 -399.151689 
L 310.699807 -397.564157 
L 310.97095 -395.957276 
L 311.247932 -394.330567 
L 311.536072 -392.683536 
L 311.845098 -391.015668 
L 312.189463 -389.326428 
L 312.587899 -387.615263 
L 313.061571 -385.881596 
L 313.630378 -384.124826 
L 314.307565 -382.34433 
L 315.093826 -380.539459 
L 315.972991 -378.709535 
L 316.911664 -376.853853 
L 317.864276 -374.971678 
L 318.783193 -373.062242 
L 319.63146 -371.124744 
L 320.394394 -369.158347 
L 321.086182 -367.162175 
L 321.748938 -365.135314 
L 322.443765 -363.076804 
L 323.235602 -360.985642 
L 324.175511 -358.860775 
L 325.285147 -356.701099 
L 326.548171 -354.505453 
L 327.912017 -352.272621 
L 329.30051 -350.00132 
L 330.634045 -347.690202 
L 331.850747 -345.337845 
L 332.920934 -342.942751 
L 333.849584 -340.503339 
L 334.666552 -338.017937 
L 335.409825 -335.484778 
L 336.110071 -332.901991 
L 336.783252 -330.267592 
L 337.433012 -327.579476 
L 338.058784 -324.835408 
L 338.662603 -322.033007 
L 339.249112 -319.169741 
L 339.81823 -316.242905 
L 340.35508 -313.249615 
L 340.824189 -310.186781 
L 341.173084 -307.051095 
L 341.345455 -303.839006 
L 341.298778 -300.546699 
L 341.018396 -297.170064 
L 340.521227 -293.704667 
L 339.846896 -290.145716 
L 339.040013 -286.488017 
L 338.131543 -282.725936 
L 337.127642 -278.853338 
L 336.010677 -274.863534 
L 334.751236 -270.749207 
L 333.324862 -266.502333 
L 331.725513 -262.114087 
L 329.970171 -257.574731 
L 328.093975 -252.873486 
L 326.140017 -247.998377 
L 324.149862 -242.936049 
L 322.159253 -237.671545 
L 320.199642 -232.188043 
L 318.302584 -226.466528 
L 316.502806 -220.485399 
L 314.837176 -214.219968 
L 313.33977 -207.641856 
L 312.035597 -200.718205 
L 310.936111 -193.410691 
L 310.038322 -185.67424 
z
" id="m5966bea57b" style="stroke:#000000;"/>
    </defs>
    <g clip-path="url(#p4dd760d3a6)">
     <use style="fill:#305252;stroke:#000000;" x="0" xlink:href="#m5966bea57b" y="648"/>
    </g>
   </g>
   <g id="PolyCollection_3">
    <defs>
     <path d="M 444.758172 -154.316059 
L 440.841828 -154.316059 
L 439.67732 -165.007548 
L 438.191373 -174.896655 
L 436.45704 -184.095455 
L 434.582522 -192.694064 
L 432.666763 -200.766029 
L 430.758429 -208.372155 
L 428.841183 -215.563288 
L 426.851927 -222.382381 
L 424.721952 -228.866041 
L 422.422569 -235.045729 
L 419.994732 -240.948674 
L 417.546466 -246.598603 
L 415.218397 -252.016319 
L 413.140503 -257.220158 
L 411.410458 -262.226367 
L 410.101591 -267.049409 
L 409.276978 -271.702218 
L 408.981818 -276.1964 
L 409.214961 -280.542416 
L 409.907532 -284.749725 
L 410.931788 -288.826908 
L 412.135927 -292.781772 
L 413.381464 -296.621445 
L 414.564646 -300.352446 
L 415.621878 -303.980758 
L 416.530504 -307.511884 
L 417.311145 -310.950892 
L 418.025209 -314.302469 
L 418.756753 -317.570949 
L 419.57714 -320.760353 
L 420.506773 -323.874418 
L 421.498059 -326.91662 
L 422.456762 -329.890203 
L 423.294542 -332.798192 
L 423.979455 -335.643421 
L 424.547395 -338.428539 
L 425.065779 -341.156036 
L 425.58064 -343.828247 
L 426.092498 -346.447368 
L 426.578819 -349.015469 
L 427.036852 -351.534499 
L 427.503551 -354.006298 
L 428.033903 -356.432605 
L 428.658606 -358.815064 
L 429.358797 -361.155232 
L 430.078137 -363.454584 
L 430.760997 -365.71452 
L 431.387053 -367.936368 
L 431.978907 -370.121391 
L 432.581525 -372.270789 
L 433.231516 -374.385706 
L 433.937206 -376.46723 
L 434.678328 -378.5164 
L 435.419005 -380.534206 
L 436.121777 -382.521593 
L 436.755786 -384.479466 
L 437.30099 -386.408688 
L 437.753042 -388.310085 
L 438.128268 -390.184449 
L 438.462405 -392.032538 
L 438.79827 -393.855077 
L 439.166391 -395.652765 
L 439.570506 -397.426269 
L 439.988115 -399.176232 
L 440.385244 -400.90327 
L 440.734035 -402.607976 
L 441.021641 -404.290921 
L 441.24853 -405.952652 
L 441.422626 -407.593699 
L 441.555211 -409.21457 
L 441.658625 -410.815754 
L 441.7434 -412.397725 
L 441.815434 -413.960938 
L 441.87641 -415.505832 
L 441.928014 -417.032833 
L 441.976098 -418.542349 
L 442.030506 -420.034777 
L 442.100404 -421.510499 
L 442.188648 -422.969885 
L 442.289117 -424.413293 
L 442.388926 -425.841068 
L 442.474673 -427.253547 
L 442.539161 -428.651052 
L 442.584246 -430.033899 
L 442.617985 -431.402392 
L 442.648483 -432.756825 
L 442.679093 -434.097484 
L 442.708053 -435.424647 
L 442.731717 -436.738583 
L 442.747942 -438.039553 
L 442.756972 -439.327811 
L 442.760075 -440.603601 
L 442.758219 -441.867164 
L 442.752296 -443.118731 
L 442.744217 -444.358529 
L 442.7372 -445.586776 
L 442.734583 -446.803685 
L 442.738146 -448.009464 
L 442.747325 -449.204316 
L 442.852675 -449.204316 
L 442.852675 -449.204316 
L 442.861854 -448.009464 
L 442.865417 -446.803685 
L 442.8628 -445.586776 
L 442.855783 -444.358529 
L 442.847704 -443.118731 
L 442.841781 -441.867164 
L 442.839925 -440.603601 
L 442.843028 -439.327811 
L 442.852058 -438.039553 
L 442.868283 -436.738583 
L 442.891947 -435.424647 
L 442.920907 -434.097484 
L 442.951517 -432.756825 
L 442.982015 -431.402392 
L 443.015754 -430.033899 
L 443.060839 -428.651052 
L 443.125327 -427.253547 
L 443.211074 -425.841068 
L 443.310883 -424.413293 
L 443.411352 -422.969885 
L 443.499596 -421.510499 
L 443.569494 -420.034777 
L 443.623902 -418.542349 
L 443.671986 -417.032833 
L 443.72359 -415.505832 
L 443.784566 -413.960938 
L 443.8566 -412.397725 
L 443.941375 -410.815754 
L 444.044789 -409.21457 
L 444.177374 -407.593699 
L 444.35147 -405.952652 
L 444.578359 -404.290921 
L 444.865965 -402.607976 
L 445.214756 -400.90327 
L 445.611885 -399.176232 
L 446.029494 -397.426269 
L 446.433609 -395.652765 
L 446.80173 -393.855077 
L 447.137595 -392.032538 
L 447.471732 -390.184449 
L 447.846958 -388.310085 
L 448.29901 -386.408688 
L 448.844214 -384.479466 
L 449.478223 -382.521593 
L 450.180995 -380.534206 
L 450.921672 -378.5164 
L 451.662794 -376.46723 
L 452.368484 -374.385706 
L 453.018475 -372.270789 
L 453.621093 -370.121391 
L 454.212947 -367.936368 
L 454.839003 -365.71452 
L 455.521863 -363.454584 
L 456.241203 -361.155232 
L 456.941394 -358.815064 
L 457.566097 -356.432605 
L 458.096449 -354.006298 
L 458.563148 -351.534499 
L 459.021181 -349.015469 
L 459.507502 -346.447368 
L 460.01936 -343.828247 
L 460.534221 -341.156036 
L 461.052605 -338.428539 
L 461.620545 -335.643421 
L 462.305458 -332.798192 
L 463.143238 -329.890203 
L 464.101941 -326.91662 
L 465.093227 -323.874418 
L 466.02286 -320.760353 
L 466.843247 -317.570949 
L 467.574791 -314.302469 
L 468.288855 -310.950892 
L 469.069496 -307.511884 
L 469.978122 -303.980758 
L 471.035354 -300.352446 
L 472.218536 -296.621445 
L 473.464073 -292.781772 
L 474.668212 -288.826908 
L 475.692468 -284.749725 
L 476.385039 -280.542416 
L 476.618182 -276.1964 
L 476.323022 -271.702218 
L 475.498409 -267.049409 
L 474.189542 -262.226367 
L 472.459497 -257.220158 
L 470.381603 -252.016319 
L 468.053534 -246.598603 
L 465.605268 -240.948674 
L 463.177431 -235.045729 
L 460.878048 -228.866041 
L 458.748073 -222.382381 
L 456.758817 -215.563288 
L 454.841571 -208.372155 
L 452.933237 -200.766029 
L 451.017478 -192.694064 
L 449.14296 -184.095455 
L 447.408627 -174.896655 
L 445.92268 -165.007548 
L 444.758172 -154.316059 
z
" id="mc5f5ecc0cc" style="stroke:#000000;"/>
    </defs>
    <g clip-path="url(#p4dd760d3a6)">
     <use style="fill:#3c787e;stroke:#000000;" x="0" xlink:href="#mc5f5ecc0cc" y="648"/>
    </g>
   </g>
   <g id="PolyCollection_4">
    <defs>
     <path d="M 579.99525 -163.897354 
L 576.150205 -163.897354 
L 574.97968 -175.213952 
L 573.47065 -185.635478 
L 571.689537 -195.293202 
L 569.742123 -204.291479 
L 567.732894 -212.714637 
L 565.723502 -220.631797 
L 563.712992 -228.100323 
L 561.651945 -235.168344 
L 559.483712 -241.876638 
L 557.189699 -248.260054 
L 554.814069 -254.348612 
L 552.457866 -260.168352 
L 550.249894 -265.742012 
L 548.309452 -271.089561 
L 546.716642 -276.228631 
L 545.504716 -281.174869 
L 544.679921 -285.942226 
L 544.254545 -290.543189 
L 544.263705 -294.988982 
L 544.744719 -299.289732 
L 545.688752 -303.454604 
L 547.003847 -307.491922 
L 548.527105 -311.409267 
L 550.085025 -315.213564 
L 551.55883 -318.911156 
L 552.909093 -322.507864 
L 554.150427 -326.009049 
L 555.302001 -329.419653 
L 556.348384 -332.744245 
L 557.235263 -335.987057 
L 557.905257 -339.152016 
L 558.352314 -342.242773 
L 558.654245 -345.262726 
L 558.953478 -348.215049 
L 559.39355 -351.102703 
L 560.052136 -353.928461 
L 560.912738 -356.69492 
L 561.887391 -359.40452 
L 562.868337 -362.059549 
L 563.774538 -364.662163 
L 564.572582 -367.214392 
L 565.270826 -369.718148 
L 565.895234 -372.175239 
L 566.461097 -374.587373 
L 566.960961 -376.956166 
L 567.381537 -379.283146 
L 567.735379 -381.569766 
L 568.073837 -383.817401 
L 568.464446 -386.027358 
L 568.952909 -388.20088 
L 569.544655 -390.339148 
L 570.217898 -392.443289 
L 570.94812 -394.514373 
L 571.717653 -396.553424 
L 572.505687 -398.561419 
L 573.276189 -400.539287 
L 573.98076 -402.487921 
L 574.575558 -404.408171 
L 575.038192 -406.300854 
L 575.373298 -408.166748 
L 575.60634 -410.006603 
L 575.771836 -411.821134 
L 575.902419 -413.61103 
L 576.022417 -415.376949 
L 576.1464 -417.119528 
L 576.28084 -418.839373 
L 576.427001 -420.537071 
L 576.583883 -422.213184 
L 576.749733 -423.868256 
L 576.92109 -425.502807 
L 577.091111 -427.117341 
L 577.250357 -428.71234 
L 577.390293 -430.288274 
L 577.506196 -431.845592 
L 577.597308 -433.384728 
L 577.665693 -434.906103 
L 577.715971 -436.410121 
L 577.755426 -437.897174 
L 577.792537 -439.367641 
L 577.833635 -440.821888 
L 577.879908 -442.260268 
L 577.927217 -443.683124 
L 577.968932 -445.090788 
L 577.999719 -446.48358 
L 578.017879 -447.861811 
L 578.025157 -449.225784 
L 578.024761 -450.575789 
L 578.019364 -451.91211 
L 578.010606 -453.235021 
L 578.000063 -454.54479 
L 577.990198 -455.841674 
L 577.983995 -457.125925 
L 577.983511 -458.397786 
L 577.988722 -459.657494 
L 577.997674 -460.90528 
L 578.007748 -462.141366 
L 578.017105 -463.365971 
L 578.025397 -464.579304 
L 578.033376 -465.781573 
L 578.112078 -465.781573 
L 578.112078 -465.781573 
L 578.120057 -464.579304 
L 578.12835 -463.365971 
L 578.137707 -462.141366 
L 578.147781 -460.90528 
L 578.156733 -459.657494 
L 578.161944 -458.397786 
L 578.161459 -457.125925 
L 578.155256 -455.841674 
L 578.145391 -454.54479 
L 578.134849 -453.235021 
L 578.126091 -451.91211 
L 578.120694 -450.575789 
L 578.120297 -449.225784 
L 578.127576 -447.861811 
L 578.145735 -446.48358 
L 578.176523 -445.090788 
L 578.218238 -443.683124 
L 578.265547 -442.260268 
L 578.311819 -440.821888 
L 578.352917 -439.367641 
L 578.390029 -437.897174 
L 578.429484 -436.410121 
L 578.479761 -434.906103 
L 578.548147 -433.384728 
L 578.639258 -431.845592 
L 578.755161 -430.288274 
L 578.895097 -428.71234 
L 579.054344 -427.117341 
L 579.224364 -425.502807 
L 579.395722 -423.868256 
L 579.561572 -422.213184 
L 579.718454 -420.537071 
L 579.864614 -418.839373 
L 579.999054 -417.119528 
L 580.123038 -415.376949 
L 580.243036 -413.61103 
L 580.373618 -411.821134 
L 580.539115 -410.006603 
L 580.772157 -408.166748 
L 581.107262 -406.300854 
L 581.569896 -404.408171 
L 582.164695 -402.487921 
L 582.869265 -400.539287 
L 583.639768 -398.561419 
L 584.427802 -396.553424 
L 585.197334 -394.514373 
L 585.927557 -392.443289 
L 586.600799 -390.339148 
L 587.192545 -388.20088 
L 587.681009 -386.027358 
L 588.071617 -383.817401 
L 588.410076 -381.569766 
L 588.763917 -379.283146 
L 589.184494 -376.956166 
L 589.684358 -374.587373 
L 590.250221 -372.175239 
L 590.874629 -369.718148 
L 591.572872 -367.214392 
L 592.370917 -364.662163 
L 593.277117 -362.059549 
L 594.258063 -359.40452 
L 595.232717 -356.69492 
L 596.093318 -353.928461 
L 596.751904 -351.102703 
L 597.191976 -348.215049 
L 597.49121 -345.262726 
L 597.79314 -342.242773 
L 598.240198 -339.152016 
L 598.910192 -335.987057 
L 599.797071 -332.744245 
L 600.843453 -329.419653 
L 601.995028 -326.009049 
L 603.236361 -322.507864 
L 604.586625 -318.911156 
L 606.060429 -315.213564 
L 607.61835 -311.409267 
L 609.141608 -307.491922 
L 610.456702 -303.454604 
L 611.400736 -299.289732 
L 611.88175 -294.988982 
L 611.890909 -290.543189 
L 611.465534 -285.942226 
L 610.640739 -281.174869 
L 609.428813 -276.228631 
L 607.836002 -271.089561 
L 605.89556 -265.742012 
L 603.687589 -260.168352 
L 601.331385 -254.348612 
L 598.955755 -248.260054 
L 596.661742 -241.876638 
L 594.49351 -235.168344 
L 592.432462 -228.100323 
L 590.421952 -220.631797 
L 588.412561 -212.714637 
L 586.403332 -204.291479 
L 584.455918 -195.293202 
L 582.674805 -185.635478 
L 581.165775 -175.213952 
L 579.99525 -163.897354 
z
" id="md1028b9c4d" style="stroke:#000000;"/>
    </defs>
    <g clip-path="url(#p4dd760d3a6)">
     <use style="fill:#d0cd94;stroke:#000000;" x="0" xlink:href="#md1028b9c4d" y="648"/>
    </g>
   </g>
   <g id="PolyCollection_5">
    <defs>
     <path d="M 713.354259 -93.96 
L 713.33665 -93.96 
L 713.2536 -129.06712 
L 712.831648 -156.764235 
L 711.478148 -179.640682 
L 708.631347 -199.12836 
L 704.055783 -216.102922 
L 698.467814 -231.139129 
L 692.708021 -244.634645 
L 687.496916 -256.876066 
L 683.544637 -268.07678 
L 681.214694 -278.399958 
L 679.625764 -287.97317 
L 679.527273 -296.898042 
L 680.060305 -305.256848 
L 681.406822 -313.117132 
L 683.168593 -320.535026 
L 685.429609 -327.557684 
L 687.775767 -334.225102 
L 690.16356 -340.571497 
L 692.527838 -346.626365 
L 694.801701 -352.415318 
L 696.969592 -357.960734 
L 698.973538 -363.282278 
L 700.697967 -368.397327 
L 702.267538 -373.32131 
L 703.814729 -378.067989 
L 705.20528 -382.649689 
L 706.316015 -387.077495 
L 707.39226 -391.361409 
L 708.27194 -395.510491 
L 709.109852 -399.53297 
L 709.760764 -403.436343 
L 710.358811 -407.227462 
L 710.83694 -410.912602 
L 711.257057 -414.497529 
L 711.56837 -417.987549 
L 711.87895 -421.387557 
L 712.149933 -424.70208 
L 712.360348 -427.935312 
L 712.497792 -431.091145 
L 712.654997 -434.173197 
L 712.762568 -437.18484 
L 712.867784 -440.12922 
L 712.955793 -443.009275 
L 713.039582 -445.827756 
L 713.089258 -448.58724 
L 713.13932 -451.290148 
L 713.176503 -453.938752 
L 713.192376 -456.535192 
L 713.227569 -459.081482 
L 713.257745 -461.579523 
L 713.274513 -464.031111 
L 713.281844 -466.43794 
L 713.285915 -468.801616 
L 713.296125 -471.12366 
L 713.305918 -473.405512 
L 713.304248 -475.648541 
L 713.311289 -477.854044 
L 713.316958 -480.023258 
L 713.320469 -482.157357 
L 713.327085 -484.25746 
L 713.33184 -486.324633 
L 713.33283 -488.359892 
L 713.338424 -490.364209 
L 713.340046 -492.33851 
L 713.336795 -494.28368 
L 713.336565 -496.200567 
L 713.338584 -498.089982 
L 713.339996 -499.952701 
L 713.342636 -501.789468 
L 713.343407 -503.600996 
L 713.343962 -505.387969 
L 713.343887 -507.151044 
L 713.344451 -508.890852 
L 713.343876 -510.607999 
L 713.343271 -512.303067 
L 713.344686 -513.976618 
L 713.344454 -515.629191 
L 713.344819 -517.261304 
L 713.345219 -518.873459 
L 713.34529 -520.466138 
L 713.344501 -522.039806 
L 713.345027 -523.594911 
L 713.34507 -525.131885 
L 713.345241 -526.651148 
L 713.344602 -528.153102 
L 713.345357 -529.638138 
L 713.345266 -531.106632 
L 713.344678 -532.558949 
L 713.345396 -533.995441 
L 713.345452 -535.41645 
L 713.345181 -536.822305 
L 713.344996 -538.213327 
L 713.345206 -539.589825 
L 713.345453 -540.9521 
L 713.345455 -542.300442 
L 713.345455 -543.635133 
L 713.345455 -544.956448 
L 713.345415 -546.264651 
L 713.345007 -547.56 
L 713.345902 -547.56 
L 713.345902 -547.56 
L 713.345494 -546.264651 
L 713.345455 -544.956448 
L 713.345455 -543.635133 
L 713.345455 -542.300442 
L 713.345457 -540.9521 
L 713.345703 -539.589825 
L 713.345913 -538.213327 
L 713.345728 -536.822305 
L 713.345457 -535.41645 
L 713.345513 -533.995441 
L 713.346231 -532.558949 
L 713.345643 -531.106632 
L 713.345553 -529.638138 
L 713.346307 -528.153102 
L 713.345668 -526.651148 
L 713.345839 -525.131885 
L 713.345882 -523.594911 
L 713.346408 -522.039806 
L 713.345619 -520.466138 
L 713.34569 -518.873459 
L 713.34609 -517.261304 
L 713.346455 -515.629191 
L 713.346223 -513.976618 
L 713.347638 -512.303067 
L 713.347033 -510.607999 
L 713.346458 -508.890852 
L 713.347022 -507.151044 
L 713.346947 -505.387969 
L 713.347503 -503.600996 
L 713.348273 -501.789468 
L 713.350913 -499.952701 
L 713.352326 -498.089982 
L 713.354344 -496.200567 
L 713.354114 -494.28368 
L 713.350863 -492.33851 
L 713.352485 -490.364209 
L 713.358079 -488.359892 
L 713.359069 -486.324633 
L 713.363824 -484.25746 
L 713.37044 -482.157357 
L 713.373952 -480.023258 
L 713.37962 -477.854044 
L 713.386661 -475.648541 
L 713.384991 -473.405512 
L 713.394784 -471.12366 
L 713.404994 -468.801616 
L 713.409065 -466.43794 
L 713.416396 -464.031111 
L 713.433164 -461.579523 
L 713.463341 -459.081482 
L 713.498533 -456.535192 
L 713.514406 -453.938752 
L 713.551589 -451.290148 
L 713.601651 -448.58724 
L 713.651327 -445.827756 
L 713.735116 -443.009275 
L 713.823125 -440.12922 
L 713.928341 -437.18484 
L 714.035912 -434.173197 
L 714.193118 -431.091145 
L 714.330561 -427.935312 
L 714.540976 -424.70208 
L 714.811959 -421.387557 
L 715.12254 -417.987549 
L 715.433852 -414.497529 
L 715.853969 -410.912602 
L 716.332098 -407.227462 
L 716.930145 -403.436343 
L 717.581057 -399.53297 
L 718.418969 -395.510491 
L 719.298649 -391.361409 
L 720.374894 -387.077495 
L 721.485629 -382.649689 
L 722.87618 -378.067989 
L 724.423371 -373.32131 
L 725.992942 -368.397327 
L 727.717371 -363.282278 
L 729.721317 -357.960734 
L 731.889208 -352.415318 
L 734.163071 -346.626365 
L 736.527349 -340.571497 
L 738.915142 -334.225102 
L 741.261301 -327.557684 
L 743.522316 -320.535026 
L 745.284088 -313.117132 
L 746.630604 -305.256848 
L 747.163636 -296.898042 
L 747.065145 -287.97317 
L 745.476215 -278.399958 
L 743.146273 -268.07678 
L 739.193993 -256.876066 
L 733.982888 -244.634645 
L 728.223095 -231.139129 
L 722.635126 -216.102922 
L 718.059562 -199.12836 
L 715.212761 -179.640682 
L 713.859261 -156.764235 
L 713.437309 -129.06712 
L 713.354259 -93.96 
z
" id="m9d7658da75" style="stroke:#000000;"/>
    </defs>
    <g clip-path="url(#p4dd760d3a6)">
     <use style="fill:#9597a3;stroke:#000000;" x="0" xlink:href="#m9d7658da75" y="648"/>
    </g>
   </g>
   <g id="matplotlib.axis_1">
    <g id="xtick_1">
     <g id="line2d_1">
      <defs>
       <path d="M 0 0 
L 0 3.5 
" id="mcaca3243d7" style="stroke:#000000;stroke-width:0.8;"/>
      </defs>
      <g>
       <use style="stroke:#000000;stroke-width:0.8;" x="172.254545" xlink:href="#mcaca3243d7" y="576.72"/>
      </g>
     </g>
     <g id="text_1">
      <!-- Historic -->
      <defs>
       <path d="M 9.8125 72.90625 
L 19.671875 72.90625 
L 19.671875 43.015625 
L 55.515625 43.015625 
L 55.515625 72.90625 
L 65.375 72.90625 
L 65.375 0 
L 55.515625 0 
L 55.515625 34.71875 
L 19.671875 34.71875 
L 19.671875 0 
L 9.8125 0 
z
" id="DejaVuSans-72"/>
       <path d="M 9.421875 54.6875 
L 18.40625 54.6875 
L 18.40625 0 
L 9.421875 0 
z
M 9.421875 75.984375 
L 18.40625 75.984375 
L 18.40625 64.59375 
L 9.421875 64.59375 
z
" id="DejaVuSans-105"/>
       <path d="M 44.28125 53.078125 
L 44.28125 44.578125 
Q 40.484375 46.53125 36.375 47.5 
Q 32.28125 48.484375 27.875 48.484375 
Q 21.1875 48.484375 17.84375 46.4375 
Q 14.5 44.390625 14.5 40.28125 
Q 14.5 37.15625 16.890625 35.375 
Q 19.28125 33.59375 26.515625 31.984375 
L 29.59375 31.296875 
Q 39.15625 29.25 43.1875 25.515625 
Q 47.21875 21.78125 47.21875 15.09375 
Q 47.21875 7.46875 41.1875 3.015625 
Q 35.15625 -1.421875 24.609375 -1.421875 
Q 20.21875 -1.421875 15.453125 -0.5625 
Q 10.6875 0.296875 5.421875 2 
L 5.421875 11.28125 
Q 10.40625 8.6875 15.234375 7.390625 
Q 20.0625 6.109375 24.8125 6.109375 
Q 31.15625 6.109375 34.5625 8.28125 
Q 37.984375 10.453125 37.984375 14.40625 
Q 37.984375 18.0625 35.515625 20.015625 
Q 33.0625 21.96875 24.703125 23.78125 
L 21.578125 24.515625 
Q 13.234375 26.265625 9.515625 29.90625 
Q 5.8125 33.546875 5.8125 39.890625 
Q 5.8125 47.609375 11.28125 51.796875 
Q 16.75 56 26.8125 56 
Q 31.78125 56 36.171875 55.265625 
Q 40.578125 54.546875 44.28125 53.078125 
z
" id="DejaVuSans-115"/>
       <path d="M 18.3125 70.21875 
L 18.3125 54.6875 
L 36.8125 54.6875 
L 36.8125 47.703125 
L 18.3125 47.703125 
L 18.3125 18.015625 
Q 18.3125 11.328125 20.140625 9.421875 
Q 21.96875 7.515625 27.59375 7.515625 
L 36.8125 7.515625 
L 36.8125 0 
L 27.59375 0 
Q 17.1875 0 13.234375 3.875 
Q 9.28125 7.765625 9.28125 18.015625 
L 9.28125 47.703125 
L 2.6875 47.703125 
L 2.6875 54.6875 
L 9.28125 54.6875 
L 9.28125 70.21875 
z
" id="DejaVuSans-116"/>
       <path d="M 30.609375 48.390625 
Q 23.390625 48.390625 19.1875 42.75 
Q 14.984375 37.109375 14.984375 27.296875 
Q 14.984375 17.484375 19.15625 11.84375 
Q 23.34375 6.203125 30.609375 6.203125 
Q 37.796875 6.203125 41.984375 11.859375 
Q 46.1875 17.53125 46.1875 27.296875 
Q 46.1875 37.015625 41.984375 42.703125 
Q 37.796875 48.390625 30.609375 48.390625 
z
M 30.609375 56 
Q 42.328125 56 49.015625 48.375 
Q 55.71875 40.765625 55.71875 27.296875 
Q 55.71875 13.875 49.015625 6.21875 
Q 42.328125 -1.421875 30.609375 -1.421875 
Q 18.84375 -1.421875 12.171875 6.21875 
Q 5.515625 13.875 5.515625 27.296875 
Q 5.515625 40.765625 12.171875 48.375 
Q 18.84375 56 30.609375 56 
z
" id="DejaVuSans-111"/>
       <path d="M 41.109375 46.296875 
Q 39.59375 47.171875 37.8125 47.578125 
Q 36.03125 48 33.890625 48 
Q 26.265625 48 22.1875 43.046875 
Q 18.109375 38.09375 18.109375 28.8125 
L 18.109375 0 
L 9.078125 0 
L 9.078125 54.6875 
L 18.109375 54.6875 
L 18.109375 46.1875 
Q 20.953125 51.171875 25.484375 53.578125 
Q 30.03125 56 36.53125 56 
Q 37.453125 56 38.578125 55.875 
Q 39.703125 55.765625 41.0625 55.515625 
z
" id="DejaVuSans-114"/>
       <path d="M 48.78125 52.59375 
L 48.78125 44.1875 
Q 44.96875 46.296875 41.140625 47.34375 
Q 37.3125 48.390625 33.40625 48.390625 
Q 24.65625 48.390625 19.8125 42.84375 
Q 14.984375 37.3125 14.984375 27.296875 
Q 14.984375 17.28125 19.8125 11.734375 
Q 24.65625 6.203125 33.40625 6.203125 
Q 37.3125 6.203125 41.140625 7.25 
Q 44.96875 8.296875 48.78125 10.40625 
L 48.78125 2.09375 
Q 45.015625 0.34375 40.984375 -0.53125 
Q 36.96875 -1.421875 32.421875 -1.421875 
Q 20.0625 -1.421875 12.78125 6.34375 
Q 5.515625 14.109375 5.515625 27.296875 
Q 5.515625 40.671875 12.859375 48.328125 
Q 20.21875 56 33.015625 56 
Q 37.15625 56 41.109375 55.140625 
Q 45.0625 54.296875 48.78125 52.59375 
z
" id="DejaVuSans-99"/>
      </defs>
      <g transform="translate(141.907045 595.8775)scale(0.16 -0.16)">
       <use xlink:href="#DejaVuSans-72"/>
       <use x="75.195312" xlink:href="#DejaVuSans-105"/>
       <use x="102.978516" xlink:href="#DejaVuSans-115"/>
       <use x="155.078125" xlink:href="#DejaVuSans-116"/>
       <use x="194.287109" xlink:href="#DejaVuSans-111"/>
       <use x="255.46875" xlink:href="#DejaVuSans-114"/>
       <use x="296.582031" xlink:href="#DejaVuSans-105"/>
       <use x="324.365234" xlink:href="#DejaVuSans-99"/>
      </g>
     </g>
    </g>
    <g id="xtick_2">
     <g id="line2d_2">
      <g>
       <use style="stroke:#000000;stroke-width:0.8;" x="307.527273" xlink:href="#mcaca3243d7" y="576.72"/>
      </g>
     </g>
     <g id="text_2">
      <!-- Stationary synthetic -->
      <defs>
       <path d="M 53.515625 70.515625 
L 53.515625 60.890625 
Q 47.90625 63.578125 42.921875 64.890625 
Q 37.9375 66.21875 33.296875 66.21875 
Q 25.25 66.21875 20.875 63.09375 
Q 16.5 59.96875 16.5 54.203125 
Q 16.5 49.359375 19.40625 46.890625 
Q 22.3125 44.4375 30.421875 42.921875 
L 36.375 41.703125 
Q 47.40625 39.59375 52.65625 34.296875 
Q 57.90625 29 57.90625 20.125 
Q 57.90625 9.515625 50.796875 4.046875 
Q 43.703125 -1.421875 29.984375 -1.421875 
Q 24.8125 -1.421875 18.96875 -0.25 
Q 13.140625 0.921875 6.890625 3.21875 
L 6.890625 13.375 
Q 12.890625 10.015625 18.65625 8.296875 
Q 24.421875 6.59375 29.984375 6.59375 
Q 38.421875 6.59375 43.015625 9.90625 
Q 47.609375 13.234375 47.609375 19.390625 
Q 47.609375 24.75 44.3125 27.78125 
Q 41.015625 30.8125 33.5 32.328125 
L 27.484375 33.5 
Q 16.453125 35.6875 11.515625 40.375 
Q 6.59375 45.0625 6.59375 53.421875 
Q 6.59375 63.09375 13.40625 68.65625 
Q 20.21875 74.21875 32.171875 74.21875 
Q 37.3125 74.21875 42.625 73.28125 
Q 47.953125 72.359375 53.515625 70.515625 
z
" id="DejaVuSans-83"/>
       <path d="M 34.28125 27.484375 
Q 23.390625 27.484375 19.1875 25 
Q 14.984375 22.515625 14.984375 16.5 
Q 14.984375 11.71875 18.140625 8.90625 
Q 21.296875 6.109375 26.703125 6.109375 
Q 34.1875 6.109375 38.703125 11.40625 
Q 43.21875 16.703125 43.21875 25.484375 
L 43.21875 27.484375 
z
M 52.203125 31.203125 
L 52.203125 0 
L 43.21875 0 
L 43.21875 8.296875 
Q 40.140625 3.328125 35.546875 0.953125 
Q 30.953125 -1.421875 24.3125 -1.421875 
Q 15.921875 -1.421875 10.953125 3.296875 
Q 6 8.015625 6 15.921875 
Q 6 25.140625 12.171875 29.828125 
Q 18.359375 34.515625 30.609375 34.515625 
L 43.21875 34.515625 
L 43.21875 35.40625 
Q 43.21875 41.609375 39.140625 45 
Q 35.0625 48.390625 27.6875 48.390625 
Q 23 48.390625 18.546875 47.265625 
Q 14.109375 46.140625 10.015625 43.890625 
L 10.015625 52.203125 
Q 14.9375 54.109375 19.578125 55.046875 
Q 24.21875 56 28.609375 56 
Q 40.484375 56 46.34375 49.84375 
Q 52.203125 43.703125 52.203125 31.203125 
z
" id="DejaVuSans-97"/>
       <path d="M 54.890625 33.015625 
L 54.890625 0 
L 45.90625 0 
L 45.90625 32.71875 
Q 45.90625 40.484375 42.875 44.328125 
Q 39.84375 48.1875 33.796875 48.1875 
Q 26.515625 48.1875 22.3125 43.546875 
Q 18.109375 38.921875 18.109375 30.90625 
L 18.109375 0 
L 9.078125 0 
L 9.078125 54.6875 
L 18.109375 54.6875 
L 18.109375 46.1875 
Q 21.34375 51.125 25.703125 53.5625 
Q 30.078125 56 35.796875 56 
Q 45.21875 56 50.046875 50.171875 
Q 54.890625 44.34375 54.890625 33.015625 
z
" id="DejaVuSans-110"/>
       <path d="M 32.171875 -5.078125 
Q 28.375 -14.84375 24.75 -17.8125 
Q 21.140625 -20.796875 15.09375 -20.796875 
L 7.90625 -20.796875 
L 7.90625 -13.28125 
L 13.1875 -13.28125 
Q 16.890625 -13.28125 18.9375 -11.515625 
Q 21 -9.765625 23.484375 -3.21875 
L 25.09375 0.875 
L 2.984375 54.6875 
L 12.5 54.6875 
L 29.59375 11.921875 
L 46.6875 54.6875 
L 56.203125 54.6875 
z
" id="DejaVuSans-121"/>
       <path id="DejaVuSans-32"/>
       <path d="M 54.890625 33.015625 
L 54.890625 0 
L 45.90625 0 
L 45.90625 32.71875 
Q 45.90625 40.484375 42.875 44.328125 
Q 39.84375 48.1875 33.796875 48.1875 
Q 26.515625 48.1875 22.3125 43.546875 
Q 18.109375 38.921875 18.109375 30.90625 
L 18.109375 0 
L 9.078125 0 
L 9.078125 75.984375 
L 18.109375 75.984375 
L 18.109375 46.1875 
Q 21.34375 51.125 25.703125 53.5625 
Q 30.078125 56 35.796875 56 
Q 45.21875 56 50.046875 50.171875 
Q 54.890625 44.34375 54.890625 33.015625 
z
" id="DejaVuSans-104"/>
       <path d="M 56.203125 29.59375 
L 56.203125 25.203125 
L 14.890625 25.203125 
Q 15.484375 15.921875 20.484375 11.0625 
Q 25.484375 6.203125 34.421875 6.203125 
Q 39.59375 6.203125 44.453125 7.46875 
Q 49.3125 8.734375 54.109375 11.28125 
L 54.109375 2.78125 
Q 49.265625 0.734375 44.1875 -0.34375 
Q 39.109375 -1.421875 33.890625 -1.421875 
Q 20.796875 -1.421875 13.15625 6.1875 
Q 5.515625 13.8125 5.515625 26.8125 
Q 5.515625 40.234375 12.765625 48.109375 
Q 20.015625 56 32.328125 56 
Q 43.359375 56 49.78125 48.890625 
Q 56.203125 41.796875 56.203125 29.59375 
z
M 47.21875 32.234375 
Q 47.125 39.59375 43.09375 43.984375 
Q 39.0625 48.390625 32.421875 48.390625 
Q 24.90625 48.390625 20.390625 44.140625 
Q 15.875 39.890625 15.1875 32.171875 
z
" id="DejaVuSans-101"/>
      </defs>
      <g transform="translate(226.758523 595.8775)scale(0.16 -0.16)">
       <use xlink:href="#DejaVuSans-83"/>
       <use x="63.476562" xlink:href="#DejaVuSans-116"/>
       <use x="102.685547" xlink:href="#DejaVuSans-97"/>
       <use x="163.964844" xlink:href="#DejaVuSans-116"/>
       <use x="203.173828" xlink:href="#DejaVuSans-105"/>
       <use x="230.957031" xlink:href="#DejaVuSans-111"/>
       <use x="292.138672" xlink:href="#DejaVuSans-110"/>
       <use x="355.517578" xlink:href="#DejaVuSans-97"/>
       <use x="416.796875" xlink:href="#DejaVuSans-114"/>
       <use x="457.910156" xlink:href="#DejaVuSans-121"/>
       <use x="517.089844" xlink:href="#DejaVuSans-32"/>
       <use x="548.876953" xlink:href="#DejaVuSans-115"/>
       <use x="600.976562" xlink:href="#DejaVuSans-121"/>
       <use x="660.15625" xlink:href="#DejaVuSans-110"/>
       <use x="723.535156" xlink:href="#DejaVuSans-116"/>
       <use x="762.744141" xlink:href="#DejaVuSans-104"/>
       <use x="826.123047" xlink:href="#DejaVuSans-101"/>
       <use x="887.646484" xlink:href="#DejaVuSans-116"/>
       <use x="926.855469" xlink:href="#DejaVuSans-105"/>
       <use x="954.638672" xlink:href="#DejaVuSans-99"/>
      </g>
     </g>
    </g>
    <g id="xtick_3">
     <g id="line2d_3">
      <g>
       <use style="stroke:#000000;stroke-width:0.8;" x="442.8" xlink:href="#mcaca3243d7" y="576.72"/>
      </g>
     </g>
     <g id="text_3">
      <!-- CMIP3 -->
      <defs>
       <path d="M 64.40625 67.28125 
L 64.40625 56.890625 
Q 59.421875 61.53125 53.78125 63.8125 
Q 48.140625 66.109375 41.796875 66.109375 
Q 29.296875 66.109375 22.65625 58.46875 
Q 16.015625 50.828125 16.015625 36.375 
Q 16.015625 21.96875 22.65625 14.328125 
Q 29.296875 6.6875 41.796875 6.6875 
Q 48.140625 6.6875 53.78125 8.984375 
Q 59.421875 11.28125 64.40625 15.921875 
L 64.40625 5.609375 
Q 59.234375 2.09375 53.4375 0.328125 
Q 47.65625 -1.421875 41.21875 -1.421875 
Q 24.65625 -1.421875 15.125 8.703125 
Q 5.609375 18.84375 5.609375 36.375 
Q 5.609375 53.953125 15.125 64.078125 
Q 24.65625 74.21875 41.21875 74.21875 
Q 47.75 74.21875 53.53125 72.484375 
Q 59.328125 70.75 64.40625 67.28125 
z
" id="DejaVuSans-67"/>
       <path d="M 9.8125 72.90625 
L 24.515625 72.90625 
L 43.109375 23.296875 
L 61.8125 72.90625 
L 76.515625 72.90625 
L 76.515625 0 
L 66.890625 0 
L 66.890625 64.015625 
L 48.09375 14.015625 
L 38.1875 14.015625 
L 19.390625 64.015625 
L 19.390625 0 
L 9.8125 0 
z
" id="DejaVuSans-77"/>
       <path d="M 9.8125 72.90625 
L 19.671875 72.90625 
L 19.671875 0 
L 9.8125 0 
z
" id="DejaVuSans-73"/>
       <path d="M 19.671875 64.796875 
L 19.671875 37.40625 
L 32.078125 37.40625 
Q 38.96875 37.40625 42.71875 40.96875 
Q 46.484375 44.53125 46.484375 51.125 
Q 46.484375 57.671875 42.71875 61.234375 
Q 38.96875 64.796875 32.078125 64.796875 
z
M 9.8125 72.90625 
L 32.078125 72.90625 
Q 44.34375 72.90625 50.609375 67.359375 
Q 56.890625 61.8125 56.890625 51.125 
Q 56.890625 40.328125 50.609375 34.8125 
Q 44.34375 29.296875 32.078125 29.296875 
L 19.671875 29.296875 
L 19.671875 0 
L 9.8125 0 
z
" id="DejaVuSans-80"/>
       <path d="M 40.578125 39.3125 
Q 47.65625 37.796875 51.625 33 
Q 55.609375 28.21875 55.609375 21.1875 
Q 55.609375 10.40625 48.1875 4.484375 
Q 40.765625 -1.421875 27.09375 -1.421875 
Q 22.515625 -1.421875 17.65625 -0.515625 
Q 12.796875 0.390625 7.625 2.203125 
L 7.625 11.71875 
Q 11.71875 9.328125 16.59375 8.109375 
Q 21.484375 6.890625 26.8125 6.890625 
Q 36.078125 6.890625 40.9375 10.546875 
Q 45.796875 14.203125 45.796875 21.1875 
Q 45.796875 27.640625 41.28125 31.265625 
Q 36.765625 34.90625 28.71875 34.90625 
L 20.21875 34.90625 
L 20.21875 43.015625 
L 29.109375 43.015625 
Q 36.375 43.015625 40.234375 45.921875 
Q 44.09375 48.828125 44.09375 54.296875 
Q 44.09375 59.90625 40.109375 62.90625 
Q 36.140625 65.921875 28.71875 65.921875 
Q 24.65625 65.921875 20.015625 65.03125 
Q 15.375 64.15625 9.8125 62.3125 
L 9.8125 71.09375 
Q 15.4375 72.65625 20.34375 73.4375 
Q 25.25 74.21875 29.59375 74.21875 
Q 40.828125 74.21875 47.359375 69.109375 
Q 53.90625 64.015625 53.90625 55.328125 
Q 53.90625 49.265625 50.4375 45.09375 
Q 46.96875 40.921875 40.578125 39.3125 
z
" id="DejaVuSans-51"/>
      </defs>
      <g transform="translate(418.0375 595.8775)scale(0.16 -0.16)">
       <use xlink:href="#DejaVuSans-67"/>
       <use x="69.824219" xlink:href="#DejaVuSans-77"/>
       <use x="156.103516" xlink:href="#DejaVuSans-73"/>
       <use x="185.595703" xlink:href="#DejaVuSans-80"/>
       <use x="245.898438" xlink:href="#DejaVuSans-51"/>
      </g>
     </g>
    </g>
    <g id="xtick_4">
     <g id="line2d_4">
      <g>
       <use style="stroke:#000000;stroke-width:0.8;" x="578.072727" xlink:href="#mcaca3243d7" y="576.72"/>
      </g>
     </g>
     <g id="text_4">
      <!-- CMIP5 -->
      <defs>
       <path d="M 10.796875 72.90625 
L 49.515625 72.90625 
L 49.515625 64.59375 
L 19.828125 64.59375 
L 19.828125 46.734375 
Q 21.96875 47.46875 24.109375 47.828125 
Q 26.265625 48.1875 28.421875 48.1875 
Q 40.625 48.1875 47.75 41.5 
Q 54.890625 34.8125 54.890625 23.390625 
Q 54.890625 11.625 47.5625 5.09375 
Q 40.234375 -1.421875 26.90625 -1.421875 
Q 22.3125 -1.421875 17.546875 -0.640625 
Q 12.796875 0.140625 7.71875 1.703125 
L 7.71875 11.625 
Q 12.109375 9.234375 16.796875 8.0625 
Q 21.484375 6.890625 26.703125 6.890625 
Q 35.15625 6.890625 40.078125 11.328125 
Q 45.015625 15.765625 45.015625 23.390625 
Q 45.015625 31 40.078125 35.4375 
Q 35.15625 39.890625 26.703125 39.890625 
Q 22.75 39.890625 18.8125 39.015625 
Q 14.890625 38.140625 10.796875 36.28125 
z
" id="DejaVuSans-53"/>
      </defs>
      <g transform="translate(553.310227 595.8775)scale(0.16 -0.16)">
       <use xlink:href="#DejaVuSans-67"/>
       <use x="69.824219" xlink:href="#DejaVuSans-77"/>
       <use x="156.103516" xlink:href="#DejaVuSans-73"/>
       <use x="185.595703" xlink:href="#DejaVuSans-80"/>
       <use x="245.898438" xlink:href="#DejaVuSans-53"/>
      </g>
     </g>
    </g>
    <g id="xtick_5">
     <g id="line2d_5">
      <g>
       <use style="stroke:#000000;stroke-width:0.8;" x="713.345455" xlink:href="#mcaca3243d7" y="576.72"/>
      </g>
     </g>
     <g id="text_5">
      <!-- This experiment -->
      <defs>
       <path d="M -0.296875 72.90625 
L 61.375 72.90625 
L 61.375 64.59375 
L 35.5 64.59375 
L 35.5 0 
L 25.59375 0 
L 25.59375 64.59375 
L -0.296875 64.59375 
z
" id="DejaVuSans-84"/>
       <path d="M 54.890625 54.6875 
L 35.109375 28.078125 
L 55.90625 0 
L 45.3125 0 
L 29.390625 21.484375 
L 13.484375 0 
L 2.875 0 
L 24.125 28.609375 
L 4.6875 54.6875 
L 15.28125 54.6875 
L 29.78125 35.203125 
L 44.28125 54.6875 
z
" id="DejaVuSans-120"/>
       <path d="M 18.109375 8.203125 
L 18.109375 -20.796875 
L 9.078125 -20.796875 
L 9.078125 54.6875 
L 18.109375 54.6875 
L 18.109375 46.390625 
Q 20.953125 51.265625 25.265625 53.625 
Q 29.59375 56 35.59375 56 
Q 45.5625 56 51.78125 48.09375 
Q 58.015625 40.1875 58.015625 27.296875 
Q 58.015625 14.40625 51.78125 6.484375 
Q 45.5625 -1.421875 35.59375 -1.421875 
Q 29.59375 -1.421875 25.265625 0.953125 
Q 20.953125 3.328125 18.109375 8.203125 
z
M 48.6875 27.296875 
Q 48.6875 37.203125 44.609375 42.84375 
Q 40.53125 48.484375 33.40625 48.484375 
Q 26.265625 48.484375 22.1875 42.84375 
Q 18.109375 37.203125 18.109375 27.296875 
Q 18.109375 17.390625 22.1875 11.75 
Q 26.265625 6.109375 33.40625 6.109375 
Q 40.53125 6.109375 44.609375 11.75 
Q 48.6875 17.390625 48.6875 27.296875 
z
" id="DejaVuSans-112"/>
       <path d="M 52 44.1875 
Q 55.375 50.25 60.0625 53.125 
Q 64.75 56 71.09375 56 
Q 79.640625 56 84.28125 50.015625 
Q 88.921875 44.046875 88.921875 33.015625 
L 88.921875 0 
L 79.890625 0 
L 79.890625 32.71875 
Q 79.890625 40.578125 77.09375 44.375 
Q 74.3125 48.1875 68.609375 48.1875 
Q 61.625 48.1875 57.5625 43.546875 
Q 53.515625 38.921875 53.515625 30.90625 
L 53.515625 0 
L 44.484375 0 
L 44.484375 32.71875 
Q 44.484375 40.625 41.703125 44.40625 
Q 38.921875 48.1875 33.109375 48.1875 
Q 26.21875 48.1875 22.15625 43.53125 
Q 18.109375 38.875 18.109375 30.90625 
L 18.109375 0 
L 9.078125 0 
L 9.078125 54.6875 
L 18.109375 54.6875 
L 18.109375 46.1875 
Q 21.1875 51.21875 25.484375 53.609375 
Q 29.78125 56 35.6875 56 
Q 41.65625 56 45.828125 52.96875 
Q 50 49.953125 52 44.1875 
z
" id="DejaVuSans-109"/>
      </defs>
      <g transform="translate(648.366705 595.8775)scale(0.16 -0.16)">
       <use xlink:href="#DejaVuSans-84"/>
       <use x="61.083984" xlink:href="#DejaVuSans-104"/>
       <use x="124.462891" xlink:href="#DejaVuSans-105"/>
       <use x="152.246094" xlink:href="#DejaVuSans-115"/>
       <use x="204.345703" xlink:href="#DejaVuSans-32"/>
       <use x="236.132812" xlink:href="#DejaVuSans-101"/>
       <use x="297.640625" xlink:href="#DejaVuSans-120"/>
       <use x="356.820312" xlink:href="#DejaVuSans-112"/>
       <use x="420.296875" xlink:href="#DejaVuSans-101"/>
       <use x="481.820312" xlink:href="#DejaVuSans-114"/>
       <use x="522.933594" xlink:href="#DejaVuSans-105"/>
       <use x="550.716797" xlink:href="#DejaVuSans-109"/>
       <use x="648.128906" xlink:href="#DejaVuSans-101"/>
       <use x="709.652344" xlink:href="#DejaVuSans-110"/>
       <use x="773.03125" xlink:href="#DejaVuSans-116"/>
      </g>
     </g>
    </g>
   </g>
   <g id="matplotlib.axis_2">
    <g id="ytick_1">
     <g id="line2d_6">
      <defs>
       <path d="M 0 0 
L -3.5 0 
" id="m720c19a278" style="stroke:#000000;stroke-width:0.8;"/>
      </defs>
      <g>
       <use style="stroke:#000000;stroke-width:0.8;" x="108" xlink:href="#m720c19a278" y="547.652538"/>
      </g>
     </g>
     <g id="text_6">
      <!-- $\mathdefault{10^{6}}$ -->
      <defs>
       <path d="M 12.40625 8.296875 
L 28.515625 8.296875 
L 28.515625 63.921875 
L 10.984375 60.40625 
L 10.984375 69.390625 
L 28.421875 72.90625 
L 38.28125 72.90625 
L 38.28125 8.296875 
L 54.390625 8.296875 
L 54.390625 0 
L 12.40625 0 
z
" id="DejaVuSans-49"/>
       <path d="M 31.78125 66.40625 
Q 24.171875 66.40625 20.328125 58.90625 
Q 16.5 51.421875 16.5 36.375 
Q 16.5 21.390625 20.328125 13.890625 
Q 24.171875 6.390625 31.78125 6.390625 
Q 39.453125 6.390625 43.28125 13.890625 
Q 47.125 21.390625 47.125 36.375 
Q 47.125 51.421875 43.28125 58.90625 
Q 39.453125 66.40625 31.78125 66.40625 
z
M 31.78125 74.21875 
Q 44.046875 74.21875 50.515625 64.515625 
Q 56.984375 54.828125 56.984375 36.375 
Q 56.984375 17.96875 50.515625 8.265625 
Q 44.046875 -1.421875 31.78125 -1.421875 
Q 19.53125 -1.421875 13.0625 8.265625 
Q 6.59375 17.96875 6.59375 36.375 
Q 6.59375 54.828125 13.0625 64.515625 
Q 19.53125 74.21875 31.78125 74.21875 
z
" id="DejaVuSans-48"/>
       <path d="M 33.015625 40.375 
Q 26.375 40.375 22.484375 35.828125 
Q 18.609375 31.296875 18.609375 23.390625 
Q 18.609375 15.53125 22.484375 10.953125 
Q 26.375 6.390625 33.015625 6.390625 
Q 39.65625 6.390625 43.53125 10.953125 
Q 47.40625 15.53125 47.40625 23.390625 
Q 47.40625 31.296875 43.53125 35.828125 
Q 39.65625 40.375 33.015625 40.375 
z
M 52.59375 71.296875 
L 52.59375 62.3125 
Q 48.875 64.0625 45.09375 64.984375 
Q 41.3125 65.921875 37.59375 65.921875 
Q 27.828125 65.921875 22.671875 59.328125 
Q 17.53125 52.734375 16.796875 39.40625 
Q 19.671875 43.65625 24.015625 45.921875 
Q 28.375 48.1875 33.59375 48.1875 
Q 44.578125 48.1875 50.953125 41.515625 
Q 57.328125 34.859375 57.328125 23.390625 
Q 57.328125 12.15625 50.6875 5.359375 
Q 44.046875 -1.421875 33.015625 -1.421875 
Q 20.359375 -1.421875 13.671875 8.265625 
Q 6.984375 17.96875 6.984375 36.375 
Q 6.984375 53.65625 15.1875 63.9375 
Q 23.390625 74.21875 37.203125 74.21875 
Q 40.921875 74.21875 44.703125 73.484375 
Q 48.484375 72.75 52.59375 71.296875 
z
" id="DejaVuSans-54"/>
      </defs>
      <g transform="translate(83.4 551.451756)scale(0.1 -0.1)">
       <use transform="translate(0 0.765625)" xlink:href="#DejaVuSans-49"/>
       <use transform="translate(63.623047 0.765625)" xlink:href="#DejaVuSans-48"/>
       <use transform="translate(128.203125 39.046875)scale(0.7)" xlink:href="#DejaVuSans-54"/>
      </g>
     </g>
    </g>
    <g id="ytick_2">
     <g id="line2d_7">
      <g>
       <use style="stroke:#000000;stroke-width:0.8;" x="108" xlink:href="#m720c19a278" y="244.088362"/>
      </g>
     </g>
     <g id="text_7">
      <!-- $\mathdefault{10^{7}}$ -->
      <defs>
       <path d="M 8.203125 72.90625 
L 55.078125 72.90625 
L 55.078125 68.703125 
L 28.609375 0 
L 18.3125 0 
L 43.21875 64.59375 
L 8.203125 64.59375 
z
" id="DejaVuSans-55"/>
      </defs>
      <g transform="translate(83.4 247.88758)scale(0.1 -0.1)">
       <use transform="translate(0 0.684375)" xlink:href="#DejaVuSans-49"/>
       <use transform="translate(63.623047 0.684375)" xlink:href="#DejaVuSans-48"/>
       <use transform="translate(128.203125 38.965625)scale(0.7)" xlink:href="#DejaVuSans-55"/>
      </g>
     </g>
    </g>
    <g id="ytick_3">
     <g id="line2d_8">
      <defs>
       <path d="M 0 0 
L -2 0 
" id="mf72f941137" style="stroke:#000000;stroke-width:0.6;"/>
      </defs>
      <g>
       <use style="stroke:#000000;stroke-width:0.6;" x="108" xlink:href="#mf72f941137" y="561.542872"/>
      </g>
     </g>
    </g>
    <g id="ytick_4">
     <g id="line2d_9">
      <g>
       <use style="stroke:#000000;stroke-width:0.6;" x="108" xlink:href="#mf72f941137" y="456.270615"/>
      </g>
     </g>
    </g>
    <g id="ytick_5">
     <g id="line2d_10">
      <g>
       <use style="stroke:#000000;stroke-width:0.6;" x="108" xlink:href="#mf72f941137" y="402.815617"/>
      </g>
     </g>
    </g>
    <g id="ytick_6">
     <g id="line2d_11">
      <g>
       <use style="stroke:#000000;stroke-width:0.6;" x="108" xlink:href="#mf72f941137" y="364.888692"/>
      </g>
     </g>
    </g>
    <g id="ytick_7">
     <g id="line2d_12">
      <g>
       <use style="stroke:#000000;stroke-width:0.6;" x="108" xlink:href="#mf72f941137" y="335.470284"/>
      </g>
     </g>
    </g>
    <g id="ytick_8">
     <g id="line2d_13">
      <g>
       <use style="stroke:#000000;stroke-width:0.6;" x="108" xlink:href="#mf72f941137" y="311.433695"/>
      </g>
     </g>
    </g>
    <g id="ytick_9">
     <g id="line2d_14">
      <g>
       <use style="stroke:#000000;stroke-width:0.6;" x="108" xlink:href="#mf72f941137" y="291.111048"/>
      </g>
     </g>
    </g>
    <g id="ytick_10">
     <g id="line2d_15">
      <g>
       <use style="stroke:#000000;stroke-width:0.6;" x="108" xlink:href="#mf72f941137" y="273.50677"/>
      </g>
     </g>
    </g>
    <g id="ytick_11">
     <g id="line2d_16">
      <g>
       <use style="stroke:#000000;stroke-width:0.6;" x="108" xlink:href="#mf72f941137" y="257.978697"/>
      </g>
     </g>
    </g>
    <g id="ytick_12">
     <g id="line2d_17">
      <g>
       <use style="stroke:#000000;stroke-width:0.6;" x="108" xlink:href="#mf72f941137" y="152.706439"/>
      </g>
     </g>
    </g>
    <g id="ytick_13">
     <g id="line2d_18">
      <g>
       <use style="stroke:#000000;stroke-width:0.6;" x="108" xlink:href="#mf72f941137" y="99.251441"/>
      </g>
     </g>
    </g>
    <g id="text_8">
     <!-- Flow at Last Node (af) -->
     <defs>
      <path d="M 9.8125 72.90625 
L 51.703125 72.90625 
L 51.703125 64.59375 
L 19.671875 64.59375 
L 19.671875 43.109375 
L 48.578125 43.109375 
L 48.578125 34.8125 
L 19.671875 34.8125 
L 19.671875 0 
L 9.8125 0 
z
" id="DejaVuSans-70"/>
      <path d="M 9.421875 75.984375 
L 18.40625 75.984375 
L 18.40625 0 
L 9.421875 0 
z
" id="DejaVuSans-108"/>
      <path d="M 4.203125 54.6875 
L 13.1875 54.6875 
L 24.421875 12.015625 
L 35.59375 54.6875 
L 46.1875 54.6875 
L 57.421875 12.015625 
L 68.609375 54.6875 
L 77.59375 54.6875 
L 63.28125 0 
L 52.6875 0 
L 40.921875 44.828125 
L 29.109375 0 
L 18.5 0 
z
" id="DejaVuSans-119"/>
      <path d="M 9.8125 72.90625 
L 19.671875 72.90625 
L 19.671875 8.296875 
L 55.171875 8.296875 
L 55.171875 0 
L 9.8125 0 
z
" id="DejaVuSans-76"/>
      <path d="M 9.8125 72.90625 
L 23.09375 72.90625 
L 55.421875 11.921875 
L 55.421875 72.90625 
L 64.984375 72.90625 
L 64.984375 0 
L 51.703125 0 
L 19.390625 60.984375 
L 19.390625 0 
L 9.8125 0 
z
" id="DejaVuSans-78"/>
      <path d="M 45.40625 46.390625 
L 45.40625 75.984375 
L 54.390625 75.984375 
L 54.390625 0 
L 45.40625 0 
L 45.40625 8.203125 
Q 42.578125 3.328125 38.25 0.953125 
Q 33.9375 -1.421875 27.875 -1.421875 
Q 17.96875 -1.421875 11.734375 6.484375 
Q 5.515625 14.40625 5.515625 27.296875 
Q 5.515625 40.1875 11.734375 48.09375 
Q 17.96875 56 27.875 56 
Q 33.9375 56 38.25 53.625 
Q 42.578125 51.265625 45.40625 46.390625 
z
M 14.796875 27.296875 
Q 14.796875 17.390625 18.875 11.75 
Q 22.953125 6.109375 30.078125 6.109375 
Q 37.203125 6.109375 41.296875 11.75 
Q 45.40625 17.390625 45.40625 27.296875 
Q 45.40625 37.203125 41.296875 42.84375 
Q 37.203125 48.484375 30.078125 48.484375 
Q 22.953125 48.484375 18.875 42.84375 
Q 14.796875 37.203125 14.796875 27.296875 
z
" id="DejaVuSans-100"/>
      <path d="M 31 75.875 
Q 24.46875 64.65625 21.28125 53.65625 
Q 18.109375 42.671875 18.109375 31.390625 
Q 18.109375 20.125 21.3125 9.0625 
Q 24.515625 -2 31 -13.1875 
L 23.1875 -13.1875 
Q 15.875 -1.703125 12.234375 9.375 
Q 8.59375 20.453125 8.59375 31.390625 
Q 8.59375 42.28125 12.203125 53.3125 
Q 15.828125 64.359375 23.1875 75.875 
z
" id="DejaVuSans-40"/>
      <path d="M 37.109375 75.984375 
L 37.109375 68.5 
L 28.515625 68.5 
Q 23.6875 68.5 21.796875 66.546875 
Q 19.921875 64.59375 19.921875 59.515625 
L 19.921875 54.6875 
L 34.71875 54.6875 
L 34.71875 47.703125 
L 19.921875 47.703125 
L 19.921875 0 
L 10.890625 0 
L 10.890625 47.703125 
L 2.296875 47.703125 
L 2.296875 54.6875 
L 10.890625 54.6875 
L 10.890625 58.5 
Q 10.890625 67.625 15.140625 71.796875 
Q 19.390625 75.984375 28.609375 75.984375 
z
" id="DejaVuSans-102"/>
      <path d="M 8.015625 75.875 
L 15.828125 75.875 
Q 23.140625 64.359375 26.78125 53.3125 
Q 30.421875 42.28125 30.421875 31.390625 
Q 30.421875 20.453125 26.78125 9.375 
Q 23.140625 -1.703125 15.828125 -13.1875 
L 8.015625 -13.1875 
Q 14.5 -2 17.703125 9.0625 
Q 20.90625 20.125 20.90625 31.390625 
Q 20.90625 42.671875 17.703125 53.65625 
Q 14.5 64.65625 8.015625 75.875 
z
" id="DejaVuSans-41"/>
     </defs>
     <g transform="translate(75.240625 437.210312)rotate(-90)scale(0.2 -0.2)">
      <use xlink:href="#DejaVuSans-70"/>
      <use x="57.519531" xlink:href="#DejaVuSans-108"/>
      <use x="85.302734" xlink:href="#DejaVuSans-111"/>
      <use x="146.484375" xlink:href="#DejaVuSans-119"/>
      <use x="228.271484" xlink:href="#DejaVuSans-32"/>
      <use x="260.058594" xlink:href="#DejaVuSans-97"/>
      <use x="321.337891" xlink:href="#DejaVuSans-116"/>
      <use x="360.546875" xlink:href="#DejaVuSans-32"/>
      <use x="392.333984" xlink:href="#DejaVuSans-76"/>
      <use x="448.046875" xlink:href="#DejaVuSans-97"/>
      <use x="509.326172" xlink:href="#DejaVuSans-115"/>
      <use x="561.425781" xlink:href="#DejaVuSans-116"/>
      <use x="600.634766" xlink:href="#DejaVuSans-32"/>
      <use x="632.421875" xlink:href="#DejaVuSans-78"/>
      <use x="707.226562" xlink:href="#DejaVuSans-111"/>
      <use x="768.408203" xlink:href="#DejaVuSans-100"/>
      <use x="831.884766" xlink:href="#DejaVuSans-101"/>
      <use x="893.408203" xlink:href="#DejaVuSans-32"/>
      <use x="925.195312" xlink:href="#DejaVuSans-40"/>
      <use x="964.208984" xlink:href="#DejaVuSans-97"/>
      <use x="1025.488281" xlink:href="#DejaVuSans-102"/>
      <use x="1060.693359" xlink:href="#DejaVuSans-41"/>
     </g>
    </g>
   </g>
   <g id="LineCollection_1">
    <path clip-path="url(#p4dd760d3a6)" d="M 155.345455 234.314166 
L 189.163636 234.314166 
" style="fill:none;stroke:#000000;stroke-width:1.5;"/>
    <path clip-path="url(#p4dd760d3a6)" d="M 290.618182 206.097512 
L 324.436364 206.097512 
" style="fill:none;stroke:#000000;stroke-width:1.5;"/>
    <path clip-path="url(#p4dd760d3a6)" d="M 425.890909 198.795684 
L 459.709091 198.795684 
" style="fill:none;stroke:#000000;stroke-width:1.5;"/>
    <path clip-path="url(#p4dd760d3a6)" d="M 561.163636 182.218427 
L 594.981818 182.218427 
" style="fill:none;stroke:#000000;stroke-width:1.5;"/>
    <path clip-path="url(#p4dd760d3a6)" d="M 696.436364 100.44 
L 730.254545 100.44 
" style="fill:none;stroke:#000000;stroke-width:1.5;"/>
   </g>
   <g id="LineCollection_2">
    <path clip-path="url(#p4dd760d3a6)" d="M 155.345455 435.878904 
L 189.163636 435.878904 
" style="fill:none;stroke:#000000;stroke-width:1.5;"/>
    <path clip-path="url(#p4dd760d3a6)" d="M 290.618182 462.32576 
L 324.436364 462.32576 
" style="fill:none;stroke:#000000;stroke-width:1.5;"/>
    <path clip-path="url(#p4dd760d3a6)" d="M 425.890909 493.683941 
L 459.709091 493.683941 
" style="fill:none;stroke:#000000;stroke-width:1.5;"/>
    <path clip-path="url(#p4dd760d3a6)" d="M 561.163636 484.102646 
L 594.981818 484.102646 
" style="fill:none;stroke:#000000;stroke-width:1.5;"/>
    <path clip-path="url(#p4dd760d3a6)" d="M 696.436364 554.04 
L 730.254545 554.04 
" style="fill:none;stroke:#000000;stroke-width:1.5;"/>
   </g>
   <g id="LineCollection_3">
    <path clip-path="url(#p4dd760d3a6)" d="M 172.254545 435.878904 
L 172.254545 234.314166 
" style="fill:none;stroke:#000000;stroke-width:1.5;"/>
    <path clip-path="url(#p4dd760d3a6)" d="M 307.527273 462.32576 
L 307.527273 206.097512 
" style="fill:none;stroke:#000000;stroke-width:1.5;"/>
    <path clip-path="url(#p4dd760d3a6)" d="M 442.8 493.683941 
L 442.8 198.795684 
" style="fill:none;stroke:#000000;stroke-width:1.5;"/>
    <path clip-path="url(#p4dd760d3a6)" d="M 578.072727 484.102646 
L 578.072727 182.218427 
" style="fill:none;stroke:#000000;stroke-width:1.5;"/>
    <path clip-path="url(#p4dd760d3a6)" d="M 713.345455 554.04 
L 713.345455 100.44 
" style="fill:none;stroke:#000000;stroke-width:1.5;"/>
   </g>
   <g id="patch_3">
    <path d="M 108 576.72 
L 108 77.76 
" style="fill:none;stroke:#000000;stroke-linecap:square;stroke-linejoin:miter;stroke-width:0.8;"/>
   </g>
   <g id="patch_4">
    <path d="M 777.6 576.72 
L 777.6 77.76 
" style="fill:none;stroke:#000000;stroke-linecap:square;stroke-linejoin:miter;stroke-width:0.8;"/>
   </g>
   <g id="patch_5">
    <path d="M 108 576.72 
L 777.6 576.72 
" style="fill:none;stroke:#000000;stroke-linecap:square;stroke-linejoin:miter;stroke-width:0.8;"/>
   </g>
   <g id="patch_6">
    <path d="M 108 77.76 
L 777.6 77.76 
" style="fill:none;stroke:#000000;stroke-linecap:square;stroke-linejoin:miter;stroke-width:0.8;"/>
   </g>
  </g>
 </g>
 <defs>
  <clipPath id="p4dd760d3a6">
   <rect height="498.96" width="669.6" x="108" y="77.76"/>
  </clipPath>
 </defs>
</svg>
