<?xml version="1.0" encoding="utf-8" standalone="no"?>
<!DOCTYPE svg PUBLIC "-//W3C//DTD SVG 1.1//EN"
  "http://www.w3.org/Graphics/SVG/1.1/DTD/svg11.dtd">
<!-- Created with matplotlib (https://matplotlib.org/) -->
<svg height="648pt" version="1.1" viewBox="0 0 864 648" width="864pt" xmlns="http://www.w3.org/2000/svg" xmlns:xlink="http://www.w3.org/1999/xlink">
 <defs>
  <style type="text/css">
*{stroke-linecap:butt;stroke-linejoin:round;white-space:pre;}
  </style>
 </defs>
 <g id="figure_1">
  <g id="patch_1">
   <path d="M 0 648 
L 864 648 
L 864 0 
L 0 0 
z
" style="fill:#ffffff;"/>
  </g>
  <g id="axes_1">
   <g id="patch_2">
    <path d="M 108 576.72 
L 777.6 576.72 
L 777.6 77.76 
L 108 77.76 
z
" style="fill:#ffffff;"/>
   </g>
   <g id="PolyCollection_1">
    <defs>
     <path d="M 178.008706 -115.740755 
L 166.500384 -115.740755 
L 165.714643 -117.083712 
L 164.866573 -118.426668 
L 163.95633 -119.769625 
L 162.984776 -121.112582 
L 161.95358 -122.455539 
L 160.865287 -123.798495 
L 159.723342 -125.141452 
L 158.532086 -126.484409 
L 157.296706 -127.827366 
L 156.023176 -129.170322 
L 154.718216 -130.513279 
L 153.389276 -131.856236 
L 152.044583 -133.199192 
L 150.693253 -134.542149 
L 149.345452 -135.885106 
L 148.012577 -137.228063 
L 146.707408 -138.571019 
L 145.444169 -139.913976 
L 144.238425 -141.256933 
L 143.106771 -142.599889 
L 142.066276 -143.942846 
L 141.133685 -145.285803 
L 140.324418 -146.62876 
L 139.65144 -147.971716 
L 139.124126 -149.314673 
L 138.747232 -150.65763 
L 138.520123 -152.000587 
L 138.436364 -153.343543 
L 138.483761 -154.6865 
L 138.644906 -156.029457 
L 138.898194 -157.372413 
L 139.219266 -158.71537 
L 139.582742 -160.058327 
L 139.964112 -161.401284 
L 140.341587 -162.74424 
L 140.697757 -164.087197 
L 141.020868 -165.430154 
L 141.305616 -166.77311 
L 141.553354 -168.116067 
L 141.771712 -169.459024 
L 141.973654 -170.801981 
L 142.176071 -172.144937 
L 142.398055 -173.487894 
L 142.659028 -174.830851 
L 142.976908 -176.173808 
L 143.366486 -177.516764 
L 143.838169 -178.859721 
L 144.397186 -180.202678 
L 145.043303 -181.545634 
L 145.771037 -182.888591 
L 146.570314 -184.231548 
L 147.427453 -185.574505 
L 148.326357 -186.917461 
L 149.249782 -188.260418 
L 150.180545 -189.603375 
L 151.102585 -190.946331 
L 152.001809 -192.289288 
L 152.866681 -193.632245 
L 153.688577 -194.975202 
L 154.461908 -196.318158 
L 155.184061 -197.661115 
L 155.855213 -199.004072 
L 156.478035 -200.347029 
L 157.057341 -201.689985 
L 157.599693 -203.032942 
L 158.112973 -204.375899 
L 158.605934 -205.718855 
L 159.087729 -207.061812 
L 159.567425 -208.404769 
L 160.053523 -209.747726 
L 160.553485 -211.090682 
L 161.073311 -212.433639 
L 161.617175 -213.776596 
L 162.187168 -215.119552 
L 162.783143 -216.462509 
L 163.402707 -217.805466 
L 164.041337 -219.148423 
L 164.692643 -220.491379 
L 165.348729 -221.834336 
L 166.000659 -223.177293 
L 166.638968 -224.52025 
L 167.254202 -225.863206 
L 167.837437 -227.206163 
L 168.380754 -228.54912 
L 168.877633 -229.892076 
L 169.323256 -231.235033 
L 169.714691 -232.57799 
L 170.05097 -233.920947 
L 170.333049 -235.263903 
L 170.563659 -236.60686 
L 170.74708 -237.949817 
L 170.888828 -239.292773 
L 170.995305 -240.63573 
L 171.073411 -241.978687 
L 171.130162 -243.321644 
L 171.172315 -244.6646 
L 171.206052 -246.007557 
L 171.236707 -247.350514 
L 171.268576 -248.693471 
L 173.240514 -248.693471 
L 173.240514 -248.693471 
L 173.272384 -247.350514 
L 173.303039 -246.007557 
L 173.336776 -244.6646 
L 173.378929 -243.321644 
L 173.435679 -241.978687 
L 173.513786 -240.63573 
L 173.620263 -239.292773 
L 173.762011 -237.949817 
L 173.945432 -236.60686 
L 174.176042 -235.263903 
L 174.458121 -233.920947 
L 174.7944 -232.57799 
L 175.185835 -231.235033 
L 175.631458 -229.892076 
L 176.128337 -228.54912 
L 176.671654 -227.206163 
L 177.254889 -225.863206 
L 177.870123 -224.52025 
L 178.508432 -223.177293 
L 179.160362 -221.834336 
L 179.816448 -220.491379 
L 180.467754 -219.148423 
L 181.106384 -217.805466 
L 181.725947 -216.462509 
L 182.321923 -215.119552 
L 182.891916 -213.776596 
L 183.43578 -212.433639 
L 183.955606 -211.090682 
L 184.455568 -209.747726 
L 184.941666 -208.404769 
L 185.421362 -207.061812 
L 185.903156 -205.718855 
L 186.396118 -204.375899 
L 186.909398 -203.032942 
L 187.45175 -201.689985 
L 188.031056 -200.347029 
L 188.653878 -199.004072 
L 189.32503 -197.661115 
L 190.047183 -196.318158 
L 190.820514 -194.975202 
L 191.64241 -193.632245 
L 192.507282 -192.289288 
L 193.406506 -190.946331 
L 194.328546 -189.603375 
L 195.259309 -188.260418 
L 196.182734 -186.917461 
L 197.081638 -185.574505 
L 197.938777 -184.231548 
L 198.738054 -182.888591 
L 199.465788 -181.545634 
L 200.111905 -180.202678 
L 200.670922 -178.859721 
L 201.142605 -177.516764 
L 201.532183 -176.173808 
L 201.850063 -174.830851 
L 202.111036 -173.487894 
L 202.33302 -172.144937 
L 202.535437 -170.801981 
L 202.737379 -169.459024 
L 202.955737 -168.116067 
L 203.203475 -166.77311 
L 203.488223 -165.430154 
L 203.811334 -164.087197 
L 204.167504 -162.74424 
L 204.544979 -161.401284 
L 204.926349 -160.058327 
L 205.289825 -158.71537 
L 205.610897 -157.372413 
L 205.864185 -156.029457 
L 206.02533 -154.6865 
L 206.072727 -153.343543 
L 205.988968 -152.000587 
L 205.761859 -150.65763 
L 205.384965 -149.314673 
L 204.857651 -147.971716 
L 204.184673 -146.62876 
L 203.375405 -145.285803 
L 202.442815 -143.942846 
L 201.40232 -142.599889 
L 200.270666 -141.256933 
L 199.064922 -139.913976 
L 197.801683 -138.571019 
L 196.496514 -137.228063 
L 195.163639 -135.885106 
L 193.815838 -134.542149 
L 192.464508 -133.199192 
L 191.119815 -131.856236 
L 189.790875 -130.513279 
L 188.485915 -129.170322 
L 187.212385 -127.827366 
L 185.977004 -126.484409 
L 184.785748 -125.141452 
L 183.643804 -123.798495 
L 182.555511 -122.455539 
L 181.524315 -121.112582 
L 180.552761 -119.769625 
L 179.642518 -118.426668 
L 178.794447 -117.083712 
L 178.008706 -115.740755 
z
" id="maac6374377" style="stroke:#000000;"/>
    </defs>
    <g clip-path="url(#p939f850ca5)">
     <use style="fill:#dd7373;stroke:#000000;" x="0" xlink:href="#maac6374377" y="648"/>
    </g>
   </g>
   <g id="PolyCollection_2">
    <defs>
     <path d="M 318.45967 -116.904257 
L 296.594876 -116.904257 
L 295.25527 -118.14226 
L 293.863452 -119.380263 
L 292.435191 -120.618266 
L 290.988096 -121.85627 
L 289.541079 -123.094273 
L 288.113722 -124.332276 
L 286.725552 -125.570279 
L 285.395275 -126.808283 
L 284.140016 -128.046286 
L 282.9746 -129.284289 
L 281.910938 -130.522292 
L 280.957544 -131.760296 
L 280.119243 -132.998299 
L 279.39707 -134.236302 
L 278.788378 -135.474305 
L 278.287137 -136.712308 
L 277.884411 -137.950312 
L 277.568957 -139.188315 
L 277.327897 -140.426318 
L 277.147428 -141.664321 
L 277.013493 -142.902325 
L 276.912391 -144.140328 
L 276.831282 -145.378331 
L 276.758581 -146.616334 
L 276.684228 -147.854338 
L 276.599858 -149.092341 
L 276.49888 -150.330344 
L 276.376502 -151.568347 
L 276.229718 -152.806351 
L 276.057281 -154.044354 
L 275.859681 -155.282357 
L 275.639116 -156.52036 
L 275.399466 -157.758364 
L 275.146246 -158.996367 
L 274.886522 -160.23437 
L 274.628775 -161.472373 
L 274.382695 -162.710376 
L 274.158893 -163.94838 
L 273.968539 -165.186383 
L 273.822943 -166.424386 
L 273.733076 -167.662389 
L 273.709091 -168.900393 
L 273.759852 -170.138396 
L 273.892517 -171.376399 
L 274.112203 -172.614402 
L 274.421753 -173.852406 
L 274.821623 -175.090409 
L 275.309899 -176.328412 
L 275.882425 -177.566415 
L 276.533045 -178.804419 
L 277.253921 -180.042422 
L 278.035912 -181.280425 
L 278.868988 -182.518428 
L 279.742642 -183.756432 
L 280.646287 -184.994435 
L 281.569618 -186.232438 
L 282.502923 -187.470441 
L 283.437338 -188.708444 
L 284.365045 -189.946448 
L 285.279408 -191.184451 
L 286.175057 -192.422454 
L 287.047922 -193.660457 
L 287.895225 -194.898461 
L 288.715425 -196.136464 
L 289.50814 -197.374467 
L 290.274024 -198.61247 
L 291.014625 -199.850474 
L 291.73221 -201.088477 
L 292.429575 -202.32648 
L 293.109827 -203.564483 
L 293.776159 -204.802487 
L 294.431624 -206.04049 
L 295.078904 -207.278493 
L 295.720105 -208.516496 
L 296.356574 -209.7545 
L 296.98876 -210.992503 
L 297.616129 -212.230506 
L 298.237134 -213.468509 
L 298.849258 -214.706512 
L 299.449128 -215.944516 
L 300.032691 -217.182519 
L 300.595451 -218.420522 
L 301.132748 -219.658525 
L 301.64007 -220.896529 
L 302.113359 -222.134532 
L 302.549309 -223.372535 
L 302.945621 -224.610538 
L 303.301184 -225.848542 
L 303.616196 -227.086545 
L 303.892177 -228.324548 
L 304.131904 -229.562551 
L 304.339243 -230.800555 
L 304.518919 -232.038558 
L 304.676218 -233.276561 
L 304.816661 -234.514564 
L 304.945671 -235.752568 
L 305.068257 -236.990571 
L 305.188751 -238.228574 
L 305.310595 -239.466577 
L 309.743951 -239.466577 
L 309.743951 -239.466577 
L 309.865795 -238.228574 
L 309.986288 -236.990571 
L 310.108875 -235.752568 
L 310.237884 -234.514564 
L 310.378327 -233.276561 
L 310.535626 -232.038558 
L 310.715302 -230.800555 
L 310.922642 -229.562551 
L 311.162368 -228.324548 
L 311.43835 -227.086545 
L 311.753362 -225.848542 
L 312.108925 -224.610538 
L 312.505236 -223.372535 
L 312.941187 -222.134532 
L 313.414476 -220.896529 
L 313.921797 -219.658525 
L 314.459095 -218.420522 
L 315.021855 -217.182519 
L 315.605418 -215.944516 
L 316.205288 -214.706512 
L 316.817412 -213.468509 
L 317.438416 -212.230506 
L 318.065785 -210.992503 
L 318.697972 -209.7545 
L 319.334441 -208.516496 
L 319.975641 -207.278493 
L 320.622921 -206.04049 
L 321.278386 -204.802487 
L 321.944719 -203.564483 
L 322.62497 -202.32648 
L 323.322335 -201.088477 
L 324.039921 -199.850474 
L 324.780522 -198.61247 
L 325.546405 -197.374467 
L 326.33912 -196.136464 
L 327.159321 -194.898461 
L 328.006623 -193.660457 
L 328.879488 -192.422454 
L 329.775137 -191.184451 
L 330.6895 -189.946448 
L 331.617207 -188.708444 
L 332.551623 -187.470441 
L 333.484928 -186.232438 
L 334.408259 -184.994435 
L 335.311903 -183.756432 
L 336.185557 -182.518428 
L 337.018633 -181.280425 
L 337.800625 -180.042422 
L 338.5215 -178.804419 
L 339.17212 -177.566415 
L 339.744647 -176.328412 
L 340.232922 -175.090409 
L 340.632793 -173.852406 
L 340.942342 -172.614402 
L 341.162028 -171.376399 
L 341.294694 -170.138396 
L 341.345455 -168.900393 
L 341.321469 -167.662389 
L 341.231603 -166.424386 
L 341.086006 -165.186383 
L 340.895653 -163.94838 
L 340.67185 -162.710376 
L 340.42577 -161.472373 
L 340.168024 -160.23437 
L 339.9083 -158.996367 
L 339.655079 -157.758364 
L 339.415429 -156.52036 
L 339.194864 -155.282357 
L 338.997264 -154.044354 
L 338.824828 -152.806351 
L 338.678043 -151.568347 
L 338.555665 -150.330344 
L 338.454687 -149.092341 
L 338.370317 -147.854338 
L 338.295964 -146.616334 
L 338.223263 -145.378331 
L 338.142155 -144.140328 
L 338.041053 -142.902325 
L 337.907118 -141.664321 
L 337.726648 -140.426318 
L 337.485589 -139.188315 
L 337.170134 -137.950312 
L 336.767409 -136.712308 
L 336.266168 -135.474305 
L 335.657475 -134.236302 
L 334.935303 -132.998299 
L 334.097002 -131.760296 
L 333.143608 -130.522292 
L 332.079945 -129.284289 
L 330.91453 -128.046286 
L 329.659271 -126.808283 
L 328.328994 -125.570279 
L 326.940823 -124.332276 
L 325.513466 -123.094273 
L 324.06645 -121.85627 
L 322.619354 -120.618266 
L 321.191094 -119.380263 
L 319.799275 -118.14226 
L 318.45967 -116.904257 
z
" id="m014be526ac" style="stroke:#000000;"/>
    </defs>
    <g clip-path="url(#p939f850ca5)">
     <use style="fill:#305252;stroke:#000000;" x="0" xlink:href="#m014be526ac" y="648"/>
    </g>
   </g>
   <g id="PolyCollection_3">
    <defs>
     <path d="M 444.758172 -102.678758 
L 440.841828 -102.678758 
L 439.67732 -104.683817 
L 438.191373 -106.688876 
L 436.45704 -108.693935 
L 434.582522 -110.698994 
L 432.666763 -112.704053 
L 430.758429 -114.709112 
L 428.841183 -116.714171 
L 426.851927 -118.719229 
L 424.721952 -120.724288 
L 422.422569 -122.729347 
L 419.994732 -124.734406 
L 417.546466 -126.739465 
L 415.218397 -128.744524 
L 413.140503 -130.749583 
L 411.410458 -132.754642 
L 410.101591 -134.759701 
L 409.276978 -136.76476 
L 408.981818 -138.769819 
L 409.214961 -140.774877 
L 409.907532 -142.779936 
L 410.931788 -144.784995 
L 412.135927 -146.790054 
L 413.381464 -148.795113 
L 414.564646 -150.800172 
L 415.621878 -152.805231 
L 416.530504 -154.81029 
L 417.311145 -156.815349 
L 418.025209 -158.820408 
L 418.756753 -160.825467 
L 419.57714 -162.830526 
L 420.506773 -164.835584 
L 421.498059 -166.840643 
L 422.456762 -168.845702 
L 423.294542 -170.850761 
L 423.979455 -172.85582 
L 424.547395 -174.860879 
L 425.065779 -176.865938 
L 425.58064 -178.870997 
L 426.092498 -180.876056 
L 426.578819 -182.881115 
L 427.036852 -184.886174 
L 427.503551 -186.891233 
L 428.033903 -188.896291 
L 428.658606 -190.90135 
L 429.358797 -192.906409 
L 430.078137 -194.911468 
L 430.760997 -196.916527 
L 431.387053 -198.921586 
L 431.978907 -200.926645 
L 432.581525 -202.931704 
L 433.231516 -204.936763 
L 433.937206 -206.941822 
L 434.678328 -208.946881 
L 435.419005 -210.951939 
L 436.121777 -212.956998 
L 436.755786 -214.962057 
L 437.30099 -216.967116 
L 437.753042 -218.972175 
L 438.128268 -220.977234 
L 438.462405 -222.982293 
L 438.79827 -224.987352 
L 439.166391 -226.992411 
L 439.570506 -228.99747 
L 439.988115 -231.002529 
L 440.385244 -233.007588 
L 440.734035 -235.012646 
L 441.021641 -237.017705 
L 441.24853 -239.022764 
L 441.422626 -241.027823 
L 441.555211 -243.032882 
L 441.658625 -245.037941 
L 441.7434 -247.043 
L 441.815434 -249.048059 
L 441.87641 -251.053118 
L 441.928014 -253.058177 
L 441.976098 -255.063236 
L 442.030506 -257.068295 
L 442.100404 -259.073353 
L 442.188648 -261.078412 
L 442.289117 -263.083471 
L 442.388926 -265.08853 
L 442.474673 -267.093589 
L 442.539161 -269.098648 
L 442.584246 -271.103707 
L 442.617985 -273.108766 
L 442.648483 -275.113825 
L 442.679093 -277.118884 
L 442.708053 -279.123943 
L 442.731717 -281.129001 
L 442.747942 -283.13406 
L 442.756972 -285.139119 
L 442.760075 -287.144178 
L 442.758219 -289.149237 
L 442.752296 -291.154296 
L 442.744217 -293.159355 
L 442.7372 -295.164414 
L 442.734583 -297.169473 
L 442.738146 -299.174532 
L 442.747325 -301.179591 
L 442.852675 -301.179591 
L 442.852675 -301.179591 
L 442.861854 -299.174532 
L 442.865417 -297.169473 
L 442.8628 -295.164414 
L 442.855783 -293.159355 
L 442.847704 -291.154296 
L 442.841781 -289.149237 
L 442.839925 -287.144178 
L 442.843028 -285.139119 
L 442.852058 -283.13406 
L 442.868283 -281.129001 
L 442.891947 -279.123943 
L 442.920907 -277.118884 
L 442.951517 -275.113825 
L 442.982015 -273.108766 
L 443.015754 -271.103707 
L 443.060839 -269.098648 
L 443.125327 -267.093589 
L 443.211074 -265.08853 
L 443.310883 -263.083471 
L 443.411352 -261.078412 
L 443.499596 -259.073353 
L 443.569494 -257.068295 
L 443.623902 -255.063236 
L 443.671986 -253.058177 
L 443.72359 -251.053118 
L 443.784566 -249.048059 
L 443.8566 -247.043 
L 443.941375 -245.037941 
L 444.044789 -243.032882 
L 444.177374 -241.027823 
L 444.35147 -239.022764 
L 444.578359 -237.017705 
L 444.865965 -235.012646 
L 445.214756 -233.007588 
L 445.611885 -231.002529 
L 446.029494 -228.99747 
L 446.433609 -226.992411 
L 446.80173 -224.987352 
L 447.137595 -222.982293 
L 447.471732 -220.977234 
L 447.846958 -218.972175 
L 448.29901 -216.967116 
L 448.844214 -214.962057 
L 449.478223 -212.956998 
L 450.180995 -210.951939 
L 450.921672 -208.946881 
L 451.662794 -206.941822 
L 452.368484 -204.936763 
L 453.018475 -202.931704 
L 453.621093 -200.926645 
L 454.212947 -198.921586 
L 454.839003 -196.916527 
L 455.521863 -194.911468 
L 456.241203 -192.906409 
L 456.941394 -190.90135 
L 457.566097 -188.896291 
L 458.096449 -186.891233 
L 458.563148 -184.886174 
L 459.021181 -182.881115 
L 459.507502 -180.876056 
L 460.01936 -178.870997 
L 460.534221 -176.865938 
L 461.052605 -174.860879 
L 461.620545 -172.85582 
L 462.305458 -170.850761 
L 463.143238 -168.845702 
L 464.101941 -166.840643 
L 465.093227 -164.835584 
L 466.02286 -162.830526 
L 466.843247 -160.825467 
L 467.574791 -158.820408 
L 468.288855 -156.815349 
L 469.069496 -154.81029 
L 469.978122 -152.805231 
L 471.035354 -150.800172 
L 472.218536 -148.795113 
L 473.464073 -146.790054 
L 474.668212 -144.784995 
L 475.692468 -142.779936 
L 476.385039 -140.774877 
L 476.618182 -138.769819 
L 476.323022 -136.76476 
L 475.498409 -134.759701 
L 474.189542 -132.754642 
L 472.459497 -130.749583 
L 470.381603 -128.744524 
L 468.053534 -126.739465 
L 465.605268 -124.734406 
L 463.177431 -122.729347 
L 460.878048 -120.724288 
L 458.748073 -118.719229 
L 456.758817 -116.714171 
L 454.841571 -114.709112 
L 452.933237 -112.704053 
L 451.017478 -110.698994 
L 449.14296 -108.693935 
L 447.408627 -106.688876 
L 445.92268 -104.683817 
L 444.758172 -102.678758 
z
" id="m7ab516794e" style="stroke:#000000;"/>
    </defs>
    <g clip-path="url(#p939f850ca5)">
     <use style="fill:#3c787e;stroke:#000000;" x="0" xlink:href="#m7ab516794e" y="648"/>
    </g>
   </g>
   <g id="PolyCollection_4">
    <defs>
     <path d="M 579.99525 -104.467967 
L 576.150205 -104.467967 
L 574.97968 -106.755733 
L 573.47065 -109.043498 
L 571.689537 -111.331263 
L 569.742123 -113.619029 
L 567.732894 -115.906794 
L 565.723502 -118.194559 
L 563.712992 -120.482324 
L 561.651945 -122.77009 
L 559.483712 -125.057855 
L 557.189699 -127.34562 
L 554.814069 -129.633386 
L 552.457866 -131.921151 
L 550.249894 -134.208916 
L 548.309452 -136.496681 
L 546.716642 -138.784447 
L 545.504716 -141.072212 
L 544.679921 -143.359977 
L 544.254545 -145.647743 
L 544.263705 -147.935508 
L 544.744719 -150.223273 
L 545.688752 -152.511038 
L 547.003847 -154.798804 
L 548.527105 -157.086569 
L 550.085025 -159.374334 
L 551.55883 -161.6621 
L 552.909093 -163.949865 
L 554.150427 -166.23763 
L 555.302001 -168.525395 
L 556.348384 -170.813161 
L 557.235263 -173.100926 
L 557.905257 -175.388691 
L 558.352314 -177.676457 
L 558.654245 -179.964222 
L 558.953478 -182.251987 
L 559.39355 -184.539752 
L 560.052136 -186.827518 
L 560.912738 -189.115283 
L 561.887391 -191.403048 
L 562.868337 -193.690814 
L 563.774538 -195.978579 
L 564.572582 -198.266344 
L 565.270826 -200.554109 
L 565.895234 -202.841875 
L 566.461097 -205.12964 
L 566.960961 -207.417405 
L 567.381537 -209.705171 
L 567.735379 -211.992936 
L 568.073837 -214.280701 
L 568.464446 -216.568466 
L 568.952909 -218.856232 
L 569.544655 -221.143997 
L 570.217898 -223.431762 
L 570.94812 -225.719528 
L 571.717653 -228.007293 
L 572.505687 -230.295058 
L 573.276189 -232.582823 
L 573.98076 -234.870589 
L 574.575558 -237.158354 
L 575.038192 -239.446119 
L 575.373298 -241.733885 
L 575.60634 -244.02165 
L 575.771836 -246.309415 
L 575.902419 -248.59718 
L 576.022417 -250.884946 
L 576.1464 -253.172711 
L 576.28084 -255.460476 
L 576.427001 -257.748242 
L 576.583883 -260.036007 
L 576.749733 -262.323772 
L 576.92109 -264.611537 
L 577.091111 -266.899303 
L 577.250357 -269.187068 
L 577.390293 -271.474833 
L 577.506196 -273.762599 
L 577.597308 -276.050364 
L 577.665693 -278.338129 
L 577.715971 -280.625894 
L 577.755426 -282.91366 
L 577.792537 -285.201425 
L 577.833635 -287.48919 
L 577.879908 -289.776956 
L 577.927217 -292.064721 
L 577.968932 -294.352486 
L 577.999719 -296.640251 
L 578.017879 -298.928017 
L 578.025157 -301.215782 
L 578.024761 -303.503547 
L 578.019364 -305.791313 
L 578.010606 -308.079078 
L 578.000063 -310.366843 
L 577.990198 -312.654608 
L 577.983995 -314.942374 
L 577.983511 -317.230139 
L 577.988722 -319.517904 
L 577.997674 -321.80567 
L 578.007748 -324.093435 
L 578.017105 -326.3812 
L 578.025397 -328.668965 
L 578.033376 -330.956731 
L 578.112078 -330.956731 
L 578.112078 -330.956731 
L 578.120057 -328.668965 
L 578.12835 -326.3812 
L 578.137707 -324.093435 
L 578.147781 -321.80567 
L 578.156733 -319.517904 
L 578.161944 -317.230139 
L 578.161459 -314.942374 
L 578.155256 -312.654608 
L 578.145391 -310.366843 
L 578.134849 -308.079078 
L 578.126091 -305.791313 
L 578.120694 -303.503547 
L 578.120297 -301.215782 
L 578.127576 -298.928017 
L 578.145735 -296.640251 
L 578.176523 -294.352486 
L 578.218238 -292.064721 
L 578.265547 -289.776956 
L 578.311819 -287.48919 
L 578.352917 -285.201425 
L 578.390029 -282.91366 
L 578.429484 -280.625894 
L 578.479761 -278.338129 
L 578.548147 -276.050364 
L 578.639258 -273.762599 
L 578.755161 -271.474833 
L 578.895097 -269.187068 
L 579.054344 -266.899303 
L 579.224364 -264.611537 
L 579.395722 -262.323772 
L 579.561572 -260.036007 
L 579.718454 -257.748242 
L 579.864614 -255.460476 
L 579.999054 -253.172711 
L 580.123038 -250.884946 
L 580.243036 -248.59718 
L 580.373618 -246.309415 
L 580.539115 -244.02165 
L 580.772157 -241.733885 
L 581.107262 -239.446119 
L 581.569896 -237.158354 
L 582.164695 -234.870589 
L 582.869265 -232.582823 
L 583.639768 -230.295058 
L 584.427802 -228.007293 
L 585.197334 -225.719528 
L 585.927557 -223.431762 
L 586.600799 -221.143997 
L 587.192545 -218.856232 
L 587.681009 -216.568466 
L 588.071617 -214.280701 
L 588.410076 -211.992936 
L 588.763917 -209.705171 
L 589.184494 -207.417405 
L 589.684358 -205.12964 
L 590.250221 -202.841875 
L 590.874629 -200.554109 
L 591.572872 -198.266344 
L 592.370917 -195.978579 
L 593.277117 -193.690814 
L 594.258063 -191.403048 
L 595.232717 -189.115283 
L 596.093318 -186.827518 
L 596.751904 -184.539752 
L 597.191976 -182.251987 
L 597.49121 -179.964222 
L 597.79314 -177.676457 
L 598.240198 -175.388691 
L 598.910192 -173.100926 
L 599.797071 -170.813161 
L 600.843453 -168.525395 
L 601.995028 -166.23763 
L 603.236361 -163.949865 
L 604.586625 -161.6621 
L 606.060429 -159.374334 
L 607.61835 -157.086569 
L 609.141608 -154.798804 
L 610.456702 -152.511038 
L 611.400736 -150.223273 
L 611.88175 -147.935508 
L 611.890909 -145.647743 
L 611.465534 -143.359977 
L 610.640739 -141.072212 
L 609.428813 -138.784447 
L 607.836002 -136.496681 
L 605.89556 -134.208916 
L 603.687589 -131.921151 
L 601.331385 -129.633386 
L 598.955755 -127.34562 
L 596.661742 -125.057855 
L 594.49351 -122.77009 
L 592.432462 -120.482324 
L 590.421952 -118.194559 
L 588.412561 -115.906794 
L 586.403332 -113.619029 
L 584.455918 -111.331263 
L 582.674805 -109.043498 
L 581.165775 -106.755733 
L 579.99525 -104.467967 
z
" id="m86c7c91dd0" style="stroke:#000000;"/>
    </defs>
    <g clip-path="url(#p939f850ca5)">
     <use style="fill:#d0cd94;stroke:#000000;" x="0" xlink:href="#m86c7c91dd0" y="648"/>
    </g>
   </g>
   <g id="PolyCollection_5">
    <defs>
     <path d="M 713.354259 -93.96 
L 713.33665 -93.96 
L 713.2536 -98.541818 
L 712.831648 -103.123636 
L 711.478148 -107.705455 
L 708.631347 -112.287273 
L 704.055783 -116.869091 
L 698.467814 -121.450909 
L 692.708021 -126.032727 
L 687.496916 -130.614545 
L 683.544637 -135.196364 
L 681.214694 -139.778182 
L 679.625764 -144.36 
L 679.527273 -148.941818 
L 680.060305 -153.523636 
L 681.406822 -158.105455 
L 683.168593 -162.687273 
L 685.429609 -167.269091 
L 687.775767 -171.850909 
L 690.16356 -176.432727 
L 692.527838 -181.014545 
L 694.801701 -185.596364 
L 696.969592 -190.178182 
L 698.973538 -194.76 
L 700.697967 -199.341818 
L 702.267538 -203.923636 
L 703.814729 -208.505455 
L 705.20528 -213.087273 
L 706.316015 -217.669091 
L 707.39226 -222.250909 
L 708.27194 -226.832727 
L 709.109852 -231.414545 
L 709.760764 -235.996364 
L 710.358811 -240.578182 
L 710.83694 -245.16 
L 711.257057 -249.741818 
L 711.56837 -254.323636 
L 711.87895 -258.905455 
L 712.149933 -263.487273 
L 712.360348 -268.069091 
L 712.497792 -272.650909 
L 712.654997 -277.232727 
L 712.762568 -281.814545 
L 712.867784 -286.396364 
L 712.955793 -290.978182 
L 713.039582 -295.56 
L 713.089258 -300.141818 
L 713.13932 -304.723636 
L 713.176503 -309.305455 
L 713.192376 -313.887273 
L 713.227569 -318.469091 
L 713.257745 -323.050909 
L 713.274513 -327.632727 
L 713.281844 -332.214545 
L 713.285915 -336.796364 
L 713.296125 -341.378182 
L 713.305918 -345.96 
L 713.304248 -350.541818 
L 713.311289 -355.123636 
L 713.316958 -359.705455 
L 713.320469 -364.287273 
L 713.327085 -368.869091 
L 713.33184 -373.450909 
L 713.33283 -378.032727 
L 713.338424 -382.614545 
L 713.340046 -387.196364 
L 713.336795 -391.778182 
L 713.336565 -396.36 
L 713.338584 -400.941818 
L 713.339996 -405.523636 
L 713.342636 -410.105455 
L 713.343407 -414.687273 
L 713.343962 -419.269091 
L 713.343887 -423.850909 
L 713.344451 -428.432727 
L 713.343876 -433.014545 
L 713.343271 -437.596364 
L 713.344686 -442.178182 
L 713.344454 -446.76 
L 713.344819 -451.341818 
L 713.345219 -455.923636 
L 713.34529 -460.505455 
L 713.344501 -465.087273 
L 713.345027 -469.669091 
L 713.34507 -474.250909 
L 713.345241 -478.832727 
L 713.344602 -483.414545 
L 713.345357 -487.996364 
L 713.345266 -492.578182 
L 713.344678 -497.16 
L 713.345396 -501.741818 
L 713.345452 -506.323636 
L 713.345181 -510.905455 
L 713.344996 -515.487273 
L 713.345206 -520.069091 
L 713.345453 -524.650909 
L 713.345455 -529.232727 
L 713.345455 -533.814545 
L 713.345455 -538.396364 
L 713.345415 -542.978182 
L 713.345007 -547.56 
L 713.345902 -547.56 
L 713.345902 -547.56 
L 713.345494 -542.978182 
L 713.345455 -538.396364 
L 713.345455 -533.814545 
L 713.345455 -529.232727 
L 713.345457 -524.650909 
L 713.345703 -520.069091 
L 713.345913 -515.487273 
L 713.345728 -510.905455 
L 713.345457 -506.323636 
L 713.345513 -501.741818 
L 713.346231 -497.16 
L 713.345643 -492.578182 
L 713.345553 -487.996364 
L 713.346307 -483.414545 
L 713.345668 -478.832727 
L 713.345839 -474.250909 
L 713.345882 -469.669091 
L 713.346408 -465.087273 
L 713.345619 -460.505455 
L 713.34569 -455.923636 
L 713.34609 -451.341818 
L 713.346455 -446.76 
L 713.346223 -442.178182 
L 713.347638 -437.596364 
L 713.347033 -433.014545 
L 713.346458 -428.432727 
L 713.347022 -423.850909 
L 713.346947 -419.269091 
L 713.347503 -414.687273 
L 713.348273 -410.105455 
L 713.350913 -405.523636 
L 713.352326 -400.941818 
L 713.354344 -396.36 
L 713.354114 -391.778182 
L 713.350863 -387.196364 
L 713.352485 -382.614545 
L 713.358079 -378.032727 
L 713.359069 -373.450909 
L 713.363824 -368.869091 
L 713.37044 -364.287273 
L 713.373952 -359.705455 
L 713.37962 -355.123636 
L 713.386661 -350.541818 
L 713.384991 -345.96 
L 713.394784 -341.378182 
L 713.404994 -336.796364 
L 713.409065 -332.214545 
L 713.416396 -327.632727 
L 713.433164 -323.050909 
L 713.463341 -318.469091 
L 713.498533 -313.887273 
L 713.514406 -309.305455 
L 713.551589 -304.723636 
L 713.601651 -300.141818 
L 713.651327 -295.56 
L 713.735116 -290.978182 
L 713.823125 -286.396364 
L 713.928341 -281.814545 
L 714.035912 -277.232727 
L 714.193118 -272.650909 
L 714.330561 -268.069091 
L 714.540976 -263.487273 
L 714.811959 -258.905455 
L 715.12254 -254.323636 
L 715.433852 -249.741818 
L 715.853969 -245.16 
L 716.332098 -240.578182 
L 716.930145 -235.996364 
L 717.581057 -231.414545 
L 718.418969 -226.832727 
L 719.298649 -222.250909 
L 720.374894 -217.669091 
L 721.485629 -213.087273 
L 722.87618 -208.505455 
L 724.423371 -203.923636 
L 725.992942 -199.341818 
L 727.717371 -194.76 
L 729.721317 -190.178182 
L 731.889208 -185.596364 
L 734.163071 -181.014545 
L 736.527349 -176.432727 
L 738.915142 -171.850909 
L 741.261301 -167.269091 
L 743.522316 -162.687273 
L 745.284088 -158.105455 
L 746.630604 -153.523636 
L 747.163636 -148.941818 
L 747.065145 -144.36 
L 745.476215 -139.778182 
L 743.146273 -135.196364 
L 739.193993 -130.614545 
L 733.982888 -126.032727 
L 728.223095 -121.450909 
L 722.635126 -116.869091 
L 718.059562 -112.287273 
L 715.212761 -107.705455 
L 713.859261 -103.123636 
L 713.437309 -98.541818 
L 713.354259 -93.96 
z
" id="m18abd04086" style="stroke:#000000;"/>
    </defs>
    <g clip-path="url(#p939f850ca5)">
     <use style="fill:#9597a3;stroke:#000000;" x="0" xlink:href="#m18abd04086" y="648"/>
    </g>
   </g>
   <g id="matplotlib.axis_1">
    <g id="xtick_1">
     <g id="line2d_1">
      <defs>
       <path d="M 0 0 
L 0 3.5 
" id="mb572143bbe" style="stroke:#000000;stroke-width:0.8;"/>
      </defs>
      <g>
       <use style="stroke:#000000;stroke-width:0.8;" x="172.254545" xlink:href="#mb572143bbe" y="576.72"/>
      </g>
     </g>
     <g id="text_1">
      <!-- Historic -->
      <defs>
       <path d="M 9.8125 72.90625 
L 19.671875 72.90625 
L 19.671875 43.015625 
L 55.515625 43.015625 
L 55.515625 72.90625 
L 65.375 72.90625 
L 65.375 0 
L 55.515625 0 
L 55.515625 34.71875 
L 19.671875 34.71875 
L 19.671875 0 
L 9.8125 0 
z
" id="DejaVuSans-72"/>
       <path d="M 9.421875 54.6875 
L 18.40625 54.6875 
L 18.40625 0 
L 9.421875 0 
z
M 9.421875 75.984375 
L 18.40625 75.984375 
L 18.40625 64.59375 
L 9.421875 64.59375 
z
" id="DejaVuSans-105"/>
       <path d="M 44.28125 53.078125 
L 44.28125 44.578125 
Q 40.484375 46.53125 36.375 47.5 
Q 32.28125 48.484375 27.875 48.484375 
Q 21.1875 48.484375 17.84375 46.4375 
Q 14.5 44.390625 14.5 40.28125 
Q 14.5 37.15625 16.890625 35.375 
Q 19.28125 33.59375 26.515625 31.984375 
L 29.59375 31.296875 
Q 39.15625 29.25 43.1875 25.515625 
Q 47.21875 21.78125 47.21875 15.09375 
Q 47.21875 7.46875 41.1875 3.015625 
Q 35.15625 -1.421875 24.609375 -1.421875 
Q 20.21875 -1.421875 15.453125 -0.5625 
Q 10.6875 0.296875 5.421875 2 
L 5.421875 11.28125 
Q 10.40625 8.6875 15.234375 7.390625 
Q 20.0625 6.109375 24.8125 6.109375 
Q 31.15625 6.109375 34.5625 8.28125 
Q 37.984375 10.453125 37.984375 14.40625 
Q 37.984375 18.0625 35.515625 20.015625 
Q 33.0625 21.96875 24.703125 23.78125 
L 21.578125 24.515625 
Q 13.234375 26.265625 9.515625 29.90625 
Q 5.8125 33.546875 5.8125 39.890625 
Q 5.8125 47.609375 11.28125 51.796875 
Q 16.75 56 26.8125 56 
Q 31.78125 56 36.171875 55.265625 
Q 40.578125 54.546875 44.28125 53.078125 
z
" id="DejaVuSans-115"/>
       <path d="M 18.3125 70.21875 
L 18.3125 54.6875 
L 36.8125 54.6875 
L 36.8125 47.703125 
L 18.3125 47.703125 
L 18.3125 18.015625 
Q 18.3125 11.328125 20.140625 9.421875 
Q 21.96875 7.515625 27.59375 7.515625 
L 36.8125 7.515625 
L 36.8125 0 
L 27.59375 0 
Q 17.1875 0 13.234375 3.875 
Q 9.28125 7.765625 9.28125 18.015625 
L 9.28125 47.703125 
L 2.6875 47.703125 
L 2.6875 54.6875 
L 9.28125 54.6875 
L 9.28125 70.21875 
z
" id="DejaVuSans-116"/>
       <path d="M 30.609375 48.390625 
Q 23.390625 48.390625 19.1875 42.75 
Q 14.984375 37.109375 14.984375 27.296875 
Q 14.984375 17.484375 19.15625 11.84375 
Q 23.34375 6.203125 30.609375 6.203125 
Q 37.796875 6.203125 41.984375 11.859375 
Q 46.1875 17.53125 46.1875 27.296875 
Q 46.1875 37.015625 41.984375 42.703125 
Q 37.796875 48.390625 30.609375 48.390625 
z
M 30.609375 56 
Q 42.328125 56 49.015625 48.375 
Q 55.71875 40.765625 55.71875 27.296875 
Q 55.71875 13.875 49.015625 6.21875 
Q 42.328125 -1.421875 30.609375 -1.421875 
Q 18.84375 -1.421875 12.171875 6.21875 
Q 5.515625 13.875 5.515625 27.296875 
Q 5.515625 40.765625 12.171875 48.375 
Q 18.84375 56 30.609375 56 
z
" id="DejaVuSans-111"/>
       <path d="M 41.109375 46.296875 
Q 39.59375 47.171875 37.8125 47.578125 
Q 36.03125 48 33.890625 48 
Q 26.265625 48 22.1875 43.046875 
Q 18.109375 38.09375 18.109375 28.8125 
L 18.109375 0 
L 9.078125 0 
L 9.078125 54.6875 
L 18.109375 54.6875 
L 18.109375 46.1875 
Q 20.953125 51.171875 25.484375 53.578125 
Q 30.03125 56 36.53125 56 
Q 37.453125 56 38.578125 55.875 
Q 39.703125 55.765625 41.0625 55.515625 
z
" id="DejaVuSans-114"/>
       <path d="M 48.78125 52.59375 
L 48.78125 44.1875 
Q 44.96875 46.296875 41.140625 47.34375 
Q 37.3125 48.390625 33.40625 48.390625 
Q 24.65625 48.390625 19.8125 42.84375 
Q 14.984375 37.3125 14.984375 27.296875 
Q 14.984375 17.28125 19.8125 11.734375 
Q 24.65625 6.203125 33.40625 6.203125 
Q 37.3125 6.203125 41.140625 7.25 
Q 44.96875 8.296875 48.78125 10.40625 
L 48.78125 2.09375 
Q 45.015625 0.34375 40.984375 -0.53125 
Q 36.96875 -1.421875 32.421875 -1.421875 
Q 20.0625 -1.421875 12.78125 6.34375 
Q 5.515625 14.109375 5.515625 27.296875 
Q 5.515625 40.671875 12.859375 48.328125 
Q 20.21875 56 33.015625 56 
Q 37.15625 56 41.109375 55.140625 
Q 45.0625 54.296875 48.78125 52.59375 
z
" id="DejaVuSans-99"/>
      </defs>
      <g transform="translate(141.907045 595.8775)scale(0.16 -0.16)">
       <use xlink:href="#DejaVuSans-72"/>
       <use x="75.195312" xlink:href="#DejaVuSans-105"/>
       <use x="102.978516" xlink:href="#DejaVuSans-115"/>
       <use x="155.078125" xlink:href="#DejaVuSans-116"/>
       <use x="194.287109" xlink:href="#DejaVuSans-111"/>
       <use x="255.46875" xlink:href="#DejaVuSans-114"/>
       <use x="296.582031" xlink:href="#DejaVuSans-105"/>
       <use x="324.365234" xlink:href="#DejaVuSans-99"/>
      </g>
     </g>
    </g>
    <g id="xtick_2">
     <g id="line2d_2">
      <g>
       <use style="stroke:#000000;stroke-width:0.8;" x="307.527273" xlink:href="#mb572143bbe" y="576.72"/>
      </g>
     </g>
     <g id="text_2">
      <!-- Stationary synthetic -->
      <defs>
       <path d="M 53.515625 70.515625 
L 53.515625 60.890625 
Q 47.90625 63.578125 42.921875 64.890625 
Q 37.9375 66.21875 33.296875 66.21875 
Q 25.25 66.21875 20.875 63.09375 
Q 16.5 59.96875 16.5 54.203125 
Q 16.5 49.359375 19.40625 46.890625 
Q 22.3125 44.4375 30.421875 42.921875 
L 36.375 41.703125 
Q 47.40625 39.59375 52.65625 34.296875 
Q 57.90625 29 57.90625 20.125 
Q 57.90625 9.515625 50.796875 4.046875 
Q 43.703125 -1.421875 29.984375 -1.421875 
Q 24.8125 -1.421875 18.96875 -0.25 
Q 13.140625 0.921875 6.890625 3.21875 
L 6.890625 13.375 
Q 12.890625 10.015625 18.65625 8.296875 
Q 24.421875 6.59375 29.984375 6.59375 
Q 38.421875 6.59375 43.015625 9.90625 
Q 47.609375 13.234375 47.609375 19.390625 
Q 47.609375 24.75 44.3125 27.78125 
Q 41.015625 30.8125 33.5 32.328125 
L 27.484375 33.5 
Q 16.453125 35.6875 11.515625 40.375 
Q 6.59375 45.0625 6.59375 53.421875 
Q 6.59375 63.09375 13.40625 68.65625 
Q 20.21875 74.21875 32.171875 74.21875 
Q 37.3125 74.21875 42.625 73.28125 
Q 47.953125 72.359375 53.515625 70.515625 
z
" id="DejaVuSans-83"/>
       <path d="M 34.28125 27.484375 
Q 23.390625 27.484375 19.1875 25 
Q 14.984375 22.515625 14.984375 16.5 
Q 14.984375 11.71875 18.140625 8.90625 
Q 21.296875 6.109375 26.703125 6.109375 
Q 34.1875 6.109375 38.703125 11.40625 
Q 43.21875 16.703125 43.21875 25.484375 
L 43.21875 27.484375 
z
M 52.203125 31.203125 
L 52.203125 0 
L 43.21875 0 
L 43.21875 8.296875 
Q 40.140625 3.328125 35.546875 0.953125 
Q 30.953125 -1.421875 24.3125 -1.421875 
Q 15.921875 -1.421875 10.953125 3.296875 
Q 6 8.015625 6 15.921875 
Q 6 25.140625 12.171875 29.828125 
Q 18.359375 34.515625 30.609375 34.515625 
L 43.21875 34.515625 
L 43.21875 35.40625 
Q 43.21875 41.609375 39.140625 45 
Q 35.0625 48.390625 27.6875 48.390625 
Q 23 48.390625 18.546875 47.265625 
Q 14.109375 46.140625 10.015625 43.890625 
L 10.015625 52.203125 
Q 14.9375 54.109375 19.578125 55.046875 
Q 24.21875 56 28.609375 56 
Q 40.484375 56 46.34375 49.84375 
Q 52.203125 43.703125 52.203125 31.203125 
z
" id="DejaVuSans-97"/>
       <path d="M 54.890625 33.015625 
L 54.890625 0 
L 45.90625 0 
L 45.90625 32.71875 
Q 45.90625 40.484375 42.875 44.328125 
Q 39.84375 48.1875 33.796875 48.1875 
Q 26.515625 48.1875 22.3125 43.546875 
Q 18.109375 38.921875 18.109375 30.90625 
L 18.109375 0 
L 9.078125 0 
L 9.078125 54.6875 
L 18.109375 54.6875 
L 18.109375 46.1875 
Q 21.34375 51.125 25.703125 53.5625 
Q 30.078125 56 35.796875 56 
Q 45.21875 56 50.046875 50.171875 
Q 54.890625 44.34375 54.890625 33.015625 
z
" id="DejaVuSans-110"/>
       <path d="M 32.171875 -5.078125 
Q 28.375 -14.84375 24.75 -17.8125 
Q 21.140625 -20.796875 15.09375 -20.796875 
L 7.90625 -20.796875 
L 7.90625 -13.28125 
L 13.1875 -13.28125 
Q 16.890625 -13.28125 18.9375 -11.515625 
Q 21 -9.765625 23.484375 -3.21875 
L 25.09375 0.875 
L 2.984375 54.6875 
L 12.5 54.6875 
L 29.59375 11.921875 
L 46.6875 54.6875 
L 56.203125 54.6875 
z
" id="DejaVuSans-121"/>
       <path id="DejaVuSans-32"/>
       <path d="M 54.890625 33.015625 
L 54.890625 0 
L 45.90625 0 
L 45.90625 32.71875 
Q 45.90625 40.484375 42.875 44.328125 
Q 39.84375 48.1875 33.796875 48.1875 
Q 26.515625 48.1875 22.3125 43.546875 
Q 18.109375 38.921875 18.109375 30.90625 
L 18.109375 0 
L 9.078125 0 
L 9.078125 75.984375 
L 18.109375 75.984375 
L 18.109375 46.1875 
Q 21.34375 51.125 25.703125 53.5625 
Q 30.078125 56 35.796875 56 
Q 45.21875 56 50.046875 50.171875 
Q 54.890625 44.34375 54.890625 33.015625 
z
" id="DejaVuSans-104"/>
       <path d="M 56.203125 29.59375 
L 56.203125 25.203125 
L 14.890625 25.203125 
Q 15.484375 15.921875 20.484375 11.0625 
Q 25.484375 6.203125 34.421875 6.203125 
Q 39.59375 6.203125 44.453125 7.46875 
Q 49.3125 8.734375 54.109375 11.28125 
L 54.109375 2.78125 
Q 49.265625 0.734375 44.1875 -0.34375 
Q 39.109375 -1.421875 33.890625 -1.421875 
Q 20.796875 -1.421875 13.15625 6.1875 
Q 5.515625 13.8125 5.515625 26.8125 
Q 5.515625 40.234375 12.765625 48.109375 
Q 20.015625 56 32.328125 56 
Q 43.359375 56 49.78125 48.890625 
Q 56.203125 41.796875 56.203125 29.59375 
z
M 47.21875 32.234375 
Q 47.125 39.59375 43.09375 43.984375 
Q 39.0625 48.390625 32.421875 48.390625 
Q 24.90625 48.390625 20.390625 44.140625 
Q 15.875 39.890625 15.1875 32.171875 
z
" id="DejaVuSans-101"/>
      </defs>
      <g transform="translate(226.758523 595.8775)scale(0.16 -0.16)">
       <use xlink:href="#DejaVuSans-83"/>
       <use x="63.476562" xlink:href="#DejaVuSans-116"/>
       <use x="102.685547" xlink:href="#DejaVuSans-97"/>
       <use x="163.964844" xlink:href="#DejaVuSans-116"/>
       <use x="203.173828" xlink:href="#DejaVuSans-105"/>
       <use x="230.957031" xlink:href="#DejaVuSans-111"/>
       <use x="292.138672" xlink:href="#DejaVuSans-110"/>
       <use x="355.517578" xlink:href="#DejaVuSans-97"/>
       <use x="416.796875" xlink:href="#DejaVuSans-114"/>
       <use x="457.910156" xlink:href="#DejaVuSans-121"/>
       <use x="517.089844" xlink:href="#DejaVuSans-32"/>
       <use x="548.876953" xlink:href="#DejaVuSans-115"/>
       <use x="600.976562" xlink:href="#DejaVuSans-121"/>
       <use x="660.15625" xlink:href="#DejaVuSans-110"/>
       <use x="723.535156" xlink:href="#DejaVuSans-116"/>
       <use x="762.744141" xlink:href="#DejaVuSans-104"/>
       <use x="826.123047" xlink:href="#DejaVuSans-101"/>
       <use x="887.646484" xlink:href="#DejaVuSans-116"/>
       <use x="926.855469" xlink:href="#DejaVuSans-105"/>
       <use x="954.638672" xlink:href="#DejaVuSans-99"/>
      </g>
     </g>
    </g>
    <g id="xtick_3">
     <g id="line2d_3">
      <g>
       <use style="stroke:#000000;stroke-width:0.8;" x="442.8" xlink:href="#mb572143bbe" y="576.72"/>
      </g>
     </g>
     <g id="text_3">
      <!-- CMIP3 -->
      <defs>
       <path d="M 64.40625 67.28125 
L 64.40625 56.890625 
Q 59.421875 61.53125 53.78125 63.8125 
Q 48.140625 66.109375 41.796875 66.109375 
Q 29.296875 66.109375 22.65625 58.46875 
Q 16.015625 50.828125 16.015625 36.375 
Q 16.015625 21.96875 22.65625 14.328125 
Q 29.296875 6.6875 41.796875 6.6875 
Q 48.140625 6.6875 53.78125 8.984375 
Q 59.421875 11.28125 64.40625 15.921875 
L 64.40625 5.609375 
Q 59.234375 2.09375 53.4375 0.328125 
Q 47.65625 -1.421875 41.21875 -1.421875 
Q 24.65625 -1.421875 15.125 8.703125 
Q 5.609375 18.84375 5.609375 36.375 
Q 5.609375 53.953125 15.125 64.078125 
Q 24.65625 74.21875 41.21875 74.21875 
Q 47.75 74.21875 53.53125 72.484375 
Q 59.328125 70.75 64.40625 67.28125 
z
" id="DejaVuSans-67"/>
       <path d="M 9.8125 72.90625 
L 24.515625 72.90625 
L 43.109375 23.296875 
L 61.8125 72.90625 
L 76.515625 72.90625 
L 76.515625 0 
L 66.890625 0 
L 66.890625 64.015625 
L 48.09375 14.015625 
L 38.1875 14.015625 
L 19.390625 64.015625 
L 19.390625 0 
L 9.8125 0 
z
" id="DejaVuSans-77"/>
       <path d="M 9.8125 72.90625 
L 19.671875 72.90625 
L 19.671875 0 
L 9.8125 0 
z
" id="DejaVuSans-73"/>
       <path d="M 19.671875 64.796875 
L 19.671875 37.40625 
L 32.078125 37.40625 
Q 38.96875 37.40625 42.71875 40.96875 
Q 46.484375 44.53125 46.484375 51.125 
Q 46.484375 57.671875 42.71875 61.234375 
Q 38.96875 64.796875 32.078125 64.796875 
z
M 9.8125 72.90625 
L 32.078125 72.90625 
Q 44.34375 72.90625 50.609375 67.359375 
Q 56.890625 61.8125 56.890625 51.125 
Q 56.890625 40.328125 50.609375 34.8125 
Q 44.34375 29.296875 32.078125 29.296875 
L 19.671875 29.296875 
L 19.671875 0 
L 9.8125 0 
z
" id="DejaVuSans-80"/>
       <path d="M 40.578125 39.3125 
Q 47.65625 37.796875 51.625 33 
Q 55.609375 28.21875 55.609375 21.1875 
Q 55.609375 10.40625 48.1875 4.484375 
Q 40.765625 -1.421875 27.09375 -1.421875 
Q 22.515625 -1.421875 17.65625 -0.515625 
Q 12.796875 0.390625 7.625 2.203125 
L 7.625 11.71875 
Q 11.71875 9.328125 16.59375 8.109375 
Q 21.484375 6.890625 26.8125 6.890625 
Q 36.078125 6.890625 40.9375 10.546875 
Q 45.796875 14.203125 45.796875 21.1875 
Q 45.796875 27.640625 41.28125 31.265625 
Q 36.765625 34.90625 28.71875 34.90625 
L 20.21875 34.90625 
L 20.21875 43.015625 
L 29.109375 43.015625 
Q 36.375 43.015625 40.234375 45.921875 
Q 44.09375 48.828125 44.09375 54.296875 
Q 44.09375 59.90625 40.109375 62.90625 
Q 36.140625 65.921875 28.71875 65.921875 
Q 24.65625 65.921875 20.015625 65.03125 
Q 15.375 64.15625 9.8125 62.3125 
L 9.8125 71.09375 
Q 15.4375 72.65625 20.34375 73.4375 
Q 25.25 74.21875 29.59375 74.21875 
Q 40.828125 74.21875 47.359375 69.109375 
Q 53.90625 64.015625 53.90625 55.328125 
Q 53.90625 49.265625 50.4375 45.09375 
Q 46.96875 40.921875 40.578125 39.3125 
z
" id="DejaVuSans-51"/>
      </defs>
      <g transform="translate(418.0375 595.8775)scale(0.16 -0.16)">
       <use xlink:href="#DejaVuSans-67"/>
       <use x="69.824219" xlink:href="#DejaVuSans-77"/>
       <use x="156.103516" xlink:href="#DejaVuSans-73"/>
       <use x="185.595703" xlink:href="#DejaVuSans-80"/>
       <use x="245.898438" xlink:href="#DejaVuSans-51"/>
      </g>
     </g>
    </g>
    <g id="xtick_4">
     <g id="line2d_4">
      <g>
       <use style="stroke:#000000;stroke-width:0.8;" x="578.072727" xlink:href="#mb572143bbe" y="576.72"/>
      </g>
     </g>
     <g id="text_4">
      <!-- CMIP5 -->
      <defs>
       <path d="M 10.796875 72.90625 
L 49.515625 72.90625 
L 49.515625 64.59375 
L 19.828125 64.59375 
L 19.828125 46.734375 
Q 21.96875 47.46875 24.109375 47.828125 
Q 26.265625 48.1875 28.421875 48.1875 
Q 40.625 48.1875 47.75 41.5 
Q 54.890625 34.8125 54.890625 23.390625 
Q 54.890625 11.625 47.5625 5.09375 
Q 40.234375 -1.421875 26.90625 -1.421875 
Q 22.3125 -1.421875 17.546875 -0.640625 
Q 12.796875 0.140625 7.71875 1.703125 
L 7.71875 11.625 
Q 12.109375 9.234375 16.796875 8.0625 
Q 21.484375 6.890625 26.703125 6.890625 
Q 35.15625 6.890625 40.078125 11.328125 
Q 45.015625 15.765625 45.015625 23.390625 
Q 45.015625 31 40.078125 35.4375 
Q 35.15625 39.890625 26.703125 39.890625 
Q 22.75 39.890625 18.8125 39.015625 
Q 14.890625 38.140625 10.796875 36.28125 
z
" id="DejaVuSans-53"/>
      </defs>
      <g transform="translate(553.310227 595.8775)scale(0.16 -0.16)">
       <use xlink:href="#DejaVuSans-67"/>
       <use x="69.824219" xlink:href="#DejaVuSans-77"/>
       <use x="156.103516" xlink:href="#DejaVuSans-73"/>
       <use x="185.595703" xlink:href="#DejaVuSans-80"/>
       <use x="245.898438" xlink:href="#DejaVuSans-53"/>
      </g>
     </g>
    </g>
    <g id="xtick_5">
     <g id="line2d_5">
      <g>
       <use style="stroke:#000000;stroke-width:0.8;" x="713.345455" xlink:href="#mb572143bbe" y="576.72"/>
      </g>
     </g>
     <g id="text_5">
      <!-- This experiment -->
      <defs>
       <path d="M -0.296875 72.90625 
L 61.375 72.90625 
L 61.375 64.59375 
L 35.5 64.59375 
L 35.5 0 
L 25.59375 0 
L 25.59375 64.59375 
L -0.296875 64.59375 
z
" id="DejaVuSans-84"/>
       <path d="M 54.890625 54.6875 
L 35.109375 28.078125 
L 55.90625 0 
L 45.3125 0 
L 29.390625 21.484375 
L 13.484375 0 
L 2.875 0 
L 24.125 28.609375 
L 4.6875 54.6875 
L 15.28125 54.6875 
L 29.78125 35.203125 
L 44.28125 54.6875 
z
" id="DejaVuSans-120"/>
       <path d="M 18.109375 8.203125 
L 18.109375 -20.796875 
L 9.078125 -20.796875 
L 9.078125 54.6875 
L 18.109375 54.6875 
L 18.109375 46.390625 
Q 20.953125 51.265625 25.265625 53.625 
Q 29.59375 56 35.59375 56 
Q 45.5625 56 51.78125 48.09375 
Q 58.015625 40.1875 58.015625 27.296875 
Q 58.015625 14.40625 51.78125 6.484375 
Q 45.5625 -1.421875 35.59375 -1.421875 
Q 29.59375 -1.421875 25.265625 0.953125 
Q 20.953125 3.328125 18.109375 8.203125 
z
M 48.6875 27.296875 
Q 48.6875 37.203125 44.609375 42.84375 
Q 40.53125 48.484375 33.40625 48.484375 
Q 26.265625 48.484375 22.1875 42.84375 
Q 18.109375 37.203125 18.109375 27.296875 
Q 18.109375 17.390625 22.1875 11.75 
Q 26.265625 6.109375 33.40625 6.109375 
Q 40.53125 6.109375 44.609375 11.75 
Q 48.6875 17.390625 48.6875 27.296875 
z
" id="DejaVuSans-112"/>
       <path d="M 52 44.1875 
Q 55.375 50.25 60.0625 53.125 
Q 64.75 56 71.09375 56 
Q 79.640625 56 84.28125 50.015625 
Q 88.921875 44.046875 88.921875 33.015625 
L 88.921875 0 
L 79.890625 0 
L 79.890625 32.71875 
Q 79.890625 40.578125 77.09375 44.375 
Q 74.3125 48.1875 68.609375 48.1875 
Q 61.625 48.1875 57.5625 43.546875 
Q 53.515625 38.921875 53.515625 30.90625 
L 53.515625 0 
L 44.484375 0 
L 44.484375 32.71875 
Q 44.484375 40.625 41.703125 44.40625 
Q 38.921875 48.1875 33.109375 48.1875 
Q 26.21875 48.1875 22.15625 43.53125 
Q 18.109375 38.875 18.109375 30.90625 
L 18.109375 0 
L 9.078125 0 
L 9.078125 54.6875 
L 18.109375 54.6875 
L 18.109375 46.1875 
Q 21.1875 51.21875 25.484375 53.609375 
Q 29.78125 56 35.6875 56 
Q 41.65625 56 45.828125 52.96875 
Q 50 49.953125 52 44.1875 
z
" id="DejaVuSans-109"/>
      </defs>
      <g transform="translate(648.366705 595.8775)scale(0.16 -0.16)">
       <use xlink:href="#DejaVuSans-84"/>
       <use x="61.083984" xlink:href="#DejaVuSans-104"/>
       <use x="124.462891" xlink:href="#DejaVuSans-105"/>
       <use x="152.246094" xlink:href="#DejaVuSans-115"/>
       <use x="204.345703" xlink:href="#DejaVuSans-32"/>
       <use x="236.132812" xlink:href="#DejaVuSans-101"/>
       <use x="297.640625" xlink:href="#DejaVuSans-120"/>
       <use x="356.820312" xlink:href="#DejaVuSans-112"/>
       <use x="420.296875" xlink:href="#DejaVuSans-101"/>
       <use x="481.820312" xlink:href="#DejaVuSans-114"/>
       <use x="522.933594" xlink:href="#DejaVuSans-105"/>
       <use x="550.716797" xlink:href="#DejaVuSans-109"/>
       <use x="648.128906" xlink:href="#DejaVuSans-101"/>
       <use x="709.652344" xlink:href="#DejaVuSans-110"/>
       <use x="773.03125" xlink:href="#DejaVuSans-116"/>
      </g>
     </g>
    </g>
   </g>
   <g id="matplotlib.axis_2">
    <g id="ytick_1">
     <g id="line2d_6">
      <defs>
       <path d="M 0 0 
L -3.5 0 
" id="m78260c52fc" style="stroke:#000000;stroke-width:0.8;"/>
      </defs>
      <g>
       <use style="stroke:#000000;stroke-width:0.8;" x="108" xlink:href="#m78260c52fc" y="569.05655"/>
      </g>
     </g>
     <g id="text_6">
      <!-- 0.0 -->
      <defs>
       <path d="M 31.78125 66.40625 
Q 24.171875 66.40625 20.328125 58.90625 
Q 16.5 51.421875 16.5 36.375 
Q 16.5 21.390625 20.328125 13.890625 
Q 24.171875 6.390625 31.78125 6.390625 
Q 39.453125 6.390625 43.28125 13.890625 
Q 47.125 21.390625 47.125 36.375 
Q 47.125 51.421875 43.28125 58.90625 
Q 39.453125 66.40625 31.78125 66.40625 
z
M 31.78125 74.21875 
Q 44.046875 74.21875 50.515625 64.515625 
Q 56.984375 54.828125 56.984375 36.375 
Q 56.984375 17.96875 50.515625 8.265625 
Q 44.046875 -1.421875 31.78125 -1.421875 
Q 19.53125 -1.421875 13.0625 8.265625 
Q 6.59375 17.96875 6.59375 36.375 
Q 6.59375 54.828125 13.0625 64.515625 
Q 19.53125 74.21875 31.78125 74.21875 
z
" id="DejaVuSans-48"/>
       <path d="M 10.6875 12.40625 
L 21 12.40625 
L 21 0 
L 10.6875 0 
z
" id="DejaVuSans-46"/>
      </defs>
      <g transform="translate(85.096875 572.855768)scale(0.1 -0.1)">
       <use xlink:href="#DejaVuSans-48"/>
       <use x="63.623047" xlink:href="#DejaVuSans-46"/>
       <use x="95.410156" xlink:href="#DejaVuSans-48"/>
      </g>
     </g>
    </g>
    <g id="ytick_2">
     <g id="line2d_7">
      <g>
       <use style="stroke:#000000;stroke-width:0.8;" x="108" xlink:href="#m78260c52fc" y="490.246479"/>
      </g>
     </g>
     <g id="text_7">
      <!-- 0.5 -->
      <g transform="translate(85.096875 494.045698)scale(0.1 -0.1)">
       <use xlink:href="#DejaVuSans-48"/>
       <use x="63.623047" xlink:href="#DejaVuSans-46"/>
       <use x="95.410156" xlink:href="#DejaVuSans-53"/>
      </g>
     </g>
    </g>
    <g id="ytick_3">
     <g id="line2d_8">
      <g>
       <use style="stroke:#000000;stroke-width:0.8;" x="108" xlink:href="#m78260c52fc" y="411.436408"/>
      </g>
     </g>
     <g id="text_8">
      <!-- 1.0 -->
      <defs>
       <path d="M 12.40625 8.296875 
L 28.515625 8.296875 
L 28.515625 63.921875 
L 10.984375 60.40625 
L 10.984375 69.390625 
L 28.421875 72.90625 
L 38.28125 72.90625 
L 38.28125 8.296875 
L 54.390625 8.296875 
L 54.390625 0 
L 12.40625 0 
z
" id="DejaVuSans-49"/>
      </defs>
      <g transform="translate(85.096875 415.235627)scale(0.1 -0.1)">
       <use xlink:href="#DejaVuSans-49"/>
       <use x="63.623047" xlink:href="#DejaVuSans-46"/>
       <use x="95.410156" xlink:href="#DejaVuSans-48"/>
      </g>
     </g>
    </g>
    <g id="ytick_4">
     <g id="line2d_9">
      <g>
       <use style="stroke:#000000;stroke-width:0.8;" x="108" xlink:href="#m78260c52fc" y="332.626337"/>
      </g>
     </g>
     <g id="text_9">
      <!-- 1.5 -->
      <g transform="translate(85.096875 336.425556)scale(0.1 -0.1)">
       <use xlink:href="#DejaVuSans-49"/>
       <use x="63.623047" xlink:href="#DejaVuSans-46"/>
       <use x="95.410156" xlink:href="#DejaVuSans-53"/>
      </g>
     </g>
    </g>
    <g id="ytick_5">
     <g id="line2d_10">
      <g>
       <use style="stroke:#000000;stroke-width:0.8;" x="108" xlink:href="#m78260c52fc" y="253.816267"/>
      </g>
     </g>
     <g id="text_10">
      <!-- 2.0 -->
      <defs>
       <path d="M 19.1875 8.296875 
L 53.609375 8.296875 
L 53.609375 0 
L 7.328125 0 
L 7.328125 8.296875 
Q 12.9375 14.109375 22.625 23.890625 
Q 32.328125 33.6875 34.8125 36.53125 
Q 39.546875 41.84375 41.421875 45.53125 
Q 43.3125 49.21875 43.3125 52.78125 
Q 43.3125 58.59375 39.234375 62.25 
Q 35.15625 65.921875 28.609375 65.921875 
Q 23.96875 65.921875 18.8125 64.3125 
Q 13.671875 62.703125 7.8125 59.421875 
L 7.8125 69.390625 
Q 13.765625 71.78125 18.9375 73 
Q 24.125 74.21875 28.421875 74.21875 
Q 39.75 74.21875 46.484375 68.546875 
Q 53.21875 62.890625 53.21875 53.421875 
Q 53.21875 48.921875 51.53125 44.890625 
Q 49.859375 40.875 45.40625 35.40625 
Q 44.1875 33.984375 37.640625 27.21875 
Q 31.109375 20.453125 19.1875 8.296875 
z
" id="DejaVuSans-50"/>
      </defs>
      <g transform="translate(85.096875 257.615485)scale(0.1 -0.1)">
       <use xlink:href="#DejaVuSans-50"/>
       <use x="63.623047" xlink:href="#DejaVuSans-46"/>
       <use x="95.410156" xlink:href="#DejaVuSans-48"/>
      </g>
     </g>
    </g>
    <g id="ytick_6">
     <g id="line2d_11">
      <g>
       <use style="stroke:#000000;stroke-width:0.8;" x="108" xlink:href="#m78260c52fc" y="175.006196"/>
      </g>
     </g>
     <g id="text_11">
      <!-- 2.5 -->
      <g transform="translate(85.096875 178.805415)scale(0.1 -0.1)">
       <use xlink:href="#DejaVuSans-50"/>
       <use x="63.623047" xlink:href="#DejaVuSans-46"/>
       <use x="95.410156" xlink:href="#DejaVuSans-53"/>
      </g>
     </g>
    </g>
    <g id="ytick_7">
     <g id="line2d_12">
      <g>
       <use style="stroke:#000000;stroke-width:0.8;" x="108" xlink:href="#m78260c52fc" y="96.196125"/>
      </g>
     </g>
     <g id="text_12">
      <!-- 3.0 -->
      <g transform="translate(85.096875 99.995344)scale(0.1 -0.1)">
       <use xlink:href="#DejaVuSans-51"/>
       <use x="63.623047" xlink:href="#DejaVuSans-46"/>
       <use x="95.410156" xlink:href="#DejaVuSans-48"/>
      </g>
     </g>
    </g>
    <g id="text_13">
     <!-- Flow at Last Node (af) -->
     <defs>
      <path d="M 9.8125 72.90625 
L 51.703125 72.90625 
L 51.703125 64.59375 
L 19.671875 64.59375 
L 19.671875 43.109375 
L 48.578125 43.109375 
L 48.578125 34.8125 
L 19.671875 34.8125 
L 19.671875 0 
L 9.8125 0 
z
" id="DejaVuSans-70"/>
      <path d="M 9.421875 75.984375 
L 18.40625 75.984375 
L 18.40625 0 
L 9.421875 0 
z
" id="DejaVuSans-108"/>
      <path d="M 4.203125 54.6875 
L 13.1875 54.6875 
L 24.421875 12.015625 
L 35.59375 54.6875 
L 46.1875 54.6875 
L 57.421875 12.015625 
L 68.609375 54.6875 
L 77.59375 54.6875 
L 63.28125 0 
L 52.6875 0 
L 40.921875 44.828125 
L 29.109375 0 
L 18.5 0 
z
" id="DejaVuSans-119"/>
      <path d="M 9.8125 72.90625 
L 19.671875 72.90625 
L 19.671875 8.296875 
L 55.171875 8.296875 
L 55.171875 0 
L 9.8125 0 
z
" id="DejaVuSans-76"/>
      <path d="M 9.8125 72.90625 
L 23.09375 72.90625 
L 55.421875 11.921875 
L 55.421875 72.90625 
L 64.984375 72.90625 
L 64.984375 0 
L 51.703125 0 
L 19.390625 60.984375 
L 19.390625 0 
L 9.8125 0 
z
" id="DejaVuSans-78"/>
      <path d="M 45.40625 46.390625 
L 45.40625 75.984375 
L 54.390625 75.984375 
L 54.390625 0 
L 45.40625 0 
L 45.40625 8.203125 
Q 42.578125 3.328125 38.25 0.953125 
Q 33.9375 -1.421875 27.875 -1.421875 
Q 17.96875 -1.421875 11.734375 6.484375 
Q 5.515625 14.40625 5.515625 27.296875 
Q 5.515625 40.1875 11.734375 48.09375 
Q 17.96875 56 27.875 56 
Q 33.9375 56 38.25 53.625 
Q 42.578125 51.265625 45.40625 46.390625 
z
M 14.796875 27.296875 
Q 14.796875 17.390625 18.875 11.75 
Q 22.953125 6.109375 30.078125 6.109375 
Q 37.203125 6.109375 41.296875 11.75 
Q 45.40625 17.390625 45.40625 27.296875 
Q 45.40625 37.203125 41.296875 42.84375 
Q 37.203125 48.484375 30.078125 48.484375 
Q 22.953125 48.484375 18.875 42.84375 
Q 14.796875 37.203125 14.796875 27.296875 
z
" id="DejaVuSans-100"/>
      <path d="M 31 75.875 
Q 24.46875 64.65625 21.28125 53.65625 
Q 18.109375 42.671875 18.109375 31.390625 
Q 18.109375 20.125 21.3125 9.0625 
Q 24.515625 -2 31 -13.1875 
L 23.1875 -13.1875 
Q 15.875 -1.703125 12.234375 9.375 
Q 8.59375 20.453125 8.59375 31.390625 
Q 8.59375 42.28125 12.203125 53.3125 
Q 15.828125 64.359375 23.1875 75.875 
z
" id="DejaVuSans-40"/>
      <path d="M 37.109375 75.984375 
L 37.109375 68.5 
L 28.515625 68.5 
Q 23.6875 68.5 21.796875 66.546875 
Q 19.921875 64.59375 19.921875 59.515625 
L 19.921875 54.6875 
L 34.71875 54.6875 
L 34.71875 47.703125 
L 19.921875 47.703125 
L 19.921875 0 
L 10.890625 0 
L 10.890625 47.703125 
L 2.296875 47.703125 
L 2.296875 54.6875 
L 10.890625 54.6875 
L 10.890625 58.5 
Q 10.890625 67.625 15.140625 71.796875 
Q 19.390625 75.984375 28.609375 75.984375 
z
" id="DejaVuSans-102"/>
      <path d="M 8.015625 75.875 
L 15.828125 75.875 
Q 23.140625 64.359375 26.78125 53.3125 
Q 30.421875 42.28125 30.421875 31.390625 
Q 30.421875 20.453125 26.78125 9.375 
Q 23.140625 -1.703125 15.828125 -13.1875 
L 8.015625 -13.1875 
Q 14.5 -2 17.703125 9.0625 
Q 20.90625 20.125 20.90625 31.390625 
Q 20.90625 42.671875 17.703125 53.65625 
Q 14.5 64.65625 8.015625 75.875 
z
" id="DejaVuSans-41"/>
     </defs>
     <g transform="translate(76.9375 437.210312)rotate(-90)scale(0.2 -0.2)">
      <use xlink:href="#DejaVuSans-70"/>
      <use x="57.519531" xlink:href="#DejaVuSans-108"/>
      <use x="85.302734" xlink:href="#DejaVuSans-111"/>
      <use x="146.484375" xlink:href="#DejaVuSans-119"/>
      <use x="228.271484" xlink:href="#DejaVuSans-32"/>
      <use x="260.058594" xlink:href="#DejaVuSans-97"/>
      <use x="321.337891" xlink:href="#DejaVuSans-116"/>
      <use x="360.546875" xlink:href="#DejaVuSans-32"/>
      <use x="392.333984" xlink:href="#DejaVuSans-76"/>
      <use x="448.046875" xlink:href="#DejaVuSans-97"/>
      <use x="509.326172" xlink:href="#DejaVuSans-115"/>
      <use x="561.425781" xlink:href="#DejaVuSans-116"/>
      <use x="600.634766" xlink:href="#DejaVuSans-32"/>
      <use x="632.421875" xlink:href="#DejaVuSans-78"/>
      <use x="707.226562" xlink:href="#DejaVuSans-111"/>
      <use x="768.408203" xlink:href="#DejaVuSans-100"/>
      <use x="831.884766" xlink:href="#DejaVuSans-101"/>
      <use x="893.408203" xlink:href="#DejaVuSans-32"/>
      <use x="925.195312" xlink:href="#DejaVuSans-40"/>
      <use x="964.208984" xlink:href="#DejaVuSans-97"/>
      <use x="1025.488281" xlink:href="#DejaVuSans-102"/>
      <use x="1060.693359" xlink:href="#DejaVuSans-41"/>
     </g>
    </g>
    <g id="text_14">
     <!-- 1e7 -->
     <defs>
      <path d="M 8.203125 72.90625 
L 55.078125 72.90625 
L 55.078125 68.703125 
L 28.609375 0 
L 18.3125 0 
L 43.21875 64.59375 
L 8.203125 64.59375 
z
" id="DejaVuSans-55"/>
     </defs>
     <g transform="translate(108 74.76)scale(0.1 -0.1)">
      <use xlink:href="#DejaVuSans-49"/>
      <use x="63.623047" xlink:href="#DejaVuSans-101"/>
      <use x="125.146484" xlink:href="#DejaVuSans-55"/>
     </g>
    </g>
   </g>
   <g id="LineCollection_1">
    <path clip-path="url(#p939f850ca5)" d="M 155.345455 399.306529 
L 189.163636 399.306529 
" style="fill:none;stroke:#000000;stroke-width:1.5;"/>
    <path clip-path="url(#p939f850ca5)" d="M 290.618182 408.533423 
L 324.436364 408.533423 
" style="fill:none;stroke:#000000;stroke-width:1.5;"/>
    <path clip-path="url(#p939f850ca5)" d="M 425.890909 346.820409 
L 459.709091 346.820409 
" style="fill:none;stroke:#000000;stroke-width:1.5;"/>
    <path clip-path="url(#p939f850ca5)" d="M 561.163636 317.043269 
L 594.981818 317.043269 
" style="fill:none;stroke:#000000;stroke-width:1.5;"/>
    <path clip-path="url(#p939f850ca5)" d="M 696.436364 100.44 
L 730.254545 100.44 
" style="fill:none;stroke:#000000;stroke-width:1.5;"/>
   </g>
   <g id="LineCollection_2">
    <path clip-path="url(#p939f850ca5)" d="M 155.345455 532.259245 
L 189.163636 532.259245 
" style="fill:none;stroke:#000000;stroke-width:1.5;"/>
    <path clip-path="url(#p939f850ca5)" d="M 290.618182 531.095743 
L 324.436364 531.095743 
" style="fill:none;stroke:#000000;stroke-width:1.5;"/>
    <path clip-path="url(#p939f850ca5)" d="M 425.890909 545.321242 
L 459.709091 545.321242 
" style="fill:none;stroke:#000000;stroke-width:1.5;"/>
    <path clip-path="url(#p939f850ca5)" d="M 561.163636 543.532033 
L 594.981818 543.532033 
" style="fill:none;stroke:#000000;stroke-width:1.5;"/>
    <path clip-path="url(#p939f850ca5)" d="M 696.436364 554.04 
L 730.254545 554.04 
" style="fill:none;stroke:#000000;stroke-width:1.5;"/>
   </g>
   <g id="LineCollection_3">
    <path clip-path="url(#p939f850ca5)" d="M 172.254545 532.259245 
L 172.254545 399.306529 
" style="fill:none;stroke:#000000;stroke-width:1.5;"/>
    <path clip-path="url(#p939f850ca5)" d="M 307.527273 531.095743 
L 307.527273 408.533423 
" style="fill:none;stroke:#000000;stroke-width:1.5;"/>
    <path clip-path="url(#p939f850ca5)" d="M 442.8 545.321242 
L 442.8 346.820409 
" style="fill:none;stroke:#000000;stroke-width:1.5;"/>
    <path clip-path="url(#p939f850ca5)" d="M 578.072727 543.532033 
L 578.072727 317.043269 
" style="fill:none;stroke:#000000;stroke-width:1.5;"/>
    <path clip-path="url(#p939f850ca5)" d="M 713.345455 554.04 
L 713.345455 100.44 
" style="fill:none;stroke:#000000;stroke-width:1.5;"/>
   </g>
   <g id="patch_3">
    <path d="M 108 576.72 
L 108 77.76 
" style="fill:none;stroke:#000000;stroke-linecap:square;stroke-linejoin:miter;stroke-width:0.8;"/>
   </g>
   <g id="patch_4">
    <path d="M 777.6 576.72 
L 777.6 77.76 
" style="fill:none;stroke:#000000;stroke-linecap:square;stroke-linejoin:miter;stroke-width:0.8;"/>
   </g>
   <g id="patch_5">
    <path d="M 108 576.72 
L 777.6 576.72 
" style="fill:none;stroke:#000000;stroke-linecap:square;stroke-linejoin:miter;stroke-width:0.8;"/>
   </g>
   <g id="patch_6">
    <path d="M 108 77.76 
L 777.6 77.76 
" style="fill:none;stroke:#000000;stroke-linecap:square;stroke-linejoin:miter;stroke-width:0.8;"/>
   </g>
  </g>
 </g>
 <defs>
  <clipPath id="p939f850ca5">
   <rect height="498.96" width="669.6" x="108" y="77.76"/>
  </clipPath>
 </defs>
</svg>
