<?xml version="1.0" encoding="utf-8"?>
<!-- Generator: Adobe Illustrator 21.1.0, SVG Export Plug-In . SVG Version: 6.00 Build 0)  -->
<svg version="1.1" id="Layer_1" xmlns="http://www.w3.org/2000/svg" xmlns:xlink="http://www.w3.org/1999/xlink" x="0px" y="0px"
	 viewBox="0 0 1044 576" style="enable-background:new 0 0 1044 576;" xml:space="preserve">
<style type="text/css">
	.st0{fill:#FFFFFF;}
	.st1{clip-path:url(#SVGID_2_);fill:#F18670;}
	.st2{clip-path:url(#SVGID_4_);fill:#E24D3F;}
	.st3{clip-path:url(#SVGID_6_);fill:#CF233E;}
	.st4{clip-path:url(#SVGID_8_);fill:#681E33;}
	.st5{clip-path:url(#SVGID_10_);fill:#676572;}
	.st6{clip-path:url(#SVGID_12_);fill:#F3BE22;}
	.st7{clip-path:url(#SVGID_14_);fill:#59DEBA;}
	.st8{clip-path:url(#SVGID_16_);fill:#14015C;}
	.st9{clip-path:url(#SVGID_18_);fill:#DAF8A3;}
	.st10{clip-path:url(#SVGID_20_);fill:#0B7A0A;}
	.st11{clip-path:url(#SVGID_22_);fill:#F8FFA2;}
	.st12{clip-path:url(#SVGID_24_);fill:#578DC0;}
	.st13{clip-path:url(#SVGID_26_);fill:#4E4AD8;}
	.st14{clip-path:url(#SVGID_28_);fill:#32B3F7;}
	.st15{clip-path:url(#SVGID_30_);fill:#F77632;}
	.st16{stroke:#000000;stroke-width:0.8;stroke-linejoin:round;}
	.st17{fill:none;stroke:#000000;stroke-width:0.8;stroke-linecap:square;}
</style>
<g id="patch_1">
	<path class="st0" d="M0,576h1044V0H0V576z"/>
</g>
<g id="patch_2">
	<path class="st0" d="M130.5,512.6h809.1V69.1H130.5V512.6z"/>
</g>
<g id="PolyCollection_1">
	<g>
		<defs>
			<rect id="SVGID_1_" x="130.5" y="69.1" width="809.1" height="443.5"/>
		</defs>
		<clipPath id="SVGID_2_">
			<use xlink:href="#SVGID_1_"  style="overflow:visible;"/>
		</clipPath>
		<path class="st1" d="M130.5,503.9v8.7h8.1h8.1h8.1h8.1h8.1h8.1h8.1h8.1h8.1h8.1h8.1h8.1h8.1h8.1h8.1h8.1h8.1h8.1h8.1h8.1h8.1h8.1
			h8.1h8.1h8.1h8.1h8.1h8.1h8.1h8.1h8.1h8.1h8.1h8.1h8.1h8.1h8.1h8.1h8.1h8.1h8.1h8.1h8.1h8.1h8.1h8.1h8.1h8.1h8.1h8.1h8.1h8.1h8.1
			h8.1h8.1h8.1h8.1h8.1h8.1h8.1h8.1h8.1h8.1h8.1h8.1h8.1h8.1h8.1h8.1h8.1h8.1h8.1h8.1h8.1h8.1h8.1h8.1h8.1h8.1h8.1h8.1h8.1h8.1h8.1
			h8.1h8.1h8.1h8.1h8.1h8.1h8.1h8.1h8.1h8.1h8.1h8.1h8.1h8.1h8.1V398.1l0,0l-8.1-1.2l-8.1,1.8l-8.1,1.9l-8.1,2.1l-8.1,1.5l-8.1,1.6
			l-8.1,1.7l-8.1,1.8l-8.1,1l-8.1,0.9l-8.1,0.5l-8.1,0.6l-8.1,0.6l-8.1,1l-8.1,1l-8.1,0.8l-8.1,0.9l-8.1,0.6l-8.1,0.9l-8.1,0.8
			l-8.1,1l-8.1,0.8l-8.1,1l-8.1,1.1l-8.1,0.8l-8.1,1l-8.1,1l-8.1,0.8l-8.1,1.1l-8.1,1.1l-8.1,1l-8.1,1.2l-8.1,1.1l-8.1,1.2l-8.1,1.1
			l-8.1,1l-8.1,1.2l-8.1,1.3l-8.1,1.2l-8.1,1.2l-8.1,1.1l-8.1,1.1l-8.1,1.3l-8.1,1.3l-8.1,1.1l-8.1,1.3l-8.1,1.3l-8.1,1.3l-8.1,1.1
			l-8.1,1.2l-8.1,1.3l-8.1,1.2l-8.1,1.2l-8.1,1.4l-8.1,1.2l-8.1,1.1l-8.1,1.1l-8.1,1.2l-8.1,1.2l-8.1,1l-8.1,1l-8.1,1.1l-8.1,1.2
			l-8.1,1.1l-8.1,0.9l-8.1,0.9l-8.1,0.9l-8.1,1l-8.1,1.2l-8.1,0.9l-8.1,1l-8.1,1l-8.1,0.9l-8.1,1l-8.1,0.8l-8.1,1.2l-8.1,1l-8.1,0.9
			l-8.1,0.9l-8.1,1l-8.1,0.9l-8.1,0.8l-8.1,0.7l-8.1,0.6l-8.1,0.5l-8.1,0.6l-8.1,0.8l-8.1,0.8l-8.1,0.6l-8.1,0.9l-8.1,0.9l-8.1,0.7
			l-8.1,0.9l-8.1,1.1l-8.1,0.7l-8.1,1.1l-8.1,0.9l-8.1,2.5L130.5,503.9z"/>
	</g>
</g>
<g id="PolyCollection_2">
	<g>
		<defs>
			<rect id="SVGID_3_" x="130.5" y="69.1" width="809.1" height="443.5"/>
		</defs>
		<clipPath id="SVGID_4_">
			<use xlink:href="#SVGID_3_"  style="overflow:visible;"/>
		</clipPath>
		<path class="st2" d="M130.5,501.8v2.1l8.1-4.1l8.1-2.5l8.1-0.9l8.1-1.1l8.1-0.7l8.1-1.1l8.1-0.9l8.1-0.7l8.1-0.9l8.1-0.9l8.1-0.6
			l8.1-0.8l8.1-0.8l8.1-0.6l8.1-0.5l8.1-0.6l8.1-0.7l8.1-0.8l8.1-0.9l8.1-1l8.1-0.9l8.1-0.9l8.1-1l8.1-1.2l8.1-0.8l8.1-1l8.1-0.9
			l8.1-1l8.1-1l8.1-0.9l8.1-1.2l8.1-1l8.1-0.9l8.1-0.9l8.1-0.9l8.1-1.1l8.1-1.2l8.1-1.1l8.1-1l8.1-1l8.1-1.2l8.1-1.2l8.1-1.1
			l8.1-1.1l8.1-1.2l8.1-1.4l8.1-1.2l8.1-1.2l8.1-1.3l8.1-1.2l8.1-1.1l8.1-1.3l8.1-1.3l8.1-1.3l8.1-1.1l8.1-1.3l8.1-1.3l8.1-1.1
			l8.1-1.1l8.1-1.2l8.1-1.2l8.1-1.3l8.1-1.2l8.1-1l8.1-1.1l8.1-1.2l8.1-1.1l8.1-1.2l8.1-1l8.1-1.1l8.1-1.1l8.1-0.8l8.1-1l8.1-1
			l8.1-0.8l8.1-1.1l8.1-1l8.1-0.8l8.1-1l8.1-0.8l8.1-0.9l8.1-0.6l8.1-0.9l8.1-0.8l8.1-1l8.1-1l8.1-0.6l8.1-0.6l8.1-0.5l8.1-0.9
			l8.1-1l8.1-1.8l8.1-1.7l8.1-1.6l8.1-1.5l8.1-2.1l8.1-1.9l8.1-1.8l8.1,1.2v-4.3l0,0l-8.1-1.3l-8.1,1.8l-8.1,1.7l-8.1,2l-8.1,1.4
			l-8.1,1.5l-8.1,1.5l-8.1,1.7l-8.1,0.9l-8.1,0.8l-8.1,0.4l-8.1,0.4l-8.1,0.5l-8.1,1l-8.1,0.9l-8.1,0.7l-8.1,0.8l-8.1,0.4l-8.1,0.8
			l-8.1,0.8l-8.1,0.9l-8.1,0.7l-8.1,0.8l-8.1,1l-8.1,0.7l-8.1,0.9l-8.1,1l-8.1,0.8l-8.1,1.1l-8.1,1.1l-8.1,1.1l-8.1,1.2l-8.1,1
			l-8.1,1.1l-8.1,1.1l-8.1,1l-8.1,1.2l-8.1,1.3l-8.1,1.3l-8.1,1.2l-8.1,1.1l-8.1,1.1l-8.1,1.2l-8.1,1.3l-8.1,1.2l-8.1,1.3l-8.1,1.3
			l-8.1,1.4L535,444l-8.1,1.3l-8.1,1.2l-8.1,1.2l-8.1,1.2l-8.1,1.3l-8.1,1.3l-8.1,1.2l-8.1,1.2l-8.1,1.3l-8.1,1.2l-8.1,1l-8.1,1.1
			l-8.1,1.1l-8.1,1.2l-8.1,1.2l-8.1,0.9l-8.1,0.9l-8.1,1l-8.1,1.1l-8.1,1.3l-8.1,0.9l-8.1,1l-8.1,1.1l-8.1,1l-8.1,1.1l-8.1,0.8
			l-8.1,1.2l-8.1,1l-8.1,0.8l-8.1,1l-8.1,1.1l-8.1,0.9L268,480l-8.1,0.8l-8.1,0.6l-8.1,0.5l-8.1,0.6l-8.1,1l-8.1,1l-8.1,0.8l-8.1,1
			l-8.1,1l-8.1,0.8l-8.1,1.1l-8.1,1.2l-8.1,0.8l-8.1,1.1l-8.1,1l-8.1,3.2L130.5,501.8z"/>
	</g>
</g>
<g id="PolyCollection_3">
	<g>
		<defs>
			<rect id="SVGID_5_" x="130.5" y="69.1" width="809.1" height="443.5"/>
		</defs>
		<clipPath id="SVGID_6_">
			<use xlink:href="#SVGID_5_"  style="overflow:visible;"/>
		</clipPath>
		<path class="st3" d="M130.5,500.4v1.4l8.1-5.5l8.1-3.2l8.1-1l8.1-1.1l8.1-0.8l8.1-1.2l8.1-1.1l8.1-0.8l8.1-1l8.1-1l8.1-0.8l8.1-1
			l8.1-1l8.1-0.6l8.1-0.5l8.1-0.6l8.1-0.8l8.1-0.8l8.1-0.9l8.1-1.1l8.1-1l8.1-0.8l8.1-1l8.1-1.2l8.1-0.8l8.1-1.1l8.1-1l8.1-1.1
			l8.1-1l8.1-0.9l8.1-1.3l8.1-1.1l8.1-1l8.1-0.9l8.1-0.9l8.1-1.2l8.1-1.2l8.1-1.1l8.1-1.1l8.1-1l8.1-1.2l8.1-1.3l8.1-1.2l8.1-1.2
			l8.1-1.3l8.1-1.3l8.1-1.2l8.1-1.2l8.1-1.2l8.1-1.3l8.1-1.1l8.1-1.4l8.1-1.3l8.1-1.3l8.1-1.2l8.1-1.3l8.1-1.2l8.1-1.1l8.1-1.1
			l8.1-1.2l8.1-1.3l8.1-1.3l8.1-1.2l8.1-1l8.1-1.1l8.1-1.1l8.1-1l8.1-1.2l8.1-1.1l8.1-1.1l8.1-1.1l8.1-0.8l8.1-1l8.1-0.9l8.1-0.7
			l8.1-1l8.1-0.8l8.1-0.7l8.1-0.9l8.1-0.8l8.1-0.8l8.1-0.4l8.1-0.8l8.1-0.7l8.1-0.9l8.1-1l8.1-0.5l8.1-0.4l8.1-0.4l8.1-0.8l8.1-0.9
			l8.1-1.7l8.1-1.5l8.1-1.5l8.1-1.4l8.1-2l8.1-1.7l8.1-1.8l8.1,1.3v-3.6l0,0l-8.1-1.1l-8.1,1.7l-8.1,1.8l-8.1,1.9l-8.1,1.5l-8.1,1.5
			l-8.1,1.6l-8.1,1.7l-8.1,1.1l-8.1,0.8l-8.1,0.3l-8.1,0.4l-8.1,0.5l-8.1,1.1l-8.1,1l-8.1,0.8l-8.1,0.8l-8.1,0.4l-8.1,0.8l-8.1,0.8
			l-8.1,0.9l-8.1,0.7l-8.1,0.8l-8.1,1l-8.1,0.7l-8.1,0.9l-8.1,1l-8.1,0.8l-8.1,1l-8.1,1.1l-8.1,1.1l-8.1,1.2l-8.1,1.1l-8.1,1.1
			l-8.1,1.1l-8.1,1l-8.1,1.1l-8.1,1.4l-8.1,1.3l-8.1,1.2l-8.1,1.1l-8.1,1.1l-8.1,1.3l-8.1,1.3l-8.1,1.2l-8.1,1.4l-8.1,1.3l-8.1,1.4
			l-8.1,1.2L527,443l-8.1,1.3l-8.1,1.2l-8.1,1.2l-8.1,1.3l-8.1,1.3l-8.1,1.2l-8.1,1.2l-8.1,1.3l-8.1,1.2l-8.1,1.1l-8.1,1.1l-8.1,1.1
			l-8.1,1.2l-8.1,1.2l-8.1,0.9l-8.1,1l-8.1,1l-8.1,1l-8.1,1.3l-8.1,1l-8.1,1.1l-8.1,1.1l-8.1,1l-8.1,1.1l-8.1,0.8l-8.1,1.2l-8.1,1
			l-8.1,0.8l-8.1,1l-8.1,1.1l-8.1,1l-8.1,0.8L260,479l-8.1,0.6l-8.1,0.5l-8.1,0.7l-8.1,1l-8.1,0.9l-8.1,0.8l-8.1,1.1l-8.1,1.1
			l-8.1,0.7l-8.1,1.1l-8.1,1.3l-8.1,0.7l-8.1,1.1l-8.1,1l-8.1,2.9L130.5,500.4z"/>
	</g>
</g>
<g id="PolyCollection_4">
	<g>
		<defs>
			<rect id="SVGID_7_" x="130.5" y="69.1" width="809.1" height="443.5"/>
		</defs>
		<clipPath id="SVGID_8_">
			<use xlink:href="#SVGID_7_"  style="overflow:visible;"/>
		</clipPath>
		<path class="st4" d="M130.5,498.4v2l8.1-5.9l8.1-2.9l8.1-1l8.1-1.1l8.1-0.7l8.1-1.3l8.1-1.1l8.1-0.7l8.1-1.1l8.1-1.1l8.1-0.8
			l8.1-0.9l8.1-1l8.1-0.7l8.1-0.5l8.1-0.6l8.1-0.8l8.1-0.8l8.1-1l8.1-1.1l8.1-1l8.1-0.8l8.1-1l8.1-1.2l8.1-0.8l8.1-1.1l8.1-1
			l8.1-1.1l8.1-1.1l8.1-1l8.1-1.3l8.1-1l8.1-1l8.1-1l8.1-0.9l8.1-1.2l8.1-1.2l8.1-1.1l8.1-1.1l8.1-1.1l8.1-1.2l8.1-1.3l8.1-1.2
			l8.1-1.2l8.1-1.3l8.1-1.3l8.1-1.2l8.1-1.2l8.1-1.3l8.1-1.3l8.1-1.2l8.1-1.4l8.1-1.3l8.1-1.4l8.1-1.2l8.1-1.3l8.1-1.3l8.1-1.1
			l8.1-1.1l8.1-1.2l8.1-1.3l8.1-1.4l8.1-1.1l8.1-1l8.1-1.1l8.1-1.1l8.1-1.1l8.1-1.2l8.1-1.1l8.1-1.1l8.1-1l8.1-0.8l8.1-1l8.1-0.9
			l8.1-0.7l8.1-1l8.1-0.8l8.1-0.7l8.1-0.9l8.1-0.8l8.1-0.8l8.1-0.4l8.1-0.8l8.1-0.8l8.1-1l8.1-1.1l8.1-0.5l8.1-0.4l8.1-0.3l8.1-0.8
			l8.1-1.1l8.1-1.7l8.1-1.6l8.1-1.5l8.1-1.5l8.1-1.9l8.1-1.8l8.1-1.7l8.1,1.1v-4l0,0l-8.1-1.2l-8.1,1.8l-8.1,1.9l-8.1,2.1l-8.1,1.6
			l-8.1,1.5l-8.1,1.7l-8.1,1.8l-8.1,1l-8.1,0.8l-8.1,0.4l-8.1,0.4l-8.1,0.5l-8.1,1.1l-8.1,1l-8.1,0.7l-8.1,0.8l-8.1,0.5l-8.1,0.8
			l-8.1,0.7l-8.1,0.9l-8.1,0.7l-8.1,0.8l-8.1,1l-8.1,0.7l-8.1,0.9l-8.1,1l-8.1,0.8l-8.1,0.9l-8.1,1.1l-8.1,1.1l-8.1,1.2l-8.1,1
			l-8.1,1.2l-8.1,1l-8.1,0.9l-8.1,1.1l-8.1,1.3l-8.1,1.3l-8.1,1.2l-8.1,1.1l-8.1,1.1l-8.1,1.2l-8.1,1.3l-8.1,1.1l-8.1,1.3l-8.1,1.3
			l-8.1,1.4l-8.1,1.1L527,439l-8.1,1.3l-8.1,1.1l-8.1,1.2l-8.1,1.3l-8.1,1.3l-8.1,1.2l-8.1,1.3l-8.1,1.3l-8.1,1.3l-8.1,1.1l-8.1,1.2
			l-8.1,1.2l-8.1,1.3l-8.1,1.2l-8.1,1l-8.1,1.1l-8.1,1l-8.1,1l-8.1,1.2l-8.1,1l-8.1,1.1l-8.1,1l-8.1,1l-8.1,1.1l-8.1,0.8l-8.1,1.1
			l-8.1,1l-8.1,0.9l-8.1,0.9l-8.1,1.1l-8.1,1l-8.1,0.9l-8.1,0.9l-8.1,0.6l-8.1,0.5l-8.1,0.8l-8.1,1.1l-8.1,0.9l-8.1,0.7l-8.1,1.1
			l-8.1,1.1l-8.1,0.8l-8.1,1.3l-8.1,1.5l-8.1,0.7l-8.1,1.1l-8.1,1.2l-8.1,3.1L130.5,498.4z"/>
	</g>
</g>
<g id="PolyCollection_5">
	<g>
		<defs>
			<rect id="SVGID_9_" x="130.5" y="69.1" width="809.1" height="443.5"/>
		</defs>
		<clipPath id="SVGID_10_">
			<use xlink:href="#SVGID_9_"  style="overflow:visible;"/>
		</clipPath>
		<path class="st5" d="M130.5,494.5v3.9l8.1-6.5l8.1-3.1l8.1-1.2l8.1-1.1l8.1-0.7l8.1-1.5l8.1-1.3l8.1-0.8l8.1-1.1l8.1-1.1l8.1-0.7
			l8.1-0.9l8.1-1.1l8.1-0.8l8.1-0.5l8.1-0.6l8.1-0.9l8.1-0.9l8.1-1l8.1-1.1l8.1-0.9l8.1-0.9l8.1-1l8.1-1.1l8.1-0.8l8.1-1.1l8.1-1
			l8.1-1l8.1-1.1l8.1-1l8.1-1.2l8.1-1l8.1-1l8.1-1.1l8.1-1l8.1-1.2l8.1-1.3l8.1-1.2l8.1-1.2l8.1-1.1l8.1-1.3l8.1-1.3l8.1-1.3
			l8.1-1.2l8.1-1.3l8.1-1.3l8.1-1.2l8.1-1.1l8.1-1.3l8.1-1.4l8.1-1.1l8.1-1.4l8.1-1.3l8.1-1.3l8.1-1.1l8.1-1.3l8.1-1.2l8.1-1.1
			l8.1-1.1l8.1-1.2l8.1-1.3l8.1-1.3l8.1-1.1l8.1-0.9l8.1-1l8.1-1.2l8.1-1l8.1-1.2l8.1-1.1l8.1-1.1l8.1-0.9l8.1-0.8l8.1-1l8.1-0.9
			l8.1-0.7l8.1-1l8.1-0.8l8.1-0.7l8.1-0.9l8.1-0.7l8.1-0.8l8.1-0.5l8.1-0.8l8.1-0.7l8.1-1l8.1-1.1l8.1-0.5l8.1-0.4l8.1-0.4l8.1-0.8
			l8.1-1l8.1-1.8l8.1-1.7l8.1-1.5l8.1-1.6l8.1-2.1l8.1-1.9l8.1-1.8l8.1,1.2v-5.5l0,0l-8.1-1.3l-8.1,1.4l-8.1,2l-8.1,1.9l-8.1,1.5
			L883,388l-8.1,1.6l-8.1,1.7l-8.1,1l-8.1,0.7l-8.1,0.3l-8.1,0.3l-8.1,0.4l-8.1,0.9l-8.1,0.9l-8.1,0.7l-8.1,0.8l-8.1,0.4l-8.1,0.7
			l-8.1,0.6l-8.1,0.8l-8.1,0.7l-8.1,0.7l-8.1,0.9l-8.1,0.7l-8.1,0.8l-8.1,1l-8.1,0.8l-8.1,0.9l-8.1,1l-8.1,1.1l-8.1,1.2l-8.1,1
			l-8.1,1.1l-8.1,1l-8.1,0.9l-8.1,1.1l-8.1,1.3l-8.1,1.2l-8.1,1.2l-8.1,1.1l-8.1,1.1l-8.1,1.2l-8.1,1.2l-8.1,1.1l-8.1,1.3l-8.1,1.3
			l-8.1,1.4l-8.1,1.1L527,431l-8.1,1.2l-8.1,1.1l-8.1,1.2l-8.1,1.3l-8.1,1.2l-8.1,1.2l-8.1,1.3l-8.1,1.3l-8.1,1.3l-8.1,1.1l-8.1,1.2
			l-8.1,1.2l-8.1,1.2l-8.1,1.2l-8.1,1l-8.1,1.1l-8.1,1l-8.1,1l-8.1,1.3l-8.1,1.1l-8.1,1.2l-8.1,1l-8.1,1l-8.1,1.1l-8.1,0.8l-8.1,1.1
			l-8.1,1l-8.1,1l-8.1,1l-8.1,1l-8.1,1.1l-8.1,1l-8.1,0.9l-8.1,0.7l-8.1,0.6l-8.1,0.8l-8.1,0.9l-8.1,0.9l-8.1,0.8l-8.1,1.2l-8.1,1.1
			l-8.1,0.5l-8.1,1.3l-8.1,1.7l-8.1,0.9l-8.1,1.5l-8.1,2l-8.1,4L130.5,494.5z"/>
	</g>
</g>
<g id="PolyCollection_6">
	<g>
		<defs>
			<rect id="SVGID_11_" x="130.5" y="69.1" width="809.1" height="443.5"/>
		</defs>
		<clipPath id="SVGID_12_">
			<use xlink:href="#SVGID_11_"  style="overflow:visible;"/>
		</clipPath>
		<path class="st6" d="M130.5,492.6v1.9l8.1-7.9l8.1-4l8.1-2l8.1-1.5l8.1-0.9l8.1-1.7l8.1-1.3l8.1-0.5l8.1-1.1l8.1-1.2l8.1-0.8
			l8.1-0.9l8.1-0.9l8.1-0.8l8.1-0.6l8.1-0.7l8.1-0.9l8.1-1l8.1-1.1l8.1-1l8.1-1l8.1-1l8.1-1l8.1-1.1l8.1-0.8l8.1-1.1l8.1-1l8.1-1
			l8.1-1.2l8.1-1.1l8.1-1.3l8.1-1l8.1-1l8.1-1.1l8.1-1l8.1-1.2l8.1-1.2l8.1-1.2l8.1-1.2l8.1-1.1l8.1-1.3l8.1-1.3l8.1-1.3l8.1-1.2
			l8.1-1.2l8.1-1.3l8.1-1.2l8.1-1.1l8.1-1.2l8.1-1.4l8.1-1.1l8.1-1.4l8.1-1.3l8.1-1.3l8.1-1.1l8.1-1.2l8.1-1.2l8.1-1.1l8.1-1.1
			l8.1-1.2l8.1-1.2l8.1-1.3l8.1-1.1l8.1-0.9l8.1-1l8.1-1.1l8.1-1l8.1-1.2l8.1-1.1l8.1-1l8.1-0.9l8.1-0.8l8.1-1l8.1-0.8l8.1-0.7
			l8.1-0.9l8.1-0.7l8.1-0.7l8.1-0.8l8.1-0.6l8.1-0.7l8.1-0.4l8.1-0.8l8.1-0.7l8.1-0.9l8.1-0.9l8.1-0.4l8.1-0.3l8.1-0.3l8.1-0.7
			l8.1-1l8.1-1.7l8.1-1.6l8.1-1.7l8.1-1.5l8.1-1.9l8.1-2l8.1-1.4l8.1,1.3v-6.3l0,0l-8.1-1.2l-8.1,1.4l-8.1,2.1l-8.1,1.9l-8.1,1.6
			l-8.1,1.8l-8.1,1.6l-8.1,1.7l-8.1,1l-8.1,0.7l-8.1,0.3l-8.1,0.2l-8.1,0.4l-8.1,0.9l-8.1,0.8l-8.1,0.7l-8.1,0.8l-8.1,0.5l-8.1,0.7
			l-8.1,0.7l-8.1,0.8l-8.1,0.7l-8.1,0.8l-8.1,0.9l-8.1,0.7l-8.1,0.8l-8.1,1l-8.1,0.8l-8.1,0.9l-8.1,1l-8.1,1.1l-8.1,1.2l-8.1,1
			l-8.1,1.1l-8.1,1l-8.1,1l-8.1,1.1l-8.1,1.3l-8.1,1.3l-8.1,1.2l-8.1,1.1l-8.1,1.1l-8.1,1.2l-8.1,1.2l-8.1,1.1l-8.1,1.3l-8.1,1.4
			l-8.1,1.4l-8.1,1.1l-8.1,1.5l-8.1,1.2l-8.1,1.2l-8.1,1.2l-8.1,1.3l-8.1,1.2l-8.1,1.2l-8.1,1.3l-8.1,1.3l-8.1,1.4l-8.1,1.2
			l-8.1,1.2l-8.1,1.2l-8.1,1.2l-8.1,1.2l-8.1,1l-8.1,1.1l-8.1,1.1l-8.1,1l-8.1,1.2l-8.1,1.1l-8.1,1.2l-8.1,1.1l-8.1,1l-8.1,1.1
			l-8.1,0.8l-8.1,1.2l-8.1,0.9l-8.1,1l-8.1,1l-8.1,1l-8.1,1.1l-8.1,1l-8.1,0.9l-8.1,0.7l-8.1,0.6l-8.1,0.8l-8.1,0.9l-8.1,1l-8.1,0.9
			l-8.1,1.3l-8.1,1.4l-8.1,0.9l-8.1,1.5l-8.1,1.6l-8.1,1.1l-8.1,1.5l-8.1,2l-8.1,4.5L130.5,492.6z"/>
	</g>
</g>
<g id="PolyCollection_7">
	<g>
		<defs>
			<rect id="SVGID_13_" x="130.5" y="69.1" width="809.1" height="443.5"/>
		</defs>
		<clipPath id="SVGID_14_">
			<use xlink:href="#SVGID_13_"  style="overflow:visible;"/>
		</clipPath>
		<path class="st7" d="M130.5,488.5v4.1l8.1-9.3l8.1-4.5l8.1-2l8.1-1.5l8.1-1.1l8.1-1.6l8.1-1.5l8.1-0.9l8.1-1.4l8.1-1.3l8.1-0.9
			l8.1-1l8.1-0.9l8.1-0.8l8.1-0.6l8.1-0.7l8.1-0.9l8.1-1l8.1-1.1l8.1-1l8.1-1l8.1-1l8.1-0.9l8.1-1.2l8.1-0.8l8.1-1.1l8.1-1l8.1-1.1
			l8.1-1.2l8.1-1.1l8.1-1.2l8.1-1l8.1-1.1l8.1-1.1l8.1-1l8.1-1.2l8.1-1.2l8.1-1.2l8.1-1.2l8.1-1.2l8.1-1.4l8.1-1.3l8.1-1.3l8.1-1.2
			l8.1-1.2l8.1-1.3l8.1-1.2l8.1-1.2l8.1-1.2l8.1-1.5l8.1-1.1l8.1-1.4l8.1-1.4l8.1-1.3l8.1-1.1l8.1-1.2l8.1-1.2l8.1-1.1l8.1-1.1
			l8.1-1.2l8.1-1.3l8.1-1.3l8.1-1.1l8.1-1l8.1-1l8.1-1.1l8.1-1l8.1-1.2l8.1-1.1l8.1-1l8.1-0.9l8.1-0.8l8.1-1l8.1-0.8l8.1-0.7
			l8.1-0.9l8.1-0.8l8.1-0.7l8.1-0.8l8.1-0.7l8.1-0.7l8.1-0.5l8.1-0.8l8.1-0.7l8.1-0.8l8.1-0.9l8.1-0.4l8.1-0.2l8.1-0.3l8.1-0.7
			l8.1-1l8.1-1.7l8.1-1.6l8.1-1.8l8.1-1.6l8.1-1.9l8.1-2.1l8.1-1.4l8.1,1.2v-5.9l0,0l-8.1-1.6l-8.1,0.9l-8.1,1.8l-8.1,1.5l-8.1,1.2
			L883,374l-8.1,1.3l-8.1,1.6l-8.1,0.8l-8.1,0.5l-8.1,0.2l-8.1,0.1l-8.1,0.3l-8.1,0.8l-8.1,0.8l-8.1,0.7L794,382l-8.1,0.4l-8.1,0.7
			l-8.1,0.7l-8.1,0.9l-8.1,0.7l-8.1,0.7l-8.1,1l-8.1,0.7l-8.1,0.9l-8.1,1l-8.1,0.9l-8.1,0.9l-8.1,1l-8.1,1.1l-8.1,1.3l-8.1,1.1
			l-8.1,1.1l-8.1,1l-8.1,1.1l-8.1,1.2l-8.1,1.3l-8.1,1.3l-8.1,1.2l-8.1,1.1l-8.1,1.2l-8.1,1.3l-8.1,1.2l-8.1,1.1l-8.1,1.3l-8.1,1.3
			l-8.1,1.5l-8.1,1.2l-8.1,1.5l-8.1,1.3l-8.1,1.2l-8.1,1.3l-8.1,1.3l-8.1,1.2l-8.1,1.3l-8.1,1.3l-8.1,1.4l-8.1,1.4l-8.1,1.3
			l-8.1,1.2l-8.1,1.2l-8.1,1.3l-8.1,1.3l-8.1,1.1l-8.1,1.2l-8.1,1.2l-8.1,1l-8.1,1.3l-8.1,1.1l-8.1,1.2l-8.1,1l-8.1,1l-8.1,1.1
			l-8.1,0.7l-8.1,1.2l-8.1,1l-8.1,1l-8.1,0.9l-8.1,1.1l-8.1,1.2l-8.1,1l-8.1,1l-8.1,0.7l-8.1,0.7l-8.1,0.8l-8.1,0.8l-8.1,1l-8.1,1
			l-8.1,1.3l-8.1,1.6l-8.1,1l-8.1,1.5l-8.1,1.6l-8.1,1.1l-8.1,2l-8.1,2.4l-8.1,4.6L130.5,488.5z"/>
	</g>
</g>
<g id="PolyCollection_8">
	<g>
		<defs>
			<rect id="SVGID_15_" x="130.5" y="69.1" width="809.1" height="443.5"/>
		</defs>
		<clipPath id="SVGID_16_">
			<use xlink:href="#SVGID_15_"  style="overflow:visible;"/>
		</clipPath>
		<path class="st8" d="M130.5,472.3v16.2l8.1-11.2l8.1-4.6l8.1-2.4l8.1-2l8.1-1.1l8.1-1.6l8.1-1.5l8.1-1l8.1-1.6l8.1-1.3l8.1-1
			l8.1-1l8.1-0.8l8.1-0.8l8.1-0.7l8.1-0.7l8.1-1l8.1-1l8.1-1.2l8.1-1.1l8.1-0.9l8.1-1l8.1-1l8.1-1.2l8.1-0.7l8.1-1.1l8.1-1l8.1-1
			l8.1-1.2l8.1-1.1l8.1-1.3l8.1-1l8.1-1.2l8.1-1.2l8.1-1.1l8.1-1.3l8.1-1.3l8.1-1.2l8.1-1.2l8.1-1.3l8.1-1.4l8.1-1.4l8.1-1.3
			l8.1-1.3l8.1-1.2l8.1-1.3l8.1-1.3l8.1-1.2l8.1-1.3l8.1-1.5l8.1-1.2l8.1-1.5l8.1-1.3l8.1-1.3l8.1-1.1l8.1-1.2l8.1-1.3l8.1-1.2
			l8.1-1.1l8.1-1.2l8.1-1.3l8.1-1.3l8.1-1.2l8.1-1.1l8.1-1l8.1-1.1l8.1-1.1l8.1-1.3l8.1-1.1l8.1-1l8.1-0.9l8.1-0.9l8.1-1l8.1-0.9
			l8.1-0.7l8.1-1l8.1-0.7l8.1-0.7l8.1-0.9l8.1-0.7l8.1-0.7l8.1-0.4l8.1-0.9l8.1-0.7l8.1-0.8l8.1-0.8l8.1-0.3l8.1-0.1l8.1-0.2
			l8.1-0.5l8.1-0.8l8.1-1.6l8.1-1.3l8.1-1.5l8.1-1.2l8.1-1.5l8.1-1.8l8.1-0.9l8.1,1.6V267.3l0,0l-8.1-8.6l-8.1-4.2l-8.1-1.7
			l-8.1-0.8l-8.1,0l-8.1,0.7l-8.1,1.1l-8.1,1.1l-8.1,1.1l-8.1,1.4l-8.1,1.5l-8.1,1.4l-8.1,1.5l-8.1,1.6l-8.1,1.8l-8.1,2l-8.1,1.9
			l-8.1,1.8l-8.1,1.9l-8.1,1.8l-8.1,1.8l-8.1,1.9l-8.1,1.6l-8.1,2l-8.1,1.7l-8.1,2.1l-8.1,2.2l-8.1,2l-8.1,2.1l-8.1,2.1l-8.1,2.1
			l-8.1,2.1l-8.1,1.9l-8.1,1.9l-8.1,1.8l-8.1,2l-8.1,2.1l-8.1,2.1l-8.1,2l-8.1,2.1l-8.1,1.9l-8.1,2l-8.1,2.1l-8.1,2.3l-8.1,1.9
			l-8.1,2.1l-8.1,2.2l-8.1,2.5l-8.1,2l-8.1,2.6l-8.1,2l-8.1,2.1l-8.1,2.3l-8.1,2.2l-8.1,2.3l-8.1,2.2l-8.1,2.1l-8.1,2.2l-8.1,2.4
			L446,358l-8.1,2l-8.1,1.9l-8.1,1.9l-8.1,2.1l-8.1,2l-8.1,2.1l-8.1,2.1l-8.1,1.8l-8.1,1.9l-8.1,1.8l-8.1,2.1l-8.1,1.9l-8.1,1.8
			l-8.1,1.9l-8.1,1.7l-8.1,2l-8.1,1.7l-8.1,1.7l-8.1,1.5l-8.1,1.9l-8.1,1.7l-8.1,1.8l-8.1,1.8l-8.1,1.6l-8.1,1.6l-8.1,1.7l-8.1,1.8
			l-8.1,2l-8.1,2l-8.1,2.7l-8.1,2.9l-8.1,2.5l-8.1,3.4l-8.1,4.2l-8.1,4.2l-8.1,5.2l-8.1,5.6l-8.1,10.1L130.5,472.3z"/>
	</g>
</g>
<g id="PolyCollection_9">
	<g>
		<defs>
			<rect id="SVGID_17_" x="130.5" y="69.1" width="809.1" height="443.5"/>
		</defs>
		<clipPath id="SVGID_18_">
			<use xlink:href="#SVGID_17_"  style="overflow:visible;"/>
		</clipPath>
		<path class="st9" d="M130.5,469.1v3.2l8.1-19.7l8.1-10.1l8.1-5.6l8.1-5.2l8.1-4.2l8.1-4.2l8.1-3.4l8.1-2.5l8.1-2.9l8.1-2.7l8.1-2
			l8.1-2l8.1-1.8l8.1-1.7l8.1-1.6l8.1-1.6l8.1-1.8l8.1-1.8l8.1-1.7l8.1-1.9l8.1-1.5l8.1-1.7l8.1-1.7l8.1-2l8.1-1.7l8.1-1.9l8.1-1.8
			l8.1-1.9l8.1-2.1l8.1-1.8l8.1-1.9l8.1-1.8l8.1-2.1l8.1-2.1l8.1-2l8.1-2.1l8.1-1.9l8.1-1.9l8.1-2l8.1-2.1l8.1-2.4l8.1-2.2l8.1-2.1
			l8.1-2.2l8.1-2.3l8.1-2.2l8.1-2.3l8.1-2.1l8.1-2l8.1-2.6l8.1-2l8.1-2.5l8.1-2.2l8.1-2.1l8.1-1.9l8.1-2.3l8.1-2.1l8.1-2l8.1-1.9
			l8.1-2.1l8.1-2l8.1-2.1l8.1-2.1l8.1-2l8.1-1.8l8.1-1.9l8.1-1.9l8.1-2.1l8.1-2.1l8.1-2.1l8.1-2.1l8.1-2l8.1-2.2l8.1-2.1l8.1-1.7
			l8.1-2l8.1-1.6l8.1-1.9l8.1-1.8l8.1-1.8l8.1-1.9l8.1-1.8l8.1-1.9l8.1-2l8.1-1.8l8.1-1.6l8.1-1.5l8.1-1.4l8.1-1.5l8.1-1.4l8.1-1.1
			l8.1-1.1l8.1-1.1l8.1-0.7l8.1,0l8.1,0.8l8.1,1.7l8.1,4.2l8.1,8.6v-12.5l0,0l-8.1-8l-8.1-3.6l-8.1-1.3l-8.1-0.2l-8.1,0.4l-8.1,1.1
			l-8.1,1.5l-8.1,1.4l-8.1,1.4l-8.1,1.7l-8.1,1.7l-8.1,1.7l-8.1,1.7l-8.1,1.8l-8.1,2l-8.1,2.2l-8.1,2.1l-8.1,1.9l-8.1,2l-8.1,1.9
			l-8.1,1.9l-8.1,2l-8.1,1.7l-8.1,2l-8.1,1.8l-8.1,2.2l-8.1,2.3l-8.1,2l-8.1,2.2l-8.1,2.1l-8.1,2.1l-8.1,2.2l-8.1,2l-8.1,2l-8.1,1.8
			l-8.1,2l-8.1,2.1l-8.1,2.1l-8.1,2l-8.1,2.2l-8.1,2l-8.1,2l-8.1,2.1l-8.1,2.4l-8.1,2l-8.1,2.1l-8.1,2.2l-8.1,2.5l-8.1,2l-8.1,2.6
			l-8.1,2.1l-8.1,2.1l-8.1,2.3l-8.1,2.3l-8.1,2.3l-8.1,2.3l-8.1,2.2l-8.1,2.2l-8.1,2.4L446,353l-8.1,2l-8.1,2l-8.1,1.9l-8.1,2.1
			l-8.1,2l-8.1,2.1l-8.1,2.1l-8.1,1.8l-8.1,2l-8.1,1.8l-8.1,2.1l-8.1,1.9l-8.1,1.8l-8.1,1.9l-8.1,1.8l-8.1,2l-8.1,1.8l-8.1,1.6
			l-8.1,1.6l-8.1,1.9l-8.1,1.7l-8.1,1.8l-8.1,1.8l-8.1,1.5l-8.1,1.6l-8.1,1.6l-8.1,1.8l-8.1,2.1l-8.1,2l-8.1,2.6l-8.1,2.9l-8.1,2.6
			L179,419l-8.1,4.4l-8.1,4.2l-8.1,5.2l-8.1,5.7l-8.1,10.6L130.5,469.1z"/>
	</g>
</g>
<g id="PolyCollection_10">
	<g>
		<defs>
			<rect id="SVGID_19_" x="130.5" y="69.1" width="809.1" height="443.5"/>
		</defs>
		<clipPath id="SVGID_20_">
			<use xlink:href="#SVGID_19_"  style="overflow:visible;"/>
		</clipPath>
		<path class="st10" d="M130.5,441.3v27.8l8.1-20l8.1-10.6l8.1-5.7l8.1-5.2l8.1-4.2l8.1-4.4l8.1-3.5l8.1-2.6l8.1-2.9l8.1-2.6l8.1-2
			l8.1-2.1l8.1-1.8l8.1-1.6l8.1-1.6l8.1-1.5l8.1-1.8l8.1-1.8l8.1-1.7l8.1-1.9l8.1-1.6l8.1-1.6l8.1-1.8l8.1-2l8.1-1.8l8.1-1.9
			l8.1-1.8l8.1-1.9l8.1-2.1l8.1-1.8l8.1-2l8.1-1.8l8.1-2.1l8.1-2.1l8.1-2l8.1-2.1l8.1-1.9l8.1-2l8.1-2l8.1-2.2l8.1-2.4l8.1-2.2
			l8.1-2.2l8.1-2.3l8.1-2.3l8.1-2.3l8.1-2.3l8.1-2.1l8.1-2.1l8.1-2.6l8.1-2l8.1-2.5l8.1-2.2l8.1-2.1l8.1-2l8.1-2.4l8.1-2.1l8.1-2
			l8.1-2l8.1-2.2l8.1-2l8.1-2.1l8.1-2.1l8.1-2l8.1-1.8l8.1-2l8.1-2l8.1-2.2l8.1-2.1l8.1-2.1l8.1-2.2l8.1-2l8.1-2.3l8.1-2.2l8.1-1.8
			l8.1-2l8.1-1.7l8.1-2l8.1-1.9l8.1-1.9l8.1-2l8.1-1.9l8.1-2.1l8.1-2.2l8.1-2l8.1-1.8l8.1-1.7l8.1-1.7l8.1-1.7l8.1-1.7l8.1-1.4
			l8.1-1.4l8.1-1.5l8.1-1.1l8.1-0.4l8.1,0.2l8.1,1.3l8.1,3.6l8.1,8v-7.5l0,0l-8.1-9.2l-8.1-4.2l-8.1-1.8l-8.1-0.5l-8.1,0.1l-8.1,0.9
			l-8.1,1.2l-8.1,1l-8.1,1l-8.1,1.3l-8.1,1.3l-8.1,1.3l-8.1,1.3l-8.1,1.4l-8.1,1.6l-8.1,1.7l-8.1,1.7l-8.1,1.5l-8.1,1.5l-8.1,1.4
			l-8.1,1.4l-8.1,1.4l-8.1,1.2l-8.1,1.5l-8.1,1.4l-8.1,1.5l-8.1,1.7l-8.1,1.5l-8.1,1.6l-8.1,1.6l-8.1,1.7l-8.1,1.7l-8.1,1.5
			l-8.1,1.4l-8.1,1.3l-8.1,1.4l-8.1,1.5l-8.1,1.5l-8.1,1.3l-8.1,1.5l-8.1,1.5l-8.1,1.5l-8.1,1.4l-8.1,1.8l-8.1,1.4l-8.1,1.3
			l-8.1,1.5l-8.1,1.7l-8.1,1.6l-8.1,1.7l-8.1,1.3l-8.1,1.3l-8.1,1.5l-8.1,1.4l-8.1,1.4l-8.1,1.3l-8.1,1.4l-8.1,1.4l-8.1,1.5
			l-8.1,1.3l-8.1,1.1l-8.1,1.2l-8.1,1l-8.1,1l-8.1,1.1l-8.1,1l-8.1,0.9l-8.1,0.5l-8.1,1l-8.1,0.8l-8.1,1.3l-8.1,1.1l-8.1,0.8
			l-8.1,0.9l-8.1,0.8l-8.1,1.1l-8.1,0.7l-8.1,0.7l-8.1,0.9l-8.1,1.2l-8.1,1l-8.1,1l-8.1,1.2l-8.1,1.3l-8.1,1.5l-8.1,1.7l-8.1,1.7
			l-8.1,2.2l-8.1,2.4l-8.1,3.6l-8.1,3.8l-8.1,4l-8.1,4.8l-8.1,6l-8.1,5.5l-8.1,7l-8.1,10.2l-8.1,17.5L130.5,441.3z"/>
	</g>
</g>
<g id="PolyCollection_11">
	<g>
		<defs>
			<rect id="SVGID_21_" x="130.5" y="69.1" width="809.1" height="443.5"/>
		</defs>
		<clipPath id="SVGID_22_">
			<use xlink:href="#SVGID_21_"  style="overflow:visible;"/>
		</clipPath>
		<path class="st11" d="M130.5,438.3v3l8.1-35.6l8.1-17.5l8.1-10.2l8.1-7l8.1-5.5l8.1-6l8.1-4.8l8.1-4l8.1-3.8l8.1-3.6l8.1-2.4
			l8.1-2.2l8.1-1.7l8.1-1.7l8.1-1.5l8.1-1.3l8.1-1.2l8.1-1l8.1-1l8.1-1.2l8.1-0.9l8.1-0.7l8.1-0.7l8.1-1.1l8.1-0.8l8.1-0.9l8.1-0.8
			l8.1-1.1l8.1-1.3l8.1-0.8l8.1-1l8.1-0.5l8.1-0.9l8.1-1l8.1-1.1l8.1-1l8.1-1l8.1-1.2l8.1-1.1l8.1-1.3l8.1-1.5l8.1-1.4l8.1-1.4
			l8.1-1.3l8.1-1.4l8.1-1.4l8.1-1.5l8.1-1.3l8.1-1.3l8.1-1.7l8.1-1.6l8.1-1.7l8.1-1.5l8.1-1.3l8.1-1.4l8.1-1.8l8.1-1.4l8.1-1.5
			l8.1-1.5l8.1-1.5l8.1-1.3l8.1-1.5l8.1-1.5l8.1-1.4l8.1-1.3l8.1-1.4l8.1-1.5l8.1-1.7l8.1-1.7l8.1-1.6l8.1-1.6l8.1-1.5l8.1-1.7
			l8.1-1.5l8.1-1.4l8.1-1.5l8.1-1.2l8.1-1.4l8.1-1.4l8.1-1.4l8.1-1.5l8.1-1.5l8.1-1.7l8.1-1.7l8.1-1.6l8.1-1.4l8.1-1.3l8.1-1.3
			l8.1-1.3l8.1-1.3l8.1-1l8.1-1l8.1-1.2l8.1-0.9l8.1-0.1l8.1,0.5l8.1,1.8l8.1,4.2l8.1,9.2v-4.5l0,0l-8.1-9.4l-8.1-4.3l-8.1-1.8
			l-8.1-0.6l-8.1,0.1l-8.1,0.9l-8.1,1.1l-8.1,0.9l-8.1,0.9l-8.1,1.3l-8.1,1.3l-8.1,1.3l-8.1,1.3l-8.1,1.4l-8.1,1.7l-8.1,1.8
			l-8.1,1.7l-8.1,1.5l-8.1,1.5l-8.1,1.3l-8.1,1.4l-8.1,1.5l-8.1,1.2l-8.1,1.5l-8.1,1.3l-8.1,1.5l-8.1,1.8l-8.1,1.5l-8.1,1.6
			l-8.1,1.6l-8.1,1.6l-8.1,1.7l-8.1,1.5l-8.1,1.4l-8.1,1.3l-8.1,1.4l-8.1,1.5l-8.1,1.5L616,275l-8.1,1.5l-8.1,1.5l-8.1,1.5l-8.1,1.5
			l-8.1,1.8l-8.1,1.4l-8.1,1.3l-8.1,1.5l-8.1,1.7l-8.1,1.6l-8.1,1.7l-8.1,1.3l-8.1,1.4l-8.1,1.5l-8.1,1.4l-8.1,1.5l-8.1,1.4
			l-8.1,1.4l-8.1,1.4l-8.1,1.5l-8.1,1.3l-8.1,1.2l-8.1,1.2l-8.1,1l-8.1,1.1l-8.1,1.2l-8.1,1l-8.1,0.9l-8.1,0.6l-8.1,1l-8.1,0.8
			l-8.1,1.3l-8.1,1.2l-8.1,0.9l-8.1,0.9l-8.1,0.8l-8.1,1.1l-8.1,0.8l-8.1,0.7l-8.1,1l-8.1,1.2l-8.1,1l-8.1,1L260,329l-8.1,1.3
			l-8.1,1.4l-8.1,1.7l-8.1,1.8l-8.1,2.2l-8.1,2.4l-8.1,3.6l-8.1,3.9l-8.1,4L179,356l-8.1,5.8l-8.1,5.4l-8.1,7l-8.1,10.3l-8.1,17.9
			L130.5,438.3z"/>
	</g>
</g>
<g id="PolyCollection_12">
	<g>
		<defs>
			<rect id="SVGID_23_" x="130.5" y="69.1" width="809.1" height="443.5"/>
		</defs>
		<clipPath id="SVGID_24_">
			<use xlink:href="#SVGID_23_"  style="overflow:visible;"/>
		</clipPath>
		<path class="st12" d="M130.5,424.9v13.4l8.1-35.9l8.1-17.9l8.1-10.3l8.1-7l8.1-5.4l8.1-5.8l8.1-4.6l8.1-4l8.1-3.9l8.1-3.6l8.1-2.4
			l8.1-2.2l8.1-1.8l8.1-1.7l8.1-1.4l8.1-1.3l8.1-1.2l8.1-1l8.1-1l8.1-1.2l8.1-1l8.1-0.7l8.1-0.8l8.1-1.1l8.1-0.8l8.1-0.9l8.1-0.9
			l8.1-1.2l8.1-1.3l8.1-0.8l8.1-1l8.1-0.6l8.1-0.9l8.1-1l8.1-1.2l8.1-1.1l8.1-1l8.1-1.2l8.1-1.2l8.1-1.3l8.1-1.5l8.1-1.4l8.1-1.4
			l8.1-1.4l8.1-1.5l8.1-1.4l8.1-1.5l8.1-1.4l8.1-1.3l8.1-1.7l8.1-1.6l8.1-1.7l8.1-1.5l8.1-1.3l8.1-1.4l8.1-1.8l8.1-1.5l8.1-1.5
			l8.1-1.5l8.1-1.5l8.1-1.3l8.1-1.5l8.1-1.5l8.1-1.4l8.1-1.3l8.1-1.4l8.1-1.5l8.1-1.7l8.1-1.6l8.1-1.6l8.1-1.6l8.1-1.5l8.1-1.8
			l8.1-1.5l8.1-1.3l8.1-1.5l8.1-1.2l8.1-1.5l8.1-1.4l8.1-1.3l8.1-1.5l8.1-1.5l8.1-1.7l8.1-1.8l8.1-1.7l8.1-1.4l8.1-1.3l8.1-1.3
			l8.1-1.3l8.1-1.3l8.1-0.9l8.1-0.9l8.1-1.1l8.1-0.9l8.1-0.1l8.1,0.6l8.1,1.8l8.1,4.3l8.1,9.4v-12.7l0,0l-8.1-10.6l-8.1-5.8
			l-8.1-2.7l-8.1-1.5l-8.1-0.4l-8.1,0.4l-8.1,0.7l-8.1,0.5l-8.1,0.4l-8.1,0.8l-8.1,0.9l-8.1,0.8l-8.1,0.8l-8.1,1.1l-8.1,1.5
			l-8.1,1.6l-8.1,1.4l-8.1,1.2l-8.1,1.2l-8.1,1.2l-8.1,1.1l-8.1,1.1l-8.1,0.9l-8.1,1.2l-8.1,1.1l-8.1,1.2l-8.1,1.4l-8.1,1.2
			l-8.1,1.3l-8.1,1.1l-8.1,1.3l-8.1,1.4l-8.1,1.2l-8.1,1.1l-8.1,0.9l-8.1,1.1l-8.1,1.3l-8.1,1.3l-8.1,1l-8.1,1.3l-8.1,1.3l-8.1,1.3
			l-8.1,1.2l-8.1,1.4l-8.1,1.2l-8.1,1l-8.1,1.3l-8.1,1.5l-8.1,1.4L527,260l-8.1,0.8l-8.1,1l-8.1,1.2l-8.1,1l-8.1,1.1l-8.1,1
			l-8.1,1.1l-8.1,1.2l-8.1,1.4L446,271l-8.1,0.9l-8.1,0.9l-8.1,0.8l-8.1,0.9l-8.1,1l-8.1,0.8l-8.1,0.7l-8.1,0.6l-8.1,0.8l-8.1,0.7
			l-8.1,1.1l-8.1,1.1l-8.1,1l-8.1,0.7l-8.1,1l-8.1,1.1l-8.1,0.7l-8.1,1l-8.1,1.1l-8.1,1.4l-8.1,1.3L268,292l-8.1,1.7l-8.1,1.4
			l-8.1,1.6l-8.1,1.9l-8.1,2l-8.1,2.8l-8.1,3l-8.1,3.9l-8.1,4.4l-8.1,4.4l-8.1,5.3l-8.1,6.7l-8.1,6.3l-8.1,9.7l-8.1,13.5l-8.1,21.7
			L130.5,424.9z"/>
	</g>
</g>
<g id="PolyCollection_13">
	<g>
		<defs>
			<rect id="SVGID_25_" x="130.5" y="69.1" width="809.1" height="443.5"/>
		</defs>
		<clipPath id="SVGID_26_">
			<use xlink:href="#SVGID_25_"  style="overflow:visible;"/>
		</clipPath>
		<path class="st13" d="M130.5,420.9v4l8.1-42.6l8.1-21.7l8.1-13.5l8.1-9.7l8.1-6.3l8.1-6.7l8.1-5.3l8.1-4.4l8.1-4.4l8.1-3.9l8.1-3
			l8.1-2.8l8.1-2l8.1-1.9l8.1-1.6l8.1-1.4l8.1-1.7l8.1-1.3l8.1-1.3l8.1-1.4l8.1-1.1l8.1-1l8.1-0.7l8.1-1.1l8.1-1l8.1-0.7l8.1-1
			l8.1-1.1l8.1-1.1l8.1-0.7l8.1-0.8l8.1-0.6l8.1-0.7l8.1-0.8l8.1-1l8.1-0.9l8.1-0.8l8.1-0.9l8.1-0.9l8.1-1.2l8.1-1.4l8.1-1.2
			l8.1-1.1l8.1-1l8.1-1.1l8.1-1l8.1-1.2l8.1-1l8.1-0.8l8.1-1.4l8.1-1.4l8.1-1.5l8.1-1.3l8.1-1l8.1-1.2l8.1-1.4l8.1-1.2l8.1-1.3
			l8.1-1.3l8.1-1.3l8.1-1l8.1-1.3l8.1-1.3l8.1-1.1l8.1-0.9l8.1-1.1l8.1-1.2l8.1-1.4l8.1-1.3l8.1-1.1l8.1-1.3l8.1-1.2l8.1-1.4
			l8.1-1.2l8.1-1.1l8.1-1.2l8.1-0.9l8.1-1.1l8.1-1.1l8.1-1.2l8.1-1.2l8.1-1.2l8.1-1.4l8.1-1.6l8.1-1.5l8.1-1.1l8.1-0.8l8.1-0.8
			l8.1-0.9l8.1-0.8l8.1-0.4l8.1-0.5l8.1-0.7l8.1-0.4l8.1,0.4l8.1,1.5l8.1,2.7l8.1,5.8l8.1,10.6v-11.2l0,0l-8.1-11.4l-8.1-6.4
			l-8.1-2.8l-8.1-1.8l-8.1-0.5l-8.1,0l-8.1,0.3l-8.1,0.1l-8.1,0.2l-8.1,0.7l-8.1,0.6l-8.1,0.6l-8.1,0.6l-8.1,0.8l-8.1,1.3l-8.1,1.4
			l-8.1,1.2l-8.1,1.1l-8.1,1l-8.1,1l-8.1,0.9l-8.1,1l-8.1,0.8l-8.1,1.1l-8.1,1l-8.1,1l-8.1,1.3L705,215l-8.1,1.1l-8.1,1l-8.1,1.3
			l-8.1,1.4l-8.1,1.1l-8.1,1.1l-8.1,0.9l-8.1,1l-8.1,1.2l-8.1,1.1l-8.1,0.9l-8.1,1.2l-8.1,1.2l-8.1,1.3l-8.1,1.1l-8.1,1.3l-8.1,1.2
			l-8.1,0.8l-8.1,1.2l-8.1,1.4l-8.1,1.5l-8.1,1.3l-8.1,0.8l-8.1,1l-8.1,1.3l-8.1,0.9l-8.1,1.1l-8.1,1.1l-8.1,1l-8.1,1.2l-8.1,1.5
			L446,252l-8.1,0.9l-8.1,1l-8.1,0.8l-8.1,0.8l-8.1,1l-8.1,0.9l-8.1,0.8l-8.1,0.6l-8.1,0.9l-8.1,0.7l-8.1,1.3L349,263l-8.1,1.1
			l-8.1,0.6l-8.1,1l-8.1,1.2l-8.1,0.6l-8.1,1.2l-8.1,1.3l-8.1,1.6l-8.1,1.4l-8.1,1.5l-8.1,2l-8.1,1.7l-8.1,1.9l-8.1,2.3l-8.1,2.4
			l-8.1,3.3l-8.1,3.3l-8.1,4.3l-8.1,4.8l-8.1,4.9l-8.1,5.9l-8.1,7.2l-8.1,7l-8.1,10.6l-8.1,14.5l-8.1,24.5L130.5,420.9z"/>
	</g>
</g>
<g id="PolyCollection_14">
	<g>
		<defs>
			<rect id="SVGID_27_" x="130.5" y="69.1" width="809.1" height="443.5"/>
		</defs>
		<clipPath id="SVGID_28_">
			<use xlink:href="#SVGID_27_"  style="overflow:visible;"/>
		</clipPath>
		<path class="st14" d="M130.5,404.9v16l8.1-45.9l8.1-24.5l8.1-14.5l8.1-10.6l8.1-7l8.1-7.2l8.1-5.9l8.1-4.9l8.1-4.8l8.1-4.3
			l8.1-3.3l8.1-3.3l8.1-2.4l8.1-2.3l8.1-1.9l8.1-1.7l8.1-2l8.1-1.5l8.1-1.4l8.1-1.6l8.1-1.3l8.1-1.2l8.1-0.6l8.1-1.2l8.1-1l8.1-0.6
			l8.1-1.1l8.1-1.2l8.1-1.3l8.1-0.7l8.1-0.9l8.1-0.6l8.1-0.8l8.1-0.9l8.1-1l8.1-0.8l8.1-0.8l8.1-1l8.1-0.9l8.1-1.2l8.1-1.5l8.1-1.2
			l8.1-1l8.1-1.1l8.1-1.1l8.1-0.9l8.1-1.3l8.1-1l8.1-0.8l8.1-1.3l8.1-1.5l8.1-1.4l8.1-1.2l8.1-0.8l8.1-1.2l8.1-1.3l8.1-1.1l8.1-1.3
			l8.1-1.2l8.1-1.2l8.1-0.9l8.1-1.1l8.1-1.2l8.1-1l8.1-0.9l8.1-1.1l8.1-1.1l8.1-1.4l8.1-1.3l8.1-1l8.1-1.1l8.1-1.1l8.1-1.3l8.1-1
			l8.1-1l8.1-1.1l8.1-0.8l8.1-1l8.1-0.9l8.1-1l8.1-1l8.1-1.1l8.1-1.2l8.1-1.4l8.1-1.3l8.1-0.8l8.1-0.6l8.1-0.6l8.1-0.6l8.1-0.7
			l8.1-0.2l8.1-0.1l8.1-0.3l8.1,0l8.1,0.5l8.1,1.8l8.1,2.8l8.1,6.4l8.1,11.4v-6.3l0,0l-8.1-12.1l-8.1-6.7l-8.1-3.1l-8.1-2.1
			l-8.1-0.7l-8.1-0.3l-8.1,0.1l-8.1,0l-8.1,0l-8.1,0.4l-8.1,0.5l-8.1,0.4l-8.1,0.4l-8.1,0.7l-8.1,1.2l-8.1,1.2l-8.1,1l-8.1,1.1
			l-8.1,1l-8.1,0.9l-8.1,0.8l-8.1,0.9l-8.1,0.8l-8.1,1l-8.1,0.9l-8.1,1l-8.1,1.2l-8.1,1l-8.1,1.1l-8.1,1.1l-8.1,1.4l-8.1,1.4
			l-8.1,1.1l-8.1,1.1l-8.1,0.9l-8.1,1.1l-8.1,1.2l-8.1,1.1l-8.1,0.9l-8.1,1.2l-8.1,1.2l-8.1,1.3l-8.1,1.1l-8.1,1.3l-8.1,1.3
			l-8.1,0.9l-8.1,1.1l-8.1,1.4l-8.1,1.5l-8.1,1.4l-8.1,0.8l-8.1,1l-8.1,1.3l-8.1,0.9l-8.1,1.1l-8.1,1.2l-8.1,1l-8.1,1.2l-8.1,1.6
			l-8.1,1.2l-8.1,0.9l-8.1,1l-8.1,0.8l-8.1,0.8l-8.1,1l-8.1,0.9l-8.1,0.8l-8.1,0.5l-8.1,0.8l-8.1,0.7l-8.1,1.1l-8.1,1l-8.1,1
			l-8.1,0.5l-8.1,0.8l-8.1,1l-8.1,0.5l-8.1,1l-8.1,1l-8.1,1.2l-8.1,1.1l-8.1,1l-8.1,1.6l-8.1,1.2l-8.1,1.5l-8.1,1.6l-8.1,1.6
			l-8.1,2.6l-8.1,2.5l-8.1,3.5l-8.1,4l-8.1,3.8L179,290l-8.1,6.5l-8.1,6.2l-8.1,9.4l-8.1,13.8l-8.1,25.3L130.5,404.9z"/>
	</g>
</g>
<g id="PolyCollection_15">
	<g>
		<defs>
			<rect id="SVGID_29_" x="130.5" y="69.1" width="809.1" height="443.5"/>
		</defs>
		<clipPath id="SVGID_30_">
			<use xlink:href="#SVGID_29_"  style="overflow:visible;"/>
		</clipPath>
		<path class="st15" d="M130.5,217v187.9l8.1-53.8l8.1-25.3l8.1-13.8l8.1-9.4l8.1-6.2l8.1-6.5l8.1-4.8l8.1-3.8l8.1-4l8.1-3.5
			l8.1-2.5l8.1-2.6l8.1-1.6l8.1-1.6l8.1-1.5l8.1-1.2l8.1-1.6l8.1-1l8.1-1.1l8.1-1.2l8.1-1l8.1-1l8.1-0.5l8.1-1l8.1-0.8l8.1-0.5
			l8.1-1l8.1-1l8.1-1.1l8.1-0.7l8.1-0.8l8.1-0.5l8.1-0.8l8.1-0.9l8.1-1l8.1-0.8l8.1-0.8l8.1-1l8.1-0.9l8.1-1.2l8.1-1.6l8.1-1.2
			l8.1-1l8.1-1.2l8.1-1.1l8.1-0.9l8.1-1.3l8.1-1l8.1-0.8l8.1-1.4l8.1-1.5l8.1-1.4l8.1-1.1l8.1-0.9l8.1-1.3l8.1-1.3l8.1-1.1l8.1-1.3
			l8.1-1.2l8.1-1.2l8.1-0.9l8.1-1.1l8.1-1.2l8.1-1.1l8.1-0.9l8.1-1.1l8.1-1.1l8.1-1.4l8.1-1.4l8.1-1.1l8.1-1.1l8.1-1l8.1-1.2l8.1-1
			l8.1-0.9l8.1-1l8.1-0.8l8.1-0.9l8.1-0.8l8.1-0.9l8.1-1l8.1-1.1l8.1-1l8.1-1.2l8.1-1.2l8.1-0.7l8.1-0.4l8.1-0.4l8.1-0.5l8.1-0.4
			l8.1,0l8.1,0l8.1-0.1l8.1,0.3l8.1,0.7l8.1,2.1l8.1,3.1l8.1,6.7l8.1,12.1l0,0l0,0l-8.1-12.1l-8.1-6.7l-8.1-3.1l-8.1-2.1l-8.1-0.7
			l-8.1-0.3l-8.1,0.1l-8.1,0l-8.1,0l-8.1,0.4l-8.1,0.5l-8.1,0.4l-8.1,0.4l-8.1,0.7l-8.1,1.2l-8.1,1.2l-8.1,1l-8.1,1.1l-8.1,1
			l-8.1,0.9l-8.1,0.8l-8.1,0.9l-8.1,0.8l-8.1,1l-8.1,0.9l-8.1,1l-8.1,1.2l-8.1,1l-8.1,1.1l-8.1,1.1l-8.1,1.4l-8.1,1.4l-8.1,1.1
			l-8.1,1.1l-8.1,0.9l-8.1,1.1l-8.1,1.2l-8.1,1.1l-8.1,0.9l-8.1,0.5h-8.1h-8.1h-8.1h-8.1h-8.1h-8.1h-8.1h-8.1H535H527h-8.1h-8.1
			h-8.1h-8.1h-8.1h-8.1h-8.1h-8.1h-8.1H446H438h-8.1h-8.1h-8.1h-8.1h-8.1h-8.1h-8.1h-8.1h-8.1H357H349h-8.1h-8.1h-8.1h-8.1h-8.1
			h-8.1h-8.1h-8.1h-8.1H268H260h-8.1h-8.1h-8.1h-8.1h-8.1h-8.1h-8.1h-8.1h-8.1H179H171h-8.1h-8.1h-8.1h-8.1H130.5z"/>
	</g>
</g>
<g id="matplotlib.axis_1">
	<g id="xtick_1">
		<g id="line2d_1">
			<g>
				<g>
					<path id="m1db30643a1" class="st16" d="M130.5,512.6v3.5"/>
				</g>
			</g>
		</g>
		<g id="text_1">
			<g transform="translate(127.31875 527.238438)scale(0.1 -0.1)">
				<g>
					<path id="DejaVuSans-48" d="M31.8,66.4c-5.1,0-8.9-2.5-11.5-7.5c-2.6-5-3.8-12.5-3.8-22.5c0-10,1.3-17.5,3.8-22.5
						c2.6-5,6.4-7.5,11.5-7.5c5.1,0,8.9,2.5,11.5,7.5c2.6,5,3.8,12.5,3.8,22.5c0,10-1.3,17.5-3.8,22.5
						C40.7,63.9,36.9,66.4,31.8,66.4z M31.8,74.2c8.2,0,14.4-3.2,18.7-9.7c4.3-6.5,6.5-15.8,6.5-28.1c0-12.3-2.2-21.6-6.5-28.1
						C46.2,1.8,40-1.4,31.8-1.4c-8.2,0-14.4,3.2-18.7,9.7c-4.3,6.5-6.5,15.8-6.5,28.1c0,12.3,2.2,21.7,6.5,28.1
						C17.4,71,23.6,74.2,31.8,74.2z"/>
				</g>
			</g>
		</g>
	</g>
	<g id="xtick_2">
		<g id="line2d_2">
			<g>
				<g>
					<path id="m1db30643a1_1_" class="st16" d="M292.3,512.6v3.5"/>
				</g>
			</g>
		</g>
		<g id="text_2">
			<g transform="translate(285.9575 527.238438)scale(0.1 -0.1)">
				<g>
					<path id="DejaVuSans-50" d="M19.2,8.3h34.4V0H7.3v8.3c3.7,3.9,8.8,9.1,15.3,15.6c6.5,6.5,10.5,10.7,12.2,12.6
						c3.2,3.5,5.4,6.5,6.6,9c1.3,2.5,1.9,4.9,1.9,7.3c0,3.9-1.4,7-4.1,9.5c-2.7,2.4-6.3,3.7-10.6,3.7c-3.1,0-6.4-0.5-9.8-1.6
						c-3.4-1.1-7.1-2.7-11-4.9v10c4,1.6,7.7,2.8,11.1,3.6c3.5,0.8,6.6,1.2,9.5,1.2c7.6,0,13.6-1.9,18.1-5.7
						c4.5-3.8,6.7-8.8,6.7-15.1c0-3-0.6-5.8-1.7-8.5c-1.1-2.7-3.2-5.8-6.1-9.5c-0.8-0.9-3.4-3.7-7.8-8.2
						C33.3,22.7,27.1,16.4,19.2,8.3z"/>
				</g>
				<g>
					<path id="DejaVuSans-48_1_" d="M95.4,66.4c-5.1,0-8.9-2.5-11.5-7.5c-2.6-5-3.8-12.5-3.8-22.5c0-10,1.3-17.5,3.8-22.5
						c2.6-5,6.4-7.5,11.5-7.5c5.1,0,8.9,2.5,11.5,7.5c2.6,5,3.8,12.5,3.8,22.5c0,10-1.3,17.5-3.8,22.5
						C104.4,63.9,100.5,66.4,95.4,66.4z M95.4,74.2c8.2,0,14.4-3.2,18.7-9.7c4.3-6.5,6.5-15.8,6.5-28.1c0-12.3-2.2-21.6-6.5-28.1
						c-4.3-6.5-10.6-9.7-18.7-9.7c-8.2,0-14.4,3.2-18.7,9.7c-4.3,6.5-6.5,15.8-6.5,28.1c0,12.3,2.2,21.7,6.5,28.1
						C81,71,87.2,74.2,95.4,74.2z"/>
				</g>
			</g>
		</g>
	</g>
	<g id="xtick_3">
		<g id="line2d_3">
			<g>
				<g>
					<path id="m1db30643a1_2_" class="st16" d="M454.1,512.6v3.5"/>
				</g>
			</g>
		</g>
		<g id="text_3">
			<g transform="translate(447.7775 527.238438)scale(0.1 -0.1)">
				<g>
					<path id="DejaVuSans-52" d="M37.8,64.3L12.9,25.4h24.9V64.3z M35.2,72.9h12.4V25.4H58v-8.2H47.6V0h-9.8v17.2H4.9v9.5L35.2,72.9
						z"/>
				</g>
				<g>
					<path id="DejaVuSans-48_2_" d="M95.4,66.4c-5.1,0-8.9-2.5-11.5-7.5c-2.6-5-3.8-12.5-3.8-22.5c0-10,1.3-17.5,3.8-22.5
						c2.6-5,6.4-7.5,11.5-7.5c5.1,0,8.9,2.5,11.5,7.5c2.6,5,3.8,12.5,3.8,22.5c0,10-1.3,17.5-3.8,22.5
						C104.4,63.9,100.5,66.4,95.4,66.4z M95.4,74.2c8.2,0,14.4-3.2,18.7-9.7c4.3-6.5,6.5-15.8,6.5-28.1c0-12.3-2.2-21.6-6.5-28.1
						c-4.3-6.5-10.6-9.7-18.7-9.7c-8.2,0-14.4,3.2-18.7,9.7c-4.3,6.5-6.5,15.8-6.5,28.1c0,12.3,2.2,21.7,6.5,28.1
						C81,71,87.2,74.2,95.4,74.2z"/>
				</g>
			</g>
		</g>
	</g>
	<g id="xtick_4">
		<g id="line2d_4">
			<g>
				<g>
					<path id="m1db30643a1_3_" class="st16" d="M616,512.6v3.5"/>
				</g>
			</g>
		</g>
		<g id="text_4">
			<g transform="translate(609.5975 527.238438)scale(0.1 -0.1)">
				<g>
					<path id="DejaVuSans-54" d="M33,40.4c-4.4,0-7.9-1.5-10.5-4.5c-2.6-3-3.9-7.2-3.9-12.4c0-5.2,1.3-9.4,3.9-12.4
						c2.6-3,6.1-4.6,10.5-4.6s7.9,1.5,10.5,4.6c2.6,3.1,3.9,7.2,3.9,12.4c0,5.3-1.3,9.4-3.9,12.4C40.9,38.9,37.4,40.4,33,40.4z
						 M52.6,71.3v-9c-2.5,1.2-5,2.1-7.5,2.7c-2.5,0.6-5,0.9-7.5,0.9c-6.5,0-11.5-2.2-14.9-6.6c-3.4-4.4-5.4-11-5.9-19.9
						c1.9,2.8,4.3,5,7.2,6.5c2.9,1.5,6.1,2.3,9.6,2.3c7.3,0,13.1-2.2,17.4-6.7c4.3-4.4,6.4-10.5,6.4-18.1c0-7.5-2.2-13.5-6.6-18
						C46.3,0.8,40.4-1.4,33-1.4c-8.4,0-14.9,3.2-19.3,9.7C9.2,14.7,7,24.1,7,36.4c0,11.5,2.7,20.7,8.2,27.6s12.8,10.3,22,10.3
						c2.5,0,5-0.2,7.5-0.7S49.9,72.3,52.6,71.3z"/>
				</g>
				<g>
					<path id="DejaVuSans-48_3_" d="M95.4,66.4c-5.1,0-8.9-2.5-11.5-7.5c-2.6-5-3.8-12.5-3.8-22.5c0-10,1.3-17.5,3.8-22.5
						c2.6-5,6.4-7.5,11.5-7.5c5.1,0,8.9,2.5,11.5,7.5c2.6,5,3.8,12.5,3.8,22.5c0,10-1.3,17.5-3.8,22.5
						C104.4,63.9,100.5,66.4,95.4,66.4z M95.4,74.2c8.2,0,14.4-3.2,18.7-9.7c4.3-6.5,6.5-15.8,6.5-28.1c0-12.3-2.2-21.6-6.5-28.1
						c-4.3-6.5-10.6-9.7-18.7-9.7c-8.2,0-14.4,3.2-18.7,9.7c-4.3,6.5-6.5,15.8-6.5,28.1c0,12.3,2.2,21.7,6.5,28.1
						C81,71,87.2,74.2,95.4,74.2z"/>
				</g>
			</g>
		</g>
	</g>
	<g id="xtick_5">
		<g id="line2d_5">
			<g>
				<g>
					<path id="m1db30643a1_4_" class="st16" d="M777.8,512.6v3.5"/>
				</g>
			</g>
		</g>
		<g id="text_5">
			<g transform="translate(771.4175 527.238438)scale(0.1 -0.1)">
				<g>
					<path id="DejaVuSans-56" d="M31.8,34.6c-4.7,0-8.4-1.3-11.1-3.8c-2.7-2.5-4-6-4-10.3c0-4.4,1.3-7.8,4-10.4
						c2.7-2.5,6.4-3.8,11.1-3.8s8.4,1.3,11.1,3.8c2.7,2.5,4.1,6,4.1,10.3c0,4.4-1.3,7.8-4,10.3C40.2,33.4,36.5,34.6,31.8,34.6z
						 M21.9,38.8c-4.2,1-7.5,3-9.9,5.9c-2.4,2.9-3.5,6.4-3.5,10.6c0,5.8,2.1,10.4,6.2,13.8c4.2,3.4,9.8,5.1,17.1,5.1
						c7.3,0,13-1.7,17.1-5.1s6.2-8,6.2-13.8c0-4.2-1.2-7.7-3.5-10.6c-2.4-2.9-5.6-4.9-9.8-5.9c4.8-1.1,8.4-3.3,11.1-6.5
						c2.7-3.2,4-7.2,4-11.8c0-7.1-2.2-12.5-6.5-16.3C46,0.5,39.8-1.4,31.8-1.4c-8,0-14.2,1.9-18.5,5.7C8.9,8,6.8,13.4,6.8,20.5
						c0,4.6,1.3,8.6,4,11.8C13.5,35.5,17.2,37.7,21.9,38.8z M18.3,54.4c0-3.8,1.2-6.7,3.5-8.8c2.4-2.1,5.7-3.2,9.9-3.2
						c4.2,0,7.6,1.1,9.9,3.2c2.4,2.1,3.6,5.1,3.6,8.8c0,3.8-1.2,6.7-3.6,8.8c-2.4,2.1-5.7,3.2-9.9,3.2c-4.3,0-7.6-1.1-9.9-3.2
						C19.5,61.1,18.3,58.2,18.3,54.4z"/>
				</g>
				<g>
					<path id="DejaVuSans-48_4_" d="M95.4,66.4c-5.1,0-8.9-2.5-11.5-7.5c-2.6-5-3.8-12.5-3.8-22.5c0-10,1.3-17.5,3.8-22.5
						c2.6-5,6.4-7.5,11.5-7.5c5.1,0,8.9,2.5,11.5,7.5c2.6,5,3.8,12.5,3.8,22.5c0,10-1.3,17.5-3.8,22.5
						C104.4,63.9,100.5,66.4,95.4,66.4z M95.4,74.2c8.2,0,14.4-3.2,18.7-9.7c4.3-6.5,6.5-15.8,6.5-28.1c0-12.3-2.2-21.6-6.5-28.1
						c-4.3-6.5-10.6-9.7-18.7-9.7c-8.2,0-14.4,3.2-18.7,9.7c-4.3,6.5-6.5,15.8-6.5,28.1c0,12.3,2.2,21.7,6.5,28.1
						C81,71,87.2,74.2,95.4,74.2z"/>
				</g>
			</g>
		</g>
	</g>
	<g id="xtick_6">
		<g id="line2d_6">
			<g>
				<g>
					<path id="m1db30643a1_5_" class="st16" d="M939.6,512.6v3.5"/>
				</g>
			</g>
		</g>
		<g id="text_6">
			<g transform="translate(930.05625 527.238438)scale(0.1 -0.1)">
				<g>
					<path id="DejaVuSans-49" d="M12.4,8.3h16.1v55.6L11,60.4v9l17.4,3.5h9.9V8.3h16.1V0h-42V8.3z"/>
				</g>
				<g>
					<path id="DejaVuSans-48_5_" d="M95.4,66.4c-5.1,0-8.9-2.5-11.5-7.5c-2.6-5-3.8-12.5-3.8-22.5c0-10,1.3-17.5,3.8-22.5
						c2.6-5,6.4-7.5,11.5-7.5c5.1,0,8.9,2.5,11.5,7.5c2.6,5,3.8,12.5,3.8,22.5c0,10-1.3,17.5-3.8,22.5
						C104.4,63.9,100.5,66.4,95.4,66.4z M95.4,74.2c8.2,0,14.4-3.2,18.7-9.7c4.3-6.5,6.5-15.8,6.5-28.1c0-12.3-2.2-21.6-6.5-28.1
						c-4.3-6.5-10.6-9.7-18.7-9.7c-8.2,0-14.4,3.2-18.7,9.7c-4.3,6.5-6.5,15.8-6.5,28.1c0,12.3,2.2,21.7,6.5,28.1
						C81,71,87.2,74.2,95.4,74.2z"/>
				</g>
				<g>
					<path id="DejaVuSans-48_6_" d="M159,66.4c-5.1,0-8.9-2.5-11.5-7.5c-2.6-5-3.8-12.5-3.8-22.5c0-10,1.3-17.5,3.8-22.5
						c2.6-5,6.4-7.5,11.5-7.5c5.1,0,8.9,2.5,11.5,7.5c2.6,5,3.8,12.5,3.8,22.5c0,10-1.3,17.5-3.8,22.5C168,63.9,164.1,66.4,159,66.4
						z M159,74.2c8.2,0,14.4-3.2,18.7-9.7c4.3-6.5,6.5-15.8,6.5-28.1c0-12.3-2.2-21.6-6.5-28.1c-4.3-6.5-10.6-9.7-18.7-9.7
						c-8.2,0-14.4,3.2-18.7,9.7c-4.3,6.5-6.5,15.8-6.5,28.1c0,12.3,2.2,21.7,6.5,28.1C144.6,71,150.9,74.2,159,74.2z"/>
				</g>
			</g>
		</g>
	</g>
	<g id="text_7">
		<g transform="translate(441.364687 542.43625)scale(0.12 -0.12)">
			<g>
				<path id="DejaVuSans-83" d="M53.5,70.5v-9.6c-3.7,1.8-7.3,3.1-10.6,4c-3.3,0.9-6.5,1.3-9.6,1.3c-5.4,0-9.5-1-12.4-3.1
					s-4.4-5-4.4-8.9c0-3.2,1-5.7,2.9-7.3c1.9-1.6,5.6-3,11-4l6-1.2c7.4-1.4,12.8-3.9,16.3-7.4s5.3-8.3,5.3-14.2
					c0-7.1-2.4-12.4-7.1-16.1C46.1,0.4,39.1-1.4,30-1.4c-3.4,0-7.1,0.4-11,1.2c-3.9,0.8-7.9,1.9-12.1,3.5v10.2
					c4-2.2,7.9-3.9,11.8-5.1c3.8-1.1,7.6-1.7,11.3-1.7c5.6,0,10,1.1,13,3.3c3.1,2.2,4.6,5.4,4.6,9.5c0,3.6-1.1,6.4-3.3,8.4
					s-5.8,3.5-10.8,4.5l-6,1.2c-7.4,1.5-12.7,3.8-16,6.9c-3.3,3.1-4.9,7.5-4.9,13c0,6.4,2.3,11.5,6.8,15.2s10.8,5.6,18.8,5.6
					c3.4,0,6.9-0.3,10.5-0.9C46.2,72.7,49.8,71.7,53.5,70.5z"/>
			</g>
			<g>
				<path id="DejaVuSans-104" d="M118.4,33V0h-9v32.7c0,5.2-1,9-3,11.6c-2,2.6-5,3.9-9.1,3.9c-4.9,0-8.7-1.5-11.5-4.6
					c-2.8-3.1-4.2-7.3-4.2-12.6V0h-9v76h9V46.2c2.2,3.3,4.7,5.8,7.6,7.4c2.9,1.6,6.3,2.4,10.1,2.4c6.3,0,11-1.9,14.3-5.8
					C116.8,46.3,118.4,40.6,118.4,33z"/>
			</g>
			<g>
				<path id="DejaVuSans-111" d="M157.5,48.4c-4.8,0-8.6-1.9-11.4-5.6c-2.8-3.8-4.2-8.9-4.2-15.5s1.4-11.7,4.2-15.5
					c2.8-3.8,6.6-5.6,11.5-5.6c4.8,0,8.6,1.9,11.4,5.7c2.8,3.8,4.2,8.9,4.2,15.4c0,6.5-1.4,11.6-4.2,15.4
					C166,46.5,162.3,48.4,157.5,48.4z M157.5,56c7.8,0,13.9-2.5,18.4-7.6c4.5-5.1,6.7-12.1,6.7-21.1c0-8.9-2.2-16-6.7-21.1
					c-4.5-5.1-10.6-7.6-18.4-7.6c-7.8,0-14,2.5-18.4,7.6c-4.4,5.1-6.7,12.1-6.7,21.1c0,9,2.2,16,6.7,21.1
					C143.5,53.5,149.6,56,157.5,56z"/>
			</g>
			<g>
				<path id="DejaVuSans-114" d="M229.1,46.3c-1,0.6-2.1,1-3.3,1.3c-1.2,0.3-2.5,0.4-3.9,0.4c-5.1,0-9-1.7-11.7-5s-4.1-8-4.1-14.2V0
					h-9v54.7h9v-8.5c1.9,3.3,4.4,5.8,7.4,7.4c3,1.6,6.7,2.4,11,2.4c0.6,0,1.3,0,2-0.1c0.8-0.1,1.6-0.2,2.5-0.4L229.1,46.3z"/>
			</g>
			<g>
				<path id="DejaVuSans-116" d="M247.5,70.2V54.7H266v-7h-18.5V18c0-4.5,0.6-7.3,1.8-8.6s3.7-1.9,7.5-1.9h9.2V0h-9.2
					c-6.9,0-11.7,1.3-14.4,3.9c-2.6,2.6-4,7.3-4,14.1v29.7h-6.6v7h6.6v15.5H247.5z"/>
			</g>
			<g>
				<path id="DejaVuSans-97" d="M302.6,27.5c-7.3,0-12.3-0.8-15.1-2.5c-2.8-1.7-4.2-4.5-4.2-8.5c0-3.2,1.1-5.7,3.2-7.6
					c2.1-1.9,5-2.8,8.6-2.8c5,0,9,1.8,12,5.3c3,3.5,4.5,8.2,4.5,14.1v2H302.6z M320.6,31.2V0h-9v8.3C309.5,5,307,2.5,303.9,1
					s-6.8-2.4-11.2-2.4c-5.6,0-10,1.6-13.4,4.7c-3.3,3.1-5,7.4-5,12.6c0,6.1,2.1,10.8,6.2,13.9c4.1,3.1,10.3,4.7,18.4,4.7h12.6v0.9
					c0,4.1-1.4,7.3-4.1,9.6s-6.5,3.4-11.5,3.4c-3.1,0-6.2-0.4-9.1-1.1c-3-0.8-5.8-1.9-8.5-3.4v8.3c3.3,1.3,6.5,2.2,9.6,2.8
					c3.1,0.6,6.1,1,9,1c7.9,0,13.8-2.1,17.7-6.2C318.6,45.7,320.6,39.5,320.6,31.2z"/>
			</g>
			<g>
				<path id="DejaVuSans-103" d="M375,28c0,6.5-1.3,11.6-4,15.1c-2.7,3.6-6.4,5.4-11.3,5.4c-4.8,0-8.6-1.8-11.3-5.4
					c-2.7-3.6-4-8.6-4-15.1c0-6.5,1.3-11.5,4-15.1s6.4-5.4,11.3-5.4c4.9,0,8.6,1.8,11.3,5.4C373.7,16.5,375,21.5,375,28z M384,6.8
					c0-9.3-2.1-16.2-6.2-20.8c-4.1-4.5-10.5-6.8-19-6.8c-3.2,0-6.1,0.2-8.9,0.7c-2.8,0.5-5.5,1.2-8.2,2.2v8.7
					c2.6-1.4,5.2-2.5,7.8-3.2c2.6-0.7,5.2-1,7.9-1c5.9,0,10.3,1.5,13.2,4.6C373.6-5.7,375-1,375,5.2v4.5c-1.9-3.2-4.2-5.6-7.1-7.2
					C365,0.8,361.6,0,357.5,0c-6.7,0-12.1,2.6-16.2,7.7c-4.1,5.1-6.2,11.9-6.2,20.3c0,8.5,2.1,15.2,6.2,20.3
					c4.1,5.1,9.5,7.7,16.2,7.7c4,0,7.5-0.8,10.4-2.4c2.9-1.6,5.3-4,7.1-7.2v8.3h9V6.8z"/>
			</g>
			<g>
				<path id="DejaVuSans-101" d="M449.3,29.6v-4.4H408c0.4-6.2,2.3-10.9,5.6-14.1c3.3-3.2,8-4.9,13.9-4.9c3.4,0,6.8,0.4,10,1.3
					c3.2,0.8,6.5,2.1,9.7,3.8V2.8c-3.2-1.4-6.5-2.4-9.9-3.1c-3.4-0.7-6.8-1.1-10.3-1.1c-8.7,0-15.6,2.5-20.7,7.6
					c-5.1,5.1-7.6,12-7.6,20.6c0,8.9,2.4,16,7.3,21.3c4.8,5.3,11.4,7.9,19.6,7.9c7.4,0,13.2-2.4,17.5-7.1
					C447.2,44.2,449.3,37.7,449.3,29.6z M440.3,32.2c-0.1,4.9-1.4,8.8-4.1,11.8c-2.7,2.9-6.2,4.4-10.7,4.4c-5,0-9-1.4-12-4.3
					c-3-2.8-4.7-6.8-5.2-12L440.3,32.2z"/>
			</g>
			<g>
				<path id="DejaVuSans-32" d="M454.6,0"/>
			</g>
			<g>
				<path id="DejaVuSans-109" d="M538.4,44.2c2.3,4,4.9,7,8.1,8.9s6.8,2.9,11,2.9c5.7,0,10.1-2,13.2-6c3.1-4,4.6-9.6,4.6-17V0h-9
					v32.7c0,5.2-0.9,9.1-2.8,11.7c-1.9,2.5-4.7,3.8-8.5,3.8c-4.7,0-8.3-1.5-11-4.6c-2.7-3.1-4-7.3-4-12.6V0h-9v32.7
					c0,5.3-0.9,9.2-2.8,11.7s-4.7,3.8-8.6,3.8c-4.6,0-8.2-1.6-11-4.7c-2.7-3.1-4-7.3-4-12.6V0h-9v54.7h9v-8.5
					c2.1,3.4,4.5,5.8,7.4,7.4c2.9,1.6,6.3,2.4,10.2,2.4c4,0,7.4-1,10.1-3C535,51,537.1,48,538.4,44.2z"/>
			</g>
			<g>
				<path id="DejaVuSans-97_1_" d="M618.1,27.5c-7.3,0-12.3-0.8-15.1-2.5c-2.8-1.7-4.2-4.5-4.2-8.5c0-3.2,1.1-5.7,3.2-7.6
					c2.1-1.9,5-2.8,8.6-2.8c5,0,9,1.8,12,5.3c3,3.5,4.5,8.2,4.5,14.1v2H618.1z M636,31.2V0h-9v8.3C625,5,622.4,2.5,619.4,1
					s-6.8-2.4-11.2-2.4c-5.6,0-10,1.6-13.4,4.7c-3.3,3.1-5,7.4-5,12.6c0,6.1,2.1,10.8,6.2,13.9c4.1,3.1,10.3,4.7,18.4,4.7h12.6v0.9
					c0,4.1-1.4,7.3-4.1,9.6s-6.5,3.4-11.5,3.4c-3.1,0-6.2-0.4-9.1-1.1c-3-0.8-5.8-1.9-8.5-3.4v8.3c3.3,1.3,6.5,2.2,9.6,2.8
					c3.1,0.6,6.1,1,9,1c7.9,0,13.8-2.1,17.7-6.2C634.1,45.7,636,39.5,636,31.2z"/>
			</g>
			<g>
				<path id="DejaVuSans-103_1_" d="M690.5,28c0,6.5-1.3,11.6-4,15.1c-2.7,3.6-6.4,5.4-11.3,5.4c-4.8,0-8.6-1.8-11.3-5.4
					c-2.7-3.6-4-8.6-4-15.1c0-6.5,1.3-11.5,4-15.1s6.4-5.4,11.3-5.4c4.9,0,8.6,1.8,11.3,5.4C689.2,16.5,690.5,21.5,690.5,28z
					 M699.5,6.8c0-9.3-2.1-16.2-6.2-20.8c-4.1-4.5-10.5-6.8-19-6.8c-3.2,0-6.1,0.2-8.9,0.7c-2.8,0.5-5.5,1.2-8.2,2.2v8.7
					c2.6-1.4,5.2-2.5,7.8-3.2c2.6-0.7,5.2-1,7.9-1c5.9,0,10.3,1.5,13.2,4.6c2.9,3.1,4.4,7.7,4.4,13.9v4.5c-1.9-3.2-4.2-5.6-7.1-7.2
					C680.5,0.8,677,0,673,0c-6.7,0-12.1,2.6-16.2,7.7c-4.1,5.1-6.2,11.9-6.2,20.3c0,8.5,2.1,15.2,6.2,20.3c4.1,5.1,9.5,7.7,16.2,7.7
					c4,0,7.5-0.8,10.4-2.4c2.9-1.6,5.3-4,7.1-7.2v8.3h9V6.8z"/>
			</g>
			<g>
				<path id="DejaVuSans-110" d="M763.5,33V0h-9v32.7c0,5.2-1,9-3,11.6c-2,2.6-5,3.9-9.1,3.9c-4.9,0-8.7-1.5-11.5-4.6
					c-2.8-3.1-4.2-7.3-4.2-12.6V0h-9v54.7h9v-8.5c2.2,3.3,4.7,5.8,7.6,7.4c2.9,1.6,6.3,2.4,10.1,2.4c6.3,0,11-1.9,14.3-5.8
					C761.9,46.3,763.5,40.6,763.5,33z"/>
			</g>
			<g>
				<path id="DejaVuSans-105" d="M781.4,54.7h9V0h-9V54.7z M781.4,76h9V64.6h-9V76z"/>
			</g>
			<g>
				<path id="DejaVuSans-116_1_" d="M818.1,70.2V54.7h18.5v-7h-18.5V18c0-4.5,0.6-7.3,1.8-8.6s3.7-1.9,7.5-1.9h9.2V0h-9.2
					c-6.9,0-11.7,1.3-14.4,3.9c-2.6,2.6-4,7.3-4,14.1v29.7h-6.6v7h6.6v15.5H818.1z"/>
			</g>
			<g>
				<path id="DejaVuSans-117" d="M847.5,21.6v33.1h9V21.9c0-5.2,1-9.1,3-11.7c2-2.6,5.1-3.9,9.1-3.9c4.8,0,8.7,1.5,11.5,4.6
					c2.8,3.1,4.2,7.3,4.2,12.7v31h9V0h-9v8.4c-2.2-3.3-4.7-5.8-7.6-7.4c-2.9-1.6-6.2-2.4-10-2.4c-6.3,0-11.1,2-14.3,5.9
					C849.1,8.3,847.5,14.1,847.5,21.6z"/>
			</g>
			<g>
				<path id="DejaVuSans-100" d="M947.8,46.4V76h9V0h-9v8.2c-1.9-3.2-4.3-5.7-7.2-7.2c-2.9-1.6-6.3-2.4-10.4-2.4
					c-6.6,0-12,2.6-16.1,7.9c-4.1,5.3-6.2,12.2-6.2,20.8s2.1,15.5,6.2,20.8c4.2,5.3,9.5,7.9,16.1,7.9c4,0,7.5-0.8,10.4-2.4
					C943.5,52.1,945.9,49.6,947.8,46.4z M917.1,27.3c0-6.6,1.4-11.8,4.1-15.5s6.5-5.6,11.2-5.6s8.5,1.9,11.2,5.6
					c2.7,3.8,4.1,8.9,4.1,15.5s-1.4,11.8-4.1,15.5c-2.7,3.8-6.5,5.6-11.2,5.6s-8.5-1.9-11.2-5.6S917.1,33.9,917.1,27.3z"/>
			</g>
			<g>
				<path id="DejaVuSans-101_1_" d="M1022,29.6v-4.4h-41.3c0.4-6.2,2.3-10.9,5.6-14.1c3.3-3.2,8-4.9,13.9-4.9c3.4,0,6.8,0.4,10,1.3
					c3.2,0.8,6.5,2.1,9.7,3.8V2.8c-3.2-1.4-6.5-2.4-9.9-3.1c-3.4-0.7-6.8-1.1-10.3-1.1c-8.7,0-15.6,2.5-20.7,7.6
					c-5.1,5.1-7.6,12-7.6,20.6c0,8.9,2.4,16,7.3,21.3c4.8,5.3,11.4,7.9,19.6,7.9c7.4,0,13.2-2.4,17.5-7.1
					C1019.9,44.2,1022,37.7,1022,29.6z M1013,32.2c-0.1,4.9-1.4,8.8-4.1,11.8c-2.7,2.9-6.2,4.4-10.7,4.4c-5,0-9-1.4-12-4.3
					c-3-2.8-4.7-6.8-5.2-12L1013,32.2z"/>
			</g>
			<g>
				<path id="DejaVuSans-32_1_" d="M1027.3,0"/>
			</g>
			<g>
				<path id="DejaVuSans-112" d="M1077.2,8.2v-29h-9v75.5h9v-8.3c1.9,3.3,4.3,5.7,7.2,7.2c2.9,1.6,6.3,2.4,10.3,2.4
					c6.6,0,12-2.6,16.2-7.9c4.2-5.3,6.2-12.2,6.2-20.8s-2.1-15.5-6.2-20.8c-4.1-5.3-9.5-7.9-16.2-7.9c-4,0-7.4,0.8-10.3,2.4
					C1081.5,2.5,1079.1,5,1077.2,8.2z M1107.8,27.3c0,6.6-1.4,11.8-4.1,15.5s-6.5,5.6-11.2,5.6c-4.8,0-8.5-1.9-11.2-5.6
					s-4.1-8.9-4.1-15.5s1.4-11.8,4.1-15.5s6.5-5.6,11.2-5.6c4.8,0,8.5,1.9,11.2,5.6S1107.8,20.7,1107.8,27.3z"/>
			</g>
			<g>
				<path id="DejaVuSans-101_2_" d="M1178.8,29.6v-4.4h-41.3c0.4-6.2,2.3-10.9,5.6-14.1c3.3-3.2,8-4.9,13.9-4.9
					c3.4,0,6.8,0.4,10,1.3c3.2,0.8,6.5,2.1,9.7,3.8V2.8c-3.2-1.4-6.5-2.4-9.9-3.1c-3.4-0.7-6.8-1.1-10.3-1.1
					c-8.7,0-15.6,2.5-20.7,7.6c-5.1,5.1-7.6,12-7.6,20.6c0,8.9,2.4,16,7.3,21.3c4.8,5.3,11.4,7.9,19.6,7.9c7.4,0,13.2-2.4,17.5-7.1
					C1176.7,44.2,1178.8,37.7,1178.8,29.6z M1169.8,32.2c-0.1,4.9-1.4,8.8-4.1,11.8c-2.7,2.9-6.2,4.4-10.7,4.4c-5,0-9-1.4-12-4.3
					c-3-2.8-4.7-6.8-5.2-12L1169.8,32.2z"/>
			</g>
			<g>
				<path id="DejaVuSans-114_1_" d="M1225.2,46.3c-1,0.6-2.1,1-3.3,1.3c-1.2,0.3-2.5,0.4-3.9,0.4c-5.1,0-9-1.7-11.7-5
					s-4.1-8-4.1-14.2V0h-9v54.7h9v-8.5c1.9,3.3,4.4,5.8,7.4,7.4c3,1.6,6.7,2.4,11,2.4c0.6,0,1.3,0,2-0.1c0.8-0.1,1.6-0.2,2.5-0.4
					L1225.2,46.3z"/>
			</g>
			<g>
				<path id="DejaVuSans-99" d="M1274,52.6v-8.4c-2.5,1.4-5.1,2.5-7.6,3.2c-2.6,0.7-5.1,1-7.7,1c-5.8,0-10.4-1.8-13.6-5.5
					c-3.2-3.7-4.8-8.9-4.8-15.5s1.6-11.9,4.8-15.6c3.2-3.7,7.8-5.5,13.6-5.5c2.6,0,5.2,0.3,7.7,1c2.6,0.7,5.1,1.8,7.6,3.2V2.1
					c-2.5-1.2-5.1-2-7.8-2.6c-2.7-0.6-5.5-0.9-8.6-0.9c-8.2,0-14.8,2.6-19.6,7.8c-4.8,5.2-7.3,12.2-7.3,21c0,8.9,2.4,15.9,7.3,21
					c4.9,5.1,11.6,7.7,20.2,7.7c2.8,0,5.5-0.3,8.1-0.9C1269,54.6,1271.5,53.7,1274,52.6z"/>
			</g>
			<g>
				<path id="DejaVuSans-101_3_" d="M1336.4,29.6v-4.4h-41.3c0.4-6.2,2.3-10.9,5.6-14.1c3.3-3.2,8-4.9,13.9-4.9
					c3.4,0,6.8,0.4,10,1.3c3.2,0.8,6.5,2.1,9.7,3.8V2.8c-3.2-1.4-6.5-2.4-9.9-3.1c-3.4-0.7-6.8-1.1-10.3-1.1
					c-8.7,0-15.6,2.5-20.7,7.6c-5.1,5.1-7.6,12-7.6,20.6c0,8.9,2.4,16,7.3,21.3c4.8,5.3,11.4,7.9,19.6,7.9c7.4,0,13.2-2.4,17.5-7.1
					C1334.3,44.2,1336.4,37.7,1336.4,29.6z M1327.4,32.2c-0.1,4.9-1.4,8.8-4.1,11.8c-2.7,2.9-6.2,4.4-10.7,4.4c-5,0-9-1.4-12-4.3
					c-3-2.8-4.7-6.8-5.2-12L1327.4,32.2z"/>
			</g>
			<g>
				<path id="DejaVuSans-110_1_" d="M1396.6,33V0h-9v32.7c0,5.2-1,9-3,11.6c-2,2.6-5,3.9-9.1,3.9c-4.9,0-8.7-1.5-11.5-4.6
					c-2.8-3.1-4.2-7.3-4.2-12.6V0h-9v54.7h9v-8.5c2.2,3.3,4.7,5.8,7.6,7.4c2.9,1.6,6.3,2.4,10.1,2.4c6.3,0,11-1.9,14.3-5.8
					C1395,46.3,1396.6,40.6,1396.6,33z"/>
			</g>
			<g>
				<path id="DejaVuSans-116_2_" d="M1423.4,70.2V54.7h18.5v-7h-18.5V18c0-4.5,0.6-7.3,1.8-8.6s3.7-1.9,7.5-1.9h9.2V0h-9.2
					c-6.9,0-11.7,1.3-14.4,3.9c-2.6,2.6-4,7.3-4,14.1v29.7h-6.6v7h6.6v15.5H1423.4z"/>
			</g>
			<g>
				<path id="DejaVuSans-105_1_" d="M1453.7,54.7h9V0h-9V54.7z M1453.7,76h9V64.6h-9V76z"/>
			</g>
			<g>
				<path id="DejaVuSans-108" d="M1481.5,76h9V0h-9V76z"/>
			</g>
			<g>
				<path id="DejaVuSans-101_4_" d="M1556.1,29.6v-4.4h-41.3c0.4-6.2,2.3-10.9,5.6-14.1c3.3-3.2,8-4.9,13.9-4.9
					c3.4,0,6.8,0.4,10,1.3c3.2,0.8,6.5,2.1,9.7,3.8V2.8c-3.2-1.4-6.5-2.4-9.9-3.1c-3.4-0.7-6.8-1.1-10.3-1.1
					c-8.7,0-15.6,2.5-20.7,7.6c-5.1,5.1-7.6,12-7.6,20.6c0,8.9,2.4,16,7.3,21.3c4.8,5.3,11.4,7.9,19.6,7.9c7.4,0,13.2-2.4,17.5-7.1
					C1553.9,44.2,1556.1,37.7,1556.1,29.6z M1547.1,32.2c-0.1,4.9-1.4,8.8-4.1,11.8c-2.7,2.9-6.2,4.4-10.7,4.4c-5,0-9-1.4-12-4.3
					c-3-2.8-4.7-6.8-5.2-12L1547.1,32.2z"/>
			</g>
		</g>
	</g>
</g>
<g id="matplotlib.axis_2">
	<g id="ytick_1">
		<g id="line2d_7">
			<g>
				<g>
					<path id="m460348e418" class="st16" d="M130.5,512.6H127"/>
				</g>
			</g>
		</g>
		<g id="text_8">
			<g transform="translate(117.1375 516.439219)scale(0.1 -0.1)">
				<g>
					<path id="DejaVuSans-48_7_" d="M31.8,66.4c-5.1,0-8.9-2.5-11.5-7.5c-2.6-5-3.8-12.5-3.8-22.5c0-10,1.3-17.5,3.8-22.5
						c2.6-5,6.4-7.5,11.5-7.5c5.1,0,8.9,2.5,11.5,7.5c2.6,5,3.8,12.5,3.8,22.5c0,10-1.3,17.5-3.8,22.5
						C40.7,63.9,36.9,66.4,31.8,66.4z M31.8,74.2c8.2,0,14.4-3.2,18.7-9.7c4.3-6.5,6.5-15.8,6.5-28.1c0-12.3-2.2-21.6-6.5-28.1
						C46.2,1.8,40-1.4,31.8-1.4c-8.2,0-14.4,3.2-18.7,9.7c-4.3,6.5-6.5,15.8-6.5,28.1c0,12.3,2.2,21.7,6.5,28.1
						C17.4,71,23.6,74.2,31.8,74.2z"/>
				</g>
			</g>
		</g>
	</g>
	<g id="ytick_2">
		<g id="line2d_8">
			<g>
				<g>
					<path id="m460348e418_1_" class="st16" d="M130.5,453.5H127"/>
				</g>
			</g>
		</g>
		<g id="text_9">
			<g transform="translate(110.775 457.303219)scale(0.1 -0.1)">
				<g>
					<path id="DejaVuSans-50_1_" d="M19.2,8.3h34.4V0H7.3v8.3c3.7,3.9,8.8,9.1,15.3,15.6c6.5,6.5,10.5,10.7,12.2,12.6
						c3.2,3.5,5.4,6.5,6.6,9c1.3,2.5,1.9,4.9,1.9,7.3c0,3.9-1.4,7-4.1,9.5c-2.7,2.4-6.3,3.7-10.6,3.7c-3.1,0-6.4-0.5-9.8-1.6
						c-3.4-1.1-7.1-2.7-11-4.9v10c4,1.6,7.7,2.8,11.1,3.6c3.5,0.8,6.6,1.2,9.5,1.2c7.6,0,13.6-1.9,18.1-5.7
						c4.5-3.8,6.7-8.8,6.7-15.1c0-3-0.6-5.8-1.7-8.5c-1.1-2.7-3.2-5.8-6.1-9.5c-0.8-0.9-3.4-3.7-7.8-8.2
						C33.3,22.7,27.1,16.4,19.2,8.3z"/>
				</g>
				<g>
					<path id="DejaVuSans-48_8_" d="M95.4,66.4c-5.1,0-8.9-2.5-11.5-7.5c-2.6-5-3.8-12.5-3.8-22.5c0-10,1.3-17.5,3.8-22.5
						c2.6-5,6.4-7.5,11.5-7.5c5.1,0,8.9,2.5,11.5,7.5c2.6,5,3.8,12.5,3.8,22.5c0,10-1.3,17.5-3.8,22.5
						C104.4,63.9,100.5,66.4,95.4,66.4z M95.4,74.2c8.2,0,14.4-3.2,18.7-9.7c4.3-6.5,6.5-15.8,6.5-28.1c0-12.3-2.2-21.6-6.5-28.1
						c-4.3-6.5-10.6-9.7-18.7-9.7c-8.2,0-14.4,3.2-18.7,9.7c-4.3,6.5-6.5,15.8-6.5,28.1c0,12.3,2.2,21.7,6.5,28.1
						C81,71,87.2,74.2,95.4,74.2z"/>
				</g>
			</g>
		</g>
	</g>
	<g id="ytick_3">
		<g id="line2d_9">
			<g>
				<g>
					<path id="m460348e418_2_" class="st16" d="M130.5,394.4H127"/>
				</g>
			</g>
		</g>
		<g id="text_10">
			<g transform="translate(110.775 398.167219)scale(0.1 -0.1)">
				<g>
					<path id="DejaVuSans-52_1_" d="M37.8,64.3L12.9,25.4h24.9V64.3z M35.2,72.9h12.4V25.4H58v-8.2H47.6V0h-9.8v17.2H4.9v9.5
						L35.2,72.9z"/>
				</g>
				<g>
					<path id="DejaVuSans-48_9_" d="M95.4,66.4c-5.1,0-8.9-2.5-11.5-7.5c-2.6-5-3.8-12.5-3.8-22.5c0-10,1.3-17.5,3.8-22.5
						c2.6-5,6.4-7.5,11.5-7.5c5.1,0,8.9,2.5,11.5,7.5c2.6,5,3.8,12.5,3.8,22.5c0,10-1.3,17.5-3.8,22.5
						C104.4,63.9,100.5,66.4,95.4,66.4z M95.4,74.2c8.2,0,14.4-3.2,18.7-9.7c4.3-6.5,6.5-15.8,6.5-28.1c0-12.3-2.2-21.6-6.5-28.1
						c-4.3-6.5-10.6-9.7-18.7-9.7c-8.2,0-14.4,3.2-18.7,9.7c-4.3,6.5-6.5,15.8-6.5,28.1c0,12.3,2.2,21.7,6.5,28.1
						C81,71,87.2,74.2,95.4,74.2z"/>
				</g>
			</g>
		</g>
	</g>
	<g id="ytick_4">
		<g id="line2d_10">
			<g>
				<g>
					<path id="m460348e418_3_" class="st16" d="M130.5,335.2H127"/>
				</g>
			</g>
		</g>
		<g id="text_11">
			<g transform="translate(110.775 339.031219)scale(0.1 -0.1)">
				<g>
					<path id="DejaVuSans-54_1_" d="M33,40.4c-4.4,0-7.9-1.5-10.5-4.5c-2.6-3-3.9-7.2-3.9-12.4c0-5.2,1.3-9.4,3.9-12.4
						c2.6-3,6.1-4.6,10.5-4.6s7.9,1.5,10.5,4.6c2.6,3.1,3.9,7.2,3.9,12.4c0,5.3-1.3,9.4-3.9,12.4C40.9,38.9,37.4,40.4,33,40.4z
						 M52.6,71.3v-9c-2.5,1.2-5,2.1-7.5,2.7c-2.5,0.6-5,0.9-7.5,0.9c-6.5,0-11.5-2.2-14.9-6.6c-3.4-4.4-5.4-11-5.9-19.9
						c1.9,2.8,4.3,5,7.2,6.5c2.9,1.5,6.1,2.3,9.6,2.3c7.3,0,13.1-2.2,17.4-6.7c4.3-4.4,6.4-10.5,6.4-18.1c0-7.5-2.2-13.5-6.6-18
						C46.3,0.8,40.4-1.4,33-1.4c-8.4,0-14.9,3.2-19.3,9.7C9.2,14.7,7,24.1,7,36.4c0,11.5,2.7,20.7,8.2,27.6s12.8,10.3,22,10.3
						c2.5,0,5-0.2,7.5-0.7S49.9,72.3,52.6,71.3z"/>
				</g>
				<g>
					<path id="DejaVuSans-48_10_" d="M95.4,66.4c-5.1,0-8.9-2.5-11.5-7.5c-2.6-5-3.8-12.5-3.8-22.5c0-10,1.3-17.5,3.8-22.5
						c2.6-5,6.4-7.5,11.5-7.5c5.1,0,8.9,2.5,11.5,7.5c2.6,5,3.8,12.5,3.8,22.5c0,10-1.3,17.5-3.8,22.5
						C104.4,63.9,100.5,66.4,95.4,66.4z M95.4,74.2c8.2,0,14.4-3.2,18.7-9.7c4.3-6.5,6.5-15.8,6.5-28.1c0-12.3-2.2-21.6-6.5-28.1
						c-4.3-6.5-10.6-9.7-18.7-9.7c-8.2,0-14.4,3.2-18.7,9.7c-4.3,6.5-6.5,15.8-6.5,28.1c0,12.3,2.2,21.7,6.5,28.1
						C81,71,87.2,74.2,95.4,74.2z"/>
				</g>
			</g>
		</g>
	</g>
	<g id="ytick_5">
		<g id="line2d_11">
			<g>
				<g>
					<path id="m460348e418_4_" class="st16" d="M130.5,276.1H127"/>
				</g>
			</g>
		</g>
		<g id="text_12">
			<g transform="translate(110.775 279.895219)scale(0.1 -0.1)">
				<g>
					<path id="DejaVuSans-56_1_" d="M31.8,34.6c-4.7,0-8.4-1.3-11.1-3.8c-2.7-2.5-4-6-4-10.3c0-4.4,1.3-7.8,4-10.4
						c2.7-2.5,6.4-3.8,11.1-3.8s8.4,1.3,11.1,3.8c2.7,2.5,4.1,6,4.1,10.3c0,4.4-1.3,7.8-4,10.3C40.2,33.4,36.5,34.6,31.8,34.6z
						 M21.9,38.8c-4.2,1-7.5,3-9.9,5.9c-2.4,2.9-3.5,6.4-3.5,10.6c0,5.8,2.1,10.4,6.2,13.8c4.2,3.4,9.8,5.1,17.1,5.1
						c7.3,0,13-1.7,17.1-5.1s6.2-8,6.2-13.8c0-4.2-1.2-7.7-3.5-10.6c-2.4-2.9-5.6-4.9-9.8-5.9c4.8-1.1,8.4-3.3,11.1-6.5
						c2.7-3.2,4-7.2,4-11.8c0-7.1-2.2-12.5-6.5-16.3C46,0.5,39.8-1.4,31.8-1.4c-8,0-14.2,1.9-18.5,5.7C8.9,8,6.8,13.4,6.8,20.5
						c0,4.6,1.3,8.6,4,11.8C13.5,35.5,17.2,37.7,21.9,38.8z M18.3,54.4c0-3.8,1.2-6.7,3.5-8.8c2.4-2.1,5.7-3.2,9.9-3.2
						c4.2,0,7.6,1.1,9.9,3.2c2.4,2.1,3.6,5.1,3.6,8.8c0,3.8-1.2,6.7-3.6,8.8c-2.4,2.1-5.7,3.2-9.9,3.2c-4.3,0-7.6-1.1-9.9-3.2
						C19.5,61.1,18.3,58.2,18.3,54.4z"/>
				</g>
				<g>
					<path id="DejaVuSans-48_11_" d="M95.4,66.4c-5.1,0-8.9-2.5-11.5-7.5c-2.6-5-3.8-12.5-3.8-22.5c0-10,1.3-17.5,3.8-22.5
						c2.6-5,6.4-7.5,11.5-7.5c5.1,0,8.9,2.5,11.5,7.5c2.6,5,3.8,12.5,3.8,22.5c0,10-1.3,17.5-3.8,22.5
						C104.4,63.9,100.5,66.4,95.4,66.4z M95.4,74.2c8.2,0,14.4-3.2,18.7-9.7c4.3-6.5,6.5-15.8,6.5-28.1c0-12.3-2.2-21.6-6.5-28.1
						c-4.3-6.5-10.6-9.7-18.7-9.7c-8.2,0-14.4,3.2-18.7,9.7c-4.3,6.5-6.5,15.8-6.5,28.1c0,12.3,2.2,21.7,6.5,28.1
						C81,71,87.2,74.2,95.4,74.2z"/>
				</g>
			</g>
		</g>
	</g>
	<g id="ytick_6">
		<g id="line2d_12">
			<g>
				<g>
					<path id="m460348e418_5_" class="st16" d="M130.5,217H127"/>
				</g>
			</g>
		</g>
		<g id="text_13">
			<g transform="translate(104.4125 220.759219)scale(0.1 -0.1)">
				<g>
					<path id="DejaVuSans-49_1_" d="M12.4,8.3h16.1v55.6L11,60.4v9l17.4,3.5h9.9V8.3h16.1V0h-42V8.3z"/>
				</g>
				<g>
					<path id="DejaVuSans-48_12_" d="M95.4,66.4c-5.1,0-8.9-2.5-11.5-7.5c-2.6-5-3.8-12.5-3.8-22.5c0-10,1.3-17.5,3.8-22.5
						c2.6-5,6.4-7.5,11.5-7.5c5.1,0,8.9,2.5,11.5,7.5c2.6,5,3.8,12.5,3.8,22.5c0,10-1.3,17.5-3.8,22.5
						C104.4,63.9,100.5,66.4,95.4,66.4z M95.4,74.2c8.2,0,14.4-3.2,18.7-9.7c4.3-6.5,6.5-15.8,6.5-28.1c0-12.3-2.2-21.6-6.5-28.1
						c-4.3-6.5-10.6-9.7-18.7-9.7c-8.2,0-14.4,3.2-18.7,9.7c-4.3,6.5-6.5,15.8-6.5,28.1c0,12.3,2.2,21.7,6.5,28.1
						C81,71,87.2,74.2,95.4,74.2z"/>
				</g>
				<g>
					<path id="DejaVuSans-48_13_" d="M159,66.4c-5.1,0-8.9-2.5-11.5-7.5c-2.6-5-3.8-12.5-3.8-22.5c0-10,1.3-17.5,3.8-22.5
						c2.6-5,6.4-7.5,11.5-7.5c5.1,0,8.9,2.5,11.5,7.5c2.6,5,3.8,12.5,3.8,22.5c0,10-1.3,17.5-3.8,22.5C168,63.9,164.1,66.4,159,66.4
						z M159,74.2c8.2,0,14.4-3.2,18.7-9.7c4.3-6.5,6.5-15.8,6.5-28.1c0-12.3-2.2-21.6-6.5-28.1c-4.3-6.5-10.6-9.7-18.7-9.7
						c-8.2,0-14.4,3.2-18.7,9.7c-4.3,6.5-6.5,15.8-6.5,28.1c0,12.3,2.2,21.7,6.5,28.1C144.6,71,150.9,74.2,159,74.2z"/>
				</g>
			</g>
		</g>
	</g>
	<g id="ytick_7">
		<g id="line2d_13">
			<g>
				<g>
					<path id="m460348e418_6_" class="st16" d="M130.5,157.8H127"/>
				</g>
			</g>
		</g>
		<g id="text_14">
			<g transform="translate(104.4125 161.623219)scale(0.1 -0.1)">
				<g>
					<path id="DejaVuSans-49_2_" d="M12.4,8.3h16.1v55.6L11,60.4v9l17.4,3.5h9.9V8.3h16.1V0h-42V8.3z"/>
				</g>
				<g>
					<path id="DejaVuSans-50_2_" d="M82.8,8.3h34.4V0H71v8.3c3.7,3.9,8.8,9.1,15.3,15.6c6.5,6.5,10.5,10.7,12.2,12.6
						c3.2,3.5,5.4,6.5,6.6,9c1.3,2.5,1.9,4.9,1.9,7.3c0,3.9-1.4,7-4.1,9.5c-2.7,2.4-6.3,3.7-10.6,3.7c-3.1,0-6.4-0.5-9.8-1.6
						c-3.4-1.1-7.1-2.7-11-4.9v10c4,1.6,7.7,2.8,11.1,3.6c3.5,0.8,6.6,1.2,9.5,1.2c7.6,0,13.6-1.9,18.1-5.7
						c4.5-3.8,6.7-8.8,6.7-15.1c0-3-0.6-5.8-1.7-8.5c-1.1-2.7-3.2-5.8-6.1-9.5c-0.8-0.9-3.4-3.7-7.8-8.2
						C96.9,22.7,90.8,16.4,82.8,8.3z"/>
				</g>
				<g>
					<path id="DejaVuSans-48_14_" d="M159,66.4c-5.1,0-8.9-2.5-11.5-7.5c-2.6-5-3.8-12.5-3.8-22.5c0-10,1.3-17.5,3.8-22.5
						c2.6-5,6.4-7.5,11.5-7.5c5.1,0,8.9,2.5,11.5,7.5c2.6,5,3.8,12.5,3.8,22.5c0,10-1.3,17.5-3.8,22.5C168,63.9,164.1,66.4,159,66.4
						z M159,74.2c8.2,0,14.4-3.2,18.7-9.7c4.3-6.5,6.5-15.8,6.5-28.1c0-12.3-2.2-21.6-6.5-28.1c-4.3-6.5-10.6-9.7-18.7-9.7
						c-8.2,0-14.4,3.2-18.7,9.7c-4.3,6.5-6.5,15.8-6.5,28.1c0,12.3,2.2,21.7,6.5,28.1C144.6,71,150.9,74.2,159,74.2z"/>
				</g>
			</g>
		</g>
	</g>
	<g id="ytick_8">
		<g id="line2d_14">
			<g>
				<g>
					<path id="m460348e418_7_" class="st16" d="M130.5,98.7H127"/>
				</g>
			</g>
		</g>
		<g id="text_15">
			<g transform="translate(104.4125 102.487219)scale(0.1 -0.1)">
				<g>
					<path id="DejaVuSans-49_3_" d="M12.4,8.3h16.1v55.6L11,60.4v9l17.4,3.5h9.9V8.3h16.1V0h-42V8.3z"/>
				</g>
				<g>
					<path id="DejaVuSans-52_2_" d="M101.4,64.3L76.5,25.4h24.9V64.3z M98.8,72.9h12.4V25.4h10.4v-8.2h-10.4V0h-9.8v17.2H68.5v9.5
						L98.8,72.9z"/>
				</g>
				<g>
					<path id="DejaVuSans-48_15_" d="M159,66.4c-5.1,0-8.9-2.5-11.5-7.5c-2.6-5-3.8-12.5-3.8-22.5c0-10,1.3-17.5,3.8-22.5
						c2.6-5,6.4-7.5,11.5-7.5c5.1,0,8.9,2.5,11.5,7.5c2.6,5,3.8,12.5,3.8,22.5c0,10-1.3,17.5-3.8,22.5C168,63.9,164.1,66.4,159,66.4
						z M159,74.2c8.2,0,14.4-3.2,18.7-9.7c4.3-6.5,6.5-15.8,6.5-28.1c0-12.3-2.2-21.6-6.5-28.1c-4.3-6.5-10.6-9.7-18.7-9.7
						c-8.2,0-14.4,3.2-18.7,9.7c-4.3,6.5-6.5,15.8-6.5,28.1c0,12.3,2.2,21.7,6.5,28.1C144.6,71,150.9,74.2,159,74.2z"/>
				</g>
			</g>
		</g>
	</g>
	<g id="text_16">
		<g transform="translate(97.916875 348.530625)rotate(-90)scale(0.12 -0.12)">
			<g>
				<path id="DejaVuSans-86" d="M28.6,0L0.8,72.9h10.3l23.1-61.4l23.1,61.4h10.3L39.8,0H28.6z"/>
			</g>
			<g>
				<path id="DejaVuSans-97_2_" d="M102.6,27.5c-7.3,0-12.3-0.8-15.1-2.5s-4.2-4.5-4.2-8.5c0-3.2,1.1-5.7,3.2-7.6
					c2.1-1.9,5-2.8,8.6-2.8c5,0,9,1.8,12,5.3c3,3.5,4.5,8.2,4.5,14.1v2H102.6z M120.5,31.2V0h-9v8.3c-2.1-3.3-4.6-5.8-7.7-7.3
					S97-1.4,92.6-1.4c-5.6,0-10,1.6-13.4,4.7c-3.3,3.1-5,7.4-5,12.6c0,6.1,2.1,10.8,6.2,13.9c4.1,3.1,10.3,4.7,18.4,4.7h12.6v0.9
					c0,4.1-1.4,7.3-4.1,9.6s-6.5,3.4-11.5,3.4c-3.1,0-6.2-0.4-9.1-1.1c-3-0.8-5.8-1.9-8.5-3.4v8.3c3.3,1.3,6.5,2.2,9.6,2.8
					c3.1,0.6,6.1,1,9,1c7.9,0,13.8-2.1,17.7-6.2C118.5,45.8,120.5,39.5,120.5,31.2z"/>
			</g>
			<g>
				<path id="DejaVuSans-114_2_" d="M170.7,46.3c-1,0.6-2.1,1-3.3,1.3c-1.2,0.3-2.5,0.4-3.9,0.4c-5.1,0-9-1.7-11.7-5
					s-4.1-8-4.1-14.2V0h-9v54.7h9v-8.5c1.9,3.3,4.4,5.8,7.4,7.4c3,1.6,6.7,2.4,11,2.4c0.6,0,1.3,0,2-0.1c0.8-0.1,1.6-0.2,2.5-0.4
					L170.7,46.3z"/>
			</g>
			<g>
				<path id="DejaVuSans-105_2_" d="M180.1,54.7h9V0h-9V54.7z M180.1,76h9V64.6h-9V76z"/>
			</g>
			<g>
				<path id="DejaVuSans-97_3_" d="M232.8,27.5c-7.3,0-12.3-0.8-15.1-2.5s-4.2-4.5-4.2-8.5c0-3.2,1.1-5.7,3.2-7.6
					c2.1-1.9,5-2.8,8.6-2.8c5,0,9,1.8,12,5.3s4.5,8.2,4.5,14.1v2H232.8z M250.7,31.2V0h-9v8.3C239.6,5,237.1,2.5,234,1
					s-6.8-2.4-11.2-2.4c-5.6,0-10,1.6-13.4,4.7c-3.3,3.1-5,7.4-5,12.6c0,6.1,2.1,10.8,6.2,13.9c4.1,3.1,10.3,4.7,18.4,4.7h12.6v0.9
					c0,4.1-1.4,7.3-4.1,9.6s-6.5,3.4-11.5,3.4c-3.1,0-6.2-0.4-9.1-1.1c-3-0.8-5.8-1.9-8.5-3.4v8.3c3.3,1.3,6.5,2.2,9.6,2.8
					c3.1,0.6,6.1,1,9,1c7.9,0,13.8-2.1,17.7-6.2C248.7,45.8,250.7,39.5,250.7,31.2z"/>
			</g>
			<g>
				<path id="DejaVuSans-110_2_" d="M314.6,33V0h-9v32.7c0,5.2-1,9-3,11.6c-2,2.6-5,3.9-9.1,3.9c-4.9,0-8.7-1.5-11.5-4.6
					c-2.8-3.1-4.2-7.3-4.2-12.6V0h-9v54.7h9v-8.5c2.2,3.3,4.7,5.8,7.6,7.4c2.9,1.6,6.3,2.4,10.1,2.4c6.3,0,11-1.9,14.3-5.8
					C313,46.3,314.6,40.6,314.6,33z"/>
			</g>
			<g>
				<path id="DejaVuSans-99_1_" d="M371.9,52.6v-8.4c-2.5,1.4-5.1,2.5-7.6,3.2c-2.6,0.7-5.1,1-7.7,1c-5.8,0-10.4-1.8-13.6-5.5
					c-3.2-3.7-4.8-8.9-4.8-15.5s1.6-11.9,4.8-15.6c3.2-3.7,7.8-5.5,13.6-5.5c2.6,0,5.2,0.3,7.7,1c2.6,0.7,5.1,1.8,7.6,3.2V2.1
					c-2.5-1.2-5.1-2-7.8-2.6c-2.7-0.6-5.5-0.9-8.6-0.9c-8.2,0-14.8,2.6-19.6,7.8c-4.8,5.2-7.3,12.2-7.3,21c0,8.9,2.4,15.9,7.3,21
					c4.9,5.1,11.6,7.7,20.2,7.7c2.8,0,5.5-0.3,8.1-0.9C366.9,54.6,369.4,53.7,371.9,52.6z"/>
			</g>
			<g>
				<path id="DejaVuSans-101_5_" d="M434.3,29.6v-4.4H393c0.4-6.2,2.3-10.9,5.6-14.1c3.3-3.2,8-4.9,13.9-4.9c3.4,0,6.8,0.4,10,1.3
					c3.2,0.8,6.5,2.1,9.7,3.8V2.8c-3.2-1.4-6.5-2.4-9.9-3.1c-3.4-0.7-6.8-1.1-10.3-1.1c-8.7,0-15.6,2.5-20.7,7.6
					c-5.1,5.1-7.6,12-7.6,20.6c0,8.9,2.4,16,7.3,21.3c4.8,5.3,11.4,7.9,19.6,7.9c7.4,0,13.2-2.4,17.5-7.1
					C432.2,44.2,434.3,37.7,434.3,29.6z M425.3,32.2c-0.1,4.9-1.4,8.8-4.1,11.8c-2.7,2.9-6.2,4.4-10.7,4.4c-5,0-9-1.4-12-4.3
					c-3-2.8-4.7-6.8-5.2-12L425.3,32.2z"/>
			</g>
			<g>
				<path id="DejaVuSans-32_2_" d="M439.6,0"/>
			</g>
			<g>
				<path id="DejaVuSans-101_6_" d="M527.6,29.6v-4.4h-41.3c0.4-6.2,2.3-10.9,5.6-14.1c3.3-3.2,8-4.9,13.9-4.9c3.4,0,6.8,0.4,10,1.3
					s6.5,2.1,9.7,3.8V2.8c-3.2-1.4-6.5-2.4-9.9-3.1s-6.8-1.1-10.3-1.1c-8.7,0-15.6,2.5-20.7,7.6c-5.1,5.1-7.6,12-7.6,20.6
					c0,8.9,2.4,16,7.3,21.3c4.8,5.3,11.4,7.9,19.6,7.9c7.4,0,13.2-2.4,17.5-7.1C525.5,44.2,527.6,37.7,527.6,29.6z M518.6,32.2
					c-0.1,4.9-1.4,8.8-4.1,11.8c-2.7,2.9-6.2,4.4-10.7,4.4c-5,0-9-1.4-12-4.3c-3-2.8-4.7-6.8-5.2-12L518.6,32.2z"/>
			</g>
			<g>
				<path id="DejaVuSans-120" d="M587.8,54.7L568,28.1L588.8,0h-10.6l-15.9,21.5L546.4,0h-10.6l21.3,28.6l-19.4,26.1h10.6l14.5-19.5
					l14.5,19.5H587.8z"/>
			</g>
			<g>
				<path id="DejaVuSans-112_1_" d="M610.2,8.2v-29h-9v75.5h9v-8.3c1.9,3.3,4.3,5.7,7.2,7.2c2.9,1.6,6.3,2.4,10.3,2.4
					c6.6,0,12-2.6,16.2-7.9c4.2-5.3,6.2-12.2,6.2-20.8s-2.1-15.5-6.2-20.8c-4.1-5.3-9.5-7.9-16.2-7.9c-4,0-7.4,0.8-10.3,2.4
					C614.5,2.5,612.1,5,610.2,8.2z M640.8,27.3c0,6.6-1.4,11.8-4.1,15.5s-6.5,5.6-11.2,5.6c-4.8,0-8.5-1.9-11.2-5.6
					s-4.1-8.9-4.1-15.5s1.4-11.8,4.1-15.5s6.5-5.6,11.2-5.6c4.8,0,8.5,1.9,11.2,5.6S640.8,20.7,640.8,27.3z"/>
			</g>
			<g>
				<path id="DejaVuSans-108_1_" d="M665,76h9V0h-9V76z"/>
			</g>
			<g>
				<path id="DejaVuSans-97_4_" d="M717.7,27.5c-7.3,0-12.3-0.8-15.1-2.5c-2.8-1.7-4.2-4.5-4.2-8.5c0-3.2,1.1-5.7,3.2-7.6
					c2.1-1.9,5-2.8,8.6-2.8c5,0,9,1.8,12,5.3c3,3.5,4.5,8.2,4.5,14.1v2H717.7z M735.6,31.2V0h-9v8.3C724.5,5,722,2.5,718.9,1
					s-6.8-2.4-11.2-2.4c-5.6,0-10,1.6-13.4,4.7c-3.3,3.1-5,7.4-5,12.6c0,6.1,2.1,10.8,6.2,13.9c4.1,3.1,10.3,4.7,18.4,4.7h12.6v0.9
					c0,4.1-1.4,7.3-4.1,9.6s-6.5,3.4-11.5,3.4c-3.1,0-6.2-0.4-9.1-1.1c-3-0.8-5.8-1.9-8.5-3.4v8.3c3.3,1.3,6.5,2.2,9.6,2.8
					c3.1,0.6,6.1,1,9,1c7.9,0,13.8-2.1,17.7-6.2C733.6,45.8,735.6,39.5,735.6,31.2z"/>
			</g>
			<g>
				<path id="DejaVuSans-105_3_" d="M754.1,54.7h9V0h-9V54.7z M754.1,76h9V64.6h-9V76z"/>
			</g>
			<g>
				<path id="DejaVuSans-110_3_" d="M827.3,33V0h-9v32.7c0,5.2-1,9-3,11.6c-2,2.6-5,3.9-9.1,3.9c-4.9,0-8.7-1.5-11.5-4.6
					c-2.8-3.1-4.2-7.3-4.2-12.6V0h-9v54.7h9v-8.5c2.2,3.3,4.7,5.8,7.6,7.4c2.9,1.6,6.3,2.4,10.1,2.4c6.3,0,11-1.9,14.3-5.8
					C825.7,46.3,827.3,40.6,827.3,33z"/>
			</g>
			<g>
				<path id="DejaVuSans-101_7_" d="M892,29.6v-4.4h-41.3c0.4-6.2,2.3-10.9,5.6-14.1c3.3-3.2,8-4.9,13.9-4.9c3.4,0,6.8,0.4,10,1.3
					c3.2,0.8,6.5,2.1,9.7,3.8V2.8c-3.2-1.4-6.5-2.4-9.9-3.1c-3.4-0.7-6.8-1.1-10.3-1.1c-8.7,0-15.6,2.5-20.7,7.6
					c-5.1,5.1-7.6,12-7.6,20.6c0,8.9,2.4,16,7.3,21.3c4.8,5.3,11.4,7.9,19.6,7.9c7.4,0,13.2-2.4,17.5-7.1
					C889.9,44.2,892,37.7,892,29.6z M883,32.2c-0.1,4.9-1.4,8.8-4.1,11.8c-2.7,2.9-6.2,4.4-10.7,4.4c-5,0-9-1.4-12-4.3
					c-3-2.8-4.7-6.8-5.2-12L883,32.2z"/>
			</g>
			<g>
				<path id="DejaVuSans-100_1_" d="M942.7,46.4V76h9V0h-9v8.2c-1.9-3.3-4.3-5.7-7.2-7.3c-2.9-1.6-6.3-2.4-10.4-2.4
					c-6.6,0-12,2.6-16.1,7.9c-4.1,5.3-6.2,12.2-6.2,20.8s2.1,15.5,6.2,20.8c4.2,5.3,9.5,7.9,16.1,7.9c4,0,7.5-0.8,10.4-2.4
					C938.5,52.1,940.9,49.6,942.7,46.4z M912.1,27.3c0-6.6,1.4-11.8,4.1-15.5s6.5-5.6,11.2-5.6s8.5,1.9,11.2,5.6
					c2.7,3.8,4.1,8.9,4.1,15.5s-1.4,11.8-4.1,15.5c-2.7,3.8-6.5,5.6-11.2,5.6s-8.5-1.9-11.2-5.6S912.1,33.9,912.1,27.3z"/>
			</g>
		</g>
	</g>
</g>
<g id="patch_3">
	<path class="st17" d="M130.5,512.6V69.1"/>
</g>
<g id="patch_4">
	<path class="st17" d="M939.6,512.6V69.1"/>
</g>
<g id="patch_5">
	<path class="st17" d="M130.5,512.6h809.1"/>
</g>
<g id="patch_6">
	<path class="st17" d="M130.5,69.1h809.1"/>
</g>
</svg>
