<?xml version="1.0" encoding="utf-8" standalone="no"?>
<!DOCTYPE svg PUBLIC "-//W3C//DTD SVG 1.1//EN"
  "http://www.w3.org/Graphics/SVG/1.1/DTD/svg11.dtd">
<!-- Created with matplotlib (https://matplotlib.org/) -->
<svg height="576pt" version="1.1" viewBox="0 0 1044 576" width="1044pt" xmlns="http://www.w3.org/2000/svg" xmlns:xlink="http://www.w3.org/1999/xlink">
 <defs>
  <style type="text/css">
*{stroke-linecap:butt;stroke-linejoin:round;}
  </style>
 </defs>
 <g id="figure_1">
  <g id="patch_1">
   <path d="M 0 576 
L 1044 576 
L 1044 0 
L 0 0 
z
" style="fill:#ffffff;"/>
  </g>
  <g id="axes_1">
   <g id="patch_2">
    <path d="M 130.5 468.288 
L 939.6 468.288 
L 939.6 113.472 
L 130.5 113.472 
z
" style="fill:#ffffff;"/>
   </g>
   <g id="matplotlib.axis_1">
    <g id="xtick_1">
     <g id="line2d_1">
      <defs>
       <path d="M 0 0 
L 0 3.5 
" id="mffa3c61e39" style="stroke:#000000;stroke-width:0.8;"/>
      </defs>
      <g>
       <use style="stroke:#000000;stroke-width:0.8;" x="130.5" xlink:href="#mffa3c61e39" y="468.288"/>
      </g>
     </g>
     <g id="text_1">
      <!-- 0 -->
      <defs>
       <path d="M 31.78125 66.40625 
Q 24.171875 66.40625 20.328125 58.90625 
Q 16.5 51.421875 16.5 36.375 
Q 16.5 21.390625 20.328125 13.890625 
Q 24.171875 6.390625 31.78125 6.390625 
Q 39.453125 6.390625 43.28125 13.890625 
Q 47.125 21.390625 47.125 36.375 
Q 47.125 51.421875 43.28125 58.90625 
Q 39.453125 66.40625 31.78125 66.40625 
z
M 31.78125 74.21875 
Q 44.046875 74.21875 50.515625 64.515625 
Q 56.984375 54.828125 56.984375 36.375 
Q 56.984375 17.96875 50.515625 8.265625 
Q 44.046875 -1.421875 31.78125 -1.421875 
Q 19.53125 -1.421875 13.0625 8.265625 
Q 6.59375 17.96875 6.59375 36.375 
Q 6.59375 54.828125 13.0625 64.515625 
Q 19.53125 74.21875 31.78125 74.21875 
z
" id="DejaVuSans-48"/>
      </defs>
      <g transform="translate(127.31875 482.886437)scale(0.1 -0.1)">
       <use xlink:href="#DejaVuSans-48"/>
      </g>
     </g>
    </g>
    <g id="xtick_2">
     <g id="line2d_2">
      <g>
       <use style="stroke:#000000;stroke-width:0.8;" x="292.32" xlink:href="#mffa3c61e39" y="468.288"/>
      </g>
     </g>
     <g id="text_2">
      <!-- 20 -->
      <defs>
       <path d="M 19.1875 8.296875 
L 53.609375 8.296875 
L 53.609375 0 
L 7.328125 0 
L 7.328125 8.296875 
Q 12.9375 14.109375 22.625 23.890625 
Q 32.328125 33.6875 34.8125 36.53125 
Q 39.546875 41.84375 41.421875 45.53125 
Q 43.3125 49.21875 43.3125 52.78125 
Q 43.3125 58.59375 39.234375 62.25 
Q 35.15625 65.921875 28.609375 65.921875 
Q 23.96875 65.921875 18.8125 64.3125 
Q 13.671875 62.703125 7.8125 59.421875 
L 7.8125 69.390625 
Q 13.765625 71.78125 18.9375 73 
Q 24.125 74.21875 28.421875 74.21875 
Q 39.75 74.21875 46.484375 68.546875 
Q 53.21875 62.890625 53.21875 53.421875 
Q 53.21875 48.921875 51.53125 44.890625 
Q 49.859375 40.875 45.40625 35.40625 
Q 44.1875 33.984375 37.640625 27.21875 
Q 31.109375 20.453125 19.1875 8.296875 
z
" id="DejaVuSans-50"/>
      </defs>
      <g transform="translate(285.9575 482.886437)scale(0.1 -0.1)">
       <use xlink:href="#DejaVuSans-50"/>
       <use x="63.623047" xlink:href="#DejaVuSans-48"/>
      </g>
     </g>
    </g>
    <g id="xtick_3">
     <g id="line2d_3">
      <g>
       <use style="stroke:#000000;stroke-width:0.8;" x="454.14" xlink:href="#mffa3c61e39" y="468.288"/>
      </g>
     </g>
     <g id="text_3">
      <!-- 40 -->
      <defs>
       <path d="M 37.796875 64.3125 
L 12.890625 25.390625 
L 37.796875 25.390625 
z
M 35.203125 72.90625 
L 47.609375 72.90625 
L 47.609375 25.390625 
L 58.015625 25.390625 
L 58.015625 17.1875 
L 47.609375 17.1875 
L 47.609375 0 
L 37.796875 0 
L 37.796875 17.1875 
L 4.890625 17.1875 
L 4.890625 26.703125 
z
" id="DejaVuSans-52"/>
      </defs>
      <g transform="translate(447.7775 482.886437)scale(0.1 -0.1)">
       <use xlink:href="#DejaVuSans-52"/>
       <use x="63.623047" xlink:href="#DejaVuSans-48"/>
      </g>
     </g>
    </g>
    <g id="xtick_4">
     <g id="line2d_4">
      <g>
       <use style="stroke:#000000;stroke-width:0.8;" x="615.96" xlink:href="#mffa3c61e39" y="468.288"/>
      </g>
     </g>
     <g id="text_4">
      <!-- 60 -->
      <defs>
       <path d="M 33.015625 40.375 
Q 26.375 40.375 22.484375 35.828125 
Q 18.609375 31.296875 18.609375 23.390625 
Q 18.609375 15.53125 22.484375 10.953125 
Q 26.375 6.390625 33.015625 6.390625 
Q 39.65625 6.390625 43.53125 10.953125 
Q 47.40625 15.53125 47.40625 23.390625 
Q 47.40625 31.296875 43.53125 35.828125 
Q 39.65625 40.375 33.015625 40.375 
z
M 52.59375 71.296875 
L 52.59375 62.3125 
Q 48.875 64.0625 45.09375 64.984375 
Q 41.3125 65.921875 37.59375 65.921875 
Q 27.828125 65.921875 22.671875 59.328125 
Q 17.53125 52.734375 16.796875 39.40625 
Q 19.671875 43.65625 24.015625 45.921875 
Q 28.375 48.1875 33.59375 48.1875 
Q 44.578125 48.1875 50.953125 41.515625 
Q 57.328125 34.859375 57.328125 23.390625 
Q 57.328125 12.15625 50.6875 5.359375 
Q 44.046875 -1.421875 33.015625 -1.421875 
Q 20.359375 -1.421875 13.671875 8.265625 
Q 6.984375 17.96875 6.984375 36.375 
Q 6.984375 53.65625 15.1875 63.9375 
Q 23.390625 74.21875 37.203125 74.21875 
Q 40.921875 74.21875 44.703125 73.484375 
Q 48.484375 72.75 52.59375 71.296875 
z
" id="DejaVuSans-54"/>
      </defs>
      <g transform="translate(609.5975 482.886437)scale(0.1 -0.1)">
       <use xlink:href="#DejaVuSans-54"/>
       <use x="63.623047" xlink:href="#DejaVuSans-48"/>
      </g>
     </g>
    </g>
    <g id="xtick_5">
     <g id="line2d_5">
      <g>
       <use style="stroke:#000000;stroke-width:0.8;" x="777.78" xlink:href="#mffa3c61e39" y="468.288"/>
      </g>
     </g>
     <g id="text_5">
      <!-- 80 -->
      <defs>
       <path d="M 31.78125 34.625 
Q 24.75 34.625 20.71875 30.859375 
Q 16.703125 27.09375 16.703125 20.515625 
Q 16.703125 13.921875 20.71875 10.15625 
Q 24.75 6.390625 31.78125 6.390625 
Q 38.8125 6.390625 42.859375 10.171875 
Q 46.921875 13.96875 46.921875 20.515625 
Q 46.921875 27.09375 42.890625 30.859375 
Q 38.875 34.625 31.78125 34.625 
z
M 21.921875 38.8125 
Q 15.578125 40.375 12.03125 44.71875 
Q 8.5 49.078125 8.5 55.328125 
Q 8.5 64.0625 14.71875 69.140625 
Q 20.953125 74.21875 31.78125 74.21875 
Q 42.671875 74.21875 48.875 69.140625 
Q 55.078125 64.0625 55.078125 55.328125 
Q 55.078125 49.078125 51.53125 44.71875 
Q 48 40.375 41.703125 38.8125 
Q 48.828125 37.15625 52.796875 32.3125 
Q 56.78125 27.484375 56.78125 20.515625 
Q 56.78125 9.90625 50.3125 4.234375 
Q 43.84375 -1.421875 31.78125 -1.421875 
Q 19.734375 -1.421875 13.25 4.234375 
Q 6.78125 9.90625 6.78125 20.515625 
Q 6.78125 27.484375 10.78125 32.3125 
Q 14.796875 37.15625 21.921875 38.8125 
z
M 18.3125 54.390625 
Q 18.3125 48.734375 21.84375 45.5625 
Q 25.390625 42.390625 31.78125 42.390625 
Q 38.140625 42.390625 41.71875 45.5625 
Q 45.3125 48.734375 45.3125 54.390625 
Q 45.3125 60.0625 41.71875 63.234375 
Q 38.140625 66.40625 31.78125 66.40625 
Q 25.390625 66.40625 21.84375 63.234375 
Q 18.3125 60.0625 18.3125 54.390625 
z
" id="DejaVuSans-56"/>
      </defs>
      <g transform="translate(771.4175 482.886437)scale(0.1 -0.1)">
       <use xlink:href="#DejaVuSans-56"/>
       <use x="63.623047" xlink:href="#DejaVuSans-48"/>
      </g>
     </g>
    </g>
    <g id="xtick_6">
     <g id="line2d_6">
      <g>
       <use style="stroke:#000000;stroke-width:0.8;" x="939.6" xlink:href="#mffa3c61e39" y="468.288"/>
      </g>
     </g>
     <g id="text_6">
      <!-- 100 -->
      <defs>
       <path d="M 12.40625 8.296875 
L 28.515625 8.296875 
L 28.515625 63.921875 
L 10.984375 60.40625 
L 10.984375 69.390625 
L 28.421875 72.90625 
L 38.28125 72.90625 
L 38.28125 8.296875 
L 54.390625 8.296875 
L 54.390625 0 
L 12.40625 0 
z
" id="DejaVuSans-49"/>
      </defs>
      <g transform="translate(930.05625 482.886437)scale(0.1 -0.1)">
       <use xlink:href="#DejaVuSans-49"/>
       <use x="63.623047" xlink:href="#DejaVuSans-48"/>
       <use x="127.246094" xlink:href="#DejaVuSans-48"/>
      </g>
     </g>
    </g>
    <g id="text_7">
     <!-- Shortage magnitude percentile -->
     <defs>
      <path d="M 53.515625 70.515625 
L 53.515625 60.890625 
Q 47.90625 63.578125 42.921875 64.890625 
Q 37.9375 66.21875 33.296875 66.21875 
Q 25.25 66.21875 20.875 63.09375 
Q 16.5 59.96875 16.5 54.203125 
Q 16.5 49.359375 19.40625 46.890625 
Q 22.3125 44.4375 30.421875 42.921875 
L 36.375 41.703125 
Q 47.40625 39.59375 52.65625 34.296875 
Q 57.90625 29 57.90625 20.125 
Q 57.90625 9.515625 50.796875 4.046875 
Q 43.703125 -1.421875 29.984375 -1.421875 
Q 24.8125 -1.421875 18.96875 -0.25 
Q 13.140625 0.921875 6.890625 3.21875 
L 6.890625 13.375 
Q 12.890625 10.015625 18.65625 8.296875 
Q 24.421875 6.59375 29.984375 6.59375 
Q 38.421875 6.59375 43.015625 9.90625 
Q 47.609375 13.234375 47.609375 19.390625 
Q 47.609375 24.75 44.3125 27.78125 
Q 41.015625 30.8125 33.5 32.328125 
L 27.484375 33.5 
Q 16.453125 35.6875 11.515625 40.375 
Q 6.59375 45.0625 6.59375 53.421875 
Q 6.59375 63.09375 13.40625 68.65625 
Q 20.21875 74.21875 32.171875 74.21875 
Q 37.3125 74.21875 42.625 73.28125 
Q 47.953125 72.359375 53.515625 70.515625 
z
" id="DejaVuSans-83"/>
      <path d="M 54.890625 33.015625 
L 54.890625 0 
L 45.90625 0 
L 45.90625 32.71875 
Q 45.90625 40.484375 42.875 44.328125 
Q 39.84375 48.1875 33.796875 48.1875 
Q 26.515625 48.1875 22.3125 43.546875 
Q 18.109375 38.921875 18.109375 30.90625 
L 18.109375 0 
L 9.078125 0 
L 9.078125 75.984375 
L 18.109375 75.984375 
L 18.109375 46.1875 
Q 21.34375 51.125 25.703125 53.5625 
Q 30.078125 56 35.796875 56 
Q 45.21875 56 50.046875 50.171875 
Q 54.890625 44.34375 54.890625 33.015625 
z
" id="DejaVuSans-104"/>
      <path d="M 30.609375 48.390625 
Q 23.390625 48.390625 19.1875 42.75 
Q 14.984375 37.109375 14.984375 27.296875 
Q 14.984375 17.484375 19.15625 11.84375 
Q 23.34375 6.203125 30.609375 6.203125 
Q 37.796875 6.203125 41.984375 11.859375 
Q 46.1875 17.53125 46.1875 27.296875 
Q 46.1875 37.015625 41.984375 42.703125 
Q 37.796875 48.390625 30.609375 48.390625 
z
M 30.609375 56 
Q 42.328125 56 49.015625 48.375 
Q 55.71875 40.765625 55.71875 27.296875 
Q 55.71875 13.875 49.015625 6.21875 
Q 42.328125 -1.421875 30.609375 -1.421875 
Q 18.84375 -1.421875 12.171875 6.21875 
Q 5.515625 13.875 5.515625 27.296875 
Q 5.515625 40.765625 12.171875 48.375 
Q 18.84375 56 30.609375 56 
z
" id="DejaVuSans-111"/>
      <path d="M 41.109375 46.296875 
Q 39.59375 47.171875 37.8125 47.578125 
Q 36.03125 48 33.890625 48 
Q 26.265625 48 22.1875 43.046875 
Q 18.109375 38.09375 18.109375 28.8125 
L 18.109375 0 
L 9.078125 0 
L 9.078125 54.6875 
L 18.109375 54.6875 
L 18.109375 46.1875 
Q 20.953125 51.171875 25.484375 53.578125 
Q 30.03125 56 36.53125 56 
Q 37.453125 56 38.578125 55.875 
Q 39.703125 55.765625 41.0625 55.515625 
z
" id="DejaVuSans-114"/>
      <path d="M 18.3125 70.21875 
L 18.3125 54.6875 
L 36.8125 54.6875 
L 36.8125 47.703125 
L 18.3125 47.703125 
L 18.3125 18.015625 
Q 18.3125 11.328125 20.140625 9.421875 
Q 21.96875 7.515625 27.59375 7.515625 
L 36.8125 7.515625 
L 36.8125 0 
L 27.59375 0 
Q 17.1875 0 13.234375 3.875 
Q 9.28125 7.765625 9.28125 18.015625 
L 9.28125 47.703125 
L 2.6875 47.703125 
L 2.6875 54.6875 
L 9.28125 54.6875 
L 9.28125 70.21875 
z
" id="DejaVuSans-116"/>
      <path d="M 34.28125 27.484375 
Q 23.390625 27.484375 19.1875 25 
Q 14.984375 22.515625 14.984375 16.5 
Q 14.984375 11.71875 18.140625 8.90625 
Q 21.296875 6.109375 26.703125 6.109375 
Q 34.1875 6.109375 38.703125 11.40625 
Q 43.21875 16.703125 43.21875 25.484375 
L 43.21875 27.484375 
z
M 52.203125 31.203125 
L 52.203125 0 
L 43.21875 0 
L 43.21875 8.296875 
Q 40.140625 3.328125 35.546875 0.953125 
Q 30.953125 -1.421875 24.3125 -1.421875 
Q 15.921875 -1.421875 10.953125 3.296875 
Q 6 8.015625 6 15.921875 
Q 6 25.140625 12.171875 29.828125 
Q 18.359375 34.515625 30.609375 34.515625 
L 43.21875 34.515625 
L 43.21875 35.40625 
Q 43.21875 41.609375 39.140625 45 
Q 35.0625 48.390625 27.6875 48.390625 
Q 23 48.390625 18.546875 47.265625 
Q 14.109375 46.140625 10.015625 43.890625 
L 10.015625 52.203125 
Q 14.9375 54.109375 19.578125 55.046875 
Q 24.21875 56 28.609375 56 
Q 40.484375 56 46.34375 49.84375 
Q 52.203125 43.703125 52.203125 31.203125 
z
" id="DejaVuSans-97"/>
      <path d="M 45.40625 27.984375 
Q 45.40625 37.75 41.375 43.109375 
Q 37.359375 48.484375 30.078125 48.484375 
Q 22.859375 48.484375 18.828125 43.109375 
Q 14.796875 37.75 14.796875 27.984375 
Q 14.796875 18.265625 18.828125 12.890625 
Q 22.859375 7.515625 30.078125 7.515625 
Q 37.359375 7.515625 41.375 12.890625 
Q 45.40625 18.265625 45.40625 27.984375 
z
M 54.390625 6.78125 
Q 54.390625 -7.171875 48.1875 -13.984375 
Q 42 -20.796875 29.203125 -20.796875 
Q 24.46875 -20.796875 20.265625 -20.09375 
Q 16.0625 -19.390625 12.109375 -17.921875 
L 12.109375 -9.1875 
Q 16.0625 -11.328125 19.921875 -12.34375 
Q 23.78125 -13.375 27.78125 -13.375 
Q 36.625 -13.375 41.015625 -8.765625 
Q 45.40625 -4.15625 45.40625 5.171875 
L 45.40625 9.625 
Q 42.625 4.78125 38.28125 2.390625 
Q 33.9375 0 27.875 0 
Q 17.828125 0 11.671875 7.65625 
Q 5.515625 15.328125 5.515625 27.984375 
Q 5.515625 40.671875 11.671875 48.328125 
Q 17.828125 56 27.875 56 
Q 33.9375 56 38.28125 53.609375 
Q 42.625 51.21875 45.40625 46.390625 
L 45.40625 54.6875 
L 54.390625 54.6875 
z
" id="DejaVuSans-103"/>
      <path d="M 56.203125 29.59375 
L 56.203125 25.203125 
L 14.890625 25.203125 
Q 15.484375 15.921875 20.484375 11.0625 
Q 25.484375 6.203125 34.421875 6.203125 
Q 39.59375 6.203125 44.453125 7.46875 
Q 49.3125 8.734375 54.109375 11.28125 
L 54.109375 2.78125 
Q 49.265625 0.734375 44.1875 -0.34375 
Q 39.109375 -1.421875 33.890625 -1.421875 
Q 20.796875 -1.421875 13.15625 6.1875 
Q 5.515625 13.8125 5.515625 26.8125 
Q 5.515625 40.234375 12.765625 48.109375 
Q 20.015625 56 32.328125 56 
Q 43.359375 56 49.78125 48.890625 
Q 56.203125 41.796875 56.203125 29.59375 
z
M 47.21875 32.234375 
Q 47.125 39.59375 43.09375 43.984375 
Q 39.0625 48.390625 32.421875 48.390625 
Q 24.90625 48.390625 20.390625 44.140625 
Q 15.875 39.890625 15.1875 32.171875 
z
" id="DejaVuSans-101"/>
      <path id="DejaVuSans-32"/>
      <path d="M 52 44.1875 
Q 55.375 50.25 60.0625 53.125 
Q 64.75 56 71.09375 56 
Q 79.640625 56 84.28125 50.015625 
Q 88.921875 44.046875 88.921875 33.015625 
L 88.921875 0 
L 79.890625 0 
L 79.890625 32.71875 
Q 79.890625 40.578125 77.09375 44.375 
Q 74.3125 48.1875 68.609375 48.1875 
Q 61.625 48.1875 57.5625 43.546875 
Q 53.515625 38.921875 53.515625 30.90625 
L 53.515625 0 
L 44.484375 0 
L 44.484375 32.71875 
Q 44.484375 40.625 41.703125 44.40625 
Q 38.921875 48.1875 33.109375 48.1875 
Q 26.21875 48.1875 22.15625 43.53125 
Q 18.109375 38.875 18.109375 30.90625 
L 18.109375 0 
L 9.078125 0 
L 9.078125 54.6875 
L 18.109375 54.6875 
L 18.109375 46.1875 
Q 21.1875 51.21875 25.484375 53.609375 
Q 29.78125 56 35.6875 56 
Q 41.65625 56 45.828125 52.96875 
Q 50 49.953125 52 44.1875 
z
" id="DejaVuSans-109"/>
      <path d="M 54.890625 33.015625 
L 54.890625 0 
L 45.90625 0 
L 45.90625 32.71875 
Q 45.90625 40.484375 42.875 44.328125 
Q 39.84375 48.1875 33.796875 48.1875 
Q 26.515625 48.1875 22.3125 43.546875 
Q 18.109375 38.921875 18.109375 30.90625 
L 18.109375 0 
L 9.078125 0 
L 9.078125 54.6875 
L 18.109375 54.6875 
L 18.109375 46.1875 
Q 21.34375 51.125 25.703125 53.5625 
Q 30.078125 56 35.796875 56 
Q 45.21875 56 50.046875 50.171875 
Q 54.890625 44.34375 54.890625 33.015625 
z
" id="DejaVuSans-110"/>
      <path d="M 9.421875 54.6875 
L 18.40625 54.6875 
L 18.40625 0 
L 9.421875 0 
z
M 9.421875 75.984375 
L 18.40625 75.984375 
L 18.40625 64.59375 
L 9.421875 64.59375 
z
" id="DejaVuSans-105"/>
      <path d="M 8.5 21.578125 
L 8.5 54.6875 
L 17.484375 54.6875 
L 17.484375 21.921875 
Q 17.484375 14.15625 20.5 10.265625 
Q 23.53125 6.390625 29.59375 6.390625 
Q 36.859375 6.390625 41.078125 11.03125 
Q 45.3125 15.671875 45.3125 23.6875 
L 45.3125 54.6875 
L 54.296875 54.6875 
L 54.296875 0 
L 45.3125 0 
L 45.3125 8.40625 
Q 42.046875 3.421875 37.71875 1 
Q 33.40625 -1.421875 27.6875 -1.421875 
Q 18.265625 -1.421875 13.375 4.4375 
Q 8.5 10.296875 8.5 21.578125 
z
M 31.109375 56 
z
" id="DejaVuSans-117"/>
      <path d="M 45.40625 46.390625 
L 45.40625 75.984375 
L 54.390625 75.984375 
L 54.390625 0 
L 45.40625 0 
L 45.40625 8.203125 
Q 42.578125 3.328125 38.25 0.953125 
Q 33.9375 -1.421875 27.875 -1.421875 
Q 17.96875 -1.421875 11.734375 6.484375 
Q 5.515625 14.40625 5.515625 27.296875 
Q 5.515625 40.1875 11.734375 48.09375 
Q 17.96875 56 27.875 56 
Q 33.9375 56 38.25 53.625 
Q 42.578125 51.265625 45.40625 46.390625 
z
M 14.796875 27.296875 
Q 14.796875 17.390625 18.875 11.75 
Q 22.953125 6.109375 30.078125 6.109375 
Q 37.203125 6.109375 41.296875 11.75 
Q 45.40625 17.390625 45.40625 27.296875 
Q 45.40625 37.203125 41.296875 42.84375 
Q 37.203125 48.484375 30.078125 48.484375 
Q 22.953125 48.484375 18.875 42.84375 
Q 14.796875 37.203125 14.796875 27.296875 
z
" id="DejaVuSans-100"/>
      <path d="M 18.109375 8.203125 
L 18.109375 -20.796875 
L 9.078125 -20.796875 
L 9.078125 54.6875 
L 18.109375 54.6875 
L 18.109375 46.390625 
Q 20.953125 51.265625 25.265625 53.625 
Q 29.59375 56 35.59375 56 
Q 45.5625 56 51.78125 48.09375 
Q 58.015625 40.1875 58.015625 27.296875 
Q 58.015625 14.40625 51.78125 6.484375 
Q 45.5625 -1.421875 35.59375 -1.421875 
Q 29.59375 -1.421875 25.265625 0.953125 
Q 20.953125 3.328125 18.109375 8.203125 
z
M 48.6875 27.296875 
Q 48.6875 37.203125 44.609375 42.84375 
Q 40.53125 48.484375 33.40625 48.484375 
Q 26.265625 48.484375 22.1875 42.84375 
Q 18.109375 37.203125 18.109375 27.296875 
Q 18.109375 17.390625 22.1875 11.75 
Q 26.265625 6.109375 33.40625 6.109375 
Q 40.53125 6.109375 44.609375 11.75 
Q 48.6875 17.390625 48.6875 27.296875 
z
" id="DejaVuSans-112"/>
      <path d="M 48.78125 52.59375 
L 48.78125 44.1875 
Q 44.96875 46.296875 41.140625 47.34375 
Q 37.3125 48.390625 33.40625 48.390625 
Q 24.65625 48.390625 19.8125 42.84375 
Q 14.984375 37.3125 14.984375 27.296875 
Q 14.984375 17.28125 19.8125 11.734375 
Q 24.65625 6.203125 33.40625 6.203125 
Q 37.3125 6.203125 41.140625 7.25 
Q 44.96875 8.296875 48.78125 10.40625 
L 48.78125 2.09375 
Q 45.015625 0.34375 40.984375 -0.53125 
Q 36.96875 -1.421875 32.421875 -1.421875 
Q 20.0625 -1.421875 12.78125 6.34375 
Q 5.515625 14.109375 5.515625 27.296875 
Q 5.515625 40.671875 12.859375 48.328125 
Q 20.21875 56 33.015625 56 
Q 37.15625 56 41.109375 55.140625 
Q 45.0625 54.296875 48.78125 52.59375 
z
" id="DejaVuSans-99"/>
      <path d="M 9.421875 75.984375 
L 18.40625 75.984375 
L 18.40625 0 
L 9.421875 0 
z
" id="DejaVuSans-108"/>
     </defs>
     <g transform="translate(410.13625 501.123625)scale(0.16 -0.16)">
      <use xlink:href="#DejaVuSans-83"/>
      <use x="63.476562" xlink:href="#DejaVuSans-104"/>
      <use x="126.855469" xlink:href="#DejaVuSans-111"/>
      <use x="188.037109" xlink:href="#DejaVuSans-114"/>
      <use x="229.150391" xlink:href="#DejaVuSans-116"/>
      <use x="268.359375" xlink:href="#DejaVuSans-97"/>
      <use x="329.638672" xlink:href="#DejaVuSans-103"/>
      <use x="393.115234" xlink:href="#DejaVuSans-101"/>
      <use x="454.638672" xlink:href="#DejaVuSans-32"/>
      <use x="486.425781" xlink:href="#DejaVuSans-109"/>
      <use x="583.837891" xlink:href="#DejaVuSans-97"/>
      <use x="645.117188" xlink:href="#DejaVuSans-103"/>
      <use x="708.59375" xlink:href="#DejaVuSans-110"/>
      <use x="771.972656" xlink:href="#DejaVuSans-105"/>
      <use x="799.755859" xlink:href="#DejaVuSans-116"/>
      <use x="838.964844" xlink:href="#DejaVuSans-117"/>
      <use x="902.34375" xlink:href="#DejaVuSans-100"/>
      <use x="965.820312" xlink:href="#DejaVuSans-101"/>
      <use x="1027.34375" xlink:href="#DejaVuSans-32"/>
      <use x="1059.130859" xlink:href="#DejaVuSans-112"/>
      <use x="1122.607422" xlink:href="#DejaVuSans-101"/>
      <use x="1184.130859" xlink:href="#DejaVuSans-114"/>
      <use x="1225.212891" xlink:href="#DejaVuSans-99"/>
      <use x="1280.193359" xlink:href="#DejaVuSans-101"/>
      <use x="1341.716797" xlink:href="#DejaVuSans-110"/>
      <use x="1405.095703" xlink:href="#DejaVuSans-116"/>
      <use x="1444.304688" xlink:href="#DejaVuSans-105"/>
      <use x="1472.087891" xlink:href="#DejaVuSans-108"/>
      <use x="1499.871094" xlink:href="#DejaVuSans-101"/>
     </g>
    </g>
   </g>
   <g id="matplotlib.axis_2">
    <g id="ytick_1">
     <g id="line2d_7">
      <defs>
       <path d="M 0 0 
L -3.5 0 
" id="md4306ac4b9" style="stroke:#000000;stroke-width:0.8;"/>
      </defs>
      <g>
       <use style="stroke:#000000;stroke-width:0.8;" x="130.5" xlink:href="#md4306ac4b9" y="468.288"/>
      </g>
     </g>
     <g id="text_8">
      <!-- 0.0 -->
      <defs>
       <path d="M 10.6875 12.40625 
L 21 12.40625 
L 21 0 
L 10.6875 0 
z
" id="DejaVuSans-46"/>
      </defs>
      <g transform="translate(107.596875 472.087219)scale(0.1 -0.1)">
       <use xlink:href="#DejaVuSans-48"/>
       <use x="63.623047" xlink:href="#DejaVuSans-46"/>
       <use x="95.410156" xlink:href="#DejaVuSans-48"/>
      </g>
     </g>
    </g>
    <g id="ytick_2">
     <g id="line2d_8">
      <g>
       <use style="stroke:#000000;stroke-width:0.8;" x="130.5" xlink:href="#md4306ac4b9" y="397.3248"/>
      </g>
     </g>
     <g id="text_9">
      <!-- 0.2 -->
      <g transform="translate(107.596875 401.124019)scale(0.1 -0.1)">
       <use xlink:href="#DejaVuSans-48"/>
       <use x="63.623047" xlink:href="#DejaVuSans-46"/>
       <use x="95.410156" xlink:href="#DejaVuSans-50"/>
      </g>
     </g>
    </g>
    <g id="ytick_3">
     <g id="line2d_9">
      <g>
       <use style="stroke:#000000;stroke-width:0.8;" x="130.5" xlink:href="#md4306ac4b9" y="326.3616"/>
      </g>
     </g>
     <g id="text_10">
      <!-- 0.4 -->
      <g transform="translate(107.596875 330.160819)scale(0.1 -0.1)">
       <use xlink:href="#DejaVuSans-48"/>
       <use x="63.623047" xlink:href="#DejaVuSans-46"/>
       <use x="95.410156" xlink:href="#DejaVuSans-52"/>
      </g>
     </g>
    </g>
    <g id="ytick_4">
     <g id="line2d_10">
      <g>
       <use style="stroke:#000000;stroke-width:0.8;" x="130.5" xlink:href="#md4306ac4b9" y="255.3984"/>
      </g>
     </g>
     <g id="text_11">
      <!-- 0.6 -->
      <g transform="translate(107.596875 259.197619)scale(0.1 -0.1)">
       <use xlink:href="#DejaVuSans-48"/>
       <use x="63.623047" xlink:href="#DejaVuSans-46"/>
       <use x="95.410156" xlink:href="#DejaVuSans-54"/>
      </g>
     </g>
    </g>
    <g id="ytick_5">
     <g id="line2d_11">
      <g>
       <use style="stroke:#000000;stroke-width:0.8;" x="130.5" xlink:href="#md4306ac4b9" y="184.4352"/>
      </g>
     </g>
     <g id="text_12">
      <!-- 0.8 -->
      <g transform="translate(107.596875 188.234419)scale(0.1 -0.1)">
       <use xlink:href="#DejaVuSans-48"/>
       <use x="63.623047" xlink:href="#DejaVuSans-46"/>
       <use x="95.410156" xlink:href="#DejaVuSans-56"/>
      </g>
     </g>
    </g>
    <g id="ytick_6">
     <g id="line2d_12">
      <g>
       <use style="stroke:#000000;stroke-width:0.8;" x="130.5" xlink:href="#md4306ac4b9" y="113.472"/>
      </g>
     </g>
     <g id="text_13">
      <!-- 1.0 -->
      <g transform="translate(107.596875 117.271219)scale(0.1 -0.1)">
       <use xlink:href="#DejaVuSans-49"/>
       <use x="63.623047" xlink:href="#DejaVuSans-46"/>
       <use x="95.410156" xlink:href="#DejaVuSans-48"/>
      </g>
     </g>
    </g>
    <g id="text_14">
     <!-- Variance explained -->
     <defs>
      <path d="M 28.609375 0 
L 0.78125 72.90625 
L 11.078125 72.90625 
L 34.1875 11.53125 
L 57.328125 72.90625 
L 67.578125 72.90625 
L 39.796875 0 
z
" id="DejaVuSans-86"/>
      <path d="M 54.890625 54.6875 
L 35.109375 28.078125 
L 55.90625 0 
L 45.3125 0 
L 29.390625 21.484375 
L 13.484375 0 
L 2.875 0 
L 24.125 28.609375 
L 4.6875 54.6875 
L 15.28125 54.6875 
L 29.78125 35.203125 
L 44.28125 54.6875 
z
" id="DejaVuSans-120"/>
     </defs>
     <g transform="translate(100.269375 367.7475)rotate(-90)scale(0.16 -0.16)">
      <use xlink:href="#DejaVuSans-86"/>
      <use x="68.298828" xlink:href="#DejaVuSans-97"/>
      <use x="129.578125" xlink:href="#DejaVuSans-114"/>
      <use x="170.691406" xlink:href="#DejaVuSans-105"/>
      <use x="198.474609" xlink:href="#DejaVuSans-97"/>
      <use x="259.753906" xlink:href="#DejaVuSans-110"/>
      <use x="323.132812" xlink:href="#DejaVuSans-99"/>
      <use x="378.113281" xlink:href="#DejaVuSans-101"/>
      <use x="439.636719" xlink:href="#DejaVuSans-32"/>
      <use x="471.423828" xlink:href="#DejaVuSans-101"/>
      <use x="532.931641" xlink:href="#DejaVuSans-120"/>
      <use x="592.111328" xlink:href="#DejaVuSans-112"/>
      <use x="655.587891" xlink:href="#DejaVuSans-108"/>
      <use x="683.371094" xlink:href="#DejaVuSans-97"/>
      <use x="744.650391" xlink:href="#DejaVuSans-105"/>
      <use x="772.433594" xlink:href="#DejaVuSans-110"/>
      <use x="835.8125" xlink:href="#DejaVuSans-101"/>
      <use x="897.335938" xlink:href="#DejaVuSans-100"/>
     </g>
    </g>
   </g>
   <g id="line2d_13">
    <path clip-path="url(#pb755da63f6)" d="M 154.773 468.235273 
L 162.864 468.235273 
L 170.955 468.200386 
L 179.046 468.20911 
L 187.137 468.235746 
L 195.228 468.218847 
L 203.319 468.192387 
L 211.41 468.1718 
L 219.501 468.227471 
L 227.592 468.268995 
L 235.683 468.269529 
L 243.774 468.2769 
L 251.865 468.287675 
L 259.956 468.276052 
L 268.047 468.249865 
L 276.138 468.218458 
L 284.229 468.207928 
L 292.32 468.156466 
L 300.411 468.044186 
L 308.502 468.040814 
L 316.593 468.010166 
L 324.684 468.000604 
L 332.775 467.965395 
L 340.866 467.995451 
L 348.957 467.971276 
L 357.048 467.942506 
L 365.139 467.959284 
L 373.23 467.942919 
L 381.321 467.924351 
L 389.412 467.895662 
L 397.503 467.895366 
L 405.594 467.889118 
L 413.685 467.881722 
L 421.776 467.876078 
L 429.867 467.844211 
L 437.958 467.806296 
L 446.049 467.765061 
L 454.14 467.71962 
L 462.231 467.683644 
L 470.322 467.668135 
L 478.413 467.678271 
L 486.504 467.66398 
L 494.595 467.667714 
L 502.686 467.663599 
L 510.777 467.644243 
L 518.868 467.605808 
L 526.959 467.578663 
L 535.05 467.559078 
L 543.141 467.550564 
L 551.232 467.544582 
L 559.323 467.561342 
L 567.414 467.549198 
L 575.505 467.560876 
L 583.596 467.574199 
L 591.687 467.616418 
L 599.778 467.645209 
L 607.869 467.664213 
L 615.96 467.649763 
L 624.051 467.638533 
L 632.142 467.64314 
L 640.233 467.620673 
L 648.324 467.577968 
L 656.415 467.519365 
L 664.506 467.452059 
L 672.597 467.401266 
L 680.688 467.363362 
L 688.779 467.311552 
L 696.87 467.29428 
L 704.961 467.260249 
L 713.052 467.25299 
L 721.143 467.299519 
L 729.234 467.296433 
L 737.325 467.287633 
L 745.416 467.291382 
L 753.507 467.274108 
L 761.598 467.230049 
L 769.689 467.199629 
L 777.78 467.201326 
L 785.871 467.185081 
L 793.962 467.166867 
L 802.053 467.143904 
L 810.144 467.09486 
L 818.235 467.108307 
L 826.326 467.128124 
L 834.417 467.079957 
L 842.508 466.961233 
L 850.599 466.846546 
L 858.69 466.663182 
L 866.781 466.363125 
L 874.872 466.097337 
L 882.963 466.026628 
L 891.054 465.951061 
L 899.145 466.160412 
L 907.236 466.57284 
L 915.327 467.179035 
L 923.418 467.590839 
L 931.509 467.994784 
" style="fill:none;stroke:#f18670;stroke-linecap:square;stroke-width:2;"/>
   </g>
   <g id="line2d_14">
    <path clip-path="url(#pb755da63f6)" d="M 154.773 468.277123 
L 162.864 468.277123 
L 170.955 468.269926 
L 179.046 468.272377 
L 187.137 468.27898 
L 195.228 468.275981 
L 203.319 468.270465 
L 211.41 468.258348 
L 219.501 468.237733 
L 227.592 468.245734 
L 235.683 468.250985 
L 243.774 468.269519 
L 251.865 468.283072 
L 259.956 468.283673 
L 268.047 468.270863 
L 276.138 468.250423 
L 284.229 468.25947 
L 292.32 468.263686 
L 300.411 468.231861 
L 308.502 468.195518 
L 316.593 468.114815 
L 324.684 468.06994 
L 332.775 468.027831 
L 340.866 468.022958 
L 348.957 467.908402 
L 357.048 467.882586 
L 365.139 467.790835 
L 373.23 467.736606 
L 381.321 467.713852 
L 389.412 467.704211 
L 397.503 467.700376 
L 405.594 467.690102 
L 413.685 467.673993 
L 421.776 467.683176 
L 429.867 467.642159 
L 437.958 467.589983 
L 446.049 467.58753 
L 454.14 467.604383 
L 462.231 467.62421 
L 470.322 467.617971 
L 478.413 467.597496 
L 486.504 467.583889 
L 494.595 467.557237 
L 502.686 467.544967 
L 510.777 467.552896 
L 518.868 467.543023 
L 526.959 467.562083 
L 535.05 467.531555 
L 543.141 467.516813 
L 551.232 467.505343 
L 559.323 467.471231 
L 567.414 467.436409 
L 575.505 467.438105 
L 583.596 467.463262 
L 591.687 467.512327 
L 599.778 467.527774 
L 607.869 467.560923 
L 615.96 467.589084 
L 624.051 467.62868 
L 632.142 467.653223 
L 640.233 467.686803 
L 648.324 467.743792 
L 656.415 467.777609 
L 664.506 467.800471 
L 672.597 467.841721 
L 680.688 467.88195 
L 688.779 467.93543 
L 696.87 467.972899 
L 704.961 467.985222 
L 713.052 468.027724 
L 721.143 468.03289 
L 729.234 468.031267 
L 737.325 468.036696 
L 745.416 468.041592 
L 753.507 468.046656 
L 761.598 468.048395 
L 769.689 468.067508 
L 777.78 468.071568 
L 785.871 468.052799 
L 793.962 468.015325 
L 802.053 468.040618 
L 810.144 468.040725 
L 818.235 468.046849 
L 826.326 468.075399 
L 834.417 468.095347 
L 842.508 468.102793 
L 850.599 468.101174 
L 858.69 468.110283 
L 866.781 468.135783 
L 874.872 468.184076 
L 882.963 468.191569 
L 891.054 468.238469 
L 899.145 468.235419 
L 907.236 468.245192 
L 915.327 468.269743 
L 923.418 468.216358 
L 931.509 468.250547 
" style="fill:none;stroke:#e24d3f;stroke-linecap:square;stroke-width:2;"/>
   </g>
   <g id="line2d_15">
    <path clip-path="url(#pb755da63f6)" d="M 154.773 468.224242 
L 162.864 468.224242 
L 170.955 468.182056 
L 179.046 468.140544 
L 187.137 468.028775 
L 195.228 467.957592 
L 203.319 467.861879 
L 211.41 467.723148 
L 219.501 467.517652 
L 227.592 467.414435 
L 235.683 467.508835 
L 243.774 467.71158 
L 251.865 467.881751 
L 259.956 467.94871 
L 268.047 467.980335 
L 276.138 468.060509 
L 284.229 468.06869 
L 292.32 468.139599 
L 300.411 468.224097 
L 308.502 468.253072 
L 316.593 468.263169 
L 324.684 468.276697 
L 332.775 468.287051 
L 340.866 468.287812 
L 348.957 468.274336 
L 357.048 468.268837 
L 365.139 468.251889 
L 373.23 468.260399 
L 381.321 468.258621 
L 389.412 468.249333 
L 397.503 468.246086 
L 405.594 468.240334 
L 413.685 468.230467 
L 421.776 468.22236 
L 429.867 468.222839 
L 437.958 468.230402 
L 446.049 468.24013 
L 454.14 468.247798 
L 462.231 468.248494 
L 470.322 468.253461 
L 478.413 468.257119 
L 486.504 468.261073 
L 494.595 468.266687 
L 502.686 468.275198 
L 510.777 468.276959 
L 518.868 468.275102 
L 526.959 468.271513 
L 535.05 468.274113 
L 543.141 468.275791 
L 551.232 468.277331 
L 559.323 468.277133 
L 567.414 468.277752 
L 575.505 468.276374 
L 583.596 468.276318 
L 591.687 468.278946 
L 599.778 468.280154 
L 607.869 468.279376 
L 615.96 468.279498 
L 624.051 468.2818 
L 632.142 468.282114 
L 640.233 468.279994 
L 648.324 468.278179 
L 656.415 468.280984 
L 664.506 468.28197 
L 672.597 468.281237 
L 680.688 468.280341 
L 688.779 468.277631 
L 696.87 468.277521 
L 704.961 468.276136 
L 713.052 468.267523 
L 721.143 468.260909 
L 729.234 468.258363 
L 737.325 468.266043 
L 745.416 468.264645 
L 753.507 468.2626 
L 761.598 468.25783 
L 769.689 468.249349 
L 777.78 468.257219 
L 785.871 468.263085 
L 793.962 468.266822 
L 802.053 468.26643 
L 810.144 468.261503 
L 818.235 468.262094 
L 826.326 468.266237 
L 834.417 468.275325 
L 842.508 468.282559 
L 850.599 468.28467 
L 858.69 468.28415 
L 866.781 468.286212 
L 874.872 468.2876 
L 882.963 468.285822 
L 891.054 468.280677 
L 899.145 468.277173 
L 907.236 468.2773 
L 915.327 468.28324 
L 923.418 468.285681 
L 931.509 468.285161 
" style="fill:none;stroke:#cf233e;stroke-linecap:square;stroke-width:2;"/>
   </g>
   <g id="line2d_16">
    <path clip-path="url(#pb755da63f6)" d="M 154.773 468.243225 
L 162.864 468.243225 
L 170.955 468.213599 
L 179.046 468.215415 
L 187.137 468.227007 
L 195.228 468.208152 
L 203.319 468.183172 
L 211.41 468.1804 
L 219.501 468.24802 
L 227.592 468.286899 
L 235.683 468.282946 
L 243.774 468.264304 
L 251.865 468.231023 
L 259.956 468.183585 
L 268.047 468.127973 
L 276.138 468.05214 
L 284.229 467.872331 
L 292.32 467.649326 
L 300.411 467.487045 
L 308.502 467.463052 
L 316.593 467.416919 
L 324.684 467.368341 
L 332.775 467.419655 
L 340.866 467.336413 
L 348.957 467.433796 
L 357.048 467.527796 
L 365.139 467.58328 
L 373.23 467.612289 
L 381.321 467.637432 
L 389.412 467.651473 
L 397.503 467.633728 
L 405.594 467.674807 
L 413.685 467.740831 
L 421.776 467.77594 
L 429.867 467.797594 
L 437.958 467.803179 
L 446.049 467.804118 
L 454.14 467.810858 
L 462.231 467.821312 
L 470.322 467.823003 
L 478.413 467.812775 
L 486.504 467.814551 
L 494.595 467.820782 
L 502.686 467.848514 
L 510.777 467.899706 
L 518.868 467.901669 
L 526.959 467.892195 
L 535.05 467.874446 
L 543.141 467.87736 
L 551.232 467.867945 
L 559.323 467.885932 
L 567.414 467.919678 
L 575.505 467.939985 
L 583.596 467.977558 
L 591.687 467.994206 
L 599.778 468.006876 
L 607.869 468.036048 
L 615.96 468.048076 
L 624.051 468.060096 
L 632.142 468.069448 
L 640.233 468.066008 
L 648.324 468.072364 
L 656.415 468.088301 
L 664.506 468.090847 
L 672.597 468.08726 
L 680.688 468.093356 
L 688.779 468.106337 
L 696.87 468.129274 
L 704.961 468.129102 
L 713.052 468.132265 
L 721.143 468.12201 
L 729.234 468.104161 
L 737.325 468.06646 
L 745.416 468.05696 
L 753.507 468.038583 
L 761.598 468.039977 
L 769.689 468.048825 
L 777.78 468.059209 
L 785.871 468.053889 
L 793.962 468.055779 
L 802.053 468.044717 
L 810.144 468.068886 
L 818.235 468.088939 
L 826.326 468.090966 
L 834.417 468.110862 
L 842.508 468.149896 
L 850.599 468.175921 
L 858.69 468.183959 
L 866.781 468.191344 
L 874.872 468.196809 
L 882.963 468.214127 
L 891.054 468.225887 
L 899.145 468.180431 
L 907.236 468.185627 
L 915.327 468.246734 
L 923.418 468.276731 
L 931.509 468.229821 
" style="fill:none;stroke:#681e33;stroke-linecap:square;stroke-width:2;"/>
   </g>
   <g id="line2d_17">
    <path clip-path="url(#pb755da63f6)" d="M 154.773 468.191928 
L 162.864 468.191928 
L 170.955 468.12836 
L 179.046 468.141216 
L 187.137 468.18416 
L 195.228 468.151006 
L 203.319 468.103662 
L 211.41 468.077073 
L 219.501 468.124171 
L 227.592 468.181485 
L 235.683 468.205809 
L 243.774 468.201942 
L 251.865 468.214776 
L 259.956 468.247338 
L 268.047 468.2784 
L 276.138 468.286341 
L 284.229 468.262034 
L 292.32 468.248854 
L 300.411 468.25814 
L 308.502 468.274577 
L 316.593 468.279939 
L 324.684 468.269031 
L 332.775 468.280437 
L 340.866 468.284983 
L 348.957 468.285177 
L 357.048 468.287192 
L 365.139 468.286122 
L 373.23 468.280389 
L 381.321 468.276433 
L 389.412 468.277609 
L 397.503 468.275396 
L 405.594 468.269369 
L 413.685 468.266944 
L 421.776 468.271703 
L 429.867 468.276119 
L 437.958 468.278484 
L 446.049 468.280535 
L 454.14 468.28101 
L 462.231 468.282882 
L 470.322 468.284766 
L 478.413 468.286857 
L 486.504 468.287849 
L 494.595 468.287941 
L 502.686 468.287951 
L 510.777 468.287495 
L 518.868 468.287385 
L 526.959 468.287382 
L 535.05 468.286718 
L 543.141 468.286969 
L 551.232 468.287693 
L 559.323 468.287939 
L 567.414 468.287996 
L 575.505 468.287932 
L 583.596 468.287887 
L 591.687 468.287995 
L 599.778 468.287993 
L 607.869 468.287861 
L 615.96 468.287995 
L 624.051 468.287625 
L 632.142 468.286508 
L 640.233 468.284869 
L 648.324 468.284522 
L 656.415 468.282969 
L 664.506 468.283018 
L 672.597 468.282777 
L 680.688 468.283533 
L 688.779 468.282955 
L 696.87 468.284333 
L 704.961 468.284681 
L 713.052 468.285183 
L 721.143 468.286026 
L 729.234 468.285576 
L 737.325 468.285376 
L 745.416 468.283495 
L 753.507 468.282495 
L 761.598 468.279947 
L 769.689 468.279946 
L 777.78 468.276982 
L 785.871 468.277405 
L 793.962 468.268672 
L 802.053 468.263855 
L 810.144 468.252967 
L 818.235 468.241239 
L 826.326 468.246309 
L 834.417 468.25807 
L 842.508 468.259771 
L 850.599 468.265566 
L 858.69 468.276419 
L 866.781 468.280762 
L 874.872 468.279173 
L 882.963 468.274077 
L 891.054 468.260386 
L 899.145 468.235131 
L 907.236 468.229882 
L 915.327 468.1994 
L 923.418 468.217227 
L 931.509 468.162887 
" style="fill:none;stroke:#676572;stroke-linecap:square;stroke-width:2;"/>
   </g>
   <g id="line2d_18">
    <path clip-path="url(#pb755da63f6)" d="M 154.773 468.273571 
L 162.864 468.273571 
L 170.955 468.264023 
L 179.046 468.271434 
L 187.137 468.284743 
L 195.228 468.283336 
L 203.319 468.280892 
L 211.41 468.283496 
L 219.501 468.285995 
L 227.592 468.27142 
L 235.683 468.270278 
L 243.774 468.265413 
L 251.865 468.264593 
L 259.956 468.262643 
L 268.047 468.24511 
L 276.138 468.257257 
L 284.229 468.265015 
L 292.32 468.260983 
L 300.411 468.280509 
L 308.502 468.286998 
L 316.593 468.285815 
L 324.684 468.287953 
L 332.775 468.281165 
L 340.866 468.274595 
L 348.957 468.278104 
L 357.048 468.273754 
L 365.139 468.275156 
L 373.23 468.270336 
L 381.321 468.256244 
L 389.412 468.238575 
L 397.503 468.224314 
L 405.594 468.223209 
L 413.685 468.222846 
L 421.776 468.212487 
L 429.867 468.194809 
L 437.958 468.181814 
L 446.049 468.15861 
L 454.14 468.129369 
L 462.231 468.113705 
L 470.322 468.108941 
L 478.413 468.113376 
L 486.504 468.095633 
L 494.595 468.080578 
L 502.686 468.076161 
L 510.777 468.05648 
L 518.868 468.030176 
L 526.959 467.994354 
L 535.05 467.961859 
L 543.141 467.945571 
L 551.232 467.93308 
L 559.323 467.93145 
L 567.414 467.923033 
L 575.505 467.924769 
L 583.596 467.938275 
L 591.687 467.954527 
L 599.778 467.955156 
L 607.869 467.955346 
L 615.96 467.952601 
L 624.051 467.964663 
L 632.142 467.978952 
L 640.233 467.985984 
L 648.324 467.9823 
L 656.415 467.986469 
L 664.506 467.989967 
L 672.597 467.996172 
L 680.688 467.99937 
L 688.779 467.990551 
L 696.87 467.98571 
L 704.961 467.978461 
L 713.052 467.964838 
L 721.143 467.987449 
L 729.234 467.990092 
L 737.325 467.964539 
L 745.416 468.009933 
L 753.507 468.004733 
L 761.598 468.025785 
L 769.689 468.051074 
L 777.78 468.061057 
L 785.871 468.07161 
L 793.962 468.083013 
L 802.053 468.077768 
L 810.144 468.03 
L 818.235 468.007009 
L 826.326 467.993001 
L 834.417 467.976489 
L 842.508 467.959077 
L 850.599 467.941045 
L 858.69 467.935765 
L 866.781 467.93165 
L 874.872 467.962545 
L 882.963 467.997753 
L 891.054 467.981995 
L 899.145 468.012148 
L 907.236 468.005131 
L 915.327 468.017986 
L 923.418 468.120243 
L 931.509 468.084129 
" style="fill:none;stroke:#f3be22;stroke-linecap:square;stroke-width:2;"/>
   </g>
   <g id="line2d_19">
    <path clip-path="url(#pb755da63f6)" d="M 154.773 468.286158 
L 162.864 468.286158 
L 170.955 468.284939 
L 179.046 468.282134 
L 187.137 468.27228 
L 195.228 468.268192 
L 203.319 468.263741 
L 211.41 468.261866 
L 219.501 468.258347 
L 227.592 468.266202 
L 235.683 468.279975 
L 243.774 468.284345 
L 251.865 468.286242 
L 259.956 468.284453 
L 268.047 468.276801 
L 276.138 468.275273 
L 284.229 468.272995 
L 292.32 468.260108 
L 300.411 468.237448 
L 308.502 468.183447 
L 316.593 468.147285 
L 324.684 468.149667 
L 332.775 468.18601 
L 340.866 468.189994 
L 348.957 468.182101 
L 357.048 468.160793 
L 365.139 468.139374 
L 373.23 468.125485 
L 381.321 468.125637 
L 389.412 468.138471 
L 397.503 468.154057 
L 405.594 468.172263 
L 413.685 468.17526 
L 421.776 468.186374 
L 429.867 468.205397 
L 437.958 468.216931 
L 446.049 468.22597 
L 454.14 468.225093 
L 462.231 468.224842 
L 470.322 468.229004 
L 478.413 468.232658 
L 486.504 468.232589 
L 494.595 468.23877 
L 502.686 468.240697 
L 510.777 468.23658 
L 518.868 468.225891 
L 526.959 468.212379 
L 535.05 468.22358 
L 543.141 468.224084 
L 551.232 468.223297 
L 559.323 468.209079 
L 567.414 468.186632 
L 575.505 468.187601 
L 583.596 468.192586 
L 591.687 468.189232 
L 599.778 468.186274 
L 607.869 468.191472 
L 615.96 468.200903 
L 624.051 468.205255 
L 632.142 468.205973 
L 640.233 468.205189 
L 648.324 468.209976 
L 656.415 468.216664 
L 664.506 468.224839 
L 672.597 468.232123 
L 680.688 468.230358 
L 688.779 468.230852 
L 696.87 468.234174 
L 704.961 468.226736 
L 713.052 468.212833 
L 721.143 468.201266 
L 729.234 468.196363 
L 737.325 468.203544 
L 745.416 468.201259 
L 753.507 468.217911 
L 761.598 468.210812 
L 769.689 468.207994 
L 777.78 468.204645 
L 785.871 468.183855 
L 793.962 468.185955 
L 802.053 468.193559 
L 810.144 468.200906 
L 818.235 468.22121 
L 826.326 468.235374 
L 834.417 468.24291 
L 842.508 468.239185 
L 850.599 468.227965 
L 858.69 468.214795 
L 866.781 468.22469 
L 874.872 468.211465 
L 882.963 468.213486 
L 891.054 468.214852 
L 899.145 468.202181 
L 907.236 468.162147 
L 915.327 468.121995 
L 923.418 468.125483 
L 931.509 468.225723 
" style="fill:none;stroke:#59deba;stroke-linecap:square;stroke-width:2;"/>
   </g>
   <g id="line2d_20">
    <path clip-path="url(#pb755da63f6)" d="M 154.773 468.181608 
L 162.864 468.181608 
L 170.955 468.111213 
L 179.046 468.060387 
L 187.137 467.93674 
L 195.228 467.838465 
L 203.319 467.70235 
L 211.41 467.495551 
L 219.501 467.090336 
L 227.592 466.564205 
L 235.683 465.944526 
L 243.774 465.338044 
L 251.865 464.529711 
L 259.956 463.322675 
L 268.047 462.14649 
L 276.138 460.613092 
L 284.229 458.758499 
L 292.32 457.434421 
L 300.411 455.922687 
L 308.502 454.608837 
L 316.593 453.280412 
L 324.684 451.557424 
L 332.775 450.801781 
L 340.866 450.139032 
L 348.957 449.882063 
L 357.048 449.530071 
L 365.139 449.723302 
L 373.23 449.615103 
L 381.321 449.59152 
L 389.412 449.733365 
L 397.503 449.768935 
L 405.594 449.869084 
L 413.685 449.929872 
L 421.776 450.114341 
L 429.867 450.264816 
L 437.958 450.151882 
L 446.049 450.061561 
L 454.14 449.895222 
L 462.231 449.549796 
L 470.322 449.191679 
L 478.413 448.755625 
L 486.504 448.162336 
L 494.595 447.590876 
L 502.686 447.010926 
L 510.777 446.563764 
L 518.868 446.013861 
L 526.959 445.591449 
L 535.05 445.025778 
L 543.141 444.535137 
L 551.232 443.914501 
L 559.323 443.310979 
L 567.414 442.776705 
L 575.505 442.262207 
L 583.596 441.861633 
L 591.687 441.593409 
L 599.778 441.254949 
L 607.869 441.131888 
L 615.96 440.898998 
L 624.051 440.765294 
L 632.142 440.696912 
L 640.233 440.561916 
L 648.324 440.274617 
L 656.415 439.925248 
L 664.506 439.706276 
L 672.597 439.46532 
L 680.688 439.20582 
L 688.779 438.666737 
L 696.87 438.127603 
L 704.961 437.632235 
L 713.052 437.294537 
L 721.143 436.971695 
L 729.234 436.895038 
L 737.325 436.599965 
L 745.416 436.315962 
L 753.507 435.901868 
L 761.598 435.255467 
L 769.689 434.811342 
L 777.78 434.637472 
L 785.871 434.407708 
L 793.962 434.116928 
L 802.053 434.273861 
L 810.144 434.842743 
L 818.235 435.497712 
L 826.326 435.740471 
L 834.417 435.950417 
L 842.508 436.090068 
L 850.599 435.81764 
L 858.69 435.253045 
L 866.781 434.383632 
L 874.872 432.854774 
L 882.963 431.780492 
L 891.054 430.093804 
L 899.145 430.120134 
L 907.236 431.050452 
L 915.327 434.809797 
L 923.418 438.36268 
L 931.509 442.151186 
" style="fill:none;stroke:#14015c;stroke-linecap:square;stroke-width:2;"/>
   </g>
   <g id="line2d_21">
    <path clip-path="url(#pb755da63f6)" d="M 154.773 468.212174 
L 162.864 468.212174 
L 170.955 468.162004 
L 179.046 468.142901 
L 187.137 468.107038 
L 195.228 468.054734 
L 203.319 467.98543 
L 211.41 467.9504 
L 219.501 468.06459 
L 227.592 468.195732 
L 235.683 468.247357 
L 243.774 468.269002 
L 251.865 468.279017 
L 259.956 468.287864 
L 268.047 468.287159 
L 276.138 468.277093 
L 284.229 468.260099 
L 292.32 468.214358 
L 300.411 468.194002 
L 308.502 468.19667 
L 316.593 468.183295 
L 324.684 468.19089 
L 332.775 468.226251 
L 340.866 468.240283 
L 348.957 468.258112 
L 357.048 468.247423 
L 365.139 468.250693 
L 373.23 468.264618 
L 381.321 468.27187 
L 389.412 468.274046 
L 397.503 468.275836 
L 405.594 468.281433 
L 413.685 468.286406 
L 421.776 468.287986 
L 429.867 468.286702 
L 437.958 468.285207 
L 446.049 468.283586 
L 454.14 468.281906 
L 462.231 468.28093 
L 470.322 468.277139 
L 478.413 468.273301 
L 486.504 468.274022 
L 494.595 468.273736 
L 502.686 468.268163 
L 510.777 468.264367 
L 518.868 468.262898 
L 526.959 468.256924 
L 535.05 468.25291 
L 543.141 468.254383 
L 551.232 468.253551 
L 559.323 468.243247 
L 567.414 468.238561 
L 575.505 468.241926 
L 583.596 468.234414 
L 591.687 468.221595 
L 599.778 468.211155 
L 607.869 468.198408 
L 615.96 468.199313 
L 624.051 468.199992 
L 632.142 468.202771 
L 640.233 468.211548 
L 648.324 468.217843 
L 656.415 468.23014 
L 664.506 468.239052 
L 672.597 468.240335 
L 680.688 468.240736 
L 688.779 468.24228 
L 696.87 468.257169 
L 704.961 468.263616 
L 713.052 468.266238 
L 721.143 468.26663 
L 729.234 468.271539 
L 737.325 468.272563 
L 745.416 468.277817 
L 753.507 468.279238 
L 761.598 468.285628 
L 769.689 468.286327 
L 777.78 468.287824 
L 785.871 468.284742 
L 793.962 468.270524 
L 802.053 468.265005 
L 810.144 468.26911 
L 818.235 468.272424 
L 826.326 468.274864 
L 834.417 468.273539 
L 842.508 468.270459 
L 850.599 468.269623 
L 858.69 468.278787 
L 866.781 468.284064 
L 874.872 468.280685 
L 882.963 468.276553 
L 891.054 468.265329 
L 899.145 468.223408 
L 907.236 468.216608 
L 915.327 468.217028 
L 923.418 468.209588 
L 931.509 468.263596 
" style="fill:none;stroke:#daf8a3;stroke-linecap:square;stroke-width:2;"/>
   </g>
   <g id="line2d_22">
    <path clip-path="url(#pb755da63f6)" d="M 154.773 468.224251 
L 162.864 468.224251 
L 170.955 468.182071 
L 179.046 468.175335 
L 187.137 468.170112 
L 195.228 468.135045 
L 203.319 468.083876 
L 211.41 468.021619 
L 219.501 467.968967 
L 227.592 467.892877 
L 235.683 467.743697 
L 243.774 467.507955 
L 251.865 467.183796 
L 259.956 466.84047 
L 268.047 466.368711 
L 276.138 465.784803 
L 284.229 464.96156 
L 292.32 463.910664 
L 300.411 462.588554 
L 308.502 461.268595 
L 316.593 459.685426 
L 324.684 458.55946 
L 332.775 457.34428 
L 340.866 456.107805 
L 348.957 454.884637 
L 357.048 453.617671 
L 365.139 452.73518 
L 373.23 452.281692 
L 381.321 451.92505 
L 389.412 451.778904 
L 397.503 451.645229 
L 405.594 451.443086 
L 413.685 451.462814 
L 421.776 451.522528 
L 429.867 451.513439 
L 437.958 451.824467 
L 446.049 452.230547 
L 454.14 452.467707 
L 462.231 452.611574 
L 470.322 452.818718 
L 478.413 453.000102 
L 486.504 453.069156 
L 494.595 453.329395 
L 502.686 453.416764 
L 510.777 453.436333 
L 518.868 453.398703 
L 526.959 453.274727 
L 535.05 453.234514 
L 543.141 453.10121 
L 551.232 453.037625 
L 559.323 452.884147 
L 567.414 452.723726 
L 575.505 452.769393 
L 583.596 452.697387 
L 591.687 452.78227 
L 599.778 452.720733 
L 607.869 452.831617 
L 615.96 452.972263 
L 624.051 453.246393 
L 632.142 453.637771 
L 640.233 454.041007 
L 648.324 454.451077 
L 656.415 454.902517 
L 664.506 455.344268 
L 672.597 455.66605 
L 680.688 455.858311 
L 688.779 456.054489 
L 696.87 456.191608 
L 704.961 456.472592 
L 713.052 456.83221 
L 721.143 456.86566 
L 729.234 457.037087 
L 737.325 457.07682 
L 745.416 457.180555 
L 753.507 457.102656 
L 761.598 457.029539 
L 769.689 456.870252 
L 777.78 456.99374 
L 785.871 456.890015 
L 793.962 456.858059 
L 802.053 456.97217 
L 810.144 457.240704 
L 818.235 457.475325 
L 826.326 457.938972 
L 834.417 458.413431 
L 842.508 458.853505 
L 850.599 459.417156 
L 858.69 459.955112 
L 866.781 460.368105 
L 874.872 460.61994 
L 882.963 460.667554 
L 891.054 460.410374 
L 899.145 459.301573 
L 907.236 458.738907 
L 915.327 458.585211 
L 923.418 460.091601 
L 931.509 461.117451 
" style="fill:none;stroke:#0b7a0a;stroke-linecap:square;stroke-width:2;"/>
   </g>
   <g id="line2d_23">
    <path clip-path="url(#pb755da63f6)" d="M 154.773 468.285175 
L 162.864 468.285175 
L 170.955 468.283306 
L 179.046 468.28497 
L 187.137 468.28765 
L 195.228 468.287473 
L 203.319 468.286965 
L 211.41 468.285898 
L 219.501 468.283853 
L 227.592 468.277551 
L 235.683 468.263014 
L 243.774 468.271436 
L 251.865 468.283228 
L 259.956 468.286938 
L 268.047 468.287478 
L 276.138 468.278675 
L 284.229 468.266375 
L 292.32 468.241257 
L 300.411 468.237218 
L 308.502 468.227471 
L 316.593 468.228434 
L 324.684 468.220602 
L 332.775 468.172926 
L 340.866 468.124636 
L 348.957 468.093231 
L 357.048 468.016713 
L 365.139 467.90127 
L 373.23 467.882653 
L 381.321 467.768937 
L 389.412 467.700445 
L 397.503 467.656074 
L 405.594 467.640465 
L 413.685 467.591059 
L 421.776 467.523037 
L 429.867 467.475593 
L 437.958 467.41575 
L 446.049 467.37493 
L 454.14 467.357706 
L 462.231 467.377491 
L 470.322 467.39978 
L 478.413 467.435044 
L 486.504 467.438701 
L 494.595 467.41684 
L 502.686 467.427466 
L 510.777 467.449937 
L 518.868 467.488437 
L 526.959 467.534648 
L 535.05 467.556782 
L 543.141 467.630665 
L 551.232 467.665332 
L 559.323 467.669677 
L 567.414 467.703842 
L 575.505 467.761609 
L 583.596 467.774452 
L 591.687 467.820644 
L 599.778 467.841429 
L 607.869 467.846232 
L 615.96 467.831033 
L 624.051 467.786847 
L 632.142 467.750826 
L 640.233 467.728609 
L 648.324 467.722746 
L 656.415 467.699106 
L 664.506 467.667423 
L 672.597 467.642762 
L 680.688 467.643794 
L 688.779 467.639416 
L 696.87 467.634731 
L 704.961 467.621025 
L 713.052 467.624578 
L 721.143 467.677041 
L 729.234 467.716216 
L 737.325 467.783184 
L 745.416 467.853346 
L 753.507 467.864752 
L 761.598 467.908377 
L 769.689 467.916959 
L 777.78 467.975412 
L 785.871 467.996681 
L 793.962 468.019376 
L 802.053 468.057842 
L 810.144 468.060419 
L 818.235 468.029587 
L 826.326 467.999019 
L 834.417 467.981246 
L 842.508 467.976034 
L 850.599 467.979745 
L 858.69 467.979291 
L 866.781 467.974404 
L 874.872 467.972694 
L 882.963 467.974745 
L 891.054 468.029534 
L 899.145 468.068971 
L 907.236 468.01927 
L 915.327 467.935927 
L 923.418 467.740323 
L 931.509 467.974332 
" style="fill:none;stroke:#f8ffa2;stroke-linecap:square;stroke-width:2;"/>
   </g>
   <g id="line2d_24">
    <path clip-path="url(#pb755da63f6)" d="M 154.773 468.190231 
L 162.864 468.190231 
L 170.955 468.125542 
L 179.046 468.075008 
L 187.137 467.948769 
L 195.228 467.854296 
L 203.319 467.73017 
L 211.41 467.572628 
L 219.501 467.241573 
L 227.592 466.866955 
L 235.683 466.477737 
L 243.774 466.289427 
L 251.865 466.319533 
L 259.956 466.017381 
L 268.047 465.416233 
L 276.138 464.948471 
L 284.229 464.510183 
L 292.32 464.328052 
L 300.411 464.137348 
L 308.502 463.454216 
L 316.593 462.703664 
L 324.684 461.953647 
L 332.775 462.002209 
L 340.866 461.578589 
L 348.957 461.507147 
L 357.048 461.432967 
L 365.139 461.234732 
L 373.23 461.198993 
L 381.321 461.405874 
L 389.412 461.460066 
L 397.503 461.552294 
L 405.594 461.868482 
L 413.685 462.102088 
L 421.776 462.225929 
L 429.867 462.45303 
L 437.958 462.62441 
L 446.049 462.733375 
L 454.14 462.830147 
L 462.231 462.914302 
L 470.322 463.0961 
L 478.413 463.253795 
L 486.504 463.293469 
L 494.595 463.348315 
L 502.686 463.406285 
L 510.777 463.389231 
L 518.868 463.39045 
L 526.959 463.286989 
L 535.05 463.264573 
L 543.141 463.103605 
L 551.232 463.012113 
L 559.323 462.959763 
L 567.414 462.972294 
L 575.505 462.926189 
L 583.596 462.87355 
L 591.687 462.852193 
L 599.778 462.819813 
L 607.869 462.841117 
L 615.96 462.862246 
L 624.051 462.839812 
L 632.142 462.893617 
L 640.233 463.077462 
L 648.324 463.222429 
L 656.415 463.317118 
L 664.506 463.413407 
L 672.597 463.501204 
L 680.688 463.598234 
L 688.779 463.705813 
L 696.87 463.769839 
L 704.961 463.824308 
L 713.052 463.86771 
L 721.143 463.844626 
L 729.234 463.935288 
L 737.325 464.124298 
L 745.416 464.040443 
L 753.507 464.028453 
L 761.598 463.99524 
L 769.689 463.8507 
L 777.78 463.746353 
L 785.871 463.659306 
L 793.962 463.586839 
L 802.053 463.578385 
L 810.144 463.711823 
L 818.235 463.905221 
L 826.326 464.159834 
L 834.417 464.496901 
L 842.508 464.708806 
L 850.599 464.790011 
L 858.69 464.930436 
L 866.781 465.022264 
L 874.872 465.153733 
L 882.963 465.008188 
L 891.054 464.651366 
L 899.145 464.027483 
L 907.236 463.431419 
L 915.327 463.438078 
L 923.418 464.454377 
L 931.509 465.56055 
" style="fill:none;stroke:#578dc0;stroke-linecap:square;stroke-width:2;"/>
   </g>
   <g id="line2d_25">
    <path clip-path="url(#pb755da63f6)" d="M 154.773 468.230011 
L 162.864 468.230011 
L 170.955 468.191643 
L 179.046 468.156587 
L 187.137 468.064415 
L 195.228 468.002735 
L 203.319 467.92308 
L 211.41 467.809866 
L 219.501 467.613934 
L 227.592 467.448999 
L 235.683 467.298809 
L 243.774 467.159297 
L 251.865 466.981375 
L 259.956 466.940007 
L 268.047 467.118942 
L 276.138 467.163864 
L 284.229 467.098368 
L 292.32 467.102127 
L 300.411 467.193904 
L 308.502 467.306091 
L 316.593 467.466428 
L 324.684 467.61877 
L 332.775 467.779935 
L 340.866 467.924891 
L 348.957 467.969745 
L 357.048 468.041487 
L 365.139 468.08532 
L 373.23 468.102804 
L 381.321 468.103651 
L 389.412 468.105863 
L 397.503 468.127967 
L 405.594 468.106456 
L 413.685 468.08079 
L 421.776 468.056333 
L 429.867 468.010743 
L 437.958 467.970789 
L 446.049 467.907249 
L 454.14 467.821524 
L 462.231 467.725256 
L 470.322 467.63718 
L 478.413 467.542786 
L 486.504 467.467821 
L 494.595 467.34793 
L 502.686 467.218529 
L 510.777 467.10518 
L 518.868 466.969579 
L 526.959 466.805704 
L 535.05 466.668236 
L 543.141 466.555654 
L 551.232 466.450518 
L 559.323 466.354977 
L 567.414 466.250273 
L 575.505 466.132182 
L 583.596 466.108378 
L 591.687 466.079004 
L 599.778 466.026063 
L 607.869 466.001525 
L 615.96 465.972093 
L 624.051 465.943037 
L 632.142 465.937067 
L 640.233 465.954962 
L 648.324 465.900293 
L 656.415 465.811295 
L 664.506 465.69028 
L 672.597 465.559259 
L 680.688 465.407021 
L 688.779 465.248496 
L 696.87 465.202062 
L 704.961 465.190542 
L 713.052 465.15868 
L 721.143 465.170489 
L 729.234 465.070086 
L 737.325 464.96715 
L 745.416 464.914292 
L 753.507 464.866019 
L 761.598 464.915854 
L 769.689 464.955731 
L 777.78 464.988536 
L 785.871 465.050216 
L 793.962 465.255351 
L 802.053 465.430712 
L 810.144 465.507414 
L 818.235 465.554993 
L 826.326 465.405825 
L 834.417 465.262967 
L 842.508 465.134956 
L 850.599 465.062789 
L 858.69 464.87158 
L 866.781 464.524517 
L 874.872 464.171512 
L 882.963 464.220504 
L 891.054 464.191113 
L 899.145 464.126253 
L 907.236 464.521739 
L 915.327 464.492892 
L 923.418 464.945889 
L 931.509 465.078139 
" style="fill:none;stroke:#4e4ad8;stroke-linecap:square;stroke-width:2;"/>
   </g>
   <g id="line2d_26">
    <path clip-path="url(#pb755da63f6)" d="M 154.773 468.282783 
L 162.864 468.282783 
L 170.955 468.279331 
L 179.046 468.274436 
L 187.137 468.259659 
L 195.228 468.252057 
L 203.319 468.242131 
L 211.41 468.224786 
L 219.501 468.162399 
L 227.592 468.036063 
L 235.683 467.875365 
L 243.774 467.561713 
L 251.865 466.812033 
L 259.956 465.528716 
L 268.047 464.055087 
L 276.138 461.972473 
L 284.229 458.548608 
L 292.32 454.330097 
L 300.411 448.612153 
L 308.502 441.748029 
L 316.593 434.149778 
L 324.684 425.089373 
L 332.775 415.297177 
L 340.866 404.004228 
L 348.957 391.122698 
L 357.048 377.93781 
L 365.139 365.765415 
L 373.23 353.246234 
L 381.321 340.592236 
L 389.412 328.582224 
L 397.503 317.559915 
L 405.594 306.894293 
L 413.685 296.53531 
L 421.776 286.637244 
L 429.867 277.806595 
L 437.958 269.722423 
L 446.049 262.466192 
L 454.14 256.135606 
L 462.231 250.685851 
L 470.322 245.523876 
L 478.413 241.165368 
L 486.504 237.756594 
L 494.595 234.691825 
L 502.686 232.332688 
L 510.777 230.02361 
L 518.868 228.357004 
L 526.959 226.959693 
L 535.05 225.968702 
L 543.141 225.140564 
L 551.232 224.246639 
L 559.323 223.891448 
L 567.414 223.120381 
L 575.505 222.319777 
L 583.596 221.192793 
L 591.687 220.287786 
L 599.778 219.687037 
L 607.869 218.660121 
L 615.96 217.833816 
L 624.051 217.152847 
L 632.142 216.147194 
L 640.233 215.205892 
L 648.324 214.631493 
L 656.415 214.283919 
L 664.506 214.128201 
L 672.597 214.218122 
L 680.688 214.518573 
L 688.779 215.081378 
L 696.87 215.636934 
L 704.961 216.064344 
L 713.052 216.399051 
L 721.143 216.779296 
L 729.234 217.194074 
L 737.325 217.995346 
L 745.416 218.995993 
L 753.507 220.271981 
L 761.598 222.228896 
L 769.689 224.725339 
L 777.78 226.776192 
L 785.871 229.031822 
L 793.962 231.125418 
L 802.053 232.39762 
L 810.144 232.40122 
L 818.235 231.996748 
L 826.326 232.044296 
L 834.417 232.01599 
L 842.508 233.419085 
L 850.599 236.598317 
L 858.69 241.337012 
L 866.781 248.539754 
L 874.872 258.948635 
L 882.963 270.93312 
L 891.054 286.757989 
L 899.145 304.448365 
L 907.236 321.25549 
L 915.327 327.968083 
L 923.418 336.630991 
L 931.509 347.963177 
" style="fill:none;stroke:#32b3f7;stroke-linecap:square;stroke-width:2;"/>
   </g>
   <g id="patch_3">
    <path d="M 130.5 468.288 
L 130.5 113.472 
" style="fill:none;stroke:#000000;stroke-linecap:square;stroke-linejoin:miter;stroke-width:0.8;"/>
   </g>
   <g id="patch_4">
    <path d="M 939.6 468.288 
L 939.6 113.472 
" style="fill:none;stroke:#000000;stroke-linecap:square;stroke-linejoin:miter;stroke-width:0.8;"/>
   </g>
   <g id="patch_5">
    <path d="M 130.5 468.288 
L 939.6 468.288 
" style="fill:none;stroke:#000000;stroke-linecap:square;stroke-linejoin:miter;stroke-width:0.8;"/>
   </g>
   <g id="patch_6">
    <path d="M 130.5 113.472 
L 939.6 113.472 
" style="fill:none;stroke:#000000;stroke-linecap:square;stroke-linejoin:miter;stroke-width:0.8;"/>
   </g>
   <g id="text_15">
    <!-- R2 -->
    <defs>
     <path d="M 44.390625 34.1875 
Q 47.5625 33.109375 50.5625 29.59375 
Q 53.5625 26.078125 56.59375 19.921875 
L 66.609375 0 
L 56 0 
L 46.6875 18.703125 
Q 43.0625 26.03125 39.671875 28.421875 
Q 36.28125 30.8125 30.421875 30.8125 
L 19.671875 30.8125 
L 19.671875 0 
L 9.8125 0 
L 9.8125 72.90625 
L 32.078125 72.90625 
Q 44.578125 72.90625 50.734375 67.671875 
Q 56.890625 62.453125 56.890625 51.90625 
Q 56.890625 45.015625 53.6875 40.46875 
Q 50.484375 35.9375 44.390625 34.1875 
z
M 19.671875 64.796875 
L 19.671875 38.921875 
L 32.078125 38.921875 
Q 39.203125 38.921875 42.84375 42.21875 
Q 46.484375 45.515625 46.484375 51.90625 
Q 46.484375 58.296875 42.84375 61.546875 
Q 39.203125 64.796875 32.078125 64.796875 
z
" id="DejaVuSans-82"/>
    </defs>
    <g transform="translate(527.063437 107.472)scale(0.12 -0.12)">
     <use xlink:href="#DejaVuSans-82"/>
     <use x="69.482422" xlink:href="#DejaVuSans-50"/>
    </g>
   </g>
   <g id="legend_1">
    <g id="patch_7">
     <path d="M 152.324219 640.696 
L 917.775781 640.696 
Q 919.775781 640.696 919.775781 638.696 
L 919.775781 595.661625 
Q 919.775781 593.661625 917.775781 593.661625 
L 152.324219 593.661625 
Q 150.324219 593.661625 150.324219 595.661625 
L 150.324219 638.696 
Q 150.324219 640.696 152.324219 640.696 
z
" style="fill:#ffffff;opacity:0.8;stroke:#cccccc;stroke-linejoin:miter;"/>
    </g>
    <g id="line2d_27">
     <path style="fill:none;stroke:#f18670;stroke-linecap:square;stroke-width:2;"/>
    </g>
    <g id="line2d_28"/>
    <g id="text_16">
     <!-- IWR demand mutliplier -->
     <defs>
      <path d="M 9.8125 72.90625 
L 19.671875 72.90625 
L 19.671875 0 
L 9.8125 0 
z
" id="DejaVuSans-73"/>
      <path d="M 3.328125 72.90625 
L 13.28125 72.90625 
L 28.609375 11.28125 
L 43.890625 72.90625 
L 54.984375 72.90625 
L 70.3125 11.28125 
L 85.59375 72.90625 
L 95.609375 72.90625 
L 77.296875 0 
L 64.890625 0 
L 49.515625 63.28125 
L 33.984375 0 
L 21.578125 0 
z
" id="DejaVuSans-87"/>
     </defs>
     <g transform="translate(182.324219 605.260063)scale(0.1 -0.1)">
      <use xlink:href="#DejaVuSans-73"/>
      <use x="29.492188" xlink:href="#DejaVuSans-87"/>
      <use x="128.369141" xlink:href="#DejaVuSans-82"/>
      <use x="197.851562" xlink:href="#DejaVuSans-32"/>
      <use x="229.638672" xlink:href="#DejaVuSans-100"/>
      <use x="293.115234" xlink:href="#DejaVuSans-101"/>
      <use x="354.638672" xlink:href="#DejaVuSans-109"/>
      <use x="452.050781" xlink:href="#DejaVuSans-97"/>
      <use x="513.330078" xlink:href="#DejaVuSans-110"/>
      <use x="576.708984" xlink:href="#DejaVuSans-100"/>
      <use x="640.185547" xlink:href="#DejaVuSans-32"/>
      <use x="671.972656" xlink:href="#DejaVuSans-109"/>
      <use x="769.384766" xlink:href="#DejaVuSans-117"/>
      <use x="832.763672" xlink:href="#DejaVuSans-116"/>
      <use x="871.972656" xlink:href="#DejaVuSans-108"/>
      <use x="899.755859" xlink:href="#DejaVuSans-105"/>
      <use x="927.539062" xlink:href="#DejaVuSans-112"/>
      <use x="991.015625" xlink:href="#DejaVuSans-108"/>
      <use x="1018.798828" xlink:href="#DejaVuSans-105"/>
      <use x="1046.582031" xlink:href="#DejaVuSans-101"/>
      <use x="1108.105469" xlink:href="#DejaVuSans-114"/>
     </g>
    </g>
    <g id="line2d_29">
     <path style="fill:none;stroke:#e24d3f;stroke-linecap:square;stroke-width:2;"/>
    </g>
    <g id="line2d_30"/>
    <g id="text_17">
     <!-- Reservoir loss -->
     <defs>
      <path d="M 44.28125 53.078125 
L 44.28125 44.578125 
Q 40.484375 46.53125 36.375 47.5 
Q 32.28125 48.484375 27.875 48.484375 
Q 21.1875 48.484375 17.84375 46.4375 
Q 14.5 44.390625 14.5 40.28125 
Q 14.5 37.15625 16.890625 35.375 
Q 19.28125 33.59375 26.515625 31.984375 
L 29.59375 31.296875 
Q 39.15625 29.25 43.1875 25.515625 
Q 47.21875 21.78125 47.21875 15.09375 
Q 47.21875 7.46875 41.1875 3.015625 
Q 35.15625 -1.421875 24.609375 -1.421875 
Q 20.21875 -1.421875 15.453125 -0.5625 
Q 10.6875 0.296875 5.421875 2 
L 5.421875 11.28125 
Q 10.40625 8.6875 15.234375 7.390625 
Q 20.0625 6.109375 24.8125 6.109375 
Q 31.15625 6.109375 34.5625 8.28125 
Q 37.984375 10.453125 37.984375 14.40625 
Q 37.984375 18.0625 35.515625 20.015625 
Q 33.0625 21.96875 24.703125 23.78125 
L 21.578125 24.515625 
Q 13.234375 26.265625 9.515625 29.90625 
Q 5.8125 33.546875 5.8125 39.890625 
Q 5.8125 47.609375 11.28125 51.796875 
Q 16.75 56 26.8125 56 
Q 31.78125 56 36.171875 55.265625 
Q 40.578125 54.546875 44.28125 53.078125 
z
" id="DejaVuSans-115"/>
      <path d="M 2.984375 54.6875 
L 12.5 54.6875 
L 29.59375 8.796875 
L 46.6875 54.6875 
L 56.203125 54.6875 
L 35.6875 0 
L 23.484375 0 
z
" id="DejaVuSans-118"/>
     </defs>
     <g transform="translate(182.324219 619.938188)scale(0.1 -0.1)">
      <use xlink:href="#DejaVuSans-82"/>
      <use x="69.419922" xlink:href="#DejaVuSans-101"/>
      <use x="130.943359" xlink:href="#DejaVuSans-115"/>
      <use x="183.042969" xlink:href="#DejaVuSans-101"/>
      <use x="244.566406" xlink:href="#DejaVuSans-114"/>
      <use x="285.679688" xlink:href="#DejaVuSans-118"/>
      <use x="344.859375" xlink:href="#DejaVuSans-111"/>
      <use x="406.041016" xlink:href="#DejaVuSans-105"/>
      <use x="433.824219" xlink:href="#DejaVuSans-114"/>
      <use x="474.9375" xlink:href="#DejaVuSans-32"/>
      <use x="506.724609" xlink:href="#DejaVuSans-108"/>
      <use x="534.507812" xlink:href="#DejaVuSans-111"/>
      <use x="595.689453" xlink:href="#DejaVuSans-115"/>
      <use x="647.789062" xlink:href="#DejaVuSans-115"/>
     </g>
    </g>
    <g id="line2d_31">
     <path style="fill:none;stroke:#cf233e;stroke-linecap:square;stroke-width:2;"/>
    </g>
    <g id="line2d_32"/>
    <g id="text_18">
     <!-- TBD demand multiplier -->
     <defs>
      <path d="M -0.296875 72.90625 
L 61.375 72.90625 
L 61.375 64.59375 
L 35.5 64.59375 
L 35.5 0 
L 25.59375 0 
L 25.59375 64.59375 
L -0.296875 64.59375 
z
" id="DejaVuSans-84"/>
      <path d="M 19.671875 34.8125 
L 19.671875 8.109375 
L 35.5 8.109375 
Q 43.453125 8.109375 47.28125 11.40625 
Q 51.125 14.703125 51.125 21.484375 
Q 51.125 28.328125 47.28125 31.5625 
Q 43.453125 34.8125 35.5 34.8125 
z
M 19.671875 64.796875 
L 19.671875 42.828125 
L 34.28125 42.828125 
Q 41.5 42.828125 45.03125 45.53125 
Q 48.578125 48.25 48.578125 53.8125 
Q 48.578125 59.328125 45.03125 62.0625 
Q 41.5 64.796875 34.28125 64.796875 
z
M 9.8125 72.90625 
L 35.015625 72.90625 
Q 46.296875 72.90625 52.390625 68.21875 
Q 58.5 63.53125 58.5 54.890625 
Q 58.5 48.1875 55.375 44.234375 
Q 52.25 40.28125 46.1875 39.3125 
Q 53.46875 37.75 57.5 32.78125 
Q 61.53125 27.828125 61.53125 20.40625 
Q 61.53125 10.640625 54.890625 5.3125 
Q 48.25 0 35.984375 0 
L 9.8125 0 
z
" id="DejaVuSans-66"/>
      <path d="M 19.671875 64.796875 
L 19.671875 8.109375 
L 31.59375 8.109375 
Q 46.6875 8.109375 53.6875 14.9375 
Q 60.6875 21.78125 60.6875 36.53125 
Q 60.6875 51.171875 53.6875 57.984375 
Q 46.6875 64.796875 31.59375 64.796875 
z
M 9.8125 72.90625 
L 30.078125 72.90625 
Q 51.265625 72.90625 61.171875 64.09375 
Q 71.09375 55.28125 71.09375 36.53125 
Q 71.09375 17.671875 61.125 8.828125 
Q 51.171875 0 30.078125 0 
L 9.8125 0 
z
" id="DejaVuSans-68"/>
     </defs>
     <g transform="translate(182.324219 634.616313)scale(0.1 -0.1)">
      <use xlink:href="#DejaVuSans-84"/>
      <use x="61.083984" xlink:href="#DejaVuSans-66"/>
      <use x="129.6875" xlink:href="#DejaVuSans-68"/>
      <use x="206.689453" xlink:href="#DejaVuSans-32"/>
      <use x="238.476562" xlink:href="#DejaVuSans-100"/>
      <use x="301.953125" xlink:href="#DejaVuSans-101"/>
      <use x="363.476562" xlink:href="#DejaVuSans-109"/>
      <use x="460.888672" xlink:href="#DejaVuSans-97"/>
      <use x="522.167969" xlink:href="#DejaVuSans-110"/>
      <use x="585.546875" xlink:href="#DejaVuSans-100"/>
      <use x="649.023438" xlink:href="#DejaVuSans-32"/>
      <use x="680.810547" xlink:href="#DejaVuSans-109"/>
      <use x="778.222656" xlink:href="#DejaVuSans-117"/>
      <use x="841.601562" xlink:href="#DejaVuSans-108"/>
      <use x="869.384766" xlink:href="#DejaVuSans-116"/>
      <use x="908.59375" xlink:href="#DejaVuSans-105"/>
      <use x="936.376953" xlink:href="#DejaVuSans-112"/>
      <use x="999.853516" xlink:href="#DejaVuSans-108"/>
      <use x="1027.636719" xlink:href="#DejaVuSans-105"/>
      <use x="1055.419922" xlink:href="#DejaVuSans-101"/>
      <use x="1116.943359" xlink:href="#DejaVuSans-114"/>
     </g>
    </g>
    <g id="line2d_33">
     <path style="fill:none;stroke:#681e33;stroke-linecap:square;stroke-width:2;"/>
    </g>
    <g id="line2d_34"/>
    <g id="text_19">
     <!-- M&amp;I demand multiplier -->
     <defs>
      <path d="M 9.8125 72.90625 
L 24.515625 72.90625 
L 43.109375 23.296875 
L 61.8125 72.90625 
L 76.515625 72.90625 
L 76.515625 0 
L 66.890625 0 
L 66.890625 64.015625 
L 48.09375 14.015625 
L 38.1875 14.015625 
L 19.390625 64.015625 
L 19.390625 0 
L 9.8125 0 
z
" id="DejaVuSans-77"/>
      <path d="M 24.3125 39.203125 
Q 19.875 35.25 17.796875 31.3125 
Q 15.71875 27.390625 15.71875 23.09375 
Q 15.71875 15.96875 20.890625 11.234375 
Q 26.078125 6.5 33.890625 6.5 
Q 38.53125 6.5 42.578125 8.03125 
Q 46.625 9.578125 50.203125 12.703125 
z
M 31.203125 44.671875 
L 56 19.28125 
Q 58.890625 23.640625 60.5 28.59375 
Q 62.109375 33.546875 62.40625 39.109375 
L 71.484375 39.109375 
Q 70.90625 32.671875 68.359375 26.359375 
Q 65.828125 20.0625 61.28125 13.921875 
L 74.90625 0 
L 62.59375 0 
L 55.609375 7.171875 
Q 50.53125 2.828125 44.96875 0.703125 
Q 39.40625 -1.421875 33.015625 -1.421875 
Q 21.234375 -1.421875 13.765625 5.296875 
Q 6.296875 12.015625 6.296875 22.515625 
Q 6.296875 28.765625 9.5625 34.25 
Q 12.84375 39.75 19.390625 44.578125 
Q 17.046875 47.65625 15.8125 50.703125 
Q 14.59375 53.765625 14.59375 56.6875 
Q 14.59375 64.59375 20.015625 69.40625 
Q 25.4375 74.21875 34.421875 74.21875 
Q 38.484375 74.21875 42.5 73.34375 
Q 46.53125 72.46875 50.6875 70.703125 
L 50.6875 61.8125 
Q 46.4375 64.109375 42.578125 65.296875 
Q 38.71875 66.5 35.40625 66.5 
Q 30.28125 66.5 27.078125 63.78125 
Q 23.875 61.078125 23.875 56.78125 
Q 23.875 54.296875 25.3125 51.78125 
Q 26.765625 49.265625 31.203125 44.671875 
z
" id="DejaVuSans-38"/>
     </defs>
     <g transform="translate(346.128906 605.260063)scale(0.1 -0.1)">
      <use xlink:href="#DejaVuSans-77"/>
      <use x="86.279297" xlink:href="#DejaVuSans-38"/>
      <use x="164.257812" xlink:href="#DejaVuSans-73"/>
      <use x="193.75" xlink:href="#DejaVuSans-32"/>
      <use x="225.537109" xlink:href="#DejaVuSans-100"/>
      <use x="289.013672" xlink:href="#DejaVuSans-101"/>
      <use x="350.537109" xlink:href="#DejaVuSans-109"/>
      <use x="447.949219" xlink:href="#DejaVuSans-97"/>
      <use x="509.228516" xlink:href="#DejaVuSans-110"/>
      <use x="572.607422" xlink:href="#DejaVuSans-100"/>
      <use x="636.083984" xlink:href="#DejaVuSans-32"/>
      <use x="667.871094" xlink:href="#DejaVuSans-109"/>
      <use x="765.283203" xlink:href="#DejaVuSans-117"/>
      <use x="828.662109" xlink:href="#DejaVuSans-108"/>
      <use x="856.445312" xlink:href="#DejaVuSans-116"/>
      <use x="895.654297" xlink:href="#DejaVuSans-105"/>
      <use x="923.4375" xlink:href="#DejaVuSans-112"/>
      <use x="986.914062" xlink:href="#DejaVuSans-108"/>
      <use x="1014.697266" xlink:href="#DejaVuSans-105"/>
      <use x="1042.480469" xlink:href="#DejaVuSans-101"/>
      <use x="1104.003906" xlink:href="#DejaVuSans-114"/>
     </g>
    </g>
    <g id="line2d_35">
     <path style="fill:none;stroke:#676572;stroke-linecap:square;stroke-width:2;"/>
    </g>
    <g id="line2d_36"/>
    <g id="text_20">
     <!-- Shoshone active -->
     <g transform="translate(346.128906 619.938188)scale(0.1 -0.1)">
      <use xlink:href="#DejaVuSans-83"/>
      <use x="63.476562" xlink:href="#DejaVuSans-104"/>
      <use x="126.855469" xlink:href="#DejaVuSans-111"/>
      <use x="188.037109" xlink:href="#DejaVuSans-115"/>
      <use x="240.136719" xlink:href="#DejaVuSans-104"/>
      <use x="303.515625" xlink:href="#DejaVuSans-111"/>
      <use x="364.697266" xlink:href="#DejaVuSans-110"/>
      <use x="428.076172" xlink:href="#DejaVuSans-101"/>
      <use x="489.599609" xlink:href="#DejaVuSans-32"/>
      <use x="521.386719" xlink:href="#DejaVuSans-97"/>
      <use x="582.666016" xlink:href="#DejaVuSans-99"/>
      <use x="637.646484" xlink:href="#DejaVuSans-116"/>
      <use x="676.855469" xlink:href="#DejaVuSans-105"/>
      <use x="704.638672" xlink:href="#DejaVuSans-118"/>
      <use x="763.818359" xlink:href="#DejaVuSans-101"/>
     </g>
    </g>
    <g id="line2d_37">
     <path style="fill:none;stroke:#f3be22;stroke-linecap:square;stroke-width:2;"/>
    </g>
    <g id="line2d_38"/>
    <g id="text_21">
     <!-- Env. flow senior right -->
     <defs>
      <path d="M 9.8125 72.90625 
L 55.90625 72.90625 
L 55.90625 64.59375 
L 19.671875 64.59375 
L 19.671875 43.015625 
L 54.390625 43.015625 
L 54.390625 34.71875 
L 19.671875 34.71875 
L 19.671875 8.296875 
L 56.78125 8.296875 
L 56.78125 0 
L 9.8125 0 
z
" id="DejaVuSans-69"/>
      <path d="M 37.109375 75.984375 
L 37.109375 68.5 
L 28.515625 68.5 
Q 23.6875 68.5 21.796875 66.546875 
Q 19.921875 64.59375 19.921875 59.515625 
L 19.921875 54.6875 
L 34.71875 54.6875 
L 34.71875 47.703125 
L 19.921875 47.703125 
L 19.921875 0 
L 10.890625 0 
L 10.890625 47.703125 
L 2.296875 47.703125 
L 2.296875 54.6875 
L 10.890625 54.6875 
L 10.890625 58.5 
Q 10.890625 67.625 15.140625 71.796875 
Q 19.390625 75.984375 28.609375 75.984375 
z
" id="DejaVuSans-102"/>
      <path d="M 4.203125 54.6875 
L 13.1875 54.6875 
L 24.421875 12.015625 
L 35.59375 54.6875 
L 46.1875 54.6875 
L 57.421875 12.015625 
L 68.609375 54.6875 
L 77.59375 54.6875 
L 63.28125 0 
L 52.6875 0 
L 40.921875 44.828125 
L 29.109375 0 
L 18.5 0 
z
" id="DejaVuSans-119"/>
     </defs>
     <g transform="translate(346.128906 634.616313)scale(0.1 -0.1)">
      <use xlink:href="#DejaVuSans-69"/>
      <use x="63.183594" xlink:href="#DejaVuSans-110"/>
      <use x="126.5625" xlink:href="#DejaVuSans-118"/>
      <use x="185.632812" xlink:href="#DejaVuSans-46"/>
      <use x="217.419922" xlink:href="#DejaVuSans-32"/>
      <use x="249.207031" xlink:href="#DejaVuSans-102"/>
      <use x="284.412109" xlink:href="#DejaVuSans-108"/>
      <use x="312.195312" xlink:href="#DejaVuSans-111"/>
      <use x="373.376953" xlink:href="#DejaVuSans-119"/>
      <use x="455.164062" xlink:href="#DejaVuSans-32"/>
      <use x="486.951172" xlink:href="#DejaVuSans-115"/>
      <use x="539.050781" xlink:href="#DejaVuSans-101"/>
      <use x="600.574219" xlink:href="#DejaVuSans-110"/>
      <use x="663.953125" xlink:href="#DejaVuSans-105"/>
      <use x="691.736328" xlink:href="#DejaVuSans-111"/>
      <use x="752.917969" xlink:href="#DejaVuSans-114"/>
      <use x="794.03125" xlink:href="#DejaVuSans-32"/>
      <use x="825.818359" xlink:href="#DejaVuSans-114"/>
      <use x="866.931641" xlink:href="#DejaVuSans-105"/>
      <use x="894.714844" xlink:href="#DejaVuSans-103"/>
      <use x="958.191406" xlink:href="#DejaVuSans-104"/>
      <use x="1021.570312" xlink:href="#DejaVuSans-116"/>
     </g>
    </g>
    <g id="line2d_39">
     <path style="fill:none;stroke:#59deba;stroke-linecap:square;stroke-width:2;"/>
    </g>
    <g id="line2d_40"/>
    <g id="text_22">
     <!-- Evaporation delta -->
     <g transform="translate(508.641406 605.260063)scale(0.1 -0.1)">
      <use xlink:href="#DejaVuSans-69"/>
      <use x="63.183594" xlink:href="#DejaVuSans-118"/>
      <use x="122.363281" xlink:href="#DejaVuSans-97"/>
      <use x="183.642578" xlink:href="#DejaVuSans-112"/>
      <use x="247.119141" xlink:href="#DejaVuSans-111"/>
      <use x="308.300781" xlink:href="#DejaVuSans-114"/>
      <use x="349.414062" xlink:href="#DejaVuSans-97"/>
      <use x="410.693359" xlink:href="#DejaVuSans-116"/>
      <use x="449.902344" xlink:href="#DejaVuSans-105"/>
      <use x="477.685547" xlink:href="#DejaVuSans-111"/>
      <use x="538.867188" xlink:href="#DejaVuSans-110"/>
      <use x="602.246094" xlink:href="#DejaVuSans-32"/>
      <use x="634.033203" xlink:href="#DejaVuSans-100"/>
      <use x="697.509766" xlink:href="#DejaVuSans-101"/>
      <use x="759.033203" xlink:href="#DejaVuSans-108"/>
      <use x="786.816406" xlink:href="#DejaVuSans-116"/>
      <use x="826.025391" xlink:href="#DejaVuSans-97"/>
     </g>
    </g>
    <g id="line2d_41">
     <path style="fill:none;stroke:#14015c;stroke-linecap:square;stroke-width:2;"/>
    </g>
    <g id="line2d_42"/>
    <g id="text_23">
     <!-- Dry state mu -->
     <defs>
      <path d="M 32.171875 -5.078125 
Q 28.375 -14.84375 24.75 -17.8125 
Q 21.140625 -20.796875 15.09375 -20.796875 
L 7.90625 -20.796875 
L 7.90625 -13.28125 
L 13.1875 -13.28125 
Q 16.890625 -13.28125 18.9375 -11.515625 
Q 21 -9.765625 23.484375 -3.21875 
L 25.09375 0.875 
L 2.984375 54.6875 
L 12.5 54.6875 
L 29.59375 11.921875 
L 46.6875 54.6875 
L 56.203125 54.6875 
z
" id="DejaVuSans-121"/>
     </defs>
     <g transform="translate(508.641406 619.938188)scale(0.1 -0.1)">
      <use xlink:href="#DejaVuSans-68"/>
      <use x="77.001953" xlink:href="#DejaVuSans-114"/>
      <use x="118.115234" xlink:href="#DejaVuSans-121"/>
      <use x="177.294922" xlink:href="#DejaVuSans-32"/>
      <use x="209.082031" xlink:href="#DejaVuSans-115"/>
      <use x="261.181641" xlink:href="#DejaVuSans-116"/>
      <use x="300.390625" xlink:href="#DejaVuSans-97"/>
      <use x="361.669922" xlink:href="#DejaVuSans-116"/>
      <use x="400.878906" xlink:href="#DejaVuSans-101"/>
      <use x="462.402344" xlink:href="#DejaVuSans-32"/>
      <use x="494.189453" xlink:href="#DejaVuSans-109"/>
      <use x="591.601562" xlink:href="#DejaVuSans-117"/>
     </g>
    </g>
    <g id="line2d_43">
     <path style="fill:none;stroke:#daf8a3;stroke-linecap:square;stroke-width:2;"/>
    </g>
    <g id="line2d_44"/>
    <g id="text_24">
     <!-- Dry state sigma -->
     <g transform="translate(508.641406 634.616313)scale(0.1 -0.1)">
      <use xlink:href="#DejaVuSans-68"/>
      <use x="77.001953" xlink:href="#DejaVuSans-114"/>
      <use x="118.115234" xlink:href="#DejaVuSans-121"/>
      <use x="177.294922" xlink:href="#DejaVuSans-32"/>
      <use x="209.082031" xlink:href="#DejaVuSans-115"/>
      <use x="261.181641" xlink:href="#DejaVuSans-116"/>
      <use x="300.390625" xlink:href="#DejaVuSans-97"/>
      <use x="361.669922" xlink:href="#DejaVuSans-116"/>
      <use x="400.878906" xlink:href="#DejaVuSans-101"/>
      <use x="462.402344" xlink:href="#DejaVuSans-32"/>
      <use x="494.189453" xlink:href="#DejaVuSans-115"/>
      <use x="546.289062" xlink:href="#DejaVuSans-105"/>
      <use x="574.072266" xlink:href="#DejaVuSans-103"/>
      <use x="637.548828" xlink:href="#DejaVuSans-109"/>
      <use x="734.960938" xlink:href="#DejaVuSans-97"/>
     </g>
    </g>
    <g id="line2d_45">
     <path style="fill:none;stroke:#0b7a0a;stroke-linecap:square;stroke-width:2;"/>
    </g>
    <g id="line2d_46"/>
    <g id="text_25">
     <!-- Wet state mu -->
     <g transform="translate(645.374219 605.260063)scale(0.1 -0.1)">
      <use xlink:href="#DejaVuSans-87"/>
      <use x="98.798828" xlink:href="#DejaVuSans-101"/>
      <use x="160.322266" xlink:href="#DejaVuSans-116"/>
      <use x="199.53125" xlink:href="#DejaVuSans-32"/>
      <use x="231.318359" xlink:href="#DejaVuSans-115"/>
      <use x="283.417969" xlink:href="#DejaVuSans-116"/>
      <use x="322.626953" xlink:href="#DejaVuSans-97"/>
      <use x="383.90625" xlink:href="#DejaVuSans-116"/>
      <use x="423.115234" xlink:href="#DejaVuSans-101"/>
      <use x="484.638672" xlink:href="#DejaVuSans-32"/>
      <use x="516.425781" xlink:href="#DejaVuSans-109"/>
      <use x="613.837891" xlink:href="#DejaVuSans-117"/>
     </g>
    </g>
    <g id="line2d_47">
     <path style="fill:none;stroke:#f8ffa2;stroke-linecap:square;stroke-width:2;"/>
    </g>
    <g id="line2d_48"/>
    <g id="text_26">
     <!-- Wet state sigma -->
     <g transform="translate(645.374219 619.938188)scale(0.1 -0.1)">
      <use xlink:href="#DejaVuSans-87"/>
      <use x="98.798828" xlink:href="#DejaVuSans-101"/>
      <use x="160.322266" xlink:href="#DejaVuSans-116"/>
      <use x="199.53125" xlink:href="#DejaVuSans-32"/>
      <use x="231.318359" xlink:href="#DejaVuSans-115"/>
      <use x="283.417969" xlink:href="#DejaVuSans-116"/>
      <use x="322.626953" xlink:href="#DejaVuSans-97"/>
      <use x="383.90625" xlink:href="#DejaVuSans-116"/>
      <use x="423.115234" xlink:href="#DejaVuSans-101"/>
      <use x="484.638672" xlink:href="#DejaVuSans-32"/>
      <use x="516.425781" xlink:href="#DejaVuSans-115"/>
      <use x="568.525391" xlink:href="#DejaVuSans-105"/>
      <use x="596.308594" xlink:href="#DejaVuSans-103"/>
      <use x="659.785156" xlink:href="#DejaVuSans-109"/>
      <use x="757.197266" xlink:href="#DejaVuSans-97"/>
     </g>
    </g>
    <g id="line2d_49">
     <path style="fill:none;stroke:#578dc0;stroke-linecap:square;stroke-width:2;"/>
    </g>
    <g id="line2d_50"/>
    <g id="text_27">
     <!-- Dry-to-dry state prob. -->
     <defs>
      <path d="M 4.890625 31.390625 
L 31.203125 31.390625 
L 31.203125 23.390625 
L 4.890625 23.390625 
z
" id="DejaVuSans-45"/>
      <path d="M 48.6875 27.296875 
Q 48.6875 37.203125 44.609375 42.84375 
Q 40.53125 48.484375 33.40625 48.484375 
Q 26.265625 48.484375 22.1875 42.84375 
Q 18.109375 37.203125 18.109375 27.296875 
Q 18.109375 17.390625 22.1875 11.75 
Q 26.265625 6.109375 33.40625 6.109375 
Q 40.53125 6.109375 44.609375 11.75 
Q 48.6875 17.390625 48.6875 27.296875 
z
M 18.109375 46.390625 
Q 20.953125 51.265625 25.265625 53.625 
Q 29.59375 56 35.59375 56 
Q 45.5625 56 51.78125 48.09375 
Q 58.015625 40.1875 58.015625 27.296875 
Q 58.015625 14.40625 51.78125 6.484375 
Q 45.5625 -1.421875 35.59375 -1.421875 
Q 29.59375 -1.421875 25.265625 0.953125 
Q 20.953125 3.328125 18.109375 8.203125 
L 18.109375 0 
L 9.078125 0 
L 9.078125 75.984375 
L 18.109375 75.984375 
z
" id="DejaVuSans-98"/>
     </defs>
     <g transform="translate(645.374219 634.616313)scale(0.1 -0.1)">
      <use xlink:href="#DejaVuSans-68"/>
      <use x="77.001953" xlink:href="#DejaVuSans-114"/>
      <use x="118.115234" xlink:href="#DejaVuSans-121"/>
      <use x="177.279297" xlink:href="#DejaVuSans-45"/>
      <use x="213.363281" xlink:href="#DejaVuSans-116"/>
      <use x="252.572266" xlink:href="#DejaVuSans-111"/>
      <use x="313.769531" xlink:href="#DejaVuSans-45"/>
      <use x="349.853516" xlink:href="#DejaVuSans-100"/>
      <use x="413.330078" xlink:href="#DejaVuSans-114"/>
      <use x="454.443359" xlink:href="#DejaVuSans-121"/>
      <use x="513.623047" xlink:href="#DejaVuSans-32"/>
      <use x="545.410156" xlink:href="#DejaVuSans-115"/>
      <use x="597.509766" xlink:href="#DejaVuSans-116"/>
      <use x="636.71875" xlink:href="#DejaVuSans-97"/>
      <use x="697.998047" xlink:href="#DejaVuSans-116"/>
      <use x="737.207031" xlink:href="#DejaVuSans-101"/>
      <use x="798.730469" xlink:href="#DejaVuSans-32"/>
      <use x="830.517578" xlink:href="#DejaVuSans-112"/>
      <use x="893.994141" xlink:href="#DejaVuSans-114"/>
      <use x="935.076172" xlink:href="#DejaVuSans-111"/>
      <use x="996.257812" xlink:href="#DejaVuSans-98"/>
      <use x="1059.734375" xlink:href="#DejaVuSans-46"/>
     </g>
    </g>
    <g id="line2d_51">
     <path style="fill:none;stroke:#4e4ad8;stroke-linecap:square;stroke-width:2;"/>
    </g>
    <g id="line2d_52"/>
    <g id="text_28">
     <!-- Wet-to-wet state prob. -->
     <g transform="translate(802.525781 605.260063)scale(0.1 -0.1)">
      <use xlink:href="#DejaVuSans-87"/>
      <use x="98.798828" xlink:href="#DejaVuSans-101"/>
      <use x="160.322266" xlink:href="#DejaVuSans-116"/>
      <use x="199.53125" xlink:href="#DejaVuSans-45"/>
      <use x="235.615234" xlink:href="#DejaVuSans-116"/>
      <use x="274.824219" xlink:href="#DejaVuSans-111"/>
      <use x="336.021484" xlink:href="#DejaVuSans-45"/>
      <use x="372.105469" xlink:href="#DejaVuSans-119"/>
      <use x="453.892578" xlink:href="#DejaVuSans-101"/>
      <use x="515.416016" xlink:href="#DejaVuSans-116"/>
      <use x="554.625" xlink:href="#DejaVuSans-32"/>
      <use x="586.412109" xlink:href="#DejaVuSans-115"/>
      <use x="638.511719" xlink:href="#DejaVuSans-116"/>
      <use x="677.720703" xlink:href="#DejaVuSans-97"/>
      <use x="739" xlink:href="#DejaVuSans-116"/>
      <use x="778.208984" xlink:href="#DejaVuSans-101"/>
      <use x="839.732422" xlink:href="#DejaVuSans-32"/>
      <use x="871.519531" xlink:href="#DejaVuSans-112"/>
      <use x="934.996094" xlink:href="#DejaVuSans-114"/>
      <use x="976.078125" xlink:href="#DejaVuSans-111"/>
      <use x="1037.259766" xlink:href="#DejaVuSans-98"/>
      <use x="1100.736328" xlink:href="#DejaVuSans-46"/>
     </g>
    </g>
    <g id="line2d_53">
     <path style="fill:none;stroke:#32b3f7;stroke-linecap:square;stroke-width:2;"/>
    </g>
    <g id="line2d_54"/>
    <g id="text_29">
     <!-- Earlier snowmelt -->
     <g transform="translate(802.525781 619.938188)scale(0.1 -0.1)">
      <use xlink:href="#DejaVuSans-69"/>
      <use x="63.183594" xlink:href="#DejaVuSans-97"/>
      <use x="124.462891" xlink:href="#DejaVuSans-114"/>
      <use x="165.576172" xlink:href="#DejaVuSans-108"/>
      <use x="193.359375" xlink:href="#DejaVuSans-105"/>
      <use x="221.142578" xlink:href="#DejaVuSans-101"/>
      <use x="282.666016" xlink:href="#DejaVuSans-114"/>
      <use x="323.779297" xlink:href="#DejaVuSans-32"/>
      <use x="355.566406" xlink:href="#DejaVuSans-115"/>
      <use x="407.666016" xlink:href="#DejaVuSans-110"/>
      <use x="471.044922" xlink:href="#DejaVuSans-111"/>
      <use x="532.226562" xlink:href="#DejaVuSans-119"/>
      <use x="614.013672" xlink:href="#DejaVuSans-109"/>
      <use x="711.425781" xlink:href="#DejaVuSans-101"/>
      <use x="772.949219" xlink:href="#DejaVuSans-108"/>
      <use x="800.732422" xlink:href="#DejaVuSans-116"/>
     </g>
    </g>
   </g>
  </g>
  <g id="text_30">
   <!-- Shortage magnitude sensitivity for 3600687 -->
   <defs>
    <path d="M 40.578125 39.3125 
Q 47.65625 37.796875 51.625 33 
Q 55.609375 28.21875 55.609375 21.1875 
Q 55.609375 10.40625 48.1875 4.484375 
Q 40.765625 -1.421875 27.09375 -1.421875 
Q 22.515625 -1.421875 17.65625 -0.515625 
Q 12.796875 0.390625 7.625 2.203125 
L 7.625 11.71875 
Q 11.71875 9.328125 16.59375 8.109375 
Q 21.484375 6.890625 26.8125 6.890625 
Q 36.078125 6.890625 40.9375 10.546875 
Q 45.796875 14.203125 45.796875 21.1875 
Q 45.796875 27.640625 41.28125 31.265625 
Q 36.765625 34.90625 28.71875 34.90625 
L 20.21875 34.90625 
L 20.21875 43.015625 
L 29.109375 43.015625 
Q 36.375 43.015625 40.234375 45.921875 
Q 44.09375 48.828125 44.09375 54.296875 
Q 44.09375 59.90625 40.109375 62.90625 
Q 36.140625 65.921875 28.71875 65.921875 
Q 24.65625 65.921875 20.015625 65.03125 
Q 15.375 64.15625 9.8125 62.3125 
L 9.8125 71.09375 
Q 15.4375 72.65625 20.34375 73.4375 
Q 25.25 74.21875 29.59375 74.21875 
Q 40.828125 74.21875 47.359375 69.109375 
Q 53.90625 64.015625 53.90625 55.328125 
Q 53.90625 49.265625 50.4375 45.09375 
Q 46.96875 40.921875 40.578125 39.3125 
z
" id="DejaVuSans-51"/>
    <path d="M 8.203125 72.90625 
L 55.078125 72.90625 
L 55.078125 68.703125 
L 28.609375 0 
L 18.3125 0 
L 43.21875 64.59375 
L 8.203125 64.59375 
z
" id="DejaVuSans-55"/>
   </defs>
   <g transform="translate(344.81625 23.6775)scale(0.16 -0.16)">
    <use xlink:href="#DejaVuSans-83"/>
    <use x="63.476562" xlink:href="#DejaVuSans-104"/>
    <use x="126.855469" xlink:href="#DejaVuSans-111"/>
    <use x="188.037109" xlink:href="#DejaVuSans-114"/>
    <use x="229.150391" xlink:href="#DejaVuSans-116"/>
    <use x="268.359375" xlink:href="#DejaVuSans-97"/>
    <use x="329.638672" xlink:href="#DejaVuSans-103"/>
    <use x="393.115234" xlink:href="#DejaVuSans-101"/>
    <use x="454.638672" xlink:href="#DejaVuSans-32"/>
    <use x="486.425781" xlink:href="#DejaVuSans-109"/>
    <use x="583.837891" xlink:href="#DejaVuSans-97"/>
    <use x="645.117188" xlink:href="#DejaVuSans-103"/>
    <use x="708.59375" xlink:href="#DejaVuSans-110"/>
    <use x="771.972656" xlink:href="#DejaVuSans-105"/>
    <use x="799.755859" xlink:href="#DejaVuSans-116"/>
    <use x="838.964844" xlink:href="#DejaVuSans-117"/>
    <use x="902.34375" xlink:href="#DejaVuSans-100"/>
    <use x="965.820312" xlink:href="#DejaVuSans-101"/>
    <use x="1027.34375" xlink:href="#DejaVuSans-32"/>
    <use x="1059.130859" xlink:href="#DejaVuSans-115"/>
    <use x="1111.230469" xlink:href="#DejaVuSans-101"/>
    <use x="1172.753906" xlink:href="#DejaVuSans-110"/>
    <use x="1236.132812" xlink:href="#DejaVuSans-115"/>
    <use x="1288.232422" xlink:href="#DejaVuSans-105"/>
    <use x="1316.015625" xlink:href="#DejaVuSans-116"/>
    <use x="1355.224609" xlink:href="#DejaVuSans-105"/>
    <use x="1383.007812" xlink:href="#DejaVuSans-118"/>
    <use x="1442.1875" xlink:href="#DejaVuSans-105"/>
    <use x="1469.970703" xlink:href="#DejaVuSans-116"/>
    <use x="1509.179688" xlink:href="#DejaVuSans-121"/>
    <use x="1568.359375" xlink:href="#DejaVuSans-32"/>
    <use x="1600.146484" xlink:href="#DejaVuSans-102"/>
    <use x="1635.351562" xlink:href="#DejaVuSans-111"/>
    <use x="1696.533203" xlink:href="#DejaVuSans-114"/>
    <use x="1737.646484" xlink:href="#DejaVuSans-32"/>
    <use x="1769.433594" xlink:href="#DejaVuSans-51"/>
    <use x="1833.056641" xlink:href="#DejaVuSans-54"/>
    <use x="1896.679688" xlink:href="#DejaVuSans-48"/>
    <use x="1960.302734" xlink:href="#DejaVuSans-48"/>
    <use x="2023.925781" xlink:href="#DejaVuSans-54"/>
    <use x="2087.548828" xlink:href="#DejaVuSans-56"/>
    <use x="2151.171875" xlink:href="#DejaVuSans-55"/>
   </g>
  </g>
 </g>
 <defs>
  <clipPath id="pb755da63f6">
   <rect height="354.816" width="809.1" x="130.5" y="113.472"/>
  </clipPath>
 </defs>
</svg>
