<?xml version="1.0" encoding="utf-8" standalone="no"?>
<!DOCTYPE svg PUBLIC "-//W3C//DTD SVG 1.1//EN"
  "http://www.w3.org/Graphics/SVG/1.1/DTD/svg11.dtd">
<!-- Created with matplotlib (https://matplotlib.org/) -->
<svg height="576pt" version="1.1" viewBox="0 0 1044 576" width="1044pt" xmlns="http://www.w3.org/2000/svg" xmlns:xlink="http://www.w3.org/1999/xlink">
 <defs>
  <style type="text/css">
*{stroke-linecap:butt;stroke-linejoin:round;}
  </style>
 </defs>
 <g id="figure_1">
  <g id="patch_1">
   <path d="M 0 576 
L 1044 576 
L 1044 0 
L 0 0 
z
" style="fill:#ffffff;"/>
  </g>
  <g id="axes_1">
   <g id="patch_2">
    <path d="M 130.5 468.288 
L 939.6 468.288 
L 939.6 113.472 
L 130.5 113.472 
z
" style="fill:#ffffff;"/>
   </g>
   <g id="matplotlib.axis_1">
    <g id="xtick_1">
     <g id="line2d_1">
      <defs>
       <path d="M 0 0 
L 0 3.5 
" id="m90dc986c48" style="stroke:#000000;stroke-width:0.8;"/>
      </defs>
      <g>
       <use style="stroke:#000000;stroke-width:0.8;" x="130.5" xlink:href="#m90dc986c48" y="468.288"/>
      </g>
     </g>
     <g id="text_1">
      <!-- 0 -->
      <defs>
       <path d="M 31.78125 66.40625 
Q 24.171875 66.40625 20.328125 58.90625 
Q 16.5 51.421875 16.5 36.375 
Q 16.5 21.390625 20.328125 13.890625 
Q 24.171875 6.390625 31.78125 6.390625 
Q 39.453125 6.390625 43.28125 13.890625 
Q 47.125 21.390625 47.125 36.375 
Q 47.125 51.421875 43.28125 58.90625 
Q 39.453125 66.40625 31.78125 66.40625 
z
M 31.78125 74.21875 
Q 44.046875 74.21875 50.515625 64.515625 
Q 56.984375 54.828125 56.984375 36.375 
Q 56.984375 17.96875 50.515625 8.265625 
Q 44.046875 -1.421875 31.78125 -1.421875 
Q 19.53125 -1.421875 13.0625 8.265625 
Q 6.59375 17.96875 6.59375 36.375 
Q 6.59375 54.828125 13.0625 64.515625 
Q 19.53125 74.21875 31.78125 74.21875 
z
" id="DejaVuSans-48"/>
      </defs>
      <g transform="translate(127.31875 482.886437)scale(0.1 -0.1)">
       <use xlink:href="#DejaVuSans-48"/>
      </g>
     </g>
    </g>
    <g id="xtick_2">
     <g id="line2d_2">
      <g>
       <use style="stroke:#000000;stroke-width:0.8;" x="292.32" xlink:href="#m90dc986c48" y="468.288"/>
      </g>
     </g>
     <g id="text_2">
      <!-- 20 -->
      <defs>
       <path d="M 19.1875 8.296875 
L 53.609375 8.296875 
L 53.609375 0 
L 7.328125 0 
L 7.328125 8.296875 
Q 12.9375 14.109375 22.625 23.890625 
Q 32.328125 33.6875 34.8125 36.53125 
Q 39.546875 41.84375 41.421875 45.53125 
Q 43.3125 49.21875 43.3125 52.78125 
Q 43.3125 58.59375 39.234375 62.25 
Q 35.15625 65.921875 28.609375 65.921875 
Q 23.96875 65.921875 18.8125 64.3125 
Q 13.671875 62.703125 7.8125 59.421875 
L 7.8125 69.390625 
Q 13.765625 71.78125 18.9375 73 
Q 24.125 74.21875 28.421875 74.21875 
Q 39.75 74.21875 46.484375 68.546875 
Q 53.21875 62.890625 53.21875 53.421875 
Q 53.21875 48.921875 51.53125 44.890625 
Q 49.859375 40.875 45.40625 35.40625 
Q 44.1875 33.984375 37.640625 27.21875 
Q 31.109375 20.453125 19.1875 8.296875 
z
" id="DejaVuSans-50"/>
      </defs>
      <g transform="translate(285.9575 482.886437)scale(0.1 -0.1)">
       <use xlink:href="#DejaVuSans-50"/>
       <use x="63.623047" xlink:href="#DejaVuSans-48"/>
      </g>
     </g>
    </g>
    <g id="xtick_3">
     <g id="line2d_3">
      <g>
       <use style="stroke:#000000;stroke-width:0.8;" x="454.14" xlink:href="#m90dc986c48" y="468.288"/>
      </g>
     </g>
     <g id="text_3">
      <!-- 40 -->
      <defs>
       <path d="M 37.796875 64.3125 
L 12.890625 25.390625 
L 37.796875 25.390625 
z
M 35.203125 72.90625 
L 47.609375 72.90625 
L 47.609375 25.390625 
L 58.015625 25.390625 
L 58.015625 17.1875 
L 47.609375 17.1875 
L 47.609375 0 
L 37.796875 0 
L 37.796875 17.1875 
L 4.890625 17.1875 
L 4.890625 26.703125 
z
" id="DejaVuSans-52"/>
      </defs>
      <g transform="translate(447.7775 482.886437)scale(0.1 -0.1)">
       <use xlink:href="#DejaVuSans-52"/>
       <use x="63.623047" xlink:href="#DejaVuSans-48"/>
      </g>
     </g>
    </g>
    <g id="xtick_4">
     <g id="line2d_4">
      <g>
       <use style="stroke:#000000;stroke-width:0.8;" x="615.96" xlink:href="#m90dc986c48" y="468.288"/>
      </g>
     </g>
     <g id="text_4">
      <!-- 60 -->
      <defs>
       <path d="M 33.015625 40.375 
Q 26.375 40.375 22.484375 35.828125 
Q 18.609375 31.296875 18.609375 23.390625 
Q 18.609375 15.53125 22.484375 10.953125 
Q 26.375 6.390625 33.015625 6.390625 
Q 39.65625 6.390625 43.53125 10.953125 
Q 47.40625 15.53125 47.40625 23.390625 
Q 47.40625 31.296875 43.53125 35.828125 
Q 39.65625 40.375 33.015625 40.375 
z
M 52.59375 71.296875 
L 52.59375 62.3125 
Q 48.875 64.0625 45.09375 64.984375 
Q 41.3125 65.921875 37.59375 65.921875 
Q 27.828125 65.921875 22.671875 59.328125 
Q 17.53125 52.734375 16.796875 39.40625 
Q 19.671875 43.65625 24.015625 45.921875 
Q 28.375 48.1875 33.59375 48.1875 
Q 44.578125 48.1875 50.953125 41.515625 
Q 57.328125 34.859375 57.328125 23.390625 
Q 57.328125 12.15625 50.6875 5.359375 
Q 44.046875 -1.421875 33.015625 -1.421875 
Q 20.359375 -1.421875 13.671875 8.265625 
Q 6.984375 17.96875 6.984375 36.375 
Q 6.984375 53.65625 15.1875 63.9375 
Q 23.390625 74.21875 37.203125 74.21875 
Q 40.921875 74.21875 44.703125 73.484375 
Q 48.484375 72.75 52.59375 71.296875 
z
" id="DejaVuSans-54"/>
      </defs>
      <g transform="translate(609.5975 482.886437)scale(0.1 -0.1)">
       <use xlink:href="#DejaVuSans-54"/>
       <use x="63.623047" xlink:href="#DejaVuSans-48"/>
      </g>
     </g>
    </g>
    <g id="xtick_5">
     <g id="line2d_5">
      <g>
       <use style="stroke:#000000;stroke-width:0.8;" x="777.78" xlink:href="#m90dc986c48" y="468.288"/>
      </g>
     </g>
     <g id="text_5">
      <!-- 80 -->
      <defs>
       <path d="M 31.78125 34.625 
Q 24.75 34.625 20.71875 30.859375 
Q 16.703125 27.09375 16.703125 20.515625 
Q 16.703125 13.921875 20.71875 10.15625 
Q 24.75 6.390625 31.78125 6.390625 
Q 38.8125 6.390625 42.859375 10.171875 
Q 46.921875 13.96875 46.921875 20.515625 
Q 46.921875 27.09375 42.890625 30.859375 
Q 38.875 34.625 31.78125 34.625 
z
M 21.921875 38.8125 
Q 15.578125 40.375 12.03125 44.71875 
Q 8.5 49.078125 8.5 55.328125 
Q 8.5 64.0625 14.71875 69.140625 
Q 20.953125 74.21875 31.78125 74.21875 
Q 42.671875 74.21875 48.875 69.140625 
Q 55.078125 64.0625 55.078125 55.328125 
Q 55.078125 49.078125 51.53125 44.71875 
Q 48 40.375 41.703125 38.8125 
Q 48.828125 37.15625 52.796875 32.3125 
Q 56.78125 27.484375 56.78125 20.515625 
Q 56.78125 9.90625 50.3125 4.234375 
Q 43.84375 -1.421875 31.78125 -1.421875 
Q 19.734375 -1.421875 13.25 4.234375 
Q 6.78125 9.90625 6.78125 20.515625 
Q 6.78125 27.484375 10.78125 32.3125 
Q 14.796875 37.15625 21.921875 38.8125 
z
M 18.3125 54.390625 
Q 18.3125 48.734375 21.84375 45.5625 
Q 25.390625 42.390625 31.78125 42.390625 
Q 38.140625 42.390625 41.71875 45.5625 
Q 45.3125 48.734375 45.3125 54.390625 
Q 45.3125 60.0625 41.71875 63.234375 
Q 38.140625 66.40625 31.78125 66.40625 
Q 25.390625 66.40625 21.84375 63.234375 
Q 18.3125 60.0625 18.3125 54.390625 
z
" id="DejaVuSans-56"/>
      </defs>
      <g transform="translate(771.4175 482.886437)scale(0.1 -0.1)">
       <use xlink:href="#DejaVuSans-56"/>
       <use x="63.623047" xlink:href="#DejaVuSans-48"/>
      </g>
     </g>
    </g>
    <g id="xtick_6">
     <g id="line2d_6">
      <g>
       <use style="stroke:#000000;stroke-width:0.8;" x="939.6" xlink:href="#m90dc986c48" y="468.288"/>
      </g>
     </g>
     <g id="text_6">
      <!-- 100 -->
      <defs>
       <path d="M 12.40625 8.296875 
L 28.515625 8.296875 
L 28.515625 63.921875 
L 10.984375 60.40625 
L 10.984375 69.390625 
L 28.421875 72.90625 
L 38.28125 72.90625 
L 38.28125 8.296875 
L 54.390625 8.296875 
L 54.390625 0 
L 12.40625 0 
z
" id="DejaVuSans-49"/>
      </defs>
      <g transform="translate(930.05625 482.886437)scale(0.1 -0.1)">
       <use xlink:href="#DejaVuSans-49"/>
       <use x="63.623047" xlink:href="#DejaVuSans-48"/>
       <use x="127.246094" xlink:href="#DejaVuSans-48"/>
      </g>
     </g>
    </g>
    <g id="text_7">
     <!-- Shortage magnitude percentile -->
     <defs>
      <path d="M 53.515625 70.515625 
L 53.515625 60.890625 
Q 47.90625 63.578125 42.921875 64.890625 
Q 37.9375 66.21875 33.296875 66.21875 
Q 25.25 66.21875 20.875 63.09375 
Q 16.5 59.96875 16.5 54.203125 
Q 16.5 49.359375 19.40625 46.890625 
Q 22.3125 44.4375 30.421875 42.921875 
L 36.375 41.703125 
Q 47.40625 39.59375 52.65625 34.296875 
Q 57.90625 29 57.90625 20.125 
Q 57.90625 9.515625 50.796875 4.046875 
Q 43.703125 -1.421875 29.984375 -1.421875 
Q 24.8125 -1.421875 18.96875 -0.25 
Q 13.140625 0.921875 6.890625 3.21875 
L 6.890625 13.375 
Q 12.890625 10.015625 18.65625 8.296875 
Q 24.421875 6.59375 29.984375 6.59375 
Q 38.421875 6.59375 43.015625 9.90625 
Q 47.609375 13.234375 47.609375 19.390625 
Q 47.609375 24.75 44.3125 27.78125 
Q 41.015625 30.8125 33.5 32.328125 
L 27.484375 33.5 
Q 16.453125 35.6875 11.515625 40.375 
Q 6.59375 45.0625 6.59375 53.421875 
Q 6.59375 63.09375 13.40625 68.65625 
Q 20.21875 74.21875 32.171875 74.21875 
Q 37.3125 74.21875 42.625 73.28125 
Q 47.953125 72.359375 53.515625 70.515625 
z
" id="DejaVuSans-83"/>
      <path d="M 54.890625 33.015625 
L 54.890625 0 
L 45.90625 0 
L 45.90625 32.71875 
Q 45.90625 40.484375 42.875 44.328125 
Q 39.84375 48.1875 33.796875 48.1875 
Q 26.515625 48.1875 22.3125 43.546875 
Q 18.109375 38.921875 18.109375 30.90625 
L 18.109375 0 
L 9.078125 0 
L 9.078125 75.984375 
L 18.109375 75.984375 
L 18.109375 46.1875 
Q 21.34375 51.125 25.703125 53.5625 
Q 30.078125 56 35.796875 56 
Q 45.21875 56 50.046875 50.171875 
Q 54.890625 44.34375 54.890625 33.015625 
z
" id="DejaVuSans-104"/>
      <path d="M 30.609375 48.390625 
Q 23.390625 48.390625 19.1875 42.75 
Q 14.984375 37.109375 14.984375 27.296875 
Q 14.984375 17.484375 19.15625 11.84375 
Q 23.34375 6.203125 30.609375 6.203125 
Q 37.796875 6.203125 41.984375 11.859375 
Q 46.1875 17.53125 46.1875 27.296875 
Q 46.1875 37.015625 41.984375 42.703125 
Q 37.796875 48.390625 30.609375 48.390625 
z
M 30.609375 56 
Q 42.328125 56 49.015625 48.375 
Q 55.71875 40.765625 55.71875 27.296875 
Q 55.71875 13.875 49.015625 6.21875 
Q 42.328125 -1.421875 30.609375 -1.421875 
Q 18.84375 -1.421875 12.171875 6.21875 
Q 5.515625 13.875 5.515625 27.296875 
Q 5.515625 40.765625 12.171875 48.375 
Q 18.84375 56 30.609375 56 
z
" id="DejaVuSans-111"/>
      <path d="M 41.109375 46.296875 
Q 39.59375 47.171875 37.8125 47.578125 
Q 36.03125 48 33.890625 48 
Q 26.265625 48 22.1875 43.046875 
Q 18.109375 38.09375 18.109375 28.8125 
L 18.109375 0 
L 9.078125 0 
L 9.078125 54.6875 
L 18.109375 54.6875 
L 18.109375 46.1875 
Q 20.953125 51.171875 25.484375 53.578125 
Q 30.03125 56 36.53125 56 
Q 37.453125 56 38.578125 55.875 
Q 39.703125 55.765625 41.0625 55.515625 
z
" id="DejaVuSans-114"/>
      <path d="M 18.3125 70.21875 
L 18.3125 54.6875 
L 36.8125 54.6875 
L 36.8125 47.703125 
L 18.3125 47.703125 
L 18.3125 18.015625 
Q 18.3125 11.328125 20.140625 9.421875 
Q 21.96875 7.515625 27.59375 7.515625 
L 36.8125 7.515625 
L 36.8125 0 
L 27.59375 0 
Q 17.1875 0 13.234375 3.875 
Q 9.28125 7.765625 9.28125 18.015625 
L 9.28125 47.703125 
L 2.6875 47.703125 
L 2.6875 54.6875 
L 9.28125 54.6875 
L 9.28125 70.21875 
z
" id="DejaVuSans-116"/>
      <path d="M 34.28125 27.484375 
Q 23.390625 27.484375 19.1875 25 
Q 14.984375 22.515625 14.984375 16.5 
Q 14.984375 11.71875 18.140625 8.90625 
Q 21.296875 6.109375 26.703125 6.109375 
Q 34.1875 6.109375 38.703125 11.40625 
Q 43.21875 16.703125 43.21875 25.484375 
L 43.21875 27.484375 
z
M 52.203125 31.203125 
L 52.203125 0 
L 43.21875 0 
L 43.21875 8.296875 
Q 40.140625 3.328125 35.546875 0.953125 
Q 30.953125 -1.421875 24.3125 -1.421875 
Q 15.921875 -1.421875 10.953125 3.296875 
Q 6 8.015625 6 15.921875 
Q 6 25.140625 12.171875 29.828125 
Q 18.359375 34.515625 30.609375 34.515625 
L 43.21875 34.515625 
L 43.21875 35.40625 
Q 43.21875 41.609375 39.140625 45 
Q 35.0625 48.390625 27.6875 48.390625 
Q 23 48.390625 18.546875 47.265625 
Q 14.109375 46.140625 10.015625 43.890625 
L 10.015625 52.203125 
Q 14.9375 54.109375 19.578125 55.046875 
Q 24.21875 56 28.609375 56 
Q 40.484375 56 46.34375 49.84375 
Q 52.203125 43.703125 52.203125 31.203125 
z
" id="DejaVuSans-97"/>
      <path d="M 45.40625 27.984375 
Q 45.40625 37.75 41.375 43.109375 
Q 37.359375 48.484375 30.078125 48.484375 
Q 22.859375 48.484375 18.828125 43.109375 
Q 14.796875 37.75 14.796875 27.984375 
Q 14.796875 18.265625 18.828125 12.890625 
Q 22.859375 7.515625 30.078125 7.515625 
Q 37.359375 7.515625 41.375 12.890625 
Q 45.40625 18.265625 45.40625 27.984375 
z
M 54.390625 6.78125 
Q 54.390625 -7.171875 48.1875 -13.984375 
Q 42 -20.796875 29.203125 -20.796875 
Q 24.46875 -20.796875 20.265625 -20.09375 
Q 16.0625 -19.390625 12.109375 -17.921875 
L 12.109375 -9.1875 
Q 16.0625 -11.328125 19.921875 -12.34375 
Q 23.78125 -13.375 27.78125 -13.375 
Q 36.625 -13.375 41.015625 -8.765625 
Q 45.40625 -4.15625 45.40625 5.171875 
L 45.40625 9.625 
Q 42.625 4.78125 38.28125 2.390625 
Q 33.9375 0 27.875 0 
Q 17.828125 0 11.671875 7.65625 
Q 5.515625 15.328125 5.515625 27.984375 
Q 5.515625 40.671875 11.671875 48.328125 
Q 17.828125 56 27.875 56 
Q 33.9375 56 38.28125 53.609375 
Q 42.625 51.21875 45.40625 46.390625 
L 45.40625 54.6875 
L 54.390625 54.6875 
z
" id="DejaVuSans-103"/>
      <path d="M 56.203125 29.59375 
L 56.203125 25.203125 
L 14.890625 25.203125 
Q 15.484375 15.921875 20.484375 11.0625 
Q 25.484375 6.203125 34.421875 6.203125 
Q 39.59375 6.203125 44.453125 7.46875 
Q 49.3125 8.734375 54.109375 11.28125 
L 54.109375 2.78125 
Q 49.265625 0.734375 44.1875 -0.34375 
Q 39.109375 -1.421875 33.890625 -1.421875 
Q 20.796875 -1.421875 13.15625 6.1875 
Q 5.515625 13.8125 5.515625 26.8125 
Q 5.515625 40.234375 12.765625 48.109375 
Q 20.015625 56 32.328125 56 
Q 43.359375 56 49.78125 48.890625 
Q 56.203125 41.796875 56.203125 29.59375 
z
M 47.21875 32.234375 
Q 47.125 39.59375 43.09375 43.984375 
Q 39.0625 48.390625 32.421875 48.390625 
Q 24.90625 48.390625 20.390625 44.140625 
Q 15.875 39.890625 15.1875 32.171875 
z
" id="DejaVuSans-101"/>
      <path id="DejaVuSans-32"/>
      <path d="M 52 44.1875 
Q 55.375 50.25 60.0625 53.125 
Q 64.75 56 71.09375 56 
Q 79.640625 56 84.28125 50.015625 
Q 88.921875 44.046875 88.921875 33.015625 
L 88.921875 0 
L 79.890625 0 
L 79.890625 32.71875 
Q 79.890625 40.578125 77.09375 44.375 
Q 74.3125 48.1875 68.609375 48.1875 
Q 61.625 48.1875 57.5625 43.546875 
Q 53.515625 38.921875 53.515625 30.90625 
L 53.515625 0 
L 44.484375 0 
L 44.484375 32.71875 
Q 44.484375 40.625 41.703125 44.40625 
Q 38.921875 48.1875 33.109375 48.1875 
Q 26.21875 48.1875 22.15625 43.53125 
Q 18.109375 38.875 18.109375 30.90625 
L 18.109375 0 
L 9.078125 0 
L 9.078125 54.6875 
L 18.109375 54.6875 
L 18.109375 46.1875 
Q 21.1875 51.21875 25.484375 53.609375 
Q 29.78125 56 35.6875 56 
Q 41.65625 56 45.828125 52.96875 
Q 50 49.953125 52 44.1875 
z
" id="DejaVuSans-109"/>
      <path d="M 54.890625 33.015625 
L 54.890625 0 
L 45.90625 0 
L 45.90625 32.71875 
Q 45.90625 40.484375 42.875 44.328125 
Q 39.84375 48.1875 33.796875 48.1875 
Q 26.515625 48.1875 22.3125 43.546875 
Q 18.109375 38.921875 18.109375 30.90625 
L 18.109375 0 
L 9.078125 0 
L 9.078125 54.6875 
L 18.109375 54.6875 
L 18.109375 46.1875 
Q 21.34375 51.125 25.703125 53.5625 
Q 30.078125 56 35.796875 56 
Q 45.21875 56 50.046875 50.171875 
Q 54.890625 44.34375 54.890625 33.015625 
z
" id="DejaVuSans-110"/>
      <path d="M 9.421875 54.6875 
L 18.40625 54.6875 
L 18.40625 0 
L 9.421875 0 
z
M 9.421875 75.984375 
L 18.40625 75.984375 
L 18.40625 64.59375 
L 9.421875 64.59375 
z
" id="DejaVuSans-105"/>
      <path d="M 8.5 21.578125 
L 8.5 54.6875 
L 17.484375 54.6875 
L 17.484375 21.921875 
Q 17.484375 14.15625 20.5 10.265625 
Q 23.53125 6.390625 29.59375 6.390625 
Q 36.859375 6.390625 41.078125 11.03125 
Q 45.3125 15.671875 45.3125 23.6875 
L 45.3125 54.6875 
L 54.296875 54.6875 
L 54.296875 0 
L 45.3125 0 
L 45.3125 8.40625 
Q 42.046875 3.421875 37.71875 1 
Q 33.40625 -1.421875 27.6875 -1.421875 
Q 18.265625 -1.421875 13.375 4.4375 
Q 8.5 10.296875 8.5 21.578125 
z
M 31.109375 56 
z
" id="DejaVuSans-117"/>
      <path d="M 45.40625 46.390625 
L 45.40625 75.984375 
L 54.390625 75.984375 
L 54.390625 0 
L 45.40625 0 
L 45.40625 8.203125 
Q 42.578125 3.328125 38.25 0.953125 
Q 33.9375 -1.421875 27.875 -1.421875 
Q 17.96875 -1.421875 11.734375 6.484375 
Q 5.515625 14.40625 5.515625 27.296875 
Q 5.515625 40.1875 11.734375 48.09375 
Q 17.96875 56 27.875 56 
Q 33.9375 56 38.25 53.625 
Q 42.578125 51.265625 45.40625 46.390625 
z
M 14.796875 27.296875 
Q 14.796875 17.390625 18.875 11.75 
Q 22.953125 6.109375 30.078125 6.109375 
Q 37.203125 6.109375 41.296875 11.75 
Q 45.40625 17.390625 45.40625 27.296875 
Q 45.40625 37.203125 41.296875 42.84375 
Q 37.203125 48.484375 30.078125 48.484375 
Q 22.953125 48.484375 18.875 42.84375 
Q 14.796875 37.203125 14.796875 27.296875 
z
" id="DejaVuSans-100"/>
      <path d="M 18.109375 8.203125 
L 18.109375 -20.796875 
L 9.078125 -20.796875 
L 9.078125 54.6875 
L 18.109375 54.6875 
L 18.109375 46.390625 
Q 20.953125 51.265625 25.265625 53.625 
Q 29.59375 56 35.59375 56 
Q 45.5625 56 51.78125 48.09375 
Q 58.015625 40.1875 58.015625 27.296875 
Q 58.015625 14.40625 51.78125 6.484375 
Q 45.5625 -1.421875 35.59375 -1.421875 
Q 29.59375 -1.421875 25.265625 0.953125 
Q 20.953125 3.328125 18.109375 8.203125 
z
M 48.6875 27.296875 
Q 48.6875 37.203125 44.609375 42.84375 
Q 40.53125 48.484375 33.40625 48.484375 
Q 26.265625 48.484375 22.1875 42.84375 
Q 18.109375 37.203125 18.109375 27.296875 
Q 18.109375 17.390625 22.1875 11.75 
Q 26.265625 6.109375 33.40625 6.109375 
Q 40.53125 6.109375 44.609375 11.75 
Q 48.6875 17.390625 48.6875 27.296875 
z
" id="DejaVuSans-112"/>
      <path d="M 48.78125 52.59375 
L 48.78125 44.1875 
Q 44.96875 46.296875 41.140625 47.34375 
Q 37.3125 48.390625 33.40625 48.390625 
Q 24.65625 48.390625 19.8125 42.84375 
Q 14.984375 37.3125 14.984375 27.296875 
Q 14.984375 17.28125 19.8125 11.734375 
Q 24.65625 6.203125 33.40625 6.203125 
Q 37.3125 6.203125 41.140625 7.25 
Q 44.96875 8.296875 48.78125 10.40625 
L 48.78125 2.09375 
Q 45.015625 0.34375 40.984375 -0.53125 
Q 36.96875 -1.421875 32.421875 -1.421875 
Q 20.0625 -1.421875 12.78125 6.34375 
Q 5.515625 14.109375 5.515625 27.296875 
Q 5.515625 40.671875 12.859375 48.328125 
Q 20.21875 56 33.015625 56 
Q 37.15625 56 41.109375 55.140625 
Q 45.0625 54.296875 48.78125 52.59375 
z
" id="DejaVuSans-99"/>
      <path d="M 9.421875 75.984375 
L 18.40625 75.984375 
L 18.40625 0 
L 9.421875 0 
z
" id="DejaVuSans-108"/>
     </defs>
     <g transform="translate(410.13625 501.123625)scale(0.16 -0.16)">
      <use xlink:href="#DejaVuSans-83"/>
      <use x="63.476562" xlink:href="#DejaVuSans-104"/>
      <use x="126.855469" xlink:href="#DejaVuSans-111"/>
      <use x="188.037109" xlink:href="#DejaVuSans-114"/>
      <use x="229.150391" xlink:href="#DejaVuSans-116"/>
      <use x="268.359375" xlink:href="#DejaVuSans-97"/>
      <use x="329.638672" xlink:href="#DejaVuSans-103"/>
      <use x="393.115234" xlink:href="#DejaVuSans-101"/>
      <use x="454.638672" xlink:href="#DejaVuSans-32"/>
      <use x="486.425781" xlink:href="#DejaVuSans-109"/>
      <use x="583.837891" xlink:href="#DejaVuSans-97"/>
      <use x="645.117188" xlink:href="#DejaVuSans-103"/>
      <use x="708.59375" xlink:href="#DejaVuSans-110"/>
      <use x="771.972656" xlink:href="#DejaVuSans-105"/>
      <use x="799.755859" xlink:href="#DejaVuSans-116"/>
      <use x="838.964844" xlink:href="#DejaVuSans-117"/>
      <use x="902.34375" xlink:href="#DejaVuSans-100"/>
      <use x="965.820312" xlink:href="#DejaVuSans-101"/>
      <use x="1027.34375" xlink:href="#DejaVuSans-32"/>
      <use x="1059.130859" xlink:href="#DejaVuSans-112"/>
      <use x="1122.607422" xlink:href="#DejaVuSans-101"/>
      <use x="1184.130859" xlink:href="#DejaVuSans-114"/>
      <use x="1225.212891" xlink:href="#DejaVuSans-99"/>
      <use x="1280.193359" xlink:href="#DejaVuSans-101"/>
      <use x="1341.716797" xlink:href="#DejaVuSans-110"/>
      <use x="1405.095703" xlink:href="#DejaVuSans-116"/>
      <use x="1444.304688" xlink:href="#DejaVuSans-105"/>
      <use x="1472.087891" xlink:href="#DejaVuSans-108"/>
      <use x="1499.871094" xlink:href="#DejaVuSans-101"/>
     </g>
    </g>
   </g>
   <g id="matplotlib.axis_2">
    <g id="ytick_1">
     <g id="line2d_7">
      <defs>
       <path d="M 0 0 
L -3.5 0 
" id="mb9b4dcd7de" style="stroke:#000000;stroke-width:0.8;"/>
      </defs>
      <g>
       <use style="stroke:#000000;stroke-width:0.8;" x="130.5" xlink:href="#mb9b4dcd7de" y="468.288"/>
      </g>
     </g>
     <g id="text_8">
      <!-- 0.0 -->
      <defs>
       <path d="M 10.6875 12.40625 
L 21 12.40625 
L 21 0 
L 10.6875 0 
z
" id="DejaVuSans-46"/>
      </defs>
      <g transform="translate(107.596875 472.087219)scale(0.1 -0.1)">
       <use xlink:href="#DejaVuSans-48"/>
       <use x="63.623047" xlink:href="#DejaVuSans-46"/>
       <use x="95.410156" xlink:href="#DejaVuSans-48"/>
      </g>
     </g>
    </g>
    <g id="ytick_2">
     <g id="line2d_8">
      <g>
       <use style="stroke:#000000;stroke-width:0.8;" x="130.5" xlink:href="#mb9b4dcd7de" y="397.3248"/>
      </g>
     </g>
     <g id="text_9">
      <!-- 0.2 -->
      <g transform="translate(107.596875 401.124019)scale(0.1 -0.1)">
       <use xlink:href="#DejaVuSans-48"/>
       <use x="63.623047" xlink:href="#DejaVuSans-46"/>
       <use x="95.410156" xlink:href="#DejaVuSans-50"/>
      </g>
     </g>
    </g>
    <g id="ytick_3">
     <g id="line2d_9">
      <g>
       <use style="stroke:#000000;stroke-width:0.8;" x="130.5" xlink:href="#mb9b4dcd7de" y="326.3616"/>
      </g>
     </g>
     <g id="text_10">
      <!-- 0.4 -->
      <g transform="translate(107.596875 330.160819)scale(0.1 -0.1)">
       <use xlink:href="#DejaVuSans-48"/>
       <use x="63.623047" xlink:href="#DejaVuSans-46"/>
       <use x="95.410156" xlink:href="#DejaVuSans-52"/>
      </g>
     </g>
    </g>
    <g id="ytick_4">
     <g id="line2d_10">
      <g>
       <use style="stroke:#000000;stroke-width:0.8;" x="130.5" xlink:href="#mb9b4dcd7de" y="255.3984"/>
      </g>
     </g>
     <g id="text_11">
      <!-- 0.6 -->
      <g transform="translate(107.596875 259.197619)scale(0.1 -0.1)">
       <use xlink:href="#DejaVuSans-48"/>
       <use x="63.623047" xlink:href="#DejaVuSans-46"/>
       <use x="95.410156" xlink:href="#DejaVuSans-54"/>
      </g>
     </g>
    </g>
    <g id="ytick_5">
     <g id="line2d_11">
      <g>
       <use style="stroke:#000000;stroke-width:0.8;" x="130.5" xlink:href="#mb9b4dcd7de" y="184.4352"/>
      </g>
     </g>
     <g id="text_12">
      <!-- 0.8 -->
      <g transform="translate(107.596875 188.234419)scale(0.1 -0.1)">
       <use xlink:href="#DejaVuSans-48"/>
       <use x="63.623047" xlink:href="#DejaVuSans-46"/>
       <use x="95.410156" xlink:href="#DejaVuSans-56"/>
      </g>
     </g>
    </g>
    <g id="ytick_6">
     <g id="line2d_12">
      <g>
       <use style="stroke:#000000;stroke-width:0.8;" x="130.5" xlink:href="#mb9b4dcd7de" y="113.472"/>
      </g>
     </g>
     <g id="text_13">
      <!-- 1.0 -->
      <g transform="translate(107.596875 117.271219)scale(0.1 -0.1)">
       <use xlink:href="#DejaVuSans-49"/>
       <use x="63.623047" xlink:href="#DejaVuSans-46"/>
       <use x="95.410156" xlink:href="#DejaVuSans-48"/>
      </g>
     </g>
    </g>
    <g id="text_14">
     <!-- Variance explained -->
     <defs>
      <path d="M 28.609375 0 
L 0.78125 72.90625 
L 11.078125 72.90625 
L 34.1875 11.53125 
L 57.328125 72.90625 
L 67.578125 72.90625 
L 39.796875 0 
z
" id="DejaVuSans-86"/>
      <path d="M 54.890625 54.6875 
L 35.109375 28.078125 
L 55.90625 0 
L 45.3125 0 
L 29.390625 21.484375 
L 13.484375 0 
L 2.875 0 
L 24.125 28.609375 
L 4.6875 54.6875 
L 15.28125 54.6875 
L 29.78125 35.203125 
L 44.28125 54.6875 
z
" id="DejaVuSans-120"/>
     </defs>
     <g transform="translate(100.269375 367.7475)rotate(-90)scale(0.16 -0.16)">
      <use xlink:href="#DejaVuSans-86"/>
      <use x="68.298828" xlink:href="#DejaVuSans-97"/>
      <use x="129.578125" xlink:href="#DejaVuSans-114"/>
      <use x="170.691406" xlink:href="#DejaVuSans-105"/>
      <use x="198.474609" xlink:href="#DejaVuSans-97"/>
      <use x="259.753906" xlink:href="#DejaVuSans-110"/>
      <use x="323.132812" xlink:href="#DejaVuSans-99"/>
      <use x="378.113281" xlink:href="#DejaVuSans-101"/>
      <use x="439.636719" xlink:href="#DejaVuSans-32"/>
      <use x="471.423828" xlink:href="#DejaVuSans-101"/>
      <use x="532.931641" xlink:href="#DejaVuSans-120"/>
      <use x="592.111328" xlink:href="#DejaVuSans-112"/>
      <use x="655.587891" xlink:href="#DejaVuSans-108"/>
      <use x="683.371094" xlink:href="#DejaVuSans-97"/>
      <use x="744.650391" xlink:href="#DejaVuSans-105"/>
      <use x="772.433594" xlink:href="#DejaVuSans-110"/>
      <use x="835.8125" xlink:href="#DejaVuSans-101"/>
      <use x="897.335938" xlink:href="#DejaVuSans-100"/>
     </g>
    </g>
   </g>
   <g id="line2d_13">
    <path clip-path="url(#p4f4eda6e95)" d="M 130.5 467.654558 
L 138.591 467.585998 
L 146.682 467.571954 
L 154.773 467.596743 
L 162.864 467.640253 
L 170.955 467.658794 
L 179.046 467.683907 
L 187.137 467.700165 
L 195.228 467.71081 
L 203.319 467.72538 
L 211.41 467.738124 
L 219.501 467.753546 
L 227.592 467.77008 
L 235.683 467.781192 
L 243.774 467.788228 
L 251.865 467.799786 
L 259.956 467.807754 
L 268.047 467.811106 
L 276.138 467.819024 
L 284.229 467.824911 
L 292.32 467.833142 
L 300.411 467.837891 
L 308.502 467.846169 
L 316.593 467.853541 
L 324.684 467.86171 
L 332.775 467.865645 
L 340.866 467.869084 
L 348.957 467.874338 
L 357.048 467.878786 
L 365.139 467.886407 
L 373.23 467.891077 
L 381.321 467.894364 
L 389.412 467.898715 
L 397.503 467.902869 
L 405.594 467.907153 
L 413.685 467.913224 
L 421.776 467.920612 
L 429.867 467.926482 
L 437.958 467.931744 
L 446.049 467.936422 
L 454.14 467.94093 
L 462.231 467.944065 
L 470.322 467.949266 
L 478.413 467.955309 
L 486.504 467.96119 
L 494.595 467.965763 
L 502.686 467.969974 
L 510.777 467.973488 
L 518.868 467.978026 
L 526.959 467.983061 
L 535.05 467.987696 
L 543.141 467.996836 
L 551.232 468.001487 
L 559.323 468.004751 
L 567.414 468.009164 
L 575.505 468.012926 
L 583.596 468.017627 
L 591.687 468.022796 
L 599.778 468.028227 
L 607.869 468.033768 
L 615.96 468.039752 
L 624.051 468.045324 
L 632.142 468.05284 
L 640.233 468.058999 
L 648.324 468.062892 
L 656.415 468.068598 
L 664.506 468.074926 
L 672.597 468.081521 
L 680.688 468.088498 
L 688.779 468.09471 
L 696.87 468.101767 
L 704.961 468.109876 
L 713.052 468.116775 
L 721.143 468.125278 
L 729.234 468.132925 
L 737.325 468.140551 
L 745.416 468.147172 
L 753.507 468.153725 
L 761.598 468.160623 
L 769.689 468.166588 
L 777.78 468.171784 
L 785.871 468.180516 
L 793.962 468.190519 
L 802.053 468.197804 
L 810.144 468.204362 
L 818.235 468.212009 
L 826.326 468.219162 
L 834.417 468.226238 
L 842.508 468.232395 
L 850.599 468.237678 
L 858.69 468.244202 
L 866.781 468.250944 
L 874.872 468.256408 
L 882.963 468.261602 
L 891.054 468.265871 
L 899.145 468.269293 
L 907.236 468.273757 
L 915.327 468.274955 
L 923.418 468.275852 
L 931.509 468.273519 
" style="fill:none;stroke:#f18670;stroke-linecap:square;stroke-width:2;"/>
   </g>
   <g id="line2d_14">
    <path clip-path="url(#p4f4eda6e95)" d="M 130.5 466.758935 
L 138.591 466.949581 
L 146.682 466.928393 
L 154.773 466.979602 
L 162.864 466.990741 
L 170.955 467.016636 
L 179.046 467.034417 
L 187.137 467.046734 
L 195.228 467.056108 
L 203.319 467.066458 
L 211.41 467.076287 
L 219.501 467.082131 
L 227.592 467.088471 
L 235.683 467.089009 
L 243.774 467.083521 
L 251.865 467.081165 
L 259.956 467.08047 
L 268.047 467.083056 
L 276.138 467.086809 
L 284.229 467.088955 
L 292.32 467.085105 
L 300.411 467.085796 
L 308.502 467.089602 
L 316.593 467.086781 
L 324.684 467.0859 
L 332.775 467.087206 
L 340.866 467.097164 
L 348.957 467.098654 
L 357.048 467.098854 
L 365.139 467.100513 
L 373.23 467.106513 
L 381.321 467.111413 
L 389.412 467.116524 
L 397.503 467.118155 
L 405.594 467.12386 
L 413.685 467.130209 
L 421.776 467.131989 
L 429.867 467.134138 
L 437.958 467.138129 
L 446.049 467.138615 
L 454.14 467.141814 
L 462.231 467.144197 
L 470.322 467.143782 
L 478.413 467.148 
L 486.504 467.148589 
L 494.595 467.149553 
L 502.686 467.148656 
L 510.777 467.151265 
L 518.868 467.157278 
L 526.959 467.160266 
L 535.05 467.165604 
L 543.141 467.16716 
L 551.232 467.169419 
L 559.323 467.166991 
L 567.414 467.163504 
L 575.505 467.164621 
L 583.596 467.167435 
L 591.687 467.171 
L 599.778 467.168475 
L 607.869 467.170144 
L 615.96 467.171503 
L 624.051 467.169463 
L 632.142 467.171553 
L 640.233 467.174454 
L 648.324 467.177553 
L 656.415 467.175414 
L 664.506 467.167054 
L 672.597 467.163978 
L 680.688 467.167341 
L 688.779 467.169753 
L 696.87 467.16947 
L 704.961 467.170255 
L 713.052 467.17615 
L 721.143 467.175312 
L 729.234 467.183198 
L 737.325 467.184496 
L 745.416 467.187266 
L 753.507 467.18682 
L 761.598 467.185597 
L 769.689 467.185096 
L 777.78 467.180192 
L 785.871 467.182791 
L 793.962 467.186072 
L 802.053 467.183683 
L 810.144 467.178607 
L 818.235 467.178996 
L 826.326 467.178989 
L 834.417 467.176673 
L 842.508 467.179167 
L 850.599 467.17933 
L 858.69 467.183215 
L 866.781 467.189291 
L 874.872 467.196217 
L 882.963 467.200216 
L 891.054 467.206584 
L 899.145 467.217222 
L 907.236 467.232069 
L 915.327 467.23276 
L 923.418 467.272528 
L 931.509 467.268684 
" style="fill:none;stroke:#e24d3f;stroke-linecap:square;stroke-width:2;"/>
   </g>
   <g id="line2d_15">
    <path clip-path="url(#p4f4eda6e95)" d="M 130.5 166.236504 
L 138.591 157.416773 
L 146.682 153.487291 
L 154.773 150.513653 
L 162.864 148.07751 
L 170.955 146.261169 
L 179.046 144.665998 
L 187.137 143.339633 
L 195.228 142.192419 
L 203.319 141.131157 
L 211.41 140.178716 
L 219.501 139.347068 
L 227.592 138.597734 
L 235.683 137.856107 
L 243.774 137.18011 
L 251.865 136.587998 
L 259.956 136.043212 
L 268.047 135.562079 
L 276.138 135.090185 
L 284.229 134.63035 
L 292.32 134.191271 
L 300.411 133.780005 
L 308.502 133.388595 
L 316.593 133.037344 
L 324.684 132.719738 
L 332.775 132.383657 
L 340.866 132.064859 
L 348.957 131.764305 
L 357.048 131.535764 
L 365.139 131.270224 
L 373.23 131.016932 
L 381.321 130.757115 
L 389.412 130.534552 
L 397.503 130.318967 
L 405.594 130.109543 
L 413.685 129.901364 
L 421.776 129.684538 
L 429.867 129.484778 
L 437.958 129.29461 
L 446.049 129.107578 
L 454.14 128.930548 
L 462.231 128.769044 
L 470.322 128.575721 
L 478.413 128.402942 
L 486.504 128.254049 
L 494.595 128.102813 
L 502.686 127.947066 
L 510.777 127.811106 
L 518.868 127.686296 
L 526.959 127.53837 
L 535.05 127.403334 
L 543.141 127.293157 
L 551.232 127.190181 
L 559.323 127.098604 
L 567.414 126.980215 
L 575.505 126.859148 
L 583.596 126.766007 
L 591.687 126.680567 
L 599.778 126.595432 
L 607.869 126.506537 
L 615.96 126.417623 
L 624.051 126.340333 
L 632.142 126.282535 
L 640.233 126.225522 
L 648.324 126.174892 
L 656.415 126.13442 
L 664.506 126.099656 
L 672.597 126.075798 
L 680.688 126.055887 
L 688.779 126.033252 
L 696.87 126.024881 
L 704.961 126.053389 
L 713.052 126.061245 
L 721.143 126.085805 
L 729.234 126.121128 
L 737.325 126.167896 
L 745.416 126.186682 
L 753.507 126.257444 
L 761.598 126.330078 
L 769.689 126.390499 
L 777.78 126.46177 
L 785.871 126.548951 
L 793.962 126.635123 
L 802.053 126.74178 
L 810.144 126.879116 
L 818.235 127.010126 
L 826.326 127.139203 
L 834.417 127.304539 
L 842.508 127.447771 
L 850.599 127.601127 
L 858.69 127.787844 
L 866.781 127.990117 
L 874.872 128.162702 
L 882.963 128.343223 
L 891.054 128.541594 
L 899.145 128.710275 
L 907.236 128.806014 
L 915.327 128.853202 
L 923.418 128.819038 
L 931.509 128.539112 
" style="fill:none;stroke:#cf233e;stroke-linecap:square;stroke-width:2;"/>
   </g>
   <g id="line2d_16">
    <path clip-path="url(#p4f4eda6e95)" d="M 130.5 468.286434 
L 138.591 468.287091 
L 146.682 468.287414 
L 154.773 468.28711 
L 162.864 468.286558 
L 170.955 468.284345 
L 179.046 468.281742 
L 187.137 468.278175 
L 195.228 468.275538 
L 203.319 468.272572 
L 211.41 468.271533 
L 219.501 468.270212 
L 227.592 468.267089 
L 235.683 468.264633 
L 243.774 468.262353 
L 251.865 468.259712 
L 259.956 468.258542 
L 268.047 468.259088 
L 276.138 468.258492 
L 284.229 468.257298 
L 292.32 468.256589 
L 300.411 468.255624 
L 308.502 468.254671 
L 316.593 468.25437 
L 324.684 468.254633 
L 332.775 468.254796 
L 340.866 468.254094 
L 348.957 468.255579 
L 357.048 468.255638 
L 365.139 468.255279 
L 373.23 468.254402 
L 381.321 468.253393 
L 389.412 468.252634 
L 397.503 468.251544 
L 405.594 468.250786 
L 413.685 468.248972 
L 421.776 468.246881 
L 429.867 468.246016 
L 437.958 468.244992 
L 446.049 468.24392 
L 454.14 468.243648 
L 462.231 468.24397 
L 470.322 468.243389 
L 478.413 468.242983 
L 486.504 468.242401 
L 494.595 468.24139 
L 502.686 468.240478 
L 510.777 468.239716 
L 518.868 468.239594 
L 526.959 468.238149 
L 535.05 468.236196 
L 543.141 468.236046 
L 551.232 468.235504 
L 559.323 468.234381 
L 567.414 468.232126 
L 575.505 468.230372 
L 583.596 468.229101 
L 591.687 468.227217 
L 599.778 468.225229 
L 607.869 468.224134 
L 615.96 468.222758 
L 624.051 468.221969 
L 632.142 468.221358 
L 640.233 468.220491 
L 648.324 468.219535 
L 656.415 468.218457 
L 664.506 468.217799 
L 672.597 468.216256 
L 680.688 468.215418 
L 688.779 468.214211 
L 696.87 468.212011 
L 704.961 468.210456 
L 713.052 468.211015 
L 721.143 468.212678 
L 729.234 468.21406 
L 737.325 468.213276 
L 745.416 468.213348 
L 753.507 468.213343 
L 761.598 468.213993 
L 769.689 468.2149 
L 777.78 468.21634 
L 785.871 468.216357 
L 793.962 468.214804 
L 802.053 468.213978 
L 810.144 468.213249 
L 818.235 468.212305 
L 826.326 468.210234 
L 834.417 468.209471 
L 842.508 468.209984 
L 850.599 468.211605 
L 858.69 468.214961 
L 866.781 468.218578 
L 874.872 468.222954 
L 882.963 468.226845 
L 891.054 468.230431 
L 899.145 468.231698 
L 907.236 468.234414 
L 915.327 468.238829 
L 923.418 468.234475 
L 931.509 468.232131 
" style="fill:none;stroke:#681e33;stroke-linecap:square;stroke-width:2;"/>
   </g>
   <g id="line2d_17">
    <path clip-path="url(#p4f4eda6e95)" d="M 130.5 468.092789 
L 138.591 468.103609 
L 146.682 468.096341 
L 154.773 468.091453 
L 162.864 468.089866 
L 170.955 468.099508 
L 179.046 468.098565 
L 187.137 468.101917 
L 195.228 468.099294 
L 203.319 468.098042 
L 211.41 468.095712 
L 219.501 468.095746 
L 227.592 468.092086 
L 235.683 468.088249 
L 243.774 468.08824 
L 251.865 468.089498 
L 259.956 468.0907 
L 268.047 468.090537 
L 276.138 468.090244 
L 284.229 468.090937 
L 292.32 468.093203 
L 300.411 468.094528 
L 308.502 468.096791 
L 316.593 468.098495 
L 324.684 468.10278 
L 332.775 468.099743 
L 340.866 468.102387 
L 348.957 468.104781 
L 357.048 468.106722 
L 365.139 468.10672 
L 373.23 468.109406 
L 381.321 468.111696 
L 389.412 468.116051 
L 397.503 468.12135 
L 405.594 468.124075 
L 413.685 468.126448 
L 421.776 468.128812 
L 429.867 468.131796 
L 437.958 468.135059 
L 446.049 468.13926 
L 454.14 468.144453 
L 462.231 468.14917 
L 470.322 468.154117 
L 478.413 468.15871 
L 486.504 468.162782 
L 494.595 468.166573 
L 502.686 468.171002 
L 510.777 468.176119 
L 518.868 468.18203 
L 526.959 468.185454 
L 535.05 468.192476 
L 543.141 468.19724 
L 551.232 468.203409 
L 559.323 468.208501 
L 567.414 468.21329 
L 575.505 468.217447 
L 583.596 468.222278 
L 591.687 468.226644 
L 599.778 468.231177 
L 607.869 468.235224 
L 615.96 468.239314 
L 624.051 468.243663 
L 632.142 468.24838 
L 640.233 468.252892 
L 648.324 468.257285 
L 656.415 468.261394 
L 664.506 468.265495 
L 672.597 468.269488 
L 680.688 468.273103 
L 688.779 468.276651 
L 696.87 468.279687 
L 704.961 468.28179 
L 713.052 468.283769 
L 721.143 468.285614 
L 729.234 468.286981 
L 737.325 468.287889 
L 745.416 468.287883 
L 753.507 468.286891 
L 761.598 468.285286 
L 769.689 468.282795 
L 777.78 468.279725 
L 785.871 468.275582 
L 793.962 468.270039 
L 802.053 468.26337 
L 810.144 468.255286 
L 818.235 468.246481 
L 826.326 468.236147 
L 834.417 468.22481 
L 842.508 468.213378 
L 850.599 468.19928 
L 858.69 468.182943 
L 866.781 468.168571 
L 874.872 468.154387 
L 882.963 468.140752 
L 891.054 468.128485 
L 899.145 468.118944 
L 907.236 468.115989 
L 915.327 468.115299 
L 923.418 468.122269 
L 931.509 468.140389 
" style="fill:none;stroke:#676572;stroke-linecap:square;stroke-width:2;"/>
   </g>
   <g id="line2d_18">
    <path clip-path="url(#p4f4eda6e95)" d="M 130.5 468.196317 
L 138.591 468.207687 
L 146.682 468.189859 
L 154.773 468.195219 
L 162.864 468.200601 
L 170.955 468.208371 
L 179.046 468.20372 
L 187.137 468.207053 
L 195.228 468.209354 
L 203.319 468.205956 
L 211.41 468.201862 
L 219.501 468.200795 
L 227.592 468.201545 
L 235.683 468.201494 
L 243.774 468.199943 
L 251.865 468.198505 
L 259.956 468.196318 
L 268.047 468.194803 
L 276.138 468.194013 
L 284.229 468.192241 
L 292.32 468.190104 
L 300.411 468.190354 
L 308.502 468.189294 
L 316.593 468.188454 
L 324.684 468.187203 
L 332.775 468.186151 
L 340.866 468.186578 
L 348.957 468.185556 
L 357.048 468.182475 
L 365.139 468.182992 
L 373.23 468.179707 
L 381.321 468.177599 
L 389.412 468.176666 
L 397.503 468.175825 
L 405.594 468.175682 
L 413.685 468.176757 
L 421.776 468.177308 
L 429.867 468.177225 
L 437.958 468.175636 
L 446.049 468.17437 
L 454.14 468.174184 
L 462.231 468.173769 
L 470.322 468.173312 
L 478.413 468.173439 
L 486.504 468.172893 
L 494.595 468.172695 
L 502.686 468.172046 
L 510.777 468.170837 
L 518.868 468.171433 
L 526.959 468.172427 
L 535.05 468.172217 
L 543.141 468.173122 
L 551.232 468.174411 
L 559.323 468.175669 
L 567.414 468.176695 
L 575.505 468.177381 
L 583.596 468.177712 
L 591.687 468.178076 
L 599.778 468.17978 
L 607.869 468.181318 
L 615.96 468.183144 
L 624.051 468.184517 
L 632.142 468.185534 
L 640.233 468.187155 
L 648.324 468.188125 
L 656.415 468.188917 
L 664.506 468.189515 
L 672.597 468.191122 
L 680.688 468.193502 
L 688.779 468.193739 
L 696.87 468.193859 
L 704.961 468.194434 
L 713.052 468.19692 
L 721.143 468.197936 
L 729.234 468.199979 
L 737.325 468.200597 
L 745.416 468.19975 
L 753.507 468.19937 
L 761.598 468.201658 
L 769.689 468.203946 
L 777.78 468.204004 
L 785.871 468.205028 
L 793.962 468.204443 
L 802.053 468.205738 
L 810.144 468.207973 
L 818.235 468.21184 
L 826.326 468.214147 
L 834.417 468.215858 
L 842.508 468.218687 
L 850.599 468.221844 
L 858.69 468.2234 
L 866.781 468.22403 
L 874.872 468.223285 
L 882.963 468.222769 
L 891.054 468.220667 
L 899.145 468.220439 
L 907.236 468.225432 
L 915.327 468.226948 
L 923.418 468.229725 
L 931.509 468.230035 
" style="fill:none;stroke:#f3be22;stroke-linecap:square;stroke-width:2;"/>
   </g>
   <g id="line2d_19">
    <path clip-path="url(#p4f4eda6e95)" d="M 130.5 467.373194 
L 138.591 467.356886 
L 146.682 467.313644 
L 154.773 467.31807 
L 162.864 467.290891 
L 170.955 467.292982 
L 179.046 467.285499 
L 187.137 467.284502 
L 195.228 467.299487 
L 203.319 467.32076 
L 211.41 467.335569 
L 219.501 467.344266 
L 227.592 467.351123 
L 235.683 467.357982 
L 243.774 467.365375 
L 251.865 467.373892 
L 259.956 467.38547 
L 268.047 467.393502 
L 276.138 467.398719 
L 284.229 467.411704 
L 292.32 467.418792 
L 300.411 467.431114 
L 308.502 467.438007 
L 316.593 467.450395 
L 324.684 467.465977 
L 332.775 467.475084 
L 340.866 467.483873 
L 348.957 467.488699 
L 357.048 467.496137 
L 365.139 467.502974 
L 373.23 467.509823 
L 381.321 467.515018 
L 389.412 467.51879 
L 397.503 467.521385 
L 405.594 467.529937 
L 413.685 467.535091 
L 421.776 467.538464 
L 429.867 467.541555 
L 437.958 467.543679 
L 446.049 467.546438 
L 454.14 467.548263 
L 462.231 467.546437 
L 470.322 467.544723 
L 478.413 467.543904 
L 486.504 467.541876 
L 494.595 467.534065 
L 502.686 467.533041 
L 510.777 467.527639 
L 518.868 467.532048 
L 526.959 467.530838 
L 535.05 467.528703 
L 543.141 467.523686 
L 551.232 467.521388 
L 559.323 467.517557 
L 567.414 467.51506 
L 575.505 467.511415 
L 583.596 467.511464 
L 591.687 467.509179 
L 599.778 467.508221 
L 607.869 467.506649 
L 615.96 467.502871 
L 624.051 467.501187 
L 632.142 467.500399 
L 640.233 467.496566 
L 648.324 467.492673 
L 656.415 467.490119 
L 664.506 467.482975 
L 672.597 467.476048 
L 680.688 467.471039 
L 688.779 467.460918 
L 696.87 467.453835 
L 704.961 467.445653 
L 713.052 467.438822 
L 721.143 467.435448 
L 729.234 467.430483 
L 737.325 467.428503 
L 745.416 467.419664 
L 753.507 467.40675 
L 761.598 467.400627 
L 769.689 467.394527 
L 777.78 467.393081 
L 785.871 467.387686 
L 793.962 467.379632 
L 802.053 467.374214 
L 810.144 467.372296 
L 818.235 467.369723 
L 826.326 467.365017 
L 834.417 467.355743 
L 842.508 467.351335 
L 850.599 467.345081 
L 858.69 467.34322 
L 866.781 467.355323 
L 874.872 467.364443 
L 882.963 467.367568 
L 891.054 467.36982 
L 899.145 467.381936 
L 907.236 467.396999 
L 915.327 467.400421 
L 923.418 467.42483 
L 931.509 467.459431 
" style="fill:none;stroke:#59deba;stroke-linecap:square;stroke-width:2;"/>
   </g>
   <g id="line2d_20">
    <path clip-path="url(#p4f4eda6e95)" d="M 130.5 468.202258 
L 138.591 468.167388 
L 146.682 468.137949 
L 154.773 468.139427 
L 162.864 468.141215 
L 170.955 468.128053 
L 179.046 468.111674 
L 187.137 468.085929 
L 195.228 468.064174 
L 203.319 468.038005 
L 211.41 468.006616 
L 219.501 467.976727 
L 227.592 467.946258 
L 235.683 467.914513 
L 243.774 467.890033 
L 251.865 467.865191 
L 259.956 467.837775 
L 268.047 467.81429 
L 276.138 467.792193 
L 284.229 467.772888 
L 292.32 467.752249 
L 300.411 467.731289 
L 308.502 467.708263 
L 316.593 467.687814 
L 324.684 467.663124 
L 332.775 467.640859 
L 340.866 467.616821 
L 348.957 467.596135 
L 357.048 467.570718 
L 365.139 467.548539 
L 373.23 467.529556 
L 381.321 467.509816 
L 389.412 467.489928 
L 397.503 467.468782 
L 405.594 467.448116 
L 413.685 467.426737 
L 421.776 467.40496 
L 429.867 467.381456 
L 437.958 467.361153 
L 446.049 467.339616 
L 454.14 467.316384 
L 462.231 467.29471 
L 470.322 467.269967 
L 478.413 467.240218 
L 486.504 467.20951 
L 494.595 467.183713 
L 502.686 467.15843 
L 510.777 467.123254 
L 518.868 467.090594 
L 526.959 467.063527 
L 535.05 467.025292 
L 543.141 466.985629 
L 551.232 466.946244 
L 559.323 466.911513 
L 567.414 466.876078 
L 575.505 466.841616 
L 583.596 466.801471 
L 591.687 466.764575 
L 599.778 466.725619 
L 607.869 466.691306 
L 615.96 466.659307 
L 624.051 466.623816 
L 632.142 466.579883 
L 640.233 466.533107 
L 648.324 466.488405 
L 656.415 466.440448 
L 664.506 466.386198 
L 672.597 466.333464 
L 680.688 466.280494 
L 688.779 466.22444 
L 696.87 466.168884 
L 704.961 466.10551 
L 713.052 466.050021 
L 721.143 465.984495 
L 729.234 465.912498 
L 737.325 465.840267 
L 745.416 465.770389 
L 753.507 465.6905 
L 761.598 465.616002 
L 769.689 465.545232 
L 777.78 465.467404 
L 785.871 465.395184 
L 793.962 465.317069 
L 802.053 465.231102 
L 810.144 465.146788 
L 818.235 465.053667 
L 826.326 464.963782 
L 834.417 464.876142 
L 842.508 464.786422 
L 850.599 464.698263 
L 858.69 464.601558 
L 866.781 464.489611 
L 874.872 464.389229 
L 882.963 464.28721 
L 891.054 464.198933 
L 899.145 464.121374 
L 907.236 464.069463 
L 915.327 464.035215 
L 923.418 464.042779 
L 931.509 464.185236 
" style="fill:none;stroke:#14015c;stroke-linecap:square;stroke-width:2;"/>
   </g>
   <g id="line2d_21">
    <path clip-path="url(#p4f4eda6e95)" d="M 130.5 467.45273 
L 138.591 467.532394 
L 146.682 467.601534 
L 154.773 467.619397 
L 162.864 467.619059 
L 170.955 467.643873 
L 179.046 467.659669 
L 187.137 467.676251 
L 195.228 467.694273 
L 203.319 467.707682 
L 211.41 467.714679 
L 219.501 467.717661 
L 227.592 467.719955 
L 235.683 467.729002 
L 243.774 467.737872 
L 251.865 467.740796 
L 259.956 467.743295 
L 268.047 467.745411 
L 276.138 467.74999 
L 284.229 467.75703 
L 292.32 467.760065 
L 300.411 467.766839 
L 308.502 467.772102 
L 316.593 467.777979 
L 324.684 467.78558 
L 332.775 467.788462 
L 340.866 467.795578 
L 348.957 467.804601 
L 357.048 467.807348 
L 365.139 467.812452 
L 373.23 467.818201 
L 381.321 467.825748 
L 389.412 467.83326 
L 397.503 467.844029 
L 405.594 467.8476 
L 413.685 467.850596 
L 421.776 467.858343 
L 429.867 467.863897 
L 437.958 467.87025 
L 446.049 467.876102 
L 454.14 467.881848 
L 462.231 467.888191 
L 470.322 467.89409 
L 478.413 467.902534 
L 486.504 467.911246 
L 494.595 467.9181 
L 502.686 467.922119 
L 510.777 467.927485 
L 518.868 467.938632 
L 526.959 467.946192 
L 535.05 467.9499 
L 543.141 467.955697 
L 551.232 467.961455 
L 559.323 467.967913 
L 567.414 467.975834 
L 575.505 467.982503 
L 583.596 467.99008 
L 591.687 467.998091 
L 599.778 468.006131 
L 607.869 468.014152 
L 615.96 468.02314 
L 624.051 468.032187 
L 632.142 468.041005 
L 640.233 468.049762 
L 648.324 468.056784 
L 656.415 468.064254 
L 664.506 468.072542 
L 672.597 468.080903 
L 680.688 468.088956 
L 688.779 468.095293 
L 696.87 468.103562 
L 704.961 468.11066 
L 713.052 468.118562 
L 721.143 468.128816 
L 729.234 468.139507 
L 737.325 468.147829 
L 745.416 468.159523 
L 753.507 468.170416 
L 761.598 468.180645 
L 769.689 468.190496 
L 777.78 468.201368 
L 785.871 468.210915 
L 793.962 468.220543 
L 802.053 468.231283 
L 810.144 468.240555 
L 818.235 468.248299 
L 826.326 468.255586 
L 834.417 468.26309 
L 842.508 468.270418 
L 850.599 468.276372 
L 858.69 468.280992 
L 866.781 468.284828 
L 874.872 468.287542 
L 882.963 468.287747 
L 891.054 468.284658 
L 899.145 468.276588 
L 907.236 468.264749 
L 915.327 468.243655 
L 923.418 468.214511 
L 931.509 468.178803 
" style="fill:none;stroke:#daf8a3;stroke-linecap:square;stroke-width:2;"/>
   </g>
   <g id="line2d_22">
    <path clip-path="url(#p4f4eda6e95)" d="M 130.5 449.728924 
L 138.591 450.887688 
L 146.682 452.211718 
L 154.773 453.431884 
L 162.864 454.574587 
L 170.955 455.514141 
L 179.046 456.353073 
L 187.137 457.047538 
L 195.228 457.590891 
L 203.319 458.10275 
L 211.41 458.578993 
L 219.501 458.985353 
L 227.592 459.332012 
L 235.683 459.653234 
L 243.774 459.934927 
L 251.865 460.169577 
L 259.956 460.385301 
L 268.047 460.569937 
L 276.138 460.734787 
L 284.229 460.89521 
L 292.32 461.062058 
L 300.411 461.208417 
L 308.502 461.326043 
L 316.593 461.440897 
L 324.684 461.574671 
L 332.775 461.678079 
L 340.866 461.789468 
L 348.957 461.894773 
L 357.048 462.002877 
L 365.139 462.119079 
L 373.23 462.227016 
L 381.321 462.341419 
L 389.412 462.448245 
L 397.503 462.559504 
L 405.594 462.670851 
L 413.685 462.783878 
L 421.776 462.90644 
L 429.867 463.022373 
L 437.958 463.133943 
L 446.049 463.239782 
L 454.14 463.344508 
L 462.231 463.441697 
L 470.322 463.553102 
L 478.413 463.660726 
L 486.504 463.768885 
L 494.595 463.878442 
L 502.686 463.984953 
L 510.777 464.099186 
L 518.868 464.192636 
L 526.959 464.298916 
L 535.05 464.397268 
L 543.141 464.493166 
L 551.232 464.591937 
L 559.323 464.67745 
L 567.414 464.768195 
L 575.505 464.864339 
L 583.596 464.955587 
L 591.687 465.036809 
L 599.778 465.117314 
L 607.869 465.19398 
L 615.96 465.27063 
L 624.051 465.345335 
L 632.142 465.417177 
L 640.233 465.489848 
L 648.324 465.561686 
L 656.415 465.633427 
L 664.506 465.70851 
L 672.597 465.779124 
L 680.688 465.849081 
L 688.779 465.915362 
L 696.87 465.981311 
L 704.961 466.037943 
L 713.052 466.093004 
L 721.143 466.157178 
L 729.234 466.210152 
L 737.325 466.251542 
L 745.416 466.301978 
L 753.507 466.361075 
L 761.598 466.414917 
L 769.689 466.464894 
L 777.78 466.511295 
L 785.871 466.558914 
L 793.962 466.609118 
L 802.053 466.655437 
L 810.144 466.694877 
L 818.235 466.729705 
L 826.326 466.763781 
L 834.417 466.80491 
L 842.508 466.853786 
L 850.599 466.897217 
L 858.69 466.937432 
L 866.781 466.974612 
L 874.872 467.008184 
L 882.963 467.046441 
L 891.054 467.087479 
L 899.145 467.134355 
L 907.236 467.193719 
L 915.327 467.251674 
L 923.418 467.318991 
L 931.509 467.397684 
" style="fill:none;stroke:#0b7a0a;stroke-linecap:square;stroke-width:2;"/>
   </g>
   <g id="line2d_23">
    <path clip-path="url(#p4f4eda6e95)" d="M 130.5 466.766904 
L 138.591 467.106804 
L 146.682 467.331895 
L 154.773 467.52704 
L 162.864 467.639557 
L 170.955 467.749354 
L 179.046 467.825406 
L 187.137 467.881808 
L 195.228 467.933953 
L 203.319 467.978816 
L 211.41 468.016909 
L 219.501 468.050585 
L 227.592 468.081598 
L 235.683 468.105826 
L 243.774 468.127286 
L 251.865 468.146743 
L 259.956 468.163691 
L 268.047 468.177965 
L 276.138 468.19188 
L 284.229 468.205589 
L 292.32 468.216876 
L 300.411 468.226747 
L 308.502 468.235333 
L 316.593 468.242494 
L 324.684 468.248833 
L 332.775 468.256005 
L 340.866 468.262014 
L 348.957 468.266846 
L 357.048 468.271143 
L 365.139 468.275493 
L 373.23 468.278598 
L 381.321 468.280674 
L 389.412 468.282359 
L 397.503 468.283807 
L 405.594 468.285068 
L 413.685 468.285974 
L 421.776 468.286687 
L 429.867 468.287301 
L 437.958 468.287725 
L 446.049 468.287914 
L 454.14 468.287994 
L 462.231 468.287983 
L 470.322 468.287864 
L 478.413 468.287631 
L 486.504 468.287267 
L 494.595 468.286755 
L 502.686 468.286253 
L 510.777 468.285815 
L 518.868 468.285357 
L 526.959 468.284623 
L 535.05 468.28361 
L 543.141 468.282885 
L 551.232 468.28242 
L 559.323 468.281742 
L 567.414 468.281073 
L 575.505 468.28069 
L 583.596 468.280193 
L 591.687 468.279354 
L 599.778 468.278464 
L 607.869 468.2777 
L 615.96 468.277139 
L 624.051 468.276771 
L 632.142 468.276263 
L 640.233 468.275735 
L 648.324 468.275239 
L 656.415 468.274955 
L 664.506 468.274514 
L 672.597 468.273922 
L 680.688 468.27355 
L 688.779 468.273386 
L 696.87 468.272811 
L 704.961 468.272466 
L 713.052 468.272222 
L 721.143 468.272286 
L 729.234 468.271741 
L 737.325 468.271267 
L 745.416 468.270716 
L 753.507 468.270052 
L 761.598 468.269797 
L 769.689 468.269243 
L 777.78 468.26851 
L 785.871 468.268068 
L 793.962 468.267731 
L 802.053 468.267216 
L 810.144 468.267386 
L 818.235 468.267484 
L 826.326 468.267224 
L 834.417 468.266787 
L 842.508 468.266721 
L 850.599 468.266942 
L 858.69 468.267659 
L 866.781 468.2666 
L 874.872 468.266123 
L 882.963 468.264582 
L 891.054 468.262781 
L 899.145 468.260927 
L 907.236 468.261016 
L 915.327 468.258528 
L 923.418 468.258132 
L 931.509 468.258553 
" style="fill:none;stroke:#f8ffa2;stroke-linecap:square;stroke-width:2;"/>
   </g>
   <g id="line2d_24">
    <path clip-path="url(#p4f4eda6e95)" d="M 130.5 468.204539 
L 138.591 468.202866 
L 146.682 468.186335 
L 154.773 468.180814 
L 162.864 468.179204 
L 170.955 468.177494 
L 179.046 468.17997 
L 187.137 468.173207 
L 195.228 468.169936 
L 203.319 468.171782 
L 211.41 468.174851 
L 219.501 468.176597 
L 227.592 468.178254 
L 235.683 468.180612 
L 243.774 468.182086 
L 251.865 468.183171 
L 259.956 468.184157 
L 268.047 468.187039 
L 276.138 468.189545 
L 284.229 468.191688 
L 292.32 468.190024 
L 300.411 468.189462 
L 308.502 468.192163 
L 316.593 468.192427 
L 324.684 468.19012 
L 332.775 468.190761 
L 340.866 468.190617 
L 348.957 468.190839 
L 357.048 468.189166 
L 365.139 468.188386 
L 373.23 468.18687 
L 381.321 468.187406 
L 389.412 468.185885 
L 397.503 468.183827 
L 405.594 468.182349 
L 413.685 468.181021 
L 421.776 468.181095 
L 429.867 468.181842 
L 437.958 468.181647 
L 446.049 468.181408 
L 454.14 468.181603 
L 462.231 468.182209 
L 470.322 468.182482 
L 478.413 468.182531 
L 486.504 468.183271 
L 494.595 468.184471 
L 502.686 468.185748 
L 510.777 468.188041 
L 518.868 468.189677 
L 526.959 468.1917 
L 535.05 468.194379 
L 543.141 468.195952 
L 551.232 468.198126 
L 559.323 468.200134 
L 567.414 468.202663 
L 575.505 468.204638 
L 583.596 468.208024 
L 591.687 468.210503 
L 599.778 468.213776 
L 607.869 468.216653 
L 615.96 468.219569 
L 624.051 468.222212 
L 632.142 468.224655 
L 640.233 468.227728 
L 648.324 468.230829 
L 656.415 468.234296 
L 664.506 468.238049 
L 672.597 468.240953 
L 680.688 468.243864 
L 688.779 468.246814 
L 696.87 468.249021 
L 704.961 468.251316 
L 713.052 468.254557 
L 721.143 468.256833 
L 729.234 468.259253 
L 737.325 468.261215 
L 745.416 468.264891 
L 753.507 468.266345 
L 761.598 468.268146 
L 769.689 468.270436 
L 777.78 468.2728 
L 785.871 468.274681 
L 793.962 468.276245 
L 802.053 468.277762 
L 810.144 468.278712 
L 818.235 468.279655 
L 826.326 468.280642 
L 834.417 468.281665 
L 842.508 468.283125 
L 850.599 468.284372 
L 858.69 468.284818 
L 866.781 468.285459 
L 874.872 468.286158 
L 882.963 468.286783 
L 891.054 468.287642 
L 899.145 468.287992 
L 907.236 468.287909 
L 915.327 468.287436 
L 923.418 468.286053 
L 931.509 468.280216 
" style="fill:none;stroke:#578dc0;stroke-linecap:square;stroke-width:2;"/>
   </g>
   <g id="line2d_25">
    <path clip-path="url(#p4f4eda6e95)" d="M 130.5 467.4306 
L 138.591 467.314134 
L 146.682 467.236933 
L 154.773 467.208228 
L 162.864 467.194236 
L 170.955 467.146261 
L 179.046 467.101746 
L 187.137 467.093291 
L 195.228 467.080671 
L 203.319 467.047457 
L 211.41 467.005777 
L 219.501 466.981577 
L 227.592 466.969869 
L 235.683 466.954699 
L 243.774 466.928836 
L 251.865 466.904913 
L 259.956 466.892662 
L 268.047 466.875498 
L 276.138 466.854973 
L 284.229 466.835015 
L 292.32 466.82201 
L 300.411 466.822199 
L 308.502 466.806954 
L 316.593 466.797575 
L 324.684 466.78975 
L 332.775 466.781095 
L 340.866 466.765748 
L 348.957 466.764267 
L 357.048 466.752439 
L 365.139 466.732862 
L 373.23 466.718567 
L 381.321 466.705029 
L 389.412 466.689502 
L 397.503 466.671045 
L 405.594 466.65269 
L 413.685 466.639198 
L 421.776 466.625956 
L 429.867 466.613196 
L 437.958 466.597024 
L 446.049 466.58674 
L 454.14 466.575849 
L 462.231 466.559551 
L 470.322 466.55374 
L 478.413 466.544741 
L 486.504 466.536493 
L 494.595 466.534259 
L 502.686 466.529112 
L 510.777 466.518812 
L 518.868 466.511956 
L 526.959 466.517553 
L 535.05 466.512833 
L 543.141 466.512972 
L 551.232 466.515641 
L 559.323 466.520384 
L 567.414 466.530507 
L 575.505 466.534667 
L 583.596 466.536968 
L 591.687 466.538438 
L 599.778 466.541279 
L 607.869 466.544785 
L 615.96 466.547342 
L 624.051 466.547075 
L 632.142 466.549215 
L 640.233 466.553132 
L 648.324 466.556842 
L 656.415 466.560218 
L 664.506 466.569511 
L 672.597 466.58029 
L 680.688 466.592294 
L 688.779 466.611828 
L 696.87 466.626992 
L 704.961 466.638275 
L 713.052 466.647633 
L 721.143 466.650769 
L 729.234 466.66159 
L 737.325 466.672298 
L 745.416 466.682116 
L 753.507 466.698716 
L 761.598 466.715924 
L 769.689 466.731538 
L 777.78 466.75058 
L 785.871 466.765429 
L 793.962 466.78663 
L 802.053 466.812137 
L 810.144 466.8254 
L 818.235 466.843997 
L 826.326 466.874692 
L 834.417 466.898532 
L 842.508 466.9232 
L 850.599 466.947458 
L 858.69 466.967851 
L 866.781 466.993166 
L 874.872 467.026787 
L 882.963 467.063699 
L 891.054 467.10226 
L 899.145 467.130989 
L 907.236 467.163283 
L 915.327 467.223281 
L 923.418 467.281284 
L 931.509 467.360332 
" style="fill:none;stroke:#4e4ad8;stroke-linecap:square;stroke-width:2;"/>
   </g>
   <g id="line2d_26">
    <path clip-path="url(#p4f4eda6e95)" d="M 130.5 453.419382 
L 138.591 453.073649 
L 146.682 453.204382 
L 154.773 453.644434 
L 162.864 454.221089 
L 170.955 454.706721 
L 179.046 455.15009 
L 187.137 455.583062 
L 195.228 456.020719 
L 203.319 456.420456 
L 211.41 456.809061 
L 219.501 457.161747 
L 227.592 457.480864 
L 235.683 457.801849 
L 243.774 458.13419 
L 251.865 458.4417 
L 259.956 458.725499 
L 268.047 458.975094 
L 276.138 459.235382 
L 284.229 459.490488 
L 292.32 459.738947 
L 300.411 459.968234 
L 308.502 460.213107 
L 316.593 460.419959 
L 324.684 460.616665 
L 332.775 460.811475 
L 340.866 461.013114 
L 348.957 461.192271 
L 357.048 461.330837 
L 365.139 461.484722 
L 373.23 461.629889 
L 381.321 461.771646 
L 389.412 461.906192 
L 397.503 462.032556 
L 405.594 462.155298 
L 413.685 462.276287 
L 421.776 462.392445 
L 429.867 462.496604 
L 437.958 462.593948 
L 446.049 462.694151 
L 454.14 462.793647 
L 462.231 462.885085 
L 470.322 462.988152 
L 478.413 463.087178 
L 486.504 463.166225 
L 494.595 463.238466 
L 502.686 463.314558 
L 510.777 463.388316 
L 518.868 463.458564 
L 526.959 463.519627 
L 535.05 463.594753 
L 543.141 463.658242 
L 551.232 463.718831 
L 559.323 463.764787 
L 567.414 463.824614 
L 575.505 463.88651 
L 583.596 463.93778 
L 591.687 463.989097 
L 599.778 464.04134 
L 607.869 464.096038 
L 615.96 464.146215 
L 624.051 464.197698 
L 632.142 464.251488 
L 640.233 464.301393 
L 648.324 464.343826 
L 656.415 464.383118 
L 664.506 464.417001 
L 672.597 464.452358 
L 680.688 464.487565 
L 688.779 464.520251 
L 696.87 464.547885 
L 704.961 464.565148 
L 713.052 464.589505 
L 721.143 464.613024 
L 729.234 464.646448 
L 737.325 464.678251 
L 745.416 464.72528 
L 753.507 464.740208 
L 761.598 464.740911 
L 769.689 464.745469 
L 777.78 464.752956 
L 785.871 464.763654 
L 793.962 464.775968 
L 802.053 464.780787 
L 810.144 464.782698 
L 818.235 464.796927 
L 826.326 464.807584 
L 834.417 464.80281 
L 842.508 464.804068 
L 850.599 464.799057 
L 858.69 464.786579 
L 866.781 464.775636 
L 874.872 464.776782 
L 882.963 464.779335 
L 891.054 464.768717 
L 899.145 464.777722 
L 907.236 464.835416 
L 915.327 464.928586 
L 923.418 465.11172 
L 931.509 465.436665 
" style="fill:none;stroke:#32b3f7;stroke-linecap:square;stroke-width:2;"/>
   </g>
   <g id="patch_3">
    <path d="M 130.5 468.288 
L 130.5 113.472 
" style="fill:none;stroke:#000000;stroke-linecap:square;stroke-linejoin:miter;stroke-width:0.8;"/>
   </g>
   <g id="patch_4">
    <path d="M 939.6 468.288 
L 939.6 113.472 
" style="fill:none;stroke:#000000;stroke-linecap:square;stroke-linejoin:miter;stroke-width:0.8;"/>
   </g>
   <g id="patch_5">
    <path d="M 130.5 468.288 
L 939.6 468.288 
" style="fill:none;stroke:#000000;stroke-linecap:square;stroke-linejoin:miter;stroke-width:0.8;"/>
   </g>
   <g id="patch_6">
    <path d="M 130.5 113.472 
L 939.6 113.472 
" style="fill:none;stroke:#000000;stroke-linecap:square;stroke-linejoin:miter;stroke-width:0.8;"/>
   </g>
   <g id="text_15">
    <!-- R2 -->
    <defs>
     <path d="M 44.390625 34.1875 
Q 47.5625 33.109375 50.5625 29.59375 
Q 53.5625 26.078125 56.59375 19.921875 
L 66.609375 0 
L 56 0 
L 46.6875 18.703125 
Q 43.0625 26.03125 39.671875 28.421875 
Q 36.28125 30.8125 30.421875 30.8125 
L 19.671875 30.8125 
L 19.671875 0 
L 9.8125 0 
L 9.8125 72.90625 
L 32.078125 72.90625 
Q 44.578125 72.90625 50.734375 67.671875 
Q 56.890625 62.453125 56.890625 51.90625 
Q 56.890625 45.015625 53.6875 40.46875 
Q 50.484375 35.9375 44.390625 34.1875 
z
M 19.671875 64.796875 
L 19.671875 38.921875 
L 32.078125 38.921875 
Q 39.203125 38.921875 42.84375 42.21875 
Q 46.484375 45.515625 46.484375 51.90625 
Q 46.484375 58.296875 42.84375 61.546875 
Q 39.203125 64.796875 32.078125 64.796875 
z
" id="DejaVuSans-82"/>
    </defs>
    <g transform="translate(527.063437 107.472)scale(0.12 -0.12)">
     <use xlink:href="#DejaVuSans-82"/>
     <use x="69.482422" xlink:href="#DejaVuSans-50"/>
    </g>
   </g>
   <g id="legend_1">
    <g id="patch_7">
     <path d="M 152.324219 640.696 
L 917.775781 640.696 
Q 919.775781 640.696 919.775781 638.696 
L 919.775781 595.661625 
Q 919.775781 593.661625 917.775781 593.661625 
L 152.324219 593.661625 
Q 150.324219 593.661625 150.324219 595.661625 
L 150.324219 638.696 
Q 150.324219 640.696 152.324219 640.696 
z
" style="fill:#ffffff;opacity:0.8;stroke:#cccccc;stroke-linejoin:miter;"/>
    </g>
    <g id="line2d_27">
     <path style="fill:none;stroke:#f18670;stroke-linecap:square;stroke-width:2;"/>
    </g>
    <g id="line2d_28"/>
    <g id="text_16">
     <!-- IWR demand mutliplier -->
     <defs>
      <path d="M 9.8125 72.90625 
L 19.671875 72.90625 
L 19.671875 0 
L 9.8125 0 
z
" id="DejaVuSans-73"/>
      <path d="M 3.328125 72.90625 
L 13.28125 72.90625 
L 28.609375 11.28125 
L 43.890625 72.90625 
L 54.984375 72.90625 
L 70.3125 11.28125 
L 85.59375 72.90625 
L 95.609375 72.90625 
L 77.296875 0 
L 64.890625 0 
L 49.515625 63.28125 
L 33.984375 0 
L 21.578125 0 
z
" id="DejaVuSans-87"/>
     </defs>
     <g transform="translate(182.324219 605.260063)scale(0.1 -0.1)">
      <use xlink:href="#DejaVuSans-73"/>
      <use x="29.492188" xlink:href="#DejaVuSans-87"/>
      <use x="128.369141" xlink:href="#DejaVuSans-82"/>
      <use x="197.851562" xlink:href="#DejaVuSans-32"/>
      <use x="229.638672" xlink:href="#DejaVuSans-100"/>
      <use x="293.115234" xlink:href="#DejaVuSans-101"/>
      <use x="354.638672" xlink:href="#DejaVuSans-109"/>
      <use x="452.050781" xlink:href="#DejaVuSans-97"/>
      <use x="513.330078" xlink:href="#DejaVuSans-110"/>
      <use x="576.708984" xlink:href="#DejaVuSans-100"/>
      <use x="640.185547" xlink:href="#DejaVuSans-32"/>
      <use x="671.972656" xlink:href="#DejaVuSans-109"/>
      <use x="769.384766" xlink:href="#DejaVuSans-117"/>
      <use x="832.763672" xlink:href="#DejaVuSans-116"/>
      <use x="871.972656" xlink:href="#DejaVuSans-108"/>
      <use x="899.755859" xlink:href="#DejaVuSans-105"/>
      <use x="927.539062" xlink:href="#DejaVuSans-112"/>
      <use x="991.015625" xlink:href="#DejaVuSans-108"/>
      <use x="1018.798828" xlink:href="#DejaVuSans-105"/>
      <use x="1046.582031" xlink:href="#DejaVuSans-101"/>
      <use x="1108.105469" xlink:href="#DejaVuSans-114"/>
     </g>
    </g>
    <g id="line2d_29">
     <path style="fill:none;stroke:#e24d3f;stroke-linecap:square;stroke-width:2;"/>
    </g>
    <g id="line2d_30"/>
    <g id="text_17">
     <!-- Reservoir loss -->
     <defs>
      <path d="M 44.28125 53.078125 
L 44.28125 44.578125 
Q 40.484375 46.53125 36.375 47.5 
Q 32.28125 48.484375 27.875 48.484375 
Q 21.1875 48.484375 17.84375 46.4375 
Q 14.5 44.390625 14.5 40.28125 
Q 14.5 37.15625 16.890625 35.375 
Q 19.28125 33.59375 26.515625 31.984375 
L 29.59375 31.296875 
Q 39.15625 29.25 43.1875 25.515625 
Q 47.21875 21.78125 47.21875 15.09375 
Q 47.21875 7.46875 41.1875 3.015625 
Q 35.15625 -1.421875 24.609375 -1.421875 
Q 20.21875 -1.421875 15.453125 -0.5625 
Q 10.6875 0.296875 5.421875 2 
L 5.421875 11.28125 
Q 10.40625 8.6875 15.234375 7.390625 
Q 20.0625 6.109375 24.8125 6.109375 
Q 31.15625 6.109375 34.5625 8.28125 
Q 37.984375 10.453125 37.984375 14.40625 
Q 37.984375 18.0625 35.515625 20.015625 
Q 33.0625 21.96875 24.703125 23.78125 
L 21.578125 24.515625 
Q 13.234375 26.265625 9.515625 29.90625 
Q 5.8125 33.546875 5.8125 39.890625 
Q 5.8125 47.609375 11.28125 51.796875 
Q 16.75 56 26.8125 56 
Q 31.78125 56 36.171875 55.265625 
Q 40.578125 54.546875 44.28125 53.078125 
z
" id="DejaVuSans-115"/>
      <path d="M 2.984375 54.6875 
L 12.5 54.6875 
L 29.59375 8.796875 
L 46.6875 54.6875 
L 56.203125 54.6875 
L 35.6875 0 
L 23.484375 0 
z
" id="DejaVuSans-118"/>
     </defs>
     <g transform="translate(182.324219 619.938188)scale(0.1 -0.1)">
      <use xlink:href="#DejaVuSans-82"/>
      <use x="69.419922" xlink:href="#DejaVuSans-101"/>
      <use x="130.943359" xlink:href="#DejaVuSans-115"/>
      <use x="183.042969" xlink:href="#DejaVuSans-101"/>
      <use x="244.566406" xlink:href="#DejaVuSans-114"/>
      <use x="285.679688" xlink:href="#DejaVuSans-118"/>
      <use x="344.859375" xlink:href="#DejaVuSans-111"/>
      <use x="406.041016" xlink:href="#DejaVuSans-105"/>
      <use x="433.824219" xlink:href="#DejaVuSans-114"/>
      <use x="474.9375" xlink:href="#DejaVuSans-32"/>
      <use x="506.724609" xlink:href="#DejaVuSans-108"/>
      <use x="534.507812" xlink:href="#DejaVuSans-111"/>
      <use x="595.689453" xlink:href="#DejaVuSans-115"/>
      <use x="647.789062" xlink:href="#DejaVuSans-115"/>
     </g>
    </g>
    <g id="line2d_31">
     <path style="fill:none;stroke:#cf233e;stroke-linecap:square;stroke-width:2;"/>
    </g>
    <g id="line2d_32"/>
    <g id="text_18">
     <!-- TBD demand multiplier -->
     <defs>
      <path d="M -0.296875 72.90625 
L 61.375 72.90625 
L 61.375 64.59375 
L 35.5 64.59375 
L 35.5 0 
L 25.59375 0 
L 25.59375 64.59375 
L -0.296875 64.59375 
z
" id="DejaVuSans-84"/>
      <path d="M 19.671875 34.8125 
L 19.671875 8.109375 
L 35.5 8.109375 
Q 43.453125 8.109375 47.28125 11.40625 
Q 51.125 14.703125 51.125 21.484375 
Q 51.125 28.328125 47.28125 31.5625 
Q 43.453125 34.8125 35.5 34.8125 
z
M 19.671875 64.796875 
L 19.671875 42.828125 
L 34.28125 42.828125 
Q 41.5 42.828125 45.03125 45.53125 
Q 48.578125 48.25 48.578125 53.8125 
Q 48.578125 59.328125 45.03125 62.0625 
Q 41.5 64.796875 34.28125 64.796875 
z
M 9.8125 72.90625 
L 35.015625 72.90625 
Q 46.296875 72.90625 52.390625 68.21875 
Q 58.5 63.53125 58.5 54.890625 
Q 58.5 48.1875 55.375 44.234375 
Q 52.25 40.28125 46.1875 39.3125 
Q 53.46875 37.75 57.5 32.78125 
Q 61.53125 27.828125 61.53125 20.40625 
Q 61.53125 10.640625 54.890625 5.3125 
Q 48.25 0 35.984375 0 
L 9.8125 0 
z
" id="DejaVuSans-66"/>
      <path d="M 19.671875 64.796875 
L 19.671875 8.109375 
L 31.59375 8.109375 
Q 46.6875 8.109375 53.6875 14.9375 
Q 60.6875 21.78125 60.6875 36.53125 
Q 60.6875 51.171875 53.6875 57.984375 
Q 46.6875 64.796875 31.59375 64.796875 
z
M 9.8125 72.90625 
L 30.078125 72.90625 
Q 51.265625 72.90625 61.171875 64.09375 
Q 71.09375 55.28125 71.09375 36.53125 
Q 71.09375 17.671875 61.125 8.828125 
Q 51.171875 0 30.078125 0 
L 9.8125 0 
z
" id="DejaVuSans-68"/>
     </defs>
     <g transform="translate(182.324219 634.616313)scale(0.1 -0.1)">
      <use xlink:href="#DejaVuSans-84"/>
      <use x="61.083984" xlink:href="#DejaVuSans-66"/>
      <use x="129.6875" xlink:href="#DejaVuSans-68"/>
      <use x="206.689453" xlink:href="#DejaVuSans-32"/>
      <use x="238.476562" xlink:href="#DejaVuSans-100"/>
      <use x="301.953125" xlink:href="#DejaVuSans-101"/>
      <use x="363.476562" xlink:href="#DejaVuSans-109"/>
      <use x="460.888672" xlink:href="#DejaVuSans-97"/>
      <use x="522.167969" xlink:href="#DejaVuSans-110"/>
      <use x="585.546875" xlink:href="#DejaVuSans-100"/>
      <use x="649.023438" xlink:href="#DejaVuSans-32"/>
      <use x="680.810547" xlink:href="#DejaVuSans-109"/>
      <use x="778.222656" xlink:href="#DejaVuSans-117"/>
      <use x="841.601562" xlink:href="#DejaVuSans-108"/>
      <use x="869.384766" xlink:href="#DejaVuSans-116"/>
      <use x="908.59375" xlink:href="#DejaVuSans-105"/>
      <use x="936.376953" xlink:href="#DejaVuSans-112"/>
      <use x="999.853516" xlink:href="#DejaVuSans-108"/>
      <use x="1027.636719" xlink:href="#DejaVuSans-105"/>
      <use x="1055.419922" xlink:href="#DejaVuSans-101"/>
      <use x="1116.943359" xlink:href="#DejaVuSans-114"/>
     </g>
    </g>
    <g id="line2d_33">
     <path style="fill:none;stroke:#681e33;stroke-linecap:square;stroke-width:2;"/>
    </g>
    <g id="line2d_34"/>
    <g id="text_19">
     <!-- M&amp;I demand multiplier -->
     <defs>
      <path d="M 9.8125 72.90625 
L 24.515625 72.90625 
L 43.109375 23.296875 
L 61.8125 72.90625 
L 76.515625 72.90625 
L 76.515625 0 
L 66.890625 0 
L 66.890625 64.015625 
L 48.09375 14.015625 
L 38.1875 14.015625 
L 19.390625 64.015625 
L 19.390625 0 
L 9.8125 0 
z
" id="DejaVuSans-77"/>
      <path d="M 24.3125 39.203125 
Q 19.875 35.25 17.796875 31.3125 
Q 15.71875 27.390625 15.71875 23.09375 
Q 15.71875 15.96875 20.890625 11.234375 
Q 26.078125 6.5 33.890625 6.5 
Q 38.53125 6.5 42.578125 8.03125 
Q 46.625 9.578125 50.203125 12.703125 
z
M 31.203125 44.671875 
L 56 19.28125 
Q 58.890625 23.640625 60.5 28.59375 
Q 62.109375 33.546875 62.40625 39.109375 
L 71.484375 39.109375 
Q 70.90625 32.671875 68.359375 26.359375 
Q 65.828125 20.0625 61.28125 13.921875 
L 74.90625 0 
L 62.59375 0 
L 55.609375 7.171875 
Q 50.53125 2.828125 44.96875 0.703125 
Q 39.40625 -1.421875 33.015625 -1.421875 
Q 21.234375 -1.421875 13.765625 5.296875 
Q 6.296875 12.015625 6.296875 22.515625 
Q 6.296875 28.765625 9.5625 34.25 
Q 12.84375 39.75 19.390625 44.578125 
Q 17.046875 47.65625 15.8125 50.703125 
Q 14.59375 53.765625 14.59375 56.6875 
Q 14.59375 64.59375 20.015625 69.40625 
Q 25.4375 74.21875 34.421875 74.21875 
Q 38.484375 74.21875 42.5 73.34375 
Q 46.53125 72.46875 50.6875 70.703125 
L 50.6875 61.8125 
Q 46.4375 64.109375 42.578125 65.296875 
Q 38.71875 66.5 35.40625 66.5 
Q 30.28125 66.5 27.078125 63.78125 
Q 23.875 61.078125 23.875 56.78125 
Q 23.875 54.296875 25.3125 51.78125 
Q 26.765625 49.265625 31.203125 44.671875 
z
" id="DejaVuSans-38"/>
     </defs>
     <g transform="translate(346.128906 605.260063)scale(0.1 -0.1)">
      <use xlink:href="#DejaVuSans-77"/>
      <use x="86.279297" xlink:href="#DejaVuSans-38"/>
      <use x="164.257812" xlink:href="#DejaVuSans-73"/>
      <use x="193.75" xlink:href="#DejaVuSans-32"/>
      <use x="225.537109" xlink:href="#DejaVuSans-100"/>
      <use x="289.013672" xlink:href="#DejaVuSans-101"/>
      <use x="350.537109" xlink:href="#DejaVuSans-109"/>
      <use x="447.949219" xlink:href="#DejaVuSans-97"/>
      <use x="509.228516" xlink:href="#DejaVuSans-110"/>
      <use x="572.607422" xlink:href="#DejaVuSans-100"/>
      <use x="636.083984" xlink:href="#DejaVuSans-32"/>
      <use x="667.871094" xlink:href="#DejaVuSans-109"/>
      <use x="765.283203" xlink:href="#DejaVuSans-117"/>
      <use x="828.662109" xlink:href="#DejaVuSans-108"/>
      <use x="856.445312" xlink:href="#DejaVuSans-116"/>
      <use x="895.654297" xlink:href="#DejaVuSans-105"/>
      <use x="923.4375" xlink:href="#DejaVuSans-112"/>
      <use x="986.914062" xlink:href="#DejaVuSans-108"/>
      <use x="1014.697266" xlink:href="#DejaVuSans-105"/>
      <use x="1042.480469" xlink:href="#DejaVuSans-101"/>
      <use x="1104.003906" xlink:href="#DejaVuSans-114"/>
     </g>
    </g>
    <g id="line2d_35">
     <path style="fill:none;stroke:#676572;stroke-linecap:square;stroke-width:2;"/>
    </g>
    <g id="line2d_36"/>
    <g id="text_20">
     <!-- Shoshone active -->
     <g transform="translate(346.128906 619.938188)scale(0.1 -0.1)">
      <use xlink:href="#DejaVuSans-83"/>
      <use x="63.476562" xlink:href="#DejaVuSans-104"/>
      <use x="126.855469" xlink:href="#DejaVuSans-111"/>
      <use x="188.037109" xlink:href="#DejaVuSans-115"/>
      <use x="240.136719" xlink:href="#DejaVuSans-104"/>
      <use x="303.515625" xlink:href="#DejaVuSans-111"/>
      <use x="364.697266" xlink:href="#DejaVuSans-110"/>
      <use x="428.076172" xlink:href="#DejaVuSans-101"/>
      <use x="489.599609" xlink:href="#DejaVuSans-32"/>
      <use x="521.386719" xlink:href="#DejaVuSans-97"/>
      <use x="582.666016" xlink:href="#DejaVuSans-99"/>
      <use x="637.646484" xlink:href="#DejaVuSans-116"/>
      <use x="676.855469" xlink:href="#DejaVuSans-105"/>
      <use x="704.638672" xlink:href="#DejaVuSans-118"/>
      <use x="763.818359" xlink:href="#DejaVuSans-101"/>
     </g>
    </g>
    <g id="line2d_37">
     <path style="fill:none;stroke:#f3be22;stroke-linecap:square;stroke-width:2;"/>
    </g>
    <g id="line2d_38"/>
    <g id="text_21">
     <!-- Env. flow senior right -->
     <defs>
      <path d="M 9.8125 72.90625 
L 55.90625 72.90625 
L 55.90625 64.59375 
L 19.671875 64.59375 
L 19.671875 43.015625 
L 54.390625 43.015625 
L 54.390625 34.71875 
L 19.671875 34.71875 
L 19.671875 8.296875 
L 56.78125 8.296875 
L 56.78125 0 
L 9.8125 0 
z
" id="DejaVuSans-69"/>
      <path d="M 37.109375 75.984375 
L 37.109375 68.5 
L 28.515625 68.5 
Q 23.6875 68.5 21.796875 66.546875 
Q 19.921875 64.59375 19.921875 59.515625 
L 19.921875 54.6875 
L 34.71875 54.6875 
L 34.71875 47.703125 
L 19.921875 47.703125 
L 19.921875 0 
L 10.890625 0 
L 10.890625 47.703125 
L 2.296875 47.703125 
L 2.296875 54.6875 
L 10.890625 54.6875 
L 10.890625 58.5 
Q 10.890625 67.625 15.140625 71.796875 
Q 19.390625 75.984375 28.609375 75.984375 
z
" id="DejaVuSans-102"/>
      <path d="M 4.203125 54.6875 
L 13.1875 54.6875 
L 24.421875 12.015625 
L 35.59375 54.6875 
L 46.1875 54.6875 
L 57.421875 12.015625 
L 68.609375 54.6875 
L 77.59375 54.6875 
L 63.28125 0 
L 52.6875 0 
L 40.921875 44.828125 
L 29.109375 0 
L 18.5 0 
z
" id="DejaVuSans-119"/>
     </defs>
     <g transform="translate(346.128906 634.616313)scale(0.1 -0.1)">
      <use xlink:href="#DejaVuSans-69"/>
      <use x="63.183594" xlink:href="#DejaVuSans-110"/>
      <use x="126.5625" xlink:href="#DejaVuSans-118"/>
      <use x="185.632812" xlink:href="#DejaVuSans-46"/>
      <use x="217.419922" xlink:href="#DejaVuSans-32"/>
      <use x="249.207031" xlink:href="#DejaVuSans-102"/>
      <use x="284.412109" xlink:href="#DejaVuSans-108"/>
      <use x="312.195312" xlink:href="#DejaVuSans-111"/>
      <use x="373.376953" xlink:href="#DejaVuSans-119"/>
      <use x="455.164062" xlink:href="#DejaVuSans-32"/>
      <use x="486.951172" xlink:href="#DejaVuSans-115"/>
      <use x="539.050781" xlink:href="#DejaVuSans-101"/>
      <use x="600.574219" xlink:href="#DejaVuSans-110"/>
      <use x="663.953125" xlink:href="#DejaVuSans-105"/>
      <use x="691.736328" xlink:href="#DejaVuSans-111"/>
      <use x="752.917969" xlink:href="#DejaVuSans-114"/>
      <use x="794.03125" xlink:href="#DejaVuSans-32"/>
      <use x="825.818359" xlink:href="#DejaVuSans-114"/>
      <use x="866.931641" xlink:href="#DejaVuSans-105"/>
      <use x="894.714844" xlink:href="#DejaVuSans-103"/>
      <use x="958.191406" xlink:href="#DejaVuSans-104"/>
      <use x="1021.570312" xlink:href="#DejaVuSans-116"/>
     </g>
    </g>
    <g id="line2d_39">
     <path style="fill:none;stroke:#59deba;stroke-linecap:square;stroke-width:2;"/>
    </g>
    <g id="line2d_40"/>
    <g id="text_22">
     <!-- Evaporation delta -->
     <g transform="translate(508.641406 605.260063)scale(0.1 -0.1)">
      <use xlink:href="#DejaVuSans-69"/>
      <use x="63.183594" xlink:href="#DejaVuSans-118"/>
      <use x="122.363281" xlink:href="#DejaVuSans-97"/>
      <use x="183.642578" xlink:href="#DejaVuSans-112"/>
      <use x="247.119141" xlink:href="#DejaVuSans-111"/>
      <use x="308.300781" xlink:href="#DejaVuSans-114"/>
      <use x="349.414062" xlink:href="#DejaVuSans-97"/>
      <use x="410.693359" xlink:href="#DejaVuSans-116"/>
      <use x="449.902344" xlink:href="#DejaVuSans-105"/>
      <use x="477.685547" xlink:href="#DejaVuSans-111"/>
      <use x="538.867188" xlink:href="#DejaVuSans-110"/>
      <use x="602.246094" xlink:href="#DejaVuSans-32"/>
      <use x="634.033203" xlink:href="#DejaVuSans-100"/>
      <use x="697.509766" xlink:href="#DejaVuSans-101"/>
      <use x="759.033203" xlink:href="#DejaVuSans-108"/>
      <use x="786.816406" xlink:href="#DejaVuSans-116"/>
      <use x="826.025391" xlink:href="#DejaVuSans-97"/>
     </g>
    </g>
    <g id="line2d_41">
     <path style="fill:none;stroke:#14015c;stroke-linecap:square;stroke-width:2;"/>
    </g>
    <g id="line2d_42"/>
    <g id="text_23">
     <!-- Dry state mu -->
     <defs>
      <path d="M 32.171875 -5.078125 
Q 28.375 -14.84375 24.75 -17.8125 
Q 21.140625 -20.796875 15.09375 -20.796875 
L 7.90625 -20.796875 
L 7.90625 -13.28125 
L 13.1875 -13.28125 
Q 16.890625 -13.28125 18.9375 -11.515625 
Q 21 -9.765625 23.484375 -3.21875 
L 25.09375 0.875 
L 2.984375 54.6875 
L 12.5 54.6875 
L 29.59375 11.921875 
L 46.6875 54.6875 
L 56.203125 54.6875 
z
" id="DejaVuSans-121"/>
     </defs>
     <g transform="translate(508.641406 619.938188)scale(0.1 -0.1)">
      <use xlink:href="#DejaVuSans-68"/>
      <use x="77.001953" xlink:href="#DejaVuSans-114"/>
      <use x="118.115234" xlink:href="#DejaVuSans-121"/>
      <use x="177.294922" xlink:href="#DejaVuSans-32"/>
      <use x="209.082031" xlink:href="#DejaVuSans-115"/>
      <use x="261.181641" xlink:href="#DejaVuSans-116"/>
      <use x="300.390625" xlink:href="#DejaVuSans-97"/>
      <use x="361.669922" xlink:href="#DejaVuSans-116"/>
      <use x="400.878906" xlink:href="#DejaVuSans-101"/>
      <use x="462.402344" xlink:href="#DejaVuSans-32"/>
      <use x="494.189453" xlink:href="#DejaVuSans-109"/>
      <use x="591.601562" xlink:href="#DejaVuSans-117"/>
     </g>
    </g>
    <g id="line2d_43">
     <path style="fill:none;stroke:#daf8a3;stroke-linecap:square;stroke-width:2;"/>
    </g>
    <g id="line2d_44"/>
    <g id="text_24">
     <!-- Dry state sigma -->
     <g transform="translate(508.641406 634.616313)scale(0.1 -0.1)">
      <use xlink:href="#DejaVuSans-68"/>
      <use x="77.001953" xlink:href="#DejaVuSans-114"/>
      <use x="118.115234" xlink:href="#DejaVuSans-121"/>
      <use x="177.294922" xlink:href="#DejaVuSans-32"/>
      <use x="209.082031" xlink:href="#DejaVuSans-115"/>
      <use x="261.181641" xlink:href="#DejaVuSans-116"/>
      <use x="300.390625" xlink:href="#DejaVuSans-97"/>
      <use x="361.669922" xlink:href="#DejaVuSans-116"/>
      <use x="400.878906" xlink:href="#DejaVuSans-101"/>
      <use x="462.402344" xlink:href="#DejaVuSans-32"/>
      <use x="494.189453" xlink:href="#DejaVuSans-115"/>
      <use x="546.289062" xlink:href="#DejaVuSans-105"/>
      <use x="574.072266" xlink:href="#DejaVuSans-103"/>
      <use x="637.548828" xlink:href="#DejaVuSans-109"/>
      <use x="734.960938" xlink:href="#DejaVuSans-97"/>
     </g>
    </g>
    <g id="line2d_45">
     <path style="fill:none;stroke:#0b7a0a;stroke-linecap:square;stroke-width:2;"/>
    </g>
    <g id="line2d_46"/>
    <g id="text_25">
     <!-- Wet state mu -->
     <g transform="translate(645.374219 605.260063)scale(0.1 -0.1)">
      <use xlink:href="#DejaVuSans-87"/>
      <use x="98.798828" xlink:href="#DejaVuSans-101"/>
      <use x="160.322266" xlink:href="#DejaVuSans-116"/>
      <use x="199.53125" xlink:href="#DejaVuSans-32"/>
      <use x="231.318359" xlink:href="#DejaVuSans-115"/>
      <use x="283.417969" xlink:href="#DejaVuSans-116"/>
      <use x="322.626953" xlink:href="#DejaVuSans-97"/>
      <use x="383.90625" xlink:href="#DejaVuSans-116"/>
      <use x="423.115234" xlink:href="#DejaVuSans-101"/>
      <use x="484.638672" xlink:href="#DejaVuSans-32"/>
      <use x="516.425781" xlink:href="#DejaVuSans-109"/>
      <use x="613.837891" xlink:href="#DejaVuSans-117"/>
     </g>
    </g>
    <g id="line2d_47">
     <path style="fill:none;stroke:#f8ffa2;stroke-linecap:square;stroke-width:2;"/>
    </g>
    <g id="line2d_48"/>
    <g id="text_26">
     <!-- Wet state sigma -->
     <g transform="translate(645.374219 619.938188)scale(0.1 -0.1)">
      <use xlink:href="#DejaVuSans-87"/>
      <use x="98.798828" xlink:href="#DejaVuSans-101"/>
      <use x="160.322266" xlink:href="#DejaVuSans-116"/>
      <use x="199.53125" xlink:href="#DejaVuSans-32"/>
      <use x="231.318359" xlink:href="#DejaVuSans-115"/>
      <use x="283.417969" xlink:href="#DejaVuSans-116"/>
      <use x="322.626953" xlink:href="#DejaVuSans-97"/>
      <use x="383.90625" xlink:href="#DejaVuSans-116"/>
      <use x="423.115234" xlink:href="#DejaVuSans-101"/>
      <use x="484.638672" xlink:href="#DejaVuSans-32"/>
      <use x="516.425781" xlink:href="#DejaVuSans-115"/>
      <use x="568.525391" xlink:href="#DejaVuSans-105"/>
      <use x="596.308594" xlink:href="#DejaVuSans-103"/>
      <use x="659.785156" xlink:href="#DejaVuSans-109"/>
      <use x="757.197266" xlink:href="#DejaVuSans-97"/>
     </g>
    </g>
    <g id="line2d_49">
     <path style="fill:none;stroke:#578dc0;stroke-linecap:square;stroke-width:2;"/>
    </g>
    <g id="line2d_50"/>
    <g id="text_27">
     <!-- Dry-to-dry state prob. -->
     <defs>
      <path d="M 4.890625 31.390625 
L 31.203125 31.390625 
L 31.203125 23.390625 
L 4.890625 23.390625 
z
" id="DejaVuSans-45"/>
      <path d="M 48.6875 27.296875 
Q 48.6875 37.203125 44.609375 42.84375 
Q 40.53125 48.484375 33.40625 48.484375 
Q 26.265625 48.484375 22.1875 42.84375 
Q 18.109375 37.203125 18.109375 27.296875 
Q 18.109375 17.390625 22.1875 11.75 
Q 26.265625 6.109375 33.40625 6.109375 
Q 40.53125 6.109375 44.609375 11.75 
Q 48.6875 17.390625 48.6875 27.296875 
z
M 18.109375 46.390625 
Q 20.953125 51.265625 25.265625 53.625 
Q 29.59375 56 35.59375 56 
Q 45.5625 56 51.78125 48.09375 
Q 58.015625 40.1875 58.015625 27.296875 
Q 58.015625 14.40625 51.78125 6.484375 
Q 45.5625 -1.421875 35.59375 -1.421875 
Q 29.59375 -1.421875 25.265625 0.953125 
Q 20.953125 3.328125 18.109375 8.203125 
L 18.109375 0 
L 9.078125 0 
L 9.078125 75.984375 
L 18.109375 75.984375 
z
" id="DejaVuSans-98"/>
     </defs>
     <g transform="translate(645.374219 634.616313)scale(0.1 -0.1)">
      <use xlink:href="#DejaVuSans-68"/>
      <use x="77.001953" xlink:href="#DejaVuSans-114"/>
      <use x="118.115234" xlink:href="#DejaVuSans-121"/>
      <use x="177.279297" xlink:href="#DejaVuSans-45"/>
      <use x="213.363281" xlink:href="#DejaVuSans-116"/>
      <use x="252.572266" xlink:href="#DejaVuSans-111"/>
      <use x="313.769531" xlink:href="#DejaVuSans-45"/>
      <use x="349.853516" xlink:href="#DejaVuSans-100"/>
      <use x="413.330078" xlink:href="#DejaVuSans-114"/>
      <use x="454.443359" xlink:href="#DejaVuSans-121"/>
      <use x="513.623047" xlink:href="#DejaVuSans-32"/>
      <use x="545.410156" xlink:href="#DejaVuSans-115"/>
      <use x="597.509766" xlink:href="#DejaVuSans-116"/>
      <use x="636.71875" xlink:href="#DejaVuSans-97"/>
      <use x="697.998047" xlink:href="#DejaVuSans-116"/>
      <use x="737.207031" xlink:href="#DejaVuSans-101"/>
      <use x="798.730469" xlink:href="#DejaVuSans-32"/>
      <use x="830.517578" xlink:href="#DejaVuSans-112"/>
      <use x="893.994141" xlink:href="#DejaVuSans-114"/>
      <use x="935.076172" xlink:href="#DejaVuSans-111"/>
      <use x="996.257812" xlink:href="#DejaVuSans-98"/>
      <use x="1059.734375" xlink:href="#DejaVuSans-46"/>
     </g>
    </g>
    <g id="line2d_51">
     <path style="fill:none;stroke:#4e4ad8;stroke-linecap:square;stroke-width:2;"/>
    </g>
    <g id="line2d_52"/>
    <g id="text_28">
     <!-- Wet-to-wet state prob. -->
     <g transform="translate(802.525781 605.260063)scale(0.1 -0.1)">
      <use xlink:href="#DejaVuSans-87"/>
      <use x="98.798828" xlink:href="#DejaVuSans-101"/>
      <use x="160.322266" xlink:href="#DejaVuSans-116"/>
      <use x="199.53125" xlink:href="#DejaVuSans-45"/>
      <use x="235.615234" xlink:href="#DejaVuSans-116"/>
      <use x="274.824219" xlink:href="#DejaVuSans-111"/>
      <use x="336.021484" xlink:href="#DejaVuSans-45"/>
      <use x="372.105469" xlink:href="#DejaVuSans-119"/>
      <use x="453.892578" xlink:href="#DejaVuSans-101"/>
      <use x="515.416016" xlink:href="#DejaVuSans-116"/>
      <use x="554.625" xlink:href="#DejaVuSans-32"/>
      <use x="586.412109" xlink:href="#DejaVuSans-115"/>
      <use x="638.511719" xlink:href="#DejaVuSans-116"/>
      <use x="677.720703" xlink:href="#DejaVuSans-97"/>
      <use x="739" xlink:href="#DejaVuSans-116"/>
      <use x="778.208984" xlink:href="#DejaVuSans-101"/>
      <use x="839.732422" xlink:href="#DejaVuSans-32"/>
      <use x="871.519531" xlink:href="#DejaVuSans-112"/>
      <use x="934.996094" xlink:href="#DejaVuSans-114"/>
      <use x="976.078125" xlink:href="#DejaVuSans-111"/>
      <use x="1037.259766" xlink:href="#DejaVuSans-98"/>
      <use x="1100.736328" xlink:href="#DejaVuSans-46"/>
     </g>
    </g>
    <g id="line2d_53">
     <path style="fill:none;stroke:#32b3f7;stroke-linecap:square;stroke-width:2;"/>
    </g>
    <g id="line2d_54"/>
    <g id="text_29">
     <!-- Earlier snowmelt -->
     <g transform="translate(802.525781 619.938188)scale(0.1 -0.1)">
      <use xlink:href="#DejaVuSans-69"/>
      <use x="63.183594" xlink:href="#DejaVuSans-97"/>
      <use x="124.462891" xlink:href="#DejaVuSans-114"/>
      <use x="165.576172" xlink:href="#DejaVuSans-108"/>
      <use x="193.359375" xlink:href="#DejaVuSans-105"/>
      <use x="221.142578" xlink:href="#DejaVuSans-101"/>
      <use x="282.666016" xlink:href="#DejaVuSans-114"/>
      <use x="323.779297" xlink:href="#DejaVuSans-32"/>
      <use x="355.566406" xlink:href="#DejaVuSans-115"/>
      <use x="407.666016" xlink:href="#DejaVuSans-110"/>
      <use x="471.044922" xlink:href="#DejaVuSans-111"/>
      <use x="532.226562" xlink:href="#DejaVuSans-119"/>
      <use x="614.013672" xlink:href="#DejaVuSans-109"/>
      <use x="711.425781" xlink:href="#DejaVuSans-101"/>
      <use x="772.949219" xlink:href="#DejaVuSans-108"/>
      <use x="800.732422" xlink:href="#DejaVuSans-116"/>
     </g>
    </g>
   </g>
  </g>
  <g id="text_30">
   <!-- Shortage magnitude sensitivity for 3704614 -->
   <defs>
    <path d="M 40.578125 39.3125 
Q 47.65625 37.796875 51.625 33 
Q 55.609375 28.21875 55.609375 21.1875 
Q 55.609375 10.40625 48.1875 4.484375 
Q 40.765625 -1.421875 27.09375 -1.421875 
Q 22.515625 -1.421875 17.65625 -0.515625 
Q 12.796875 0.390625 7.625 2.203125 
L 7.625 11.71875 
Q 11.71875 9.328125 16.59375 8.109375 
Q 21.484375 6.890625 26.8125 6.890625 
Q 36.078125 6.890625 40.9375 10.546875 
Q 45.796875 14.203125 45.796875 21.1875 
Q 45.796875 27.640625 41.28125 31.265625 
Q 36.765625 34.90625 28.71875 34.90625 
L 20.21875 34.90625 
L 20.21875 43.015625 
L 29.109375 43.015625 
Q 36.375 43.015625 40.234375 45.921875 
Q 44.09375 48.828125 44.09375 54.296875 
Q 44.09375 59.90625 40.109375 62.90625 
Q 36.140625 65.921875 28.71875 65.921875 
Q 24.65625 65.921875 20.015625 65.03125 
Q 15.375 64.15625 9.8125 62.3125 
L 9.8125 71.09375 
Q 15.4375 72.65625 20.34375 73.4375 
Q 25.25 74.21875 29.59375 74.21875 
Q 40.828125 74.21875 47.359375 69.109375 
Q 53.90625 64.015625 53.90625 55.328125 
Q 53.90625 49.265625 50.4375 45.09375 
Q 46.96875 40.921875 40.578125 39.3125 
z
" id="DejaVuSans-51"/>
    <path d="M 8.203125 72.90625 
L 55.078125 72.90625 
L 55.078125 68.703125 
L 28.609375 0 
L 18.3125 0 
L 43.21875 64.59375 
L 8.203125 64.59375 
z
" id="DejaVuSans-55"/>
   </defs>
   <g transform="translate(344.81625 23.6775)scale(0.16 -0.16)">
    <use xlink:href="#DejaVuSans-83"/>
    <use x="63.476562" xlink:href="#DejaVuSans-104"/>
    <use x="126.855469" xlink:href="#DejaVuSans-111"/>
    <use x="188.037109" xlink:href="#DejaVuSans-114"/>
    <use x="229.150391" xlink:href="#DejaVuSans-116"/>
    <use x="268.359375" xlink:href="#DejaVuSans-97"/>
    <use x="329.638672" xlink:href="#DejaVuSans-103"/>
    <use x="393.115234" xlink:href="#DejaVuSans-101"/>
    <use x="454.638672" xlink:href="#DejaVuSans-32"/>
    <use x="486.425781" xlink:href="#DejaVuSans-109"/>
    <use x="583.837891" xlink:href="#DejaVuSans-97"/>
    <use x="645.117188" xlink:href="#DejaVuSans-103"/>
    <use x="708.59375" xlink:href="#DejaVuSans-110"/>
    <use x="771.972656" xlink:href="#DejaVuSans-105"/>
    <use x="799.755859" xlink:href="#DejaVuSans-116"/>
    <use x="838.964844" xlink:href="#DejaVuSans-117"/>
    <use x="902.34375" xlink:href="#DejaVuSans-100"/>
    <use x="965.820312" xlink:href="#DejaVuSans-101"/>
    <use x="1027.34375" xlink:href="#DejaVuSans-32"/>
    <use x="1059.130859" xlink:href="#DejaVuSans-115"/>
    <use x="1111.230469" xlink:href="#DejaVuSans-101"/>
    <use x="1172.753906" xlink:href="#DejaVuSans-110"/>
    <use x="1236.132812" xlink:href="#DejaVuSans-115"/>
    <use x="1288.232422" xlink:href="#DejaVuSans-105"/>
    <use x="1316.015625" xlink:href="#DejaVuSans-116"/>
    <use x="1355.224609" xlink:href="#DejaVuSans-105"/>
    <use x="1383.007812" xlink:href="#DejaVuSans-118"/>
    <use x="1442.1875" xlink:href="#DejaVuSans-105"/>
    <use x="1469.970703" xlink:href="#DejaVuSans-116"/>
    <use x="1509.179688" xlink:href="#DejaVuSans-121"/>
    <use x="1568.359375" xlink:href="#DejaVuSans-32"/>
    <use x="1600.146484" xlink:href="#DejaVuSans-102"/>
    <use x="1635.351562" xlink:href="#DejaVuSans-111"/>
    <use x="1696.533203" xlink:href="#DejaVuSans-114"/>
    <use x="1737.646484" xlink:href="#DejaVuSans-32"/>
    <use x="1769.433594" xlink:href="#DejaVuSans-51"/>
    <use x="1833.056641" xlink:href="#DejaVuSans-55"/>
    <use x="1896.679688" xlink:href="#DejaVuSans-48"/>
    <use x="1960.302734" xlink:href="#DejaVuSans-52"/>
    <use x="2023.925781" xlink:href="#DejaVuSans-54"/>
    <use x="2087.548828" xlink:href="#DejaVuSans-49"/>
    <use x="2151.171875" xlink:href="#DejaVuSans-52"/>
   </g>
  </g>
 </g>
 <defs>
  <clipPath id="p4f4eda6e95">
   <rect height="354.816" width="809.1" x="130.5" y="113.472"/>
  </clipPath>
 </defs>
</svg>
