<?xml version="1.0" encoding="utf-8" standalone="no"?>
<!DOCTYPE svg PUBLIC "-//W3C//DTD SVG 1.1//EN"
  "http://www.w3.org/Graphics/SVG/1.1/DTD/svg11.dtd">
<!-- Created with matplotlib (https://matplotlib.org/) -->
<svg height="576pt" version="1.1" viewBox="0 0 1044 576" width="1044pt" xmlns="http://www.w3.org/2000/svg" xmlns:xlink="http://www.w3.org/1999/xlink">
 <defs>
  <style type="text/css">
*{stroke-linecap:butt;stroke-linejoin:round;}
  </style>
 </defs>
 <g id="figure_1">
  <g id="patch_1">
   <path d="M 0 576 
L 1044 576 
L 1044 0 
L 0 0 
z
" style="fill:#ffffff;"/>
  </g>
  <g id="axes_1">
   <g id="patch_2">
    <path d="M 130.5 468.288 
L 939.6 468.288 
L 939.6 113.472 
L 130.5 113.472 
z
" style="fill:#ffffff;"/>
   </g>
   <g id="matplotlib.axis_1">
    <g id="xtick_1">
     <g id="line2d_1">
      <defs>
       <path d="M 0 0 
L 0 3.5 
" id="m5f379ebefb" style="stroke:#000000;stroke-width:0.8;"/>
      </defs>
      <g>
       <use style="stroke:#000000;stroke-width:0.8;" x="130.5" xlink:href="#m5f379ebefb" y="468.288"/>
      </g>
     </g>
     <g id="text_1">
      <!-- 0 -->
      <defs>
       <path d="M 31.78125 66.40625 
Q 24.171875 66.40625 20.328125 58.90625 
Q 16.5 51.421875 16.5 36.375 
Q 16.5 21.390625 20.328125 13.890625 
Q 24.171875 6.390625 31.78125 6.390625 
Q 39.453125 6.390625 43.28125 13.890625 
Q 47.125 21.390625 47.125 36.375 
Q 47.125 51.421875 43.28125 58.90625 
Q 39.453125 66.40625 31.78125 66.40625 
z
M 31.78125 74.21875 
Q 44.046875 74.21875 50.515625 64.515625 
Q 56.984375 54.828125 56.984375 36.375 
Q 56.984375 17.96875 50.515625 8.265625 
Q 44.046875 -1.421875 31.78125 -1.421875 
Q 19.53125 -1.421875 13.0625 8.265625 
Q 6.59375 17.96875 6.59375 36.375 
Q 6.59375 54.828125 13.0625 64.515625 
Q 19.53125 74.21875 31.78125 74.21875 
z
" id="DejaVuSans-48"/>
      </defs>
      <g transform="translate(127.31875 482.886437)scale(0.1 -0.1)">
       <use xlink:href="#DejaVuSans-48"/>
      </g>
     </g>
    </g>
    <g id="xtick_2">
     <g id="line2d_2">
      <g>
       <use style="stroke:#000000;stroke-width:0.8;" x="292.32" xlink:href="#m5f379ebefb" y="468.288"/>
      </g>
     </g>
     <g id="text_2">
      <!-- 20 -->
      <defs>
       <path d="M 19.1875 8.296875 
L 53.609375 8.296875 
L 53.609375 0 
L 7.328125 0 
L 7.328125 8.296875 
Q 12.9375 14.109375 22.625 23.890625 
Q 32.328125 33.6875 34.8125 36.53125 
Q 39.546875 41.84375 41.421875 45.53125 
Q 43.3125 49.21875 43.3125 52.78125 
Q 43.3125 58.59375 39.234375 62.25 
Q 35.15625 65.921875 28.609375 65.921875 
Q 23.96875 65.921875 18.8125 64.3125 
Q 13.671875 62.703125 7.8125 59.421875 
L 7.8125 69.390625 
Q 13.765625 71.78125 18.9375 73 
Q 24.125 74.21875 28.421875 74.21875 
Q 39.75 74.21875 46.484375 68.546875 
Q 53.21875 62.890625 53.21875 53.421875 
Q 53.21875 48.921875 51.53125 44.890625 
Q 49.859375 40.875 45.40625 35.40625 
Q 44.1875 33.984375 37.640625 27.21875 
Q 31.109375 20.453125 19.1875 8.296875 
z
" id="DejaVuSans-50"/>
      </defs>
      <g transform="translate(285.9575 482.886437)scale(0.1 -0.1)">
       <use xlink:href="#DejaVuSans-50"/>
       <use x="63.623047" xlink:href="#DejaVuSans-48"/>
      </g>
     </g>
    </g>
    <g id="xtick_3">
     <g id="line2d_3">
      <g>
       <use style="stroke:#000000;stroke-width:0.8;" x="454.14" xlink:href="#m5f379ebefb" y="468.288"/>
      </g>
     </g>
     <g id="text_3">
      <!-- 40 -->
      <defs>
       <path d="M 37.796875 64.3125 
L 12.890625 25.390625 
L 37.796875 25.390625 
z
M 35.203125 72.90625 
L 47.609375 72.90625 
L 47.609375 25.390625 
L 58.015625 25.390625 
L 58.015625 17.1875 
L 47.609375 17.1875 
L 47.609375 0 
L 37.796875 0 
L 37.796875 17.1875 
L 4.890625 17.1875 
L 4.890625 26.703125 
z
" id="DejaVuSans-52"/>
      </defs>
      <g transform="translate(447.7775 482.886437)scale(0.1 -0.1)">
       <use xlink:href="#DejaVuSans-52"/>
       <use x="63.623047" xlink:href="#DejaVuSans-48"/>
      </g>
     </g>
    </g>
    <g id="xtick_4">
     <g id="line2d_4">
      <g>
       <use style="stroke:#000000;stroke-width:0.8;" x="615.96" xlink:href="#m5f379ebefb" y="468.288"/>
      </g>
     </g>
     <g id="text_4">
      <!-- 60 -->
      <defs>
       <path d="M 33.015625 40.375 
Q 26.375 40.375 22.484375 35.828125 
Q 18.609375 31.296875 18.609375 23.390625 
Q 18.609375 15.53125 22.484375 10.953125 
Q 26.375 6.390625 33.015625 6.390625 
Q 39.65625 6.390625 43.53125 10.953125 
Q 47.40625 15.53125 47.40625 23.390625 
Q 47.40625 31.296875 43.53125 35.828125 
Q 39.65625 40.375 33.015625 40.375 
z
M 52.59375 71.296875 
L 52.59375 62.3125 
Q 48.875 64.0625 45.09375 64.984375 
Q 41.3125 65.921875 37.59375 65.921875 
Q 27.828125 65.921875 22.671875 59.328125 
Q 17.53125 52.734375 16.796875 39.40625 
Q 19.671875 43.65625 24.015625 45.921875 
Q 28.375 48.1875 33.59375 48.1875 
Q 44.578125 48.1875 50.953125 41.515625 
Q 57.328125 34.859375 57.328125 23.390625 
Q 57.328125 12.15625 50.6875 5.359375 
Q 44.046875 -1.421875 33.015625 -1.421875 
Q 20.359375 -1.421875 13.671875 8.265625 
Q 6.984375 17.96875 6.984375 36.375 
Q 6.984375 53.65625 15.1875 63.9375 
Q 23.390625 74.21875 37.203125 74.21875 
Q 40.921875 74.21875 44.703125 73.484375 
Q 48.484375 72.75 52.59375 71.296875 
z
" id="DejaVuSans-54"/>
      </defs>
      <g transform="translate(609.5975 482.886437)scale(0.1 -0.1)">
       <use xlink:href="#DejaVuSans-54"/>
       <use x="63.623047" xlink:href="#DejaVuSans-48"/>
      </g>
     </g>
    </g>
    <g id="xtick_5">
     <g id="line2d_5">
      <g>
       <use style="stroke:#000000;stroke-width:0.8;" x="777.78" xlink:href="#m5f379ebefb" y="468.288"/>
      </g>
     </g>
     <g id="text_5">
      <!-- 80 -->
      <defs>
       <path d="M 31.78125 34.625 
Q 24.75 34.625 20.71875 30.859375 
Q 16.703125 27.09375 16.703125 20.515625 
Q 16.703125 13.921875 20.71875 10.15625 
Q 24.75 6.390625 31.78125 6.390625 
Q 38.8125 6.390625 42.859375 10.171875 
Q 46.921875 13.96875 46.921875 20.515625 
Q 46.921875 27.09375 42.890625 30.859375 
Q 38.875 34.625 31.78125 34.625 
z
M 21.921875 38.8125 
Q 15.578125 40.375 12.03125 44.71875 
Q 8.5 49.078125 8.5 55.328125 
Q 8.5 64.0625 14.71875 69.140625 
Q 20.953125 74.21875 31.78125 74.21875 
Q 42.671875 74.21875 48.875 69.140625 
Q 55.078125 64.0625 55.078125 55.328125 
Q 55.078125 49.078125 51.53125 44.71875 
Q 48 40.375 41.703125 38.8125 
Q 48.828125 37.15625 52.796875 32.3125 
Q 56.78125 27.484375 56.78125 20.515625 
Q 56.78125 9.90625 50.3125 4.234375 
Q 43.84375 -1.421875 31.78125 -1.421875 
Q 19.734375 -1.421875 13.25 4.234375 
Q 6.78125 9.90625 6.78125 20.515625 
Q 6.78125 27.484375 10.78125 32.3125 
Q 14.796875 37.15625 21.921875 38.8125 
z
M 18.3125 54.390625 
Q 18.3125 48.734375 21.84375 45.5625 
Q 25.390625 42.390625 31.78125 42.390625 
Q 38.140625 42.390625 41.71875 45.5625 
Q 45.3125 48.734375 45.3125 54.390625 
Q 45.3125 60.0625 41.71875 63.234375 
Q 38.140625 66.40625 31.78125 66.40625 
Q 25.390625 66.40625 21.84375 63.234375 
Q 18.3125 60.0625 18.3125 54.390625 
z
" id="DejaVuSans-56"/>
      </defs>
      <g transform="translate(771.4175 482.886437)scale(0.1 -0.1)">
       <use xlink:href="#DejaVuSans-56"/>
       <use x="63.623047" xlink:href="#DejaVuSans-48"/>
      </g>
     </g>
    </g>
    <g id="xtick_6">
     <g id="line2d_6">
      <g>
       <use style="stroke:#000000;stroke-width:0.8;" x="939.6" xlink:href="#m5f379ebefb" y="468.288"/>
      </g>
     </g>
     <g id="text_6">
      <!-- 100 -->
      <defs>
       <path d="M 12.40625 8.296875 
L 28.515625 8.296875 
L 28.515625 63.921875 
L 10.984375 60.40625 
L 10.984375 69.390625 
L 28.421875 72.90625 
L 38.28125 72.90625 
L 38.28125 8.296875 
L 54.390625 8.296875 
L 54.390625 0 
L 12.40625 0 
z
" id="DejaVuSans-49"/>
      </defs>
      <g transform="translate(930.05625 482.886437)scale(0.1 -0.1)">
       <use xlink:href="#DejaVuSans-49"/>
       <use x="63.623047" xlink:href="#DejaVuSans-48"/>
       <use x="127.246094" xlink:href="#DejaVuSans-48"/>
      </g>
     </g>
    </g>
    <g id="text_7">
     <!-- Shortage magnitude percentile -->
     <defs>
      <path d="M 53.515625 70.515625 
L 53.515625 60.890625 
Q 47.90625 63.578125 42.921875 64.890625 
Q 37.9375 66.21875 33.296875 66.21875 
Q 25.25 66.21875 20.875 63.09375 
Q 16.5 59.96875 16.5 54.203125 
Q 16.5 49.359375 19.40625 46.890625 
Q 22.3125 44.4375 30.421875 42.921875 
L 36.375 41.703125 
Q 47.40625 39.59375 52.65625 34.296875 
Q 57.90625 29 57.90625 20.125 
Q 57.90625 9.515625 50.796875 4.046875 
Q 43.703125 -1.421875 29.984375 -1.421875 
Q 24.8125 -1.421875 18.96875 -0.25 
Q 13.140625 0.921875 6.890625 3.21875 
L 6.890625 13.375 
Q 12.890625 10.015625 18.65625 8.296875 
Q 24.421875 6.59375 29.984375 6.59375 
Q 38.421875 6.59375 43.015625 9.90625 
Q 47.609375 13.234375 47.609375 19.390625 
Q 47.609375 24.75 44.3125 27.78125 
Q 41.015625 30.8125 33.5 32.328125 
L 27.484375 33.5 
Q 16.453125 35.6875 11.515625 40.375 
Q 6.59375 45.0625 6.59375 53.421875 
Q 6.59375 63.09375 13.40625 68.65625 
Q 20.21875 74.21875 32.171875 74.21875 
Q 37.3125 74.21875 42.625 73.28125 
Q 47.953125 72.359375 53.515625 70.515625 
z
" id="DejaVuSans-83"/>
      <path d="M 54.890625 33.015625 
L 54.890625 0 
L 45.90625 0 
L 45.90625 32.71875 
Q 45.90625 40.484375 42.875 44.328125 
Q 39.84375 48.1875 33.796875 48.1875 
Q 26.515625 48.1875 22.3125 43.546875 
Q 18.109375 38.921875 18.109375 30.90625 
L 18.109375 0 
L 9.078125 0 
L 9.078125 75.984375 
L 18.109375 75.984375 
L 18.109375 46.1875 
Q 21.34375 51.125 25.703125 53.5625 
Q 30.078125 56 35.796875 56 
Q 45.21875 56 50.046875 50.171875 
Q 54.890625 44.34375 54.890625 33.015625 
z
" id="DejaVuSans-104"/>
      <path d="M 30.609375 48.390625 
Q 23.390625 48.390625 19.1875 42.75 
Q 14.984375 37.109375 14.984375 27.296875 
Q 14.984375 17.484375 19.15625 11.84375 
Q 23.34375 6.203125 30.609375 6.203125 
Q 37.796875 6.203125 41.984375 11.859375 
Q 46.1875 17.53125 46.1875 27.296875 
Q 46.1875 37.015625 41.984375 42.703125 
Q 37.796875 48.390625 30.609375 48.390625 
z
M 30.609375 56 
Q 42.328125 56 49.015625 48.375 
Q 55.71875 40.765625 55.71875 27.296875 
Q 55.71875 13.875 49.015625 6.21875 
Q 42.328125 -1.421875 30.609375 -1.421875 
Q 18.84375 -1.421875 12.171875 6.21875 
Q 5.515625 13.875 5.515625 27.296875 
Q 5.515625 40.765625 12.171875 48.375 
Q 18.84375 56 30.609375 56 
z
" id="DejaVuSans-111"/>
      <path d="M 41.109375 46.296875 
Q 39.59375 47.171875 37.8125 47.578125 
Q 36.03125 48 33.890625 48 
Q 26.265625 48 22.1875 43.046875 
Q 18.109375 38.09375 18.109375 28.8125 
L 18.109375 0 
L 9.078125 0 
L 9.078125 54.6875 
L 18.109375 54.6875 
L 18.109375 46.1875 
Q 20.953125 51.171875 25.484375 53.578125 
Q 30.03125 56 36.53125 56 
Q 37.453125 56 38.578125 55.875 
Q 39.703125 55.765625 41.0625 55.515625 
z
" id="DejaVuSans-114"/>
      <path d="M 18.3125 70.21875 
L 18.3125 54.6875 
L 36.8125 54.6875 
L 36.8125 47.703125 
L 18.3125 47.703125 
L 18.3125 18.015625 
Q 18.3125 11.328125 20.140625 9.421875 
Q 21.96875 7.515625 27.59375 7.515625 
L 36.8125 7.515625 
L 36.8125 0 
L 27.59375 0 
Q 17.1875 0 13.234375 3.875 
Q 9.28125 7.765625 9.28125 18.015625 
L 9.28125 47.703125 
L 2.6875 47.703125 
L 2.6875 54.6875 
L 9.28125 54.6875 
L 9.28125 70.21875 
z
" id="DejaVuSans-116"/>
      <path d="M 34.28125 27.484375 
Q 23.390625 27.484375 19.1875 25 
Q 14.984375 22.515625 14.984375 16.5 
Q 14.984375 11.71875 18.140625 8.90625 
Q 21.296875 6.109375 26.703125 6.109375 
Q 34.1875 6.109375 38.703125 11.40625 
Q 43.21875 16.703125 43.21875 25.484375 
L 43.21875 27.484375 
z
M 52.203125 31.203125 
L 52.203125 0 
L 43.21875 0 
L 43.21875 8.296875 
Q 40.140625 3.328125 35.546875 0.953125 
Q 30.953125 -1.421875 24.3125 -1.421875 
Q 15.921875 -1.421875 10.953125 3.296875 
Q 6 8.015625 6 15.921875 
Q 6 25.140625 12.171875 29.828125 
Q 18.359375 34.515625 30.609375 34.515625 
L 43.21875 34.515625 
L 43.21875 35.40625 
Q 43.21875 41.609375 39.140625 45 
Q 35.0625 48.390625 27.6875 48.390625 
Q 23 48.390625 18.546875 47.265625 
Q 14.109375 46.140625 10.015625 43.890625 
L 10.015625 52.203125 
Q 14.9375 54.109375 19.578125 55.046875 
Q 24.21875 56 28.609375 56 
Q 40.484375 56 46.34375 49.84375 
Q 52.203125 43.703125 52.203125 31.203125 
z
" id="DejaVuSans-97"/>
      <path d="M 45.40625 27.984375 
Q 45.40625 37.75 41.375 43.109375 
Q 37.359375 48.484375 30.078125 48.484375 
Q 22.859375 48.484375 18.828125 43.109375 
Q 14.796875 37.75 14.796875 27.984375 
Q 14.796875 18.265625 18.828125 12.890625 
Q 22.859375 7.515625 30.078125 7.515625 
Q 37.359375 7.515625 41.375 12.890625 
Q 45.40625 18.265625 45.40625 27.984375 
z
M 54.390625 6.78125 
Q 54.390625 -7.171875 48.1875 -13.984375 
Q 42 -20.796875 29.203125 -20.796875 
Q 24.46875 -20.796875 20.265625 -20.09375 
Q 16.0625 -19.390625 12.109375 -17.921875 
L 12.109375 -9.1875 
Q 16.0625 -11.328125 19.921875 -12.34375 
Q 23.78125 -13.375 27.78125 -13.375 
Q 36.625 -13.375 41.015625 -8.765625 
Q 45.40625 -4.15625 45.40625 5.171875 
L 45.40625 9.625 
Q 42.625 4.78125 38.28125 2.390625 
Q 33.9375 0 27.875 0 
Q 17.828125 0 11.671875 7.65625 
Q 5.515625 15.328125 5.515625 27.984375 
Q 5.515625 40.671875 11.671875 48.328125 
Q 17.828125 56 27.875 56 
Q 33.9375 56 38.28125 53.609375 
Q 42.625 51.21875 45.40625 46.390625 
L 45.40625 54.6875 
L 54.390625 54.6875 
z
" id="DejaVuSans-103"/>
      <path d="M 56.203125 29.59375 
L 56.203125 25.203125 
L 14.890625 25.203125 
Q 15.484375 15.921875 20.484375 11.0625 
Q 25.484375 6.203125 34.421875 6.203125 
Q 39.59375 6.203125 44.453125 7.46875 
Q 49.3125 8.734375 54.109375 11.28125 
L 54.109375 2.78125 
Q 49.265625 0.734375 44.1875 -0.34375 
Q 39.109375 -1.421875 33.890625 -1.421875 
Q 20.796875 -1.421875 13.15625 6.1875 
Q 5.515625 13.8125 5.515625 26.8125 
Q 5.515625 40.234375 12.765625 48.109375 
Q 20.015625 56 32.328125 56 
Q 43.359375 56 49.78125 48.890625 
Q 56.203125 41.796875 56.203125 29.59375 
z
M 47.21875 32.234375 
Q 47.125 39.59375 43.09375 43.984375 
Q 39.0625 48.390625 32.421875 48.390625 
Q 24.90625 48.390625 20.390625 44.140625 
Q 15.875 39.890625 15.1875 32.171875 
z
" id="DejaVuSans-101"/>
      <path id="DejaVuSans-32"/>
      <path d="M 52 44.1875 
Q 55.375 50.25 60.0625 53.125 
Q 64.75 56 71.09375 56 
Q 79.640625 56 84.28125 50.015625 
Q 88.921875 44.046875 88.921875 33.015625 
L 88.921875 0 
L 79.890625 0 
L 79.890625 32.71875 
Q 79.890625 40.578125 77.09375 44.375 
Q 74.3125 48.1875 68.609375 48.1875 
Q 61.625 48.1875 57.5625 43.546875 
Q 53.515625 38.921875 53.515625 30.90625 
L 53.515625 0 
L 44.484375 0 
L 44.484375 32.71875 
Q 44.484375 40.625 41.703125 44.40625 
Q 38.921875 48.1875 33.109375 48.1875 
Q 26.21875 48.1875 22.15625 43.53125 
Q 18.109375 38.875 18.109375 30.90625 
L 18.109375 0 
L 9.078125 0 
L 9.078125 54.6875 
L 18.109375 54.6875 
L 18.109375 46.1875 
Q 21.1875 51.21875 25.484375 53.609375 
Q 29.78125 56 35.6875 56 
Q 41.65625 56 45.828125 52.96875 
Q 50 49.953125 52 44.1875 
z
" id="DejaVuSans-109"/>
      <path d="M 54.890625 33.015625 
L 54.890625 0 
L 45.90625 0 
L 45.90625 32.71875 
Q 45.90625 40.484375 42.875 44.328125 
Q 39.84375 48.1875 33.796875 48.1875 
Q 26.515625 48.1875 22.3125 43.546875 
Q 18.109375 38.921875 18.109375 30.90625 
L 18.109375 0 
L 9.078125 0 
L 9.078125 54.6875 
L 18.109375 54.6875 
L 18.109375 46.1875 
Q 21.34375 51.125 25.703125 53.5625 
Q 30.078125 56 35.796875 56 
Q 45.21875 56 50.046875 50.171875 
Q 54.890625 44.34375 54.890625 33.015625 
z
" id="DejaVuSans-110"/>
      <path d="M 9.421875 54.6875 
L 18.40625 54.6875 
L 18.40625 0 
L 9.421875 0 
z
M 9.421875 75.984375 
L 18.40625 75.984375 
L 18.40625 64.59375 
L 9.421875 64.59375 
z
" id="DejaVuSans-105"/>
      <path d="M 8.5 21.578125 
L 8.5 54.6875 
L 17.484375 54.6875 
L 17.484375 21.921875 
Q 17.484375 14.15625 20.5 10.265625 
Q 23.53125 6.390625 29.59375 6.390625 
Q 36.859375 6.390625 41.078125 11.03125 
Q 45.3125 15.671875 45.3125 23.6875 
L 45.3125 54.6875 
L 54.296875 54.6875 
L 54.296875 0 
L 45.3125 0 
L 45.3125 8.40625 
Q 42.046875 3.421875 37.71875 1 
Q 33.40625 -1.421875 27.6875 -1.421875 
Q 18.265625 -1.421875 13.375 4.4375 
Q 8.5 10.296875 8.5 21.578125 
z
M 31.109375 56 
z
" id="DejaVuSans-117"/>
      <path d="M 45.40625 46.390625 
L 45.40625 75.984375 
L 54.390625 75.984375 
L 54.390625 0 
L 45.40625 0 
L 45.40625 8.203125 
Q 42.578125 3.328125 38.25 0.953125 
Q 33.9375 -1.421875 27.875 -1.421875 
Q 17.96875 -1.421875 11.734375 6.484375 
Q 5.515625 14.40625 5.515625 27.296875 
Q 5.515625 40.1875 11.734375 48.09375 
Q 17.96875 56 27.875 56 
Q 33.9375 56 38.25 53.625 
Q 42.578125 51.265625 45.40625 46.390625 
z
M 14.796875 27.296875 
Q 14.796875 17.390625 18.875 11.75 
Q 22.953125 6.109375 30.078125 6.109375 
Q 37.203125 6.109375 41.296875 11.75 
Q 45.40625 17.390625 45.40625 27.296875 
Q 45.40625 37.203125 41.296875 42.84375 
Q 37.203125 48.484375 30.078125 48.484375 
Q 22.953125 48.484375 18.875 42.84375 
Q 14.796875 37.203125 14.796875 27.296875 
z
" id="DejaVuSans-100"/>
      <path d="M 18.109375 8.203125 
L 18.109375 -20.796875 
L 9.078125 -20.796875 
L 9.078125 54.6875 
L 18.109375 54.6875 
L 18.109375 46.390625 
Q 20.953125 51.265625 25.265625 53.625 
Q 29.59375 56 35.59375 56 
Q 45.5625 56 51.78125 48.09375 
Q 58.015625 40.1875 58.015625 27.296875 
Q 58.015625 14.40625 51.78125 6.484375 
Q 45.5625 -1.421875 35.59375 -1.421875 
Q 29.59375 -1.421875 25.265625 0.953125 
Q 20.953125 3.328125 18.109375 8.203125 
z
M 48.6875 27.296875 
Q 48.6875 37.203125 44.609375 42.84375 
Q 40.53125 48.484375 33.40625 48.484375 
Q 26.265625 48.484375 22.1875 42.84375 
Q 18.109375 37.203125 18.109375 27.296875 
Q 18.109375 17.390625 22.1875 11.75 
Q 26.265625 6.109375 33.40625 6.109375 
Q 40.53125 6.109375 44.609375 11.75 
Q 48.6875 17.390625 48.6875 27.296875 
z
" id="DejaVuSans-112"/>
      <path d="M 48.78125 52.59375 
L 48.78125 44.1875 
Q 44.96875 46.296875 41.140625 47.34375 
Q 37.3125 48.390625 33.40625 48.390625 
Q 24.65625 48.390625 19.8125 42.84375 
Q 14.984375 37.3125 14.984375 27.296875 
Q 14.984375 17.28125 19.8125 11.734375 
Q 24.65625 6.203125 33.40625 6.203125 
Q 37.3125 6.203125 41.140625 7.25 
Q 44.96875 8.296875 48.78125 10.40625 
L 48.78125 2.09375 
Q 45.015625 0.34375 40.984375 -0.53125 
Q 36.96875 -1.421875 32.421875 -1.421875 
Q 20.0625 -1.421875 12.78125 6.34375 
Q 5.515625 14.109375 5.515625 27.296875 
Q 5.515625 40.671875 12.859375 48.328125 
Q 20.21875 56 33.015625 56 
Q 37.15625 56 41.109375 55.140625 
Q 45.0625 54.296875 48.78125 52.59375 
z
" id="DejaVuSans-99"/>
      <path d="M 9.421875 75.984375 
L 18.40625 75.984375 
L 18.40625 0 
L 9.421875 0 
z
" id="DejaVuSans-108"/>
     </defs>
     <g transform="translate(410.13625 501.123625)scale(0.16 -0.16)">
      <use xlink:href="#DejaVuSans-83"/>
      <use x="63.476562" xlink:href="#DejaVuSans-104"/>
      <use x="126.855469" xlink:href="#DejaVuSans-111"/>
      <use x="188.037109" xlink:href="#DejaVuSans-114"/>
      <use x="229.150391" xlink:href="#DejaVuSans-116"/>
      <use x="268.359375" xlink:href="#DejaVuSans-97"/>
      <use x="329.638672" xlink:href="#DejaVuSans-103"/>
      <use x="393.115234" xlink:href="#DejaVuSans-101"/>
      <use x="454.638672" xlink:href="#DejaVuSans-32"/>
      <use x="486.425781" xlink:href="#DejaVuSans-109"/>
      <use x="583.837891" xlink:href="#DejaVuSans-97"/>
      <use x="645.117188" xlink:href="#DejaVuSans-103"/>
      <use x="708.59375" xlink:href="#DejaVuSans-110"/>
      <use x="771.972656" xlink:href="#DejaVuSans-105"/>
      <use x="799.755859" xlink:href="#DejaVuSans-116"/>
      <use x="838.964844" xlink:href="#DejaVuSans-117"/>
      <use x="902.34375" xlink:href="#DejaVuSans-100"/>
      <use x="965.820312" xlink:href="#DejaVuSans-101"/>
      <use x="1027.34375" xlink:href="#DejaVuSans-32"/>
      <use x="1059.130859" xlink:href="#DejaVuSans-112"/>
      <use x="1122.607422" xlink:href="#DejaVuSans-101"/>
      <use x="1184.130859" xlink:href="#DejaVuSans-114"/>
      <use x="1225.212891" xlink:href="#DejaVuSans-99"/>
      <use x="1280.193359" xlink:href="#DejaVuSans-101"/>
      <use x="1341.716797" xlink:href="#DejaVuSans-110"/>
      <use x="1405.095703" xlink:href="#DejaVuSans-116"/>
      <use x="1444.304688" xlink:href="#DejaVuSans-105"/>
      <use x="1472.087891" xlink:href="#DejaVuSans-108"/>
      <use x="1499.871094" xlink:href="#DejaVuSans-101"/>
     </g>
    </g>
   </g>
   <g id="matplotlib.axis_2">
    <g id="ytick_1">
     <g id="line2d_7">
      <defs>
       <path d="M 0 0 
L -3.5 0 
" id="mb9c1a7614f" style="stroke:#000000;stroke-width:0.8;"/>
      </defs>
      <g>
       <use style="stroke:#000000;stroke-width:0.8;" x="130.5" xlink:href="#mb9c1a7614f" y="468.288"/>
      </g>
     </g>
     <g id="text_8">
      <!-- 0.0 -->
      <defs>
       <path d="M 10.6875 12.40625 
L 21 12.40625 
L 21 0 
L 10.6875 0 
z
" id="DejaVuSans-46"/>
      </defs>
      <g transform="translate(107.596875 472.087219)scale(0.1 -0.1)">
       <use xlink:href="#DejaVuSans-48"/>
       <use x="63.623047" xlink:href="#DejaVuSans-46"/>
       <use x="95.410156" xlink:href="#DejaVuSans-48"/>
      </g>
     </g>
    </g>
    <g id="ytick_2">
     <g id="line2d_8">
      <g>
       <use style="stroke:#000000;stroke-width:0.8;" x="130.5" xlink:href="#mb9c1a7614f" y="397.3248"/>
      </g>
     </g>
     <g id="text_9">
      <!-- 0.2 -->
      <g transform="translate(107.596875 401.124019)scale(0.1 -0.1)">
       <use xlink:href="#DejaVuSans-48"/>
       <use x="63.623047" xlink:href="#DejaVuSans-46"/>
       <use x="95.410156" xlink:href="#DejaVuSans-50"/>
      </g>
     </g>
    </g>
    <g id="ytick_3">
     <g id="line2d_9">
      <g>
       <use style="stroke:#000000;stroke-width:0.8;" x="130.5" xlink:href="#mb9c1a7614f" y="326.3616"/>
      </g>
     </g>
     <g id="text_10">
      <!-- 0.4 -->
      <g transform="translate(107.596875 330.160819)scale(0.1 -0.1)">
       <use xlink:href="#DejaVuSans-48"/>
       <use x="63.623047" xlink:href="#DejaVuSans-46"/>
       <use x="95.410156" xlink:href="#DejaVuSans-52"/>
      </g>
     </g>
    </g>
    <g id="ytick_4">
     <g id="line2d_10">
      <g>
       <use style="stroke:#000000;stroke-width:0.8;" x="130.5" xlink:href="#mb9c1a7614f" y="255.3984"/>
      </g>
     </g>
     <g id="text_11">
      <!-- 0.6 -->
      <g transform="translate(107.596875 259.197619)scale(0.1 -0.1)">
       <use xlink:href="#DejaVuSans-48"/>
       <use x="63.623047" xlink:href="#DejaVuSans-46"/>
       <use x="95.410156" xlink:href="#DejaVuSans-54"/>
      </g>
     </g>
    </g>
    <g id="ytick_5">
     <g id="line2d_11">
      <g>
       <use style="stroke:#000000;stroke-width:0.8;" x="130.5" xlink:href="#mb9c1a7614f" y="184.4352"/>
      </g>
     </g>
     <g id="text_12">
      <!-- 0.8 -->
      <g transform="translate(107.596875 188.234419)scale(0.1 -0.1)">
       <use xlink:href="#DejaVuSans-48"/>
       <use x="63.623047" xlink:href="#DejaVuSans-46"/>
       <use x="95.410156" xlink:href="#DejaVuSans-56"/>
      </g>
     </g>
    </g>
    <g id="ytick_6">
     <g id="line2d_12">
      <g>
       <use style="stroke:#000000;stroke-width:0.8;" x="130.5" xlink:href="#mb9c1a7614f" y="113.472"/>
      </g>
     </g>
     <g id="text_13">
      <!-- 1.0 -->
      <g transform="translate(107.596875 117.271219)scale(0.1 -0.1)">
       <use xlink:href="#DejaVuSans-49"/>
       <use x="63.623047" xlink:href="#DejaVuSans-46"/>
       <use x="95.410156" xlink:href="#DejaVuSans-48"/>
      </g>
     </g>
    </g>
    <g id="text_14">
     <!-- Variance explained -->
     <defs>
      <path d="M 28.609375 0 
L 0.78125 72.90625 
L 11.078125 72.90625 
L 34.1875 11.53125 
L 57.328125 72.90625 
L 67.578125 72.90625 
L 39.796875 0 
z
" id="DejaVuSans-86"/>
      <path d="M 54.890625 54.6875 
L 35.109375 28.078125 
L 55.90625 0 
L 45.3125 0 
L 29.390625 21.484375 
L 13.484375 0 
L 2.875 0 
L 24.125 28.609375 
L 4.6875 54.6875 
L 15.28125 54.6875 
L 29.78125 35.203125 
L 44.28125 54.6875 
z
" id="DejaVuSans-120"/>
     </defs>
     <g transform="translate(100.269375 367.7475)rotate(-90)scale(0.16 -0.16)">
      <use xlink:href="#DejaVuSans-86"/>
      <use x="68.298828" xlink:href="#DejaVuSans-97"/>
      <use x="129.578125" xlink:href="#DejaVuSans-114"/>
      <use x="170.691406" xlink:href="#DejaVuSans-105"/>
      <use x="198.474609" xlink:href="#DejaVuSans-97"/>
      <use x="259.753906" xlink:href="#DejaVuSans-110"/>
      <use x="323.132812" xlink:href="#DejaVuSans-99"/>
      <use x="378.113281" xlink:href="#DejaVuSans-101"/>
      <use x="439.636719" xlink:href="#DejaVuSans-32"/>
      <use x="471.423828" xlink:href="#DejaVuSans-101"/>
      <use x="532.931641" xlink:href="#DejaVuSans-120"/>
      <use x="592.111328" xlink:href="#DejaVuSans-112"/>
      <use x="655.587891" xlink:href="#DejaVuSans-108"/>
      <use x="683.371094" xlink:href="#DejaVuSans-97"/>
      <use x="744.650391" xlink:href="#DejaVuSans-105"/>
      <use x="772.433594" xlink:href="#DejaVuSans-110"/>
      <use x="835.8125" xlink:href="#DejaVuSans-101"/>
      <use x="897.335938" xlink:href="#DejaVuSans-100"/>
     </g>
    </g>
   </g>
   <g id="line2d_13">
    <path clip-path="url(#p2ff533506e)" d="M 130.5 457.392929 
L 138.591 443.276631 
L 146.682 432.516827 
L 154.773 424.595048 
L 162.864 418.503416 
L 170.955 413.042042 
L 179.046 409.62765 
L 187.137 406.238889 
L 195.228 403.629235 
L 203.319 401.512974 
L 211.41 399.576985 
L 219.501 397.921951 
L 227.592 396.36938 
L 235.683 395.029419 
L 243.774 393.988944 
L 251.865 393.204999 
L 259.956 392.214275 
L 268.047 391.08112 
L 276.138 390.462177 
L 284.229 389.870052 
L 292.32 388.962362 
L 300.411 387.904516 
L 308.502 386.878626 
L 316.593 386.155604 
L 324.684 385.450046 
L 332.775 384.643963 
L 340.866 384.134409 
L 348.957 383.6017 
L 357.048 383.120211 
L 365.139 382.435865 
L 373.23 381.844037 
L 381.321 381.282243 
L 389.412 380.847428 
L 397.503 380.209088 
L 405.594 379.801398 
L 413.685 379.495583 
L 421.776 379.136051 
L 429.867 378.657703 
L 437.958 378.214084 
L 446.049 377.80961 
L 454.14 377.412364 
L 462.231 376.874608 
L 470.322 376.215701 
L 478.413 375.649303 
L 486.504 375.03259 
L 494.595 374.489358 
L 502.686 373.667873 
L 510.777 372.925251 
L 518.868 372.296095 
L 526.959 371.519196 
L 535.05 370.591752 
L 543.141 369.47684 
L 551.232 368.4047 
L 559.323 367.552473 
L 567.414 366.749651 
L 575.505 365.70733 
L 583.596 364.650583 
L 591.687 363.712082 
L 599.778 362.579 
L 607.869 361.522285 
L 615.96 360.60236 
L 624.051 359.594783 
L 632.142 358.651297 
L 640.233 357.889956 
L 648.324 357.160367 
L 656.415 356.353143 
L 664.506 355.517853 
L 672.597 354.709715 
L 680.688 353.761441 
L 688.779 352.836554 
L 696.87 351.861127 
L 704.961 350.699592 
L 713.052 349.900795 
L 721.143 349.024436 
L 729.234 347.99271 
L 737.325 347.157324 
L 745.416 346.339084 
L 753.507 345.377102 
L 761.598 344.324075 
L 769.689 343.470487 
L 777.78 342.754404 
L 785.871 342.040479 
L 793.962 341.287896 
L 802.053 340.66493 
L 810.144 340.05862 
L 818.235 339.34874 
L 826.326 338.554435 
L 834.417 338.216218 
L 842.508 337.51961 
L 850.599 336.947405 
L 858.69 336.227572 
L 866.781 334.908587 
L 874.872 332.855354 
L 882.963 330.626387 
L 891.054 332.113998 
L 899.145 338.782652 
L 907.236 351.031807 
L 915.327 366.019374 
L 923.418 382.049623 
L 931.509 399.356821 
" style="fill:none;stroke:#f18670;stroke-linecap:square;stroke-width:2;"/>
   </g>
   <g id="line2d_14">
    <path clip-path="url(#p2ff533506e)" d="M 130.5 468.182915 
L 138.591 468.151587 
L 146.682 468.20623 
L 154.773 468.109554 
L 162.864 468.048507 
L 170.955 467.943979 
L 179.046 467.916511 
L 187.137 467.878119 
L 195.228 467.882667 
L 203.319 467.883086 
L 211.41 467.884569 
L 219.501 467.885683 
L 227.592 467.900714 
L 235.683 467.936225 
L 243.774 467.960823 
L 251.865 467.973702 
L 259.956 467.978517 
L 268.047 467.999407 
L 276.138 467.996372 
L 284.229 467.997781 
L 292.32 468.020472 
L 300.411 468.03663 
L 308.502 468.051275 
L 316.593 468.061131 
L 324.684 468.051211 
L 332.775 468.072257 
L 340.866 468.076364 
L 348.957 468.079919 
L 357.048 468.082938 
L 365.139 468.100733 
L 373.23 468.105803 
L 381.321 468.112675 
L 389.412 468.117179 
L 397.503 468.113184 
L 405.594 468.107571 
L 413.685 468.114839 
L 421.776 468.115756 
L 429.867 468.118461 
L 437.958 468.123999 
L 446.049 468.128968 
L 454.14 468.136222 
L 462.231 468.139221 
L 470.322 468.151276 
L 478.413 468.162576 
L 486.504 468.166058 
L 494.595 468.171826 
L 502.686 468.175955 
L 510.777 468.18489 
L 518.868 468.192529 
L 526.959 468.204059 
L 535.05 468.207472 
L 543.141 468.214538 
L 551.232 468.220013 
L 559.323 468.231902 
L 567.414 468.237978 
L 575.505 468.235288 
L 583.596 468.237409 
L 591.687 468.245186 
L 599.778 468.250124 
L 607.869 468.253054 
L 615.96 468.258024 
L 624.051 468.265538 
L 632.142 468.269933 
L 640.233 468.272495 
L 648.324 468.274188 
L 656.415 468.27684 
L 664.506 468.278946 
L 672.597 468.278207 
L 680.688 468.279008 
L 688.779 468.282358 
L 696.87 468.283765 
L 704.961 468.28348 
L 713.052 468.285294 
L 721.143 468.285869 
L 729.234 468.287355 
L 737.325 468.28796 
L 745.416 468.287963 
L 753.507 468.287554 
L 761.598 468.286618 
L 769.689 468.284759 
L 777.78 468.282784 
L 785.871 468.282931 
L 793.962 468.284302 
L 802.053 468.283499 
L 810.144 468.283951 
L 818.235 468.286177 
L 826.326 468.287073 
L 834.417 468.287547 
L 842.508 468.287435 
L 850.599 468.287921 
L 858.69 468.287997 
L 866.781 468.287814 
L 874.872 468.287747 
L 882.963 468.287918 
L 891.054 468.286401 
L 899.145 468.276484 
L 907.236 468.282024 
L 915.327 468.277006 
L 923.418 468.24652 
L 931.509 468.168692 
" style="fill:none;stroke:#e24d3f;stroke-linecap:square;stroke-width:2;"/>
   </g>
   <g id="line2d_15">
    <path clip-path="url(#p2ff533506e)" d="M 130.5 468.287382 
L 138.591 468.286318 
L 146.682 468.285063 
L 154.773 468.283443 
L 162.864 468.283958 
L 170.955 468.285818 
L 179.046 468.286248 
L 187.137 468.285883 
L 195.228 468.284687 
L 203.319 468.284204 
L 211.41 468.284789 
L 219.501 468.286044 
L 227.592 468.285091 
L 235.683 468.282418 
L 243.774 468.281504 
L 251.865 468.280488 
L 259.956 468.278877 
L 268.047 468.279978 
L 276.138 468.280346 
L 284.229 468.278411 
L 292.32 468.274137 
L 300.411 468.27114 
L 308.502 468.267228 
L 316.593 468.264351 
L 324.684 468.262312 
L 332.775 468.263345 
L 340.866 468.257378 
L 348.957 468.248517 
L 357.048 468.248246 
L 365.139 468.248551 
L 373.23 468.246196 
L 381.321 468.244058 
L 389.412 468.248675 
L 397.503 468.253698 
L 405.594 468.251902 
L 413.685 468.25289 
L 421.776 468.256738 
L 429.867 468.257553 
L 437.958 468.255616 
L 446.049 468.255074 
L 454.14 468.254396 
L 462.231 468.252564 
L 470.322 468.249652 
L 478.413 468.248502 
L 486.504 468.245952 
L 494.595 468.245802 
L 502.686 468.238445 
L 510.777 468.229761 
L 518.868 468.224013 
L 526.959 468.216139 
L 535.05 468.215188 
L 543.141 468.208079 
L 551.232 468.19615 
L 559.323 468.1836 
L 567.414 468.172428 
L 575.505 468.15563 
L 583.596 468.135309 
L 591.687 468.114706 
L 599.778 468.096347 
L 607.869 468.087203 
L 615.96 468.087043 
L 624.051 468.084488 
L 632.142 468.074138 
L 640.233 468.065329 
L 648.324 468.062607 
L 656.415 468.057954 
L 664.506 468.044964 
L 672.597 468.041083 
L 680.688 468.034274 
L 688.779 468.029643 
L 696.87 468.026294 
L 704.961 468.02237 
L 713.052 468.035847 
L 721.143 468.04763 
L 729.234 468.059328 
L 737.325 468.076281 
L 745.416 468.056167 
L 753.507 468.049115 
L 761.598 468.050917 
L 769.689 468.066818 
L 777.78 468.044948 
L 785.871 468.013611 
L 793.962 467.983177 
L 802.053 467.956016 
L 810.144 467.899694 
L 818.235 467.839673 
L 826.326 467.811606 
L 834.417 467.796784 
L 842.508 467.760134 
L 850.599 467.720063 
L 858.69 467.669598 
L 866.781 467.654695 
L 874.872 467.647403 
L 882.963 467.621507 
L 891.054 467.689216 
L 899.145 467.808983 
L 907.236 467.868072 
L 915.327 467.940493 
L 923.418 467.944277 
L 931.509 467.993203 
" style="fill:none;stroke:#cf233e;stroke-linecap:square;stroke-width:2;"/>
   </g>
   <g id="line2d_16">
    <path clip-path="url(#p2ff533506e)" d="M 130.5 468.136019 
L 138.591 468.044476 
L 146.682 468.036762 
L 154.773 467.999346 
L 162.864 468.026012 
L 170.955 467.987592 
L 179.046 467.958063 
L 187.137 467.990928 
L 195.228 467.958518 
L 203.319 467.897011 
L 211.41 467.867206 
L 219.501 467.865512 
L 227.592 467.862645 
L 235.683 467.854618 
L 243.774 467.832078 
L 251.865 467.829354 
L 259.956 467.853807 
L 268.047 467.850928 
L 276.138 467.859336 
L 284.229 467.875623 
L 292.32 467.897599 
L 300.411 467.922526 
L 308.502 467.930938 
L 316.593 467.944787 
L 324.684 467.962552 
L 332.775 467.984229 
L 340.866 467.988815 
L 348.957 467.984278 
L 357.048 467.983687 
L 365.139 467.992717 
L 373.23 467.984256 
L 381.321 467.988964 
L 389.412 468.003362 
L 397.503 468.014089 
L 405.594 468.015989 
L 413.685 468.020251 
L 421.776 468.021278 
L 429.867 468.020026 
L 437.958 468.018158 
L 446.049 468.016569 
L 454.14 468.024977 
L 462.231 468.036899 
L 470.322 468.044767 
L 478.413 468.050417 
L 486.504 468.058158 
L 494.595 468.056654 
L 502.686 468.047497 
L 510.777 468.05243 
L 518.868 468.057896 
L 526.959 468.067648 
L 535.05 468.090591 
L 543.141 468.102079 
L 551.232 468.110259 
L 559.323 468.106904 
L 567.414 468.11335 
L 575.505 468.118892 
L 583.596 468.128252 
L 591.687 468.139493 
L 599.778 468.141245 
L 607.869 468.145415 
L 615.96 468.155203 
L 624.051 468.162869 
L 632.142 468.17145 
L 640.233 468.183997 
L 648.324 468.190184 
L 656.415 468.198573 
L 664.506 468.209623 
L 672.597 468.223296 
L 680.688 468.227521 
L 688.779 468.23488 
L 696.87 468.239517 
L 704.961 468.240827 
L 713.052 468.239601 
L 721.143 468.241916 
L 729.234 468.246793 
L 737.325 468.244944 
L 745.416 468.244505 
L 753.507 468.24097 
L 761.598 468.233809 
L 769.689 468.226719 
L 777.78 468.220594 
L 785.871 468.227458 
L 793.962 468.225574 
L 802.053 468.208479 
L 810.144 468.18752 
L 818.235 468.182166 
L 826.326 468.187657 
L 834.417 468.194926 
L 842.508 468.199633 
L 850.599 468.213143 
L 858.69 468.225311 
L 866.781 468.233014 
L 874.872 468.241016 
L 882.963 468.262678 
L 891.054 468.247218 
L 899.145 468.158327 
L 907.236 468.068255 
L 915.327 468.063119 
L 923.418 468.086231 
L 931.509 468.001264 
" style="fill:none;stroke:#681e33;stroke-linecap:square;stroke-width:2;"/>
   </g>
   <g id="line2d_17">
    <path clip-path="url(#p2ff533506e)" d="M 130.5 468.263548 
L 138.591 468.28798 
L 146.682 468.283474 
L 154.773 468.283999 
L 162.864 468.270909 
L 170.955 468.266042 
L 179.046 468.249178 
L 187.137 468.226006 
L 195.228 468.227451 
L 203.319 468.232346 
L 211.41 468.226071 
L 219.501 468.215638 
L 227.592 468.209579 
L 235.683 468.209591 
L 243.774 468.216966 
L 251.865 468.219474 
L 259.956 468.216413 
L 268.047 468.21568 
L 276.138 468.220167 
L 284.229 468.230987 
L 292.32 468.242067 
L 300.411 468.241673 
L 308.502 468.242715 
L 316.593 468.243991 
L 324.684 468.244461 
L 332.775 468.248075 
L 340.866 468.250153 
L 348.957 468.255987 
L 357.048 468.260399 
L 365.139 468.265819 
L 373.23 468.266302 
L 381.321 468.269098 
L 389.412 468.271726 
L 397.503 468.27564 
L 405.594 468.279034 
L 413.685 468.28241 
L 421.776 468.285334 
L 429.867 468.286223 
L 437.958 468.286458 
L 446.049 468.287291 
L 454.14 468.28786 
L 462.231 468.287999 
L 470.322 468.288 
L 478.413 468.287947 
L 486.504 468.287891 
L 494.595 468.287644 
L 502.686 468.287452 
L 510.777 468.287207 
L 518.868 468.287285 
L 526.959 468.287841 
L 535.05 468.287947 
L 543.141 468.287999 
L 551.232 468.287967 
L 559.323 468.287835 
L 567.414 468.287412 
L 575.505 468.286763 
L 583.596 468.286233 
L 591.687 468.285042 
L 599.778 468.284037 
L 607.869 468.283311 
L 615.96 468.282985 
L 624.051 468.281782 
L 632.142 468.279137 
L 640.233 468.277425 
L 648.324 468.277594 
L 656.415 468.275803 
L 664.506 468.272968 
L 672.597 468.270762 
L 680.688 468.267522 
L 688.779 468.267513 
L 696.87 468.270442 
L 704.961 468.271329 
L 713.052 468.272873 
L 721.143 468.278122 
L 729.234 468.277996 
L 737.325 468.278411 
L 745.416 468.27878 
L 753.507 468.276204 
L 761.598 468.279627 
L 769.689 468.280426 
L 777.78 468.283443 
L 785.871 468.285926 
L 793.962 468.287308 
L 802.053 468.287351 
L 810.144 468.286517 
L 818.235 468.283461 
L 826.326 468.278532 
L 834.417 468.276522 
L 842.508 468.275254 
L 850.599 468.268124 
L 858.69 468.260697 
L 866.781 468.23908 
L 874.872 468.228382 
L 882.963 468.236348 
L 891.054 468.252519 
L 899.145 468.260545 
L 907.236 468.280945 
L 915.327 468.276307 
L 923.418 468.26178 
L 931.509 468.280091 
" style="fill:none;stroke:#676572;stroke-linecap:square;stroke-width:2;"/>
   </g>
   <g id="line2d_18">
    <path clip-path="url(#p2ff533506e)" d="M 130.5 467.743961 
L 138.591 467.740964 
L 146.682 467.673276 
L 154.773 467.767755 
L 162.864 467.734319 
L 170.955 467.654915 
L 179.046 467.62653 
L 187.137 467.571501 
L 195.228 467.527825 
L 203.319 467.53042 
L 211.41 467.538365 
L 219.501 467.518983 
L 227.592 467.505857 
L 235.683 467.508902 
L 243.774 467.520551 
L 251.865 467.528889 
L 259.956 467.522565 
L 268.047 467.512327 
L 276.138 467.51135 
L 284.229 467.515252 
L 292.32 467.511468 
L 300.411 467.492894 
L 308.502 467.497386 
L 316.593 467.493878 
L 324.684 467.492469 
L 332.775 467.504514 
L 340.866 467.497072 
L 348.957 467.503325 
L 357.048 467.483402 
L 365.139 467.469841 
L 373.23 467.462 
L 381.321 467.449666 
L 389.412 467.445439 
L 397.503 467.458721 
L 405.594 467.472758 
L 413.685 467.465032 
L 421.776 467.443947 
L 429.867 467.438287 
L 437.958 467.44406 
L 446.049 467.451604 
L 454.14 467.444303 
L 462.231 467.435596 
L 470.322 467.421006 
L 478.413 467.418298 
L 486.504 467.42159 
L 494.595 467.418942 
L 502.686 467.41852 
L 510.777 467.421248 
L 518.868 467.419347 
L 526.959 467.413139 
L 535.05 467.401132 
L 543.141 467.431838 
L 551.232 467.440127 
L 559.323 467.4473 
L 567.414 467.424633 
L 575.505 467.399521 
L 583.596 467.398279 
L 591.687 467.390989 
L 599.778 467.385816 
L 607.869 467.38036 
L 615.96 467.366069 
L 624.051 467.351599 
L 632.142 467.341395 
L 640.233 467.348221 
L 648.324 467.36011 
L 656.415 467.368856 
L 664.506 467.363943 
L 672.597 467.34296 
L 680.688 467.314654 
L 688.779 467.29452 
L 696.87 467.272895 
L 704.961 467.259165 
L 713.052 467.205055 
L 721.143 467.206416 
L 729.234 467.166876 
L 737.325 467.092919 
L 745.416 467.076539 
L 753.507 467.020476 
L 761.598 467.035303 
L 769.689 466.99439 
L 777.78 466.988664 
L 785.871 467.008852 
L 793.962 466.965937 
L 802.053 466.992684 
L 810.144 466.961025 
L 818.235 466.963899 
L 826.326 466.957836 
L 834.417 466.907228 
L 842.508 466.867229 
L 850.599 466.856212 
L 858.69 466.873208 
L 866.781 466.950721 
L 874.872 466.916129 
L 882.963 466.890234 
L 891.054 466.820863 
L 899.145 466.999454 
L 907.236 467.114125 
L 915.327 467.099352 
L 923.418 467.303053 
L 931.509 467.621584 
" style="fill:none;stroke:#f3be22;stroke-linecap:square;stroke-width:2;"/>
   </g>
   <g id="line2d_19">
    <path clip-path="url(#p2ff533506e)" d="M 130.5 468.285667 
L 138.591 468.287125 
L 146.682 468.283867 
L 154.773 468.275957 
L 162.864 468.275295 
L 170.955 468.275265 
L 179.046 468.271175 
L 187.137 468.262527 
L 195.228 468.259871 
L 203.319 468.254616 
L 211.41 468.252012 
L 219.501 468.260079 
L 227.592 468.256463 
L 235.683 468.243418 
L 243.774 468.23783 
L 251.865 468.231997 
L 259.956 468.221765 
L 268.047 468.214229 
L 276.138 468.208376 
L 284.229 468.203427 
L 292.32 468.202717 
L 300.411 468.202998 
L 308.502 468.189078 
L 316.593 468.174089 
L 324.684 468.166667 
L 332.775 468.163019 
L 340.866 468.152101 
L 348.957 468.140828 
L 357.048 468.137173 
L 365.139 468.136224 
L 373.23 468.129749 
L 381.321 468.126414 
L 389.412 468.114414 
L 397.503 468.099471 
L 405.594 468.087886 
L 413.685 468.080751 
L 421.776 468.06682 
L 429.867 468.054807 
L 437.958 468.039131 
L 446.049 468.020145 
L 454.14 468.010152 
L 462.231 468.004505 
L 470.322 467.993873 
L 478.413 467.978901 
L 486.504 467.961172 
L 494.595 467.942339 
L 502.686 467.932595 
L 510.777 467.920317 
L 518.868 467.922676 
L 526.959 467.912249 
L 535.05 467.909576 
L 543.141 467.897272 
L 551.232 467.87946 
L 559.323 467.848964 
L 567.414 467.84346 
L 575.505 467.833237 
L 583.596 467.834575 
L 591.687 467.823786 
L 599.778 467.809215 
L 607.869 467.803702 
L 615.96 467.810406 
L 624.051 467.813435 
L 632.142 467.808759 
L 640.233 467.803914 
L 648.324 467.78796 
L 656.415 467.781989 
L 664.506 467.77558 
L 672.597 467.774052 
L 680.688 467.744761 
L 688.779 467.728406 
L 696.87 467.706568 
L 704.961 467.679366 
L 713.052 467.680677 
L 721.143 467.687836 
L 729.234 467.700109 
L 737.325 467.675037 
L 745.416 467.689855 
L 753.507 467.688601 
L 761.598 467.66504 
L 769.689 467.645115 
L 777.78 467.604353 
L 785.871 467.577705 
L 793.962 467.530523 
L 802.053 467.48551 
L 810.144 467.467338 
L 818.235 467.453485 
L 826.326 467.432377 
L 834.417 467.395527 
L 842.508 467.357669 
L 850.599 467.34288 
L 858.69 467.359196 
L 866.781 467.377243 
L 874.872 467.331331 
L 882.963 467.240173 
L 891.054 467.290074 
L 899.145 467.261717 
L 907.236 467.364252 
L 915.327 467.600987 
L 923.418 467.883412 
L 931.509 468.088449 
" style="fill:none;stroke:#59deba;stroke-linecap:square;stroke-width:2;"/>
   </g>
   <g id="line2d_20">
    <path clip-path="url(#p2ff533506e)" d="M 130.5 461.62774 
L 138.591 456.682753 
L 146.682 453.792471 
L 154.773 451.753429 
L 162.864 450.653939 
L 170.955 449.805067 
L 179.046 449.350649 
L 187.137 448.685318 
L 195.228 448.231763 
L 203.319 447.523991 
L 211.41 446.92563 
L 219.501 446.401432 
L 227.592 445.834258 
L 235.683 445.453135 
L 243.774 445.074701 
L 251.865 444.70994 
L 259.956 444.28407 
L 268.047 443.787723 
L 276.138 443.314443 
L 284.229 442.8712 
L 292.32 442.445226 
L 300.411 442.146591 
L 308.502 441.737466 
L 316.593 441.389559 
L 324.684 440.992758 
L 332.775 440.46889 
L 340.866 439.923593 
L 348.957 439.475847 
L 357.048 438.934371 
L 365.139 438.496155 
L 373.23 437.899339 
L 381.321 437.297134 
L 389.412 436.804588 
L 397.503 436.338254 
L 405.594 436.011655 
L 413.685 435.516051 
L 421.776 434.913343 
L 429.867 434.310597 
L 437.958 433.687278 
L 446.049 433.072573 
L 454.14 432.444317 
L 462.231 431.766022 
L 470.322 431.140289 
L 478.413 430.435584 
L 486.504 429.759318 
L 494.595 429.02139 
L 502.686 428.407088 
L 510.777 427.602118 
L 518.868 426.817853 
L 526.959 425.90922 
L 535.05 424.993319 
L 543.141 424.441929 
L 551.232 423.730746 
L 559.323 422.930024 
L 567.414 422.160599 
L 575.505 421.320018 
L 583.596 420.623857 
L 591.687 419.83076 
L 599.778 419.054927 
L 607.869 418.351501 
L 615.96 417.442548 
L 624.051 416.647291 
L 632.142 415.942638 
L 640.233 415.139814 
L 648.324 414.333403 
L 656.415 413.644617 
L 664.506 413.01284 
L 672.597 412.38361 
L 680.688 411.935416 
L 688.779 411.311042 
L 696.87 410.630711 
L 704.961 410.063133 
L 713.052 409.663656 
L 721.143 409.285022 
L 729.234 408.816406 
L 737.325 408.541293 
L 745.416 408.167827 
L 753.507 407.715425 
L 761.598 407.35139 
L 769.689 407.382983 
L 777.78 407.257018 
L 785.871 406.935664 
L 793.962 406.617048 
L 802.053 406.386862 
L 810.144 406.139342 
L 818.235 405.926656 
L 826.326 405.872139 
L 834.417 405.57372 
L 842.508 405.093303 
L 850.599 404.574626 
L 858.69 404.322075 
L 866.781 404.52161 
L 874.872 405.8604 
L 882.963 407.709723 
L 891.054 408.457328 
L 899.145 409.390558 
L 907.236 410.553907 
L 915.327 414.043008 
L 923.418 418.282184 
L 931.509 422.194184 
" style="fill:none;stroke:#14015c;stroke-linecap:square;stroke-width:2;"/>
   </g>
   <g id="line2d_21">
    <path clip-path="url(#p2ff533506e)" d="M 130.5 467.619304 
L 138.591 466.950197 
L 146.682 466.722753 
L 154.773 466.969616 
L 162.864 466.956492 
L 170.955 466.951709 
L 179.046 467.000474 
L 187.137 467.038502 
L 195.228 467.045105 
L 203.319 467.070896 
L 211.41 467.067678 
L 219.501 467.038933 
L 227.592 466.964557 
L 235.683 466.928223 
L 243.774 466.927719 
L 251.865 466.91229 
L 259.956 466.898199 
L 268.047 466.842451 
L 276.138 466.824122 
L 284.229 466.83075 
L 292.32 466.842608 
L 300.411 466.87875 
L 308.502 466.881037 
L 316.593 466.899886 
L 324.684 466.891007 
L 332.775 466.936293 
L 340.866 466.961952 
L 348.957 466.963285 
L 357.048 466.997453 
L 365.139 467.004626 
L 373.23 467.016995 
L 381.321 467.030596 
L 389.412 467.026559 
L 397.503 467.040478 
L 405.594 467.04075 
L 413.685 467.06782 
L 421.776 467.099173 
L 429.867 467.136859 
L 437.958 467.169121 
L 446.049 467.210019 
L 454.14 467.262517 
L 462.231 467.309036 
L 470.322 467.339935 
L 478.413 467.370478 
L 486.504 467.399521 
L 494.595 467.438852 
L 502.686 467.488482 
L 510.777 467.532596 
L 518.868 467.57798 
L 526.959 467.590513 
L 535.05 467.612727 
L 543.141 467.654599 
L 551.232 467.699689 
L 559.323 467.739121 
L 567.414 467.772649 
L 575.505 467.810793 
L 583.596 467.855424 
L 591.687 467.888382 
L 599.778 467.91401 
L 607.869 467.928503 
L 615.96 467.940457 
L 624.051 467.966038 
L 632.142 468.000814 
L 640.233 468.029118 
L 648.324 468.047154 
L 656.415 468.069691 
L 664.506 468.103055 
L 672.597 468.132873 
L 680.688 468.161798 
L 688.779 468.180941 
L 696.87 468.195906 
L 704.961 468.214101 
L 713.052 468.233438 
L 721.143 468.240383 
L 729.234 468.251693 
L 737.325 468.257073 
L 745.416 468.264303 
L 753.507 468.273547 
L 761.598 468.277425 
L 769.689 468.27969 
L 777.78 468.28121 
L 785.871 468.286267 
L 793.962 468.287625 
L 802.053 468.28563 
L 810.144 468.28355 
L 818.235 468.275897 
L 826.326 468.26977 
L 834.417 468.262687 
L 842.508 468.251307 
L 850.599 468.235076 
L 858.69 468.213138 
L 866.781 468.189294 
L 874.872 468.175349 
L 882.963 468.171128 
L 891.054 468.183256 
L 899.145 468.158759 
L 907.236 468.133797 
L 915.327 468.150333 
L 923.418 468.260196 
L 931.509 468.191462 
" style="fill:none;stroke:#daf8a3;stroke-linecap:square;stroke-width:2;"/>
   </g>
   <g id="line2d_22">
    <path clip-path="url(#p2ff533506e)" d="M 130.5 453.950067 
L 138.591 437.105882 
L 146.682 425.431909 
L 154.773 417.393999 
L 162.864 412.249697 
L 170.955 408.707046 
L 179.046 406.448051 
L 187.137 405.59967 
L 195.228 405.032385 
L 203.319 405.524882 
L 211.41 406.011502 
L 219.501 406.886938 
L 227.592 408.309749 
L 235.683 409.35022 
L 243.774 410.203066 
L 251.865 411.256354 
L 259.956 412.471661 
L 268.047 413.841731 
L 276.138 415.039105 
L 284.229 416.2995 
L 292.32 417.552204 
L 300.411 418.949373 
L 308.502 420.393531 
L 316.593 421.520944 
L 324.684 422.749805 
L 332.775 424.032132 
L 340.866 425.164738 
L 348.957 426.402025 
L 357.048 427.395408 
L 365.139 428.478828 
L 373.23 429.617181 
L 381.321 430.63497 
L 389.412 431.637999 
L 397.503 432.529643 
L 405.594 433.301209 
L 413.685 434.141512 
L 421.776 435.077314 
L 429.867 435.972706 
L 437.958 436.836279 
L 446.049 437.609423 
L 454.14 438.336463 
L 462.231 439.05229 
L 470.322 439.811445 
L 478.413 440.574694 
L 486.504 441.43473 
L 494.595 442.17213 
L 502.686 442.949078 
L 510.777 443.706038 
L 518.868 444.342581 
L 526.959 445.01853 
L 535.05 445.6347 
L 543.141 446.21054 
L 551.232 446.883236 
L 559.323 447.409979 
L 567.414 447.809341 
L 575.505 448.306123 
L 583.596 448.727571 
L 591.687 449.220107 
L 599.778 449.758438 
L 607.869 450.258308 
L 615.96 450.685114 
L 624.051 451.028613 
L 632.142 451.365398 
L 640.233 451.700133 
L 648.324 451.978662 
L 656.415 452.276183 
L 664.506 452.6195 
L 672.597 452.946508 
L 680.688 453.173009 
L 688.779 453.440774 
L 696.87 453.796992 
L 704.961 454.015813 
L 713.052 454.27837 
L 721.143 454.514613 
L 729.234 454.783214 
L 737.325 454.912629 
L 745.416 454.944513 
L 753.507 455.035915 
L 761.598 455.110529 
L 769.689 455.179085 
L 777.78 455.198964 
L 785.871 455.274381 
L 793.962 455.546469 
L 802.053 455.694104 
L 810.144 455.888667 
L 818.235 456.106312 
L 826.326 456.53893 
L 834.417 456.724328 
L 842.508 456.903762 
L 850.599 457.240928 
L 858.69 457.51823 
L 866.781 457.790177 
L 874.872 458.077415 
L 882.963 458.512421 
L 891.054 458.791542 
L 899.145 458.341169 
L 907.236 457.863237 
L 915.327 457.32859 
L 923.418 459.029074 
L 931.509 461.196019 
" style="fill:none;stroke:#0b7a0a;stroke-linecap:square;stroke-width:2;"/>
   </g>
   <g id="line2d_23">
    <path clip-path="url(#p2ff533506e)" d="M 130.5 467.893198 
L 138.591 467.944025 
L 146.682 467.736347 
L 154.773 467.616576 
L 162.864 467.500724 
L 170.955 467.429982 
L 179.046 467.384656 
L 187.137 467.306383 
L 195.228 467.277185 
L 203.319 467.293829 
L 211.41 467.324039 
L 219.501 467.413806 
L 227.592 467.443882 
L 235.683 467.46498 
L 243.774 467.504261 
L 251.865 467.556227 
L 259.956 467.592612 
L 268.047 467.641082 
L 276.138 467.6884 
L 284.229 467.718159 
L 292.32 467.755922 
L 300.411 467.773566 
L 308.502 467.813487 
L 316.593 467.845755 
L 324.684 467.885821 
L 332.775 467.922464 
L 340.866 467.962503 
L 348.957 468.004423 
L 357.048 468.01717 
L 365.139 468.035543 
L 373.23 468.054444 
L 381.321 468.076385 
L 389.412 468.091523 
L 397.503 468.114351 
L 405.594 468.131052 
L 413.685 468.148931 
L 421.776 468.174124 
L 429.867 468.193647 
L 437.958 468.21118 
L 446.049 468.224641 
L 454.14 468.237365 
L 462.231 468.251088 
L 470.322 468.261763 
L 478.413 468.269918 
L 486.504 468.27574 
L 494.595 468.281606 
L 502.686 468.285264 
L 510.777 468.2876 
L 518.868 468.287861 
L 526.959 468.287178 
L 535.05 468.286111 
L 543.141 468.285358 
L 551.232 468.282874 
L 559.323 468.278731 
L 567.414 468.275783 
L 575.505 468.272158 
L 583.596 468.268956 
L 591.687 468.263592 
L 599.778 468.258846 
L 607.869 468.256538 
L 615.96 468.252834 
L 624.051 468.247346 
L 632.142 468.243946 
L 640.233 468.239976 
L 648.324 468.230809 
L 656.415 468.217497 
L 664.506 468.215805 
L 672.597 468.210984 
L 680.688 468.206586 
L 688.779 468.195541 
L 696.87 468.179327 
L 704.961 468.171 
L 713.052 468.16336 
L 721.143 468.150151 
L 729.234 468.133131 
L 737.325 468.114013 
L 745.416 468.085052 
L 753.507 468.064124 
L 761.598 468.043636 
L 769.689 467.996129 
L 777.78 467.967575 
L 785.871 467.941119 
L 793.962 467.921554 
L 802.053 467.905514 
L 810.144 467.903831 
L 818.235 467.92413 
L 826.326 467.939341 
L 834.417 467.930144 
L 842.508 467.890432 
L 850.599 467.872154 
L 858.69 467.902674 
L 866.781 467.911833 
L 874.872 467.93225 
L 882.963 467.906816 
L 891.054 467.848105 
L 899.145 467.8171 
L 907.236 467.866038 
L 915.327 467.817983 
L 923.418 467.937979 
L 931.509 467.912346 
" style="fill:none;stroke:#f8ffa2;stroke-linecap:square;stroke-width:2;"/>
   </g>
   <g id="line2d_24">
    <path clip-path="url(#p2ff533506e)" d="M 130.5 464.397686 
L 138.591 461.48001 
L 146.682 458.950329 
L 154.773 456.949674 
L 162.864 455.574529 
L 170.955 454.268156 
L 179.046 452.89354 
L 187.137 452.008273 
L 195.228 451.257303 
L 203.319 450.709222 
L 211.41 450.320446 
L 219.501 449.943234 
L 227.592 449.674185 
L 235.683 449.600761 
L 243.774 449.524709 
L 251.865 449.449685 
L 259.956 449.530208 
L 268.047 449.602452 
L 276.138 449.589864 
L 284.229 449.726288 
L 292.32 449.958469 
L 300.411 450.146251 
L 308.502 450.319677 
L 316.593 450.449033 
L 324.684 450.69062 
L 332.775 450.901853 
L 340.866 451.030175 
L 348.957 451.138398 
L 357.048 451.297249 
L 365.139 451.446953 
L 373.23 451.655816 
L 381.321 451.762465 
L 389.412 451.936368 
L 397.503 451.995136 
L 405.594 452.154369 
L 413.685 452.274089 
L 421.776 452.330294 
L 429.867 452.33288 
L 437.958 452.454201 
L 446.049 452.622749 
L 454.14 452.751539 
L 462.231 452.903061 
L 470.322 453.019951 
L 478.413 453.085024 
L 486.504 453.236137 
L 494.595 453.35841 
L 502.686 453.403811 
L 510.777 453.513977 
L 518.868 453.556184 
L 526.959 453.692022 
L 535.05 453.710295 
L 543.141 453.680205 
L 551.232 453.76325 
L 559.323 453.875042 
L 567.414 453.917904 
L 575.505 454.014472 
L 583.596 454.151202 
L 591.687 454.133659 
L 599.778 454.198511 
L 607.869 454.306473 
L 615.96 454.355878 
L 624.051 454.421146 
L 632.142 454.505019 
L 640.233 454.620501 
L 648.324 454.704356 
L 656.415 454.845508 
L 664.506 454.999908 
L 672.597 455.134245 
L 680.688 455.265322 
L 688.779 455.457531 
L 696.87 455.710867 
L 704.961 455.837509 
L 713.052 456.020908 
L 721.143 456.086545 
L 729.234 456.283092 
L 737.325 456.387329 
L 745.416 456.475533 
L 753.507 456.420361 
L 761.598 456.429698 
L 769.689 456.530854 
L 777.78 456.575374 
L 785.871 456.617418 
L 793.962 456.558061 
L 802.053 456.628102 
L 810.144 456.699436 
L 818.235 456.642634 
L 826.326 456.561908 
L 834.417 456.651582 
L 842.508 456.839887 
L 850.599 457.091616 
L 858.69 457.403136 
L 866.781 457.770052 
L 874.872 458.298447 
L 882.963 458.587882 
L 891.054 458.124858 
L 899.145 457.541206 
L 907.236 457.078066 
L 915.327 457.596868 
L 923.418 457.456801 
L 931.509 459.014185 
" style="fill:none;stroke:#578dc0;stroke-linecap:square;stroke-width:2;"/>
   </g>
   <g id="line2d_25">
    <path clip-path="url(#p2ff533506e)" d="M 130.5 467.690259 
L 138.591 467.650965 
L 146.682 467.232676 
L 154.773 466.74573 
L 162.864 466.388743 
L 170.955 465.958217 
L 179.046 465.645079 
L 187.137 465.245415 
L 195.228 464.962576 
L 203.319 464.611569 
L 211.41 464.357243 
L 219.501 464.148217 
L 227.592 463.985464 
L 235.683 463.842593 
L 243.774 463.679935 
L 251.865 463.534615 
L 259.956 463.367545 
L 268.047 463.239209 
L 276.138 463.208726 
L 284.229 463.148463 
L 292.32 463.072322 
L 300.411 463.030278 
L 308.502 462.931998 
L 316.593 462.738826 
L 324.684 462.714833 
L 332.775 462.694207 
L 340.866 462.508982 
L 348.957 462.306057 
L 357.048 462.204189 
L 365.139 462.029421 
L 373.23 461.895092 
L 381.321 461.781036 
L 389.412 461.663996 
L 397.503 461.609652 
L 405.594 461.559017 
L 413.685 461.438407 
L 421.776 461.364315 
L 429.867 461.331289 
L 437.958 461.294402 
L 446.049 461.239238 
L 454.14 461.228014 
L 462.231 461.195821 
L 470.322 461.17745 
L 478.413 461.153249 
L 486.504 461.1412 
L 494.595 461.150717 
L 502.686 461.182578 
L 510.777 461.214292 
L 518.868 461.232207 
L 526.959 461.22616 
L 535.05 461.281985 
L 543.141 461.372085 
L 551.232 461.411979 
L 559.323 461.437378 
L 567.414 461.442419 
L 575.505 461.436882 
L 583.596 461.442563 
L 591.687 461.468156 
L 599.778 461.497816 
L 607.869 461.531391 
L 615.96 461.560261 
L 624.051 461.608717 
L 632.142 461.61023 
L 640.233 461.62064 
L 648.324 461.576924 
L 656.415 461.546233 
L 664.506 461.532401 
L 672.597 461.45875 
L 680.688 461.372347 
L 688.779 461.337272 
L 696.87 461.307821 
L 704.961 461.289001 
L 713.052 461.270373 
L 721.143 461.228559 
L 729.234 461.162628 
L 737.325 461.080101 
L 745.416 461.141455 
L 753.507 461.180885 
L 761.598 461.146873 
L 769.689 461.26839 
L 777.78 461.379303 
L 785.871 461.510126 
L 793.962 461.585883 
L 802.053 461.742172 
L 810.144 461.900689 
L 818.235 462.119982 
L 826.326 462.363742 
L 834.417 462.535925 
L 842.508 462.637678 
L 850.599 462.824435 
L 858.69 462.990978 
L 866.781 463.23269 
L 874.872 463.379941 
L 882.963 463.277342 
L 891.054 463.366867 
L 899.145 463.787377 
L 907.236 464.450475 
L 915.327 464.545506 
L 923.418 464.447776 
L 931.509 464.81814 
" style="fill:none;stroke:#4e4ad8;stroke-linecap:square;stroke-width:2;"/>
   </g>
   <g id="line2d_26">
    <path clip-path="url(#p2ff533506e)" d="M 130.5 460.323859 
L 138.591 449.673011 
L 146.682 438.397117 
L 154.773 429.215509 
L 162.864 420.479147 
L 170.955 413.442145 
L 179.046 406.855663 
L 187.137 401.013024 
L 195.228 395.916617 
L 203.319 391.111174 
L 211.41 386.853181 
L 219.501 382.773424 
L 227.592 378.821582 
L 235.683 375.465665 
L 243.774 372.380885 
L 251.865 369.336763 
L 259.956 366.728946 
L 268.047 364.5696 
L 276.138 362.42994 
L 284.229 360.020136 
L 292.32 357.854501 
L 300.411 355.905351 
L 308.502 354.147014 
L 316.593 352.771797 
L 324.684 351.259965 
L 332.775 349.920974 
L 340.866 348.825682 
L 348.957 347.764911 
L 357.048 346.815714 
L 365.139 346.107035 
L 373.23 345.382125 
L 381.321 344.845681 
L 389.412 344.17599 
L 397.503 343.994012 
L 405.594 343.507735 
L 413.685 343.168264 
L 421.776 342.978796 
L 429.867 342.924013 
L 437.958 342.870922 
L 446.049 342.906086 
L 454.14 342.955538 
L 462.231 343.252086 
L 470.322 343.742298 
L 478.413 344.306116 
L 486.504 344.629848 
L 494.595 345.101286 
L 502.686 345.834202 
L 510.777 346.712102 
L 518.868 347.543049 
L 526.959 348.464089 
L 535.05 349.586395 
L 543.141 350.645302 
L 551.232 351.556344 
L 559.323 352.672733 
L 567.414 353.845914 
L 575.505 355.193865 
L 583.596 356.49571 
L 591.687 357.736571 
L 599.778 359.117336 
L 607.869 360.340814 
L 615.96 361.722308 
L 624.051 363.189696 
L 632.142 364.560939 
L 640.233 365.959385 
L 648.324 367.529969 
L 656.415 369.022474 
L 664.506 370.428687 
L 672.597 371.922776 
L 680.688 373.496322 
L 688.779 375.117154 
L 696.87 376.686367 
L 704.961 378.512612 
L 713.052 379.851196 
L 721.143 381.213294 
L 729.234 382.888469 
L 737.325 384.589172 
L 745.416 386.092443 
L 753.507 387.783448 
L 761.598 389.213461 
L 769.689 390.162444 
L 777.78 391.563256 
L 785.871 392.527394 
L 793.962 393.640033 
L 802.053 394.544779 
L 810.144 395.441979 
L 818.235 396.714632 
L 826.326 397.94194 
L 834.417 399.225882 
L 842.508 400.949224 
L 850.599 402.836142 
L 858.69 404.628706 
L 866.781 406.813198 
L 874.872 409.789251 
L 882.963 413.287819 
L 891.054 416.145605 
L 899.145 417.418701 
L 907.236 416.949385 
L 915.327 414.930993 
L 923.418 413.243258 
L 931.509 417.778708 
" style="fill:none;stroke:#32b3f7;stroke-linecap:square;stroke-width:2;"/>
   </g>
   <g id="patch_3">
    <path d="M 130.5 468.288 
L 130.5 113.472 
" style="fill:none;stroke:#000000;stroke-linecap:square;stroke-linejoin:miter;stroke-width:0.8;"/>
   </g>
   <g id="patch_4">
    <path d="M 939.6 468.288 
L 939.6 113.472 
" style="fill:none;stroke:#000000;stroke-linecap:square;stroke-linejoin:miter;stroke-width:0.8;"/>
   </g>
   <g id="patch_5">
    <path d="M 130.5 468.288 
L 939.6 468.288 
" style="fill:none;stroke:#000000;stroke-linecap:square;stroke-linejoin:miter;stroke-width:0.8;"/>
   </g>
   <g id="patch_6">
    <path d="M 130.5 113.472 
L 939.6 113.472 
" style="fill:none;stroke:#000000;stroke-linecap:square;stroke-linejoin:miter;stroke-width:0.8;"/>
   </g>
   <g id="text_15">
    <!-- R2 -->
    <defs>
     <path d="M 44.390625 34.1875 
Q 47.5625 33.109375 50.5625 29.59375 
Q 53.5625 26.078125 56.59375 19.921875 
L 66.609375 0 
L 56 0 
L 46.6875 18.703125 
Q 43.0625 26.03125 39.671875 28.421875 
Q 36.28125 30.8125 30.421875 30.8125 
L 19.671875 30.8125 
L 19.671875 0 
L 9.8125 0 
L 9.8125 72.90625 
L 32.078125 72.90625 
Q 44.578125 72.90625 50.734375 67.671875 
Q 56.890625 62.453125 56.890625 51.90625 
Q 56.890625 45.015625 53.6875 40.46875 
Q 50.484375 35.9375 44.390625 34.1875 
z
M 19.671875 64.796875 
L 19.671875 38.921875 
L 32.078125 38.921875 
Q 39.203125 38.921875 42.84375 42.21875 
Q 46.484375 45.515625 46.484375 51.90625 
Q 46.484375 58.296875 42.84375 61.546875 
Q 39.203125 64.796875 32.078125 64.796875 
z
" id="DejaVuSans-82"/>
    </defs>
    <g transform="translate(527.063437 107.472)scale(0.12 -0.12)">
     <use xlink:href="#DejaVuSans-82"/>
     <use x="69.482422" xlink:href="#DejaVuSans-50"/>
    </g>
   </g>
   <g id="legend_1">
    <g id="patch_7">
     <path d="M 152.324219 640.696 
L 917.775781 640.696 
Q 919.775781 640.696 919.775781 638.696 
L 919.775781 595.661625 
Q 919.775781 593.661625 917.775781 593.661625 
L 152.324219 593.661625 
Q 150.324219 593.661625 150.324219 595.661625 
L 150.324219 638.696 
Q 150.324219 640.696 152.324219 640.696 
z
" style="fill:#ffffff;opacity:0.8;stroke:#cccccc;stroke-linejoin:miter;"/>
    </g>
    <g id="line2d_27">
     <path style="fill:none;stroke:#f18670;stroke-linecap:square;stroke-width:2;"/>
    </g>
    <g id="line2d_28"/>
    <g id="text_16">
     <!-- IWR demand mutliplier -->
     <defs>
      <path d="M 9.8125 72.90625 
L 19.671875 72.90625 
L 19.671875 0 
L 9.8125 0 
z
" id="DejaVuSans-73"/>
      <path d="M 3.328125 72.90625 
L 13.28125 72.90625 
L 28.609375 11.28125 
L 43.890625 72.90625 
L 54.984375 72.90625 
L 70.3125 11.28125 
L 85.59375 72.90625 
L 95.609375 72.90625 
L 77.296875 0 
L 64.890625 0 
L 49.515625 63.28125 
L 33.984375 0 
L 21.578125 0 
z
" id="DejaVuSans-87"/>
     </defs>
     <g transform="translate(182.324219 605.260063)scale(0.1 -0.1)">
      <use xlink:href="#DejaVuSans-73"/>
      <use x="29.492188" xlink:href="#DejaVuSans-87"/>
      <use x="128.369141" xlink:href="#DejaVuSans-82"/>
      <use x="197.851562" xlink:href="#DejaVuSans-32"/>
      <use x="229.638672" xlink:href="#DejaVuSans-100"/>
      <use x="293.115234" xlink:href="#DejaVuSans-101"/>
      <use x="354.638672" xlink:href="#DejaVuSans-109"/>
      <use x="452.050781" xlink:href="#DejaVuSans-97"/>
      <use x="513.330078" xlink:href="#DejaVuSans-110"/>
      <use x="576.708984" xlink:href="#DejaVuSans-100"/>
      <use x="640.185547" xlink:href="#DejaVuSans-32"/>
      <use x="671.972656" xlink:href="#DejaVuSans-109"/>
      <use x="769.384766" xlink:href="#DejaVuSans-117"/>
      <use x="832.763672" xlink:href="#DejaVuSans-116"/>
      <use x="871.972656" xlink:href="#DejaVuSans-108"/>
      <use x="899.755859" xlink:href="#DejaVuSans-105"/>
      <use x="927.539062" xlink:href="#DejaVuSans-112"/>
      <use x="991.015625" xlink:href="#DejaVuSans-108"/>
      <use x="1018.798828" xlink:href="#DejaVuSans-105"/>
      <use x="1046.582031" xlink:href="#DejaVuSans-101"/>
      <use x="1108.105469" xlink:href="#DejaVuSans-114"/>
     </g>
    </g>
    <g id="line2d_29">
     <path style="fill:none;stroke:#e24d3f;stroke-linecap:square;stroke-width:2;"/>
    </g>
    <g id="line2d_30"/>
    <g id="text_17">
     <!-- Reservoir loss -->
     <defs>
      <path d="M 44.28125 53.078125 
L 44.28125 44.578125 
Q 40.484375 46.53125 36.375 47.5 
Q 32.28125 48.484375 27.875 48.484375 
Q 21.1875 48.484375 17.84375 46.4375 
Q 14.5 44.390625 14.5 40.28125 
Q 14.5 37.15625 16.890625 35.375 
Q 19.28125 33.59375 26.515625 31.984375 
L 29.59375 31.296875 
Q 39.15625 29.25 43.1875 25.515625 
Q 47.21875 21.78125 47.21875 15.09375 
Q 47.21875 7.46875 41.1875 3.015625 
Q 35.15625 -1.421875 24.609375 -1.421875 
Q 20.21875 -1.421875 15.453125 -0.5625 
Q 10.6875 0.296875 5.421875 2 
L 5.421875 11.28125 
Q 10.40625 8.6875 15.234375 7.390625 
Q 20.0625 6.109375 24.8125 6.109375 
Q 31.15625 6.109375 34.5625 8.28125 
Q 37.984375 10.453125 37.984375 14.40625 
Q 37.984375 18.0625 35.515625 20.015625 
Q 33.0625 21.96875 24.703125 23.78125 
L 21.578125 24.515625 
Q 13.234375 26.265625 9.515625 29.90625 
Q 5.8125 33.546875 5.8125 39.890625 
Q 5.8125 47.609375 11.28125 51.796875 
Q 16.75 56 26.8125 56 
Q 31.78125 56 36.171875 55.265625 
Q 40.578125 54.546875 44.28125 53.078125 
z
" id="DejaVuSans-115"/>
      <path d="M 2.984375 54.6875 
L 12.5 54.6875 
L 29.59375 8.796875 
L 46.6875 54.6875 
L 56.203125 54.6875 
L 35.6875 0 
L 23.484375 0 
z
" id="DejaVuSans-118"/>
     </defs>
     <g transform="translate(182.324219 619.938188)scale(0.1 -0.1)">
      <use xlink:href="#DejaVuSans-82"/>
      <use x="69.419922" xlink:href="#DejaVuSans-101"/>
      <use x="130.943359" xlink:href="#DejaVuSans-115"/>
      <use x="183.042969" xlink:href="#DejaVuSans-101"/>
      <use x="244.566406" xlink:href="#DejaVuSans-114"/>
      <use x="285.679688" xlink:href="#DejaVuSans-118"/>
      <use x="344.859375" xlink:href="#DejaVuSans-111"/>
      <use x="406.041016" xlink:href="#DejaVuSans-105"/>
      <use x="433.824219" xlink:href="#DejaVuSans-114"/>
      <use x="474.9375" xlink:href="#DejaVuSans-32"/>
      <use x="506.724609" xlink:href="#DejaVuSans-108"/>
      <use x="534.507812" xlink:href="#DejaVuSans-111"/>
      <use x="595.689453" xlink:href="#DejaVuSans-115"/>
      <use x="647.789062" xlink:href="#DejaVuSans-115"/>
     </g>
    </g>
    <g id="line2d_31">
     <path style="fill:none;stroke:#cf233e;stroke-linecap:square;stroke-width:2;"/>
    </g>
    <g id="line2d_32"/>
    <g id="text_18">
     <!-- TBD demand multiplier -->
     <defs>
      <path d="M -0.296875 72.90625 
L 61.375 72.90625 
L 61.375 64.59375 
L 35.5 64.59375 
L 35.5 0 
L 25.59375 0 
L 25.59375 64.59375 
L -0.296875 64.59375 
z
" id="DejaVuSans-84"/>
      <path d="M 19.671875 34.8125 
L 19.671875 8.109375 
L 35.5 8.109375 
Q 43.453125 8.109375 47.28125 11.40625 
Q 51.125 14.703125 51.125 21.484375 
Q 51.125 28.328125 47.28125 31.5625 
Q 43.453125 34.8125 35.5 34.8125 
z
M 19.671875 64.796875 
L 19.671875 42.828125 
L 34.28125 42.828125 
Q 41.5 42.828125 45.03125 45.53125 
Q 48.578125 48.25 48.578125 53.8125 
Q 48.578125 59.328125 45.03125 62.0625 
Q 41.5 64.796875 34.28125 64.796875 
z
M 9.8125 72.90625 
L 35.015625 72.90625 
Q 46.296875 72.90625 52.390625 68.21875 
Q 58.5 63.53125 58.5 54.890625 
Q 58.5 48.1875 55.375 44.234375 
Q 52.25 40.28125 46.1875 39.3125 
Q 53.46875 37.75 57.5 32.78125 
Q 61.53125 27.828125 61.53125 20.40625 
Q 61.53125 10.640625 54.890625 5.3125 
Q 48.25 0 35.984375 0 
L 9.8125 0 
z
" id="DejaVuSans-66"/>
      <path d="M 19.671875 64.796875 
L 19.671875 8.109375 
L 31.59375 8.109375 
Q 46.6875 8.109375 53.6875 14.9375 
Q 60.6875 21.78125 60.6875 36.53125 
Q 60.6875 51.171875 53.6875 57.984375 
Q 46.6875 64.796875 31.59375 64.796875 
z
M 9.8125 72.90625 
L 30.078125 72.90625 
Q 51.265625 72.90625 61.171875 64.09375 
Q 71.09375 55.28125 71.09375 36.53125 
Q 71.09375 17.671875 61.125 8.828125 
Q 51.171875 0 30.078125 0 
L 9.8125 0 
z
" id="DejaVuSans-68"/>
     </defs>
     <g transform="translate(182.324219 634.616313)scale(0.1 -0.1)">
      <use xlink:href="#DejaVuSans-84"/>
      <use x="61.083984" xlink:href="#DejaVuSans-66"/>
      <use x="129.6875" xlink:href="#DejaVuSans-68"/>
      <use x="206.689453" xlink:href="#DejaVuSans-32"/>
      <use x="238.476562" xlink:href="#DejaVuSans-100"/>
      <use x="301.953125" xlink:href="#DejaVuSans-101"/>
      <use x="363.476562" xlink:href="#DejaVuSans-109"/>
      <use x="460.888672" xlink:href="#DejaVuSans-97"/>
      <use x="522.167969" xlink:href="#DejaVuSans-110"/>
      <use x="585.546875" xlink:href="#DejaVuSans-100"/>
      <use x="649.023438" xlink:href="#DejaVuSans-32"/>
      <use x="680.810547" xlink:href="#DejaVuSans-109"/>
      <use x="778.222656" xlink:href="#DejaVuSans-117"/>
      <use x="841.601562" xlink:href="#DejaVuSans-108"/>
      <use x="869.384766" xlink:href="#DejaVuSans-116"/>
      <use x="908.59375" xlink:href="#DejaVuSans-105"/>
      <use x="936.376953" xlink:href="#DejaVuSans-112"/>
      <use x="999.853516" xlink:href="#DejaVuSans-108"/>
      <use x="1027.636719" xlink:href="#DejaVuSans-105"/>
      <use x="1055.419922" xlink:href="#DejaVuSans-101"/>
      <use x="1116.943359" xlink:href="#DejaVuSans-114"/>
     </g>
    </g>
    <g id="line2d_33">
     <path style="fill:none;stroke:#681e33;stroke-linecap:square;stroke-width:2;"/>
    </g>
    <g id="line2d_34"/>
    <g id="text_19">
     <!-- M&amp;I demand multiplier -->
     <defs>
      <path d="M 9.8125 72.90625 
L 24.515625 72.90625 
L 43.109375 23.296875 
L 61.8125 72.90625 
L 76.515625 72.90625 
L 76.515625 0 
L 66.890625 0 
L 66.890625 64.015625 
L 48.09375 14.015625 
L 38.1875 14.015625 
L 19.390625 64.015625 
L 19.390625 0 
L 9.8125 0 
z
" id="DejaVuSans-77"/>
      <path d="M 24.3125 39.203125 
Q 19.875 35.25 17.796875 31.3125 
Q 15.71875 27.390625 15.71875 23.09375 
Q 15.71875 15.96875 20.890625 11.234375 
Q 26.078125 6.5 33.890625 6.5 
Q 38.53125 6.5 42.578125 8.03125 
Q 46.625 9.578125 50.203125 12.703125 
z
M 31.203125 44.671875 
L 56 19.28125 
Q 58.890625 23.640625 60.5 28.59375 
Q 62.109375 33.546875 62.40625 39.109375 
L 71.484375 39.109375 
Q 70.90625 32.671875 68.359375 26.359375 
Q 65.828125 20.0625 61.28125 13.921875 
L 74.90625 0 
L 62.59375 0 
L 55.609375 7.171875 
Q 50.53125 2.828125 44.96875 0.703125 
Q 39.40625 -1.421875 33.015625 -1.421875 
Q 21.234375 -1.421875 13.765625 5.296875 
Q 6.296875 12.015625 6.296875 22.515625 
Q 6.296875 28.765625 9.5625 34.25 
Q 12.84375 39.75 19.390625 44.578125 
Q 17.046875 47.65625 15.8125 50.703125 
Q 14.59375 53.765625 14.59375 56.6875 
Q 14.59375 64.59375 20.015625 69.40625 
Q 25.4375 74.21875 34.421875 74.21875 
Q 38.484375 74.21875 42.5 73.34375 
Q 46.53125 72.46875 50.6875 70.703125 
L 50.6875 61.8125 
Q 46.4375 64.109375 42.578125 65.296875 
Q 38.71875 66.5 35.40625 66.5 
Q 30.28125 66.5 27.078125 63.78125 
Q 23.875 61.078125 23.875 56.78125 
Q 23.875 54.296875 25.3125 51.78125 
Q 26.765625 49.265625 31.203125 44.671875 
z
" id="DejaVuSans-38"/>
     </defs>
     <g transform="translate(346.128906 605.260063)scale(0.1 -0.1)">
      <use xlink:href="#DejaVuSans-77"/>
      <use x="86.279297" xlink:href="#DejaVuSans-38"/>
      <use x="164.257812" xlink:href="#DejaVuSans-73"/>
      <use x="193.75" xlink:href="#DejaVuSans-32"/>
      <use x="225.537109" xlink:href="#DejaVuSans-100"/>
      <use x="289.013672" xlink:href="#DejaVuSans-101"/>
      <use x="350.537109" xlink:href="#DejaVuSans-109"/>
      <use x="447.949219" xlink:href="#DejaVuSans-97"/>
      <use x="509.228516" xlink:href="#DejaVuSans-110"/>
      <use x="572.607422" xlink:href="#DejaVuSans-100"/>
      <use x="636.083984" xlink:href="#DejaVuSans-32"/>
      <use x="667.871094" xlink:href="#DejaVuSans-109"/>
      <use x="765.283203" xlink:href="#DejaVuSans-117"/>
      <use x="828.662109" xlink:href="#DejaVuSans-108"/>
      <use x="856.445312" xlink:href="#DejaVuSans-116"/>
      <use x="895.654297" xlink:href="#DejaVuSans-105"/>
      <use x="923.4375" xlink:href="#DejaVuSans-112"/>
      <use x="986.914062" xlink:href="#DejaVuSans-108"/>
      <use x="1014.697266" xlink:href="#DejaVuSans-105"/>
      <use x="1042.480469" xlink:href="#DejaVuSans-101"/>
      <use x="1104.003906" xlink:href="#DejaVuSans-114"/>
     </g>
    </g>
    <g id="line2d_35">
     <path style="fill:none;stroke:#676572;stroke-linecap:square;stroke-width:2;"/>
    </g>
    <g id="line2d_36"/>
    <g id="text_20">
     <!-- Shoshone active -->
     <g transform="translate(346.128906 619.938188)scale(0.1 -0.1)">
      <use xlink:href="#DejaVuSans-83"/>
      <use x="63.476562" xlink:href="#DejaVuSans-104"/>
      <use x="126.855469" xlink:href="#DejaVuSans-111"/>
      <use x="188.037109" xlink:href="#DejaVuSans-115"/>
      <use x="240.136719" xlink:href="#DejaVuSans-104"/>
      <use x="303.515625" xlink:href="#DejaVuSans-111"/>
      <use x="364.697266" xlink:href="#DejaVuSans-110"/>
      <use x="428.076172" xlink:href="#DejaVuSans-101"/>
      <use x="489.599609" xlink:href="#DejaVuSans-32"/>
      <use x="521.386719" xlink:href="#DejaVuSans-97"/>
      <use x="582.666016" xlink:href="#DejaVuSans-99"/>
      <use x="637.646484" xlink:href="#DejaVuSans-116"/>
      <use x="676.855469" xlink:href="#DejaVuSans-105"/>
      <use x="704.638672" xlink:href="#DejaVuSans-118"/>
      <use x="763.818359" xlink:href="#DejaVuSans-101"/>
     </g>
    </g>
    <g id="line2d_37">
     <path style="fill:none;stroke:#f3be22;stroke-linecap:square;stroke-width:2;"/>
    </g>
    <g id="line2d_38"/>
    <g id="text_21">
     <!-- Env. flow senior right -->
     <defs>
      <path d="M 9.8125 72.90625 
L 55.90625 72.90625 
L 55.90625 64.59375 
L 19.671875 64.59375 
L 19.671875 43.015625 
L 54.390625 43.015625 
L 54.390625 34.71875 
L 19.671875 34.71875 
L 19.671875 8.296875 
L 56.78125 8.296875 
L 56.78125 0 
L 9.8125 0 
z
" id="DejaVuSans-69"/>
      <path d="M 37.109375 75.984375 
L 37.109375 68.5 
L 28.515625 68.5 
Q 23.6875 68.5 21.796875 66.546875 
Q 19.921875 64.59375 19.921875 59.515625 
L 19.921875 54.6875 
L 34.71875 54.6875 
L 34.71875 47.703125 
L 19.921875 47.703125 
L 19.921875 0 
L 10.890625 0 
L 10.890625 47.703125 
L 2.296875 47.703125 
L 2.296875 54.6875 
L 10.890625 54.6875 
L 10.890625 58.5 
Q 10.890625 67.625 15.140625 71.796875 
Q 19.390625 75.984375 28.609375 75.984375 
z
" id="DejaVuSans-102"/>
      <path d="M 4.203125 54.6875 
L 13.1875 54.6875 
L 24.421875 12.015625 
L 35.59375 54.6875 
L 46.1875 54.6875 
L 57.421875 12.015625 
L 68.609375 54.6875 
L 77.59375 54.6875 
L 63.28125 0 
L 52.6875 0 
L 40.921875 44.828125 
L 29.109375 0 
L 18.5 0 
z
" id="DejaVuSans-119"/>
     </defs>
     <g transform="translate(346.128906 634.616313)scale(0.1 -0.1)">
      <use xlink:href="#DejaVuSans-69"/>
      <use x="63.183594" xlink:href="#DejaVuSans-110"/>
      <use x="126.5625" xlink:href="#DejaVuSans-118"/>
      <use x="185.632812" xlink:href="#DejaVuSans-46"/>
      <use x="217.419922" xlink:href="#DejaVuSans-32"/>
      <use x="249.207031" xlink:href="#DejaVuSans-102"/>
      <use x="284.412109" xlink:href="#DejaVuSans-108"/>
      <use x="312.195312" xlink:href="#DejaVuSans-111"/>
      <use x="373.376953" xlink:href="#DejaVuSans-119"/>
      <use x="455.164062" xlink:href="#DejaVuSans-32"/>
      <use x="486.951172" xlink:href="#DejaVuSans-115"/>
      <use x="539.050781" xlink:href="#DejaVuSans-101"/>
      <use x="600.574219" xlink:href="#DejaVuSans-110"/>
      <use x="663.953125" xlink:href="#DejaVuSans-105"/>
      <use x="691.736328" xlink:href="#DejaVuSans-111"/>
      <use x="752.917969" xlink:href="#DejaVuSans-114"/>
      <use x="794.03125" xlink:href="#DejaVuSans-32"/>
      <use x="825.818359" xlink:href="#DejaVuSans-114"/>
      <use x="866.931641" xlink:href="#DejaVuSans-105"/>
      <use x="894.714844" xlink:href="#DejaVuSans-103"/>
      <use x="958.191406" xlink:href="#DejaVuSans-104"/>
      <use x="1021.570312" xlink:href="#DejaVuSans-116"/>
     </g>
    </g>
    <g id="line2d_39">
     <path style="fill:none;stroke:#59deba;stroke-linecap:square;stroke-width:2;"/>
    </g>
    <g id="line2d_40"/>
    <g id="text_22">
     <!-- Evaporation delta -->
     <g transform="translate(508.641406 605.260063)scale(0.1 -0.1)">
      <use xlink:href="#DejaVuSans-69"/>
      <use x="63.183594" xlink:href="#DejaVuSans-118"/>
      <use x="122.363281" xlink:href="#DejaVuSans-97"/>
      <use x="183.642578" xlink:href="#DejaVuSans-112"/>
      <use x="247.119141" xlink:href="#DejaVuSans-111"/>
      <use x="308.300781" xlink:href="#DejaVuSans-114"/>
      <use x="349.414062" xlink:href="#DejaVuSans-97"/>
      <use x="410.693359" xlink:href="#DejaVuSans-116"/>
      <use x="449.902344" xlink:href="#DejaVuSans-105"/>
      <use x="477.685547" xlink:href="#DejaVuSans-111"/>
      <use x="538.867188" xlink:href="#DejaVuSans-110"/>
      <use x="602.246094" xlink:href="#DejaVuSans-32"/>
      <use x="634.033203" xlink:href="#DejaVuSans-100"/>
      <use x="697.509766" xlink:href="#DejaVuSans-101"/>
      <use x="759.033203" xlink:href="#DejaVuSans-108"/>
      <use x="786.816406" xlink:href="#DejaVuSans-116"/>
      <use x="826.025391" xlink:href="#DejaVuSans-97"/>
     </g>
    </g>
    <g id="line2d_41">
     <path style="fill:none;stroke:#14015c;stroke-linecap:square;stroke-width:2;"/>
    </g>
    <g id="line2d_42"/>
    <g id="text_23">
     <!-- Dry state mu -->
     <defs>
      <path d="M 32.171875 -5.078125 
Q 28.375 -14.84375 24.75 -17.8125 
Q 21.140625 -20.796875 15.09375 -20.796875 
L 7.90625 -20.796875 
L 7.90625 -13.28125 
L 13.1875 -13.28125 
Q 16.890625 -13.28125 18.9375 -11.515625 
Q 21 -9.765625 23.484375 -3.21875 
L 25.09375 0.875 
L 2.984375 54.6875 
L 12.5 54.6875 
L 29.59375 11.921875 
L 46.6875 54.6875 
L 56.203125 54.6875 
z
" id="DejaVuSans-121"/>
     </defs>
     <g transform="translate(508.641406 619.938188)scale(0.1 -0.1)">
      <use xlink:href="#DejaVuSans-68"/>
      <use x="77.001953" xlink:href="#DejaVuSans-114"/>
      <use x="118.115234" xlink:href="#DejaVuSans-121"/>
      <use x="177.294922" xlink:href="#DejaVuSans-32"/>
      <use x="209.082031" xlink:href="#DejaVuSans-115"/>
      <use x="261.181641" xlink:href="#DejaVuSans-116"/>
      <use x="300.390625" xlink:href="#DejaVuSans-97"/>
      <use x="361.669922" xlink:href="#DejaVuSans-116"/>
      <use x="400.878906" xlink:href="#DejaVuSans-101"/>
      <use x="462.402344" xlink:href="#DejaVuSans-32"/>
      <use x="494.189453" xlink:href="#DejaVuSans-109"/>
      <use x="591.601562" xlink:href="#DejaVuSans-117"/>
     </g>
    </g>
    <g id="line2d_43">
     <path style="fill:none;stroke:#daf8a3;stroke-linecap:square;stroke-width:2;"/>
    </g>
    <g id="line2d_44"/>
    <g id="text_24">
     <!-- Dry state sigma -->
     <g transform="translate(508.641406 634.616313)scale(0.1 -0.1)">
      <use xlink:href="#DejaVuSans-68"/>
      <use x="77.001953" xlink:href="#DejaVuSans-114"/>
      <use x="118.115234" xlink:href="#DejaVuSans-121"/>
      <use x="177.294922" xlink:href="#DejaVuSans-32"/>
      <use x="209.082031" xlink:href="#DejaVuSans-115"/>
      <use x="261.181641" xlink:href="#DejaVuSans-116"/>
      <use x="300.390625" xlink:href="#DejaVuSans-97"/>
      <use x="361.669922" xlink:href="#DejaVuSans-116"/>
      <use x="400.878906" xlink:href="#DejaVuSans-101"/>
      <use x="462.402344" xlink:href="#DejaVuSans-32"/>
      <use x="494.189453" xlink:href="#DejaVuSans-115"/>
      <use x="546.289062" xlink:href="#DejaVuSans-105"/>
      <use x="574.072266" xlink:href="#DejaVuSans-103"/>
      <use x="637.548828" xlink:href="#DejaVuSans-109"/>
      <use x="734.960938" xlink:href="#DejaVuSans-97"/>
     </g>
    </g>
    <g id="line2d_45">
     <path style="fill:none;stroke:#0b7a0a;stroke-linecap:square;stroke-width:2;"/>
    </g>
    <g id="line2d_46"/>
    <g id="text_25">
     <!-- Wet state mu -->
     <g transform="translate(645.374219 605.260063)scale(0.1 -0.1)">
      <use xlink:href="#DejaVuSans-87"/>
      <use x="98.798828" xlink:href="#DejaVuSans-101"/>
      <use x="160.322266" xlink:href="#DejaVuSans-116"/>
      <use x="199.53125" xlink:href="#DejaVuSans-32"/>
      <use x="231.318359" xlink:href="#DejaVuSans-115"/>
      <use x="283.417969" xlink:href="#DejaVuSans-116"/>
      <use x="322.626953" xlink:href="#DejaVuSans-97"/>
      <use x="383.90625" xlink:href="#DejaVuSans-116"/>
      <use x="423.115234" xlink:href="#DejaVuSans-101"/>
      <use x="484.638672" xlink:href="#DejaVuSans-32"/>
      <use x="516.425781" xlink:href="#DejaVuSans-109"/>
      <use x="613.837891" xlink:href="#DejaVuSans-117"/>
     </g>
    </g>
    <g id="line2d_47">
     <path style="fill:none;stroke:#f8ffa2;stroke-linecap:square;stroke-width:2;"/>
    </g>
    <g id="line2d_48"/>
    <g id="text_26">
     <!-- Wet state sigma -->
     <g transform="translate(645.374219 619.938188)scale(0.1 -0.1)">
      <use xlink:href="#DejaVuSans-87"/>
      <use x="98.798828" xlink:href="#DejaVuSans-101"/>
      <use x="160.322266" xlink:href="#DejaVuSans-116"/>
      <use x="199.53125" xlink:href="#DejaVuSans-32"/>
      <use x="231.318359" xlink:href="#DejaVuSans-115"/>
      <use x="283.417969" xlink:href="#DejaVuSans-116"/>
      <use x="322.626953" xlink:href="#DejaVuSans-97"/>
      <use x="383.90625" xlink:href="#DejaVuSans-116"/>
      <use x="423.115234" xlink:href="#DejaVuSans-101"/>
      <use x="484.638672" xlink:href="#DejaVuSans-32"/>
      <use x="516.425781" xlink:href="#DejaVuSans-115"/>
      <use x="568.525391" xlink:href="#DejaVuSans-105"/>
      <use x="596.308594" xlink:href="#DejaVuSans-103"/>
      <use x="659.785156" xlink:href="#DejaVuSans-109"/>
      <use x="757.197266" xlink:href="#DejaVuSans-97"/>
     </g>
    </g>
    <g id="line2d_49">
     <path style="fill:none;stroke:#578dc0;stroke-linecap:square;stroke-width:2;"/>
    </g>
    <g id="line2d_50"/>
    <g id="text_27">
     <!-- Dry-to-dry state prob. -->
     <defs>
      <path d="M 4.890625 31.390625 
L 31.203125 31.390625 
L 31.203125 23.390625 
L 4.890625 23.390625 
z
" id="DejaVuSans-45"/>
      <path d="M 48.6875 27.296875 
Q 48.6875 37.203125 44.609375 42.84375 
Q 40.53125 48.484375 33.40625 48.484375 
Q 26.265625 48.484375 22.1875 42.84375 
Q 18.109375 37.203125 18.109375 27.296875 
Q 18.109375 17.390625 22.1875 11.75 
Q 26.265625 6.109375 33.40625 6.109375 
Q 40.53125 6.109375 44.609375 11.75 
Q 48.6875 17.390625 48.6875 27.296875 
z
M 18.109375 46.390625 
Q 20.953125 51.265625 25.265625 53.625 
Q 29.59375 56 35.59375 56 
Q 45.5625 56 51.78125 48.09375 
Q 58.015625 40.1875 58.015625 27.296875 
Q 58.015625 14.40625 51.78125 6.484375 
Q 45.5625 -1.421875 35.59375 -1.421875 
Q 29.59375 -1.421875 25.265625 0.953125 
Q 20.953125 3.328125 18.109375 8.203125 
L 18.109375 0 
L 9.078125 0 
L 9.078125 75.984375 
L 18.109375 75.984375 
z
" id="DejaVuSans-98"/>
     </defs>
     <g transform="translate(645.374219 634.616313)scale(0.1 -0.1)">
      <use xlink:href="#DejaVuSans-68"/>
      <use x="77.001953" xlink:href="#DejaVuSans-114"/>
      <use x="118.115234" xlink:href="#DejaVuSans-121"/>
      <use x="177.279297" xlink:href="#DejaVuSans-45"/>
      <use x="213.363281" xlink:href="#DejaVuSans-116"/>
      <use x="252.572266" xlink:href="#DejaVuSans-111"/>
      <use x="313.769531" xlink:href="#DejaVuSans-45"/>
      <use x="349.853516" xlink:href="#DejaVuSans-100"/>
      <use x="413.330078" xlink:href="#DejaVuSans-114"/>
      <use x="454.443359" xlink:href="#DejaVuSans-121"/>
      <use x="513.623047" xlink:href="#DejaVuSans-32"/>
      <use x="545.410156" xlink:href="#DejaVuSans-115"/>
      <use x="597.509766" xlink:href="#DejaVuSans-116"/>
      <use x="636.71875" xlink:href="#DejaVuSans-97"/>
      <use x="697.998047" xlink:href="#DejaVuSans-116"/>
      <use x="737.207031" xlink:href="#DejaVuSans-101"/>
      <use x="798.730469" xlink:href="#DejaVuSans-32"/>
      <use x="830.517578" xlink:href="#DejaVuSans-112"/>
      <use x="893.994141" xlink:href="#DejaVuSans-114"/>
      <use x="935.076172" xlink:href="#DejaVuSans-111"/>
      <use x="996.257812" xlink:href="#DejaVuSans-98"/>
      <use x="1059.734375" xlink:href="#DejaVuSans-46"/>
     </g>
    </g>
    <g id="line2d_51">
     <path style="fill:none;stroke:#4e4ad8;stroke-linecap:square;stroke-width:2;"/>
    </g>
    <g id="line2d_52"/>
    <g id="text_28">
     <!-- Wet-to-wet state prob. -->
     <g transform="translate(802.525781 605.260063)scale(0.1 -0.1)">
      <use xlink:href="#DejaVuSans-87"/>
      <use x="98.798828" xlink:href="#DejaVuSans-101"/>
      <use x="160.322266" xlink:href="#DejaVuSans-116"/>
      <use x="199.53125" xlink:href="#DejaVuSans-45"/>
      <use x="235.615234" xlink:href="#DejaVuSans-116"/>
      <use x="274.824219" xlink:href="#DejaVuSans-111"/>
      <use x="336.021484" xlink:href="#DejaVuSans-45"/>
      <use x="372.105469" xlink:href="#DejaVuSans-119"/>
      <use x="453.892578" xlink:href="#DejaVuSans-101"/>
      <use x="515.416016" xlink:href="#DejaVuSans-116"/>
      <use x="554.625" xlink:href="#DejaVuSans-32"/>
      <use x="586.412109" xlink:href="#DejaVuSans-115"/>
      <use x="638.511719" xlink:href="#DejaVuSans-116"/>
      <use x="677.720703" xlink:href="#DejaVuSans-97"/>
      <use x="739" xlink:href="#DejaVuSans-116"/>
      <use x="778.208984" xlink:href="#DejaVuSans-101"/>
      <use x="839.732422" xlink:href="#DejaVuSans-32"/>
      <use x="871.519531" xlink:href="#DejaVuSans-112"/>
      <use x="934.996094" xlink:href="#DejaVuSans-114"/>
      <use x="976.078125" xlink:href="#DejaVuSans-111"/>
      <use x="1037.259766" xlink:href="#DejaVuSans-98"/>
      <use x="1100.736328" xlink:href="#DejaVuSans-46"/>
     </g>
    </g>
    <g id="line2d_53">
     <path style="fill:none;stroke:#32b3f7;stroke-linecap:square;stroke-width:2;"/>
    </g>
    <g id="line2d_54"/>
    <g id="text_29">
     <!-- Earlier snowmelt -->
     <g transform="translate(802.525781 619.938188)scale(0.1 -0.1)">
      <use xlink:href="#DejaVuSans-69"/>
      <use x="63.183594" xlink:href="#DejaVuSans-97"/>
      <use x="124.462891" xlink:href="#DejaVuSans-114"/>
      <use x="165.576172" xlink:href="#DejaVuSans-108"/>
      <use x="193.359375" xlink:href="#DejaVuSans-105"/>
      <use x="221.142578" xlink:href="#DejaVuSans-101"/>
      <use x="282.666016" xlink:href="#DejaVuSans-114"/>
      <use x="323.779297" xlink:href="#DejaVuSans-32"/>
      <use x="355.566406" xlink:href="#DejaVuSans-115"/>
      <use x="407.666016" xlink:href="#DejaVuSans-110"/>
      <use x="471.044922" xlink:href="#DejaVuSans-111"/>
      <use x="532.226562" xlink:href="#DejaVuSans-119"/>
      <use x="614.013672" xlink:href="#DejaVuSans-109"/>
      <use x="711.425781" xlink:href="#DejaVuSans-101"/>
      <use x="772.949219" xlink:href="#DejaVuSans-108"/>
      <use x="800.732422" xlink:href="#DejaVuSans-116"/>
     </g>
    </g>
   </g>
  </g>
  <g id="text_30">
   <!-- Shortage magnitude sensitivity for 7000550 -->
   <defs>
    <path d="M 8.203125 72.90625 
L 55.078125 72.90625 
L 55.078125 68.703125 
L 28.609375 0 
L 18.3125 0 
L 43.21875 64.59375 
L 8.203125 64.59375 
z
" id="DejaVuSans-55"/>
    <path d="M 10.796875 72.90625 
L 49.515625 72.90625 
L 49.515625 64.59375 
L 19.828125 64.59375 
L 19.828125 46.734375 
Q 21.96875 47.46875 24.109375 47.828125 
Q 26.265625 48.1875 28.421875 48.1875 
Q 40.625 48.1875 47.75 41.5 
Q 54.890625 34.8125 54.890625 23.390625 
Q 54.890625 11.625 47.5625 5.09375 
Q 40.234375 -1.421875 26.90625 -1.421875 
Q 22.3125 -1.421875 17.546875 -0.640625 
Q 12.796875 0.140625 7.71875 1.703125 
L 7.71875 11.625 
Q 12.109375 9.234375 16.796875 8.0625 
Q 21.484375 6.890625 26.703125 6.890625 
Q 35.15625 6.890625 40.078125 11.328125 
Q 45.015625 15.765625 45.015625 23.390625 
Q 45.015625 31 40.078125 35.4375 
Q 35.15625 39.890625 26.703125 39.890625 
Q 22.75 39.890625 18.8125 39.015625 
Q 14.890625 38.140625 10.796875 36.28125 
z
" id="DejaVuSans-53"/>
   </defs>
   <g transform="translate(344.81625 23.6775)scale(0.16 -0.16)">
    <use xlink:href="#DejaVuSans-83"/>
    <use x="63.476562" xlink:href="#DejaVuSans-104"/>
    <use x="126.855469" xlink:href="#DejaVuSans-111"/>
    <use x="188.037109" xlink:href="#DejaVuSans-114"/>
    <use x="229.150391" xlink:href="#DejaVuSans-116"/>
    <use x="268.359375" xlink:href="#DejaVuSans-97"/>
    <use x="329.638672" xlink:href="#DejaVuSans-103"/>
    <use x="393.115234" xlink:href="#DejaVuSans-101"/>
    <use x="454.638672" xlink:href="#DejaVuSans-32"/>
    <use x="486.425781" xlink:href="#DejaVuSans-109"/>
    <use x="583.837891" xlink:href="#DejaVuSans-97"/>
    <use x="645.117188" xlink:href="#DejaVuSans-103"/>
    <use x="708.59375" xlink:href="#DejaVuSans-110"/>
    <use x="771.972656" xlink:href="#DejaVuSans-105"/>
    <use x="799.755859" xlink:href="#DejaVuSans-116"/>
    <use x="838.964844" xlink:href="#DejaVuSans-117"/>
    <use x="902.34375" xlink:href="#DejaVuSans-100"/>
    <use x="965.820312" xlink:href="#DejaVuSans-101"/>
    <use x="1027.34375" xlink:href="#DejaVuSans-32"/>
    <use x="1059.130859" xlink:href="#DejaVuSans-115"/>
    <use x="1111.230469" xlink:href="#DejaVuSans-101"/>
    <use x="1172.753906" xlink:href="#DejaVuSans-110"/>
    <use x="1236.132812" xlink:href="#DejaVuSans-115"/>
    <use x="1288.232422" xlink:href="#DejaVuSans-105"/>
    <use x="1316.015625" xlink:href="#DejaVuSans-116"/>
    <use x="1355.224609" xlink:href="#DejaVuSans-105"/>
    <use x="1383.007812" xlink:href="#DejaVuSans-118"/>
    <use x="1442.1875" xlink:href="#DejaVuSans-105"/>
    <use x="1469.970703" xlink:href="#DejaVuSans-116"/>
    <use x="1509.179688" xlink:href="#DejaVuSans-121"/>
    <use x="1568.359375" xlink:href="#DejaVuSans-32"/>
    <use x="1600.146484" xlink:href="#DejaVuSans-102"/>
    <use x="1635.351562" xlink:href="#DejaVuSans-111"/>
    <use x="1696.533203" xlink:href="#DejaVuSans-114"/>
    <use x="1737.646484" xlink:href="#DejaVuSans-32"/>
    <use x="1769.433594" xlink:href="#DejaVuSans-55"/>
    <use x="1833.056641" xlink:href="#DejaVuSans-48"/>
    <use x="1896.679688" xlink:href="#DejaVuSans-48"/>
    <use x="1960.302734" xlink:href="#DejaVuSans-48"/>
    <use x="2023.925781" xlink:href="#DejaVuSans-53"/>
    <use x="2087.548828" xlink:href="#DejaVuSans-53"/>
    <use x="2151.171875" xlink:href="#DejaVuSans-48"/>
   </g>
  </g>
 </g>
 <defs>
  <clipPath id="p2ff533506e">
   <rect height="354.816" width="809.1" x="130.5" y="113.472"/>
  </clipPath>
 </defs>
</svg>
