<?xml version="1.0" encoding="utf-8"?>
<!-- Generator: Adobe Illustrator 21.1.0, SVG Export Plug-In . SVG Version: 6.00 Build 0)  -->
<svg version="1.1" id="Layer_1" xmlns="http://www.w3.org/2000/svg" xmlns:xlink="http://www.w3.org/1999/xlink" x="0px" y="0px"
	 viewBox="0 0 1044 576" style="enable-background:new 0 0 1044 576;" xml:space="preserve">
<style type="text/css">
	.st0{fill:#FFFFFF;}
	.st1{clip-path:url(#SVGID_2_);fill:#F18670;}
	.st2{clip-path:url(#SVGID_4_);fill:#E24D3F;}
	.st3{clip-path:url(#SVGID_6_);fill:#CF233E;}
	.st4{clip-path:url(#SVGID_8_);fill:#681E33;}
	.st5{clip-path:url(#SVGID_10_);fill:#676572;}
	.st6{clip-path:url(#SVGID_12_);fill:#F3BE22;}
	.st7{clip-path:url(#SVGID_14_);fill:#59DEBA;}
	.st8{clip-path:url(#SVGID_16_);fill:#14015C;}
	.st9{clip-path:url(#SVGID_18_);fill:#DAF8A3;}
	.st10{clip-path:url(#SVGID_20_);fill:#0B7A0A;}
	.st11{clip-path:url(#SVGID_22_);fill:#F8FFA2;}
	.st12{clip-path:url(#SVGID_24_);fill:#578DC0;}
	.st13{clip-path:url(#SVGID_26_);fill:#4E4AD8;}
	.st14{clip-path:url(#SVGID_28_);fill:#32B3F7;}
	.st15{fill:none;stroke:#000000;stroke-width:0.8;stroke-linecap:square;}
</style>
<g id="patch_2">
	<path class="st0" d="M130.5,512.6h809.1V69.1H130.5V512.6z"/>
</g>
<g id="PolyCollection_1">
	<g>
		<defs>
			<rect id="SVGID_1_" x="130.5" y="69.1" width="809.1" height="443.5"/>
		</defs>
		<clipPath id="SVGID_2_">
			<use xlink:href="#SVGID_1_"  style="overflow:visible;"/>
		</clipPath>
		<path class="st1" d="M130.5,486.9v25.7h8.1h8.1h8.1h8.1h8.1h8.1h8.1h8.1h8.1h8.1h8.1h8.1h8.1h8.1h8.1h8.1h8.1h8.1h8.1h8.1h8.1h8.1
			h8.1h8.1h8.1h8.1h8.1h8.1h8.1h8.1h8.1h8.1h8.1h8.1h8.1h8.1h8.1h8.1h8.1h8.1h8.1h8.1h8.1h8.1h8.1h8.1h8.1h8.1h8.1h8.1h8.1h8.1h8.1
			h8.1h8.1h8.1h8.1h8.1h8.1h8.1h8.1h8.1h8.1h8.1h8.1h8.1h8.1h8.1h8.1h8.1h8.1h8.1h8.1h8.1h8.1h8.1h8.1h8.1h8.1h8.1h8.1h8.1h8.1h8.1
			h8.1h8.1h8.1h8.1h8.1h8.1h8.1h8.1h8.1h8.1h8.1h8.1h8.1h8.1h8.1v-63.9l0,0l-8.1-1.5l-8.1-5.7l-8.1-8.5l-8.1-6.8l-8.1-0.5L883,426
			l-8.1,4.8l-8.1,2.5l-8.1-3l-8.1,0.9l-8.1,0.5l-8.1,2.1l-8.1-3.1l-8.1,0.6l-8.1-2.7l-8.1,3.7l-8.1,0.6l-8.1,0.9l-8.1,0.2l-8.1,0.9
			l-8.1-3.8l-8.1,2.7l-8.1-0.7l-8.1,3.8l-8.1-0.8l-8.1,2.2l-8.1-0.7l-8.1,0.8l-8.1,2.6l-8.1,0.7l-8.1-1l-8.1,3.3l-8.1-0.4l-8.1,2.8
			l-8.1-0.8l-8.1,0l-8.1-2.1l-8.1,3.6l-8.1-2.4l-8.1-0.4l-8.1,0l-8.1,2.3l-8.1,2.4l-8.1-2.1l-8.1,0.9l-8.1-0.7l-8.1-1.9l-8.1,2.9
			l-8.1-0.8l-8.1-0.7l-8.1,1.2l-8.1,1.7l-8.1-0.7l-8.1,0.1l-8.1,1l-8.1-0.2l-8.1,3l-8.1-0.6l-8.1-2.3l-8.1,1.3l-8.1,2.3l-8.1-2.5
			l-8.1,0.8l-8.1,1.8l-8.1-0.8l-8.1,1.9l-8.1,0.4l-8.1,1l-8.1-0.3l-8.1-0.6l-8.1-0.5l-8.1,3l-8.1-1.2l-8.1-2.9l-8.1,0.9l-8.1,2.9
			l-8.1-0.9l-8.1,3.1l-8.1-1.9l-8.1,0.1l-8.1,0.5l-8.1,1.3l-8.1,0.3l-8.1,1.5l-8.1-0.5l-8.1,2.9l-8.1-0.9l-8.1,1.2l-8.1,2.8
			l-8.1-0.4l-8.1,2l-8.1,2.7l-8.1,0.3l-8.1,1.9l-8.1,1.3l-8.1,3.1l-8.1,2l-8.1,2.4L130.5,486.9z"/>
	</g>
</g>
<g id="PolyCollection_2">
	<g>
		<defs>
			<rect id="SVGID_3_" x="130.5" y="69.1" width="809.1" height="443.5"/>
		</defs>
		<clipPath id="SVGID_4_">
			<use xlink:href="#SVGID_3_"  style="overflow:visible;"/>
		</clipPath>
		<path class="st2" d="M130.5,471.7v15.2l8.1-4.9l8.1-2.4l8.1-2l8.1-3.1l8.1-1.3l8.1-1.9l8.1-0.3l8.1-2.7l8.1-2l8.1,0.4l8.1-2.8
			l8.1-1.2l8.1,0.9l8.1-2.9l8.1,0.5l8.1-1.5l8.1-0.3l8.1-1.3l8.1-0.5l8.1-0.1l8.1,1.9l8.1-3.1l8.1,0.9l8.1-2.9l8.1-0.9l8.1,2.9
			l8.1,1.2l8.1-3l8.1,0.5l8.1,0.6l8.1,0.3l8.1-1l8.1-0.4l8.1-1.9l8.1,0.8l8.1-1.8l8.1-0.8l8.1,2.5l8.1-2.3l8.1-1.3l8.1,2.3l8.1,0.6
			l8.1-3l8.1,0.2l8.1-1l8.1-0.1l8.1,0.7l8.1-1.7l8.1-1.2l8.1,0.7l8.1,0.8l8.1-2.9l8.1,1.9l8.1,0.7l8.1-0.9l8.1,2.1l8.1-2.4l8.1-2.3
			l8.1,0l8.1,0.4l8.1,2.4l8.1-3.6l8.1,2.1l8.1,0l8.1,0.8l8.1-2.8l8.1,0.4l8.1-3.3l8.1,1l8.1-0.7l8.1-2.6l8.1-0.8l8.1,0.7l8.1-2.2
			l8.1,0.8l8.1-3.8l8.1,0.7l8.1-2.7l8.1,3.8l8.1-0.9l8.1-0.2l8.1-0.9l8.1-0.6l8.1-3.7l8.1,2.7l8.1-0.6l8.1,3.1l8.1-2.1l8.1-0.5
			l8.1-0.9l8.1,3l8.1-2.5l8.1-4.8l8.1-0.3l8.1,0.5l8.1,6.8l8.1,8.5l8.1,5.7l8.1,1.5v-7.1l0,0l-8.1-2.3l-8.1-4.4l-8.1-9.7l-8.1-6.6
			l-8.1-1.5l-8.1,1l-8.1,5.5l-8.1,1.9l-8.1-3.9l-8.1,1.3l-8.1,1.1l-8.1,1.6l-8.1-1.4l-8.1-0.2l-8.1-2.7l-8.1,6L794,427l-8.1,0.3
			l-8.1,1.3l-8.1,1.1l-8.1-2.4l-8.1,2l-8.1-1l-8.1,3.7l-8.1,0.7l-8.1,1.3l-8.1-0.6l-8.1,1.5l-8.1,1.4l-8.1,2.7l-8.1-2.2l-8.1,3.4
			l-8.1-0.9l-8.1,2.5l-8.1-1.1l-8.1,0.7l-8.1-2.1l-8.1,2.5l-8.1-2.1l-8.1,0.6l-8.1-1.7l-8.1,4l-8.1,2l-8.1-1.6l-8.1,1l-8.1-3.1
			l-8.1,1.7l-8.1,1.9l-8.1-1l-8.1-0.1l-8.1,1l-8.1,2.5l-8.1-2.3l-8.1,0.7l-8.1,3l-8.1-3l-8.1,4.1l-8.1-2.4l-8.1,0.8l-8.1,0.7
			L438,451l-8.1-4.3l-8.1,1.4l-8.1,2.4l-8.1-1.9l-8.1,2.6l-8.1,0.8l-8.1,1.4l-8.1-1.4l-8.1,0.9l-8.1-1.8l-8.1,3.5l-8.1-2.6l-8.1-2.5
			l-8.1,1.7l-8.1,2.2l-8.1-1.1l-8.1,3.2l-8.1-1.3l-8.1-1.1l-8.1,0.7l-8.1,1.2l-8.1,0.1l-8.1,1.2l-8.1-1.3l-8.1,3.5l-8.1-1.5
			l-8.1,0.5l-8.1,0.9l-8.1-0.7l-8.1,1.1l-8.1,3.8l-8.1-1.6l-8.1,0.7l-8.1,0.6l-8.1,2.4l-8.1,0.3l-8.1,1.1L130.5,471.7z"/>
	</g>
</g>
<g id="PolyCollection_3">
	<g>
		<defs>
			<rect id="SVGID_5_" x="130.5" y="69.1" width="809.1" height="443.5"/>
		</defs>
		<clipPath id="SVGID_6_">
			<use xlink:href="#SVGID_5_"  style="overflow:visible;"/>
		</clipPath>
		<path class="st3" d="M130.5,456.2v15.5l8.1-5.6l8.1-1.1l8.1-0.3l8.1-2.4l8.1-0.6l8.1-0.7l8.1,1.6l8.1-3.8l8.1-1.1l8.1,0.7l8.1-0.9
			l8.1-0.5l8.1,1.5l8.1-3.5l8.1,1.3l8.1-1.2l8.1-0.1l8.1-1.2l8.1-0.7l8.1,1.1l8.1,1.3l8.1-3.2l8.1,1.1l8.1-2.2l8.1-1.7l8.1,2.5
			l8.1,2.6l8.1-3.5l8.1,1.8l8.1-0.9l8.1,1.4l8.1-1.4l8.1-0.8l8.1-2.6l8.1,1.9l8.1-2.4l8.1-1.4l8.1,4.3l8.1-2.6l8.1-0.7l8.1-0.8
			l8.1,2.4l8.1-4.1l8.1,3l8.1-3l8.1-0.7l8.1,2.3l8.1-2.5l8.1-1l8.1,0.1l8.1,1l8.1-1.9l8.1-1.7l8.1,3.1l8.1-1l8.1,1.6l8.1-2l8.1-4
			l8.1,1.7l8.1-0.6l8.1,2.1l8.1-2.5l8.1,2.1l8.1-0.7l8.1,1.1l8.1-2.5l8.1,0.9l8.1-3.4l8.1,2.2l8.1-2.7l8.1-1.4l8.1-1.5l8.1,0.6
			l8.1-1.3l8.1-0.7l8.1-3.7l8.1,1l8.1-2l8.1,2.4l8.1-1.1l8.1-1.3l8.1-0.3l8.1,0.5l8.1-6l8.1,2.7l8.1,0.2l8.1,1.4l8.1-1.6l8.1-1.1
			l8.1-1.3l8.1,3.9l8.1-1.9l8.1-5.5l8.1-1l8.1,1.5l8.1,6.6l8.1,9.7l8.1,4.4l8.1,2.3v-7.3l0,0l-8.1-3.7l-8.1-5.5l-8.1-8.6l-8.1-6.9
			l-8.1-2.2l-8.1,4.3l-8.1,5l-8.1,1.5l-8.1-4.1l-8.1,1.6l-8.1,1l-8.1,2l-8.1-1.1l-8.1-1.9l-8.1-2.7l-8.1,4.8l-8.1,0.9l-8.1-0.5
			l-8.1,2.5l-8.1,0.9l-8.1-3l-8.1,2.9l-8.1-1.5l-8.1,4.8l-8.1,1.3l-8.1,2l-8.1-0.7l-8.1,3.6l-8.1-0.3l-8.1,4.9l-8.1-3.9l-8.1,4
			l-8.1-1l-8.1,1.4l-8.1,0.7l-8.1,0.3l-8.1-2.5l-8.1,2.5l-8.1-2.1l-8.1,1.5l-8.1-4l-8.1,4l-8.1,1.2l-8.1-2.1l-8.1,2.7l-8.1-3.3
			l-8.1,1.7l-8.1,0.8l-8.1-0.1l-8.1-0.4l-8.1,1.8l-8.1,1.7l-8.1-1.2l-8.1,1l-8.1,1.7l-8.1-2l-8.1,2.8l-8.1-2.8l-8.1,0.8l-8.1,1
			l-8.1,2.1l-8.1-4.2l-8.1,1.8l-8.1,3.7l-8.1-2.8l-8.1,1.9l-8.1,2.2l-8.1,1.6l-8.1-2.4l-8.1,0.9l-8.1-2.4l-8.1,3.4l-8.1-1.8
			l-8.1-2.2l-8.1,2.5l-8.1,0.7l-8.1-2.2l-8.1,3.7l-8.1-1.3l-8.1-1.4l-8.1,0.2l-8.1-0.5l-8.1-1.1l-8.1,2l-8.1-3.1l-8.1,4.1l-8.1-2.4
			l-8.1-1.6l-8.1,0.8l-8.1-0.9l-8.1,1.4l-8.1,3.3l-8.1-1.7l-8.1,1.2l-8.1-1l-8.1,2.7l-8.1-1l-8.1,1.9L130.5,456.2z"/>
	</g>
</g>
<g id="PolyCollection_4">
	<g>
		<defs>
			<rect id="SVGID_7_" x="130.5" y="69.1" width="809.1" height="443.5"/>
		</defs>
		<clipPath id="SVGID_8_">
			<use xlink:href="#SVGID_7_"  style="overflow:visible;"/>
		</clipPath>
		<path class="st4" d="M130.5,444.4v11.9l8.1-6.5l8.1-1.9l8.1,1l8.1-2.7l8.1,1l8.1-1.2l8.1,1.7l8.1-3.3l8.1-1.4l8.1,0.9l8.1-0.8
			l8.1,1.6l8.1,2.4l8.1-4.1l8.1,3.1l8.1-2l8.1,1.1l8.1,0.5l8.1-0.2l8.1,1.4l8.1,1.3l8.1-3.7l8.1,2.2l8.1-0.7l8.1-2.5l8.1,2.2
			l8.1,1.8l8.1-3.4l8.1,2.4l8.1-0.9l8.1,2.4l8.1-1.6l8.1-2.2l8.1-1.9l8.1,2.8l8.1-3.7l8.1-1.8l8.1,4.2l8.1-2.1l8.1-1l8.1-0.8
			l8.1,2.8l8.1-2.8l8.1,2l8.1-1.7l8.1-1l8.1,1.2l8.1-1.7l8.1-1.8l8.1,0.4l8.1,0.1l8.1-0.8l8.1-1.7l8.1,3.3l8.1-2.7l8.1,2.1l8.1-1.2
			l8.1-4l8.1,4l8.1-1.5l8.1,2.1l8.1-2.5l8.1,2.5l8.1-0.3l8.1-0.7l8.1-1.4l8.1,1l8.1-4l8.1,3.9l8.1-4.9l8.1,0.3l8.1-3.6l8.1,0.7
			l8.1-2l8.1-1.3l8.1-4.8l8.1,1.5l8.1-2.9l8.1,3l8.1-0.9l8.1-2.5l8.1,0.5l8.1-0.9l8.1-4.8l8.1,2.7l8.1,1.9l8.1,1.1l8.1-2l8.1-1
			l8.1-1.6l8.1,4.1l8.1-1.5l8.1-5l8.1-4.3l8.1,2.2l8.1,6.9l8.1,8.6l8.1,5.5l8.1,3.7v-8.5l0,0l-8.1-2.7l-8.1-6.7l-8.1-10.8l-8.1-5
			l-8.1-1l-8.1,3.5l-8.1,6l-8.1,1.7l-8.1-4.5l-8.1,2.6l-8.1,0.2l-8.1,1.3l-8.1,1l-8.1-3.8l-8.1-3.2l-8.1,5.4l-8.1,0.4l-8.1-1.8
			l-8.1,2.3l-8.1,2.7l-8.1-3.7l-8.1,2.2l-8.1-1l-8.1,4.1l-8.1,2l-8.1,1.6l-8.1-0.7l-8.1,4.3l-8.1-1l-8.1,4.9l-8.1-3.8l-8.1,4.4
			l-8.1-1.2l-8.1,0.8l-8.1,0.8l-8.1,2.5l-8.1-4.5l-8.1,3.9L616,427l-8.1,2.4l-8.1-5.5l-8.1,3.8l-8.1,2.3l-8.1-2.3l-8.1,4.1l-8.1-4.2
			l-8.1,2.8l-8.1,1.4l-8.1,0l-8.1,0l-8.1,1.2l-8.1,0.1l-8.1-0.2l-8.1,1.5l-8.1,0.5l-8.1-1.3l-8.1,3.8l-8.1-3.8l-8.1,0.4l-8.1,0.7
			l-8.1,3.8l-8.1-4.8l-8.1,1.7l-8.1,2.7l-8.1-1.9l-8.1,2.1l-8.1,1.6l-8.1,1.9l-8.1-1.7l-8.1-0.4l-8.1-2.1l-8.1,1.3l-8.1,0.1
			l-8.1-2.6l-8.1,2.1l-8.1,0.5l-8.1-0.7l-8.1,2.7l-8.1-2.8l-8.1-1.4l-8.1,1l-8.1-1.5L260,435l-8.1,1.2l-8.1-4.8l-8.1,3.7l-8.1-2.4
			l-8.1-2.2l-8.1,0.9l-8.1-1.5l-8.1,1l-8.1,2.3l-8.1-2.3l-8.1,2l-8.1-1.2l-8.1,1.5l-8.1-1.5l-8.1,2.1L130.5,444.4z"/>
	</g>
</g>
<g id="PolyCollection_5">
	<g>
		<defs>
			<rect id="SVGID_9_" x="130.5" y="69.1" width="809.1" height="443.5"/>
		</defs>
		<clipPath id="SVGID_10_">
			<use xlink:href="#SVGID_9_"  style="overflow:visible;"/>
		</clipPath>
		<path class="st5" d="M130.5,422.6v21.8l8.1-10.7l8.1-2.1l8.1,1.5l8.1-1.5l8.1,1.2l8.1-2l8.1,2.3l8.1-2.3l8.1-1l8.1,1.5l8.1-0.9
			l8.1,2.2l8.1,2.4l8.1-3.7l8.1,4.8l8.1-1.2l8.1,1.3l8.1,1.5l8.1-1l8.1,1.4l8.1,2.8l8.1-2.7l8.1,0.7l8.1-0.5l8.1-2.1l8.1,2.6
			l8.1-0.1l8.1-1.3l8.1,2.1l8.1,0.4l8.1,1.7l8.1-1.9l8.1-1.6l8.1-2.1l8.1,1.9l8.1-2.7l8.1-1.7l8.1,4.8l8.1-3.8l8.1-0.7l8.1-0.4
			l8.1,3.8l8.1-3.8l8.1,1.3l8.1-0.5l8.1-1.5l8.1,0.2l8.1-0.1l8.1-1.2l8.1,0l8.1,0l8.1-1.4l8.1-2.8l8.1,4.2l8.1-4.1l8.1,2.3l8.1-2.3
			l8.1-3.8l8.1,5.5l8.1-2.4l8.1,2.1l8.1-3.9l8.1,4.5l8.1-2.5l8.1-0.8l8.1-0.8l8.1,1.2l8.1-4.4l8.1,3.8l8.1-4.9l8.1,1l8.1-4.3
			l8.1,0.7l8.1-1.6l8.1-2l8.1-4.1l8.1,1l8.1-2.2l8.1,3.7l8.1-2.7l8.1-2.3l8.1,1.8l8.1-0.4l8.1-5.4l8.1,3.2l8.1,3.8l8.1-1l8.1-1.3
			l8.1-0.2l8.1-2.6l8.1,4.5l8.1-1.7l8.1-6l8.1-3.5l8.1,1l8.1,5l8.1,10.8l8.1,6.7l8.1,2.7v-14.1l0,0l-8.1-1.2l-8.1-7.6l-8.1-9.1
			l-8.1-5.2l-8.1-0.5l-8.1,2.9l-8.1,5.3l-8.1,1.4l-8.1-4.1l-8.1,2.4l-8.1-0.9l-8.1,2.9l-8.1,0.1l-8.1-3.2l-8.1-2.7l-8.1,4.6
			l-8.1,0.9l-8.1-1.2l-8.1,1.4l-8.1,2.8l-8.1-2.4l-8.1,2l-8.1-2l-8.1,4.1l-8.1,2.2l-8.1,3.1l-8.1-2.7l-8.1,3.9l-8.1,0.1l-8.1,3.3
			l-8.1-2.1l-8.1,4.6l-8.1-1.8l-8.1,0l-8.1,1.4l-8.1,1.8l-8.1-4.4l-8.1,4.5l-8.1-2.4l-8.1,1.9l-8.1-4.8l-8.1,5.1l-8.1,1.6l-8.1-3.1
			l-8.1,5.4l-8.1-6.2l-8.1,5l-8.1,0.2l-8.1-2.5l-8.1,3.3l-8.1,1.1l-8.1-1.5l-8.1,1.1l-8.1,2.2l-8.1-0.6l-8.1-1.2l-8.1,3.8l-8.1-3.9
			l-8.1,1.3l-8.1,0.5l-8.1,4.3l-8.1-5.9l-8.1,1.8l-8.1,2l-8.1-2.5l-8.1,3.5l-8.1,1l-8.1,0.1l-8.1-1.2l-8.1,0.5L357,423l-8.1,1.6
			l-8.1,0.8l-8.1-2.5l-8.1,1.4l-8.1-0.2l-8.1-0.9l-8.1,2.8l-8.1-3.7l-8.1-1.4l-8.1,0.5l-8.1,0.2l-8.1-1.4l-8.1,1l-8.1-4.2l-8.1,3.5
			l-8.1-2.5l-8.1-1.5l-8.1-0.6l-8.1-0.2l-8.1,0.1l-8.1,3.1L179,416l-8.1,1.5l-8.1-2.3l-8.1,0.6l-8.1-3.1l-8.1,1.1L130.5,422.6z"/>
	</g>
</g>
<g id="PolyCollection_6">
	<g>
		<defs>
			<rect id="SVGID_11_" x="130.5" y="69.1" width="809.1" height="443.5"/>
		</defs>
		<clipPath id="SVGID_12_">
			<use xlink:href="#SVGID_11_"  style="overflow:visible;"/>
		</clipPath>
		<path class="st6" d="M130.5,406.6v16l8.1-8.8l8.1-1.1l8.1,3.1l8.1-0.6l8.1,2.3l8.1-1.5l8.1,2.9l8.1-3.1l8.1-0.1l8.1,0.2l8.1,0.6
			l8.1,1.5l8.1,2.5l8.1-3.5l8.1,4.2l8.1-1l8.1,1.4l8.1-0.2l8.1-0.5l8.1,1.4l8.1,3.7l8.1-2.8l8.1,0.9l8.1,0.2l8.1-1.4l8.1,2.5
			l8.1-0.8l8.1-1.6l8.1,3.2l8.1-0.5l8.1,1.2l8.1-0.1l8.1-1l8.1-3.5l8.1,2.5l8.1-2l8.1-1.8l8.1,5.9l8.1-4.3l8.1-0.5l8.1-1.3l8.1,3.9
			l8.1-3.8l8.1,1.2l8.1,0.6l8.1-2.2l8.1-1.1l8.1,1.5l8.1-1.1l8.1-3.3l8.1,2.5l8.1-0.2l8.1-5l8.1,6.2l8.1-5.4l8.1,3.1l8.1-1.6
			l8.1-5.1l8.1,4.8l8.1-1.9l8.1,2.4l8.1-4.5l8.1,4.4l8.1-1.8l8.1-1.4l8.1,0l8.1,1.8l8.1-4.6l8.1,2.1l8.1-3.3l8.1-0.1l8.1-3.9
			l8.1,2.7l8.1-3.1l8.1-2.2l8.1-4.1l8.1,2l8.1-2l8.1,2.4l8.1-2.8l8.1-1.4l8.1,1.2l8.1-0.9l8.1-4.6l8.1,2.7l8.1,3.2l8.1-0.1l8.1-2.9
			l8.1,0.9l8.1-2.4l8.1,4.1l8.1-1.4l8.1-5.3l8.1-2.9l8.1,0.5l8.1,5.2l8.1,9.1l8.1,7.6l8.1,1.2v-11.7l0,0l-8.1,0.4l-8.1-6.7l-8.1-8.8
			l-8.1-6l-8.1,0.2l-8.1,3.5l-8.1,3.7l-8.1,1.1l-8.1-2.3l-8.1,2.5l-8.1-3.2l-8.1,5.3l-8.1-0.1l-8.1-4.9l-8.1-1l-8.1,3.8l-8.1,0.7
			l-8.1-0.6l-8.1,0.7l-8.1,2.8l-8.1-1.2l-8.1,0.9l-8.1-0.8l-8.1,2.1l-8.1,3.7l-8.1,2.7l-8.1-2.2l-8.1,4.8l-8.1-1.2l-8.1,3.6
			l-8.1-0.3l-8.1,1.9l-8.1-1.8l-8.1-0.2l-8.1,3l-8.1,1.2l-8.1-4.5l-8.1,6.1l-8.1-3.1l-8.1,2.3l-8.1-7.3l-8.1,6.4l-8.1,0.8l-8.1-3.2
			l-8.1,6.1l-8.1-5.5l-8.1,3.6l-8.1,0.9l-8.1-2.5l-8.1,3.8l-8.1,0.4l-8.1-2l-8.1,1.8l-8.1,3.3l-8.1-0.4l-8.1-0.6l-8.1,2l-8.1-2.8
			l-8.1,0.2l-8.1,1l-8.1,4.2l-8.1-5.1l-8.1,1.5l-8.1,2.3l-8.1-2.6l-8.1,2.9l-8.1,1.7l-8.1,1.3l-8.1-2.4l-8.1,0.6L357,416l-8.1-0.8
			l-8.1,2l-8.1,0.2l-8.1-2.1l-8.1,1.3l-8.1-0.4l-8.1,3l-8.1-5.1l-8.1-1.5l-8.1,1.9l-8.1-2l-8.1,0.8l-8.1,0.4l-8.1-3.7l-8.1,1.2
			l-8.1-1.1l-8.1-2.7l-8.1-0.7l-8.1-0.8l-8.1,0l-8.1,0.9l-8.1-2.3L171,405l-8.1-1.9l-8.1-1.8l-8.1-3.2l-8.1-0.2L130.5,406.6z"/>
	</g>
</g>
<g id="PolyCollection_7">
	<g>
		<defs>
			<rect id="SVGID_13_" x="130.5" y="69.1" width="809.1" height="443.5"/>
		</defs>
		<clipPath id="SVGID_14_">
			<use xlink:href="#SVGID_13_"  style="overflow:visible;"/>
		</clipPath>
		<path class="st7" d="M130.5,395.5v11.1l8.1-8.7l8.1,0.2l8.1,3.2l8.1,1.8l8.1,1.9l8.1-0.4l8.1,2.3l8.1-0.9l8.1,0l8.1,0.8l8.1,0.7
			l8.1,2.7l8.1,1.1l8.1-1.2l8.1,3.7l8.1-0.4l8.1-0.8l8.1,2l8.1-1.9l8.1,1.5l8.1,5.1l8.1-3l8.1,0.4l8.1-1.3l8.1,2.1l8.1-0.2l8.1-2
			l8.1,0.8l8.1,2.7l8.1-0.6l8.1,2.4l8.1-1.3l8.1-1.7l8.1-2.9l8.1,2.6l8.1-2.3l8.1-1.5l8.1,5.1l8.1-4.2l8.1-1l8.1-0.2l8.1,2.8l8.1-2
			l8.1,0.6l8.1,0.4l8.1-3.3l8.1-1.8l8.1,2l8.1-0.4l8.1-3.8l8.1,2.5l8.1-0.9l8.1-3.6l8.1,5.5l8.1-6.1l8.1,3.2l8.1-0.8l8.1-6.4
			l8.1,7.3l8.1-2.3l8.1,3.1l8.1-6.1l8.1,4.5l8.1-1.2l8.1-3l8.1,0.2l8.1,1.8l8.1-1.9l8.1,0.3l8.1-3.6l8.1,1.2l8.1-4.8l8.1,2.2
			l8.1-2.7l8.1-3.7l8.1-2.1l8.1,0.8l8.1-0.9l8.1,1.2l8.1-2.8l8.1-0.7l8.1,0.6l8.1-0.7l8.1-3.8l8.1,1l8.1,4.9l8.1,0.1l8.1-5.3
			l8.1,3.2l8.1-2.5l8.1,2.3l8.1-1.1l8.1-3.7l8.1-3.5l8.1-0.2l8.1,6l8.1,8.8l8.1,6.7l8.1-0.4v-6.7l0,0l-8.1,3.3l-8.1-8.8l-8.1-9.2
			l-8.1-6.1l-8.1,0.2l-8.1,6.7l-8.1,2.1l-8.1,0.8l-8.1-0.6l-8.1,0.7l-8.1-3.8l-8.1,5.3l-8.1-0.9l-8.1-5.2l-8.1-1.8l-8.1,5.7l-8.1-1
			l-8.1,0.4l-8.1,1.4l-8.1,2.5l-8.1,0.9l-8.1-0.5l-8.1-1.1l-8.1,2.1l-8.1,5.5l-8.1,1.6l-8.1-1.1l-8.1,4.3l-8.1-1.2l-8.1,3.7
			l-8.1-1.4l-8.1,2.6l-8.1-2.4l-8.1,0.7l-8.1,2.1l-8.1,1.3l-8.1-3.8l-8.1,4.2l-8.1-3.5l-8.1,3.8l-8.1-7.4l-8.1,7.4l-8.1,0.1
			l-8.1-3.9l-8.1,6l-8.1-4.3l-8.1,1.9l-8.1,3.1L535,404l-8.1,3l-8.1,2.9l-8.1-4.3l-8.1,1.6l-8.1,4.7l-8.1-1.2l-8.1,0l-8.1,0.8
			l-8.1-2.2l-8.1,2.2l-8.1-1.3l-8.1,2.4l-8.1-4.1l-8.1,1.5l-8.1,2.7l-8.1-3l-8.1,3.4l-8.1,2.5l-8.1,1l-8.1-2.6l-8.1,0l-8.1-1.2
			l-8.1-1.5l-8.1,1.4l-8.1,0.4l-8.1-0.9l-8.1,1.8l-8.1-0.9l-8.1,3.4l-8.1-6.5l-8.1,0.2l-8.1,0.3l-8.1-1.6l-8.1,1.1l-8.1-0.2
			l-8.1-4.9l-8.1,0.3l-8.1-0.7l-8.1-3l-8.1-2l-8.1-0.2l-8.1-1.4l-8.1,0.4l-8.1-2.5L171,395l-8.1-2.8l-8.1-3.5l-8.1-4l-8.1-1.3
			L130.5,395.5z"/>
	</g>
</g>
<g id="PolyCollection_8">
	<g>
		<defs>
			<rect id="SVGID_15_" x="130.5" y="69.1" width="809.1" height="443.5"/>
		</defs>
		<clipPath id="SVGID_16_">
			<use xlink:href="#SVGID_15_"  style="overflow:visible;"/>
		</clipPath>
		<path class="st8" d="M130.5,369.2v26.3l8.1-12l8.1,1.3l8.1,4l8.1,3.5l8.1,2.8l8.1,0.9l8.1,2.5l8.1-0.4l8.1,1.4l8.1,0.2l8.1,2
			l8.1,3l8.1,0.7l8.1-0.3l8.1,4.9l8.1,0.2l8.1-1.1l8.1,1.6l8.1-0.3l8.1-0.2l8.1,6.5l8.1-3.4l8.1,0.9l8.1-1.8l8.1,0.9l8.1-0.4
			l8.1-1.4l8.1,1.5l8.1,1.2l8.1,0l8.1,2.6l8.1-1l8.1-2.5l8.1-3.4l8.1,3l8.1-2.7l8.1-1.5l8.1,4.1l8.1-2.4l8.1,1.3l8.1-2.2l8.1,2.2
			l8.1-0.8l8.1,0l8.1,1.2l8.1-4.7l8.1-1.6l8.1,4.3l8.1-2.9l8.1-3l8.1,2.4l8.1-3.1l8.1-1.9l8.1,4.3l8.1-6l8.1,3.9l8.1-0.1l8.1-7.4
			l8.1,7.4l8.1-3.8l8.1,3.5l8.1-4.2l8.1,3.8l8.1-1.3l8.1-2.1l8.1-0.7l8.1,2.4l8.1-2.6l8.1,1.4l8.1-3.7l8.1,1.2l8.1-4.3l8.1,1.1
			l8.1-1.6l8.1-5.5l8.1-2.1l8.1,1.1l8.1,0.5l8.1-0.9l8.1-2.5l8.1-1.4l8.1-0.4l8.1,1l8.1-5.7l8.1,1.8l8.1,5.2l8.1,0.9l8.1-5.3
			l8.1,3.8l8.1-0.7l8.1,0.6l8.1-0.8l8.1-2.1l8.1-6.7l8.1-0.2l8.1,6.1l8.1,9.2l8.1,8.8l8.1-3.3v-53.8l0,0l-8.1,4.7l-8.1-5.5
			l-8.1-11.6l-8.1-2.3l-8.1-0.6l-8.1,5l-8.1,0.1l-8.1,0.6l-8.1-2.4l-8.1,3l-8.1-0.8l-8.1,4.6l-8.1,1.7l-8.1-4.6l-8.1-3l-8.1,6.7
			l-8.1,0.1l-8.1-2.1l-8.1,0.6l-8.1,4.6l-8.1-1.8l-8.1,1.2l-8.1-0.9l-8.1,1.4l-8.1,4.4l-8.1,2.9l-8.1-1.2l-8.1,1.7l-8.1,0.5
			l-8.1,3.9l-8.1,1.8l-8.1-1.7l-8.1,0.7l-8.1,0.9l-8.1,1.9l-8.1,2l-8.1-1.8l-8.1,3.9l-8.1-1.9l-8.1,2.9l-8.1-5.5l-8.1,6l-8.1,2.9
			l-8.1-5.4l-8.1,8.2l-8.1-4.6l-8.1,2.8l-8.1,3.8L535,364l-8.1,2.8l-8.1,2.7l-8.1-2.7l-8.1,4.4l-8.1,4.5l-8.1-1.7l-8.1,0.3l-8.1,0.6
			l-8.1-0.6l-8.1,1.6L446,376l-8.1,2.7l-8.1-4.2l-8.1,2.1l-8.1,0.5l-8.1,0.7l-8.1-1l-8.1,5.7l-8.1,1.1l-8.1-3.6l-8.1,1.2l-8.1-0.4
			l-8.1-1.2l-8.1,0.8l-8.1,2.3l-8.1-0.9l-8.1,3.1l-8.1-1.7l-8.1,3.3l-8.1-5.2l-8.1,0.1l-8.1,1.2l-8.1-0.1L260,382l-8.1,1.1l-8.1-4.1
			l-8.1,0.1l-8.1,0.3l-8.1-3.3l-8.1-0.5l-8.1-1.9l-8.1,0.5l-8.1-0.1l-8.1-4.6l-8.1-0.1l-8.1-1.6l-8.1-4.6l-8.1-3.6l-8.1-2.5
			L130.5,369.2z"/>
	</g>
</g>
<g id="PolyCollection_9">
	<g>
		<defs>
			<rect id="SVGID_17_" x="130.5" y="69.1" width="809.1" height="443.5"/>
		</defs>
		<clipPath id="SVGID_18_">
			<use xlink:href="#SVGID_17_"  style="overflow:visible;"/>
		</clipPath>
		<path class="st9" d="M130.5,354v15.1l8.1-12.2l8.1,2.5l8.1,3.6l8.1,4.6l8.1,1.6l8.1,0.1l8.1,4.6l8.1,0.1l8.1-0.5l8.1,1.9l8.1,0.5
			l8.1,3.3l8.1-0.3l8.1-0.1l8.1,4.1l8.1-1.1l8.1,0.5l8.1,0.1l8.1-1.2l8.1-0.1l8.1,5.2l8.1-3.3l8.1,1.7l8.1-3.1l8.1,0.9l8.1-2.3
			l8.1-0.8l8.1,1.2l8.1,0.4l8.1-1.2l8.1,3.6l8.1-1.1l8.1-5.7l8.1,1l8.1-0.7l8.1-0.5l8.1-2.1l8.1,4.2l8.1-2.7l8.1-0.1l8.1-1.6
			l8.1,0.6l8.1-0.6l8.1-0.3l8.1,1.7l8.1-4.5l8.1-4.4l8.1,2.7l8.1-2.7l8.1-2.8l8.1,3.4l8.1-3.8l8.1-2.8l8.1,4.6l8.1-8.2l8.1,5.4
			l8.1-2.9l8.1-6l8.1,5.5l8.1-2.9l8.1,1.9l8.1-3.9l8.1,1.8l8.1-2l8.1-1.9l8.1-0.9l8.1-0.7l8.1,1.7l8.1-1.8l8.1-3.9l8.1-0.5l8.1-1.7
			l8.1,1.2l8.1-2.9l8.1-4.4l8.1-1.4l8.1,0.9l8.1-1.2l8.1,1.8l8.1-4.6l8.1-0.6l8.1,2.1l8.1-0.1l8.1-6.7l8.1,3l8.1,4.6l8.1-1.7
			l8.1-4.6l8.1,0.8l8.1-3l8.1,2.4l8.1-0.6l8.1-0.1l8.1-5l8.1,0.6l8.1,2.3l8.1,11.6l8.1,5.5l8.1-4.7v-4.5l0,0l-8.1,1.7l-8.1-6
			l-8.1-12.3l-8.1-1.8l-8.1,0.2l-8.1,5l-8.1-0.8l-8.1,1.6l-8.1-0.9l-8.1,1.2l-8.1-0.3l-8.1,5.4l-8.1,0.9l-8.1-1.8l-8.1-3.1l-8.1,7.1
			l-8.1-2l-8.1-1.3l-8.1,1l-8.1,3.9l-8.1-2.2l-8.1-0.2l-8.1,2l-8.1-0.4l-8.1,4.9l-8.1,1.1l-8.1,0.7l-8.1,0.9l-8.1-1.1l-8.1,5.8
			l-8.1,2.1l-8.1-2l-8.1,0.3l-8.1,0.3l-8.1,1.4l-8.1,1.2l-8.1-1.5l-8.1,4.1l-8.1-1.8l-8.1,1.9l-8.1-3.4l-8.1,5.4l-8.1,2.3l-8.1-5.5
			l-8.1,6.7l-8.1-3.1l-8.1,2.5l-8.1,2.3l-8.1-2.2l-8.1,1.2l-8.1,3.7l-8.1-1l-8.1,3.7l-8.1,4.1l-8.1-0.9l-8.1,0.1l-8.1-1l-8.1,0.4
			l-8.1,1.4l-8.1,0.3l-8.1,2l-8.1-3.4l-8.1,2.3l-8.1,0.3l-8.1-0.6l-8.1-1l-8.1,6.5l-8.1,1.8l-8.1-4.9l-8.1,3.3L357,372l-8.1-2.9
			l-8.1,2.1l-8.1,3.3l-8.1-2.8l-8.1,2.4l-8.1-2.2l-8.1,4.4l-8.1-4.9l-8.1,0.5l-8.1,1.1l-8.1-2.3l-8.1-0.3l-8.1,2.3l-8.1-6.2l-8.1,2
			l-8.1-1.4l-8.1-3.6l-8.1-0.4l-8.1-2l-8.1,1l-8.1-1.4l-8.1-3.9l-8.1-1.1l-8.1-2.3l-8.1-5.5l-8.1-3.6l-8.1-1.8L130.5,354z"/>
	</g>
</g>
<g id="PolyCollection_10">
	<g>
		<defs>
			<rect id="SVGID_19_" x="130.5" y="69.1" width="809.1" height="443.5"/>
		</defs>
		<clipPath id="SVGID_20_">
			<use xlink:href="#SVGID_19_"  style="overflow:visible;"/>
		</clipPath>
		<path class="st10" d="M130.5,306.9V354l8.1-11.4l8.1,1.8l8.1,3.6l8.1,5.5l8.1,2.3l8.1,1.1l8.1,3.9l8.1,1.4l8.1-1l8.1,2l8.1,0.4
			l8.1,3.6l8.1,1.4l8.1-2l8.1,6.2l8.1-2.3l8.1,0.3l8.1,2.3l8.1-1.1l8.1-0.5l8.1,4.9l8.1-4.4l8.1,2.2l8.1-2.4l8.1,2.8l8.1-3.3
			l8.1-2.1l8.1,2.9l8.1,1.6l8.1-3.3l8.1,4.9l8.1-1.8l8.1-6.5l8.1,1l8.1,0.6l8.1-0.3l8.1-2.3l8.1,3.4l8.1-2l8.1-0.3l8.1-1.4l8.1-0.4
			l8.1,1l8.1-0.1l8.1,0.9l8.1-4.1l8.1-3.7l8.1,1l8.1-3.7l8.1-1.2l8.1,2.2l8.1-2.3l8.1-2.5l8.1,3.1l8.1-6.7l8.1,5.5l8.1-2.3l8.1-5.4
			l8.1,3.4l8.1-1.9l8.1,1.8l8.1-4.1l8.1,1.5l8.1-1.2l8.1-1.4l8.1-0.3l8.1-0.3l8.1,2l8.1-2.1l8.1-5.8l8.1,1.1l8.1-0.9l8.1-0.7
			l8.1-1.1l8.1-4.9l8.1,0.4l8.1-2l8.1,0.2l8.1,2.2l8.1-3.9l8.1-1l8.1,1.3l8.1,2l8.1-7.1l8.1,3.1l8.1,1.8l8.1-0.9l8.1-5.4l8.1,0.3
			l8.1-1.2l8.1,0.9l8.1-1.6l8.1,0.8l8.1-5l8.1-0.2l8.1,1.8l8.1,12.3l8.1,6l8.1-1.7V316l0,0l-8.1,0.2l-8.1-4.8l-8.1-10l-8.1-0.2
			l-8.1-3.1l-8.1,4.1l-8.1-0.5l-8.1,2.2l-8.1-0.5l-8.1,2.5l-8.1-0.3l-8.1,4.9l-8.1,1.2l-8.1-1.8l-8.1-3.5l-8.1,6.7l-8.1-1.7l-8.1,0
			l-8.1-1.6l-8.1,1.5l-8.1-0.2l-8.1,0.6l-8.1-0.3l-8.1-0.4l-8.1,4.9l-8.1,1l-8.1,1l-8.1-1.7l-8.1,1l-8.1,6l-8.1,0.8l-8.1-0.8
			l-8.1-1.8l-8.1,0.8l-8.1,2.6l-8.1-1.2l-8.1-0.2l-8.1,5.4l-8.1-2l-8.1-0.4l-8.1-0.2l-8.1,3.6l-8.1,0.6l-8.1-3.2l-8.1,4.4l-8.1-0.6
			l-8.1-0.7l-8.1,1.3l-8.1-2.6l-8.1,2.5l-8.1,2.1l-8.1-0.8l-8.1,1.9l-8.1,4.1l-8.1-2.4l-8.1,2l-8.1,0.3l-8.1-2.9l-8.1,2.7l-8.1,0.2
			L438,340l-8.1-2.9l-8.1,2.9l-8.1-2.6l-8.1,0.8l-8.1-2.5l-8.1,5.4l-8.1,1l-8.1-2.9l-8.1,2.6l-8.1-4.2l-8.1-1.3l-8.1,1.7l-8.1,1.9
			l-8.1-4.4l-8.1,0.3l-8.1-1.7l-8.1,3.6l-8.1-2.5l-8.1-2.1l-8.1,0.7l-8.1-0.5l-8.1-2.7l-8.1,4.1l-8.1-6.5l-8.1,0.9l-8.1-2.1
			l-8.1-4.2l-8.1-1.3l-8.1-1.7l-8.1-0.9l-8.1-0.7l-8.1-3.1l-8.1-1.3l-8.1-2.1l-8.1-3.6l-8.1-2.9l-8.1-1.2L130.5,306.9z"/>
	</g>
</g>
<g id="PolyCollection_11">
	<g>
		<defs>
			<rect id="SVGID_21_" x="130.5" y="69.1" width="809.1" height="443.5"/>
		</defs>
		<clipPath id="SVGID_22_">
			<use xlink:href="#SVGID_21_"  style="overflow:visible;"/>
		</clipPath>
		<path class="st11" d="M130.5,291.4v15.5l8.1-3.1l8.1,1.2l8.1,2.9l8.1,3.6l8.1,2.1l8.1,1.3l8.1,3.1l8.1,0.7l8.1,0.9l8.1,1.7
			l8.1,1.3l8.1,4.2l8.1,2.1l8.1-0.9l8.1,6.5l8.1-4.1l8.1,2.7l8.1,0.5l8.1-0.7l8.1,2.1l8.1,2.5l8.1-3.6l8.1,1.7l8.1-0.3l8.1,4.4
			l8.1-1.9l8.1-1.7l8.1,1.3l8.1,4.2l8.1-2.6l8.1,2.9l8.1-1l8.1-5.4l8.1,2.5l8.1-0.8l8.1,2.6l8.1-2.9l8.1,2.9l8.1-1.6l8.1-0.2
			l8.1-2.7l8.1,2.9l8.1-0.3l8.1-2l8.1,2.4l8.1-4.1l8.1-1.9l8.1,0.8l8.1-2.1l8.1-2.5l8.1,2.6l8.1-1.3l8.1,0.7l8.1,0.6l8.1-4.4
			l8.1,3.2l8.1-0.6l8.1-3.6l8.1,0.2l8.1,0.4l8.1,2l8.1-5.4l8.1,0.2l8.1,1.2l8.1-2.6l8.1-0.8l8.1,1.8l8.1,0.8l8.1-0.8l8.1-6l8.1-1
			l8.1,1.7l8.1-1l8.1-1l8.1-4.9l8.1,0.4l8.1,0.3l8.1-0.6l8.1,0.2l8.1-1.5l8.1,1.6l8.1,0l8.1,1.7l8.1-6.7l8.1,3.5l8.1,1.8l8.1-1.2
			l8.1-4.9l8.1,0.3l8.1-2.5l8.1,0.5l8.1-2.2l8.1,0.5l8.1-4.1l8.1,3.1l8.1,0.2l8.1,10l8.1,4.8l8.1-0.2v-10.7l0,0l-8.1,2.6l-8.1-8.1
			l-8.1-7.1l-8.1,0.2l-8.1-2.9l-8.1,3.7l-8.1,0.1l-8.1,3.3l-8.1-0.1l-8.1,1l-8.1-1.4l-8.1,4.9l-8.1,1l-8.1-0.1l-8.1-3.4l-8.1,5.8
			l-8.1-0.4l-8.1-1.5l-8.1-0.8l-8.1,0.5l-8.1,0.8l-8.1,0.9l-8.1,0l-8.1,0.2l-8.1,3.7l-8.1,0.8l-8.1,0.6l-8.1-2l-8.1,1.9l-8.1,6.1
			l-8.1,0.7l-8.1-0.1l-8.1-2l-8.1,0.2l-8.1,3.1l-8.1-0.4l-8.1,0.7l-8.1,4.5l-8.1-2l-8.1,0.1l-8.1-0.4l-8.1,3l-8.1,0.2l-8.1-2.5
			l-8.1,2.8l-8.1-1.2l-8.1,0.7l-8.1,1l-8.1-2.4L527,323l-8.1,3.8l-8.1-2.7l-8.1,2.9l-8.1,3.9l-8.1-3.2l-8.1,2l-8.1-0.9l-8.1-2.6
			l-8.1,2.3l-8.1,2.2l-8.1-0.2l-8.1-2.5l-8.1,2.5l-8.1-2.8l-8.1,2.4l-8.1-3.3l-8.1,3.5l-8.1,3.5l-8.1-5.3l-8.1,2.9l-8.1-4.7
			l-8.1,1.3l-8.1,0.5l-8.1,0.7l-8.1-1.8l-8.1-1.2l-8.1-0.7l-8.1,0.2l-8.1-0.8l-8.1-2.9l-8.1,0.1l-8.1,0l-8.1-3.8l-8.1,3.5l-8.1-5.3
			l-8.1,0.1l-8.1-1.8l-8.1-4.6l-8.1-1.8l-8.1-1.7l-8.1-1.4l-8.1-1.7L179,300l-8.1-1.5l-8.1-1.8l-8.1-3.9l-8.1-4.3l-8.1-2.5
			L130.5,291.4z"/>
	</g>
</g>
<g id="PolyCollection_12">
	<g>
		<defs>
			<rect id="SVGID_23_" x="130.5" y="69.1" width="809.1" height="443.5"/>
		</defs>
		<clipPath id="SVGID_24_">
			<use xlink:href="#SVGID_23_"  style="overflow:visible;"/>
		</clipPath>
		<path class="st12" d="M130.5,269.6v21.8l8.1-5.3l8.1,2.5l8.1,4.3l8.1,3.9l8.1,1.8l8.1,1.5l8.1,3.3l8.1,1.7l8.1,1.4l8.1,1.7
			l8.1,1.8l8.1,4.6l8.1,1.8l8.1-0.1l8.1,5.3l8.1-3.5l8.1,3.8l8.1,0l8.1-0.1l8.1,2.9l8.1,0.8l8.1-0.2l8.1,0.7l8.1,1.2l8.1,1.8
			l8.1-0.7l8.1-0.5l8.1-1.3l8.1,4.7l8.1-2.9l8.1,5.3l8.1-3.5l8.1-3.5l8.1,3.3l8.1-2.4l8.1,2.8l8.1-2.5l8.1,2.5l8.1,0.2l8.1-2.2
			l8.1-2.3l8.1,2.6l8.1,0.9l8.1-2l8.1,3.2l8.1-3.9l8.1-2.9l8.1,2.7l8.1-3.8l8.1-1.6l8.1,2.4l8.1-1l8.1-0.7l8.1,1.2l8.1-2.8l8.1,2.5
			l8.1-0.2l8.1-3l8.1,0.4l8.1-0.1l8.1,2l8.1-4.5l8.1-0.7l8.1,0.4l8.1-3.1l8.1-0.2l8.1,2l8.1,0.1l8.1-0.7l8.1-6.1l8.1-1.9l8.1,2
			l8.1-0.6l8.1-0.8l8.1-3.7l8.1-0.2l8.1,0l8.1-0.9l8.1-0.8l8.1-0.5l8.1,0.8l8.1,1.5l8.1,0.4l8.1-5.8l8.1,3.4l8.1,0.1l8.1-1l8.1-4.9
			l8.1,1.4l8.1-1l8.1,0.1l8.1-3.3l8.1-0.1l8.1-3.7l8.1,2.9l8.1-0.2l8.1,7.1l8.1,8.1l8.1-2.6v-21.1l0,0l-8.1,1.2l-8.1-8.6l-8.1-4.6
			l-8.1,0.9l-8.1-1.7L883,275l-8.1-0.3l-8.1,2.9l-8.1,2l-8.1-1.3l-8.1-0.3l-8.1,4.7l-8.1-0.2l-8.1,0l-8.1-1.1l-8.1,2l-8.1,1.3
			l-8.1-0.1l-8.1-1.4l-8.1,0.7l-8.1,0.3l-8.1,2.6l-8.1,1.2l-8.1-2.4l-8.1,3.9l-8.1,1.3l-8.1,1.3l-8.1-0.7l-8.1,0l-8.1,4.8l-8.1-0.2
			l-8.1-0.3l-8.1-1.2l-8.1,0.4l-8.1,3.4l-8.1-0.4l-8.1-0.2l-8.1,3.7l-8.1-1.2l-8.1,0l-8.1,0.9l-8.1,1.2l-8.1,0.3l-8.1-1.2l-8.1,3.6
			l-8.1-3.9l-8.1,2.1l-8.1,0.7L535,302l-8.1,0.1l-8.1,3.9l-8.1-1.3l-8.1,1l-8.1,5.3l-8.1-2.4l-8.1,1l-8.1-0.2l-8.1-3.7l-8.1,2.7
			l-8.1,2.6l-8.1-1.6l-8.1-1.3l-8.1,0.6l-8.1-0.9l-8.1,3.6l-8.1-4l-8.1,1.8l-8.1,1.8l-8.1-3.4l-8.1,1.1l-8.1-4.6l-8.1,3l-8.1,0.3
			l-8.1-1.5l-8.1-1l-8.1-0.9l-8.1-1.6l-8.1,0.7l-8.1,1.4l-8.1-4.9l-8.1,0.7L268,300l-8.1-4l-8.1,1.4l-8.1-2.5l-8.1-1.8l-8.1-1.6
			l-8.1-3.8l-8.1,0l-8.1-1.9l-8.1-1.6l-8.1-1.7l-8.1-2.1l-8.1-1.5l-8.1-2.2l-8.1-4.5l-8.1-2.8l-8.1-3.9L130.5,269.6z"/>
	</g>
</g>
<g id="PolyCollection_13">
	<g>
		<defs>
			<rect id="SVGID_25_" x="130.5" y="69.1" width="809.1" height="443.5"/>
		</defs>
		<clipPath id="SVGID_26_">
			<use xlink:href="#SVGID_25_"  style="overflow:visible;"/>
		</clipPath>
		<path class="st13" d="M130.5,249.4v20.2l8.1-4l8.1,3.9l8.1,2.8l8.1,4.5l8.1,2.2l8.1,1.5l8.1,2.1l8.1,1.7l8.1,1.6l8.1,1.9l8.1,0
			l8.1,3.8l8.1,1.6l8.1,1.8l8.1,2.5l8.1-1.4l8.1,4l8.1,0.2l8.1-0.7l8.1,4.9l8.1-1.4l8.1-0.7l8.1,1.6l8.1,0.9l8.1,1l8.1,1.5l8.1-0.3
			l8.1-3l8.1,4.6l8.1-1.1l8.1,3.4l8.1-1.8l8.1-1.8l8.1,4l8.1-3.6l8.1,0.9l8.1-0.6l8.1,1.3l8.1,1.6l8.1-2.6l8.1-2.7l8.1,3.7l8.1,0.2
			l8.1-1l8.1,2.4l8.1-5.3l8.1-1l8.1,1.3l8.1-3.9l8.1-0.1l8.1,1.9l8.1-0.7l8.1-2.1l8.1,3.9l8.1-3.6l8.1,1.2l8.1-0.3l8.1-1.2l8.1-0.9
			l8.1,0l8.1,1.2l8.1-3.7l8.1,0.2l8.1,0.4l8.1-3.4l8.1-0.4l8.1,1.2l8.1,0.3l8.1,0.2l8.1-4.8l8.1,0l8.1,0.7l8.1-1.3l8.1-1.3l8.1-3.9
			l8.1,2.4l8.1-1.2l8.1-2.6l8.1-0.3l8.1-0.7l8.1,1.4l8.1,0.1l8.1-1.3l8.1-2l8.1,1.1l8.1,0l8.1,0.2l8.1-4.7l8.1,0.3l8.1,1.3l8.1-2
			l8.1-2.9l8.1,0.3l8.1-3.6l8.1,1.7l8.1-0.9l8.1,4.6l8.1,8.6l8.1-1.2v-15.5l0,0l-8.1-0.7l-8.1-5.7l-8.1-4.1l-8.1,0.9l-8.1-1.9
			l-8.1,2.3l-8.1,2.4l-8.1-0.2l-8.1,1.5l-8.1,0.3l-8.1-3.1l-8.1,6.2l-8.1,0l-8.1-1.3l-8.1-0.9l-8.1,1.8l-8.1,1.5l-8.1-1.9l-8.1,0.5
			l-8.1,1.7l-8.1-0.4l-8.1,2l-8.1,1.4l-8.1-0.9l-8.1,2.1l-8.1,0.6l-8.1,3.7l-8.1-1.6l-8.1,0.4l-8.1,3.5l-8.1-0.6l-8.1,1.6l-8.1-1.8
			l-8.1,0.8l-8.1,3.3l-8.1-1.4l-8.1-1.5l-8.1,4.3L616,283l-8.1-2l-8.1,2.7l-8.1,1.4l-8.1-0.2l-8.1,0.5l-8.1,1.4l-8.1-2.9l-8.1,2.6
			l-8.1,1l-8.1-2.6l-8.1,0.2l-8.1,2.1l-8.1,1.1l-8.1-0.5l-8.1,4.5l-8.1-2.2l-8.1,1.3l-8.1,0.2l-8.1-2.3l-8.1,0.8l-8.1,3.2l-8.1-1.6
			l-8.1,0.4l-8.1-0.9l-8.1,1.4l-8.1,0.4l-8.1-1.5l-8.1,1.6l-8.1,1.1l-8.1-3.6l-8.1,2.4l-8.1-3.1l-8.1,2.9l-8.1-1.8l-8.1,0.7l-8.1-2
			l-8.1,0l-8.1-2.2l-8.1,0.5l-8.1,2.6l-8.1-3.8l-8.1-0.1l-8.1-1l-8.1-2.2l-8.1,0.2l-8.1-2.9l-8.1,1.1l-8.1-4.3l-8.1-1.9l-8.1-0.8
			l-8.1-1.6l-8.1-3.7l-8.1-0.7l-8.1-1.8L171,265l-8.1-2.7l-8.1-5.9l-8.1-3l-8.1-2.7L130.5,249.4z"/>
	</g>
</g>
<g id="PolyCollection_14">
	<g>
		<defs>
			<rect id="SVGID_27_" x="130.5" y="69.1" width="809.1" height="443.5"/>
		</defs>
		<clipPath id="SVGID_28_">
			<use xlink:href="#SVGID_27_"  style="overflow:visible;"/>
		</clipPath>
		<path class="st14" d="M130.5,217v32.5l8.1,1.4l8.1,2.7l8.1,3l8.1,5.9l8.1,2.7l8.1,1.7l8.1,1.8l8.1,0.7l8.1,3.7l8.1,1.6l8.1,0.8
			l8.1,1.9l8.1,4.3l8.1-1.1l8.1,2.9l8.1-0.2l8.1,2.2l8.1,1l8.1,0.1l8.1,3.8l8.1-2.6l8.1-0.5l8.1,2.2l8.1,0l8.1,2l8.1-0.7l8.1,1.8
			l8.1-2.9l8.1,3.1l8.1-2.4l8.1,3.6l8.1-1.1l8.1-1.6l8.1,1.5l8.1-0.4l8.1-1.4l8.1,0.9l8.1-0.4l8.1,1.6l8.1-3.2l8.1-0.8l8.1,2.3
			l8.1-0.2l8.1-1.3l8.1,2.2l8.1-4.5l8.1,0.5l8.1-1.1l8.1-2.1l8.1-0.2l8.1,2.6l8.1-1l8.1-2.6l8.1,2.9l8.1-1.4l8.1-0.5l8.1,0.2
			l8.1-1.4l8.1-2.7l8.1,2l8.1,0.4l8.1-4.3l8.1,1.5l8.1,1.4l8.1-3.3l8.1-0.8l8.1,1.8l8.1-1.6l8.1,0.6l8.1-3.5l8.1-0.4l8.1,1.6
			l8.1-3.7l8.1-0.6l8.1-2.1l8.1,0.9l8.1-1.4l8.1-2l8.1,0.4l8.1-1.7l8.1-0.5l8.1,1.9l8.1-1.5l8.1-1.8l8.1,0.9l8.1,1.3l8.1,0l8.1-6.2
			l8.1,3.1l8.1-0.3l8.1-1.5l8.1,0.2l8.1-2.4l8.1-2.3l8.1,1.9l8.1-0.9l8.1,4.1l8.1,5.7l8.1,0.7V217l0,0h-8.1h-8.1h-8.1h-8.1h-8.1H883
			h-8.1h-8.1h-8.1h-8.1h-8.1h-8.1h-8.1h-8.1h-8.1h-8.1H794h-8.1h-8.1h-8.1h-8.1h-8.1h-8.1h-8.1h-8.1h-8.1h-8.1H705h-8.1h-8.1h-8.1
			h-8.1h-8.1h-8.1h-8.1h-8.1h-8.1h-8.1H616h-8.1h-8.1h-8.1h-8.1h-8.1h-8.1h-8.1h-8.1h-8.1H535H527h-8.1h-8.1h-8.1h-8.1h-8.1h-8.1
			h-8.1h-8.1h-8.1H446H438h-8.1h-8.1h-8.1h-8.1h-8.1h-8.1h-8.1h-8.1h-8.1H357H349h-8.1h-8.1h-8.1h-8.1h-8.1h-8.1h-8.1h-8.1h-8.1H268
			H260h-8.1h-8.1h-8.1h-8.1h-8.1h-8.1h-8.1h-8.1h-8.1H179H171h-8.1h-8.1h-8.1h-8.1H130.5z"/>
	</g>
</g>
<g id="patch_5">
	<path class="st15" d="M130.5,512.6h809.1"/>
</g>
</svg>
