<?xml version="1.0" encoding="utf-8" standalone="no"?>
<!DOCTYPE svg PUBLIC "-//W3C//DTD SVG 1.1//EN"
  "http://www.w3.org/Graphics/SVG/1.1/DTD/svg11.dtd">
<!-- Created with matplotlib (https://matplotlib.org/) -->
<svg height="576pt" version="1.1" viewBox="0 0 1044 576" width="1044pt" xmlns="http://www.w3.org/2000/svg" xmlns:xlink="http://www.w3.org/1999/xlink">
 <defs>
  <style type="text/css">
*{stroke-linecap:butt;stroke-linejoin:round;}
  </style>
 </defs>
 <g id="figure_1">
  <g id="patch_1">
   <path d="M 0 576 
L 1044 576 
L 1044 0 
L 0 0 
z
" style="fill:#ffffff;"/>
  </g>
  <g id="axes_1">
   <g id="patch_2">
    <path d="M 130.5 468.288 
L 939.6 468.288 
L 939.6 113.472 
L 130.5 113.472 
z
" style="fill:#ffffff;"/>
   </g>
   <g id="matplotlib.axis_1">
    <g id="xtick_1">
     <g id="line2d_1">
      <defs>
       <path d="M 0 0 
L 0 3.5 
" id="m6fa5e2000b" style="stroke:#000000;stroke-width:0.8;"/>
      </defs>
      <g>
       <use style="stroke:#000000;stroke-width:0.8;" x="130.5" xlink:href="#m6fa5e2000b" y="468.288"/>
      </g>
     </g>
     <g id="text_1">
      <!-- 0 -->
      <defs>
       <path d="M 31.78125 66.40625 
Q 24.171875 66.40625 20.328125 58.90625 
Q 16.5 51.421875 16.5 36.375 
Q 16.5 21.390625 20.328125 13.890625 
Q 24.171875 6.390625 31.78125 6.390625 
Q 39.453125 6.390625 43.28125 13.890625 
Q 47.125 21.390625 47.125 36.375 
Q 47.125 51.421875 43.28125 58.90625 
Q 39.453125 66.40625 31.78125 66.40625 
z
M 31.78125 74.21875 
Q 44.046875 74.21875 50.515625 64.515625 
Q 56.984375 54.828125 56.984375 36.375 
Q 56.984375 17.96875 50.515625 8.265625 
Q 44.046875 -1.421875 31.78125 -1.421875 
Q 19.53125 -1.421875 13.0625 8.265625 
Q 6.59375 17.96875 6.59375 36.375 
Q 6.59375 54.828125 13.0625 64.515625 
Q 19.53125 74.21875 31.78125 74.21875 
z
" id="DejaVuSans-48"/>
      </defs>
      <g transform="translate(127.31875 482.886437)scale(0.1 -0.1)">
       <use xlink:href="#DejaVuSans-48"/>
      </g>
     </g>
    </g>
    <g id="xtick_2">
     <g id="line2d_2">
      <g>
       <use style="stroke:#000000;stroke-width:0.8;" x="292.32" xlink:href="#m6fa5e2000b" y="468.288"/>
      </g>
     </g>
     <g id="text_2">
      <!-- 20 -->
      <defs>
       <path d="M 19.1875 8.296875 
L 53.609375 8.296875 
L 53.609375 0 
L 7.328125 0 
L 7.328125 8.296875 
Q 12.9375 14.109375 22.625 23.890625 
Q 32.328125 33.6875 34.8125 36.53125 
Q 39.546875 41.84375 41.421875 45.53125 
Q 43.3125 49.21875 43.3125 52.78125 
Q 43.3125 58.59375 39.234375 62.25 
Q 35.15625 65.921875 28.609375 65.921875 
Q 23.96875 65.921875 18.8125 64.3125 
Q 13.671875 62.703125 7.8125 59.421875 
L 7.8125 69.390625 
Q 13.765625 71.78125 18.9375 73 
Q 24.125 74.21875 28.421875 74.21875 
Q 39.75 74.21875 46.484375 68.546875 
Q 53.21875 62.890625 53.21875 53.421875 
Q 53.21875 48.921875 51.53125 44.890625 
Q 49.859375 40.875 45.40625 35.40625 
Q 44.1875 33.984375 37.640625 27.21875 
Q 31.109375 20.453125 19.1875 8.296875 
z
" id="DejaVuSans-50"/>
      </defs>
      <g transform="translate(285.9575 482.886437)scale(0.1 -0.1)">
       <use xlink:href="#DejaVuSans-50"/>
       <use x="63.623047" xlink:href="#DejaVuSans-48"/>
      </g>
     </g>
    </g>
    <g id="xtick_3">
     <g id="line2d_3">
      <g>
       <use style="stroke:#000000;stroke-width:0.8;" x="454.14" xlink:href="#m6fa5e2000b" y="468.288"/>
      </g>
     </g>
     <g id="text_3">
      <!-- 40 -->
      <defs>
       <path d="M 37.796875 64.3125 
L 12.890625 25.390625 
L 37.796875 25.390625 
z
M 35.203125 72.90625 
L 47.609375 72.90625 
L 47.609375 25.390625 
L 58.015625 25.390625 
L 58.015625 17.1875 
L 47.609375 17.1875 
L 47.609375 0 
L 37.796875 0 
L 37.796875 17.1875 
L 4.890625 17.1875 
L 4.890625 26.703125 
z
" id="DejaVuSans-52"/>
      </defs>
      <g transform="translate(447.7775 482.886437)scale(0.1 -0.1)">
       <use xlink:href="#DejaVuSans-52"/>
       <use x="63.623047" xlink:href="#DejaVuSans-48"/>
      </g>
     </g>
    </g>
    <g id="xtick_4">
     <g id="line2d_4">
      <g>
       <use style="stroke:#000000;stroke-width:0.8;" x="615.96" xlink:href="#m6fa5e2000b" y="468.288"/>
      </g>
     </g>
     <g id="text_4">
      <!-- 60 -->
      <defs>
       <path d="M 33.015625 40.375 
Q 26.375 40.375 22.484375 35.828125 
Q 18.609375 31.296875 18.609375 23.390625 
Q 18.609375 15.53125 22.484375 10.953125 
Q 26.375 6.390625 33.015625 6.390625 
Q 39.65625 6.390625 43.53125 10.953125 
Q 47.40625 15.53125 47.40625 23.390625 
Q 47.40625 31.296875 43.53125 35.828125 
Q 39.65625 40.375 33.015625 40.375 
z
M 52.59375 71.296875 
L 52.59375 62.3125 
Q 48.875 64.0625 45.09375 64.984375 
Q 41.3125 65.921875 37.59375 65.921875 
Q 27.828125 65.921875 22.671875 59.328125 
Q 17.53125 52.734375 16.796875 39.40625 
Q 19.671875 43.65625 24.015625 45.921875 
Q 28.375 48.1875 33.59375 48.1875 
Q 44.578125 48.1875 50.953125 41.515625 
Q 57.328125 34.859375 57.328125 23.390625 
Q 57.328125 12.15625 50.6875 5.359375 
Q 44.046875 -1.421875 33.015625 -1.421875 
Q 20.359375 -1.421875 13.671875 8.265625 
Q 6.984375 17.96875 6.984375 36.375 
Q 6.984375 53.65625 15.1875 63.9375 
Q 23.390625 74.21875 37.203125 74.21875 
Q 40.921875 74.21875 44.703125 73.484375 
Q 48.484375 72.75 52.59375 71.296875 
z
" id="DejaVuSans-54"/>
      </defs>
      <g transform="translate(609.5975 482.886437)scale(0.1 -0.1)">
       <use xlink:href="#DejaVuSans-54"/>
       <use x="63.623047" xlink:href="#DejaVuSans-48"/>
      </g>
     </g>
    </g>
    <g id="xtick_5">
     <g id="line2d_5">
      <g>
       <use style="stroke:#000000;stroke-width:0.8;" x="777.78" xlink:href="#m6fa5e2000b" y="468.288"/>
      </g>
     </g>
     <g id="text_5">
      <!-- 80 -->
      <defs>
       <path d="M 31.78125 34.625 
Q 24.75 34.625 20.71875 30.859375 
Q 16.703125 27.09375 16.703125 20.515625 
Q 16.703125 13.921875 20.71875 10.15625 
Q 24.75 6.390625 31.78125 6.390625 
Q 38.8125 6.390625 42.859375 10.171875 
Q 46.921875 13.96875 46.921875 20.515625 
Q 46.921875 27.09375 42.890625 30.859375 
Q 38.875 34.625 31.78125 34.625 
z
M 21.921875 38.8125 
Q 15.578125 40.375 12.03125 44.71875 
Q 8.5 49.078125 8.5 55.328125 
Q 8.5 64.0625 14.71875 69.140625 
Q 20.953125 74.21875 31.78125 74.21875 
Q 42.671875 74.21875 48.875 69.140625 
Q 55.078125 64.0625 55.078125 55.328125 
Q 55.078125 49.078125 51.53125 44.71875 
Q 48 40.375 41.703125 38.8125 
Q 48.828125 37.15625 52.796875 32.3125 
Q 56.78125 27.484375 56.78125 20.515625 
Q 56.78125 9.90625 50.3125 4.234375 
Q 43.84375 -1.421875 31.78125 -1.421875 
Q 19.734375 -1.421875 13.25 4.234375 
Q 6.78125 9.90625 6.78125 20.515625 
Q 6.78125 27.484375 10.78125 32.3125 
Q 14.796875 37.15625 21.921875 38.8125 
z
M 18.3125 54.390625 
Q 18.3125 48.734375 21.84375 45.5625 
Q 25.390625 42.390625 31.78125 42.390625 
Q 38.140625 42.390625 41.71875 45.5625 
Q 45.3125 48.734375 45.3125 54.390625 
Q 45.3125 60.0625 41.71875 63.234375 
Q 38.140625 66.40625 31.78125 66.40625 
Q 25.390625 66.40625 21.84375 63.234375 
Q 18.3125 60.0625 18.3125 54.390625 
z
" id="DejaVuSans-56"/>
      </defs>
      <g transform="translate(771.4175 482.886437)scale(0.1 -0.1)">
       <use xlink:href="#DejaVuSans-56"/>
       <use x="63.623047" xlink:href="#DejaVuSans-48"/>
      </g>
     </g>
    </g>
    <g id="xtick_6">
     <g id="line2d_6">
      <g>
       <use style="stroke:#000000;stroke-width:0.8;" x="939.6" xlink:href="#m6fa5e2000b" y="468.288"/>
      </g>
     </g>
     <g id="text_6">
      <!-- 100 -->
      <defs>
       <path d="M 12.40625 8.296875 
L 28.515625 8.296875 
L 28.515625 63.921875 
L 10.984375 60.40625 
L 10.984375 69.390625 
L 28.421875 72.90625 
L 38.28125 72.90625 
L 38.28125 8.296875 
L 54.390625 8.296875 
L 54.390625 0 
L 12.40625 0 
z
" id="DejaVuSans-49"/>
      </defs>
      <g transform="translate(930.05625 482.886437)scale(0.1 -0.1)">
       <use xlink:href="#DejaVuSans-49"/>
       <use x="63.623047" xlink:href="#DejaVuSans-48"/>
       <use x="127.246094" xlink:href="#DejaVuSans-48"/>
      </g>
     </g>
    </g>
    <g id="text_7">
     <!-- Shortage magnitude percentile -->
     <defs>
      <path d="M 53.515625 70.515625 
L 53.515625 60.890625 
Q 47.90625 63.578125 42.921875 64.890625 
Q 37.9375 66.21875 33.296875 66.21875 
Q 25.25 66.21875 20.875 63.09375 
Q 16.5 59.96875 16.5 54.203125 
Q 16.5 49.359375 19.40625 46.890625 
Q 22.3125 44.4375 30.421875 42.921875 
L 36.375 41.703125 
Q 47.40625 39.59375 52.65625 34.296875 
Q 57.90625 29 57.90625 20.125 
Q 57.90625 9.515625 50.796875 4.046875 
Q 43.703125 -1.421875 29.984375 -1.421875 
Q 24.8125 -1.421875 18.96875 -0.25 
Q 13.140625 0.921875 6.890625 3.21875 
L 6.890625 13.375 
Q 12.890625 10.015625 18.65625 8.296875 
Q 24.421875 6.59375 29.984375 6.59375 
Q 38.421875 6.59375 43.015625 9.90625 
Q 47.609375 13.234375 47.609375 19.390625 
Q 47.609375 24.75 44.3125 27.78125 
Q 41.015625 30.8125 33.5 32.328125 
L 27.484375 33.5 
Q 16.453125 35.6875 11.515625 40.375 
Q 6.59375 45.0625 6.59375 53.421875 
Q 6.59375 63.09375 13.40625 68.65625 
Q 20.21875 74.21875 32.171875 74.21875 
Q 37.3125 74.21875 42.625 73.28125 
Q 47.953125 72.359375 53.515625 70.515625 
z
" id="DejaVuSans-83"/>
      <path d="M 54.890625 33.015625 
L 54.890625 0 
L 45.90625 0 
L 45.90625 32.71875 
Q 45.90625 40.484375 42.875 44.328125 
Q 39.84375 48.1875 33.796875 48.1875 
Q 26.515625 48.1875 22.3125 43.546875 
Q 18.109375 38.921875 18.109375 30.90625 
L 18.109375 0 
L 9.078125 0 
L 9.078125 75.984375 
L 18.109375 75.984375 
L 18.109375 46.1875 
Q 21.34375 51.125 25.703125 53.5625 
Q 30.078125 56 35.796875 56 
Q 45.21875 56 50.046875 50.171875 
Q 54.890625 44.34375 54.890625 33.015625 
z
" id="DejaVuSans-104"/>
      <path d="M 30.609375 48.390625 
Q 23.390625 48.390625 19.1875 42.75 
Q 14.984375 37.109375 14.984375 27.296875 
Q 14.984375 17.484375 19.15625 11.84375 
Q 23.34375 6.203125 30.609375 6.203125 
Q 37.796875 6.203125 41.984375 11.859375 
Q 46.1875 17.53125 46.1875 27.296875 
Q 46.1875 37.015625 41.984375 42.703125 
Q 37.796875 48.390625 30.609375 48.390625 
z
M 30.609375 56 
Q 42.328125 56 49.015625 48.375 
Q 55.71875 40.765625 55.71875 27.296875 
Q 55.71875 13.875 49.015625 6.21875 
Q 42.328125 -1.421875 30.609375 -1.421875 
Q 18.84375 -1.421875 12.171875 6.21875 
Q 5.515625 13.875 5.515625 27.296875 
Q 5.515625 40.765625 12.171875 48.375 
Q 18.84375 56 30.609375 56 
z
" id="DejaVuSans-111"/>
      <path d="M 41.109375 46.296875 
Q 39.59375 47.171875 37.8125 47.578125 
Q 36.03125 48 33.890625 48 
Q 26.265625 48 22.1875 43.046875 
Q 18.109375 38.09375 18.109375 28.8125 
L 18.109375 0 
L 9.078125 0 
L 9.078125 54.6875 
L 18.109375 54.6875 
L 18.109375 46.1875 
Q 20.953125 51.171875 25.484375 53.578125 
Q 30.03125 56 36.53125 56 
Q 37.453125 56 38.578125 55.875 
Q 39.703125 55.765625 41.0625 55.515625 
z
" id="DejaVuSans-114"/>
      <path d="M 18.3125 70.21875 
L 18.3125 54.6875 
L 36.8125 54.6875 
L 36.8125 47.703125 
L 18.3125 47.703125 
L 18.3125 18.015625 
Q 18.3125 11.328125 20.140625 9.421875 
Q 21.96875 7.515625 27.59375 7.515625 
L 36.8125 7.515625 
L 36.8125 0 
L 27.59375 0 
Q 17.1875 0 13.234375 3.875 
Q 9.28125 7.765625 9.28125 18.015625 
L 9.28125 47.703125 
L 2.6875 47.703125 
L 2.6875 54.6875 
L 9.28125 54.6875 
L 9.28125 70.21875 
z
" id="DejaVuSans-116"/>
      <path d="M 34.28125 27.484375 
Q 23.390625 27.484375 19.1875 25 
Q 14.984375 22.515625 14.984375 16.5 
Q 14.984375 11.71875 18.140625 8.90625 
Q 21.296875 6.109375 26.703125 6.109375 
Q 34.1875 6.109375 38.703125 11.40625 
Q 43.21875 16.703125 43.21875 25.484375 
L 43.21875 27.484375 
z
M 52.203125 31.203125 
L 52.203125 0 
L 43.21875 0 
L 43.21875 8.296875 
Q 40.140625 3.328125 35.546875 0.953125 
Q 30.953125 -1.421875 24.3125 -1.421875 
Q 15.921875 -1.421875 10.953125 3.296875 
Q 6 8.015625 6 15.921875 
Q 6 25.140625 12.171875 29.828125 
Q 18.359375 34.515625 30.609375 34.515625 
L 43.21875 34.515625 
L 43.21875 35.40625 
Q 43.21875 41.609375 39.140625 45 
Q 35.0625 48.390625 27.6875 48.390625 
Q 23 48.390625 18.546875 47.265625 
Q 14.109375 46.140625 10.015625 43.890625 
L 10.015625 52.203125 
Q 14.9375 54.109375 19.578125 55.046875 
Q 24.21875 56 28.609375 56 
Q 40.484375 56 46.34375 49.84375 
Q 52.203125 43.703125 52.203125 31.203125 
z
" id="DejaVuSans-97"/>
      <path d="M 45.40625 27.984375 
Q 45.40625 37.75 41.375 43.109375 
Q 37.359375 48.484375 30.078125 48.484375 
Q 22.859375 48.484375 18.828125 43.109375 
Q 14.796875 37.75 14.796875 27.984375 
Q 14.796875 18.265625 18.828125 12.890625 
Q 22.859375 7.515625 30.078125 7.515625 
Q 37.359375 7.515625 41.375 12.890625 
Q 45.40625 18.265625 45.40625 27.984375 
z
M 54.390625 6.78125 
Q 54.390625 -7.171875 48.1875 -13.984375 
Q 42 -20.796875 29.203125 -20.796875 
Q 24.46875 -20.796875 20.265625 -20.09375 
Q 16.0625 -19.390625 12.109375 -17.921875 
L 12.109375 -9.1875 
Q 16.0625 -11.328125 19.921875 -12.34375 
Q 23.78125 -13.375 27.78125 -13.375 
Q 36.625 -13.375 41.015625 -8.765625 
Q 45.40625 -4.15625 45.40625 5.171875 
L 45.40625 9.625 
Q 42.625 4.78125 38.28125 2.390625 
Q 33.9375 0 27.875 0 
Q 17.828125 0 11.671875 7.65625 
Q 5.515625 15.328125 5.515625 27.984375 
Q 5.515625 40.671875 11.671875 48.328125 
Q 17.828125 56 27.875 56 
Q 33.9375 56 38.28125 53.609375 
Q 42.625 51.21875 45.40625 46.390625 
L 45.40625 54.6875 
L 54.390625 54.6875 
z
" id="DejaVuSans-103"/>
      <path d="M 56.203125 29.59375 
L 56.203125 25.203125 
L 14.890625 25.203125 
Q 15.484375 15.921875 20.484375 11.0625 
Q 25.484375 6.203125 34.421875 6.203125 
Q 39.59375 6.203125 44.453125 7.46875 
Q 49.3125 8.734375 54.109375 11.28125 
L 54.109375 2.78125 
Q 49.265625 0.734375 44.1875 -0.34375 
Q 39.109375 -1.421875 33.890625 -1.421875 
Q 20.796875 -1.421875 13.15625 6.1875 
Q 5.515625 13.8125 5.515625 26.8125 
Q 5.515625 40.234375 12.765625 48.109375 
Q 20.015625 56 32.328125 56 
Q 43.359375 56 49.78125 48.890625 
Q 56.203125 41.796875 56.203125 29.59375 
z
M 47.21875 32.234375 
Q 47.125 39.59375 43.09375 43.984375 
Q 39.0625 48.390625 32.421875 48.390625 
Q 24.90625 48.390625 20.390625 44.140625 
Q 15.875 39.890625 15.1875 32.171875 
z
" id="DejaVuSans-101"/>
      <path id="DejaVuSans-32"/>
      <path d="M 52 44.1875 
Q 55.375 50.25 60.0625 53.125 
Q 64.75 56 71.09375 56 
Q 79.640625 56 84.28125 50.015625 
Q 88.921875 44.046875 88.921875 33.015625 
L 88.921875 0 
L 79.890625 0 
L 79.890625 32.71875 
Q 79.890625 40.578125 77.09375 44.375 
Q 74.3125 48.1875 68.609375 48.1875 
Q 61.625 48.1875 57.5625 43.546875 
Q 53.515625 38.921875 53.515625 30.90625 
L 53.515625 0 
L 44.484375 0 
L 44.484375 32.71875 
Q 44.484375 40.625 41.703125 44.40625 
Q 38.921875 48.1875 33.109375 48.1875 
Q 26.21875 48.1875 22.15625 43.53125 
Q 18.109375 38.875 18.109375 30.90625 
L 18.109375 0 
L 9.078125 0 
L 9.078125 54.6875 
L 18.109375 54.6875 
L 18.109375 46.1875 
Q 21.1875 51.21875 25.484375 53.609375 
Q 29.78125 56 35.6875 56 
Q 41.65625 56 45.828125 52.96875 
Q 50 49.953125 52 44.1875 
z
" id="DejaVuSans-109"/>
      <path d="M 54.890625 33.015625 
L 54.890625 0 
L 45.90625 0 
L 45.90625 32.71875 
Q 45.90625 40.484375 42.875 44.328125 
Q 39.84375 48.1875 33.796875 48.1875 
Q 26.515625 48.1875 22.3125 43.546875 
Q 18.109375 38.921875 18.109375 30.90625 
L 18.109375 0 
L 9.078125 0 
L 9.078125 54.6875 
L 18.109375 54.6875 
L 18.109375 46.1875 
Q 21.34375 51.125 25.703125 53.5625 
Q 30.078125 56 35.796875 56 
Q 45.21875 56 50.046875 50.171875 
Q 54.890625 44.34375 54.890625 33.015625 
z
" id="DejaVuSans-110"/>
      <path d="M 9.421875 54.6875 
L 18.40625 54.6875 
L 18.40625 0 
L 9.421875 0 
z
M 9.421875 75.984375 
L 18.40625 75.984375 
L 18.40625 64.59375 
L 9.421875 64.59375 
z
" id="DejaVuSans-105"/>
      <path d="M 8.5 21.578125 
L 8.5 54.6875 
L 17.484375 54.6875 
L 17.484375 21.921875 
Q 17.484375 14.15625 20.5 10.265625 
Q 23.53125 6.390625 29.59375 6.390625 
Q 36.859375 6.390625 41.078125 11.03125 
Q 45.3125 15.671875 45.3125 23.6875 
L 45.3125 54.6875 
L 54.296875 54.6875 
L 54.296875 0 
L 45.3125 0 
L 45.3125 8.40625 
Q 42.046875 3.421875 37.71875 1 
Q 33.40625 -1.421875 27.6875 -1.421875 
Q 18.265625 -1.421875 13.375 4.4375 
Q 8.5 10.296875 8.5 21.578125 
z
M 31.109375 56 
z
" id="DejaVuSans-117"/>
      <path d="M 45.40625 46.390625 
L 45.40625 75.984375 
L 54.390625 75.984375 
L 54.390625 0 
L 45.40625 0 
L 45.40625 8.203125 
Q 42.578125 3.328125 38.25 0.953125 
Q 33.9375 -1.421875 27.875 -1.421875 
Q 17.96875 -1.421875 11.734375 6.484375 
Q 5.515625 14.40625 5.515625 27.296875 
Q 5.515625 40.1875 11.734375 48.09375 
Q 17.96875 56 27.875 56 
Q 33.9375 56 38.25 53.625 
Q 42.578125 51.265625 45.40625 46.390625 
z
M 14.796875 27.296875 
Q 14.796875 17.390625 18.875 11.75 
Q 22.953125 6.109375 30.078125 6.109375 
Q 37.203125 6.109375 41.296875 11.75 
Q 45.40625 17.390625 45.40625 27.296875 
Q 45.40625 37.203125 41.296875 42.84375 
Q 37.203125 48.484375 30.078125 48.484375 
Q 22.953125 48.484375 18.875 42.84375 
Q 14.796875 37.203125 14.796875 27.296875 
z
" id="DejaVuSans-100"/>
      <path d="M 18.109375 8.203125 
L 18.109375 -20.796875 
L 9.078125 -20.796875 
L 9.078125 54.6875 
L 18.109375 54.6875 
L 18.109375 46.390625 
Q 20.953125 51.265625 25.265625 53.625 
Q 29.59375 56 35.59375 56 
Q 45.5625 56 51.78125 48.09375 
Q 58.015625 40.1875 58.015625 27.296875 
Q 58.015625 14.40625 51.78125 6.484375 
Q 45.5625 -1.421875 35.59375 -1.421875 
Q 29.59375 -1.421875 25.265625 0.953125 
Q 20.953125 3.328125 18.109375 8.203125 
z
M 48.6875 27.296875 
Q 48.6875 37.203125 44.609375 42.84375 
Q 40.53125 48.484375 33.40625 48.484375 
Q 26.265625 48.484375 22.1875 42.84375 
Q 18.109375 37.203125 18.109375 27.296875 
Q 18.109375 17.390625 22.1875 11.75 
Q 26.265625 6.109375 33.40625 6.109375 
Q 40.53125 6.109375 44.609375 11.75 
Q 48.6875 17.390625 48.6875 27.296875 
z
" id="DejaVuSans-112"/>
      <path d="M 48.78125 52.59375 
L 48.78125 44.1875 
Q 44.96875 46.296875 41.140625 47.34375 
Q 37.3125 48.390625 33.40625 48.390625 
Q 24.65625 48.390625 19.8125 42.84375 
Q 14.984375 37.3125 14.984375 27.296875 
Q 14.984375 17.28125 19.8125 11.734375 
Q 24.65625 6.203125 33.40625 6.203125 
Q 37.3125 6.203125 41.140625 7.25 
Q 44.96875 8.296875 48.78125 10.40625 
L 48.78125 2.09375 
Q 45.015625 0.34375 40.984375 -0.53125 
Q 36.96875 -1.421875 32.421875 -1.421875 
Q 20.0625 -1.421875 12.78125 6.34375 
Q 5.515625 14.109375 5.515625 27.296875 
Q 5.515625 40.671875 12.859375 48.328125 
Q 20.21875 56 33.015625 56 
Q 37.15625 56 41.109375 55.140625 
Q 45.0625 54.296875 48.78125 52.59375 
z
" id="DejaVuSans-99"/>
      <path d="M 9.421875 75.984375 
L 18.40625 75.984375 
L 18.40625 0 
L 9.421875 0 
z
" id="DejaVuSans-108"/>
     </defs>
     <g transform="translate(410.13625 501.123625)scale(0.16 -0.16)">
      <use xlink:href="#DejaVuSans-83"/>
      <use x="63.476562" xlink:href="#DejaVuSans-104"/>
      <use x="126.855469" xlink:href="#DejaVuSans-111"/>
      <use x="188.037109" xlink:href="#DejaVuSans-114"/>
      <use x="229.150391" xlink:href="#DejaVuSans-116"/>
      <use x="268.359375" xlink:href="#DejaVuSans-97"/>
      <use x="329.638672" xlink:href="#DejaVuSans-103"/>
      <use x="393.115234" xlink:href="#DejaVuSans-101"/>
      <use x="454.638672" xlink:href="#DejaVuSans-32"/>
      <use x="486.425781" xlink:href="#DejaVuSans-109"/>
      <use x="583.837891" xlink:href="#DejaVuSans-97"/>
      <use x="645.117188" xlink:href="#DejaVuSans-103"/>
      <use x="708.59375" xlink:href="#DejaVuSans-110"/>
      <use x="771.972656" xlink:href="#DejaVuSans-105"/>
      <use x="799.755859" xlink:href="#DejaVuSans-116"/>
      <use x="838.964844" xlink:href="#DejaVuSans-117"/>
      <use x="902.34375" xlink:href="#DejaVuSans-100"/>
      <use x="965.820312" xlink:href="#DejaVuSans-101"/>
      <use x="1027.34375" xlink:href="#DejaVuSans-32"/>
      <use x="1059.130859" xlink:href="#DejaVuSans-112"/>
      <use x="1122.607422" xlink:href="#DejaVuSans-101"/>
      <use x="1184.130859" xlink:href="#DejaVuSans-114"/>
      <use x="1225.212891" xlink:href="#DejaVuSans-99"/>
      <use x="1280.193359" xlink:href="#DejaVuSans-101"/>
      <use x="1341.716797" xlink:href="#DejaVuSans-110"/>
      <use x="1405.095703" xlink:href="#DejaVuSans-116"/>
      <use x="1444.304688" xlink:href="#DejaVuSans-105"/>
      <use x="1472.087891" xlink:href="#DejaVuSans-108"/>
      <use x="1499.871094" xlink:href="#DejaVuSans-101"/>
     </g>
    </g>
   </g>
   <g id="matplotlib.axis_2">
    <g id="ytick_1">
     <g id="line2d_7">
      <defs>
       <path d="M 0 0 
L -3.5 0 
" id="m63c048f7bf" style="stroke:#000000;stroke-width:0.8;"/>
      </defs>
      <g>
       <use style="stroke:#000000;stroke-width:0.8;" x="130.5" xlink:href="#m63c048f7bf" y="468.288"/>
      </g>
     </g>
     <g id="text_8">
      <!-- 0.0 -->
      <defs>
       <path d="M 10.6875 12.40625 
L 21 12.40625 
L 21 0 
L 10.6875 0 
z
" id="DejaVuSans-46"/>
      </defs>
      <g transform="translate(107.596875 472.087219)scale(0.1 -0.1)">
       <use xlink:href="#DejaVuSans-48"/>
       <use x="63.623047" xlink:href="#DejaVuSans-46"/>
       <use x="95.410156" xlink:href="#DejaVuSans-48"/>
      </g>
     </g>
    </g>
    <g id="ytick_2">
     <g id="line2d_8">
      <g>
       <use style="stroke:#000000;stroke-width:0.8;" x="130.5" xlink:href="#m63c048f7bf" y="397.3248"/>
      </g>
     </g>
     <g id="text_9">
      <!-- 0.2 -->
      <g transform="translate(107.596875 401.124019)scale(0.1 -0.1)">
       <use xlink:href="#DejaVuSans-48"/>
       <use x="63.623047" xlink:href="#DejaVuSans-46"/>
       <use x="95.410156" xlink:href="#DejaVuSans-50"/>
      </g>
     </g>
    </g>
    <g id="ytick_3">
     <g id="line2d_9">
      <g>
       <use style="stroke:#000000;stroke-width:0.8;" x="130.5" xlink:href="#m63c048f7bf" y="326.3616"/>
      </g>
     </g>
     <g id="text_10">
      <!-- 0.4 -->
      <g transform="translate(107.596875 330.160819)scale(0.1 -0.1)">
       <use xlink:href="#DejaVuSans-48"/>
       <use x="63.623047" xlink:href="#DejaVuSans-46"/>
       <use x="95.410156" xlink:href="#DejaVuSans-52"/>
      </g>
     </g>
    </g>
    <g id="ytick_4">
     <g id="line2d_10">
      <g>
       <use style="stroke:#000000;stroke-width:0.8;" x="130.5" xlink:href="#m63c048f7bf" y="255.3984"/>
      </g>
     </g>
     <g id="text_11">
      <!-- 0.6 -->
      <g transform="translate(107.596875 259.197619)scale(0.1 -0.1)">
       <use xlink:href="#DejaVuSans-48"/>
       <use x="63.623047" xlink:href="#DejaVuSans-46"/>
       <use x="95.410156" xlink:href="#DejaVuSans-54"/>
      </g>
     </g>
    </g>
    <g id="ytick_5">
     <g id="line2d_11">
      <g>
       <use style="stroke:#000000;stroke-width:0.8;" x="130.5" xlink:href="#m63c048f7bf" y="184.4352"/>
      </g>
     </g>
     <g id="text_12">
      <!-- 0.8 -->
      <g transform="translate(107.596875 188.234419)scale(0.1 -0.1)">
       <use xlink:href="#DejaVuSans-48"/>
       <use x="63.623047" xlink:href="#DejaVuSans-46"/>
       <use x="95.410156" xlink:href="#DejaVuSans-56"/>
      </g>
     </g>
    </g>
    <g id="ytick_6">
     <g id="line2d_12">
      <g>
       <use style="stroke:#000000;stroke-width:0.8;" x="130.5" xlink:href="#m63c048f7bf" y="113.472"/>
      </g>
     </g>
     <g id="text_13">
      <!-- 1.0 -->
      <g transform="translate(107.596875 117.271219)scale(0.1 -0.1)">
       <use xlink:href="#DejaVuSans-49"/>
       <use x="63.623047" xlink:href="#DejaVuSans-46"/>
       <use x="95.410156" xlink:href="#DejaVuSans-48"/>
      </g>
     </g>
    </g>
    <g id="text_14">
     <!-- Variance explained -->
     <defs>
      <path d="M 28.609375 0 
L 0.78125 72.90625 
L 11.078125 72.90625 
L 34.1875 11.53125 
L 57.328125 72.90625 
L 67.578125 72.90625 
L 39.796875 0 
z
" id="DejaVuSans-86"/>
      <path d="M 54.890625 54.6875 
L 35.109375 28.078125 
L 55.90625 0 
L 45.3125 0 
L 29.390625 21.484375 
L 13.484375 0 
L 2.875 0 
L 24.125 28.609375 
L 4.6875 54.6875 
L 15.28125 54.6875 
L 29.78125 35.203125 
L 44.28125 54.6875 
z
" id="DejaVuSans-120"/>
     </defs>
     <g transform="translate(100.269375 367.7475)rotate(-90)scale(0.16 -0.16)">
      <use xlink:href="#DejaVuSans-86"/>
      <use x="68.298828" xlink:href="#DejaVuSans-97"/>
      <use x="129.578125" xlink:href="#DejaVuSans-114"/>
      <use x="170.691406" xlink:href="#DejaVuSans-105"/>
      <use x="198.474609" xlink:href="#DejaVuSans-97"/>
      <use x="259.753906" xlink:href="#DejaVuSans-110"/>
      <use x="323.132812" xlink:href="#DejaVuSans-99"/>
      <use x="378.113281" xlink:href="#DejaVuSans-101"/>
      <use x="439.636719" xlink:href="#DejaVuSans-32"/>
      <use x="471.423828" xlink:href="#DejaVuSans-101"/>
      <use x="532.931641" xlink:href="#DejaVuSans-120"/>
      <use x="592.111328" xlink:href="#DejaVuSans-112"/>
      <use x="655.587891" xlink:href="#DejaVuSans-108"/>
      <use x="683.371094" xlink:href="#DejaVuSans-97"/>
      <use x="744.650391" xlink:href="#DejaVuSans-105"/>
      <use x="772.433594" xlink:href="#DejaVuSans-110"/>
      <use x="835.8125" xlink:href="#DejaVuSans-101"/>
      <use x="897.335938" xlink:href="#DejaVuSans-100"/>
     </g>
    </g>
   </g>
   <g id="line2d_13">
    <path clip-path="url(#p15ad03c6d9)" d="M 130.5 461.371099 
L 138.591 457.448844 
L 146.682 454.97273 
L 154.773 454.181311 
L 162.864 453.12675 
L 170.955 452.375922 
L 179.046 451.019775 
L 187.137 449.976013 
L 195.228 449.178636 
L 203.319 448.273166 
L 211.41 447.232289 
L 219.501 446.544155 
L 227.592 445.703318 
L 235.683 444.663546 
L 243.774 443.865945 
L 251.865 443.231982 
L 259.956 442.361815 
L 268.047 441.393083 
L 276.138 440.296162 
L 284.229 439.068408 
L 292.32 437.833776 
L 300.411 436.821457 
L 308.502 435.623838 
L 316.593 434.422142 
L 324.684 433.047624 
L 332.775 432.011333 
L 340.866 430.831195 
L 348.957 429.70199 
L 357.048 428.389832 
L 365.139 427.17203 
L 373.23 426.098448 
L 381.321 424.71174 
L 389.412 423.579688 
L 397.503 422.460656 
L 405.594 421.339586 
L 413.685 420.236126 
L 421.776 418.910857 
L 429.867 417.506075 
L 437.958 416.242464 
L 446.049 414.940449 
L 454.14 413.682178 
L 462.231 412.245353 
L 470.322 410.811761 
L 478.413 409.417133 
L 486.504 408.028832 
L 494.595 406.55755 
L 502.686 404.888409 
L 510.777 403.43555 
L 518.868 401.985691 
L 526.959 400.435004 
L 535.05 398.922042 
L 543.141 397.571772 
L 551.232 395.999578 
L 559.323 394.410041 
L 567.414 392.81442 
L 575.505 391.38821 
L 583.596 389.850021 
L 591.687 388.310438 
L 599.778 386.888256 
L 607.869 385.548775 
L 615.96 384.071701 
L 624.051 382.606704 
L 632.142 381.115215 
L 640.233 379.713271 
L 648.324 378.495836 
L 656.415 377.109455 
L 664.506 375.722469 
L 672.597 374.412568 
L 680.688 372.93251 
L 688.779 371.665432 
L 696.87 370.308339 
L 704.961 369.033549 
L 713.052 368.017559 
L 721.143 366.84085 
L 729.234 365.690094 
L 737.325 364.673806 
L 745.416 363.361692 
L 753.507 362.205633 
L 761.598 361.184226 
L 769.689 359.983695 
L 777.78 358.931504 
L 785.871 357.748904 
L 793.962 356.950686 
L 802.053 355.837634 
L 810.144 354.775659 
L 818.235 353.569584 
L 826.326 352.255939 
L 834.417 351.394553 
L 842.508 350.598292 
L 850.599 349.864367 
L 858.69 348.743634 
L 866.781 347.447162 
L 874.872 345.24052 
L 882.963 343.076151 
L 891.054 341.053457 
L 899.145 339.170088 
L 907.236 336.540171 
L 915.327 334.089521 
L 923.418 331.740349 
L 931.509 332.871988 
" style="fill:none;stroke:#f18670;stroke-linecap:square;stroke-width:2;"/>
   </g>
   <g id="line2d_14">
    <path clip-path="url(#p15ad03c6d9)" d="M 130.5 468.030664 
L 138.591 467.855292 
L 146.682 467.972009 
L 154.773 468.024492 
L 162.864 468.051948 
L 170.955 468.042311 
L 179.046 467.982214 
L 187.137 467.930526 
L 195.228 467.933188 
L 203.319 467.931575 
L 211.41 467.902354 
L 219.501 467.882281 
L 227.592 467.917033 
L 235.683 467.953056 
L 243.774 467.968844 
L 251.865 467.996171 
L 259.956 468.006144 
L 268.047 467.979171 
L 276.138 467.969913 
L 284.229 467.967334 
L 292.32 467.96981 
L 300.411 467.979342 
L 308.502 467.990156 
L 316.593 467.996023 
L 324.684 468.010356 
L 332.775 468.017981 
L 340.866 467.991228 
L 348.957 467.982143 
L 357.048 467.976865 
L 365.139 467.98378 
L 373.23 467.995618 
L 381.321 467.993444 
L 389.412 467.983349 
L 397.503 467.976716 
L 405.594 467.979248 
L 413.685 467.991546 
L 421.776 468.00264 
L 429.867 468.014932 
L 437.958 468.031496 
L 446.049 468.048473 
L 454.14 468.04828 
L 462.231 468.060504 
L 470.322 468.072466 
L 478.413 468.085199 
L 486.504 468.097459 
L 494.595 468.095515 
L 502.686 468.097847 
L 510.777 468.104847 
L 518.868 468.101869 
L 526.959 468.119287 
L 535.05 468.128423 
L 543.141 468.137617 
L 551.232 468.141594 
L 559.323 468.157463 
L 567.414 468.163079 
L 575.505 468.17113 
L 583.596 468.177334 
L 591.687 468.181803 
L 599.778 468.190123 
L 607.869 468.190984 
L 615.96 468.192611 
L 624.051 468.194182 
L 632.142 468.196459 
L 640.233 468.201533 
L 648.324 468.20593 
L 656.415 468.210701 
L 664.506 468.214187 
L 672.597 468.216892 
L 680.688 468.218065 
L 688.779 468.219805 
L 696.87 468.226032 
L 704.961 468.228559 
L 713.052 468.229964 
L 721.143 468.234334 
L 729.234 468.237807 
L 737.325 468.238884 
L 745.416 468.234374 
L 753.507 468.243493 
L 761.598 468.244489 
L 769.689 468.244402 
L 777.78 468.250699 
L 785.871 468.254026 
L 793.962 468.253691 
L 802.053 468.253566 
L 810.144 468.255086 
L 818.235 468.257388 
L 826.326 468.256838 
L 834.417 468.256506 
L 842.508 468.256211 
L 850.599 468.251585 
L 858.69 468.243662 
L 866.781 468.240794 
L 874.872 468.239587 
L 882.963 468.249005 
L 891.054 468.252746 
L 899.145 468.257224 
L 907.236 468.252913 
L 915.327 468.246809 
L 923.418 468.262079 
L 931.509 468.275311 
" style="fill:none;stroke:#e24d3f;stroke-linecap:square;stroke-width:2;"/>
   </g>
   <g id="line2d_15">
    <path clip-path="url(#p15ad03c6d9)" d="M 130.5 468.236438 
L 138.591 468.266678 
L 146.682 468.286764 
L 154.773 468.287988 
L 162.864 468.287792 
L 170.955 468.287101 
L 179.046 468.278871 
L 187.137 468.271962 
L 195.228 468.269641 
L 203.319 468.261926 
L 211.41 468.259543 
L 219.501 468.261883 
L 227.592 468.260717 
L 235.683 468.255787 
L 243.774 468.251756 
L 251.865 468.254303 
L 259.956 468.261941 
L 268.047 468.268294 
L 276.138 468.267314 
L 284.229 468.272649 
L 292.32 468.278424 
L 300.411 468.27806 
L 308.502 468.271296 
L 316.593 468.277926 
L 324.684 468.280965 
L 332.775 468.281754 
L 340.866 468.284232 
L 348.957 468.284769 
L 357.048 468.28446 
L 365.139 468.281153 
L 373.23 468.282667 
L 381.321 468.282418 
L 389.412 468.284549 
L 397.503 468.28598 
L 405.594 468.286291 
L 413.685 468.286715 
L 421.776 468.287143 
L 429.867 468.287836 
L 437.958 468.287999 
L 446.049 468.287986 
L 454.14 468.287949 
L 462.231 468.287934 
L 470.322 468.287998 
L 478.413 468.287999 
L 486.504 468.287785 
L 494.595 468.287846 
L 502.686 468.28799 
L 510.777 468.287989 
L 518.868 468.287847 
L 526.959 468.28785 
L 535.05 468.287962 
L 543.141 468.287984 
L 551.232 468.287932 
L 559.323 468.287752 
L 567.414 468.287958 
L 575.505 468.287843 
L 583.596 468.287073 
L 591.687 468.286957 
L 599.778 468.287004 
L 607.869 468.286568 
L 615.96 468.286537 
L 624.051 468.286756 
L 632.142 468.287223 
L 640.233 468.287112 
L 648.324 468.287157 
L 656.415 468.287386 
L 664.506 468.2876 
L 672.597 468.287421 
L 680.688 468.286385 
L 688.779 468.286009 
L 696.87 468.285597 
L 704.961 468.283743 
L 713.052 468.283988 
L 721.143 468.281598 
L 729.234 468.279492 
L 737.325 468.278279 
L 745.416 468.275257 
L 753.507 468.273061 
L 761.598 468.267686 
L 769.689 468.257605 
L 777.78 468.24944 
L 785.871 468.24308 
L 793.962 468.244076 
L 802.053 468.232139 
L 810.144 468.215148 
L 818.235 468.202456 
L 826.326 468.194679 
L 834.417 468.188838 
L 842.508 468.184873 
L 850.599 468.187774 
L 858.69 468.192174 
L 866.781 468.191702 
L 874.872 468.180282 
L 882.963 468.170828 
L 891.054 468.142101 
L 899.145 468.114681 
L 907.236 468.109034 
L 915.327 468.092319 
L 923.418 468.01599 
L 931.509 467.924892 
" style="fill:none;stroke:#cf233e;stroke-linecap:square;stroke-width:2;"/>
   </g>
   <g id="line2d_16">
    <path clip-path="url(#p15ad03c6d9)" d="M 130.5 468.107997 
L 138.591 467.90565 
L 146.682 467.867452 
L 154.773 467.896348 
L 162.864 467.95452 
L 170.955 467.950067 
L 179.046 467.990553 
L 187.137 468.015994 
L 195.228 468.043761 
L 203.319 468.044669 
L 211.41 468.02497 
L 219.501 467.995674 
L 227.592 467.952687 
L 235.683 467.924988 
L 243.774 467.91006 
L 251.865 467.890929 
L 259.956 467.887954 
L 268.047 467.886969 
L 276.138 467.895111 
L 284.229 467.901342 
L 292.32 467.917405 
L 300.411 467.933443 
L 308.502 467.941584 
L 316.593 467.934739 
L 324.684 467.942146 
L 332.775 467.927187 
L 340.866 467.938308 
L 348.957 467.919243 
L 357.048 467.936496 
L 365.139 467.930236 
L 373.23 467.935324 
L 381.321 467.94686 
L 389.412 467.959699 
L 397.503 467.981429 
L 405.594 467.989692 
L 413.685 467.990331 
L 421.776 468.001018 
L 429.867 468.003677 
L 437.958 468.006532 
L 446.049 468.008173 
L 454.14 468.010304 
L 462.231 468.010605 
L 470.322 468.023469 
L 478.413 468.032071 
L 486.504 468.0336 
L 494.595 468.052505 
L 502.686 468.060124 
L 510.777 468.074566 
L 518.868 468.071331 
L 526.959 468.074665 
L 535.05 468.083999 
L 543.141 468.091466 
L 551.232 468.108461 
L 559.323 468.112732 
L 567.414 468.12238 
L 575.505 468.131859 
L 583.596 468.139491 
L 591.687 468.142371 
L 599.778 468.13631 
L 607.869 468.138256 
L 615.96 468.142238 
L 624.051 468.151436 
L 632.142 468.16104 
L 640.233 468.169426 
L 648.324 468.174868 
L 656.415 468.178259 
L 664.506 468.186051 
L 672.597 468.199319 
L 680.688 468.215301 
L 688.779 468.228289 
L 696.87 468.232939 
L 704.961 468.232473 
L 713.052 468.232567 
L 721.143 468.229307 
L 729.234 468.234965 
L 737.325 468.238359 
L 745.416 468.246109 
L 753.507 468.250216 
L 761.598 468.246866 
L 769.689 468.248752 
L 777.78 468.24439 
L 785.871 468.251273 
L 793.962 468.25341 
L 802.053 468.248666 
L 810.144 468.251611 
L 818.235 468.255217 
L 826.326 468.253454 
L 834.417 468.249948 
L 842.508 468.247402 
L 850.599 468.250034 
L 858.69 468.25178 
L 866.781 468.258204 
L 874.872 468.256413 
L 882.963 468.251653 
L 891.054 468.253179 
L 899.145 468.251294 
L 907.236 468.252599 
L 915.327 468.241436 
L 923.418 468.246937 
L 931.509 468.260142 
" style="fill:none;stroke:#681e33;stroke-linecap:square;stroke-width:2;"/>
   </g>
   <g id="line2d_17">
    <path clip-path="url(#p15ad03c6d9)" d="M 130.5 468.070754 
L 138.591 468.152813 
L 146.682 468.170554 
L 154.773 468.258214 
L 162.864 468.25656 
L 170.955 468.256437 
L 179.046 468.251679 
L 187.137 468.262173 
L 195.228 468.255127 
L 203.319 468.255856 
L 211.41 468.259201 
L 219.501 468.254883 
L 227.592 468.256628 
L 235.683 468.266846 
L 243.774 468.271638 
L 251.865 468.272196 
L 259.956 468.266824 
L 268.047 468.262524 
L 276.138 468.260479 
L 284.229 468.254744 
L 292.32 468.256214 
L 300.411 468.256456 
L 308.502 468.257188 
L 316.593 468.254511 
L 324.684 468.248096 
L 332.775 468.23408 
L 340.866 468.228304 
L 348.957 468.211217 
L 357.048 468.205082 
L 365.139 468.209358 
L 373.23 468.20645 
L 381.321 468.199862 
L 389.412 468.18331 
L 397.503 468.178771 
L 405.594 468.172576 
L 413.685 468.166711 
L 421.776 468.160665 
L 429.867 468.153743 
L 437.958 468.139576 
L 446.049 468.129991 
L 454.14 468.110221 
L 462.231 468.097532 
L 470.322 468.093901 
L 478.413 468.089238 
L 486.504 468.090059 
L 494.595 468.080409 
L 502.686 468.073459 
L 510.777 468.074053 
L 518.868 468.073764 
L 526.959 468.074859 
L 535.05 468.070963 
L 543.141 468.074092 
L 551.232 468.082169 
L 559.323 468.071885 
L 567.414 468.069111 
L 575.505 468.055301 
L 583.596 468.048841 
L 591.687 468.041729 
L 599.778 468.039066 
L 607.869 468.035438 
L 615.96 468.036807 
L 624.051 468.0488 
L 632.142 468.051257 
L 640.233 468.055712 
L 648.324 468.064911 
L 656.415 468.063329 
L 664.506 468.058405 
L 672.597 468.060735 
L 680.688 468.056094 
L 688.779 468.057498 
L 696.87 468.052907 
L 704.961 468.049227 
L 713.052 468.046613 
L 721.143 468.041281 
L 729.234 468.046921 
L 737.325 468.043461 
L 745.416 468.038928 
L 753.507 468.043483 
L 761.598 468.038242 
L 769.689 468.032137 
L 777.78 468.041344 
L 785.871 468.040958 
L 793.962 468.043344 
L 802.053 468.037672 
L 810.144 468.042479 
L 818.235 468.047706 
L 826.326 468.046922 
L 834.417 468.03863 
L 842.508 468.041164 
L 850.599 468.049147 
L 858.69 468.057788 
L 866.781 468.073465 
L 874.872 468.09121 
L 882.963 468.08594 
L 891.054 468.055821 
L 899.145 468.042136 
L 907.236 468.069601 
L 915.327 468.098926 
L 923.418 468.137752 
L 931.509 468.161985 
" style="fill:none;stroke:#676572;stroke-linecap:square;stroke-width:2;"/>
   </g>
   <g id="line2d_18">
    <path clip-path="url(#p15ad03c6d9)" d="M 130.5 468.282197 
L 138.591 468.18658 
L 146.682 468.135085 
L 154.773 468.08192 
L 162.864 468.021501 
L 170.955 467.962164 
L 179.046 467.969259 
L 187.137 467.912579 
L 195.228 467.828894 
L 203.319 467.787451 
L 211.41 467.801655 
L 219.501 467.774395 
L 227.592 467.769071 
L 235.683 467.78578 
L 243.774 467.797447 
L 251.865 467.799016 
L 259.956 467.782918 
L 268.047 467.776837 
L 276.138 467.741719 
L 284.229 467.696185 
L 292.32 467.700713 
L 300.411 467.703316 
L 308.502 467.718073 
L 316.593 467.697224 
L 324.684 467.685418 
L 332.775 467.662755 
L 340.866 467.663649 
L 348.957 467.650269 
L 357.048 467.632725 
L 365.139 467.649299 
L 373.23 467.665218 
L 381.321 467.658272 
L 389.412 467.665543 
L 397.503 467.666416 
L 405.594 467.659462 
L 413.685 467.659414 
L 421.776 467.661971 
L 429.867 467.671359 
L 437.958 467.688542 
L 446.049 467.694856 
L 454.14 467.68763 
L 462.231 467.674803 
L 470.322 467.676038 
L 478.413 467.685558 
L 486.504 467.684406 
L 494.595 467.677438 
L 502.686 467.666687 
L 510.777 467.641617 
L 518.868 467.638443 
L 526.959 467.624401 
L 535.05 467.62589 
L 543.141 467.626299 
L 551.232 467.626806 
L 559.323 467.618894 
L 567.414 467.625952 
L 575.505 467.66122 
L 583.596 467.674044 
L 591.687 467.665347 
L 599.778 467.654371 
L 607.869 467.650783 
L 615.96 467.658642 
L 624.051 467.663616 
L 632.142 467.66215 
L 640.233 467.661837 
L 648.324 467.660262 
L 656.415 467.674251 
L 664.506 467.664691 
L 672.597 467.652309 
L 680.688 467.651128 
L 688.779 467.64329 
L 696.87 467.64923 
L 704.961 467.663647 
L 713.052 467.664026 
L 721.143 467.669904 
L 729.234 467.666434 
L 737.325 467.644713 
L 745.416 467.651928 
L 753.507 467.629052 
L 761.598 467.574668 
L 769.689 467.519682 
L 777.78 467.520733 
L 785.871 467.513979 
L 793.962 467.49222 
L 802.053 467.47323 
L 810.144 467.461143 
L 818.235 467.457736 
L 826.326 467.459232 
L 834.417 467.467176 
L 842.508 467.466636 
L 850.599 467.446563 
L 858.69 467.429465 
L 866.781 467.412064 
L 874.872 467.374817 
L 882.963 467.300412 
L 891.054 467.208486 
L 899.145 467.102931 
L 907.236 467.038979 
L 915.327 466.94053 
L 923.418 466.91298 
L 931.509 466.910393 
" style="fill:none;stroke:#f3be22;stroke-linecap:square;stroke-width:2;"/>
   </g>
   <g id="line2d_19">
    <path clip-path="url(#p15ad03c6d9)" d="M 130.5 467.546948 
L 138.591 466.827462 
L 146.682 466.907486 
L 154.773 467.04232 
L 162.864 467.091516 
L 170.955 467.07286 
L 179.046 467.121418 
L 187.137 467.134486 
L 195.228 467.089107 
L 203.319 467.041025 
L 211.41 467.036524 
L 219.501 467.037728 
L 227.592 467.053888 
L 235.683 467.086002 
L 243.774 467.112452 
L 251.865 467.115069 
L 259.956 467.097501 
L 268.047 467.087568 
L 276.138 467.074313 
L 284.229 467.060129 
L 292.32 467.065132 
L 300.411 467.07527 
L 308.502 467.02938 
L 316.593 467.030028 
L 324.684 467.048609 
L 332.775 467.019483 
L 340.866 466.996136 
L 348.957 467.002165 
L 357.048 467.003081 
L 365.139 466.963157 
L 373.23 466.940796 
L 381.321 466.923106 
L 389.412 466.883136 
L 397.503 466.841428 
L 405.594 466.804019 
L 413.685 466.778424 
L 421.776 466.745282 
L 429.867 466.731832 
L 437.958 466.716135 
L 446.049 466.675277 
L 454.14 466.632143 
L 462.231 466.625577 
L 470.322 466.613883 
L 478.413 466.599462 
L 486.504 466.57646 
L 494.595 466.59242 
L 502.686 466.589466 
L 510.777 466.565768 
L 518.868 466.543207 
L 526.959 466.535204 
L 535.05 466.539864 
L 543.141 466.498099 
L 551.232 466.49108 
L 559.323 466.513364 
L 567.414 466.526701 
L 575.505 466.510222 
L 583.596 466.511443 
L 591.687 466.514056 
L 599.778 466.498288 
L 607.869 466.495662 
L 615.96 466.495589 
L 624.051 466.499712 
L 632.142 466.526719 
L 640.233 466.537444 
L 648.324 466.505527 
L 656.415 466.491801 
L 664.506 466.513988 
L 672.597 466.528864 
L 680.688 466.526529 
L 688.779 466.514207 
L 696.87 466.502448 
L 704.961 466.532707 
L 713.052 466.54645 
L 721.143 466.574761 
L 729.234 466.606992 
L 737.325 466.654537 
L 745.416 466.722683 
L 753.507 466.743602 
L 761.598 466.753958 
L 769.689 466.767417 
L 777.78 466.790456 
L 785.871 466.829985 
L 793.962 466.849124 
L 802.053 466.880196 
L 810.144 466.946855 
L 818.235 467.007856 
L 826.326 467.043263 
L 834.417 467.095678 
L 842.508 467.159617 
L 850.599 467.22674 
L 858.69 467.308901 
L 866.781 467.393499 
L 874.872 467.467542 
L 882.963 467.54737 
L 891.054 467.600542 
L 899.145 467.670895 
L 907.236 467.761822 
L 915.327 467.850917 
L 923.418 468.025494 
L 931.509 468.182425 
" style="fill:none;stroke:#59deba;stroke-linecap:square;stroke-width:2;"/>
   </g>
   <g id="line2d_20">
    <path clip-path="url(#p15ad03c6d9)" d="M 130.5 449.769222 
L 138.591 439.957725 
L 146.682 433.860436 
L 154.773 430.306569 
L 162.864 426.734884 
L 170.955 423.362885 
L 179.046 420.403409 
L 187.137 418.230835 
L 195.228 416.379252 
L 203.319 414.955028 
L 211.41 413.510894 
L 219.501 412.405759 
L 227.592 411.332344 
L 235.683 410.34364 
L 243.774 409.472563 
L 251.865 408.500324 
L 259.956 407.705769 
L 268.047 406.820293 
L 276.138 405.986765 
L 284.229 405.371041 
L 292.32 404.568238 
L 300.411 404.029579 
L 308.502 403.305632 
L 316.593 402.477007 
L 324.684 401.581965 
L 332.775 400.471267 
L 340.866 399.705874 
L 348.957 398.882037 
L 357.048 397.964196 
L 365.139 397.072014 
L 373.23 396.243166 
L 381.321 395.500999 
L 389.412 394.727812 
L 397.503 393.75895 
L 405.594 392.736935 
L 413.685 391.653304 
L 421.776 390.820444 
L 429.867 390.109449 
L 437.958 389.390945 
L 446.049 388.610432 
L 454.14 387.710956 
L 462.231 386.774178 
L 470.322 385.907683 
L 478.413 385.024764 
L 486.504 384.056259 
L 494.595 382.862569 
L 502.686 381.952571 
L 510.777 380.976711 
L 518.868 380.120947 
L 526.959 379.364237 
L 535.05 378.163636 
L 543.141 377.400478 
L 551.232 376.355338 
L 559.323 375.272659 
L 567.414 374.393948 
L 575.505 373.563465 
L 583.596 372.401923 
L 591.687 371.590354 
L 599.778 370.677019 
L 607.869 369.796608 
L 615.96 368.794691 
L 624.051 367.912924 
L 632.142 367.030286 
L 640.233 366.087539 
L 648.324 365.145436 
L 656.415 364.340959 
L 664.506 363.513731 
L 672.597 362.684294 
L 680.688 361.736941 
L 688.779 360.706464 
L 696.87 359.709816 
L 704.961 358.503958 
L 713.052 357.288087 
L 721.143 356.153248 
L 729.234 354.988702 
L 737.325 353.821029 
L 745.416 352.836957 
L 753.507 351.823108 
L 761.598 350.526202 
L 769.689 349.529626 
L 777.78 348.229746 
L 785.871 346.98208 
L 793.962 345.419824 
L 802.053 344.093409 
L 810.144 342.695134 
L 818.235 341.359238 
L 826.326 340.282811 
L 834.417 338.804966 
L 842.508 337.113259 
L 850.599 335.340184 
L 858.69 333.936108 
L 866.781 333.108974 
L 874.872 333.044849 
L 882.963 332.676243 
L 891.054 332.909652 
L 899.145 333.774124 
L 907.236 335.803214 
L 915.327 339.587358 
L 923.418 345.081206 
L 931.509 352.652949 
" style="fill:none;stroke:#14015c;stroke-linecap:square;stroke-width:2;"/>
   </g>
   <g id="line2d_21">
    <path clip-path="url(#p15ad03c6d9)" d="M 130.5 467.828718 
L 138.591 467.59674 
L 146.682 467.58598 
L 154.773 467.498774 
L 162.864 467.568518 
L 170.955 467.618133 
L 179.046 467.603912 
L 187.137 467.556971 
L 195.228 467.564939 
L 203.319 467.589169 
L 211.41 467.62406 
L 219.501 467.671541 
L 227.592 467.688633 
L 235.683 467.68623 
L 243.774 467.701231 
L 251.865 467.733402 
L 259.956 467.749035 
L 268.047 467.761216 
L 276.138 467.761554 
L 284.229 467.75393 
L 292.32 467.755781 
L 300.411 467.733939 
L 308.502 467.762639 
L 316.593 467.771338 
L 324.684 467.775031 
L 332.775 467.765068 
L 340.866 467.785286 
L 348.957 467.801317 
L 357.048 467.830241 
L 365.139 467.85227 
L 373.23 467.854253 
L 381.321 467.885097 
L 389.412 467.916991 
L 397.503 467.932342 
L 405.594 467.949435 
L 413.685 467.976173 
L 421.776 468.006234 
L 429.867 468.024483 
L 437.958 468.045062 
L 446.049 468.061663 
L 454.14 468.077229 
L 462.231 468.095336 
L 470.322 468.107572 
L 478.413 468.126038 
L 486.504 468.145861 
L 494.595 468.172182 
L 502.686 468.184319 
L 510.777 468.20535 
L 518.868 468.2284 
L 526.959 468.234337 
L 535.05 468.244314 
L 543.141 468.25572 
L 551.232 468.262733 
L 559.323 468.275083 
L 567.414 468.283064 
L 575.505 468.285515 
L 583.596 468.287912 
L 591.687 468.287427 
L 599.778 468.283869 
L 607.869 468.2782 
L 615.96 468.2705 
L 624.051 468.257942 
L 632.142 468.240377 
L 640.233 468.217948 
L 648.324 468.196136 
L 656.415 468.164191 
L 664.506 468.124308 
L 672.597 468.083301 
L 680.688 468.043134 
L 688.779 468.00137 
L 696.87 467.945031 
L 704.961 467.886669 
L 713.052 467.832915 
L 721.143 467.754243 
L 729.234 467.661615 
L 737.325 467.561127 
L 745.416 467.457189 
L 753.507 467.337056 
L 761.598 467.238796 
L 769.689 467.120061 
L 777.78 466.950278 
L 785.871 466.774303 
L 793.962 466.612418 
L 802.053 466.441948 
L 810.144 466.263207 
L 818.235 466.078327 
L 826.326 465.889491 
L 834.417 465.641837 
L 842.508 465.372444 
L 850.599 465.092446 
L 858.69 464.731953 
L 866.781 464.36557 
L 874.872 464.020365 
L 882.963 463.596232 
L 891.054 463.004127 
L 899.145 462.45898 
L 907.236 461.880211 
L 915.327 461.313907 
L 923.418 460.486357 
L 931.509 459.449047 
" style="fill:none;stroke:#daf8a3;stroke-linecap:square;stroke-width:2;"/>
   </g>
   <g id="line2d_22">
    <path clip-path="url(#p15ad03c6d9)" d="M 130.5 438.096048 
L 138.591 419.681881 
L 146.682 411.924462 
L 154.773 407.042328 
L 162.864 405.220859 
L 170.955 404.162011 
L 179.046 402.520448 
L 187.137 401.343879 
L 195.228 400.098247 
L 203.319 399.148906 
L 211.41 398.054275 
L 219.501 397.721766 
L 227.592 397.845876 
L 235.683 398.069002 
L 243.774 398.028099 
L 251.865 398.256155 
L 259.956 398.531527 
L 268.047 399.215163 
L 276.138 400.127571 
L 284.229 400.900769 
L 292.32 401.774146 
L 300.411 402.496846 
L 308.502 403.616597 
L 316.593 404.883196 
L 324.684 406.076763 
L 332.775 407.306214 
L 340.866 408.591206 
L 348.957 409.927023 
L 357.048 410.981266 
L 365.139 412.097436 
L 373.23 413.365871 
L 381.321 414.477482 
L 389.412 416.045976 
L 397.503 417.640901 
L 405.594 419.14473 
L 413.685 420.299774 
L 421.776 421.625588 
L 429.867 422.885915 
L 437.958 423.911911 
L 446.049 425.057193 
L 454.14 426.256053 
L 462.231 427.35228 
L 470.322 428.378919 
L 478.413 429.391214 
L 486.504 430.540266 
L 494.595 431.744354 
L 502.686 432.868409 
L 510.777 433.900426 
L 518.868 434.784464 
L 526.959 435.791876 
L 535.05 436.947445 
L 543.141 437.629887 
L 551.232 438.639216 
L 559.323 439.533645 
L 567.414 440.41892 
L 575.505 441.203843 
L 583.596 442.014445 
L 591.687 442.882464 
L 599.778 443.597368 
L 607.869 444.253358 
L 615.96 444.999758 
L 624.051 445.839462 
L 632.142 446.623204 
L 640.233 447.372249 
L 648.324 448.033483 
L 656.415 448.682906 
L 664.506 449.334747 
L 672.597 449.927256 
L 680.688 450.581895 
L 688.779 451.121304 
L 696.87 451.743639 
L 704.961 452.39105 
L 713.052 452.921632 
L 721.143 453.611052 
L 729.234 454.349838 
L 737.325 454.886873 
L 745.416 455.558815 
L 753.507 456.045478 
L 761.598 456.562554 
L 769.689 457.13415 
L 777.78 457.651154 
L 785.871 458.169329 
L 793.962 458.629752 
L 802.053 458.975471 
L 810.144 459.460159 
L 818.235 459.846424 
L 826.326 460.261234 
L 834.417 460.634983 
L 842.508 460.888136 
L 850.599 461.191052 
L 858.69 461.556891 
L 866.781 461.982391 
L 874.872 462.368572 
L 882.963 462.708216 
L 891.054 463.010616 
L 899.145 463.363089 
L 907.236 463.646423 
L 915.327 464.064536 
L 923.418 464.436844 
L 931.509 465.192262 
" style="fill:none;stroke:#0b7a0a;stroke-linecap:square;stroke-width:2;"/>
   </g>
   <g id="line2d_23">
    <path clip-path="url(#p15ad03c6d9)" d="M 130.5 467.929095 
L 138.591 468.031283 
L 146.682 467.964371 
L 154.773 468.015295 
L 162.864 468.027887 
L 170.955 468.049508 
L 179.046 468.130838 
L 187.137 468.213295 
L 195.228 468.253174 
L 203.319 468.265534 
L 211.41 468.279705 
L 219.501 468.287658 
L 227.592 468.28751 
L 235.683 468.28604 
L 243.774 468.283586 
L 251.865 468.278633 
L 259.956 468.276381 
L 268.047 468.27169 
L 276.138 468.258678 
L 284.229 468.240047 
L 292.32 468.226504 
L 300.411 468.207209 
L 308.502 468.192446 
L 316.593 468.166513 
L 324.684 468.140763 
L 332.775 468.117123 
L 340.866 468.089906 
L 348.957 468.055423 
L 357.048 468.020806 
L 365.139 468.010422 
L 373.23 467.978651 
L 381.321 467.953163 
L 389.412 467.920659 
L 397.503 467.89206 
L 405.594 467.846018 
L 413.685 467.81499 
L 421.776 467.777533 
L 429.867 467.73644 
L 437.958 467.706771 
L 446.049 467.669739 
L 454.14 467.638486 
L 462.231 467.620879 
L 470.322 467.594183 
L 478.413 467.568065 
L 486.504 467.534261 
L 494.595 467.509405 
L 502.686 467.501668 
L 510.777 467.476076 
L 518.868 467.433784 
L 526.959 467.43102 
L 535.05 467.429152 
L 543.141 467.420793 
L 551.232 467.40382 
L 559.323 467.360913 
L 567.414 467.325502 
L 575.505 467.294732 
L 583.596 467.275548 
L 591.687 467.26653 
L 599.778 467.285866 
L 607.869 467.307937 
L 615.96 467.303917 
L 624.051 467.268857 
L 632.142 467.24951 
L 640.233 467.232055 
L 648.324 467.227647 
L 656.415 467.224689 
L 664.506 467.215581 
L 672.597 467.206806 
L 680.688 467.203528 
L 688.779 467.206794 
L 696.87 467.217831 
L 704.961 467.17962 
L 713.052 467.145657 
L 721.143 467.107168 
L 729.234 467.091651 
L 737.325 467.091437 
L 745.416 467.101687 
L 753.507 467.086403 
L 761.598 467.075873 
L 769.689 467.073299 
L 777.78 467.063254 
L 785.871 467.069142 
L 793.962 467.070211 
L 802.053 467.060396 
L 810.144 467.074406 
L 818.235 467.073175 
L 826.326 467.071399 
L 834.417 467.049599 
L 842.508 467.028472 
L 850.599 466.964219 
L 858.69 466.903058 
L 866.781 466.885287 
L 874.872 466.899892 
L 882.963 466.896536 
L 891.054 466.94863 
L 899.145 466.940073 
L 907.236 467.012933 
L 915.327 467.077458 
L 923.418 467.059339 
L 931.509 467.052031 
" style="fill:none;stroke:#f8ffa2;stroke-linecap:square;stroke-width:2;"/>
   </g>
   <g id="line2d_24">
    <path clip-path="url(#p15ad03c6d9)" d="M 130.5 458.627537 
L 138.591 453.33875 
L 146.682 449.009523 
L 154.773 446.32177 
L 162.864 444.080102 
L 170.955 443.183273 
L 179.046 442.304473 
L 187.137 441.413314 
L 195.228 440.713404 
L 203.319 440.075773 
L 211.41 439.609185 
L 219.501 438.996896 
L 227.592 438.289212 
L 235.683 437.873158 
L 243.774 437.568179 
L 251.865 437.247822 
L 259.956 436.965281 
L 268.047 436.365172 
L 276.138 435.943604 
L 284.229 435.651456 
L 292.32 435.37912 
L 300.411 435.12173 
L 308.502 434.752401 
L 316.593 434.512872 
L 324.684 434.428597 
L 332.775 434.170681 
L 340.866 434.263215 
L 348.957 434.033863 
L 357.048 434.038459 
L 365.139 434.151947 
L 373.23 434.077909 
L 381.321 434.150058 
L 389.412 434.068275 
L 397.503 434.075889 
L 405.594 434.211752 
L 413.685 434.333558 
L 421.776 434.433942 
L 429.867 434.575009 
L 437.958 434.791635 
L 446.049 435.018369 
L 454.14 435.054312 
L 462.231 435.104909 
L 470.322 435.267746 
L 478.413 435.456405 
L 486.504 435.768137 
L 494.595 436.169019 
L 502.686 436.536935 
L 510.777 436.765801 
L 518.868 437.017722 
L 526.959 437.513555 
L 535.05 437.728698 
L 543.141 437.95175 
L 551.232 438.266934 
L 559.323 438.394435 
L 567.414 438.683635 
L 575.505 438.981881 
L 583.596 439.399902 
L 591.687 439.680162 
L 599.778 439.892343 
L 607.869 440.078351 
L 615.96 440.333252 
L 624.051 440.667809 
L 632.142 441.003517 
L 640.233 441.344568 
L 648.324 441.729758 
L 656.415 442.142561 
L 664.506 442.444016 
L 672.597 442.668783 
L 680.688 442.957321 
L 688.779 443.282149 
L 696.87 443.78595 
L 704.961 444.112259 
L 713.052 444.439308 
L 721.143 444.827425 
L 729.234 445.224087 
L 737.325 445.47838 
L 745.416 445.650328 
L 753.507 446.00529 
L 761.598 446.378393 
L 769.689 446.729203 
L 777.78 446.942082 
L 785.871 447.2582 
L 793.962 447.613725 
L 802.053 447.971444 
L 810.144 448.210274 
L 818.235 448.443974 
L 826.326 448.744315 
L 834.417 449.194779 
L 842.508 449.682447 
L 850.599 450.087768 
L 858.69 450.621617 
L 866.781 451.308852 
L 874.872 451.821066 
L 882.963 452.437302 
L 891.054 452.96545 
L 899.145 453.532102 
L 907.236 454.557104 
L 915.327 455.350454 
L 923.418 456.827043 
L 931.509 458.000906 
" style="fill:none;stroke:#578dc0;stroke-linecap:square;stroke-width:2;"/>
   </g>
   <g id="line2d_25">
    <path clip-path="url(#p15ad03c6d9)" d="M 130.5 465.938095 
L 138.591 463.059827 
L 146.682 460.972242 
L 154.773 460.182093 
L 162.864 459.220194 
L 170.955 458.504888 
L 179.046 458.128638 
L 187.137 457.593094 
L 195.228 457.077615 
L 203.319 456.516179 
L 211.41 456.166846 
L 219.501 455.925148 
L 227.592 455.552264 
L 235.683 455.194122 
L 243.774 454.83502 
L 251.865 454.526624 
L 259.956 454.202567 
L 268.047 453.939497 
L 276.138 453.84881 
L 284.229 453.820682 
L 292.32 453.644242 
L 300.411 453.491149 
L 308.502 453.417963 
L 316.593 453.634566 
L 324.684 453.526567 
L 332.775 453.507854 
L 340.866 453.57813 
L 348.957 453.56667 
L 357.048 453.553205 
L 365.139 453.565226 
L 373.23 453.635768 
L 381.321 453.557284 
L 389.412 453.504701 
L 397.503 453.473733 
L 405.594 453.423832 
L 413.685 453.397993 
L 421.776 453.412062 
L 429.867 453.429101 
L 437.958 453.406818 
L 446.049 453.408658 
L 454.14 453.377448 
L 462.231 453.373577 
L 470.322 453.419266 
L 478.413 453.579511 
L 486.504 453.560538 
L 494.595 453.590954 
L 502.686 453.680671 
L 510.777 453.646426 
L 518.868 453.662492 
L 526.959 453.58725 
L 535.05 453.67387 
L 543.141 453.626908 
L 551.232 453.754579 
L 559.323 453.889118 
L 567.414 454.077888 
L 575.505 454.126271 
L 583.596 454.213287 
L 591.687 454.292518 
L 599.778 454.363609 
L 607.869 454.458184 
L 615.96 454.615209 
L 624.051 454.792953 
L 632.142 454.946652 
L 640.233 455.115154 
L 648.324 455.229056 
L 656.415 455.261589 
L 664.506 455.330296 
L 672.597 455.490116 
L 680.688 455.607639 
L 688.779 455.678253 
L 696.87 455.825615 
L 704.961 456.047047 
L 713.052 456.20757 
L 721.143 456.409162 
L 729.234 456.62055 
L 737.325 456.730176 
L 745.416 456.880415 
L 753.507 457.032447 
L 761.598 457.248138 
L 769.689 457.361914 
L 777.78 457.596108 
L 785.871 457.793676 
L 793.962 457.951389 
L 802.053 458.213435 
L 810.144 458.442068 
L 818.235 458.763203 
L 826.326 459.080722 
L 834.417 459.361257 
L 842.508 459.655107 
L 850.599 459.979554 
L 858.69 460.255658 
L 866.781 460.564872 
L 874.872 460.966395 
L 882.963 461.420883 
L 891.054 461.939629 
L 899.145 462.346305 
L 907.236 462.751054 
L 915.327 462.985767 
L 923.418 463.498683 
L 931.509 464.151316 
" style="fill:none;stroke:#4e4ad8;stroke-linecap:square;stroke-width:2;"/>
   </g>
   <g id="line2d_26">
    <path clip-path="url(#p15ad03c6d9)" d="M 130.5 450.474478 
L 138.591 441.971364 
L 146.682 441.103742 
L 154.773 441.929504 
L 162.864 443.525768 
L 170.955 444.738744 
L 179.046 445.888038 
L 187.137 447.204195 
L 195.228 448.480991 
L 203.319 449.450969 
L 211.41 450.393512 
L 219.501 451.244065 
L 227.592 452.064288 
L 235.683 453.026635 
L 243.774 453.777796 
L 251.865 454.434197 
L 259.956 455.183253 
L 268.047 455.796681 
L 276.138 456.47137 
L 284.229 456.909987 
L 292.32 457.493088 
L 300.411 457.910105 
L 308.502 458.240903 
L 316.593 458.479337 
L 324.684 458.779064 
L 332.775 459.093365 
L 340.866 459.357819 
L 348.957 459.595558 
L 357.048 459.881978 
L 365.139 460.08226 
L 373.23 460.178668 
L 381.321 460.373706 
L 389.412 460.577768 
L 397.503 460.705535 
L 405.594 460.769908 
L 413.685 460.895174 
L 421.776 460.952081 
L 429.867 460.973919 
L 437.958 461.047443 
L 446.049 461.086269 
L 454.14 461.132883 
L 462.231 461.158694 
L 470.322 461.196021 
L 478.413 461.230529 
L 486.504 461.23026 
L 494.595 461.289714 
L 502.686 461.350606 
L 510.777 461.445131 
L 518.868 461.473936 
L 526.959 461.521614 
L 535.05 461.543413 
L 543.141 461.642348 
L 551.232 461.713912 
L 559.323 461.880667 
L 567.414 461.964857 
L 575.505 462.002969 
L 583.596 462.10484 
L 591.687 462.210714 
L 599.778 462.279083 
L 607.869 462.305327 
L 615.96 462.316659 
L 624.051 462.351611 
L 632.142 462.424476 
L 640.233 462.476958 
L 648.324 462.512722 
L 656.415 462.576538 
L 664.506 462.663343 
L 672.597 462.745127 
L 680.688 462.831098 
L 688.779 462.883313 
L 696.87 462.954774 
L 704.961 463.046331 
L 713.052 463.1383 
L 721.143 463.302921 
L 729.234 463.422956 
L 737.325 463.520828 
L 745.416 463.681438 
L 753.507 463.749166 
L 761.598 463.839017 
L 769.689 463.984431 
L 777.78 464.070718 
L 785.871 464.188345 
L 793.962 464.29954 
L 802.053 464.533257 
L 810.144 464.772795 
L 818.235 464.940928 
L 826.326 465.104696 
L 834.417 465.277072 
L 842.508 465.456984 
L 850.599 465.631101 
L 858.69 465.862336 
L 866.781 466.058095 
L 874.872 466.236451 
L 882.963 466.422228 
L 891.054 466.691418 
L 899.145 466.980757 
L 907.236 467.229806 
L 915.327 467.518432 
L 923.418 467.761272 
L 931.509 467.992513 
" style="fill:none;stroke:#32b3f7;stroke-linecap:square;stroke-width:2;"/>
   </g>
   <g id="patch_3">
    <path d="M 130.5 468.288 
L 130.5 113.472 
" style="fill:none;stroke:#000000;stroke-linecap:square;stroke-linejoin:miter;stroke-width:0.8;"/>
   </g>
   <g id="patch_4">
    <path d="M 939.6 468.288 
L 939.6 113.472 
" style="fill:none;stroke:#000000;stroke-linecap:square;stroke-linejoin:miter;stroke-width:0.8;"/>
   </g>
   <g id="patch_5">
    <path d="M 130.5 468.288 
L 939.6 468.288 
" style="fill:none;stroke:#000000;stroke-linecap:square;stroke-linejoin:miter;stroke-width:0.8;"/>
   </g>
   <g id="patch_6">
    <path d="M 130.5 113.472 
L 939.6 113.472 
" style="fill:none;stroke:#000000;stroke-linecap:square;stroke-linejoin:miter;stroke-width:0.8;"/>
   </g>
   <g id="text_15">
    <!-- R2 -->
    <defs>
     <path d="M 44.390625 34.1875 
Q 47.5625 33.109375 50.5625 29.59375 
Q 53.5625 26.078125 56.59375 19.921875 
L 66.609375 0 
L 56 0 
L 46.6875 18.703125 
Q 43.0625 26.03125 39.671875 28.421875 
Q 36.28125 30.8125 30.421875 30.8125 
L 19.671875 30.8125 
L 19.671875 0 
L 9.8125 0 
L 9.8125 72.90625 
L 32.078125 72.90625 
Q 44.578125 72.90625 50.734375 67.671875 
Q 56.890625 62.453125 56.890625 51.90625 
Q 56.890625 45.015625 53.6875 40.46875 
Q 50.484375 35.9375 44.390625 34.1875 
z
M 19.671875 64.796875 
L 19.671875 38.921875 
L 32.078125 38.921875 
Q 39.203125 38.921875 42.84375 42.21875 
Q 46.484375 45.515625 46.484375 51.90625 
Q 46.484375 58.296875 42.84375 61.546875 
Q 39.203125 64.796875 32.078125 64.796875 
z
" id="DejaVuSans-82"/>
    </defs>
    <g transform="translate(527.063437 107.472)scale(0.12 -0.12)">
     <use xlink:href="#DejaVuSans-82"/>
     <use x="69.482422" xlink:href="#DejaVuSans-50"/>
    </g>
   </g>
   <g id="legend_1">
    <g id="patch_7">
     <path d="M 152.324219 640.696 
L 917.775781 640.696 
Q 919.775781 640.696 919.775781 638.696 
L 919.775781 595.661625 
Q 919.775781 593.661625 917.775781 593.661625 
L 152.324219 593.661625 
Q 150.324219 593.661625 150.324219 595.661625 
L 150.324219 638.696 
Q 150.324219 640.696 152.324219 640.696 
z
" style="fill:#ffffff;opacity:0.8;stroke:#cccccc;stroke-linejoin:miter;"/>
    </g>
    <g id="line2d_27">
     <path style="fill:none;stroke:#f18670;stroke-linecap:square;stroke-width:2;"/>
    </g>
    <g id="line2d_28"/>
    <g id="text_16">
     <!-- IWR demand mutliplier -->
     <defs>
      <path d="M 9.8125 72.90625 
L 19.671875 72.90625 
L 19.671875 0 
L 9.8125 0 
z
" id="DejaVuSans-73"/>
      <path d="M 3.328125 72.90625 
L 13.28125 72.90625 
L 28.609375 11.28125 
L 43.890625 72.90625 
L 54.984375 72.90625 
L 70.3125 11.28125 
L 85.59375 72.90625 
L 95.609375 72.90625 
L 77.296875 0 
L 64.890625 0 
L 49.515625 63.28125 
L 33.984375 0 
L 21.578125 0 
z
" id="DejaVuSans-87"/>
     </defs>
     <g transform="translate(182.324219 605.260063)scale(0.1 -0.1)">
      <use xlink:href="#DejaVuSans-73"/>
      <use x="29.492188" xlink:href="#DejaVuSans-87"/>
      <use x="128.369141" xlink:href="#DejaVuSans-82"/>
      <use x="197.851562" xlink:href="#DejaVuSans-32"/>
      <use x="229.638672" xlink:href="#DejaVuSans-100"/>
      <use x="293.115234" xlink:href="#DejaVuSans-101"/>
      <use x="354.638672" xlink:href="#DejaVuSans-109"/>
      <use x="452.050781" xlink:href="#DejaVuSans-97"/>
      <use x="513.330078" xlink:href="#DejaVuSans-110"/>
      <use x="576.708984" xlink:href="#DejaVuSans-100"/>
      <use x="640.185547" xlink:href="#DejaVuSans-32"/>
      <use x="671.972656" xlink:href="#DejaVuSans-109"/>
      <use x="769.384766" xlink:href="#DejaVuSans-117"/>
      <use x="832.763672" xlink:href="#DejaVuSans-116"/>
      <use x="871.972656" xlink:href="#DejaVuSans-108"/>
      <use x="899.755859" xlink:href="#DejaVuSans-105"/>
      <use x="927.539062" xlink:href="#DejaVuSans-112"/>
      <use x="991.015625" xlink:href="#DejaVuSans-108"/>
      <use x="1018.798828" xlink:href="#DejaVuSans-105"/>
      <use x="1046.582031" xlink:href="#DejaVuSans-101"/>
      <use x="1108.105469" xlink:href="#DejaVuSans-114"/>
     </g>
    </g>
    <g id="line2d_29">
     <path style="fill:none;stroke:#e24d3f;stroke-linecap:square;stroke-width:2;"/>
    </g>
    <g id="line2d_30"/>
    <g id="text_17">
     <!-- Reservoir loss -->
     <defs>
      <path d="M 44.28125 53.078125 
L 44.28125 44.578125 
Q 40.484375 46.53125 36.375 47.5 
Q 32.28125 48.484375 27.875 48.484375 
Q 21.1875 48.484375 17.84375 46.4375 
Q 14.5 44.390625 14.5 40.28125 
Q 14.5 37.15625 16.890625 35.375 
Q 19.28125 33.59375 26.515625 31.984375 
L 29.59375 31.296875 
Q 39.15625 29.25 43.1875 25.515625 
Q 47.21875 21.78125 47.21875 15.09375 
Q 47.21875 7.46875 41.1875 3.015625 
Q 35.15625 -1.421875 24.609375 -1.421875 
Q 20.21875 -1.421875 15.453125 -0.5625 
Q 10.6875 0.296875 5.421875 2 
L 5.421875 11.28125 
Q 10.40625 8.6875 15.234375 7.390625 
Q 20.0625 6.109375 24.8125 6.109375 
Q 31.15625 6.109375 34.5625 8.28125 
Q 37.984375 10.453125 37.984375 14.40625 
Q 37.984375 18.0625 35.515625 20.015625 
Q 33.0625 21.96875 24.703125 23.78125 
L 21.578125 24.515625 
Q 13.234375 26.265625 9.515625 29.90625 
Q 5.8125 33.546875 5.8125 39.890625 
Q 5.8125 47.609375 11.28125 51.796875 
Q 16.75 56 26.8125 56 
Q 31.78125 56 36.171875 55.265625 
Q 40.578125 54.546875 44.28125 53.078125 
z
" id="DejaVuSans-115"/>
      <path d="M 2.984375 54.6875 
L 12.5 54.6875 
L 29.59375 8.796875 
L 46.6875 54.6875 
L 56.203125 54.6875 
L 35.6875 0 
L 23.484375 0 
z
" id="DejaVuSans-118"/>
     </defs>
     <g transform="translate(182.324219 619.938188)scale(0.1 -0.1)">
      <use xlink:href="#DejaVuSans-82"/>
      <use x="69.419922" xlink:href="#DejaVuSans-101"/>
      <use x="130.943359" xlink:href="#DejaVuSans-115"/>
      <use x="183.042969" xlink:href="#DejaVuSans-101"/>
      <use x="244.566406" xlink:href="#DejaVuSans-114"/>
      <use x="285.679688" xlink:href="#DejaVuSans-118"/>
      <use x="344.859375" xlink:href="#DejaVuSans-111"/>
      <use x="406.041016" xlink:href="#DejaVuSans-105"/>
      <use x="433.824219" xlink:href="#DejaVuSans-114"/>
      <use x="474.9375" xlink:href="#DejaVuSans-32"/>
      <use x="506.724609" xlink:href="#DejaVuSans-108"/>
      <use x="534.507812" xlink:href="#DejaVuSans-111"/>
      <use x="595.689453" xlink:href="#DejaVuSans-115"/>
      <use x="647.789062" xlink:href="#DejaVuSans-115"/>
     </g>
    </g>
    <g id="line2d_31">
     <path style="fill:none;stroke:#cf233e;stroke-linecap:square;stroke-width:2;"/>
    </g>
    <g id="line2d_32"/>
    <g id="text_18">
     <!-- TBD demand multiplier -->
     <defs>
      <path d="M -0.296875 72.90625 
L 61.375 72.90625 
L 61.375 64.59375 
L 35.5 64.59375 
L 35.5 0 
L 25.59375 0 
L 25.59375 64.59375 
L -0.296875 64.59375 
z
" id="DejaVuSans-84"/>
      <path d="M 19.671875 34.8125 
L 19.671875 8.109375 
L 35.5 8.109375 
Q 43.453125 8.109375 47.28125 11.40625 
Q 51.125 14.703125 51.125 21.484375 
Q 51.125 28.328125 47.28125 31.5625 
Q 43.453125 34.8125 35.5 34.8125 
z
M 19.671875 64.796875 
L 19.671875 42.828125 
L 34.28125 42.828125 
Q 41.5 42.828125 45.03125 45.53125 
Q 48.578125 48.25 48.578125 53.8125 
Q 48.578125 59.328125 45.03125 62.0625 
Q 41.5 64.796875 34.28125 64.796875 
z
M 9.8125 72.90625 
L 35.015625 72.90625 
Q 46.296875 72.90625 52.390625 68.21875 
Q 58.5 63.53125 58.5 54.890625 
Q 58.5 48.1875 55.375 44.234375 
Q 52.25 40.28125 46.1875 39.3125 
Q 53.46875 37.75 57.5 32.78125 
Q 61.53125 27.828125 61.53125 20.40625 
Q 61.53125 10.640625 54.890625 5.3125 
Q 48.25 0 35.984375 0 
L 9.8125 0 
z
" id="DejaVuSans-66"/>
      <path d="M 19.671875 64.796875 
L 19.671875 8.109375 
L 31.59375 8.109375 
Q 46.6875 8.109375 53.6875 14.9375 
Q 60.6875 21.78125 60.6875 36.53125 
Q 60.6875 51.171875 53.6875 57.984375 
Q 46.6875 64.796875 31.59375 64.796875 
z
M 9.8125 72.90625 
L 30.078125 72.90625 
Q 51.265625 72.90625 61.171875 64.09375 
Q 71.09375 55.28125 71.09375 36.53125 
Q 71.09375 17.671875 61.125 8.828125 
Q 51.171875 0 30.078125 0 
L 9.8125 0 
z
" id="DejaVuSans-68"/>
     </defs>
     <g transform="translate(182.324219 634.616313)scale(0.1 -0.1)">
      <use xlink:href="#DejaVuSans-84"/>
      <use x="61.083984" xlink:href="#DejaVuSans-66"/>
      <use x="129.6875" xlink:href="#DejaVuSans-68"/>
      <use x="206.689453" xlink:href="#DejaVuSans-32"/>
      <use x="238.476562" xlink:href="#DejaVuSans-100"/>
      <use x="301.953125" xlink:href="#DejaVuSans-101"/>
      <use x="363.476562" xlink:href="#DejaVuSans-109"/>
      <use x="460.888672" xlink:href="#DejaVuSans-97"/>
      <use x="522.167969" xlink:href="#DejaVuSans-110"/>
      <use x="585.546875" xlink:href="#DejaVuSans-100"/>
      <use x="649.023438" xlink:href="#DejaVuSans-32"/>
      <use x="680.810547" xlink:href="#DejaVuSans-109"/>
      <use x="778.222656" xlink:href="#DejaVuSans-117"/>
      <use x="841.601562" xlink:href="#DejaVuSans-108"/>
      <use x="869.384766" xlink:href="#DejaVuSans-116"/>
      <use x="908.59375" xlink:href="#DejaVuSans-105"/>
      <use x="936.376953" xlink:href="#DejaVuSans-112"/>
      <use x="999.853516" xlink:href="#DejaVuSans-108"/>
      <use x="1027.636719" xlink:href="#DejaVuSans-105"/>
      <use x="1055.419922" xlink:href="#DejaVuSans-101"/>
      <use x="1116.943359" xlink:href="#DejaVuSans-114"/>
     </g>
    </g>
    <g id="line2d_33">
     <path style="fill:none;stroke:#681e33;stroke-linecap:square;stroke-width:2;"/>
    </g>
    <g id="line2d_34"/>
    <g id="text_19">
     <!-- M&amp;I demand multiplier -->
     <defs>
      <path d="M 9.8125 72.90625 
L 24.515625 72.90625 
L 43.109375 23.296875 
L 61.8125 72.90625 
L 76.515625 72.90625 
L 76.515625 0 
L 66.890625 0 
L 66.890625 64.015625 
L 48.09375 14.015625 
L 38.1875 14.015625 
L 19.390625 64.015625 
L 19.390625 0 
L 9.8125 0 
z
" id="DejaVuSans-77"/>
      <path d="M 24.3125 39.203125 
Q 19.875 35.25 17.796875 31.3125 
Q 15.71875 27.390625 15.71875 23.09375 
Q 15.71875 15.96875 20.890625 11.234375 
Q 26.078125 6.5 33.890625 6.5 
Q 38.53125 6.5 42.578125 8.03125 
Q 46.625 9.578125 50.203125 12.703125 
z
M 31.203125 44.671875 
L 56 19.28125 
Q 58.890625 23.640625 60.5 28.59375 
Q 62.109375 33.546875 62.40625 39.109375 
L 71.484375 39.109375 
Q 70.90625 32.671875 68.359375 26.359375 
Q 65.828125 20.0625 61.28125 13.921875 
L 74.90625 0 
L 62.59375 0 
L 55.609375 7.171875 
Q 50.53125 2.828125 44.96875 0.703125 
Q 39.40625 -1.421875 33.015625 -1.421875 
Q 21.234375 -1.421875 13.765625 5.296875 
Q 6.296875 12.015625 6.296875 22.515625 
Q 6.296875 28.765625 9.5625 34.25 
Q 12.84375 39.75 19.390625 44.578125 
Q 17.046875 47.65625 15.8125 50.703125 
Q 14.59375 53.765625 14.59375 56.6875 
Q 14.59375 64.59375 20.015625 69.40625 
Q 25.4375 74.21875 34.421875 74.21875 
Q 38.484375 74.21875 42.5 73.34375 
Q 46.53125 72.46875 50.6875 70.703125 
L 50.6875 61.8125 
Q 46.4375 64.109375 42.578125 65.296875 
Q 38.71875 66.5 35.40625 66.5 
Q 30.28125 66.5 27.078125 63.78125 
Q 23.875 61.078125 23.875 56.78125 
Q 23.875 54.296875 25.3125 51.78125 
Q 26.765625 49.265625 31.203125 44.671875 
z
" id="DejaVuSans-38"/>
     </defs>
     <g transform="translate(346.128906 605.260063)scale(0.1 -0.1)">
      <use xlink:href="#DejaVuSans-77"/>
      <use x="86.279297" xlink:href="#DejaVuSans-38"/>
      <use x="164.257812" xlink:href="#DejaVuSans-73"/>
      <use x="193.75" xlink:href="#DejaVuSans-32"/>
      <use x="225.537109" xlink:href="#DejaVuSans-100"/>
      <use x="289.013672" xlink:href="#DejaVuSans-101"/>
      <use x="350.537109" xlink:href="#DejaVuSans-109"/>
      <use x="447.949219" xlink:href="#DejaVuSans-97"/>
      <use x="509.228516" xlink:href="#DejaVuSans-110"/>
      <use x="572.607422" xlink:href="#DejaVuSans-100"/>
      <use x="636.083984" xlink:href="#DejaVuSans-32"/>
      <use x="667.871094" xlink:href="#DejaVuSans-109"/>
      <use x="765.283203" xlink:href="#DejaVuSans-117"/>
      <use x="828.662109" xlink:href="#DejaVuSans-108"/>
      <use x="856.445312" xlink:href="#DejaVuSans-116"/>
      <use x="895.654297" xlink:href="#DejaVuSans-105"/>
      <use x="923.4375" xlink:href="#DejaVuSans-112"/>
      <use x="986.914062" xlink:href="#DejaVuSans-108"/>
      <use x="1014.697266" xlink:href="#DejaVuSans-105"/>
      <use x="1042.480469" xlink:href="#DejaVuSans-101"/>
      <use x="1104.003906" xlink:href="#DejaVuSans-114"/>
     </g>
    </g>
    <g id="line2d_35">
     <path style="fill:none;stroke:#676572;stroke-linecap:square;stroke-width:2;"/>
    </g>
    <g id="line2d_36"/>
    <g id="text_20">
     <!-- Shoshone active -->
     <g transform="translate(346.128906 619.938188)scale(0.1 -0.1)">
      <use xlink:href="#DejaVuSans-83"/>
      <use x="63.476562" xlink:href="#DejaVuSans-104"/>
      <use x="126.855469" xlink:href="#DejaVuSans-111"/>
      <use x="188.037109" xlink:href="#DejaVuSans-115"/>
      <use x="240.136719" xlink:href="#DejaVuSans-104"/>
      <use x="303.515625" xlink:href="#DejaVuSans-111"/>
      <use x="364.697266" xlink:href="#DejaVuSans-110"/>
      <use x="428.076172" xlink:href="#DejaVuSans-101"/>
      <use x="489.599609" xlink:href="#DejaVuSans-32"/>
      <use x="521.386719" xlink:href="#DejaVuSans-97"/>
      <use x="582.666016" xlink:href="#DejaVuSans-99"/>
      <use x="637.646484" xlink:href="#DejaVuSans-116"/>
      <use x="676.855469" xlink:href="#DejaVuSans-105"/>
      <use x="704.638672" xlink:href="#DejaVuSans-118"/>
      <use x="763.818359" xlink:href="#DejaVuSans-101"/>
     </g>
    </g>
    <g id="line2d_37">
     <path style="fill:none;stroke:#f3be22;stroke-linecap:square;stroke-width:2;"/>
    </g>
    <g id="line2d_38"/>
    <g id="text_21">
     <!-- Env. flow senior right -->
     <defs>
      <path d="M 9.8125 72.90625 
L 55.90625 72.90625 
L 55.90625 64.59375 
L 19.671875 64.59375 
L 19.671875 43.015625 
L 54.390625 43.015625 
L 54.390625 34.71875 
L 19.671875 34.71875 
L 19.671875 8.296875 
L 56.78125 8.296875 
L 56.78125 0 
L 9.8125 0 
z
" id="DejaVuSans-69"/>
      <path d="M 37.109375 75.984375 
L 37.109375 68.5 
L 28.515625 68.5 
Q 23.6875 68.5 21.796875 66.546875 
Q 19.921875 64.59375 19.921875 59.515625 
L 19.921875 54.6875 
L 34.71875 54.6875 
L 34.71875 47.703125 
L 19.921875 47.703125 
L 19.921875 0 
L 10.890625 0 
L 10.890625 47.703125 
L 2.296875 47.703125 
L 2.296875 54.6875 
L 10.890625 54.6875 
L 10.890625 58.5 
Q 10.890625 67.625 15.140625 71.796875 
Q 19.390625 75.984375 28.609375 75.984375 
z
" id="DejaVuSans-102"/>
      <path d="M 4.203125 54.6875 
L 13.1875 54.6875 
L 24.421875 12.015625 
L 35.59375 54.6875 
L 46.1875 54.6875 
L 57.421875 12.015625 
L 68.609375 54.6875 
L 77.59375 54.6875 
L 63.28125 0 
L 52.6875 0 
L 40.921875 44.828125 
L 29.109375 0 
L 18.5 0 
z
" id="DejaVuSans-119"/>
     </defs>
     <g transform="translate(346.128906 634.616313)scale(0.1 -0.1)">
      <use xlink:href="#DejaVuSans-69"/>
      <use x="63.183594" xlink:href="#DejaVuSans-110"/>
      <use x="126.5625" xlink:href="#DejaVuSans-118"/>
      <use x="185.632812" xlink:href="#DejaVuSans-46"/>
      <use x="217.419922" xlink:href="#DejaVuSans-32"/>
      <use x="249.207031" xlink:href="#DejaVuSans-102"/>
      <use x="284.412109" xlink:href="#DejaVuSans-108"/>
      <use x="312.195312" xlink:href="#DejaVuSans-111"/>
      <use x="373.376953" xlink:href="#DejaVuSans-119"/>
      <use x="455.164062" xlink:href="#DejaVuSans-32"/>
      <use x="486.951172" xlink:href="#DejaVuSans-115"/>
      <use x="539.050781" xlink:href="#DejaVuSans-101"/>
      <use x="600.574219" xlink:href="#DejaVuSans-110"/>
      <use x="663.953125" xlink:href="#DejaVuSans-105"/>
      <use x="691.736328" xlink:href="#DejaVuSans-111"/>
      <use x="752.917969" xlink:href="#DejaVuSans-114"/>
      <use x="794.03125" xlink:href="#DejaVuSans-32"/>
      <use x="825.818359" xlink:href="#DejaVuSans-114"/>
      <use x="866.931641" xlink:href="#DejaVuSans-105"/>
      <use x="894.714844" xlink:href="#DejaVuSans-103"/>
      <use x="958.191406" xlink:href="#DejaVuSans-104"/>
      <use x="1021.570312" xlink:href="#DejaVuSans-116"/>
     </g>
    </g>
    <g id="line2d_39">
     <path style="fill:none;stroke:#59deba;stroke-linecap:square;stroke-width:2;"/>
    </g>
    <g id="line2d_40"/>
    <g id="text_22">
     <!-- Evaporation delta -->
     <g transform="translate(508.641406 605.260063)scale(0.1 -0.1)">
      <use xlink:href="#DejaVuSans-69"/>
      <use x="63.183594" xlink:href="#DejaVuSans-118"/>
      <use x="122.363281" xlink:href="#DejaVuSans-97"/>
      <use x="183.642578" xlink:href="#DejaVuSans-112"/>
      <use x="247.119141" xlink:href="#DejaVuSans-111"/>
      <use x="308.300781" xlink:href="#DejaVuSans-114"/>
      <use x="349.414062" xlink:href="#DejaVuSans-97"/>
      <use x="410.693359" xlink:href="#DejaVuSans-116"/>
      <use x="449.902344" xlink:href="#DejaVuSans-105"/>
      <use x="477.685547" xlink:href="#DejaVuSans-111"/>
      <use x="538.867188" xlink:href="#DejaVuSans-110"/>
      <use x="602.246094" xlink:href="#DejaVuSans-32"/>
      <use x="634.033203" xlink:href="#DejaVuSans-100"/>
      <use x="697.509766" xlink:href="#DejaVuSans-101"/>
      <use x="759.033203" xlink:href="#DejaVuSans-108"/>
      <use x="786.816406" xlink:href="#DejaVuSans-116"/>
      <use x="826.025391" xlink:href="#DejaVuSans-97"/>
     </g>
    </g>
    <g id="line2d_41">
     <path style="fill:none;stroke:#14015c;stroke-linecap:square;stroke-width:2;"/>
    </g>
    <g id="line2d_42"/>
    <g id="text_23">
     <!-- Dry state mu -->
     <defs>
      <path d="M 32.171875 -5.078125 
Q 28.375 -14.84375 24.75 -17.8125 
Q 21.140625 -20.796875 15.09375 -20.796875 
L 7.90625 -20.796875 
L 7.90625 -13.28125 
L 13.1875 -13.28125 
Q 16.890625 -13.28125 18.9375 -11.515625 
Q 21 -9.765625 23.484375 -3.21875 
L 25.09375 0.875 
L 2.984375 54.6875 
L 12.5 54.6875 
L 29.59375 11.921875 
L 46.6875 54.6875 
L 56.203125 54.6875 
z
" id="DejaVuSans-121"/>
     </defs>
     <g transform="translate(508.641406 619.938188)scale(0.1 -0.1)">
      <use xlink:href="#DejaVuSans-68"/>
      <use x="77.001953" xlink:href="#DejaVuSans-114"/>
      <use x="118.115234" xlink:href="#DejaVuSans-121"/>
      <use x="177.294922" xlink:href="#DejaVuSans-32"/>
      <use x="209.082031" xlink:href="#DejaVuSans-115"/>
      <use x="261.181641" xlink:href="#DejaVuSans-116"/>
      <use x="300.390625" xlink:href="#DejaVuSans-97"/>
      <use x="361.669922" xlink:href="#DejaVuSans-116"/>
      <use x="400.878906" xlink:href="#DejaVuSans-101"/>
      <use x="462.402344" xlink:href="#DejaVuSans-32"/>
      <use x="494.189453" xlink:href="#DejaVuSans-109"/>
      <use x="591.601562" xlink:href="#DejaVuSans-117"/>
     </g>
    </g>
    <g id="line2d_43">
     <path style="fill:none;stroke:#daf8a3;stroke-linecap:square;stroke-width:2;"/>
    </g>
    <g id="line2d_44"/>
    <g id="text_24">
     <!-- Dry state sigma -->
     <g transform="translate(508.641406 634.616313)scale(0.1 -0.1)">
      <use xlink:href="#DejaVuSans-68"/>
      <use x="77.001953" xlink:href="#DejaVuSans-114"/>
      <use x="118.115234" xlink:href="#DejaVuSans-121"/>
      <use x="177.294922" xlink:href="#DejaVuSans-32"/>
      <use x="209.082031" xlink:href="#DejaVuSans-115"/>
      <use x="261.181641" xlink:href="#DejaVuSans-116"/>
      <use x="300.390625" xlink:href="#DejaVuSans-97"/>
      <use x="361.669922" xlink:href="#DejaVuSans-116"/>
      <use x="400.878906" xlink:href="#DejaVuSans-101"/>
      <use x="462.402344" xlink:href="#DejaVuSans-32"/>
      <use x="494.189453" xlink:href="#DejaVuSans-115"/>
      <use x="546.289062" xlink:href="#DejaVuSans-105"/>
      <use x="574.072266" xlink:href="#DejaVuSans-103"/>
      <use x="637.548828" xlink:href="#DejaVuSans-109"/>
      <use x="734.960938" xlink:href="#DejaVuSans-97"/>
     </g>
    </g>
    <g id="line2d_45">
     <path style="fill:none;stroke:#0b7a0a;stroke-linecap:square;stroke-width:2;"/>
    </g>
    <g id="line2d_46"/>
    <g id="text_25">
     <!-- Wet state mu -->
     <g transform="translate(645.374219 605.260063)scale(0.1 -0.1)">
      <use xlink:href="#DejaVuSans-87"/>
      <use x="98.798828" xlink:href="#DejaVuSans-101"/>
      <use x="160.322266" xlink:href="#DejaVuSans-116"/>
      <use x="199.53125" xlink:href="#DejaVuSans-32"/>
      <use x="231.318359" xlink:href="#DejaVuSans-115"/>
      <use x="283.417969" xlink:href="#DejaVuSans-116"/>
      <use x="322.626953" xlink:href="#DejaVuSans-97"/>
      <use x="383.90625" xlink:href="#DejaVuSans-116"/>
      <use x="423.115234" xlink:href="#DejaVuSans-101"/>
      <use x="484.638672" xlink:href="#DejaVuSans-32"/>
      <use x="516.425781" xlink:href="#DejaVuSans-109"/>
      <use x="613.837891" xlink:href="#DejaVuSans-117"/>
     </g>
    </g>
    <g id="line2d_47">
     <path style="fill:none;stroke:#f8ffa2;stroke-linecap:square;stroke-width:2;"/>
    </g>
    <g id="line2d_48"/>
    <g id="text_26">
     <!-- Wet state sigma -->
     <g transform="translate(645.374219 619.938188)scale(0.1 -0.1)">
      <use xlink:href="#DejaVuSans-87"/>
      <use x="98.798828" xlink:href="#DejaVuSans-101"/>
      <use x="160.322266" xlink:href="#DejaVuSans-116"/>
      <use x="199.53125" xlink:href="#DejaVuSans-32"/>
      <use x="231.318359" xlink:href="#DejaVuSans-115"/>
      <use x="283.417969" xlink:href="#DejaVuSans-116"/>
      <use x="322.626953" xlink:href="#DejaVuSans-97"/>
      <use x="383.90625" xlink:href="#DejaVuSans-116"/>
      <use x="423.115234" xlink:href="#DejaVuSans-101"/>
      <use x="484.638672" xlink:href="#DejaVuSans-32"/>
      <use x="516.425781" xlink:href="#DejaVuSans-115"/>
      <use x="568.525391" xlink:href="#DejaVuSans-105"/>
      <use x="596.308594" xlink:href="#DejaVuSans-103"/>
      <use x="659.785156" xlink:href="#DejaVuSans-109"/>
      <use x="757.197266" xlink:href="#DejaVuSans-97"/>
     </g>
    </g>
    <g id="line2d_49">
     <path style="fill:none;stroke:#578dc0;stroke-linecap:square;stroke-width:2;"/>
    </g>
    <g id="line2d_50"/>
    <g id="text_27">
     <!-- Dry-to-dry state prob. -->
     <defs>
      <path d="M 4.890625 31.390625 
L 31.203125 31.390625 
L 31.203125 23.390625 
L 4.890625 23.390625 
z
" id="DejaVuSans-45"/>
      <path d="M 48.6875 27.296875 
Q 48.6875 37.203125 44.609375 42.84375 
Q 40.53125 48.484375 33.40625 48.484375 
Q 26.265625 48.484375 22.1875 42.84375 
Q 18.109375 37.203125 18.109375 27.296875 
Q 18.109375 17.390625 22.1875 11.75 
Q 26.265625 6.109375 33.40625 6.109375 
Q 40.53125 6.109375 44.609375 11.75 
Q 48.6875 17.390625 48.6875 27.296875 
z
M 18.109375 46.390625 
Q 20.953125 51.265625 25.265625 53.625 
Q 29.59375 56 35.59375 56 
Q 45.5625 56 51.78125 48.09375 
Q 58.015625 40.1875 58.015625 27.296875 
Q 58.015625 14.40625 51.78125 6.484375 
Q 45.5625 -1.421875 35.59375 -1.421875 
Q 29.59375 -1.421875 25.265625 0.953125 
Q 20.953125 3.328125 18.109375 8.203125 
L 18.109375 0 
L 9.078125 0 
L 9.078125 75.984375 
L 18.109375 75.984375 
z
" id="DejaVuSans-98"/>
     </defs>
     <g transform="translate(645.374219 634.616313)scale(0.1 -0.1)">
      <use xlink:href="#DejaVuSans-68"/>
      <use x="77.001953" xlink:href="#DejaVuSans-114"/>
      <use x="118.115234" xlink:href="#DejaVuSans-121"/>
      <use x="177.279297" xlink:href="#DejaVuSans-45"/>
      <use x="213.363281" xlink:href="#DejaVuSans-116"/>
      <use x="252.572266" xlink:href="#DejaVuSans-111"/>
      <use x="313.769531" xlink:href="#DejaVuSans-45"/>
      <use x="349.853516" xlink:href="#DejaVuSans-100"/>
      <use x="413.330078" xlink:href="#DejaVuSans-114"/>
      <use x="454.443359" xlink:href="#DejaVuSans-121"/>
      <use x="513.623047" xlink:href="#DejaVuSans-32"/>
      <use x="545.410156" xlink:href="#DejaVuSans-115"/>
      <use x="597.509766" xlink:href="#DejaVuSans-116"/>
      <use x="636.71875" xlink:href="#DejaVuSans-97"/>
      <use x="697.998047" xlink:href="#DejaVuSans-116"/>
      <use x="737.207031" xlink:href="#DejaVuSans-101"/>
      <use x="798.730469" xlink:href="#DejaVuSans-32"/>
      <use x="830.517578" xlink:href="#DejaVuSans-112"/>
      <use x="893.994141" xlink:href="#DejaVuSans-114"/>
      <use x="935.076172" xlink:href="#DejaVuSans-111"/>
      <use x="996.257812" xlink:href="#DejaVuSans-98"/>
      <use x="1059.734375" xlink:href="#DejaVuSans-46"/>
     </g>
    </g>
    <g id="line2d_51">
     <path style="fill:none;stroke:#4e4ad8;stroke-linecap:square;stroke-width:2;"/>
    </g>
    <g id="line2d_52"/>
    <g id="text_28">
     <!-- Wet-to-wet state prob. -->
     <g transform="translate(802.525781 605.260063)scale(0.1 -0.1)">
      <use xlink:href="#DejaVuSans-87"/>
      <use x="98.798828" xlink:href="#DejaVuSans-101"/>
      <use x="160.322266" xlink:href="#DejaVuSans-116"/>
      <use x="199.53125" xlink:href="#DejaVuSans-45"/>
      <use x="235.615234" xlink:href="#DejaVuSans-116"/>
      <use x="274.824219" xlink:href="#DejaVuSans-111"/>
      <use x="336.021484" xlink:href="#DejaVuSans-45"/>
      <use x="372.105469" xlink:href="#DejaVuSans-119"/>
      <use x="453.892578" xlink:href="#DejaVuSans-101"/>
      <use x="515.416016" xlink:href="#DejaVuSans-116"/>
      <use x="554.625" xlink:href="#DejaVuSans-32"/>
      <use x="586.412109" xlink:href="#DejaVuSans-115"/>
      <use x="638.511719" xlink:href="#DejaVuSans-116"/>
      <use x="677.720703" xlink:href="#DejaVuSans-97"/>
      <use x="739" xlink:href="#DejaVuSans-116"/>
      <use x="778.208984" xlink:href="#DejaVuSans-101"/>
      <use x="839.732422" xlink:href="#DejaVuSans-32"/>
      <use x="871.519531" xlink:href="#DejaVuSans-112"/>
      <use x="934.996094" xlink:href="#DejaVuSans-114"/>
      <use x="976.078125" xlink:href="#DejaVuSans-111"/>
      <use x="1037.259766" xlink:href="#DejaVuSans-98"/>
      <use x="1100.736328" xlink:href="#DejaVuSans-46"/>
     </g>
    </g>
    <g id="line2d_53">
     <path style="fill:none;stroke:#32b3f7;stroke-linecap:square;stroke-width:2;"/>
    </g>
    <g id="line2d_54"/>
    <g id="text_29">
     <!-- Earlier snowmelt -->
     <g transform="translate(802.525781 619.938188)scale(0.1 -0.1)">
      <use xlink:href="#DejaVuSans-69"/>
      <use x="63.183594" xlink:href="#DejaVuSans-97"/>
      <use x="124.462891" xlink:href="#DejaVuSans-114"/>
      <use x="165.576172" xlink:href="#DejaVuSans-108"/>
      <use x="193.359375" xlink:href="#DejaVuSans-105"/>
      <use x="221.142578" xlink:href="#DejaVuSans-101"/>
      <use x="282.666016" xlink:href="#DejaVuSans-114"/>
      <use x="323.779297" xlink:href="#DejaVuSans-32"/>
      <use x="355.566406" xlink:href="#DejaVuSans-115"/>
      <use x="407.666016" xlink:href="#DejaVuSans-110"/>
      <use x="471.044922" xlink:href="#DejaVuSans-111"/>
      <use x="532.226562" xlink:href="#DejaVuSans-119"/>
      <use x="614.013672" xlink:href="#DejaVuSans-109"/>
      <use x="711.425781" xlink:href="#DejaVuSans-101"/>
      <use x="772.949219" xlink:href="#DejaVuSans-108"/>
      <use x="800.732422" xlink:href="#DejaVuSans-116"/>
     </g>
    </g>
   </g>
  </g>
  <g id="text_30">
   <!-- Shortage magnitude sensitivity for 7200799 -->
   <defs>
    <path d="M 8.203125 72.90625 
L 55.078125 72.90625 
L 55.078125 68.703125 
L 28.609375 0 
L 18.3125 0 
L 43.21875 64.59375 
L 8.203125 64.59375 
z
" id="DejaVuSans-55"/>
    <path d="M 10.984375 1.515625 
L 10.984375 10.5 
Q 14.703125 8.734375 18.5 7.8125 
Q 22.3125 6.890625 25.984375 6.890625 
Q 35.75 6.890625 40.890625 13.453125 
Q 46.046875 20.015625 46.78125 33.40625 
Q 43.953125 29.203125 39.59375 26.953125 
Q 35.25 24.703125 29.984375 24.703125 
Q 19.046875 24.703125 12.671875 31.3125 
Q 6.296875 37.9375 6.296875 49.421875 
Q 6.296875 60.640625 12.9375 67.421875 
Q 19.578125 74.21875 30.609375 74.21875 
Q 43.265625 74.21875 49.921875 64.515625 
Q 56.59375 54.828125 56.59375 36.375 
Q 56.59375 19.140625 48.40625 8.859375 
Q 40.234375 -1.421875 26.421875 -1.421875 
Q 22.703125 -1.421875 18.890625 -0.6875 
Q 15.09375 0.046875 10.984375 1.515625 
z
M 30.609375 32.421875 
Q 37.25 32.421875 41.125 36.953125 
Q 45.015625 41.5 45.015625 49.421875 
Q 45.015625 57.28125 41.125 61.84375 
Q 37.25 66.40625 30.609375 66.40625 
Q 23.96875 66.40625 20.09375 61.84375 
Q 16.21875 57.28125 16.21875 49.421875 
Q 16.21875 41.5 20.09375 36.953125 
Q 23.96875 32.421875 30.609375 32.421875 
z
" id="DejaVuSans-57"/>
   </defs>
   <g transform="translate(344.81625 23.6775)scale(0.16 -0.16)">
    <use xlink:href="#DejaVuSans-83"/>
    <use x="63.476562" xlink:href="#DejaVuSans-104"/>
    <use x="126.855469" xlink:href="#DejaVuSans-111"/>
    <use x="188.037109" xlink:href="#DejaVuSans-114"/>
    <use x="229.150391" xlink:href="#DejaVuSans-116"/>
    <use x="268.359375" xlink:href="#DejaVuSans-97"/>
    <use x="329.638672" xlink:href="#DejaVuSans-103"/>
    <use x="393.115234" xlink:href="#DejaVuSans-101"/>
    <use x="454.638672" xlink:href="#DejaVuSans-32"/>
    <use x="486.425781" xlink:href="#DejaVuSans-109"/>
    <use x="583.837891" xlink:href="#DejaVuSans-97"/>
    <use x="645.117188" xlink:href="#DejaVuSans-103"/>
    <use x="708.59375" xlink:href="#DejaVuSans-110"/>
    <use x="771.972656" xlink:href="#DejaVuSans-105"/>
    <use x="799.755859" xlink:href="#DejaVuSans-116"/>
    <use x="838.964844" xlink:href="#DejaVuSans-117"/>
    <use x="902.34375" xlink:href="#DejaVuSans-100"/>
    <use x="965.820312" xlink:href="#DejaVuSans-101"/>
    <use x="1027.34375" xlink:href="#DejaVuSans-32"/>
    <use x="1059.130859" xlink:href="#DejaVuSans-115"/>
    <use x="1111.230469" xlink:href="#DejaVuSans-101"/>
    <use x="1172.753906" xlink:href="#DejaVuSans-110"/>
    <use x="1236.132812" xlink:href="#DejaVuSans-115"/>
    <use x="1288.232422" xlink:href="#DejaVuSans-105"/>
    <use x="1316.015625" xlink:href="#DejaVuSans-116"/>
    <use x="1355.224609" xlink:href="#DejaVuSans-105"/>
    <use x="1383.007812" xlink:href="#DejaVuSans-118"/>
    <use x="1442.1875" xlink:href="#DejaVuSans-105"/>
    <use x="1469.970703" xlink:href="#DejaVuSans-116"/>
    <use x="1509.179688" xlink:href="#DejaVuSans-121"/>
    <use x="1568.359375" xlink:href="#DejaVuSans-32"/>
    <use x="1600.146484" xlink:href="#DejaVuSans-102"/>
    <use x="1635.351562" xlink:href="#DejaVuSans-111"/>
    <use x="1696.533203" xlink:href="#DejaVuSans-114"/>
    <use x="1737.646484" xlink:href="#DejaVuSans-32"/>
    <use x="1769.433594" xlink:href="#DejaVuSans-55"/>
    <use x="1833.056641" xlink:href="#DejaVuSans-50"/>
    <use x="1896.679688" xlink:href="#DejaVuSans-48"/>
    <use x="1960.302734" xlink:href="#DejaVuSans-48"/>
    <use x="2023.925781" xlink:href="#DejaVuSans-55"/>
    <use x="2087.548828" xlink:href="#DejaVuSans-57"/>
    <use x="2151.171875" xlink:href="#DejaVuSans-57"/>
   </g>
  </g>
 </g>
 <defs>
  <clipPath id="p15ad03c6d9">
   <rect height="354.816" width="809.1" x="130.5" y="113.472"/>
  </clipPath>
 </defs>
</svg>
