<?xml version="1.0" encoding="utf-8" standalone="no"?>
<!DOCTYPE svg PUBLIC "-//W3C//DTD SVG 1.1//EN"
  "http://www.w3.org/Graphics/SVG/1.1/DTD/svg11.dtd">
<!-- Created with matplotlib (https://matplotlib.org/) -->
<svg height="576pt" version="1.1" viewBox="0 0 1044 576" width="1044pt" xmlns="http://www.w3.org/2000/svg" xmlns:xlink="http://www.w3.org/1999/xlink">
 <defs>
  <style type="text/css">
*{stroke-linecap:butt;stroke-linejoin:round;}
  </style>
 </defs>
 <g id="figure_1">
  <g id="patch_1">
   <path d="M 0 576 
L 1044 576 
L 1044 0 
L 0 0 
z
" style="fill:#ffffff;"/>
  </g>
  <g id="axes_1">
   <g id="patch_2">
    <path d="M 130.5 468.288 
L 939.6 468.288 
L 939.6 113.472 
L 130.5 113.472 
z
" style="fill:#ffffff;"/>
   </g>
   <g id="matplotlib.axis_1">
    <g id="xtick_1">
     <g id="line2d_1">
      <defs>
       <path d="M 0 0 
L 0 3.5 
" id="m23894c492d" style="stroke:#000000;stroke-width:0.8;"/>
      </defs>
      <g>
       <use style="stroke:#000000;stroke-width:0.8;" x="130.5" xlink:href="#m23894c492d" y="468.288"/>
      </g>
     </g>
     <g id="text_1">
      <!-- 0 -->
      <defs>
       <path d="M 31.78125 66.40625 
Q 24.171875 66.40625 20.328125 58.90625 
Q 16.5 51.421875 16.5 36.375 
Q 16.5 21.390625 20.328125 13.890625 
Q 24.171875 6.390625 31.78125 6.390625 
Q 39.453125 6.390625 43.28125 13.890625 
Q 47.125 21.390625 47.125 36.375 
Q 47.125 51.421875 43.28125 58.90625 
Q 39.453125 66.40625 31.78125 66.40625 
z
M 31.78125 74.21875 
Q 44.046875 74.21875 50.515625 64.515625 
Q 56.984375 54.828125 56.984375 36.375 
Q 56.984375 17.96875 50.515625 8.265625 
Q 44.046875 -1.421875 31.78125 -1.421875 
Q 19.53125 -1.421875 13.0625 8.265625 
Q 6.59375 17.96875 6.59375 36.375 
Q 6.59375 54.828125 13.0625 64.515625 
Q 19.53125 74.21875 31.78125 74.21875 
z
" id="DejaVuSans-48"/>
      </defs>
      <g transform="translate(127.31875 482.886437)scale(0.1 -0.1)">
       <use xlink:href="#DejaVuSans-48"/>
      </g>
     </g>
    </g>
    <g id="xtick_2">
     <g id="line2d_2">
      <g>
       <use style="stroke:#000000;stroke-width:0.8;" x="292.32" xlink:href="#m23894c492d" y="468.288"/>
      </g>
     </g>
     <g id="text_2">
      <!-- 20 -->
      <defs>
       <path d="M 19.1875 8.296875 
L 53.609375 8.296875 
L 53.609375 0 
L 7.328125 0 
L 7.328125 8.296875 
Q 12.9375 14.109375 22.625 23.890625 
Q 32.328125 33.6875 34.8125 36.53125 
Q 39.546875 41.84375 41.421875 45.53125 
Q 43.3125 49.21875 43.3125 52.78125 
Q 43.3125 58.59375 39.234375 62.25 
Q 35.15625 65.921875 28.609375 65.921875 
Q 23.96875 65.921875 18.8125 64.3125 
Q 13.671875 62.703125 7.8125 59.421875 
L 7.8125 69.390625 
Q 13.765625 71.78125 18.9375 73 
Q 24.125 74.21875 28.421875 74.21875 
Q 39.75 74.21875 46.484375 68.546875 
Q 53.21875 62.890625 53.21875 53.421875 
Q 53.21875 48.921875 51.53125 44.890625 
Q 49.859375 40.875 45.40625 35.40625 
Q 44.1875 33.984375 37.640625 27.21875 
Q 31.109375 20.453125 19.1875 8.296875 
z
" id="DejaVuSans-50"/>
      </defs>
      <g transform="translate(285.9575 482.886437)scale(0.1 -0.1)">
       <use xlink:href="#DejaVuSans-50"/>
       <use x="63.623047" xlink:href="#DejaVuSans-48"/>
      </g>
     </g>
    </g>
    <g id="xtick_3">
     <g id="line2d_3">
      <g>
       <use style="stroke:#000000;stroke-width:0.8;" x="454.14" xlink:href="#m23894c492d" y="468.288"/>
      </g>
     </g>
     <g id="text_3">
      <!-- 40 -->
      <defs>
       <path d="M 37.796875 64.3125 
L 12.890625 25.390625 
L 37.796875 25.390625 
z
M 35.203125 72.90625 
L 47.609375 72.90625 
L 47.609375 25.390625 
L 58.015625 25.390625 
L 58.015625 17.1875 
L 47.609375 17.1875 
L 47.609375 0 
L 37.796875 0 
L 37.796875 17.1875 
L 4.890625 17.1875 
L 4.890625 26.703125 
z
" id="DejaVuSans-52"/>
      </defs>
      <g transform="translate(447.7775 482.886437)scale(0.1 -0.1)">
       <use xlink:href="#DejaVuSans-52"/>
       <use x="63.623047" xlink:href="#DejaVuSans-48"/>
      </g>
     </g>
    </g>
    <g id="xtick_4">
     <g id="line2d_4">
      <g>
       <use style="stroke:#000000;stroke-width:0.8;" x="615.96" xlink:href="#m23894c492d" y="468.288"/>
      </g>
     </g>
     <g id="text_4">
      <!-- 60 -->
      <defs>
       <path d="M 33.015625 40.375 
Q 26.375 40.375 22.484375 35.828125 
Q 18.609375 31.296875 18.609375 23.390625 
Q 18.609375 15.53125 22.484375 10.953125 
Q 26.375 6.390625 33.015625 6.390625 
Q 39.65625 6.390625 43.53125 10.953125 
Q 47.40625 15.53125 47.40625 23.390625 
Q 47.40625 31.296875 43.53125 35.828125 
Q 39.65625 40.375 33.015625 40.375 
z
M 52.59375 71.296875 
L 52.59375 62.3125 
Q 48.875 64.0625 45.09375 64.984375 
Q 41.3125 65.921875 37.59375 65.921875 
Q 27.828125 65.921875 22.671875 59.328125 
Q 17.53125 52.734375 16.796875 39.40625 
Q 19.671875 43.65625 24.015625 45.921875 
Q 28.375 48.1875 33.59375 48.1875 
Q 44.578125 48.1875 50.953125 41.515625 
Q 57.328125 34.859375 57.328125 23.390625 
Q 57.328125 12.15625 50.6875 5.359375 
Q 44.046875 -1.421875 33.015625 -1.421875 
Q 20.359375 -1.421875 13.671875 8.265625 
Q 6.984375 17.96875 6.984375 36.375 
Q 6.984375 53.65625 15.1875 63.9375 
Q 23.390625 74.21875 37.203125 74.21875 
Q 40.921875 74.21875 44.703125 73.484375 
Q 48.484375 72.75 52.59375 71.296875 
z
" id="DejaVuSans-54"/>
      </defs>
      <g transform="translate(609.5975 482.886437)scale(0.1 -0.1)">
       <use xlink:href="#DejaVuSans-54"/>
       <use x="63.623047" xlink:href="#DejaVuSans-48"/>
      </g>
     </g>
    </g>
    <g id="xtick_5">
     <g id="line2d_5">
      <g>
       <use style="stroke:#000000;stroke-width:0.8;" x="777.78" xlink:href="#m23894c492d" y="468.288"/>
      </g>
     </g>
     <g id="text_5">
      <!-- 80 -->
      <defs>
       <path d="M 31.78125 34.625 
Q 24.75 34.625 20.71875 30.859375 
Q 16.703125 27.09375 16.703125 20.515625 
Q 16.703125 13.921875 20.71875 10.15625 
Q 24.75 6.390625 31.78125 6.390625 
Q 38.8125 6.390625 42.859375 10.171875 
Q 46.921875 13.96875 46.921875 20.515625 
Q 46.921875 27.09375 42.890625 30.859375 
Q 38.875 34.625 31.78125 34.625 
z
M 21.921875 38.8125 
Q 15.578125 40.375 12.03125 44.71875 
Q 8.5 49.078125 8.5 55.328125 
Q 8.5 64.0625 14.71875 69.140625 
Q 20.953125 74.21875 31.78125 74.21875 
Q 42.671875 74.21875 48.875 69.140625 
Q 55.078125 64.0625 55.078125 55.328125 
Q 55.078125 49.078125 51.53125 44.71875 
Q 48 40.375 41.703125 38.8125 
Q 48.828125 37.15625 52.796875 32.3125 
Q 56.78125 27.484375 56.78125 20.515625 
Q 56.78125 9.90625 50.3125 4.234375 
Q 43.84375 -1.421875 31.78125 -1.421875 
Q 19.734375 -1.421875 13.25 4.234375 
Q 6.78125 9.90625 6.78125 20.515625 
Q 6.78125 27.484375 10.78125 32.3125 
Q 14.796875 37.15625 21.921875 38.8125 
z
M 18.3125 54.390625 
Q 18.3125 48.734375 21.84375 45.5625 
Q 25.390625 42.390625 31.78125 42.390625 
Q 38.140625 42.390625 41.71875 45.5625 
Q 45.3125 48.734375 45.3125 54.390625 
Q 45.3125 60.0625 41.71875 63.234375 
Q 38.140625 66.40625 31.78125 66.40625 
Q 25.390625 66.40625 21.84375 63.234375 
Q 18.3125 60.0625 18.3125 54.390625 
z
" id="DejaVuSans-56"/>
      </defs>
      <g transform="translate(771.4175 482.886437)scale(0.1 -0.1)">
       <use xlink:href="#DejaVuSans-56"/>
       <use x="63.623047" xlink:href="#DejaVuSans-48"/>
      </g>
     </g>
    </g>
    <g id="xtick_6">
     <g id="line2d_6">
      <g>
       <use style="stroke:#000000;stroke-width:0.8;" x="939.6" xlink:href="#m23894c492d" y="468.288"/>
      </g>
     </g>
     <g id="text_6">
      <!-- 100 -->
      <defs>
       <path d="M 12.40625 8.296875 
L 28.515625 8.296875 
L 28.515625 63.921875 
L 10.984375 60.40625 
L 10.984375 69.390625 
L 28.421875 72.90625 
L 38.28125 72.90625 
L 38.28125 8.296875 
L 54.390625 8.296875 
L 54.390625 0 
L 12.40625 0 
z
" id="DejaVuSans-49"/>
      </defs>
      <g transform="translate(930.05625 482.886437)scale(0.1 -0.1)">
       <use xlink:href="#DejaVuSans-49"/>
       <use x="63.623047" xlink:href="#DejaVuSans-48"/>
       <use x="127.246094" xlink:href="#DejaVuSans-48"/>
      </g>
     </g>
    </g>
    <g id="text_7">
     <!-- Shortage magnitude percentile -->
     <defs>
      <path d="M 53.515625 70.515625 
L 53.515625 60.890625 
Q 47.90625 63.578125 42.921875 64.890625 
Q 37.9375 66.21875 33.296875 66.21875 
Q 25.25 66.21875 20.875 63.09375 
Q 16.5 59.96875 16.5 54.203125 
Q 16.5 49.359375 19.40625 46.890625 
Q 22.3125 44.4375 30.421875 42.921875 
L 36.375 41.703125 
Q 47.40625 39.59375 52.65625 34.296875 
Q 57.90625 29 57.90625 20.125 
Q 57.90625 9.515625 50.796875 4.046875 
Q 43.703125 -1.421875 29.984375 -1.421875 
Q 24.8125 -1.421875 18.96875 -0.25 
Q 13.140625 0.921875 6.890625 3.21875 
L 6.890625 13.375 
Q 12.890625 10.015625 18.65625 8.296875 
Q 24.421875 6.59375 29.984375 6.59375 
Q 38.421875 6.59375 43.015625 9.90625 
Q 47.609375 13.234375 47.609375 19.390625 
Q 47.609375 24.75 44.3125 27.78125 
Q 41.015625 30.8125 33.5 32.328125 
L 27.484375 33.5 
Q 16.453125 35.6875 11.515625 40.375 
Q 6.59375 45.0625 6.59375 53.421875 
Q 6.59375 63.09375 13.40625 68.65625 
Q 20.21875 74.21875 32.171875 74.21875 
Q 37.3125 74.21875 42.625 73.28125 
Q 47.953125 72.359375 53.515625 70.515625 
z
" id="DejaVuSans-83"/>
      <path d="M 54.890625 33.015625 
L 54.890625 0 
L 45.90625 0 
L 45.90625 32.71875 
Q 45.90625 40.484375 42.875 44.328125 
Q 39.84375 48.1875 33.796875 48.1875 
Q 26.515625 48.1875 22.3125 43.546875 
Q 18.109375 38.921875 18.109375 30.90625 
L 18.109375 0 
L 9.078125 0 
L 9.078125 75.984375 
L 18.109375 75.984375 
L 18.109375 46.1875 
Q 21.34375 51.125 25.703125 53.5625 
Q 30.078125 56 35.796875 56 
Q 45.21875 56 50.046875 50.171875 
Q 54.890625 44.34375 54.890625 33.015625 
z
" id="DejaVuSans-104"/>
      <path d="M 30.609375 48.390625 
Q 23.390625 48.390625 19.1875 42.75 
Q 14.984375 37.109375 14.984375 27.296875 
Q 14.984375 17.484375 19.15625 11.84375 
Q 23.34375 6.203125 30.609375 6.203125 
Q 37.796875 6.203125 41.984375 11.859375 
Q 46.1875 17.53125 46.1875 27.296875 
Q 46.1875 37.015625 41.984375 42.703125 
Q 37.796875 48.390625 30.609375 48.390625 
z
M 30.609375 56 
Q 42.328125 56 49.015625 48.375 
Q 55.71875 40.765625 55.71875 27.296875 
Q 55.71875 13.875 49.015625 6.21875 
Q 42.328125 -1.421875 30.609375 -1.421875 
Q 18.84375 -1.421875 12.171875 6.21875 
Q 5.515625 13.875 5.515625 27.296875 
Q 5.515625 40.765625 12.171875 48.375 
Q 18.84375 56 30.609375 56 
z
" id="DejaVuSans-111"/>
      <path d="M 41.109375 46.296875 
Q 39.59375 47.171875 37.8125 47.578125 
Q 36.03125 48 33.890625 48 
Q 26.265625 48 22.1875 43.046875 
Q 18.109375 38.09375 18.109375 28.8125 
L 18.109375 0 
L 9.078125 0 
L 9.078125 54.6875 
L 18.109375 54.6875 
L 18.109375 46.1875 
Q 20.953125 51.171875 25.484375 53.578125 
Q 30.03125 56 36.53125 56 
Q 37.453125 56 38.578125 55.875 
Q 39.703125 55.765625 41.0625 55.515625 
z
" id="DejaVuSans-114"/>
      <path d="M 18.3125 70.21875 
L 18.3125 54.6875 
L 36.8125 54.6875 
L 36.8125 47.703125 
L 18.3125 47.703125 
L 18.3125 18.015625 
Q 18.3125 11.328125 20.140625 9.421875 
Q 21.96875 7.515625 27.59375 7.515625 
L 36.8125 7.515625 
L 36.8125 0 
L 27.59375 0 
Q 17.1875 0 13.234375 3.875 
Q 9.28125 7.765625 9.28125 18.015625 
L 9.28125 47.703125 
L 2.6875 47.703125 
L 2.6875 54.6875 
L 9.28125 54.6875 
L 9.28125 70.21875 
z
" id="DejaVuSans-116"/>
      <path d="M 34.28125 27.484375 
Q 23.390625 27.484375 19.1875 25 
Q 14.984375 22.515625 14.984375 16.5 
Q 14.984375 11.71875 18.140625 8.90625 
Q 21.296875 6.109375 26.703125 6.109375 
Q 34.1875 6.109375 38.703125 11.40625 
Q 43.21875 16.703125 43.21875 25.484375 
L 43.21875 27.484375 
z
M 52.203125 31.203125 
L 52.203125 0 
L 43.21875 0 
L 43.21875 8.296875 
Q 40.140625 3.328125 35.546875 0.953125 
Q 30.953125 -1.421875 24.3125 -1.421875 
Q 15.921875 -1.421875 10.953125 3.296875 
Q 6 8.015625 6 15.921875 
Q 6 25.140625 12.171875 29.828125 
Q 18.359375 34.515625 30.609375 34.515625 
L 43.21875 34.515625 
L 43.21875 35.40625 
Q 43.21875 41.609375 39.140625 45 
Q 35.0625 48.390625 27.6875 48.390625 
Q 23 48.390625 18.546875 47.265625 
Q 14.109375 46.140625 10.015625 43.890625 
L 10.015625 52.203125 
Q 14.9375 54.109375 19.578125 55.046875 
Q 24.21875 56 28.609375 56 
Q 40.484375 56 46.34375 49.84375 
Q 52.203125 43.703125 52.203125 31.203125 
z
" id="DejaVuSans-97"/>
      <path d="M 45.40625 27.984375 
Q 45.40625 37.75 41.375 43.109375 
Q 37.359375 48.484375 30.078125 48.484375 
Q 22.859375 48.484375 18.828125 43.109375 
Q 14.796875 37.75 14.796875 27.984375 
Q 14.796875 18.265625 18.828125 12.890625 
Q 22.859375 7.515625 30.078125 7.515625 
Q 37.359375 7.515625 41.375 12.890625 
Q 45.40625 18.265625 45.40625 27.984375 
z
M 54.390625 6.78125 
Q 54.390625 -7.171875 48.1875 -13.984375 
Q 42 -20.796875 29.203125 -20.796875 
Q 24.46875 -20.796875 20.265625 -20.09375 
Q 16.0625 -19.390625 12.109375 -17.921875 
L 12.109375 -9.1875 
Q 16.0625 -11.328125 19.921875 -12.34375 
Q 23.78125 -13.375 27.78125 -13.375 
Q 36.625 -13.375 41.015625 -8.765625 
Q 45.40625 -4.15625 45.40625 5.171875 
L 45.40625 9.625 
Q 42.625 4.78125 38.28125 2.390625 
Q 33.9375 0 27.875 0 
Q 17.828125 0 11.671875 7.65625 
Q 5.515625 15.328125 5.515625 27.984375 
Q 5.515625 40.671875 11.671875 48.328125 
Q 17.828125 56 27.875 56 
Q 33.9375 56 38.28125 53.609375 
Q 42.625 51.21875 45.40625 46.390625 
L 45.40625 54.6875 
L 54.390625 54.6875 
z
" id="DejaVuSans-103"/>
      <path d="M 56.203125 29.59375 
L 56.203125 25.203125 
L 14.890625 25.203125 
Q 15.484375 15.921875 20.484375 11.0625 
Q 25.484375 6.203125 34.421875 6.203125 
Q 39.59375 6.203125 44.453125 7.46875 
Q 49.3125 8.734375 54.109375 11.28125 
L 54.109375 2.78125 
Q 49.265625 0.734375 44.1875 -0.34375 
Q 39.109375 -1.421875 33.890625 -1.421875 
Q 20.796875 -1.421875 13.15625 6.1875 
Q 5.515625 13.8125 5.515625 26.8125 
Q 5.515625 40.234375 12.765625 48.109375 
Q 20.015625 56 32.328125 56 
Q 43.359375 56 49.78125 48.890625 
Q 56.203125 41.796875 56.203125 29.59375 
z
M 47.21875 32.234375 
Q 47.125 39.59375 43.09375 43.984375 
Q 39.0625 48.390625 32.421875 48.390625 
Q 24.90625 48.390625 20.390625 44.140625 
Q 15.875 39.890625 15.1875 32.171875 
z
" id="DejaVuSans-101"/>
      <path id="DejaVuSans-32"/>
      <path d="M 52 44.1875 
Q 55.375 50.25 60.0625 53.125 
Q 64.75 56 71.09375 56 
Q 79.640625 56 84.28125 50.015625 
Q 88.921875 44.046875 88.921875 33.015625 
L 88.921875 0 
L 79.890625 0 
L 79.890625 32.71875 
Q 79.890625 40.578125 77.09375 44.375 
Q 74.3125 48.1875 68.609375 48.1875 
Q 61.625 48.1875 57.5625 43.546875 
Q 53.515625 38.921875 53.515625 30.90625 
L 53.515625 0 
L 44.484375 0 
L 44.484375 32.71875 
Q 44.484375 40.625 41.703125 44.40625 
Q 38.921875 48.1875 33.109375 48.1875 
Q 26.21875 48.1875 22.15625 43.53125 
Q 18.109375 38.875 18.109375 30.90625 
L 18.109375 0 
L 9.078125 0 
L 9.078125 54.6875 
L 18.109375 54.6875 
L 18.109375 46.1875 
Q 21.1875 51.21875 25.484375 53.609375 
Q 29.78125 56 35.6875 56 
Q 41.65625 56 45.828125 52.96875 
Q 50 49.953125 52 44.1875 
z
" id="DejaVuSans-109"/>
      <path d="M 54.890625 33.015625 
L 54.890625 0 
L 45.90625 0 
L 45.90625 32.71875 
Q 45.90625 40.484375 42.875 44.328125 
Q 39.84375 48.1875 33.796875 48.1875 
Q 26.515625 48.1875 22.3125 43.546875 
Q 18.109375 38.921875 18.109375 30.90625 
L 18.109375 0 
L 9.078125 0 
L 9.078125 54.6875 
L 18.109375 54.6875 
L 18.109375 46.1875 
Q 21.34375 51.125 25.703125 53.5625 
Q 30.078125 56 35.796875 56 
Q 45.21875 56 50.046875 50.171875 
Q 54.890625 44.34375 54.890625 33.015625 
z
" id="DejaVuSans-110"/>
      <path d="M 9.421875 54.6875 
L 18.40625 54.6875 
L 18.40625 0 
L 9.421875 0 
z
M 9.421875 75.984375 
L 18.40625 75.984375 
L 18.40625 64.59375 
L 9.421875 64.59375 
z
" id="DejaVuSans-105"/>
      <path d="M 8.5 21.578125 
L 8.5 54.6875 
L 17.484375 54.6875 
L 17.484375 21.921875 
Q 17.484375 14.15625 20.5 10.265625 
Q 23.53125 6.390625 29.59375 6.390625 
Q 36.859375 6.390625 41.078125 11.03125 
Q 45.3125 15.671875 45.3125 23.6875 
L 45.3125 54.6875 
L 54.296875 54.6875 
L 54.296875 0 
L 45.3125 0 
L 45.3125 8.40625 
Q 42.046875 3.421875 37.71875 1 
Q 33.40625 -1.421875 27.6875 -1.421875 
Q 18.265625 -1.421875 13.375 4.4375 
Q 8.5 10.296875 8.5 21.578125 
z
M 31.109375 56 
z
" id="DejaVuSans-117"/>
      <path d="M 45.40625 46.390625 
L 45.40625 75.984375 
L 54.390625 75.984375 
L 54.390625 0 
L 45.40625 0 
L 45.40625 8.203125 
Q 42.578125 3.328125 38.25 0.953125 
Q 33.9375 -1.421875 27.875 -1.421875 
Q 17.96875 -1.421875 11.734375 6.484375 
Q 5.515625 14.40625 5.515625 27.296875 
Q 5.515625 40.1875 11.734375 48.09375 
Q 17.96875 56 27.875 56 
Q 33.9375 56 38.25 53.625 
Q 42.578125 51.265625 45.40625 46.390625 
z
M 14.796875 27.296875 
Q 14.796875 17.390625 18.875 11.75 
Q 22.953125 6.109375 30.078125 6.109375 
Q 37.203125 6.109375 41.296875 11.75 
Q 45.40625 17.390625 45.40625 27.296875 
Q 45.40625 37.203125 41.296875 42.84375 
Q 37.203125 48.484375 30.078125 48.484375 
Q 22.953125 48.484375 18.875 42.84375 
Q 14.796875 37.203125 14.796875 27.296875 
z
" id="DejaVuSans-100"/>
      <path d="M 18.109375 8.203125 
L 18.109375 -20.796875 
L 9.078125 -20.796875 
L 9.078125 54.6875 
L 18.109375 54.6875 
L 18.109375 46.390625 
Q 20.953125 51.265625 25.265625 53.625 
Q 29.59375 56 35.59375 56 
Q 45.5625 56 51.78125 48.09375 
Q 58.015625 40.1875 58.015625 27.296875 
Q 58.015625 14.40625 51.78125 6.484375 
Q 45.5625 -1.421875 35.59375 -1.421875 
Q 29.59375 -1.421875 25.265625 0.953125 
Q 20.953125 3.328125 18.109375 8.203125 
z
M 48.6875 27.296875 
Q 48.6875 37.203125 44.609375 42.84375 
Q 40.53125 48.484375 33.40625 48.484375 
Q 26.265625 48.484375 22.1875 42.84375 
Q 18.109375 37.203125 18.109375 27.296875 
Q 18.109375 17.390625 22.1875 11.75 
Q 26.265625 6.109375 33.40625 6.109375 
Q 40.53125 6.109375 44.609375 11.75 
Q 48.6875 17.390625 48.6875 27.296875 
z
" id="DejaVuSans-112"/>
      <path d="M 48.78125 52.59375 
L 48.78125 44.1875 
Q 44.96875 46.296875 41.140625 47.34375 
Q 37.3125 48.390625 33.40625 48.390625 
Q 24.65625 48.390625 19.8125 42.84375 
Q 14.984375 37.3125 14.984375 27.296875 
Q 14.984375 17.28125 19.8125 11.734375 
Q 24.65625 6.203125 33.40625 6.203125 
Q 37.3125 6.203125 41.140625 7.25 
Q 44.96875 8.296875 48.78125 10.40625 
L 48.78125 2.09375 
Q 45.015625 0.34375 40.984375 -0.53125 
Q 36.96875 -1.421875 32.421875 -1.421875 
Q 20.0625 -1.421875 12.78125 6.34375 
Q 5.515625 14.109375 5.515625 27.296875 
Q 5.515625 40.671875 12.859375 48.328125 
Q 20.21875 56 33.015625 56 
Q 37.15625 56 41.109375 55.140625 
Q 45.0625 54.296875 48.78125 52.59375 
z
" id="DejaVuSans-99"/>
      <path d="M 9.421875 75.984375 
L 18.40625 75.984375 
L 18.40625 0 
L 9.421875 0 
z
" id="DejaVuSans-108"/>
     </defs>
     <g transform="translate(410.13625 501.123625)scale(0.16 -0.16)">
      <use xlink:href="#DejaVuSans-83"/>
      <use x="63.476562" xlink:href="#DejaVuSans-104"/>
      <use x="126.855469" xlink:href="#DejaVuSans-111"/>
      <use x="188.037109" xlink:href="#DejaVuSans-114"/>
      <use x="229.150391" xlink:href="#DejaVuSans-116"/>
      <use x="268.359375" xlink:href="#DejaVuSans-97"/>
      <use x="329.638672" xlink:href="#DejaVuSans-103"/>
      <use x="393.115234" xlink:href="#DejaVuSans-101"/>
      <use x="454.638672" xlink:href="#DejaVuSans-32"/>
      <use x="486.425781" xlink:href="#DejaVuSans-109"/>
      <use x="583.837891" xlink:href="#DejaVuSans-97"/>
      <use x="645.117188" xlink:href="#DejaVuSans-103"/>
      <use x="708.59375" xlink:href="#DejaVuSans-110"/>
      <use x="771.972656" xlink:href="#DejaVuSans-105"/>
      <use x="799.755859" xlink:href="#DejaVuSans-116"/>
      <use x="838.964844" xlink:href="#DejaVuSans-117"/>
      <use x="902.34375" xlink:href="#DejaVuSans-100"/>
      <use x="965.820312" xlink:href="#DejaVuSans-101"/>
      <use x="1027.34375" xlink:href="#DejaVuSans-32"/>
      <use x="1059.130859" xlink:href="#DejaVuSans-112"/>
      <use x="1122.607422" xlink:href="#DejaVuSans-101"/>
      <use x="1184.130859" xlink:href="#DejaVuSans-114"/>
      <use x="1225.212891" xlink:href="#DejaVuSans-99"/>
      <use x="1280.193359" xlink:href="#DejaVuSans-101"/>
      <use x="1341.716797" xlink:href="#DejaVuSans-110"/>
      <use x="1405.095703" xlink:href="#DejaVuSans-116"/>
      <use x="1444.304688" xlink:href="#DejaVuSans-105"/>
      <use x="1472.087891" xlink:href="#DejaVuSans-108"/>
      <use x="1499.871094" xlink:href="#DejaVuSans-101"/>
     </g>
    </g>
   </g>
   <g id="matplotlib.axis_2">
    <g id="ytick_1">
     <g id="line2d_7">
      <defs>
       <path d="M 0 0 
L -3.5 0 
" id="m2f6021d94b" style="stroke:#000000;stroke-width:0.8;"/>
      </defs>
      <g>
       <use style="stroke:#000000;stroke-width:0.8;" x="130.5" xlink:href="#m2f6021d94b" y="468.288"/>
      </g>
     </g>
     <g id="text_8">
      <!-- 0.0 -->
      <defs>
       <path d="M 10.6875 12.40625 
L 21 12.40625 
L 21 0 
L 10.6875 0 
z
" id="DejaVuSans-46"/>
      </defs>
      <g transform="translate(107.596875 472.087219)scale(0.1 -0.1)">
       <use xlink:href="#DejaVuSans-48"/>
       <use x="63.623047" xlink:href="#DejaVuSans-46"/>
       <use x="95.410156" xlink:href="#DejaVuSans-48"/>
      </g>
     </g>
    </g>
    <g id="ytick_2">
     <g id="line2d_8">
      <g>
       <use style="stroke:#000000;stroke-width:0.8;" x="130.5" xlink:href="#m2f6021d94b" y="397.3248"/>
      </g>
     </g>
     <g id="text_9">
      <!-- 0.2 -->
      <g transform="translate(107.596875 401.124019)scale(0.1 -0.1)">
       <use xlink:href="#DejaVuSans-48"/>
       <use x="63.623047" xlink:href="#DejaVuSans-46"/>
       <use x="95.410156" xlink:href="#DejaVuSans-50"/>
      </g>
     </g>
    </g>
    <g id="ytick_3">
     <g id="line2d_9">
      <g>
       <use style="stroke:#000000;stroke-width:0.8;" x="130.5" xlink:href="#m2f6021d94b" y="326.3616"/>
      </g>
     </g>
     <g id="text_10">
      <!-- 0.4 -->
      <g transform="translate(107.596875 330.160819)scale(0.1 -0.1)">
       <use xlink:href="#DejaVuSans-48"/>
       <use x="63.623047" xlink:href="#DejaVuSans-46"/>
       <use x="95.410156" xlink:href="#DejaVuSans-52"/>
      </g>
     </g>
    </g>
    <g id="ytick_4">
     <g id="line2d_10">
      <g>
       <use style="stroke:#000000;stroke-width:0.8;" x="130.5" xlink:href="#m2f6021d94b" y="255.3984"/>
      </g>
     </g>
     <g id="text_11">
      <!-- 0.6 -->
      <g transform="translate(107.596875 259.197619)scale(0.1 -0.1)">
       <use xlink:href="#DejaVuSans-48"/>
       <use x="63.623047" xlink:href="#DejaVuSans-46"/>
       <use x="95.410156" xlink:href="#DejaVuSans-54"/>
      </g>
     </g>
    </g>
    <g id="ytick_5">
     <g id="line2d_11">
      <g>
       <use style="stroke:#000000;stroke-width:0.8;" x="130.5" xlink:href="#m2f6021d94b" y="184.4352"/>
      </g>
     </g>
     <g id="text_12">
      <!-- 0.8 -->
      <g transform="translate(107.596875 188.234419)scale(0.1 -0.1)">
       <use xlink:href="#DejaVuSans-48"/>
       <use x="63.623047" xlink:href="#DejaVuSans-46"/>
       <use x="95.410156" xlink:href="#DejaVuSans-56"/>
      </g>
     </g>
    </g>
    <g id="ytick_6">
     <g id="line2d_12">
      <g>
       <use style="stroke:#000000;stroke-width:0.8;" x="130.5" xlink:href="#m2f6021d94b" y="113.472"/>
      </g>
     </g>
     <g id="text_13">
      <!-- 1.0 -->
      <g transform="translate(107.596875 117.271219)scale(0.1 -0.1)">
       <use xlink:href="#DejaVuSans-49"/>
       <use x="63.623047" xlink:href="#DejaVuSans-46"/>
       <use x="95.410156" xlink:href="#DejaVuSans-48"/>
      </g>
     </g>
    </g>
    <g id="text_14">
     <!-- Variance explained -->
     <defs>
      <path d="M 28.609375 0 
L 0.78125 72.90625 
L 11.078125 72.90625 
L 34.1875 11.53125 
L 57.328125 72.90625 
L 67.578125 72.90625 
L 39.796875 0 
z
" id="DejaVuSans-86"/>
      <path d="M 54.890625 54.6875 
L 35.109375 28.078125 
L 55.90625 0 
L 45.3125 0 
L 29.390625 21.484375 
L 13.484375 0 
L 2.875 0 
L 24.125 28.609375 
L 4.6875 54.6875 
L 15.28125 54.6875 
L 29.78125 35.203125 
L 44.28125 54.6875 
z
" id="DejaVuSans-120"/>
     </defs>
     <g transform="translate(100.269375 367.7475)rotate(-90)scale(0.16 -0.16)">
      <use xlink:href="#DejaVuSans-86"/>
      <use x="68.298828" xlink:href="#DejaVuSans-97"/>
      <use x="129.578125" xlink:href="#DejaVuSans-114"/>
      <use x="170.691406" xlink:href="#DejaVuSans-105"/>
      <use x="198.474609" xlink:href="#DejaVuSans-97"/>
      <use x="259.753906" xlink:href="#DejaVuSans-110"/>
      <use x="323.132812" xlink:href="#DejaVuSans-99"/>
      <use x="378.113281" xlink:href="#DejaVuSans-101"/>
      <use x="439.636719" xlink:href="#DejaVuSans-32"/>
      <use x="471.423828" xlink:href="#DejaVuSans-101"/>
      <use x="532.931641" xlink:href="#DejaVuSans-120"/>
      <use x="592.111328" xlink:href="#DejaVuSans-112"/>
      <use x="655.587891" xlink:href="#DejaVuSans-108"/>
      <use x="683.371094" xlink:href="#DejaVuSans-97"/>
      <use x="744.650391" xlink:href="#DejaVuSans-105"/>
      <use x="772.433594" xlink:href="#DejaVuSans-110"/>
      <use x="835.8125" xlink:href="#DejaVuSans-101"/>
      <use x="897.335938" xlink:href="#DejaVuSans-100"/>
     </g>
    </g>
   </g>
   <g id="line2d_13">
    <path clip-path="url(#p88cd544668)" d="M 130.5 310.816879 
L 138.591 247.719881 
L 146.682 241.764815 
L 154.773 241.011873 
L 162.864 240.248647 
L 170.955 238.876987 
L 179.046 237.263551 
L 187.137 235.583291 
L 195.228 234.037998 
L 203.319 232.812557 
L 211.41 231.769908 
L 219.501 230.693396 
L 227.592 229.487425 
L 235.683 228.120909 
L 243.774 226.80117 
L 251.865 225.597326 
L 259.956 224.521758 
L 268.047 223.660034 
L 276.138 222.841003 
L 284.229 222.075615 
L 292.32 221.358231 
L 300.411 220.562844 
L 308.502 219.730927 
L 316.593 218.86318 
L 324.684 217.843132 
L 332.775 216.765877 
L 340.866 215.754989 
L 348.957 214.445462 
L 357.048 212.886519 
L 365.139 210.995609 
L 373.23 208.44724 
L 381.321 205.247234 
L 389.412 201.507198 
L 397.503 197.405342 
L 405.594 192.832689 
L 413.685 187.688736 
L 421.776 182.203937 
L 429.867 176.390039 
L 437.958 170.606812 
L 446.049 166.131413 
L 454.14 163.147296 
L 462.231 161.240845 
L 470.322 160.45252 
L 478.413 160.396512 
L 486.504 160.52507 
L 494.595 160.650423 
L 502.686 160.678467 
L 510.777 160.794463 
L 518.868 161.121322 
L 526.959 161.68069 
L 535.05 162.290338 
L 543.141 162.923163 
L 551.232 163.632727 
L 559.323 164.660614 
L 567.414 165.823148 
L 575.505 167.271936 
L 583.596 169.482114 
L 591.687 171.127528 
L 599.778 171.977483 
L 607.869 172.759878 
L 615.96 173.643985 
L 624.051 174.598451 
L 632.142 175.919857 
L 640.233 178.209239 
L 648.324 179.474588 
L 656.415 178.818125 
L 664.506 177.222498 
L 672.597 174.731963 
L 680.688 171.906092 
L 688.779 169.082838 
L 696.87 166.881592 
L 704.961 165.020505 
L 713.052 163.558571 
L 721.143 162.302273 
L 729.234 160.971907 
L 737.325 159.970148 
L 745.416 159.585104 
L 753.507 159.352249 
L 761.598 159.326917 
L 769.689 157.053832 
L 777.78 156.034647 
L 785.871 155.441271 
L 793.962 154.368954 
L 802.053 151.102383 
L 810.144 146.830059 
L 818.235 145.01794 
L 826.326 145.306537 
L 834.417 147.003005 
L 842.508 150.453585 
L 850.599 155.182217 
L 858.69 160.741693 
L 866.781 161.447596 
L 874.872 158.494499 
L 882.963 152.55789 
L 891.054 151.773135 
L 899.145 155.490864 
L 907.236 163.179505 
L 915.327 176.946646 
L 923.418 192.681363 
L 931.509 159.431537 
" style="fill:none;stroke:#f18670;stroke-linecap:square;stroke-width:2;"/>
   </g>
   <g id="line2d_14">
    <path clip-path="url(#p88cd544668)" d="M 130.5 468.157453 
L 138.591 468.15856 
L 146.682 468.133582 
L 154.773 468.135261 
L 162.864 468.132758 
L 170.955 468.130674 
L 179.046 468.130194 
L 187.137 468.133107 
L 195.228 468.134067 
L 203.319 468.132862 
L 211.41 468.132285 
L 219.501 468.130898 
L 227.592 468.130609 
L 235.683 468.130909 
L 243.774 468.135076 
L 251.865 468.139375 
L 259.956 468.141001 
L 268.047 468.143873 
L 276.138 468.144783 
L 284.229 468.144682 
L 292.32 468.146758 
L 300.411 468.148089 
L 308.502 468.150585 
L 316.593 468.156737 
L 324.684 468.165566 
L 332.775 468.173901 
L 340.866 468.183946 
L 348.957 468.192389 
L 357.048 468.197181 
L 365.139 468.203366 
L 373.23 468.209347 
L 381.321 468.211919 
L 389.412 468.211024 
L 397.503 468.208202 
L 405.594 468.199192 
L 413.685 468.191662 
L 421.776 468.182995 
L 429.867 468.169058 
L 437.958 468.153578 
L 446.049 468.138243 
L 454.14 468.132342 
L 462.231 468.126124 
L 470.322 468.12335 
L 478.413 468.123766 
L 486.504 468.122832 
L 494.595 468.122999 
L 502.686 468.119352 
L 510.777 468.112188 
L 518.868 468.107232 
L 526.959 468.104695 
L 535.05 468.094088 
L 543.141 468.092938 
L 551.232 468.100013 
L 559.323 468.106305 
L 567.414 468.108272 
L 575.505 468.12001 
L 583.596 468.134851 
L 591.687 468.143426 
L 599.778 468.144798 
L 607.869 468.150937 
L 615.96 468.160811 
L 624.051 468.169348 
L 632.142 468.173816 
L 640.233 468.178274 
L 648.324 468.186786 
L 656.415 468.195067 
L 664.506 468.195357 
L 672.597 468.190839 
L 680.688 468.186675 
L 688.779 468.182279 
L 696.87 468.187759 
L 704.961 468.174151 
L 713.052 468.166062 
L 721.143 468.166062 
L 729.234 468.175971 
L 737.325 468.182434 
L 745.416 468.18512 
L 753.507 468.182221 
L 761.598 468.192915 
L 769.689 468.185206 
L 777.78 468.18178 
L 785.871 468.190252 
L 793.962 468.203981 
L 802.053 468.190538 
L 810.144 468.15164 
L 818.235 468.134818 
L 826.326 468.128053 
L 834.417 468.122916 
L 842.508 468.13221 
L 850.599 468.171599 
L 858.69 468.203696 
L 866.781 468.216071 
L 874.872 468.205893 
L 882.963 468.181191 
L 891.054 468.18963 
L 899.145 468.185476 
L 907.236 468.197018 
L 915.327 468.197338 
L 923.418 468.24895 
L 931.509 468.152148 
" style="fill:none;stroke:#e24d3f;stroke-linecap:square;stroke-width:2;"/>
   </g>
   <g id="line2d_15">
    <path clip-path="url(#p88cd544668)" d="M 130.5 466.926958 
L 138.591 466.705522 
L 146.682 466.623096 
L 154.773 466.600768 
L 162.864 466.602869 
L 170.955 466.621301 
L 179.046 466.628228 
L 187.137 466.623013 
L 195.228 466.629375 
L 203.319 466.638594 
L 211.41 466.647004 
L 219.501 466.661006 
L 227.592 466.669202 
L 235.683 466.687089 
L 243.774 466.708949 
L 251.865 466.709763 
L 259.956 466.710886 
L 268.047 466.712463 
L 276.138 466.717079 
L 284.229 466.725272 
L 292.32 466.744035 
L 300.411 466.763057 
L 308.502 466.778995 
L 316.593 466.808498 
L 324.684 466.835007 
L 332.775 466.863835 
L 340.866 466.90832 
L 348.957 466.93818 
L 357.048 466.969421 
L 365.139 467.010975 
L 373.23 467.039792 
L 381.321 467.089606 
L 389.412 467.137164 
L 397.503 467.200321 
L 405.594 467.229474 
L 413.685 467.245857 
L 421.776 467.240105 
L 429.867 467.244187 
L 437.958 467.269439 
L 446.049 467.286893 
L 454.14 467.295988 
L 462.231 467.295414 
L 470.322 467.307283 
L 478.413 467.317194 
L 486.504 467.320532 
L 494.595 467.324953 
L 502.686 467.31929 
L 510.777 467.324606 
L 518.868 467.340658 
L 526.959 467.346556 
L 535.05 467.360001 
L 543.141 467.357147 
L 551.232 467.356213 
L 559.323 467.349822 
L 567.414 467.328181 
L 575.505 467.294394 
L 583.596 467.285315 
L 591.687 467.282707 
L 599.778 467.276211 
L 607.869 467.273613 
L 615.96 467.264216 
L 624.051 467.251988 
L 632.142 467.253086 
L 640.233 467.269425 
L 648.324 467.287063 
L 656.415 467.307436 
L 664.506 467.330632 
L 672.597 467.354987 
L 680.688 467.400547 
L 688.779 467.423601 
L 696.87 467.430246 
L 704.961 467.482051 
L 713.052 467.487467 
L 721.143 467.524232 
L 729.234 467.538843 
L 737.325 467.507021 
L 745.416 467.504099 
L 753.507 467.535987 
L 761.598 467.559991 
L 769.689 467.577934 
L 777.78 467.591948 
L 785.871 467.585616 
L 793.962 467.575554 
L 802.053 467.583352 
L 810.144 467.613476 
L 818.235 467.652433 
L 826.326 467.645161 
L 834.417 467.650524 
L 842.508 467.644813 
L 850.599 467.589738 
L 858.69 467.543961 
L 866.781 467.532814 
L 874.872 467.556874 
L 882.963 467.572389 
L 891.054 467.574058 
L 899.145 467.567701 
L 907.236 467.461849 
L 915.327 467.558328 
L 923.418 467.651085 
L 931.509 467.927759 
" style="fill:none;stroke:#cf233e;stroke-linecap:square;stroke-width:2;"/>
   </g>
   <g id="line2d_16">
    <path clip-path="url(#p88cd544668)" d="M 130.5 468.287246 
L 138.591 468.272139 
L 146.682 468.257999 
L 154.773 468.252213 
L 162.864 468.252127 
L 170.955 468.249667 
L 179.046 468.247562 
L 187.137 468.246131 
L 195.228 468.243977 
L 203.319 468.243708 
L 211.41 468.24437 
L 219.501 468.24323 
L 227.592 468.241948 
L 235.683 468.241892 
L 243.774 468.241701 
L 251.865 468.241119 
L 259.956 468.240317 
L 268.047 468.239138 
L 276.138 468.239404 
L 284.229 468.239979 
L 292.32 468.237117 
L 300.411 468.235482 
L 308.502 468.235276 
L 316.593 468.23571 
L 324.684 468.234667 
L 332.775 468.236698 
L 340.866 468.237683 
L 348.957 468.241422 
L 357.048 468.241755 
L 365.139 468.243416 
L 373.23 468.244339 
L 381.321 468.244148 
L 389.412 468.248067 
L 397.503 468.251065 
L 405.594 468.256698 
L 413.685 468.261487 
L 421.776 468.264214 
L 429.867 468.266044 
L 437.958 468.264429 
L 446.049 468.261882 
L 454.14 468.263915 
L 462.231 468.263518 
L 470.322 468.260668 
L 478.413 468.257592 
L 486.504 468.256391 
L 494.595 468.258465 
L 502.686 468.259402 
L 510.777 468.261085 
L 518.868 468.263954 
L 526.959 468.26509 
L 535.05 468.265644 
L 543.141 468.265747 
L 551.232 468.265577 
L 559.323 468.266981 
L 567.414 468.266427 
L 575.505 468.270846 
L 583.596 468.270962 
L 591.687 468.270598 
L 599.778 468.272051 
L 607.869 468.272941 
L 615.96 468.271992 
L 624.051 468.270086 
L 632.142 468.26747 
L 640.233 468.262166 
L 648.324 468.257463 
L 656.415 468.251394 
L 664.506 468.245623 
L 672.597 468.246574 
L 680.688 468.24489 
L 688.779 468.244054 
L 696.87 468.245643 
L 704.961 468.253446 
L 713.052 468.261605 
L 721.143 468.262576 
L 729.234 468.266735 
L 737.325 468.273154 
L 745.416 468.276899 
L 753.507 468.275593 
L 761.598 468.273805 
L 769.689 468.271353 
L 777.78 468.278215 
L 785.871 468.282533 
L 793.962 468.280757 
L 802.053 468.278833 
L 810.144 468.276734 
L 818.235 468.272885 
L 826.326 468.272478 
L 834.417 468.275538 
L 842.508 468.280849 
L 850.599 468.285461 
L 858.69 468.286238 
L 866.781 468.285753 
L 874.872 468.281683 
L 882.963 468.28103 
L 891.054 468.283191 
L 899.145 468.28159 
L 907.236 468.267263 
L 915.327 468.2648 
L 923.418 468.277343 
L 931.509 468.287999 
" style="fill:none;stroke:#681e33;stroke-linecap:square;stroke-width:2;"/>
   </g>
   <g id="line2d_17">
    <path clip-path="url(#p88cd544668)" d="M 130.5 468.245023 
L 138.591 468.186953 
L 146.682 468.181807 
L 154.773 468.183361 
L 162.864 468.178312 
L 170.955 468.172381 
L 179.046 468.164511 
L 187.137 468.159811 
L 195.228 468.154813 
L 203.319 468.148276 
L 211.41 468.142096 
L 219.501 468.140396 
L 227.592 468.140579 
L 235.683 468.139439 
L 243.774 468.137794 
L 251.865 468.137509 
L 259.956 468.139577 
L 268.047 468.14035 
L 276.138 468.138305 
L 284.229 468.137456 
L 292.32 468.140946 
L 300.411 468.138379 
L 308.502 468.13969 
L 316.593 468.136619 
L 324.684 468.1405 
L 332.775 468.137379 
L 340.866 468.136146 
L 348.957 468.13382 
L 357.048 468.138513 
L 365.139 468.137108 
L 373.23 468.142342 
L 381.321 468.14655 
L 389.412 468.160586 
L 397.503 468.172363 
L 405.594 468.178248 
L 413.685 468.180608 
L 421.776 468.181731 
L 429.867 468.180396 
L 437.958 468.173436 
L 446.049 468.159272 
L 454.14 468.150237 
L 462.231 468.138654 
L 470.322 468.121963 
L 478.413 468.109951 
L 486.504 468.10776 
L 494.595 468.107103 
L 502.686 468.105629 
L 510.777 468.111151 
L 518.868 468.110391 
L 526.959 468.108963 
L 535.05 468.114304 
L 543.141 468.118426 
L 551.232 468.120258 
L 559.323 468.126434 
L 567.414 468.123756 
L 575.505 468.139194 
L 583.596 468.152322 
L 591.687 468.158911 
L 599.778 468.15786 
L 607.869 468.158655 
L 615.96 468.159185 
L 624.051 468.151319 
L 632.142 468.13724 
L 640.233 468.124191 
L 648.324 468.111316 
L 656.415 468.10317 
L 664.506 468.1034 
L 672.597 468.114005 
L 680.688 468.122684 
L 688.779 468.122995 
L 696.87 468.116169 
L 704.961 468.111863 
L 713.052 468.121624 
L 721.143 468.136753 
L 729.234 468.139682 
L 737.325 468.157495 
L 745.416 468.157417 
L 753.507 468.146831 
L 761.598 468.157616 
L 769.689 468.145754 
L 777.78 468.134993 
L 785.871 468.138858 
L 793.962 468.158612 
L 802.053 468.167714 
L 810.144 468.138212 
L 818.235 468.118079 
L 826.326 468.115988 
L 834.417 468.111449 
L 842.508 468.110178 
L 850.599 468.122217 
L 858.69 468.127569 
L 866.781 468.138298 
L 874.872 468.155288 
L 882.963 468.168721 
L 891.054 468.173672 
L 899.145 468.185771 
L 907.236 468.13978 
L 915.327 468.157884 
L 923.418 468.199883 
L 931.509 468.176125 
" style="fill:none;stroke:#676572;stroke-linecap:square;stroke-width:2;"/>
   </g>
   <g id="line2d_18">
    <path clip-path="url(#p88cd544668)" d="M 130.5 467.956406 
L 138.591 467.635734 
L 146.682 467.487236 
L 154.773 467.453029 
L 162.864 467.466107 
L 170.955 467.512688 
L 179.046 467.545081 
L 187.137 467.565318 
L 195.228 467.578743 
L 203.319 467.580955 
L 211.41 467.59397 
L 219.501 467.616774 
L 227.592 467.625749 
L 235.683 467.619392 
L 243.774 467.600052 
L 251.865 467.578754 
L 259.956 467.566949 
L 268.047 467.566253 
L 276.138 467.571275 
L 284.229 467.577834 
L 292.32 467.594412 
L 300.411 467.606998 
L 308.502 467.624758 
L 316.593 467.656038 
L 324.684 467.682194 
L 332.775 467.716742 
L 340.866 467.765471 
L 348.957 467.81183 
L 357.048 467.86449 
L 365.139 467.915541 
L 373.23 467.944227 
L 381.321 467.961267 
L 389.412 467.980675 
L 397.503 468.003583 
L 405.594 468.018511 
L 413.685 468.020794 
L 421.776 468.005409 
L 429.867 467.967071 
L 437.958 467.907074 
L 446.049 467.834174 
L 454.14 467.774285 
L 462.231 467.740948 
L 470.322 467.726308 
L 478.413 467.711501 
L 486.504 467.712415 
L 494.595 467.711566 
L 502.686 467.724424 
L 510.777 467.73126 
L 518.868 467.753716 
L 526.959 467.775633 
L 535.05 467.794435 
L 543.141 467.809432 
L 551.232 467.835654 
L 559.323 467.85445 
L 567.414 467.868981 
L 575.505 467.899457 
L 583.596 467.916095 
L 591.687 467.907415 
L 599.778 467.906495 
L 607.869 467.908958 
L 615.96 467.922924 
L 624.051 467.927701 
L 632.142 467.92339 
L 640.233 467.895775 
L 648.324 467.862467 
L 656.415 467.849706 
L 664.506 467.838008 
L 672.597 467.836582 
L 680.688 467.855109 
L 688.779 467.871548 
L 696.87 467.878097 
L 704.961 467.891932 
L 713.052 467.911137 
L 721.143 467.916299 
L 729.234 467.95887 
L 737.325 467.969613 
L 745.416 467.999576 
L 753.507 468.036882 
L 761.598 468.031951 
L 769.689 468.021778 
L 777.78 467.987027 
L 785.871 467.985284 
L 793.962 467.961227 
L 802.053 467.849644 
L 810.144 467.672977 
L 818.235 467.575152 
L 826.326 467.636729 
L 834.417 467.7164 
L 842.508 467.803927 
L 850.599 467.876616 
L 858.69 467.940678 
L 866.781 467.939096 
L 874.872 467.893677 
L 882.963 467.826477 
L 891.054 467.839504 
L 899.145 467.883016 
L 907.236 467.894545 
L 915.327 467.978594 
L 923.418 468.027261 
L 931.509 467.805083 
" style="fill:none;stroke:#f3be22;stroke-linecap:square;stroke-width:2;"/>
   </g>
   <g id="line2d_19">
    <path clip-path="url(#p88cd544668)" d="M 130.5 466.825721 
L 138.591 465.888594 
L 146.682 465.812238 
L 154.773 465.789476 
L 162.864 465.784929 
L 170.955 465.788787 
L 179.046 465.807169 
L 187.137 465.817541 
L 195.228 465.82899 
L 203.319 465.831514 
L 211.41 465.831414 
L 219.501 465.847654 
L 227.592 465.863473 
L 235.683 465.866395 
L 243.774 465.857305 
L 251.865 465.840581 
L 259.956 465.827531 
L 268.047 465.835856 
L 276.138 465.848837 
L 284.229 465.85373 
L 292.32 465.867805 
L 300.411 465.883413 
L 308.502 465.905581 
L 316.593 465.936103 
L 324.684 465.971144 
L 332.775 465.998412 
L 340.866 466.036155 
L 348.957 466.085558 
L 357.048 466.138976 
L 365.139 466.189402 
L 373.23 466.209085 
L 381.321 466.20376 
L 389.412 466.254923 
L 397.503 466.290783 
L 405.594 466.28226 
L 413.685 466.242323 
L 421.776 466.194557 
L 429.867 466.11354 
L 437.958 466.036154 
L 446.049 465.926436 
L 454.14 465.836647 
L 462.231 465.79397 
L 470.322 465.756628 
L 478.413 465.714522 
L 486.504 465.693849 
L 494.595 465.695212 
L 502.686 465.677018 
L 510.777 465.695331 
L 518.868 465.714663 
L 526.959 465.691762 
L 535.05 465.730653 
L 543.141 465.753042 
L 551.232 465.766608 
L 559.323 465.782348 
L 567.414 465.780425 
L 575.505 465.752785 
L 583.596 465.689442 
L 591.687 465.67395 
L 599.778 465.694567 
L 607.869 465.722826 
L 615.96 465.762559 
L 624.051 465.781664 
L 632.142 465.803039 
L 640.233 465.861156 
L 648.324 465.918709 
L 656.415 465.963622 
L 664.506 466.001509 
L 672.597 466.051404 
L 680.688 466.085901 
L 688.779 466.071652 
L 696.87 466.080744 
L 704.961 466.109727 
L 713.052 466.098873 
L 721.143 466.106765 
L 729.234 466.065133 
L 737.325 466.003911 
L 745.416 465.948455 
L 753.507 465.923875 
L 761.598 465.918333 
L 769.689 465.885003 
L 777.78 465.941119 
L 785.871 465.950598 
L 793.962 465.878972 
L 802.053 465.821807 
L 810.144 465.843765 
L 818.235 465.899214 
L 826.326 465.91622 
L 834.417 465.921491 
L 842.508 466.031215 
L 850.599 465.89219 
L 858.69 465.722705 
L 866.781 465.723872 
L 874.872 465.758704 
L 882.963 465.836868 
L 891.054 465.894118 
L 899.145 465.866776 
L 907.236 465.944933 
L 915.327 466.312382 
L 923.418 466.454284 
L 931.509 466.121805 
" style="fill:none;stroke:#59deba;stroke-linecap:square;stroke-width:2;"/>
   </g>
   <g id="line2d_20">
    <path clip-path="url(#p88cd544668)" d="M 130.5 467.404593 
L 138.591 468.244587 
L 146.682 468.263189 
L 154.773 468.261028 
L 162.864 468.258991 
L 170.955 468.25001 
L 179.046 468.240019 
L 187.137 468.232754 
L 195.228 468.226782 
L 203.319 468.220985 
L 211.41 468.208343 
L 219.501 468.191345 
L 227.592 468.175306 
L 235.683 468.164008 
L 243.774 468.158265 
L 251.865 468.156609 
L 259.956 468.158322 
L 268.047 468.155666 
L 276.138 468.148264 
L 284.229 468.138224 
L 292.32 468.121249 
L 300.411 468.10013 
L 308.502 468.069255 
L 316.593 468.020269 
L 324.684 467.950913 
L 332.775 467.851769 
L 340.866 467.705204 
L 348.957 467.511844 
L 357.048 467.247611 
L 365.139 466.937338 
L 373.23 466.581506 
L 381.321 466.225576 
L 389.412 465.873364 
L 397.503 465.528724 
L 405.594 465.289386 
L 413.685 465.193713 
L 421.776 465.295791 
L 429.867 465.664208 
L 437.958 466.227461 
L 446.049 466.70713 
L 454.14 467.006275 
L 462.231 467.210824 
L 470.322 467.373091 
L 478.413 467.475315 
L 486.504 467.504295 
L 494.595 467.49037 
L 502.686 467.452065 
L 510.777 467.376169 
L 518.868 467.27494 
L 526.959 467.159746 
L 535.05 467.017861 
L 543.141 466.86752 
L 551.232 466.71369 
L 559.323 466.57491 
L 567.414 466.458764 
L 575.505 466.400408 
L 583.596 466.410929 
L 591.687 466.393581 
L 599.778 466.326056 
L 607.869 466.153471 
L 615.96 466.010079 
L 624.051 465.954764 
L 632.142 465.90034 
L 640.233 465.915505 
L 648.324 465.910071 
L 656.415 465.858893 
L 664.506 465.810801 
L 672.597 465.72673 
L 680.688 465.63896 
L 688.779 465.560832 
L 696.87 465.423659 
L 704.961 465.240486 
L 713.052 465.03859 
L 721.143 464.832375 
L 729.234 464.738933 
L 737.325 464.711019 
L 745.416 464.347283 
L 753.507 464.120041 
L 761.598 464.25012 
L 769.689 464.504018 
L 777.78 464.477533 
L 785.871 464.055512 
L 793.962 463.843412 
L 802.053 464.698008 
L 810.144 466.037175 
L 818.235 466.438297 
L 826.326 466.253479 
L 834.417 465.640879 
L 842.508 464.451058 
L 850.599 463.892989 
L 858.69 463.516844 
L 866.781 462.653121 
L 874.872 462.633007 
L 882.963 464.3979 
L 891.054 464.302644 
L 899.145 463.650156 
L 907.236 463.983105 
L 915.327 461.131124 
L 923.418 456.91925 
L 931.509 463.749549 
" style="fill:none;stroke:#14015c;stroke-linecap:square;stroke-width:2;"/>
   </g>
   <g id="line2d_21">
    <path clip-path="url(#p88cd544668)" d="M 130.5 468.287971 
L 138.591 468.207248 
L 146.682 468.210086 
L 154.773 468.202873 
L 162.864 468.202365 
L 170.955 468.204889 
L 179.046 468.204871 
L 187.137 468.203631 
L 195.228 468.205111 
L 203.319 468.205802 
L 211.41 468.207339 
L 219.501 468.20995 
L 227.592 468.212706 
L 235.683 468.212599 
L 243.774 468.209233 
L 251.865 468.206403 
L 259.956 468.204428 
L 268.047 468.205199 
L 276.138 468.204304 
L 284.229 468.202874 
L 292.32 468.203797 
L 300.411 468.206485 
L 308.502 468.212566 
L 316.593 468.21892 
L 324.684 468.22661 
L 332.775 468.232076 
L 340.866 468.24761 
L 348.957 468.259484 
L 357.048 468.269758 
L 365.139 468.27854 
L 373.23 468.284678 
L 381.321 468.287436 
L 389.412 468.287728 
L 397.503 468.287959 
L 405.594 468.287994 
L 413.685 468.287983 
L 421.776 468.287783 
L 429.867 468.284438 
L 437.958 468.273026 
L 446.049 468.253086 
L 454.14 468.229783 
L 462.231 468.209361 
L 470.322 468.192341 
L 478.413 468.183894 
L 486.504 468.183359 
L 494.595 468.187664 
L 502.686 468.193294 
L 510.777 468.199919 
L 518.868 468.205546 
L 526.959 468.215467 
L 535.05 468.225318 
L 543.141 468.233408 
L 551.232 468.236916 
L 559.323 468.242361 
L 567.414 468.246499 
L 575.505 468.248528 
L 583.596 468.247374 
L 591.687 468.252178 
L 599.778 468.257335 
L 607.869 468.267742 
L 615.96 468.275444 
L 624.051 468.279943 
L 632.142 468.284245 
L 640.233 468.285996 
L 648.324 468.286965 
L 656.415 468.287362 
L 664.506 468.287342 
L 672.597 468.287156 
L 680.688 468.286954 
L 688.779 468.286757 
L 696.87 468.286803 
L 704.961 468.287029 
L 713.052 468.287833 
L 721.143 468.287998 
L 729.234 468.287768 
L 737.325 468.287455 
L 745.416 468.285102 
L 753.507 468.284224 
L 761.598 468.284924 
L 769.689 468.287198 
L 777.78 468.287976 
L 785.871 468.287468 
L 793.962 468.286873 
L 802.053 468.286584 
L 810.144 468.253574 
L 818.235 468.221686 
L 826.326 468.222199 
L 834.417 468.243613 
L 842.508 468.277266 
L 850.599 468.287256 
L 858.69 468.287532 
L 866.781 468.285357 
L 874.872 468.287826 
L 882.963 468.27956 
L 891.054 468.282412 
L 899.145 468.287854 
L 907.236 468.28548 
L 915.327 468.183165 
L 923.418 467.939651 
L 931.509 468.287822 
" style="fill:none;stroke:#daf8a3;stroke-linecap:square;stroke-width:2;"/>
   </g>
   <g id="line2d_22">
    <path clip-path="url(#p88cd544668)" d="M 130.5 468.24496 
L 138.591 468.262082 
L 146.682 468.222449 
L 154.773 468.210787 
L 162.864 468.202483 
L 170.955 468.201555 
L 179.046 468.199353 
L 187.137 468.194314 
L 195.228 468.187557 
L 203.319 468.183938 
L 211.41 468.180819 
L 219.501 468.180408 
L 227.592 468.181699 
L 235.683 468.185038 
L 243.774 468.184466 
L 251.865 468.184351 
L 259.956 468.186086 
L 268.047 468.187597 
L 276.138 468.185578 
L 284.229 468.18673 
L 292.32 468.189696 
L 300.411 468.186256 
L 308.502 468.184103 
L 316.593 468.183392 
L 324.684 468.183118 
L 332.775 468.180891 
L 340.866 468.178591 
L 348.957 468.178755 
L 357.048 468.1797 
L 365.139 468.181132 
L 373.23 468.178457 
L 381.321 468.171577 
L 389.412 468.162565 
L 397.503 468.169538 
L 405.594 468.16867 
L 413.685 468.17105 
L 421.776 468.169211 
L 429.867 468.155252 
L 437.958 468.13947 
L 446.049 468.118864 
L 454.14 468.09852 
L 462.231 468.077969 
L 470.322 468.062641 
L 478.413 468.044831 
L 486.504 468.028793 
L 494.595 468.018808 
L 502.686 468.021598 
L 510.777 468.018927 
L 518.868 468.026403 
L 526.959 468.044096 
L 535.05 468.047823 
L 543.141 468.059158 
L 551.232 468.065981 
L 559.323 468.081114 
L 567.414 468.102303 
L 575.505 468.126244 
L 583.596 468.142486 
L 591.687 468.145475 
L 599.778 468.149603 
L 607.869 468.154062 
L 615.96 468.165793 
L 624.051 468.177755 
L 632.142 468.185213 
L 640.233 468.19282 
L 648.324 468.191606 
L 656.415 468.183342 
L 664.506 468.170241 
L 672.597 468.162602 
L 680.688 468.148655 
L 688.779 468.133832 
L 696.87 468.122546 
L 704.961 468.117996 
L 713.052 468.112345 
L 721.143 468.106016 
L 729.234 468.113332 
L 737.325 468.100965 
L 745.416 468.087037 
L 753.507 468.076633 
L 761.598 468.080341 
L 769.689 468.074376 
L 777.78 468.073232 
L 785.871 468.102407 
L 793.962 468.150582 
L 802.053 468.142922 
L 810.144 468.108549 
L 818.235 468.081419 
L 826.326 468.078172 
L 834.417 468.093786 
L 842.508 468.125044 
L 850.599 468.16651 
L 858.69 468.177838 
L 866.781 468.173912 
L 874.872 468.193328 
L 882.963 468.175457 
L 891.054 468.180373 
L 899.145 468.191763 
L 907.236 468.19315 
L 915.327 468.211166 
L 923.418 468.227701 
L 931.509 468.148354 
" style="fill:none;stroke:#0b7a0a;stroke-linecap:square;stroke-width:2;"/>
   </g>
   <g id="line2d_23">
    <path clip-path="url(#p88cd544668)" d="M 130.5 467.760359 
L 138.591 467.974219 
L 146.682 467.925872 
L 154.773 467.915902 
L 162.864 467.910034 
L 170.955 467.905444 
L 179.046 467.900897 
L 187.137 467.898933 
L 195.228 467.893974 
L 203.319 467.891073 
L 211.41 467.886208 
L 219.501 467.880665 
L 227.592 467.874774 
L 235.683 467.871586 
L 243.774 467.864566 
L 251.865 467.860059 
L 259.956 467.859676 
L 268.047 467.856439 
L 276.138 467.852896 
L 284.229 467.847664 
L 292.32 467.84069 
L 300.411 467.836859 
L 308.502 467.829676 
L 316.593 467.814438 
L 324.684 467.803149 
L 332.775 467.796741 
L 340.866 467.783156 
L 348.957 467.75945 
L 357.048 467.74061 
L 365.139 467.715977 
L 373.23 467.683528 
L 381.321 467.655134 
L 389.412 467.637448 
L 397.503 467.617125 
L 405.594 467.622335 
L 413.685 467.616414 
L 421.776 467.620014 
L 429.867 467.644506 
L 437.958 467.663651 
L 446.049 467.68485 
L 454.14 467.694436 
L 462.231 467.693658 
L 470.322 467.700659 
L 478.413 467.708576 
L 486.504 467.70142 
L 494.595 467.689375 
L 502.686 467.679331 
L 510.777 467.671248 
L 518.868 467.666892 
L 526.959 467.649203 
L 535.05 467.646578 
L 543.141 467.637372 
L 551.232 467.639261 
L 559.323 467.635805 
L 567.414 467.638093 
L 575.505 467.64228 
L 583.596 467.655257 
L 591.687 467.653439 
L 599.778 467.655191 
L 607.869 467.65338 
L 615.96 467.644386 
L 624.051 467.638211 
L 632.142 467.637501 
L 640.233 467.644789 
L 648.324 467.657504 
L 656.415 467.660947 
L 664.506 467.671735 
L 672.597 467.683658 
L 680.688 467.674879 
L 688.779 467.662379 
L 696.87 467.641743 
L 704.961 467.605054 
L 713.052 467.567805 
L 721.143 467.567666 
L 729.234 467.573869 
L 737.325 467.54905 
L 745.416 467.527944 
L 753.507 467.526228 
L 761.598 467.541035 
L 769.689 467.557653 
L 777.78 467.569962 
L 785.871 467.558301 
L 793.962 467.559462 
L 802.053 467.605517 
L 810.144 467.659805 
L 818.235 467.66857 
L 826.326 467.65411 
L 834.417 467.626484 
L 842.508 467.58274 
L 850.599 467.573605 
L 858.69 467.529807 
L 866.781 467.530314 
L 874.872 467.580181 
L 882.963 467.620616 
L 891.054 467.619522 
L 899.145 467.56525 
L 907.236 467.570745 
L 915.327 467.489647 
L 923.418 467.475438 
L 931.509 467.56381 
" style="fill:none;stroke:#f8ffa2;stroke-linecap:square;stroke-width:2;"/>
   </g>
   <g id="line2d_24">
    <path clip-path="url(#p88cd544668)" d="M 130.5 468.286404 
L 138.591 468.284805 
L 146.682 468.283433 
L 154.773 468.282846 
L 162.864 468.282645 
L 170.955 468.284154 
L 179.046 468.285497 
L 187.137 468.286762 
L 195.228 468.287404 
L 203.319 468.287688 
L 211.41 468.287896 
L 219.501 468.287996 
L 227.592 468.287854 
L 235.683 468.287276 
L 243.774 468.287015 
L 251.865 468.286585 
L 259.956 468.285704 
L 268.047 468.284798 
L 276.138 468.283928 
L 284.229 468.282909 
L 292.32 468.281063 
L 300.411 468.278135 
L 308.502 468.273318 
L 316.593 468.267211 
L 324.684 468.259552 
L 332.775 468.249693 
L 340.866 468.233559 
L 348.957 468.216182 
L 357.048 468.195159 
L 365.139 468.167739 
L 373.23 468.141807 
L 381.321 468.104205 
L 389.412 468.071157 
L 397.503 468.048714 
L 405.594 468.020112 
L 413.685 467.994829 
L 421.776 467.993411 
L 429.867 468.007861 
L 437.958 468.021457 
L 446.049 468.028885 
L 454.14 468.037976 
L 462.231 468.051368 
L 470.322 468.067643 
L 478.413 468.077541 
L 486.504 468.079637 
L 494.595 468.067683 
L 502.686 468.061106 
L 510.777 468.044204 
L 518.868 468.026082 
L 526.959 468.005935 
L 535.05 467.987377 
L 543.141 467.968299 
L 551.232 467.944258 
L 559.323 467.939856 
L 567.414 467.945947 
L 575.505 467.939478 
L 583.596 467.942932 
L 591.687 467.956104 
L 599.778 467.966331 
L 607.869 467.966572 
L 615.96 467.954284 
L 624.051 467.944974 
L 632.142 467.943935 
L 640.233 467.947942 
L 648.324 467.949446 
L 656.415 467.950368 
L 664.506 467.920952 
L 672.597 467.876382 
L 680.688 467.839434 
L 688.779 467.810839 
L 696.87 467.767396 
L 704.961 467.740941 
L 713.052 467.712204 
L 721.143 467.708949 
L 729.234 467.675881 
L 737.325 467.66071 
L 745.416 467.659217 
L 753.507 467.605646 
L 761.598 467.624189 
L 769.689 467.626356 
L 777.78 467.614542 
L 785.871 467.580745 
L 793.962 467.556228 
L 802.053 467.561613 
L 810.144 467.576981 
L 818.235 467.573228 
L 826.326 467.536323 
L 834.417 467.452302 
L 842.508 467.337362 
L 850.599 467.282456 
L 858.69 467.328535 
L 866.781 467.347761 
L 874.872 467.363255 
L 882.963 467.381169 
L 891.054 467.297242 
L 899.145 467.229554 
L 907.236 467.349936 
L 915.327 467.182326 
L 923.418 467.025034 
L 931.509 466.940162 
" style="fill:none;stroke:#578dc0;stroke-linecap:square;stroke-width:2;"/>
   </g>
   <g id="line2d_25">
    <path clip-path="url(#p88cd544668)" d="M 130.5 468.217996 
L 138.591 468.116793 
L 146.682 468.113502 
L 154.773 468.116175 
L 162.864 468.122583 
L 170.955 468.131755 
L 179.046 468.138648 
L 187.137 468.151973 
L 195.228 468.163765 
L 203.319 468.171437 
L 211.41 468.178277 
L 219.501 468.187525 
L 227.592 468.196731 
L 235.683 468.202135 
L 243.774 468.203604 
L 251.865 468.202964 
L 259.956 468.204408 
L 268.047 468.205615 
L 276.138 468.206662 
L 284.229 468.210617 
L 292.32 468.215562 
L 300.411 468.22289 
L 308.502 468.229163 
L 316.593 468.236104 
L 324.684 468.248244 
L 332.775 468.258871 
L 340.866 468.268765 
L 348.957 468.276808 
L 357.048 468.284528 
L 365.139 468.287797 
L 373.23 468.286435 
L 381.321 468.28209 
L 389.412 468.276955 
L 397.503 468.269088 
L 405.594 468.263419 
L 413.685 468.263339 
L 421.776 468.269561 
L 429.867 468.278417 
L 437.958 468.285405 
L 446.049 468.287774 
L 454.14 468.287914 
L 462.231 468.28703 
L 470.322 468.286338 
L 478.413 468.285409 
L 486.504 468.285564 
L 494.595 468.28626 
L 502.686 468.286651 
L 510.777 468.287495 
L 518.868 468.287938 
L 526.959 468.287885 
L 535.05 468.287121 
L 543.141 468.286608 
L 551.232 468.28619 
L 559.323 468.286522 
L 567.414 468.285939 
L 575.505 468.28541 
L 583.596 468.285248 
L 591.687 468.286288 
L 599.778 468.286364 
L 607.869 468.284789 
L 615.96 468.282391 
L 624.051 468.280533 
L 632.142 468.277813 
L 640.233 468.27521 
L 648.324 468.272443 
L 656.415 468.268541 
L 664.506 468.265301 
L 672.597 468.261593 
L 680.688 468.257288 
L 688.779 468.251106 
L 696.87 468.245976 
L 704.961 468.239656 
L 713.052 468.237262 
L 721.143 468.22778 
L 729.234 468.225971 
L 737.325 468.237621 
L 745.416 468.235643 
L 753.507 468.239505 
L 761.598 468.236011 
L 769.689 468.237767 
L 777.78 468.238742 
L 785.871 468.236267 
L 793.962 468.242262 
L 802.053 468.252095 
L 810.144 468.266859 
L 818.235 468.266987 
L 826.326 468.261966 
L 834.417 468.250213 
L 842.508 468.226645 
L 850.599 468.220769 
L 858.69 468.217353 
L 866.781 468.20356 
L 874.872 468.185181 
L 882.963 468.234664 
L 891.054 468.23675 
L 899.145 468.210451 
L 907.236 468.210459 
L 915.327 468.132486 
L 923.418 467.996157 
L 931.509 468.159261 
" style="fill:none;stroke:#4e4ad8;stroke-linecap:square;stroke-width:2;"/>
   </g>
   <g id="line2d_26">
    <path clip-path="url(#p88cd544668)" d="M 130.5 468.250774 
L 138.591 468.24075 
L 146.682 468.232599 
L 154.773 468.228562 
L 162.864 468.2296 
L 170.955 468.228075 
L 179.046 468.227457 
L 187.137 468.226574 
L 195.228 468.226475 
L 203.319 468.225282 
L 211.41 468.224717 
L 219.501 468.223937 
L 227.592 468.224431 
L 235.683 468.225948 
L 243.774 468.229164 
L 251.865 468.231927 
L 259.956 468.230919 
L 268.047 468.231383 
L 276.138 468.231828 
L 284.229 468.23109 
L 292.32 468.233343 
L 300.411 468.234116 
L 308.502 468.233888 
L 316.593 468.234483 
L 324.684 468.239557 
L 332.775 468.246479 
L 340.866 468.252401 
L 348.957 468.256827 
L 357.048 468.261326 
L 365.139 468.268454 
L 373.23 468.270843 
L 381.321 468.274711 
L 389.412 468.279584 
L 397.503 468.281548 
L 405.594 468.281375 
L 413.685 468.279146 
L 421.776 468.275703 
L 429.867 468.274464 
L 437.958 468.270607 
L 446.049 468.263983 
L 454.14 468.257507 
L 462.231 468.252464 
L 470.322 468.24682 
L 478.413 468.239495 
L 486.504 468.238018 
L 494.595 468.238465 
L 502.686 468.234576 
L 510.777 468.235139 
L 518.868 468.234931 
L 526.959 468.237111 
L 535.05 468.242118 
L 543.141 468.243981 
L 551.232 468.250868 
L 559.323 468.255967 
L 567.414 468.26221 
L 575.505 468.26625 
L 583.596 468.270799 
L 591.687 468.269054 
L 599.778 468.26932 
L 607.869 468.268912 
L 615.96 468.268777 
L 624.051 468.270678 
L 632.142 468.272904 
L 640.233 468.276166 
L 648.324 468.277451 
L 656.415 468.278937 
L 664.506 468.279653 
L 672.597 468.281115 
L 680.688 468.281669 
L 688.779 468.282292 
L 696.87 468.282693 
L 704.961 468.284302 
L 713.052 468.285219 
L 721.143 468.28648 
L 729.234 468.285492 
L 737.325 468.284835 
L 745.416 468.284727 
L 753.507 468.285153 
L 761.598 468.284541 
L 769.689 468.286412 
L 777.78 468.287893 
L 785.871 468.288 
L 793.962 468.287995 
L 802.053 468.287901 
L 810.144 468.285321 
L 818.235 468.282479 
L 826.326 468.283762 
L 834.417 468.286722 
L 842.508 468.287578 
L 850.599 468.286815 
L 858.69 468.287409 
L 866.781 468.284311 
L 874.872 468.277197 
L 882.963 468.284075 
L 891.054 468.280423 
L 899.145 468.267142 
L 907.236 468.280436 
L 915.327 468.257668 
L 923.418 468.223737 
L 931.509 468.287964 
" style="fill:none;stroke:#32b3f7;stroke-linecap:square;stroke-width:2;"/>
   </g>
   <g id="patch_3">
    <path d="M 130.5 468.288 
L 130.5 113.472 
" style="fill:none;stroke:#000000;stroke-linecap:square;stroke-linejoin:miter;stroke-width:0.8;"/>
   </g>
   <g id="patch_4">
    <path d="M 939.6 468.288 
L 939.6 113.472 
" style="fill:none;stroke:#000000;stroke-linecap:square;stroke-linejoin:miter;stroke-width:0.8;"/>
   </g>
   <g id="patch_5">
    <path d="M 130.5 468.288 
L 939.6 468.288 
" style="fill:none;stroke:#000000;stroke-linecap:square;stroke-linejoin:miter;stroke-width:0.8;"/>
   </g>
   <g id="patch_6">
    <path d="M 130.5 113.472 
L 939.6 113.472 
" style="fill:none;stroke:#000000;stroke-linecap:square;stroke-linejoin:miter;stroke-width:0.8;"/>
   </g>
   <g id="text_15">
    <!-- R2 -->
    <defs>
     <path d="M 44.390625 34.1875 
Q 47.5625 33.109375 50.5625 29.59375 
Q 53.5625 26.078125 56.59375 19.921875 
L 66.609375 0 
L 56 0 
L 46.6875 18.703125 
Q 43.0625 26.03125 39.671875 28.421875 
Q 36.28125 30.8125 30.421875 30.8125 
L 19.671875 30.8125 
L 19.671875 0 
L 9.8125 0 
L 9.8125 72.90625 
L 32.078125 72.90625 
Q 44.578125 72.90625 50.734375 67.671875 
Q 56.890625 62.453125 56.890625 51.90625 
Q 56.890625 45.015625 53.6875 40.46875 
Q 50.484375 35.9375 44.390625 34.1875 
z
M 19.671875 64.796875 
L 19.671875 38.921875 
L 32.078125 38.921875 
Q 39.203125 38.921875 42.84375 42.21875 
Q 46.484375 45.515625 46.484375 51.90625 
Q 46.484375 58.296875 42.84375 61.546875 
Q 39.203125 64.796875 32.078125 64.796875 
z
" id="DejaVuSans-82"/>
    </defs>
    <g transform="translate(527.063437 107.472)scale(0.12 -0.12)">
     <use xlink:href="#DejaVuSans-82"/>
     <use x="69.482422" xlink:href="#DejaVuSans-50"/>
    </g>
   </g>
   <g id="legend_1">
    <g id="patch_7">
     <path d="M 152.324219 640.696 
L 917.775781 640.696 
Q 919.775781 640.696 919.775781 638.696 
L 919.775781 595.661625 
Q 919.775781 593.661625 917.775781 593.661625 
L 152.324219 593.661625 
Q 150.324219 593.661625 150.324219 595.661625 
L 150.324219 638.696 
Q 150.324219 640.696 152.324219 640.696 
z
" style="fill:#ffffff;opacity:0.8;stroke:#cccccc;stroke-linejoin:miter;"/>
    </g>
    <g id="line2d_27">
     <path style="fill:none;stroke:#f18670;stroke-linecap:square;stroke-width:2;"/>
    </g>
    <g id="line2d_28"/>
    <g id="text_16">
     <!-- IWR demand mutliplier -->
     <defs>
      <path d="M 9.8125 72.90625 
L 19.671875 72.90625 
L 19.671875 0 
L 9.8125 0 
z
" id="DejaVuSans-73"/>
      <path d="M 3.328125 72.90625 
L 13.28125 72.90625 
L 28.609375 11.28125 
L 43.890625 72.90625 
L 54.984375 72.90625 
L 70.3125 11.28125 
L 85.59375 72.90625 
L 95.609375 72.90625 
L 77.296875 0 
L 64.890625 0 
L 49.515625 63.28125 
L 33.984375 0 
L 21.578125 0 
z
" id="DejaVuSans-87"/>
     </defs>
     <g transform="translate(182.324219 605.260063)scale(0.1 -0.1)">
      <use xlink:href="#DejaVuSans-73"/>
      <use x="29.492188" xlink:href="#DejaVuSans-87"/>
      <use x="128.369141" xlink:href="#DejaVuSans-82"/>
      <use x="197.851562" xlink:href="#DejaVuSans-32"/>
      <use x="229.638672" xlink:href="#DejaVuSans-100"/>
      <use x="293.115234" xlink:href="#DejaVuSans-101"/>
      <use x="354.638672" xlink:href="#DejaVuSans-109"/>
      <use x="452.050781" xlink:href="#DejaVuSans-97"/>
      <use x="513.330078" xlink:href="#DejaVuSans-110"/>
      <use x="576.708984" xlink:href="#DejaVuSans-100"/>
      <use x="640.185547" xlink:href="#DejaVuSans-32"/>
      <use x="671.972656" xlink:href="#DejaVuSans-109"/>
      <use x="769.384766" xlink:href="#DejaVuSans-117"/>
      <use x="832.763672" xlink:href="#DejaVuSans-116"/>
      <use x="871.972656" xlink:href="#DejaVuSans-108"/>
      <use x="899.755859" xlink:href="#DejaVuSans-105"/>
      <use x="927.539062" xlink:href="#DejaVuSans-112"/>
      <use x="991.015625" xlink:href="#DejaVuSans-108"/>
      <use x="1018.798828" xlink:href="#DejaVuSans-105"/>
      <use x="1046.582031" xlink:href="#DejaVuSans-101"/>
      <use x="1108.105469" xlink:href="#DejaVuSans-114"/>
     </g>
    </g>
    <g id="line2d_29">
     <path style="fill:none;stroke:#e24d3f;stroke-linecap:square;stroke-width:2;"/>
    </g>
    <g id="line2d_30"/>
    <g id="text_17">
     <!-- Reservoir loss -->
     <defs>
      <path d="M 44.28125 53.078125 
L 44.28125 44.578125 
Q 40.484375 46.53125 36.375 47.5 
Q 32.28125 48.484375 27.875 48.484375 
Q 21.1875 48.484375 17.84375 46.4375 
Q 14.5 44.390625 14.5 40.28125 
Q 14.5 37.15625 16.890625 35.375 
Q 19.28125 33.59375 26.515625 31.984375 
L 29.59375 31.296875 
Q 39.15625 29.25 43.1875 25.515625 
Q 47.21875 21.78125 47.21875 15.09375 
Q 47.21875 7.46875 41.1875 3.015625 
Q 35.15625 -1.421875 24.609375 -1.421875 
Q 20.21875 -1.421875 15.453125 -0.5625 
Q 10.6875 0.296875 5.421875 2 
L 5.421875 11.28125 
Q 10.40625 8.6875 15.234375 7.390625 
Q 20.0625 6.109375 24.8125 6.109375 
Q 31.15625 6.109375 34.5625 8.28125 
Q 37.984375 10.453125 37.984375 14.40625 
Q 37.984375 18.0625 35.515625 20.015625 
Q 33.0625 21.96875 24.703125 23.78125 
L 21.578125 24.515625 
Q 13.234375 26.265625 9.515625 29.90625 
Q 5.8125 33.546875 5.8125 39.890625 
Q 5.8125 47.609375 11.28125 51.796875 
Q 16.75 56 26.8125 56 
Q 31.78125 56 36.171875 55.265625 
Q 40.578125 54.546875 44.28125 53.078125 
z
" id="DejaVuSans-115"/>
      <path d="M 2.984375 54.6875 
L 12.5 54.6875 
L 29.59375 8.796875 
L 46.6875 54.6875 
L 56.203125 54.6875 
L 35.6875 0 
L 23.484375 0 
z
" id="DejaVuSans-118"/>
     </defs>
     <g transform="translate(182.324219 619.938188)scale(0.1 -0.1)">
      <use xlink:href="#DejaVuSans-82"/>
      <use x="69.419922" xlink:href="#DejaVuSans-101"/>
      <use x="130.943359" xlink:href="#DejaVuSans-115"/>
      <use x="183.042969" xlink:href="#DejaVuSans-101"/>
      <use x="244.566406" xlink:href="#DejaVuSans-114"/>
      <use x="285.679688" xlink:href="#DejaVuSans-118"/>
      <use x="344.859375" xlink:href="#DejaVuSans-111"/>
      <use x="406.041016" xlink:href="#DejaVuSans-105"/>
      <use x="433.824219" xlink:href="#DejaVuSans-114"/>
      <use x="474.9375" xlink:href="#DejaVuSans-32"/>
      <use x="506.724609" xlink:href="#DejaVuSans-108"/>
      <use x="534.507812" xlink:href="#DejaVuSans-111"/>
      <use x="595.689453" xlink:href="#DejaVuSans-115"/>
      <use x="647.789062" xlink:href="#DejaVuSans-115"/>
     </g>
    </g>
    <g id="line2d_31">
     <path style="fill:none;stroke:#cf233e;stroke-linecap:square;stroke-width:2;"/>
    </g>
    <g id="line2d_32"/>
    <g id="text_18">
     <!-- TBD demand multiplier -->
     <defs>
      <path d="M -0.296875 72.90625 
L 61.375 72.90625 
L 61.375 64.59375 
L 35.5 64.59375 
L 35.5 0 
L 25.59375 0 
L 25.59375 64.59375 
L -0.296875 64.59375 
z
" id="DejaVuSans-84"/>
      <path d="M 19.671875 34.8125 
L 19.671875 8.109375 
L 35.5 8.109375 
Q 43.453125 8.109375 47.28125 11.40625 
Q 51.125 14.703125 51.125 21.484375 
Q 51.125 28.328125 47.28125 31.5625 
Q 43.453125 34.8125 35.5 34.8125 
z
M 19.671875 64.796875 
L 19.671875 42.828125 
L 34.28125 42.828125 
Q 41.5 42.828125 45.03125 45.53125 
Q 48.578125 48.25 48.578125 53.8125 
Q 48.578125 59.328125 45.03125 62.0625 
Q 41.5 64.796875 34.28125 64.796875 
z
M 9.8125 72.90625 
L 35.015625 72.90625 
Q 46.296875 72.90625 52.390625 68.21875 
Q 58.5 63.53125 58.5 54.890625 
Q 58.5 48.1875 55.375 44.234375 
Q 52.25 40.28125 46.1875 39.3125 
Q 53.46875 37.75 57.5 32.78125 
Q 61.53125 27.828125 61.53125 20.40625 
Q 61.53125 10.640625 54.890625 5.3125 
Q 48.25 0 35.984375 0 
L 9.8125 0 
z
" id="DejaVuSans-66"/>
      <path d="M 19.671875 64.796875 
L 19.671875 8.109375 
L 31.59375 8.109375 
Q 46.6875 8.109375 53.6875 14.9375 
Q 60.6875 21.78125 60.6875 36.53125 
Q 60.6875 51.171875 53.6875 57.984375 
Q 46.6875 64.796875 31.59375 64.796875 
z
M 9.8125 72.90625 
L 30.078125 72.90625 
Q 51.265625 72.90625 61.171875 64.09375 
Q 71.09375 55.28125 71.09375 36.53125 
Q 71.09375 17.671875 61.125 8.828125 
Q 51.171875 0 30.078125 0 
L 9.8125 0 
z
" id="DejaVuSans-68"/>
     </defs>
     <g transform="translate(182.324219 634.616313)scale(0.1 -0.1)">
      <use xlink:href="#DejaVuSans-84"/>
      <use x="61.083984" xlink:href="#DejaVuSans-66"/>
      <use x="129.6875" xlink:href="#DejaVuSans-68"/>
      <use x="206.689453" xlink:href="#DejaVuSans-32"/>
      <use x="238.476562" xlink:href="#DejaVuSans-100"/>
      <use x="301.953125" xlink:href="#DejaVuSans-101"/>
      <use x="363.476562" xlink:href="#DejaVuSans-109"/>
      <use x="460.888672" xlink:href="#DejaVuSans-97"/>
      <use x="522.167969" xlink:href="#DejaVuSans-110"/>
      <use x="585.546875" xlink:href="#DejaVuSans-100"/>
      <use x="649.023438" xlink:href="#DejaVuSans-32"/>
      <use x="680.810547" xlink:href="#DejaVuSans-109"/>
      <use x="778.222656" xlink:href="#DejaVuSans-117"/>
      <use x="841.601562" xlink:href="#DejaVuSans-108"/>
      <use x="869.384766" xlink:href="#DejaVuSans-116"/>
      <use x="908.59375" xlink:href="#DejaVuSans-105"/>
      <use x="936.376953" xlink:href="#DejaVuSans-112"/>
      <use x="999.853516" xlink:href="#DejaVuSans-108"/>
      <use x="1027.636719" xlink:href="#DejaVuSans-105"/>
      <use x="1055.419922" xlink:href="#DejaVuSans-101"/>
      <use x="1116.943359" xlink:href="#DejaVuSans-114"/>
     </g>
    </g>
    <g id="line2d_33">
     <path style="fill:none;stroke:#681e33;stroke-linecap:square;stroke-width:2;"/>
    </g>
    <g id="line2d_34"/>
    <g id="text_19">
     <!-- M&amp;I demand multiplier -->
     <defs>
      <path d="M 9.8125 72.90625 
L 24.515625 72.90625 
L 43.109375 23.296875 
L 61.8125 72.90625 
L 76.515625 72.90625 
L 76.515625 0 
L 66.890625 0 
L 66.890625 64.015625 
L 48.09375 14.015625 
L 38.1875 14.015625 
L 19.390625 64.015625 
L 19.390625 0 
L 9.8125 0 
z
" id="DejaVuSans-77"/>
      <path d="M 24.3125 39.203125 
Q 19.875 35.25 17.796875 31.3125 
Q 15.71875 27.390625 15.71875 23.09375 
Q 15.71875 15.96875 20.890625 11.234375 
Q 26.078125 6.5 33.890625 6.5 
Q 38.53125 6.5 42.578125 8.03125 
Q 46.625 9.578125 50.203125 12.703125 
z
M 31.203125 44.671875 
L 56 19.28125 
Q 58.890625 23.640625 60.5 28.59375 
Q 62.109375 33.546875 62.40625 39.109375 
L 71.484375 39.109375 
Q 70.90625 32.671875 68.359375 26.359375 
Q 65.828125 20.0625 61.28125 13.921875 
L 74.90625 0 
L 62.59375 0 
L 55.609375 7.171875 
Q 50.53125 2.828125 44.96875 0.703125 
Q 39.40625 -1.421875 33.015625 -1.421875 
Q 21.234375 -1.421875 13.765625 5.296875 
Q 6.296875 12.015625 6.296875 22.515625 
Q 6.296875 28.765625 9.5625 34.25 
Q 12.84375 39.75 19.390625 44.578125 
Q 17.046875 47.65625 15.8125 50.703125 
Q 14.59375 53.765625 14.59375 56.6875 
Q 14.59375 64.59375 20.015625 69.40625 
Q 25.4375 74.21875 34.421875 74.21875 
Q 38.484375 74.21875 42.5 73.34375 
Q 46.53125 72.46875 50.6875 70.703125 
L 50.6875 61.8125 
Q 46.4375 64.109375 42.578125 65.296875 
Q 38.71875 66.5 35.40625 66.5 
Q 30.28125 66.5 27.078125 63.78125 
Q 23.875 61.078125 23.875 56.78125 
Q 23.875 54.296875 25.3125 51.78125 
Q 26.765625 49.265625 31.203125 44.671875 
z
" id="DejaVuSans-38"/>
     </defs>
     <g transform="translate(346.128906 605.260063)scale(0.1 -0.1)">
      <use xlink:href="#DejaVuSans-77"/>
      <use x="86.279297" xlink:href="#DejaVuSans-38"/>
      <use x="164.257812" xlink:href="#DejaVuSans-73"/>
      <use x="193.75" xlink:href="#DejaVuSans-32"/>
      <use x="225.537109" xlink:href="#DejaVuSans-100"/>
      <use x="289.013672" xlink:href="#DejaVuSans-101"/>
      <use x="350.537109" xlink:href="#DejaVuSans-109"/>
      <use x="447.949219" xlink:href="#DejaVuSans-97"/>
      <use x="509.228516" xlink:href="#DejaVuSans-110"/>
      <use x="572.607422" xlink:href="#DejaVuSans-100"/>
      <use x="636.083984" xlink:href="#DejaVuSans-32"/>
      <use x="667.871094" xlink:href="#DejaVuSans-109"/>
      <use x="765.283203" xlink:href="#DejaVuSans-117"/>
      <use x="828.662109" xlink:href="#DejaVuSans-108"/>
      <use x="856.445312" xlink:href="#DejaVuSans-116"/>
      <use x="895.654297" xlink:href="#DejaVuSans-105"/>
      <use x="923.4375" xlink:href="#DejaVuSans-112"/>
      <use x="986.914062" xlink:href="#DejaVuSans-108"/>
      <use x="1014.697266" xlink:href="#DejaVuSans-105"/>
      <use x="1042.480469" xlink:href="#DejaVuSans-101"/>
      <use x="1104.003906" xlink:href="#DejaVuSans-114"/>
     </g>
    </g>
    <g id="line2d_35">
     <path style="fill:none;stroke:#676572;stroke-linecap:square;stroke-width:2;"/>
    </g>
    <g id="line2d_36"/>
    <g id="text_20">
     <!-- Shoshone active -->
     <g transform="translate(346.128906 619.938188)scale(0.1 -0.1)">
      <use xlink:href="#DejaVuSans-83"/>
      <use x="63.476562" xlink:href="#DejaVuSans-104"/>
      <use x="126.855469" xlink:href="#DejaVuSans-111"/>
      <use x="188.037109" xlink:href="#DejaVuSans-115"/>
      <use x="240.136719" xlink:href="#DejaVuSans-104"/>
      <use x="303.515625" xlink:href="#DejaVuSans-111"/>
      <use x="364.697266" xlink:href="#DejaVuSans-110"/>
      <use x="428.076172" xlink:href="#DejaVuSans-101"/>
      <use x="489.599609" xlink:href="#DejaVuSans-32"/>
      <use x="521.386719" xlink:href="#DejaVuSans-97"/>
      <use x="582.666016" xlink:href="#DejaVuSans-99"/>
      <use x="637.646484" xlink:href="#DejaVuSans-116"/>
      <use x="676.855469" xlink:href="#DejaVuSans-105"/>
      <use x="704.638672" xlink:href="#DejaVuSans-118"/>
      <use x="763.818359" xlink:href="#DejaVuSans-101"/>
     </g>
    </g>
    <g id="line2d_37">
     <path style="fill:none;stroke:#f3be22;stroke-linecap:square;stroke-width:2;"/>
    </g>
    <g id="line2d_38"/>
    <g id="text_21">
     <!-- Env. flow senior right -->
     <defs>
      <path d="M 9.8125 72.90625 
L 55.90625 72.90625 
L 55.90625 64.59375 
L 19.671875 64.59375 
L 19.671875 43.015625 
L 54.390625 43.015625 
L 54.390625 34.71875 
L 19.671875 34.71875 
L 19.671875 8.296875 
L 56.78125 8.296875 
L 56.78125 0 
L 9.8125 0 
z
" id="DejaVuSans-69"/>
      <path d="M 37.109375 75.984375 
L 37.109375 68.5 
L 28.515625 68.5 
Q 23.6875 68.5 21.796875 66.546875 
Q 19.921875 64.59375 19.921875 59.515625 
L 19.921875 54.6875 
L 34.71875 54.6875 
L 34.71875 47.703125 
L 19.921875 47.703125 
L 19.921875 0 
L 10.890625 0 
L 10.890625 47.703125 
L 2.296875 47.703125 
L 2.296875 54.6875 
L 10.890625 54.6875 
L 10.890625 58.5 
Q 10.890625 67.625 15.140625 71.796875 
Q 19.390625 75.984375 28.609375 75.984375 
z
" id="DejaVuSans-102"/>
      <path d="M 4.203125 54.6875 
L 13.1875 54.6875 
L 24.421875 12.015625 
L 35.59375 54.6875 
L 46.1875 54.6875 
L 57.421875 12.015625 
L 68.609375 54.6875 
L 77.59375 54.6875 
L 63.28125 0 
L 52.6875 0 
L 40.921875 44.828125 
L 29.109375 0 
L 18.5 0 
z
" id="DejaVuSans-119"/>
     </defs>
     <g transform="translate(346.128906 634.616313)scale(0.1 -0.1)">
      <use xlink:href="#DejaVuSans-69"/>
      <use x="63.183594" xlink:href="#DejaVuSans-110"/>
      <use x="126.5625" xlink:href="#DejaVuSans-118"/>
      <use x="185.632812" xlink:href="#DejaVuSans-46"/>
      <use x="217.419922" xlink:href="#DejaVuSans-32"/>
      <use x="249.207031" xlink:href="#DejaVuSans-102"/>
      <use x="284.412109" xlink:href="#DejaVuSans-108"/>
      <use x="312.195312" xlink:href="#DejaVuSans-111"/>
      <use x="373.376953" xlink:href="#DejaVuSans-119"/>
      <use x="455.164062" xlink:href="#DejaVuSans-32"/>
      <use x="486.951172" xlink:href="#DejaVuSans-115"/>
      <use x="539.050781" xlink:href="#DejaVuSans-101"/>
      <use x="600.574219" xlink:href="#DejaVuSans-110"/>
      <use x="663.953125" xlink:href="#DejaVuSans-105"/>
      <use x="691.736328" xlink:href="#DejaVuSans-111"/>
      <use x="752.917969" xlink:href="#DejaVuSans-114"/>
      <use x="794.03125" xlink:href="#DejaVuSans-32"/>
      <use x="825.818359" xlink:href="#DejaVuSans-114"/>
      <use x="866.931641" xlink:href="#DejaVuSans-105"/>
      <use x="894.714844" xlink:href="#DejaVuSans-103"/>
      <use x="958.191406" xlink:href="#DejaVuSans-104"/>
      <use x="1021.570312" xlink:href="#DejaVuSans-116"/>
     </g>
    </g>
    <g id="line2d_39">
     <path style="fill:none;stroke:#59deba;stroke-linecap:square;stroke-width:2;"/>
    </g>
    <g id="line2d_40"/>
    <g id="text_22">
     <!-- Evaporation delta -->
     <g transform="translate(508.641406 605.260063)scale(0.1 -0.1)">
      <use xlink:href="#DejaVuSans-69"/>
      <use x="63.183594" xlink:href="#DejaVuSans-118"/>
      <use x="122.363281" xlink:href="#DejaVuSans-97"/>
      <use x="183.642578" xlink:href="#DejaVuSans-112"/>
      <use x="247.119141" xlink:href="#DejaVuSans-111"/>
      <use x="308.300781" xlink:href="#DejaVuSans-114"/>
      <use x="349.414062" xlink:href="#DejaVuSans-97"/>
      <use x="410.693359" xlink:href="#DejaVuSans-116"/>
      <use x="449.902344" xlink:href="#DejaVuSans-105"/>
      <use x="477.685547" xlink:href="#DejaVuSans-111"/>
      <use x="538.867188" xlink:href="#DejaVuSans-110"/>
      <use x="602.246094" xlink:href="#DejaVuSans-32"/>
      <use x="634.033203" xlink:href="#DejaVuSans-100"/>
      <use x="697.509766" xlink:href="#DejaVuSans-101"/>
      <use x="759.033203" xlink:href="#DejaVuSans-108"/>
      <use x="786.816406" xlink:href="#DejaVuSans-116"/>
      <use x="826.025391" xlink:href="#DejaVuSans-97"/>
     </g>
    </g>
    <g id="line2d_41">
     <path style="fill:none;stroke:#14015c;stroke-linecap:square;stroke-width:2;"/>
    </g>
    <g id="line2d_42"/>
    <g id="text_23">
     <!-- Dry state mu -->
     <defs>
      <path d="M 32.171875 -5.078125 
Q 28.375 -14.84375 24.75 -17.8125 
Q 21.140625 -20.796875 15.09375 -20.796875 
L 7.90625 -20.796875 
L 7.90625 -13.28125 
L 13.1875 -13.28125 
Q 16.890625 -13.28125 18.9375 -11.515625 
Q 21 -9.765625 23.484375 -3.21875 
L 25.09375 0.875 
L 2.984375 54.6875 
L 12.5 54.6875 
L 29.59375 11.921875 
L 46.6875 54.6875 
L 56.203125 54.6875 
z
" id="DejaVuSans-121"/>
     </defs>
     <g transform="translate(508.641406 619.938188)scale(0.1 -0.1)">
      <use xlink:href="#DejaVuSans-68"/>
      <use x="77.001953" xlink:href="#DejaVuSans-114"/>
      <use x="118.115234" xlink:href="#DejaVuSans-121"/>
      <use x="177.294922" xlink:href="#DejaVuSans-32"/>
      <use x="209.082031" xlink:href="#DejaVuSans-115"/>
      <use x="261.181641" xlink:href="#DejaVuSans-116"/>
      <use x="300.390625" xlink:href="#DejaVuSans-97"/>
      <use x="361.669922" xlink:href="#DejaVuSans-116"/>
      <use x="400.878906" xlink:href="#DejaVuSans-101"/>
      <use x="462.402344" xlink:href="#DejaVuSans-32"/>
      <use x="494.189453" xlink:href="#DejaVuSans-109"/>
      <use x="591.601562" xlink:href="#DejaVuSans-117"/>
     </g>
    </g>
    <g id="line2d_43">
     <path style="fill:none;stroke:#daf8a3;stroke-linecap:square;stroke-width:2;"/>
    </g>
    <g id="line2d_44"/>
    <g id="text_24">
     <!-- Dry state sigma -->
     <g transform="translate(508.641406 634.616313)scale(0.1 -0.1)">
      <use xlink:href="#DejaVuSans-68"/>
      <use x="77.001953" xlink:href="#DejaVuSans-114"/>
      <use x="118.115234" xlink:href="#DejaVuSans-121"/>
      <use x="177.294922" xlink:href="#DejaVuSans-32"/>
      <use x="209.082031" xlink:href="#DejaVuSans-115"/>
      <use x="261.181641" xlink:href="#DejaVuSans-116"/>
      <use x="300.390625" xlink:href="#DejaVuSans-97"/>
      <use x="361.669922" xlink:href="#DejaVuSans-116"/>
      <use x="400.878906" xlink:href="#DejaVuSans-101"/>
      <use x="462.402344" xlink:href="#DejaVuSans-32"/>
      <use x="494.189453" xlink:href="#DejaVuSans-115"/>
      <use x="546.289062" xlink:href="#DejaVuSans-105"/>
      <use x="574.072266" xlink:href="#DejaVuSans-103"/>
      <use x="637.548828" xlink:href="#DejaVuSans-109"/>
      <use x="734.960938" xlink:href="#DejaVuSans-97"/>
     </g>
    </g>
    <g id="line2d_45">
     <path style="fill:none;stroke:#0b7a0a;stroke-linecap:square;stroke-width:2;"/>
    </g>
    <g id="line2d_46"/>
    <g id="text_25">
     <!-- Wet state mu -->
     <g transform="translate(645.374219 605.260063)scale(0.1 -0.1)">
      <use xlink:href="#DejaVuSans-87"/>
      <use x="98.798828" xlink:href="#DejaVuSans-101"/>
      <use x="160.322266" xlink:href="#DejaVuSans-116"/>
      <use x="199.53125" xlink:href="#DejaVuSans-32"/>
      <use x="231.318359" xlink:href="#DejaVuSans-115"/>
      <use x="283.417969" xlink:href="#DejaVuSans-116"/>
      <use x="322.626953" xlink:href="#DejaVuSans-97"/>
      <use x="383.90625" xlink:href="#DejaVuSans-116"/>
      <use x="423.115234" xlink:href="#DejaVuSans-101"/>
      <use x="484.638672" xlink:href="#DejaVuSans-32"/>
      <use x="516.425781" xlink:href="#DejaVuSans-109"/>
      <use x="613.837891" xlink:href="#DejaVuSans-117"/>
     </g>
    </g>
    <g id="line2d_47">
     <path style="fill:none;stroke:#f8ffa2;stroke-linecap:square;stroke-width:2;"/>
    </g>
    <g id="line2d_48"/>
    <g id="text_26">
     <!-- Wet state sigma -->
     <g transform="translate(645.374219 619.938188)scale(0.1 -0.1)">
      <use xlink:href="#DejaVuSans-87"/>
      <use x="98.798828" xlink:href="#DejaVuSans-101"/>
      <use x="160.322266" xlink:href="#DejaVuSans-116"/>
      <use x="199.53125" xlink:href="#DejaVuSans-32"/>
      <use x="231.318359" xlink:href="#DejaVuSans-115"/>
      <use x="283.417969" xlink:href="#DejaVuSans-116"/>
      <use x="322.626953" xlink:href="#DejaVuSans-97"/>
      <use x="383.90625" xlink:href="#DejaVuSans-116"/>
      <use x="423.115234" xlink:href="#DejaVuSans-101"/>
      <use x="484.638672" xlink:href="#DejaVuSans-32"/>
      <use x="516.425781" xlink:href="#DejaVuSans-115"/>
      <use x="568.525391" xlink:href="#DejaVuSans-105"/>
      <use x="596.308594" xlink:href="#DejaVuSans-103"/>
      <use x="659.785156" xlink:href="#DejaVuSans-109"/>
      <use x="757.197266" xlink:href="#DejaVuSans-97"/>
     </g>
    </g>
    <g id="line2d_49">
     <path style="fill:none;stroke:#578dc0;stroke-linecap:square;stroke-width:2;"/>
    </g>
    <g id="line2d_50"/>
    <g id="text_27">
     <!-- Dry-to-dry state prob. -->
     <defs>
      <path d="M 4.890625 31.390625 
L 31.203125 31.390625 
L 31.203125 23.390625 
L 4.890625 23.390625 
z
" id="DejaVuSans-45"/>
      <path d="M 48.6875 27.296875 
Q 48.6875 37.203125 44.609375 42.84375 
Q 40.53125 48.484375 33.40625 48.484375 
Q 26.265625 48.484375 22.1875 42.84375 
Q 18.109375 37.203125 18.109375 27.296875 
Q 18.109375 17.390625 22.1875 11.75 
Q 26.265625 6.109375 33.40625 6.109375 
Q 40.53125 6.109375 44.609375 11.75 
Q 48.6875 17.390625 48.6875 27.296875 
z
M 18.109375 46.390625 
Q 20.953125 51.265625 25.265625 53.625 
Q 29.59375 56 35.59375 56 
Q 45.5625 56 51.78125 48.09375 
Q 58.015625 40.1875 58.015625 27.296875 
Q 58.015625 14.40625 51.78125 6.484375 
Q 45.5625 -1.421875 35.59375 -1.421875 
Q 29.59375 -1.421875 25.265625 0.953125 
Q 20.953125 3.328125 18.109375 8.203125 
L 18.109375 0 
L 9.078125 0 
L 9.078125 75.984375 
L 18.109375 75.984375 
z
" id="DejaVuSans-98"/>
     </defs>
     <g transform="translate(645.374219 634.616313)scale(0.1 -0.1)">
      <use xlink:href="#DejaVuSans-68"/>
      <use x="77.001953" xlink:href="#DejaVuSans-114"/>
      <use x="118.115234" xlink:href="#DejaVuSans-121"/>
      <use x="177.279297" xlink:href="#DejaVuSans-45"/>
      <use x="213.363281" xlink:href="#DejaVuSans-116"/>
      <use x="252.572266" xlink:href="#DejaVuSans-111"/>
      <use x="313.769531" xlink:href="#DejaVuSans-45"/>
      <use x="349.853516" xlink:href="#DejaVuSans-100"/>
      <use x="413.330078" xlink:href="#DejaVuSans-114"/>
      <use x="454.443359" xlink:href="#DejaVuSans-121"/>
      <use x="513.623047" xlink:href="#DejaVuSans-32"/>
      <use x="545.410156" xlink:href="#DejaVuSans-115"/>
      <use x="597.509766" xlink:href="#DejaVuSans-116"/>
      <use x="636.71875" xlink:href="#DejaVuSans-97"/>
      <use x="697.998047" xlink:href="#DejaVuSans-116"/>
      <use x="737.207031" xlink:href="#DejaVuSans-101"/>
      <use x="798.730469" xlink:href="#DejaVuSans-32"/>
      <use x="830.517578" xlink:href="#DejaVuSans-112"/>
      <use x="893.994141" xlink:href="#DejaVuSans-114"/>
      <use x="935.076172" xlink:href="#DejaVuSans-111"/>
      <use x="996.257812" xlink:href="#DejaVuSans-98"/>
      <use x="1059.734375" xlink:href="#DejaVuSans-46"/>
     </g>
    </g>
    <g id="line2d_51">
     <path style="fill:none;stroke:#4e4ad8;stroke-linecap:square;stroke-width:2;"/>
    </g>
    <g id="line2d_52"/>
    <g id="text_28">
     <!-- Wet-to-wet state prob. -->
     <g transform="translate(802.525781 605.260063)scale(0.1 -0.1)">
      <use xlink:href="#DejaVuSans-87"/>
      <use x="98.798828" xlink:href="#DejaVuSans-101"/>
      <use x="160.322266" xlink:href="#DejaVuSans-116"/>
      <use x="199.53125" xlink:href="#DejaVuSans-45"/>
      <use x="235.615234" xlink:href="#DejaVuSans-116"/>
      <use x="274.824219" xlink:href="#DejaVuSans-111"/>
      <use x="336.021484" xlink:href="#DejaVuSans-45"/>
      <use x="372.105469" xlink:href="#DejaVuSans-119"/>
      <use x="453.892578" xlink:href="#DejaVuSans-101"/>
      <use x="515.416016" xlink:href="#DejaVuSans-116"/>
      <use x="554.625" xlink:href="#DejaVuSans-32"/>
      <use x="586.412109" xlink:href="#DejaVuSans-115"/>
      <use x="638.511719" xlink:href="#DejaVuSans-116"/>
      <use x="677.720703" xlink:href="#DejaVuSans-97"/>
      <use x="739" xlink:href="#DejaVuSans-116"/>
      <use x="778.208984" xlink:href="#DejaVuSans-101"/>
      <use x="839.732422" xlink:href="#DejaVuSans-32"/>
      <use x="871.519531" xlink:href="#DejaVuSans-112"/>
      <use x="934.996094" xlink:href="#DejaVuSans-114"/>
      <use x="976.078125" xlink:href="#DejaVuSans-111"/>
      <use x="1037.259766" xlink:href="#DejaVuSans-98"/>
      <use x="1100.736328" xlink:href="#DejaVuSans-46"/>
     </g>
    </g>
    <g id="line2d_53">
     <path style="fill:none;stroke:#32b3f7;stroke-linecap:square;stroke-width:2;"/>
    </g>
    <g id="line2d_54"/>
    <g id="text_29">
     <!-- Earlier snowmelt -->
     <g transform="translate(802.525781 619.938188)scale(0.1 -0.1)">
      <use xlink:href="#DejaVuSans-69"/>
      <use x="63.183594" xlink:href="#DejaVuSans-97"/>
      <use x="124.462891" xlink:href="#DejaVuSans-114"/>
      <use x="165.576172" xlink:href="#DejaVuSans-108"/>
      <use x="193.359375" xlink:href="#DejaVuSans-105"/>
      <use x="221.142578" xlink:href="#DejaVuSans-101"/>
      <use x="282.666016" xlink:href="#DejaVuSans-114"/>
      <use x="323.779297" xlink:href="#DejaVuSans-32"/>
      <use x="355.566406" xlink:href="#DejaVuSans-115"/>
      <use x="407.666016" xlink:href="#DejaVuSans-110"/>
      <use x="471.044922" xlink:href="#DejaVuSans-111"/>
      <use x="532.226562" xlink:href="#DejaVuSans-119"/>
      <use x="614.013672" xlink:href="#DejaVuSans-109"/>
      <use x="711.425781" xlink:href="#DejaVuSans-101"/>
      <use x="772.949219" xlink:href="#DejaVuSans-108"/>
      <use x="800.732422" xlink:href="#DejaVuSans-116"/>
     </g>
    </g>
   </g>
  </g>
  <g id="text_30">
   <!-- Shortage magnitude sensitivity for 7200645 -->
   <defs>
    <path d="M 8.203125 72.90625 
L 55.078125 72.90625 
L 55.078125 68.703125 
L 28.609375 0 
L 18.3125 0 
L 43.21875 64.59375 
L 8.203125 64.59375 
z
" id="DejaVuSans-55"/>
    <path d="M 10.796875 72.90625 
L 49.515625 72.90625 
L 49.515625 64.59375 
L 19.828125 64.59375 
L 19.828125 46.734375 
Q 21.96875 47.46875 24.109375 47.828125 
Q 26.265625 48.1875 28.421875 48.1875 
Q 40.625 48.1875 47.75 41.5 
Q 54.890625 34.8125 54.890625 23.390625 
Q 54.890625 11.625 47.5625 5.09375 
Q 40.234375 -1.421875 26.90625 -1.421875 
Q 22.3125 -1.421875 17.546875 -0.640625 
Q 12.796875 0.140625 7.71875 1.703125 
L 7.71875 11.625 
Q 12.109375 9.234375 16.796875 8.0625 
Q 21.484375 6.890625 26.703125 6.890625 
Q 35.15625 6.890625 40.078125 11.328125 
Q 45.015625 15.765625 45.015625 23.390625 
Q 45.015625 31 40.078125 35.4375 
Q 35.15625 39.890625 26.703125 39.890625 
Q 22.75 39.890625 18.8125 39.015625 
Q 14.890625 38.140625 10.796875 36.28125 
z
" id="DejaVuSans-53"/>
   </defs>
   <g transform="translate(344.81625 23.6775)scale(0.16 -0.16)">
    <use xlink:href="#DejaVuSans-83"/>
    <use x="63.476562" xlink:href="#DejaVuSans-104"/>
    <use x="126.855469" xlink:href="#DejaVuSans-111"/>
    <use x="188.037109" xlink:href="#DejaVuSans-114"/>
    <use x="229.150391" xlink:href="#DejaVuSans-116"/>
    <use x="268.359375" xlink:href="#DejaVuSans-97"/>
    <use x="329.638672" xlink:href="#DejaVuSans-103"/>
    <use x="393.115234" xlink:href="#DejaVuSans-101"/>
    <use x="454.638672" xlink:href="#DejaVuSans-32"/>
    <use x="486.425781" xlink:href="#DejaVuSans-109"/>
    <use x="583.837891" xlink:href="#DejaVuSans-97"/>
    <use x="645.117188" xlink:href="#DejaVuSans-103"/>
    <use x="708.59375" xlink:href="#DejaVuSans-110"/>
    <use x="771.972656" xlink:href="#DejaVuSans-105"/>
    <use x="799.755859" xlink:href="#DejaVuSans-116"/>
    <use x="838.964844" xlink:href="#DejaVuSans-117"/>
    <use x="902.34375" xlink:href="#DejaVuSans-100"/>
    <use x="965.820312" xlink:href="#DejaVuSans-101"/>
    <use x="1027.34375" xlink:href="#DejaVuSans-32"/>
    <use x="1059.130859" xlink:href="#DejaVuSans-115"/>
    <use x="1111.230469" xlink:href="#DejaVuSans-101"/>
    <use x="1172.753906" xlink:href="#DejaVuSans-110"/>
    <use x="1236.132812" xlink:href="#DejaVuSans-115"/>
    <use x="1288.232422" xlink:href="#DejaVuSans-105"/>
    <use x="1316.015625" xlink:href="#DejaVuSans-116"/>
    <use x="1355.224609" xlink:href="#DejaVuSans-105"/>
    <use x="1383.007812" xlink:href="#DejaVuSans-118"/>
    <use x="1442.1875" xlink:href="#DejaVuSans-105"/>
    <use x="1469.970703" xlink:href="#DejaVuSans-116"/>
    <use x="1509.179688" xlink:href="#DejaVuSans-121"/>
    <use x="1568.359375" xlink:href="#DejaVuSans-32"/>
    <use x="1600.146484" xlink:href="#DejaVuSans-102"/>
    <use x="1635.351562" xlink:href="#DejaVuSans-111"/>
    <use x="1696.533203" xlink:href="#DejaVuSans-114"/>
    <use x="1737.646484" xlink:href="#DejaVuSans-32"/>
    <use x="1769.433594" xlink:href="#DejaVuSans-55"/>
    <use x="1833.056641" xlink:href="#DejaVuSans-50"/>
    <use x="1896.679688" xlink:href="#DejaVuSans-48"/>
    <use x="1960.302734" xlink:href="#DejaVuSans-48"/>
    <use x="2023.925781" xlink:href="#DejaVuSans-54"/>
    <use x="2087.548828" xlink:href="#DejaVuSans-52"/>
    <use x="2151.171875" xlink:href="#DejaVuSans-53"/>
   </g>
  </g>
 </g>
 <defs>
  <clipPath id="p88cd544668">
   <rect height="354.816" width="809.1" x="130.5" y="113.472"/>
  </clipPath>
 </defs>
</svg>
