<?xml version="1.0" encoding="utf-8"?>
<!-- Generator: Adobe Illustrator 21.1.0, SVG Export Plug-In . SVG Version: 6.00 Build 0)  -->
<svg version="1.1" id="Layer_1" xmlns="http://www.w3.org/2000/svg" xmlns:xlink="http://www.w3.org/1999/xlink" x="0px" y="0px"
	 viewBox="0 0 1044 576" style="enable-background:new 0 0 1044 576;" xml:space="preserve">
<style type="text/css">
	.st0{fill:#FFFFFF;}
	.st1{fill:#F18670;fill-opacity:0.5;stroke:#F18670;stroke-linejoin:round;stroke-opacity:0.5;}
	.st2{clip-path:url(#SVGID_2_);}
	.st3{fill:#E24D3F;fill-opacity:0.5;stroke:#E24D3F;stroke-linejoin:round;stroke-opacity:0.5;}
	.st4{clip-path:url(#SVGID_4_);}
	.st5{fill:#CF233E;fill-opacity:0.5;stroke:#CF233E;stroke-linejoin:round;stroke-opacity:0.5;}
	.st6{clip-path:url(#SVGID_6_);}
	.st7{fill:#681E33;fill-opacity:0.5;stroke:#681E33;stroke-linejoin:round;stroke-opacity:0.5;}
	.st8{clip-path:url(#SVGID_8_);}
	.st9{fill:#676572;fill-opacity:0.5;stroke:#676572;stroke-linejoin:round;stroke-opacity:0.5;}
	.st10{clip-path:url(#SVGID_10_);}
	.st11{fill:#F3BE22;fill-opacity:0.5;stroke:#F3BE22;stroke-linejoin:round;stroke-opacity:0.5;}
	.st12{clip-path:url(#SVGID_12_);}
	.st13{fill:#59DEBA;fill-opacity:0.5;stroke:#59DEBA;stroke-linejoin:round;stroke-opacity:0.5;}
	.st14{clip-path:url(#SVGID_14_);}
	.st15{fill:#14015C;fill-opacity:0.5;stroke:#14015C;stroke-linejoin:round;stroke-opacity:0.5;}
	.st16{clip-path:url(#SVGID_16_);}
	.st17{fill:#DAF8A3;fill-opacity:0.5;stroke:#DAF8A3;stroke-linejoin:round;stroke-opacity:0.5;}
	.st18{clip-path:url(#SVGID_18_);}
	.st19{fill:#0B7A0A;fill-opacity:0.5;stroke:#0B7A0A;stroke-linejoin:round;stroke-opacity:0.5;}
	.st20{clip-path:url(#SVGID_20_);}
	.st21{fill:#F8FFA2;fill-opacity:0.5;stroke:#F8FFA2;stroke-linejoin:round;stroke-opacity:0.5;}
	.st22{clip-path:url(#SVGID_22_);}
	.st23{fill:#578DC0;fill-opacity:0.5;stroke:#578DC0;stroke-linejoin:round;stroke-opacity:0.5;}
	.st24{clip-path:url(#SVGID_24_);}
	.st25{fill:#4E4AD8;fill-opacity:0.5;stroke:#4E4AD8;stroke-linejoin:round;stroke-opacity:0.5;}
	.st26{clip-path:url(#SVGID_26_);}
	.st27{fill:#32B3F7;fill-opacity:0.5;stroke:#32B3F7;stroke-linejoin:round;stroke-opacity:0.5;}
	.st28{clip-path:url(#SVGID_28_);fill:none;stroke:#F18670;stroke-width:2;stroke-linecap:square;stroke-linejoin:round;}
	.st29{clip-path:url(#SVGID_30_);fill:none;stroke:#E24D3F;stroke-width:2;stroke-linecap:square;stroke-linejoin:round;}
	.st30{clip-path:url(#SVGID_32_);fill:none;stroke:#CF233E;stroke-width:2;stroke-linecap:square;stroke-linejoin:round;}
	.st31{clip-path:url(#SVGID_34_);fill:none;stroke:#681E33;stroke-width:2;stroke-linecap:square;stroke-linejoin:round;}
	.st32{clip-path:url(#SVGID_36_);fill:none;stroke:#676572;stroke-width:2;stroke-linecap:square;stroke-linejoin:round;}
	.st33{clip-path:url(#SVGID_38_);fill:none;stroke:#F3BE22;stroke-width:2;stroke-linecap:square;stroke-linejoin:round;}
	.st34{clip-path:url(#SVGID_40_);fill:none;stroke:#59DEBA;stroke-width:2;stroke-linecap:square;stroke-linejoin:round;}
	.st35{clip-path:url(#SVGID_42_);fill:none;stroke:#14015C;stroke-width:2;stroke-linecap:square;stroke-linejoin:round;}
	.st36{clip-path:url(#SVGID_44_);fill:none;stroke:#DAF8A3;stroke-width:2;stroke-linecap:square;stroke-linejoin:round;}
	.st37{clip-path:url(#SVGID_46_);fill:none;stroke:#0B7A0A;stroke-width:2;stroke-linecap:square;stroke-linejoin:round;}
	.st38{clip-path:url(#SVGID_48_);fill:none;stroke:#F8FFA2;stroke-width:2;stroke-linecap:square;stroke-linejoin:round;}
	.st39{clip-path:url(#SVGID_50_);fill:none;stroke:#578DC0;stroke-width:2;stroke-linecap:square;stroke-linejoin:round;}
	.st40{clip-path:url(#SVGID_52_);fill:none;stroke:#4E4AD8;stroke-width:2;stroke-linecap:square;stroke-linejoin:round;}
	.st41{clip-path:url(#SVGID_54_);fill:none;stroke:#32B3F7;stroke-width:2;stroke-linecap:square;stroke-linejoin:round;}
	.st42{fill:none;stroke:#000000;stroke-width:0.8;stroke-linecap:square;}
</style>
<g id="patch_2">
	<path class="st0" d="M130.5,468.3h809.1V113.5H130.5V468.3z"/>
</g>
<g>
	<polygon class="st1" points="146.7,297.8 154.8,310.5 162.9,437.8 163.5,113.5 162.9,113.5 162.9,189.1 154.8,280.7 146.7,283.9 
		138.6,229.6 130.5,235.6 130.5,312.6 138.6,386 	"/>
	<polygon class="st1" points="341.2,468.3 357,468.3 357,134.1 358.3,468.3 396.5,468.3 397.5,325.7 405.6,290.7 413.7,279.8 
		421.8,267 429.9,247.8 438,243.6 446,236.8 454.1,230.2 462.2,225.1 470.3,221 478.4,216.6 486.5,216.4 494.6,218.1 502.7,217.7 
		510.8,216.5 518.9,216.3 527,218.4 535,218.2 543.1,220 551.2,221.9 559.3,221.3 567.4,221.9 575.5,221.3 583.6,221 591.7,219.4 
		599.8,220 607.9,222 616,223.4 624.1,222.8 632.1,222.7 640.2,225.9 648.3,224.5 656.4,227.9 664.5,228.9 672.6,232.3 680.7,229.3 
		688.8,233 696.9,232.2 705,231 713.1,232.2 721.1,231.5 729.2,233.1 737.3,230.9 745.4,229.6 753.5,230.3 761.6,227.1 769.7,224.6 
		777.8,225.4 785.9,230 794,229 802.1,224.9 810.1,220.1 818.2,221.8 826.3,221.9 834.4,224.8 842.5,232.8 850.6,229.4 858.7,224.9 
		866.8,225.6 874.9,227.9 883,227.4 891.1,231.5 899.1,231.7 907.2,232.9 915.3,252.9 923.4,252.7 931.5,227.3 931.5,221.4 
		923.4,242.3 915.3,239.2 907.2,223.4 899.1,227.3 891.1,218.6 883,217.8 874.9,218.8 866.8,218.9 858.7,214.2 850.6,218.8 
		842.5,221.5 834.4,218.2 826.3,215.3 818.2,214.3 810.1,214.9 802.1,217.1 794,216.7 785.9,220.8 777.8,218.6 769.7,217 
		761.6,217.2 753.5,220.6 745.4,220.1 737.3,224.5 729.2,224.3 721.1,223.5 713.1,223.9 705,222.9 696.9,225.3 688.8,222.8 
		680.7,221.6 672.6,221.9 664.5,222.4 656.4,219.4 648.3,216.8 640.2,214.8 632.1,214.4 624.1,214 616,211.9 607.9,212.4 
		599.8,212.9 591.7,210.9 583.6,212.2 575.5,215.5 567.4,215 559.3,214.2 551.2,215.6 543.1,213.6 535,211.7 527,212.5 518.9,211.4 
		510.8,211 502.7,208 494.6,210.1 486.5,212.1 478.4,212.9 470.3,214.1 462.2,217.4 454.1,223.5 446,228.1 438,231.9 429.9,235.9 
		421.8,223 413.7,216.1 405.6,185.7 397.5,120.2 397.4,113.5 341.1,113.5 	"/>
	<polygon class="st1" points="260,253.5 268,211.4 268.2,113.5 173.6,113.5 173.9,468.3 236.7,468.3 243.8,342.3 251.9,213.7 	"/>
</g>
<g id="PolyCollection_2">
	<g>
		<defs>
			<rect id="SVGID_1_" x="130.5" y="113.5" width="809.1" height="354.8"/>
		</defs>
		<clipPath id="SVGID_2_">
			<use xlink:href="#SVGID_1_"  style="overflow:visible;"/>
		</clipPath>
		<g class="st2">
			<g>
				<path id="m891b58b203" class="st3" d="M130.5,443.6v4l8.1,3.7l8.1,1.8l8.1-2.9l8.1-0.2l8.1,1.5l8.1-0.7l8.1,0.3l8.1,1.5l8.1-0.8
					l8.1,1.2l8.1-0.1l8.1-1.5l8.1-0.3l8.1,3.4l8.1-2.8l8.1,0.6l8.1,1.5l8.1-1.7l8.1-0.2l8.1,0.4l8.1-0.8l8.1,2.6l8.1-0.3l8.1-0.4
					l8.1,1.6l8.1-2.2l8.1,0.3l8.1-0.1l8.1,1.8l8.1-0.4l8.1-2l8.1,1.7l8.1-0.3l8.1,1.5l8.1,1.3l8.1,1.6l8.1,0.5l8.1,0.8l8.1,0.9
					l8.1,0.9l8.1,0.7l8.1,1.1l8.1-3.3l8.1,0.6l8.1,1.6l8.1-0.9l8.1-1.3l8.1,3.6l8.1-0.2l8.1-4.6l8.1,2.5l8.1,0.3l8.1-1.3l8.1-2.4
					l8.1,1.9l8.1-2.2l8.1,1.3l8.1-2.9l8.1,0l8.1,0.9l8.1-2.5l8.1,0l8.1,0.4l8.1-2.2l8.1,0.6l8.1,0.5l8.1,1.2l8.1,1.9l8.1-0.1l8.1,0
					l8.1,2.5l8.1-0.2l8.1-1.4l8.1-0.4l8.1,3.7l8.1-1.1l8.1-1.4l8.1,2.3l8.1-0.4l8.1,3.1l8.1-0.4l8.1-3.5l8.1,4.2l8.1-0.8l8.1,0.2
					l8.1,0.6l8.1-0.5l8.1,0.1l8.1-1.5l8.1,1.8l8.1-0.1l8.1-4.9l8.1,6.3l8.1-0.4l8.1-0.4l8.1-3.6l8.1-2l8.1,2l8.1,5.7v-14.1l0,0
					l-8.1-1.1l-8.1-0.7l-8.1-0.7l-8.1,1.6l-8.1,1l-8.1-3.6l-8.1,3.1l-8.1,0.1l-8.1-0.9l-8.1,3.6l-8.1-0.1l-8.1-1.4l-8.1,0.1
					l-8.1-1.7l-8.1,1.8l-8.1-2.6l-8.1,3.1l-8.1-1.5l-8.1,0.6l-8.1,0.2l-8.1-2.8l-8.1,0.6l-8.1,0.7l-8.1,2.6l-8.1-2.5l-8.1,0.2
					l-8.1-1l-8.1-1.8l-8.1,1.6l-8.1-1.5l-8.1,0.7l-8.1-1.5l-8.1,0.2l-8.1-0.2l-8.1-2.4l-8.1,1.1l-8.1-0.1l-8.1,0.4l-8.1,1.4
					l-8.1,0.4l-8.1,1.8l-8.1,1.1l-8.1,0.4l-8.1-1.5l-8.1,1.4l-8.1,0.8l-8.1-1l-8.1-0.6l-8.1,3.5l-8.1-1.9l-8.1-0.6l-8.1,0.2l-8.1,1
					l-8.1-1.4l-8.1,1.7l-8.1-1.5l-8.1,0.6l-8.1-1l-8.1-0.8l-8.1,0.3l-8.1,1l-8.1-1.5l-8.1-0.5l-8.1,0.1l-8.1-2l-8.1,0.6l-8.1-1.9
					l-8.1,0.4l-8.1-0.7l-8.1,0.1L357,446l-8.1,0l-8.1,0.5l-8.1-0.7l-8.1,1l-8.1,1.7l-8.1-1.1l-8.1,0.4l-8.1-1.5l-8.1,1.2l-8.1-2.1
					l-8.1,0.5l-8.1-0.4l-8.1,1.3l-8.1-1l-8.1,0.1l-8.1,0.7l-8.1-0.3l-8.1-0.1l-8.1-0.3l-8.1,0.2l-8.1-0.5l-8.1,0.3l-8.1,0.9
					l-8.1,0.5l-8.1-0.4l-8.1-2.2l-8.1,0.5L130.5,443.6z"/>
			</g>
		</g>
	</g>
</g>
<g id="PolyCollection_3">
	<g>
		<defs>
			<rect id="SVGID_3_" x="130.5" y="113.5" width="809.1" height="354.8"/>
		</defs>
		<clipPath id="SVGID_4_">
			<use xlink:href="#SVGID_3_"  style="overflow:visible;"/>
		</clipPath>
		<g class="st4">
			<g>
				<path id="m15d6a379fb" class="st5" d="M130.5,443.2v5.7l8.1,3.4l8.1-0.8l8.1-1l8.1,1.5l8.1-0.6l8.1-1.3l8.1,2.5l8.1-2.4l8.1,2.1
					l8.1-0.2l8.1-1.1l8.1,2.1l8.1-0.3l8.1-0.9l8.1,0.3l8.1,1.6l8.1-2.2l8.1,2.2l8.1-1.3l8.1,1l8.1-1.5l8.1,1.1l8.1-0.4l8.1-0.4
					l8.1,0.4l8.1-0.8l8.1,2.6l8.1-3.8l8.1,2.2l8.1,1.4l8.1,0.9l8.1-0.8l8.1-1.2l8.1,1.5l8.1,2.3l8.1-1.2l8.1-0.2l8.1,2.6l8.1-1
					l8.1,2.7l8.1-4.3l8.1,2.5l8.1,0.8l8.1-0.7l8.1,0.5l8.1-2.3l8.1,5.5l8.1,0.6l8.1-6.2l8.1,3.8l8.1-4.4l8.1,3.6l8.1,0.3l8.1-2.1
					l8.1,5.4l8.1-3.5l8.1-4.7l8.1,2.5l8.1,0.6l8.1-2.8l8.1-1.4l8.1-1.5l8.1,0.5l8.1,5l8.1-5.5l8.1,0l8.1,0l8.1,3.1l8.1,0.6l8.1,0.5
					l8.1,0.1l8.1-2.1l8.1,1.5l8.1,4.4l8.1-1l8.1-1l8.1-1.9l8.1,1.6l8.1,0l8.1,0.5l8.1,1.2l8.1,1.4l8.1-4.1l8.1,1.8l8.1,1l8.1,0.6
					l8.1,0.7l8.1-2.1l8.1,2l8.1-1.2l8.1-1.1l8.1-1.3l8.1,2.8l8.1-1.4l8.1,2.1l8.1-4.3l8.1,3.3l8.1,2.5l8.1,1.7v-15l0,0l-8.1-2.6
					l-8.1,2.4l-8.1,1.3l-8.1-1.2l-8.1,2.8l-8.1-0.1l-8.1,0l-8.1,0.5l-8.1-3l-8.1,4.1l-8.1-0.6l-8.1-1.4l-8.1-1.4l-8.1,0.4l-8.1-1.5
					l-8.1,0.8L794,448l-8.1,2.8l-8.1-0.9l-8.1-0.1l-8.1-2.5l-8.1,3l-8.1-1.9l-8.1,1.8l-8.1-3.6l-8.1,3.9l-8.1-2.3l-8.1-0.5l-8.1-3.1
					l-8.1,2.9l-8.1-0.8l-8.1,0l-8.1-1l-8.1-0.6l-8.1-1.5l-8.1,1.6l-8.1,0.6l-8.1,1.2l-8.1-0.5l-8.1,0.5l-8.1-2.1l-8.1,2.4l-8.1-0.1
					l-8.1-1.2l-8.1,2.4l-8.1,0.4l-8.1-0.4l-8.1,0.1l-8.1-0.9L527,449l-8.1-1.8l-8.1,0.3l-8.1-1.7l-8.1,2.8l-8.1,1.3l-8.1-2l-8.1-1.8
					l-8.1,3.3l-8.1-1.3l-8.1,1l-8.1-2.1l-8.1,0.9l-8.1-0.2l-8.1-0.4l-8.1,0.8l-8.1,0.7l-8.1-0.9l-8.1-1.4l-8.1-1.9l-8.1,3.2
					l-8.1-1.3L349,446l-8.1,0.3l-8.1-1.2l-8.1,1.6l-8.1-2l-8.1,0.8l-8.1,1.4l-8.1-1.1l-8.1-0.9l-8.1,0.9l-8.1,0l-8.1,0l-8.1-1
					l-8.1,1.2l-8.1-1.1l-8.1,0.2l-8.1-0.1l-8.1,1.4l-8.1-1.2l-8.1-0.1l-8.1-0.1l-8.1,0.6l-8.1-0.8l-8.1,1.1l-8.1,0.6l-8.1-0.2
					l-8.1-1.6L130.5,443.2z"/>
			</g>
		</g>
	</g>
</g>
<g id="PolyCollection_4">
	<g>
		<defs>
			<rect id="SVGID_5_" x="130.5" y="113.5" width="809.1" height="354.8"/>
		</defs>
		<clipPath id="SVGID_6_">
			<use xlink:href="#SVGID_5_"  style="overflow:visible;"/>
		</clipPath>
		<g class="st6">
			<g>
				<path id="m5c2b497e19" class="st7" d="M130.5,442.3v3.5l8.1,4.5l8.1-1.3l8.1,0.8l8.1,1.1l8.1,0.2l8.1-2.8l8.1,3.1l8.1,0.1
					l8.1-1.7l8.1,1.4l8.1-1.3l8.1,2.5l8.1-1.4l8.1,0.5l8.1-1l8.1,0.7l8.1,0.5l8.1-0.6l8.1,1l8.1,0.2l8.1-1.2l8.1,0l8.1,0.1l8.1-1.5
					l8.1,2l8.1-1.8l8.1,3.3l8.1-2l8.1-1.2l8.1,3.4l8.1,0.2l8.1-1.2l8.1,1.9l8.1,0.5l8.1,0.9l8.1,0l8.1-0.6l8.1,0.7l8.1,3.3l8.1-2.6
					l8.1,0.3l8.1,2.4l8.1-0.2l8.1-1.8l8.1,2.5l8.1-0.2l8.1-2.2l8.1,0.5l8.1,0l8.1-2.3l8.1,3.1l8.1-0.6l8.1,2.2l8.1-1.5l8.1-2
					l8.1,0.2l8.1-0.3l8.1-0.5l8.1-2.6l8.1,2.5l8.1-4.3l8.1,1.9l8.1-2.3l8.1,1.9l8.1-0.3l8.1,1.8l8.1,0.1l8.1-0.8l8.1-0.6l8.1,2.5
					l8.1,0l8.1-1l8.1,3l8.1-1l8.1,0.5l8.1,0.4l8.1,1l8.1,1.5l8.1,2.6l8.1-4.2l8.1,0.5l8.1,3.7l8.1,0.8l8.1-2l8.1,0.8l8.1-1.8
					l8.1,0.2l8.1,0.2l8.1,1.1l8.1-0.9l8.1,3l8.1-2.8l8.1-0.2l8.1,2.6l8.1-0.8l8.1-5.1l8.1,0.7l8.1,1l8.1,4v-10.2l0,0l-8.1-0.6
					l-8.1-2.2l-8.1,1l-8.1,0.3l-8.1,1.7l-8.1-1.1l-8.1,0.3l-8.1-3.7l-8.1,1.7l-8.1,1.4l-8.1-1.1l-8.1,2.8l-8.1-1.3l-8.1-1l-8.1-0.1
					l-8.1-0.6l-8.1,0l-8.1,0.4l-8.1,1.1l-8.1-3.4l-8.1,1.4l-8.1-0.2l-8.1,1.5l-8.1,0.3l-8.1-1.4l-8.1-1.6l-8.1-1.3l-8.1,0l-8.1,0.7
					l-8.1-1.4l-8.1,1.9l-8.1-2.7l-8.1-2l-8.1-0.2l-8.1,0.9l-8.1,1.6l-8.1-0.3l-8.1,0.3l-8.1-1.2l-8.1,3.2l-8.1-0.2l-8.1-1.2l-8.1,0
					l-8.1,1.1l-8.1-0.1l-8.1,0.2l-8.1,2.2l-8.1,1.3l-8.1-2.5l-8.1,1.8l-8.1-1.8l-8.1-0.4l-8.1,1l-8.1-0.3l-8.1-0.3l-8.1,0.6
					l-8.1,1.2l-8.1-0.5l-8.1-0.4l-8.1-1.3l-8.1,1.5l-8.1-0.8l-8.1-2.4l-8.1,0.2l-8.1,0.1l-8.1-1.3l-8.1,0.1l-8.1-2l-8.1-0.2
					l-8.1,1.5l-8.1-0.7l-8.1-2.2l-8.1,3.1l-8.1-0.5l-8.1,0.7l-8.1-1l-8.1,0.3l-8.1,0l-8.1-2.3l-8.1,1.3l-8.1,0.8l-8.1,0.8l-8.1-0.9
					l-8.1,0.4l-8.1,0.4l-8.1-2.6l-8.1,0.8l-8.1,2.9l-8.1-1.7l-8.1,0.2l-8.1-0.1l-8.1-0.8l-8.1,1l-8.1,0.2l-8.1-0.9l-8.1,0.6
					l-8.1-1.5l-8.1,0.2L130.5,442.3z"/>
			</g>
		</g>
	</g>
</g>
<g id="PolyCollection_5">
	<g>
		<defs>
			<rect id="SVGID_7_" x="130.5" y="113.5" width="809.1" height="354.8"/>
		</defs>
		<clipPath id="SVGID_8_">
			<use xlink:href="#SVGID_7_"  style="overflow:visible;"/>
		</clipPath>
		<g class="st8">
			<g>
				<path id="m23bc365d89" class="st9" d="M130.5,442.8v5.3l8.1,1.6l8.1,2.6l8.1-2.7l8.1-0.2l8.1,0.4l8.1,1l8.1,0.8l8.1,0.1l8.1,0
					l8.1,0.4l8.1-0.4l8.1-0.9l8.1,0.1l8.1-0.6l8.1,0.9l8.1,0.7l8.1-0.5l8.1,0.3l8.1-1.2l8.1,0.5l8.1,1l8.1-1.9l8.1,1l8.1,0l8.1,0.5
					l8.1-0.5l8.1,2l8.1-0.3l8.1,2.8l8.1-1.9l8.1,0.6l8.1-0.4l8.1,3.4l8.1-1.2l8.1,0l8.1,1.2l8.1,1.1l8.1,1.6l8.1-0.3l8.1-0.3
					l8.1,0.5l8.1,0.3l8.1-1.5l8.1,1.3l8.1,0.4l8.1-1.7l8.1,0.7l8.1,1.4l8.1-1l8.1,2.6l8.1,1l8.1-1l8.1-2l8.1,1.1l8.1-2.7l8.1,1.4
					l8.1,0.9l8.1-2l8.1-1.3l8.1-0.5l8.1-0.8l8.1-1.9l8.1,0.1l8.1-0.8l8.1,1.2l8.1-0.7l8.1,0.2l8.1,1l8.1,1.1l8.1,3.2l8.1-0.8
					l8.1,0.8l8.1-0.9l8.1,0.5l8.1,2.6l8.1,1l8.1-0.5l8.1-1.3l8.1,1.4l8.1,1.8l8.1,0.4l8.1-0.2l8.1-1l8.1-0.8l8.1-1.5l8.1,0.5l8.1-1
					l8.1-0.1l8.1,0.2l8.1,0.4l8.1,3.5l8.1,0.3l8.1-2.7l8.1,0.6l8.1-0.1l8.1-0.1l8.1-2.9l8.1,1l8.1,4.2v-10l0,0l-8.1-1.8l-8.1,0.5
					l-8.1-1.7l-8.1,2.7l-8.1,0.3l-8.1,0.9l-8.1,0.8l-8.1-0.6l-8.1-2l-8.1,1.2l-8.1-3.2l-8.1,3.2l-8.1-0.5l-8.1-1.8l-8.1,1l-8.1-0.2
					L794,455l-8.1-1.5l-8.1,0.8l-8.1-0.3l-8.1,0.1l-8.1-1l-8.1-0.7l-8.1,1.5l-8.1,0.5l-8.1-2.8l-8.1-2l-8.1,1.4l-8.1-0.9l-8.1-0.3
					l-8.1-1.2l-8.1,0.4l-8.1-0.3l-8.1-0.3l-8.1-2.6l-8.1,0.7l-8.1,2.3l-8.1-0.9l-8.1,2.5l-8.1,0.8l-8.1-0.2l-8.1,0.6l-8.1,1.8
					l-8.1-0.9l-8.1,1.8l-8.1-2.1l-8.1,0.9l-8.1-2.1l-8.1,0.5l-8.1,0.1l-8.1-0.6l-8.1,1.2l-8.1,0.2l-8.1-1.7l-8.1,0.9l-8.1-1.4
					l-8.1,0.2l-8.1,2.4l-8.1-2.1l-8.1,0.6l-8.1,0.2l-8.1,0.4l-8.1-2.4l-8.1,1.4l-8.1-0.8l-8.1-2.7l-8.1,1.3l-8.1-1.3l-8.1,0.9
					l-8.1-1.6l-8.1-0.7l-8.1-0.8l-8.1,2l-8.1-2l-8.1-1.1l-8.1,1.4l-8.1-1.3l-8.1-0.2l-8.1-0.2l-8.1,0.8l-8.1,0.5l-8.1,0.6l-8.1-2.1
					l-8.1,1l-8.1-0.5l-8.1,0.4l-8.1,0l-8.1-0.3l-8.1-0.2l-8.1,0.3l-8.1-1.1l-8.1,0.4l-8.1,0.6l-8.1-0.3l-8.1-0.6l-8.1,0.2l-8.1-1.7
					l-8.1,1.9L130.5,442.8z"/>
			</g>
		</g>
	</g>
</g>
<g id="PolyCollection_6">
	<g>
		<defs>
			<rect id="SVGID_9_" x="130.5" y="113.5" width="809.1" height="354.8"/>
		</defs>
		<clipPath id="SVGID_10_">
			<use xlink:href="#SVGID_9_"  style="overflow:visible;"/>
		</clipPath>
		<g class="st10">
			<g>
				<path id="m5a2b05443e" class="st11" d="M130.5,443.5v3.5l8.1,3.2l8.1,0.3l8.1-1l8.1,1.9l8.1-2.4l8.1,2l8.1-1.2l8.1,0.7l8.1,1.3
					l8.1,0.5l8.1-0.6l8.1-0.2l8.1-0.7l8.1,1.7l8.1-1.9l8.1,3.2l8.1-2.3l8.1,0.9l8.1-2.6l8.1,1.5l8.1,0.5l8.1,0.6l8.1-1l8.1-1
					l8.1,1.2l8.1-0.9l8.1,0.9l8.1,3.9l8.1-3l8.1,0.7l8.1,0l8.1,0.8l8.1,2.2l8.1,0.1l8.1,0l8.1-0.2l8.1,2.3l8.1-0.4l8.1,2l8.1-3.5
					l8.1,2.5l8.1-1.7l8.1,2.9l8.1,0.7l8.1-3.7l8.1,1.7l8.1-2.6l8.1,1.6l8.1-0.2l8.1,3.5l8.1-0.5l8.1-2.3l8.1-2.3l8.1,3.4l8.1-3.2
					l8.1,1l8.1,2.6l8.1-1.1l8.1-4l8.1,1l8.1-1.3l8.1-0.6l8.1,1.6l8.1-1.3l8.1,1.4l8.1-0.6l8.1,0.5l8.1-0.9l8.1,3.1l8.1,1l8.1-3.4
					l8.1,3.9l8.1,1.1l8.1-2.7l8.1-2.4l8.1,7.7l8.1-2.2l8.1-1.7l8.1-0.3l8.1-1.7l8.1,4.7l8.1-2.2l8.1,1.8l8.1,0.3l8.1-0.3l8.1,0.5
					l8.1,0.2l8.1,0l8.1,1.3l8.1-3.4l8.1-0.3l8.1,4l8.1-0.6l8.1-1.2l8.1-1.2l8.1-1.4l8.1,0.6l8.1-2.2l8.1,5.8v-9.8l0,0l-8.1-1.2
					l-8.1-1.9l-8.1,0.4l-8.1,2.7l-8.1-1.8l-8.1-0.5l-8.1,1l-8.1,0.2l-8.1-0.8l-8.1-0.7l-8.1,2.2l-8.1-2.5l-8.1-0.1l-8.1,1.3
					l-8.1-1.7l-8.1,1.6L794,452l-8.1-1.6l-8.1-0.7l-8.1,0.5l-8.1-1.8l-8.1,1.7l-8.1-1.1l-8.1,3.3l-8.1-2.9l-8.1,1.6l-8.1-1.1
					l-8.1,0.4l-8.1-0.8l-8.1,0.1l-8.1-2.9l-8.1-0.1l-8.1,0.2l-8.1-1.2l-8.1-0.6l-8.1,1.2l-8.1,0l-8.1,1.8l-8.1-0.3l-8.1,1.9
					l-8.1-0.4l-8.1,1.3l-8.1-0.6l-8.1,1.6l-8.1-2.2l-8.1,1.9l-8.1-0.6l-8.1-0.7l-8.1-0.4l-8.1-0.4l-8.1,1l-8.1,0.9l-8.1-0.1
					l-8.1-1.6l-8.1-0.6l-8.1,0.4l-8.1,0.3l-8.1-0.2l-8.1,0.9l-8.1-1.6l-8.1,1.4l-8.1-0.9l-8.1,1.3l-8.1-2.6l-8.1-1.4l-8.1,0.6
					l-8.1,1.3l-8.1-0.5l-8.1-0.4l-8.1-0.6l-8.1-0.2l-8.1-1.9l-8.1,1.4l-8.1-0.1l-8.1-1l-8.1-0.1l-8.1,0l-8.1,0l-8.1-0.3l-8.1,0
					l-8.1-1.2l-8.1,0.4l-8.1-1.1l-8.1,1.7l-8.1-0.2l-8.1-0.3l-8.1,0.3l-8.1,0.3l-8.1,0.3l-8.1-2.9l-8.1,3l-8.1-1l-8.1-0.1l-8.1,0
					l-8.1-1.2l-8.1-0.6l-8.1,1.9l-8.1-0.6L130.5,443.5z"/>
			</g>
		</g>
	</g>
</g>
<g id="PolyCollection_7">
	<g>
		<defs>
			<rect id="SVGID_11_" x="130.5" y="113.5" width="809.1" height="354.8"/>
		</defs>
		<clipPath id="SVGID_12_">
			<use xlink:href="#SVGID_11_"  style="overflow:visible;"/>
		</clipPath>
		<g class="st12">
			<g>
				<path id="mc4cc9be345" class="st13" d="M130.5,439.2v10.4l8.1,1.1l8.1-1.5l8.1,1.4l8.1,0.6l8.1,0.1l8.1-0.1l8.1-2.4l8.1,1.6
					l8.1,0.4l8.1-0.7l8.1,0.4l8.1-1.1l8.1,0.5l8.1,0.4l8.1-0.1l8.1,0.1l8.1-0.2l8.1,0l8.1,0.7l8.1-0.6l8.1,2.6l8.1-2.9l8.1-0.6
					l8.1,2l8.1,0.5l8.1,1.4l8.1-1.3l8.1-0.9l8.1,1.6l8.1-0.7l8.1,1.6l8.1,0.2l8.1-0.8l8.1,0.9l8.1,3.1l8.1-1.9l8.1,2.9l8.1,0.2
					l8.1,2.8l8.1-0.2l8.1-7l8.1,2.8l8.1-0.9l8.1,2.1l8.1-0.6l8.1,1.2l8.1,0.1l8.1-0.3l8.1-1.6l8.1,2.3l8.1,0l8.1-0.2l8.1,0.1
					l8.1-2.5l8.1,0.2l8.1,0.8l8.1-2.1l8.1-1l8.1,3.7l8.1-5l8.1,1.4l8.1-0.8l8.1-0.9l8.1-1.1l8.1,2.1l8.1-1.9l8.1,1.5l8.1,3.2
					l8.1-2.9l8.1,1.2l8.1,1.7l8.1,0.4l8.1,1.4l8.1,2.5l8.1-0.3l8.1,0l8.1-1l8.1-1l8.1-0.2l8.1-1.6l8.1,0.6l8.1,1.7l8.1,3.6l8.1-3.2
					l8.1,1.9l8.1-1.7l8.1,2.8l8.1-2.7l8.1,1.3l8.1-0.9l8.1,0.4l8.1-3.3l8.1,3.7l8.1,1.2l8.1-2.6l8.1-1.1l8.1-1.5l8.1,3l8.1,1v-8.9
					l0,0l-8.1-1.8l-8.1-3l-8.1,0.7l-8.1,1.1l-8.1,2.6l-8.1-1l-8.1-1.8l-8.1,1l-8.1-3.8l-8.1,2.5l-8.1-0.2l-8.1,1.5l-8.1,0.2l-8.1-1
					l-8.1-0.8l-8.1,0.4L794,448l-8.1,2.8l-8.1-2.9l-8.1,1.6l-8.1-0.8l-8.1-1.7l-8.1,1.7l-8.1,0.4l-8.1-2.5l-8.1,0l-8.1,0.5l-8.1-0.2
					l-8.1-0.3l-8.1,2l-8.1-2.3l-8.1-1.4l-8.1-0.2l-8.1-1.2l-8.1-1.2l-8.1,2.6l-8.1-0.4l-8.1-1.1l-8.1,2.7l-8.1-1.2l-8.1,2.7l-8.1-1
					l-8.1,0.2l-8.1,0.8l-8.1,1.7l-8.1-2.4l-8.1,0.8l-8.1,0.4l-8.1-1.5l-8.1,1.9l-8.1-0.9l-8.1-0.9l-8.1,3l-8.1,0.7l-8.1-2.2
					l-8.1-0.4l-8.1,0.5l-8.1,0l-8.1-1.4l-8.1,0.7l-8.1,1l-8.1-1.7l-8.1,1.9l-8.1-2l-8.1-0.5l-8.1,0.9l-8.1-2.5l-8.1,1.2l-8.1,1.2
					l-8.1,0.1l-8.1-1.8L349,445l-8.1-1.3l-8.1-0.6l-8.1,1l-8.1-0.5l-8.1,1.8l-8.1-1.8l-8.1-0.6l-8.1,1.6l-8.1,1.8l-8.1-2.5l-8.1-0.1
					l-8.1-0.1l-8.1,1l-8.1-1l-8.1-0.7l-8.1,1.8l-8.1-0.2l-8.1-0.7l-8.1,1.1l-8.1-0.5l-8.1-0.9l-8.1-1l-8.1-1.3l-8.1,2.1l-8.1,1.2
					l-8.1-1.2L130.5,439.2z"/>
			</g>
		</g>
	</g>
</g>
<g id="PolyCollection_8">
	<g>
		<defs>
			<rect id="SVGID_13_" x="130.5" y="113.5" width="809.1" height="354.8"/>
		</defs>
		<clipPath id="SVGID_14_">
			<use xlink:href="#SVGID_13_"  style="overflow:visible;"/>
		</clipPath>
		<g class="st14">
			<g>
				<path id="m57f85788e1" class="st15" d="M130.5,441.2v6.2l8.1,3.3l8.1,1.6l8.1,1.2l8.1-1l8.1-0.8l8.1-0.7l8.1,1.6l8.1-0.4
					l8.1-0.4l8.1-1.9l8.1,2.7l8.1-0.8l8.1,0.2l8.1,0.5l8.1,0l8.1-0.8l8.1,0.3l8.1-1.7l8.1,0.8l8.1,0.5l8.1,0.8l8.1-0.3l8.1-1.1
					l8.1,1l8.1,2.1l8.1-3.9l8.1,2.4l8.1,1.8l8.1-0.9l8.1-1.2l8.1,1l8.1,0l8.1,3.3l8.1-2.6l8.1-1.6l8.1,3.6l8.1,1.3l8.1-1.6l8.1,2.2
					l8.1,2.7l8.1-4.7l8.1,4.7l8.1-1.2l8.1-2.4l8.1,2l8.1-3.2l8.1-0.1l8.1,3.2l8.1-0.5l8.1-2.2l8.1,0l8.1,3.7l8.1-0.8l8.1,1.6
					l8.1-0.6l8.1-1.5l8.1-2.6l8.1,1.7l8.1-2.1l8.1-1.8l8.1,1.1l8.1-2.6l8.1,2.1l8.1-2.4l8.1-0.9l8.1,2l8.1-0.5l8.1,1.2l8.1,1.8
					l8.1-0.3l8.1-0.2l8.1-1l8.1,0.1l8.1,0.2l8.1-0.4l8.1,3.4l8.1-1.3l8.1-2l8.1,1.4l8.1,5.8l8.1-3.8l8.1-3.1l8.1,5.3l8.1,2.7
					l8.1-1.2l8.1,1.6l8.1-1.8l8.1-0.4l8.1-4.6l8.1-4.8l8.1,4.7l8.1,0.3l8.1,1.5l8.1,2.3l8.1,1.5l8.1-6.7l8.1-1.8l8.1-3.9l8.1,7.4
					v-12.3l0,0l-8.1-4.2l-8.1,0.7l-8.1,3l-8.1,2.2l-8.1-3.7l-8.1,3.3l-8.1-3.1l-8.1-1.2l-8.1,1l-8.1,2.3l-8.1,4l-8.1,2.6l-8.1-1
					l-8.1,0l-8.1-3.2l-8.1-3.6l-8.1,1.7l-8.1,0.9l-8.1-3.2l-8.1,3.9l-8.1-3.3l-8.1,3.1l-8.1-1.5l-8.1,3.8l-8.1-4.1l-8.1,1.5
					l-8.1-0.8l-8.1-0.3l-8.1,0.4l-8.1-0.3l-8.1-0.5l-8.1,1.1l-8.1-1.9l-8.1,0.1l-8.1-0.1l-8.1-2.6l-8.1,2.8l-8.1-1.2l-8.1-0.8
					l-8.1,2.2l-8.1,0.4l-8.1-0.1l-8.1-1.1l-8.1,6.5l-8.1-2.3l-8.1-1.9l-8.1,1.8l-8.1,0.3l-8.1,2.3l-8.1-2.9l-8.1,0.3l-8.1,2.8
					l-8.1-2l-8.1-0.5l-8.1,2.1l-8.1-1.6l-8.1-4.3l-8.1,4.2l-8.1-0.6l-8.1-0.3l-8.1-0.7l-8.1-1.4l-8.1-1.8l-8.1,1.5l-8.1,0.6
					l-8.1-3.2l-8.1,1.4l-8.1-0.1l-8.1,0.9l-8.1-0.2L357,443l-8.1,2.7l-8.1-1.5l-8.1,0.6l-8.1,2.1l-8.1-2.7l-8.1-1.1l-8.1,2.1
					l-8.1-2.1l-8.1,2.1l-8.1-0.4l-8.1,1.4l-8.1-1.6l-8.1,0.1l-8.1,0.1l-8.1,1.1l-8.1-1.4l-8.1-0.1l-8.1,1.5l-8.1,0.1l-8.1-1
					l-8.1-2.2l-8.1,1.6l-8.1,0.3l-8.1,0.5l-8.1-2.1l-8.1,2l-8.1-1.1L130.5,441.2z"/>
			</g>
		</g>
	</g>
</g>
<g id="PolyCollection_9">
	<g>
		<defs>
			<rect id="SVGID_15_" x="130.5" y="113.5" width="809.1" height="354.8"/>
		</defs>
		<clipPath id="SVGID_16_">
			<use xlink:href="#SVGID_15_"  style="overflow:visible;"/>
		</clipPath>
		<g class="st16">
			<g>
				<path id="m45e9ba9748" class="st17" d="M130.5,444.3v3.9l8.1,4l8.1-3.2l8.1,1.4l8.1-0.2l8.1,0.1l8.1-0.6l8.1,0.8l8.1-0.2l8.1,3
					l8.1-3.9l8.1,2.2l8.1,2.3l8.1-1.7l8.1-0.2l8.1,1.3l8.1-2.1l8.1,1l8.1-1.5l8.1,0l8.1,0.3l8.1,0.7l8.1,0.6l8.1-0.2l8.1,0.4
					l8.1-0.4l8.1,0l8.1-1.8l8.1,0.1l8.1,2.4l8.1-0.5l8.1,0.1l8.1,1l8.1,0.4l8.1,1.1l8.1,1.2l8.1-0.2l8.1,0.1l8.1-0.8l8.1,1.1
					l8.1-1.4l8.1,1.6l8.1,0.2l8.1,2.6l8.1-0.6l8.1-0.6l8.1,0.1l8.1,1.6l8.1-1.4l8.1,0.2l8.1-0.7l8.1,0.6l8.1-2.5l8.1-0.2l8.1,3.7
					l8.1-1.4l8.1,2.4l8.1-5.9l8.1-0.9l8.1,3l8.1-1.3l8.1,1.3l8.1-4l8.1,0.8l8.1-0.5l8.1-0.1l8.1-0.6l8.1,3.4l8.1,0.6l8.1-0.2
					l8.1,0.7l8.1,0.9l8.1,1.2l8.1,0l8.1-0.8l8.1,0.6l8.1-1.5l8.1-0.9l8.1,4.1l8.1-0.6l8.1-2.4l8.1,5.2l8.1-2.4l8.1-0.7l8.1-3.3
					l8.1,3.6l8.1-0.9l8.1,1.4l8.1,1.8l8.1-0.3l8.1-1.8l8.1-2.2l8.1,4.7l8.1-3.4l8.1,1.4l8.1,1.5l8.1-5.4l8.1,2.6l8.1-4l8.1,5.2v-9.6
					l0,0l-8.1-2.7l-8.1-1.7l-8.1-0.1l-8.1,2.8l-8.1,0.8L883,450l-8.1-1l-8.1,3.9l-8.1-1.8l-8.1-0.6l-8.1,0.5l-8.1,0.1l-8.1-2.1
					l-8.1,2.5l-8.1-0.6l-8.1-0.5l-8.1-0.8l-8.1-1.3l-8.1,2.7l-8.1-0.1l-8.1,0.8l-8.1-2.5l-8.1,0.7l-8.1,1.7l-8.1-2.1l-8.1-0.9
					l-8.1-1.9L705,449l-8.1-0.6l-8.1-0.5l-8.1-1.6l-8.1-1.6l-8.1,1.9l-8.1-0.7l-8.1,0.2l-8.1-1.7l-8.1,1.7l-8.1,1.8l-8.1-1.4
					l-8.1,0.5l-8.1,1.2l-8.1,2.2l-8.1-1.6l-8.1,2.3l-8.1-3.2l-8.1,3.6l-8.1-2.7l-8.1-0.8l-8.1-0.9L527,448l-8.1-1.9l-8.1,2l-8.1-1
					l-8.1,0.7l-8.1-0.9l-8.1,0.4l-8.1-0.2l-8.1,0.9l-8.1,2.1l-8.1-2l-8.1,0.5l-8.1,1.8l-8.1-2.1l-8.1,1.4l-8.1-1.7l-8.1-0.4
					l-8.1-0.7l-8.1-0.8l-8.1,0.8l-8.1-1l-8.1,1l-8.1-0.6l-8.1-0.3l-8.1,1.1l-8.1-1.3l-8.1-2.3l-8.1,2.1l-8.1-0.4l-8.1,0.5l-8.1-0.2
					l-8.1-1.2l-8.1,2.1l-8.1-1.6l-8.1-2.5l-8.1,2.8l-8.1-1l-8.1-0.7l-8.1,1.5l-8.1-0.1l-8.1-2.6l-8.1,2.1l-8.1-0.3l-8.1-0.3
					l-8.1,0.9l-8.1-0.5l-8.1-0.8l-8.1,0.8l-8.1,0.7L130.5,444.3z"/>
			</g>
		</g>
	</g>
</g>
<g id="PolyCollection_10">
	<g>
		<defs>
			<rect id="SVGID_17_" x="130.5" y="113.5" width="809.1" height="354.8"/>
		</defs>
		<clipPath id="SVGID_18_">
			<use xlink:href="#SVGID_17_"  style="overflow:visible;"/>
		</clipPath>
		<g class="st18">
			<g>
				<path id="m569809169d" class="st19" d="M130.5,442.6v4.3l8.1,5.2l8.1,2.3l8.1-2l8.1-0.7l8.1-0.6l8.1,1l8.1-0.1l8.1,1.2l8.1,0
					l8.1-1.3l8.1,1.2l8.1,0.1l8.1-0.3l8.1,1.1l8.1-1.2l8.1-0.5l8.1,2.1l8.1-1l8.1,0.1l8.1,1.2l8.1,0.3l8.1-0.4l8.1,1.1l8.1-3.5
					l8.1,0.8l8.1,1.2l8.1-0.3l8.1,0l8.1,0.2l8.1-0.5l8.1,1.5l8.1-0.4l8.1,1.8l8.1-1.4l8.1,1.2l8.1-0.2l8.1,3.9l8.1,0.1l8.1-0.9
					l8.1-1.1l8.1,1.7l8.1,0.9l8.1-2.3l8.1,4.5l8.1-3.5l8.1,0.9l8.1-0.3l8.1-0.5l8.1-0.8l8.1-0.7l8.1-0.8l8.1,2.8l8.1-1.3l8.1-0.3
					l8.1,0l8.1,0.3l8.1,0.4l8.1,0.2l8.1-2.7l8.1,0.5l8.1-2l8.1-1.6l8.1-0.4l8.1,1l8.1,1.2l8.1-0.3l8.1,0l8.1,2l8.1,0.2l8.1-2.9
					l8.1,2.3l8.1,0l8.1,0.5l8.1,1.2l8.1-1.9l8.1,2.7l8.1-1.4l8.1,0.5l8.1-2.2l8.1,3.2l8.1,2.2l8.1-1.2l8.1,0.9l8.1-2l8.1,4.3
					l8.1-1.3l8.1,0.7l8.1-2.8l8.1,0.9l8.1,0.6l8.1-1.3l8.1,2.3l8.1,2l8.1-2l8.1-2.5l8.1-1.4l8.1-0.5l8.1,3l8.1,2.9v-12.6l0,0
					l-8.1-3.8l-8.1-0.8l-8.1,0l-8.1,3.6l-8.1-0.1l-8.1-3.1l-8.1,3.1l-8.1,3.8l-8.1-5l-8.1,1.6l-8.1,1.2l-8.1,0l-8.1,1.5l-8.1-2.2
					l-8.1,1.3l-8.1-2.6l-8.1,1.5l-8.1-1.1l-8.1,0.9l-8.1,0l-8.1,0.9l-8.1,0.1l-8.1-0.3l-8.1-1.4l-8.1,0l-8.1,0.8l-8.1-2L705,449
					l-8.1,1.8l-8.1-0.9l-8.1-0.8l-8.1-0.8l-8.1-0.9l-8.1-1.6l-8.1,2.2l-8.1-0.4l-8.1-0.3l-8.1,0.3l-8.1,2.2l-8.1-0.4l-8.1,0.8
					l-8.1-0.2l-8.1-0.3l-8.1,1.6l-8.1,0l-8.1,2.1l-8.1-1.3l-8.1,0.2l-8.1,0.4l-8.1-0.4l-8.1,0l-8.1-2.7l-8.1,1.2l-8.1,1.2l-8.1-2.3
					l-8.1,1.7l-8.1,1.3l-8.1-1.6l-8.1,1.2l-8.1,0.7l-8.1-1.4l-8.1-0.9l-8.1,0.6l-8.1-0.1l-8.1-0.1l-8.1-4.4l-8.1,4l-8.1-2.4
					l-8.1,0.3l-8.1-0.6l-8.1,1.8l-8.1-1.7l-8.1,1.2l-8.1-1.3l-8.1,0.2l-8.1-2.2l-8.1,1.9l-8.1,0.1l-8.1-0.2l-8.1-0.5l-8.1,1.3
					l-8.1-1.4l-8.1,0.6l-8.1-0.9l-8.1,1l-8.1,0.1l-8.1-0.8l-8.1,1.5l-8.1-0.5l-8.1-0.4l-8.1-1.1l-8.1,2.3l-8.1-0.4l-8.1-1.2l-8.1,1
					l-8.1-1l-8.1-1.4l-8.1,2L130.5,442.6z"/>
			</g>
		</g>
	</g>
</g>
<g id="PolyCollection_11">
	<g>
		<defs>
			<rect id="SVGID_19_" x="130.5" y="113.5" width="809.1" height="354.8"/>
		</defs>
		<clipPath id="SVGID_20_">
			<use xlink:href="#SVGID_19_"  style="overflow:visible;"/>
		</clipPath>
		<g class="st20">
			<g>
				<path id="m3b9e3e75a3" class="st21" d="M130.5,445.7v5.8l8.1,0.8l8.1,0.8l8.1-1.5l8.1-1.2l8.1,3.2l8.1-0.8l8.1,0.5l8.1-0.5
					l8.1-0.9l8.1,1.8l8.1,1.2l8.1-2.4l8.1,0l8.1,2.2l8.1-0.6l8.1,0.7l8.1-1.6l8.1,1.7l8.1-2l8.1,1.6l8.1,0l8.1,0l8.1,0.4l8.1-0.6
					l8.1,3.1l8.1-2.4l8.1-0.5l8.1,2.7l8.1-1.9l8.1-0.8l8.1,0.9l8.1-1.1l8.1,3.9l8.1-1.4l8.1,2.9l8.1-1.9l8.1,2.7l8.1-0.1l8.1,2.3
					l8.1-0.4l8.1,2.4l8.1-0.8l8.1-0.7l8.1,0.7l8.1-1.8l8.1,0.1l8.1,1.8l8.1,0.5l8.1-0.5l8.1,0.3l8.1-1.6l8.1,2.4l8.1,0.5l8.1-2.8
					l8.1,2.5l8.1-2.4l8.1-2.4l8.1-1.2l8.1,0.6l8.1-2.4l8.1,0.1l8.1-1.3l8.1-1.5l8.1-0.6l8.1-0.7l8.1,2.6l8.1,0.7l8.1,0l8.1,2.8
					l8.1-1.5l8.1,3.1l8.1-0.1l8.1-1l8.1,2.7l8.1,1.3l8.1-2.3l8.1,0.6l8.1-1.9l8.1-0.3l8.1,3.2l8.1,0.2l8.1,2.5l8.1,2.5l8.1-4l8.1,3
					l8.1-2.5l8.1,0l8.1,0.3l8.1-0.6l8.1,0.7l8.1-2.1l8.1,2.5l8.1,1.9l8.1-1.5l8.1-1.9l8.1-3.1l8.1-0.2l8.1-0.1l8.1,9.5v-10.1l0,0
					l-8.1-7.8l-8.1-1.8l-8.1,0.2l-8.1,7.8l-8.1-1.2l-8.1-3.5l-8.1,1.4l-8.1-1.5l-8.1-1.8l-8.1,4.5l-8.1,2l-8.1-1.5l-8.1,1.5l-8.1-2
					l-8.1,2.2l-8.1-3.1l-8.1-0.8l-8.1,1l-8.1,0.3l-8.1-1.9l-8.1-1.3l-8.1-0.6l-8.1,1.8l-8.1-1.3l-8.1,1.4l-8.1-0.6l-8.1-1.9
					l-8.1-0.8l-8.1,2.2l-8.1-2.6l-8.1,0.2l-8.1-1.1l-8.1-1.8l-8.1,1l-8.1-0.4l-8.1,0.4l-8.1,0.8l-8.1,0.5l-8.1,0l-8.1,1.9l-8.1,0.9
					l-8.1-1.3l-8.1,2.4l-8.1-0.4l-8.1,1.8l-8.1,0.2l-8.1,0.2l-8.1,1.8l-8.1-3.7l-8.1-0.1l-8.1,2.8l-8.1-0.5l-8.1,1.2l-8.1-2.8
					l-8.1,0.5l-8.1,0.1l-8.1,1l-8.1,0.6l-8.1-0.5l-8.1,0.2l-8.1-2.5l-8.1-1.6l-8.1-0.2l-8.1-0.7l-8.1-0.7l-8.1-0.4l-8.1-0.5
					l-8.1-1.1l-8.1,1.4l-8.1-1l-8.1-0.1l-8.1,0.4l-8.1,2.1l-8.1-4.8l-8.1,2.9l-8.1-0.7l-8.1,0.4l-8.1-0.7l-8.1,0l-8.1,0.7l-8.1-0.5
					l-8.1-0.2l-8.1-1.2l-8.1,1.6l-8.1-0.6l-8.1-1.5l-8.1,2.1l-8.1-0.4l-8.1-0.5l-8.1,0.4l-8.1-0.2l-8.1-0.5l-8.1,0.1l-8.1,0.3
					l-8.1,0l-8.1-0.8l-8.1-0.1l-8.1-1.3L130.5,445.7z"/>
			</g>
		</g>
	</g>
</g>
<g id="PolyCollection_12">
	<g>
		<defs>
			<rect id="SVGID_21_" x="130.5" y="113.5" width="809.1" height="354.8"/>
		</defs>
		<clipPath id="SVGID_22_">
			<use xlink:href="#SVGID_21_"  style="overflow:visible;"/>
		</clipPath>
		<g class="st22">
			<g>
				<path id="m55bbf776a8" class="st23" d="M130.5,442.9v3.9l8.1,1.2l8.1,0.8l8.1,2l8.1,0.2l8.1,0l8.1,0.6l8.1-1.5l8.1,1.8l8.1,0.6
					l8.1-0.8l8.1,0l8.1-0.7l8.1,1.9l8.1-3.1l8.1,2.4l8.1-3l8.1,3l8.1-1.7l8.1,2.3l8.1-2l8.1,1.4l8.1,1.8l8.1-4.1l8.1,2l8.1,3.3
					l8.1-2.1l8.1-0.1l8.1,0.3l8.1,0l8.1,0.1l8.1,1.3l8.1,0.6l8.1-0.7l8.1,0l8.1,3.2l8.1,0.6l8.1-1.8l8.1,5.4l8.1-3.1l8.1,2.2
					l8.1-2.9l8.1,0l8.1-0.4l8.1,3l8.1-4.5l8.1,3.1l8.1,0.9l8.1,2.4l8.1-1.3l8.1,0.8l8.1-1.2l8.1,0.6l8.1-3.3l8.1-0.8l8.1,2l8.1,2
					l8.1-2.2l8.1-1.2l8.1,0.3l8.1,1.7l8.1-5.9l8.1,2.3l8.1,0.3l8.1-4.6l8.1,1l8.1-1l8.1,3.9l8.1-0.2l8.1,2.3l8.1,0.5l8.1-0.3
					l8.1,0.5l8.1,3.8l8.1-3.5l8.1,3.9l8.1-0.2l8.1-1.1l8.1-1.7l8.1,1.1l8.1,0.2l8.1,0l8.1,2.3l8.1-4.8l8.1,2.7l8.1,0.2l8.1,5
					l8.1-0.7l8.1-3.6l8.1-1l8.1,2.1l8.1-2.1l8.1,3.4l8.1-3.6l8.1-0.8l8.1,3.9l8.1-6.7l8.1-1.4l8.1,5.5l8.1,0.1v-11.4l0,0l-8.1-0.1
					l-8.1-0.8l-8.1-0.5l-8.1,0.7l-8.1,4l-8.1-3.9l-8.1-1.1l-8.1,2.6l-8.1-2.9l-8.1,4.1l-8.1-1.2l-8.1-2.4l-8.1,0.1l-8.1,2.2
					l-8.1,0.6l-8.1,2.4l-8.1-5l-8.1,1.7l-8.1,0.6l-8.1,2l-8.1-2.9l-8.1-1.5l-8.1,0.1l-8.1,1.7l-8.1-1.8l-8.1,0.7l-8.1-0.1l-8.1-0.1
					l-8.1,0.4l-8.1,1l-8.1-0.7l-8.1-2.9l-8.1,2.4l-8.1-2l-8.1,0.6l-8.1-1.6l-8.1,0l-8.1,3.1l-8.1-2l-8.1,1.4l-8.1,1.2l-8.1-0.8
					l-8.1-0.4l-8.1,3.4l-8.1-0.2l-8.1-1.3l-8.1-1.4l-8.1,2.6l-8.1-2.1l-8.1-0.7l-8.1,1.2l-8.1-0.1l-8.1,0.7l-8.1,0.8l-8.1-2.1
					l-8.1,0.2l-8.1,0.8l-8.1,1.9l-8.1-1.4l-8.1-1.3l-8.1,1.6l-8.1-1.6l-8.1,2.2l-8.1-2.6l-8.1,0.8l-8.1-1.9l-8.1,0.7l-8.1-0.4
					l-8.1-0.9l-8.1-0.2l-8.1,0.5L349,448l-8.1-2.6l-8.1,0.2l-8.1,0.6l-8.1,0.2l-8.1-2.2l-8.1,2l-8.1-0.6l-8.1,1l-8.1-0.2l-8.1-0.2
					l-8.1-1.6l-8.1-0.4l-8.1,1.3l-8.1-0.7l-8.1,0.5l-8.1-1.1l-8.1,1l-8.1-1.3l-8.1,2l-8.1,0L179,445l-8.1-1l-8.1,1l-8.1-2.4
					l-8.1,2.4l-8.1-1.5L130.5,442.9z"/>
			</g>
		</g>
	</g>
</g>
<g id="PolyCollection_13">
	<g>
		<defs>
			<rect id="SVGID_23_" x="130.5" y="113.5" width="809.1" height="354.8"/>
		</defs>
		<clipPath id="SVGID_24_">
			<use xlink:href="#SVGID_23_"  style="overflow:visible;"/>
		</clipPath>
		<g class="st24">
			<g>
				<path id="mb3d0a3af09" class="st25" d="M130.5,442.6v8.4l8.1,2.3l8.1-1.1l8.1,0.6l8.1-2l8.1,1.9l8.1-1.4l8.1,0.1l8.1-0.2
					l8.1,0.9l8.1-0.5l8.1,1.1l8.1,1.8l8.1-2.2l8.1,0.1l8.1-0.4l8.1-0.8l8.1,0.8l8.1,1.1l8.1-1.4l8.1,0.1l8.1,1.1l8.1-1.5l8.1,0.7
					l8.1,1.9l8.1-2.2l8.1-0.5l8.1,1.5l8.1-0.8l8.1,1.3l8.1,1.6l8.1-0.2l8.1-1.8l8.1,2.1l8.1,0.1l8.1-0.6l8.1,3.9l8.1-1.6l8.1,1.5
					l8.1-0.8l8.1,2.1l8.1-0.1l8.1,2l8.1-1l8.1-0.4l8.1-1.8l8.1,2l8.1,1.6l8.1-3.3l8.1,2.9l8.1,0.8l8.1-4.2l8.1,0.8l8.1,1.4l8.1-0.3
					l8.1,0.8l8.1-2.1l8.1-0.6l8.1,1.2l8.1-2.5l8.1-1.7l8.1,3.2l8.1-5.4l8.1,0.4l8.1,0.2l8.1,1.2l8.1-1.7l8.1,3l8.1-1.7l8.1,1.8
					l8.1-1.4l8.1,2.8l8.1,0.3l8.1,2.3l8.1-0.1l8.1,0l8.1,0.9l8.1,0.3l8.1-3.2l8.1,6.2l8.1-4.6l8.1-0.6l8.1,1.6l8.1,4.2l8.1-4.3
					l8.1,0.4l8.1,2.1l8.1-0.7l8.1,0.1l8.1,1l8.1-2.4l8.1-1.2l8.1,2.2l8.1,1.7l8.1-0.6l8.1-1.2l8.1-1.6l8.1,0.3l8.1,0.2l8.1,1.7v-7.7
					l0,0l-8.1-1.9l-8.1-1.7l-8.1,0.2l-8.1,4.1l-8.1-0.3l-8.1-0.5l-8.1,0l-8.1-1l-8.1,0.5l-8.1,1.1l-8.1,0.1l-8.1-1.4l-8.1,0
					l-8.1,0.9l-8.1-0.5l-8.1-1.7l-8.1,1.8l-8.1-0.4l-8.1-1.1l-8.1-1.3l-8.1-0.2l-8.1,0.6l-8.1,1.3l-8.1-0.6l-8.1-3.1l-8.1,2.8
					l-8.1-1.9l-8.1-0.2l-8.1-0.5l-8.1-2.9l-8.1,1.7l-8.1-1.3l-8.1,0.8l-8.1-2.2l-8.1,0.8l-8.1,1.2l-8.1-0.7l-8.1,1.1l-8.1,2
					l-8.1,1.9l-8.1-1.3l-8.1,1.6l-8.1-0.7l-8.1,1.2l-8.1,0.4l-8.1-0.7l-8.1-0.4l-8.1-0.5l-8.1-1.3l-8.1,2l-8.1-1.7l-8.1,0.1
					l-8.1-0.2l-8.1-0.5l-8.1-0.3l-8.1,2l-8.1-0.1l-8.1-0.6l-8.1,0.9l-8.1-1.5l-8.1-0.2l-8.1-0.3l-8.1-0.2l-8.1,0.8l-8.1-0.4
					l-8.1-1.5l-8.1-0.1l-8.1-2l-8.1,0.5l-8.1-1.1l-8.1,0.3L349,447l-8.1-1.7l-8.1,2.5l-8.1-3.9l-8.1,3.2l-8.1,0l-8.1-1.3l-8.1,0.5
					l-8.1,2l-8.1-2.6l-8.1-0.4l-8.1,1.1l-8.1,0.3l-8.1-0.7l-8.1,0.4l-8.1-0.2l-8.1-0.7l-8.1,0.6l-8.1-1.7l-8.1,1.2l-8.1-0.5
					l-8.1-0.7l-8.1,0.7l-8.1,0.3l-8.1-0.4l-8.1,0.1l-8.1-1.7L130.5,442.6z"/>
			</g>
		</g>
	</g>
</g>
<g id="PolyCollection_14">
	<g>
		<defs>
			<rect id="SVGID_25_" x="130.5" y="113.5" width="809.1" height="354.8"/>
		</defs>
		<clipPath id="SVGID_26_">
			<use xlink:href="#SVGID_25_"  style="overflow:visible;"/>
		</clipPath>
		<g class="st26">
			<g>
				<path id="m6d71bc3563" class="st27" d="M130.5,441.4v5.7l8.1,2l8.1,1.3l8.1-1.4l8.1,1.9l8.1,1l8.1-0.6l8.1,1.6l8.1,0l8.1-3.1
					l8.1,1.7l8.1,1.7l8.1-0.7l8.1-2.1l8.1,2.6l8.1-0.5l8.1-2.5l8.1,1.4l8.1-0.2l8.1,0.7l8.1-0.6l8.1,0.1l8.1,0.2l8.1,0.9l8.1-1.2
					l8.1-1.1l8.1,2l8.1,1.8l8.1-1.8l8.1,2.6l8.1-3.1l8.1,1.3l8.1-0.5l8.1,1.7l8.1,2.3l8.1-2.9l8.1,2.4l8.1,1l8.1,0.4l8.1,0.8
					l8.1,0.9l8.1-1.1l8.1,2.1l8.1,1.1l8.1-2l8.1-0.6l8.1,2.5l8.1-4l8.1,2.5l8.1,0.5l8.1-0.8l8.1,3.8l8.1-3l8.1-0.6l8.1,0.9l8.1-0.8
					l8.1-1.7l8.1-0.4l8.1,0l8.1-0.6l8.1-0.6l8.1-0.1l8.1-1.7l8.1-1.8l8.1-2.5l8.1,1.3l8.1,1.4l8.1-0.1l8.1,1.3l8.1,0.5l8.1-0.5
					l8.1,1.8l8.1,1l8.1,1.7l8.1-1l8.1,0.3l8.1-1.1l8.1,1.8l8.1,0.2l8.1,0.2l8.1,1l8.1,5l8.1-6l8.1,2.4l8.1,0.8l8.1,3.8l8.1-2.8
					l8.1-3.2l8.1,2l8.1,0.1l8.1-2.6l8.1,4.8l8.1-1.4l8.1,1.4l8.1-2.3l8.1,0l8.1-1.5l8.1-1.8l8.1,3.1l8.1,1.8v-9.8l0,0l-8.1-3.5
					l-8.1-1.9l-8.1,2.1l-8.1,2.4l-8.1,1.6l-8.1-1.6l-8.1,0.6l-8.1-1.3l-8.1-0.2l-8.1,0.8l-8.1,2.8l-8.1-2.9l-8.1,1.3l-8.1-2
					l-8.1,0.7l-8.1-0.7l-8.1-0.2l-8.1-1.1l-8.1,2.7l-8.1-2.3l-8.1-1.6l-8.1,1.4l-8.1,0.2l-8.1-0.1l-8.1-1.5l-8.1,0.7l-8.1-0.6
					l-8.1-2.4l-8.1-1l-8.1,0.5l-8.1,1.3l-8.1-2.1l-8.1-1l-8.1,1.1l-8.1-0.7l-8.1-0.8l-8.1,1.4l-8.1-0.5l-8.1,0.6l-8.1,2.3l-8.1-0.2
					l-8.1,0.8l-8.1,1.9l-8.1-0.6l-8.1,1l-8.1-0.3l-8.1,1.9l-8.1-3.6l-8.1,1.8l-8.1,1.3l-8.1-2.3l-8.1,3.2l-8.1-0.8l-8.1-2.5
					l-8.1,1.2l-8.1-3.3l-8.1,3.4l-8.1,0.5l-8.1-1.1L446,450l-8.1,0.6l-8.1-1.3l-8.1-0.4l-8.1-0.8l-8.1-1.8l-8.1,0.7l-8.1-2.1
					l-8.1,1.9l-8.1-0.3l-8.1-1.7l-8.1,1.1l-8.1-1.6l-8.1,1.7l-8.1,0.7l-8.1,0.4l-8.1-2.6l-8.1,2.8l-8.1-2.1l-8.1,0.7l-8.1,0.1
					l-8.1,0.7l-8.1-1.8l-8.1,1.6l-8.1,0.8l-8.1-2.2l-8.1,0.7l-8.1-0.6l-8.1,1.4l-8.1,0.1l-8.1-0.2l-8.1-2.3l-8.1,0.8L179,445
					l-8.1-0.5l-8.1,1.2l-8.1-0.7l-8.1-0.9l-8.1,1.3L130.5,441.4z"/>
			</g>
		</g>
	</g>
</g>
<g id="line2d_13">
	<g>
		<defs>
			<rect id="SVGID_27_" x="130.5" y="113.5" width="809.1" height="354.8"/>
		</defs>
		<clipPath id="SVGID_28_">
			<use xlink:href="#SVGID_27_"  style="overflow:visible;"/>
		</clipPath>
		<path class="st28" d="M130.5,274.1l8.1,33.7l8.1-17l8.1,4.8l8.1,17.8L163.2-1 M178.5-1l0.5,469.3l8.1-236.1l8.1-90.6l8.1,54.7
			l8.1,272h8.1l8.1-263.3l8.1-25l8.1-10.5l8.1-55.8l8.1,54.4l8.1-28.9L268.1-1 M347.6-1l1.4,469.3L350.8-1 M371.2-1l2,184.6
			l8.1,185.6l8.1,99.1l8.1-245.3l8.1,15.2l8.1,9.7l8.1-2.9l8.1-3.1l8.1-4.1l8.1-5.3l8.1-5.6l8.1-5.7l8.1-3.7l8.1-2.8l8.1-0.5
			l8.1-0.1l8.1-1.2l8.1,0.8l8.1,0.2l8.1,1.5l8.1-0.5l8.1,1.8l8.1,2l8.1-1l8.1,0.7l8.1,0l8.1-1.8l8.1-1.5l8.1,1.3l8.1,0.8l8.1,0.5
			l8.1,0.7l8.1,0.1l8.1,1.8l8.1,0.3l8.1,3l8.1,2l8.1,1.4l8.1-1.6l8.1,2.4l8.1,0.8l8.1-1.7l8.1,1.1l8.1-0.5l8.1,1.1l8.1-1l8.1-2.8
			l8.1,0.6l8.1-3.3l8.1-1.4l8.1,1.2l8.1,3.4l8.1-2.5l8.1-1.9l8.1-3.4l8.1,0.6l8.1,0.5l8.1,3l8.1,5.7l8.1-3.1l8.1-4.6l8.1,2.8
			l8.1,1.1l8.1-0.7l8.1,2.4l8.1,4.4l8.1-1.3l8.1,17.9l8.1,1.5l8.1-23.2"/>
	</g>
</g>
<g id="line2d_14">
	<g>
		<defs>
			<rect id="SVGID_29_" x="130.5" y="113.5" width="809.1" height="354.8"/>
		</defs>
		<clipPath id="SVGID_30_">
			<use xlink:href="#SVGID_29_"  style="overflow:visible;"/>
		</clipPath>
		<path class="st29" d="M130.5,445.6l8.1,2.7l8.1,0.6l8.1-0.3l8.1,0.1l8.1,0.5l8.1-0.8l8.1,0l8.1,1l8.1-0.5l8.1,0.8l8.1,0l8.1-0.6
			l8.1-0.5l8.1,1.7l8.1-0.9l8.1-0.4l8.1,0.9l8.1-1.1l8.1,1l8.1-0.4l8.1,0.3l8.1,1.1l8.1,0.4l8.1-1.1l8.1,0.3l8.1-0.7l8.1-0.1l8.1,0
			l8.1,1.4l8.1-0.2l8.1-0.6l8.1,0.6l8.1,0.8l8.1,0.5l8.1,1.6l8.1,0.8l8.1,0.5l8.1,1.1l8.1-0.1l8.1,0.3l8.1,0.8l8.1,1l8.1-2l8.1,1
			l8.1-0.1l8.1,0.2l8.1-1.1l8.1,1.7l8.1,0.2l8.1-1.3l8.1-0.5l8.1,0.4l8.1-0.2l8.1-1.6l8.1,0.2l8.1-0.3l8.1,0.5l8.1-2l8.1-0.9
			l8.1,0.2l8.1-2l8.1-0.2l8.1,0.3l8.1-1.6l8.1,1.5l8.1,0.4l8.1,0.5l8.1,1.7l8.1-0.4l8.1,0.8l8.1,0.4l8.1,0.8l8.1-0.2l8.1-0.3
			l8.1,3.1l8.1-1.9l8.1-1l8.1,0.8l8.1,1.2l8.1,1.5l8.1-0.5l8.1-1l8.1,0.6l8.1,0.9l8.1-0.8l8.1,1.1l8.1-0.3l8.1,0.7l8.1-0.7l8.1-0.9
			l8.1,0.4l8.1-2.5l8.1,1.6l8.1,1.6l8.1-0.7l8.1-2.6l8.1-0.7l8.1,1.4l8.1,3.4"/>
	</g>
</g>
<g id="line2d_15">
	<g>
		<defs>
			<rect id="SVGID_31_" x="130.5" y="113.5" width="809.1" height="354.8"/>
		</defs>
		<clipPath id="SVGID_32_">
			<use xlink:href="#SVGID_31_"  style="overflow:visible;"/>
		</clipPath>
		<path class="st30" d="M130.5,446l8.1,2.5l8.1,0.4l8.1-0.4l8.1,0.5l8.1-0.8l8.1-0.3l8.1,0.9l8.1-1.1l8.1,1.1l8.1,0.5l8.1-1.2
			l8.1,1.1l8.1-0.2l8.1,0.1l8.1-0.5l8.1,1.3l8.1-1.1l8.1,1.1l8.1-1.1l8.1,1l8.1-0.2l8.1-0.2l8.1-0.6l8.1,0.8l8.1-0.6l8.1,0.2
			l8.1,1.1l8.1-1.7l8.1,1.7l8.1-0.9l8.1,1.4l8.1,0.3l8.1-0.1l8.1,0.4l8.1,0.8l8.1-0.4l8.1,0l8.1,0.8l8.1,0.6l8.1,0.8l8.1-1.5
			l8.1-0.4l8.1,1.3l8.1,0.6l8.1-0.4l8.1-2.5l8.1,3.6l8.1,0.1l8.1-2.2l8.1,1l8.1-1.7l8.1,1.8l8.1,0.4l8.1-1.2l8.1,1.5l8.1-1.2
			l8.1-2.3l8.1,0.1l8.1,1.4l8.1-1.6l8.1-0.4l8.1-1.4l8.1,0l8.1,1.7l8.1-2l8.1,0.3l8.1,0.5l8.1,1.5l8.1,0.7l8.1-1.2l8.1,1.6l8.1-0.8
			l8.1,1.9l8.1,0.3l8.1,1.3l8.1-1.4l8.1,0l8.1-0.7l8.1,1.3l8.1,0.3l8.1,1l8.1-0.7l8.1-1.3l8.1,0.5l8.1,1.3l8.1,0.1l8.1,1.1l8.1-0.3
			l8.1,1.3l8.1-2.7l8.1,1l8.1-0.9l8.1,1.4l8.1-0.7l8.1-0.4l8.1-1.5l8.1,1l8.1,0l8.1,2.1"/>
	</g>
</g>
<g id="line2d_16">
	<g>
		<defs>
			<rect id="SVGID_33_" x="130.5" y="113.5" width="809.1" height="354.8"/>
		</defs>
		<clipPath id="SVGID_34_">
			<use xlink:href="#SVGID_33_"  style="overflow:visible;"/>
		</clipPath>
		<path class="st31" d="M130.5,444.1l8.1,3.1l8.1-0.7l8.1,1.1l8.1,0.3l8.1,0.5l8.1-1.5l8.1,1l8.1,0.5l8.1-0.8l8.1,0.6l8.1,0.2
			l8.1-0.2l8.1-1.1l8.1,1.6l8.1-0.7l8.1,0.1l8.1,0.7l8.1-0.7l8.1,0.1l8.1-0.5l8.1,0.6l8.1,0l8.1-0.1l8.1-0.2l8.1,0.6l8.1-0.6
			l8.1,0.1l8.1,0.1l8.1-0.3l8.1,0.9l8.1,0.2l8.1,0.4l8.1,0.9l8.1,0.9l8.1,0.4l8.1-0.1l8.1,0.9l8.1,0.7l8.1,0.9l8.1-0.6l8.1,0.3
			l8.1,1.5l8.1-0.7l8.1-1.2l8.1,1.4l8.1,0.1l8.1-1.6l8.1,0.4l8.1,0.9l8.1-2l8.1,2.8l8.1-0.9l8.1,0l8.1-0.9l8.1-1l8.1-0.4l8.1-0.2
			l8.1,0.3l8.1-1.2l8.1-0.4l8.1-1.6l8.1,0.8l8.1-1l8.1,0.2l8.1-0.6l8.1,1l8.1,1.1l8.1,1l8.1-1.3l8.1,1.9l8.1-0.3l8.1-0.5l8.1,2.1
			l8.1,0.3l8.1,1l8.1,0l8.1-0.2l8.1,0.8l8.1,0.6l8.1-0.4l8.1-0.3l8.1,1.6l8.1,0.4l8.1-0.7l8.1,0.4l8.1-0.4l8.1,0.8l8.1-1.3l8.1,1.1
			l8.1-1.2l8.1,0.6l8.1,0.4l8.1-0.2l8.1,1.9l8.1-1.3l8.1-2.7l8.1-0.1l8.1,1.6l8.1,2.3"/>
	</g>
</g>
<g id="line2d_17">
	<g>
		<defs>
			<rect id="SVGID_35_" x="130.5" y="113.5" width="809.1" height="354.8"/>
		</defs>
		<clipPath id="SVGID_36_">
			<use xlink:href="#SVGID_35_"  style="overflow:visible;"/>
		</clipPath>
		<path class="st32" d="M130.5,445.4l8.1,1.5l8.1,0.3l8.1-0.5l8.1-0.2l8.1,0.5l8.1,0.7l8.1,0.1l8.1-0.1l8.1,0.5l8.1,0l8.1-0.1
			l8.1-0.3l8.1,0l8.1-0.5l8.1,0.7l8.1-0.1l8.1,0.8l8.1-0.2l8.1-0.8l8.1-0.2l8.1,0.6l8.1-0.9l8.1,1.1l8.1-0.7l8.1,0.8l8.1,0.7l8.1,0
			l8.1,0.3l8.1,1.8l8.1-0.1l8.1-0.2l8.1,0.5l8.1,1l8.1,0.7l8.1,0.4l8.1-0.1l8.1,1.7l8.1,0.6l8.1-0.3l8.1-0.5l8.1,1.3l8.1-1.1
			l8.1-0.8l8.1,1.3l8.1-0.3l8.1,0l8.1,0.3l8.1,0.1l8.1-0.2l8.1,1.2l8.1,0.3l8.1,0.6l8.1-1.4l8.1,1.6l8.1-2.2l8.1,1.2l8.1-0.4
			l8.1-1.3l8.1-0.6l8.1-0.7l8.1-1.7l8.1-0.5l8.1-1.1l8.1-0.8l8.1,1.9l8.1-0.2l8.1,0.2l8.1,0.3l8.1,1.2l8.1,1.7l8.1,0.1l8.1-0.3
			l8.1,0.6l8.1,1.7l8.1,1l8.1-0.2l8.1,0.1l8.1-0.2l8.1,0.7l8.1,1l8.1-0.2l8.1,0.6l8.1-1.1l8.1-0.3l8.1-1.3l8.1,1.2l8.1-0.3l8.1-1.7
			l8.1,1.7l8.1-0.4l8.1,2.8l8.1,0.4l8.1-1.8l8.1-0.1l8.1-0.2l8.1-1.4l8.1-0.6l8.1,0.2l8.1,3"/>
	</g>
</g>
<g id="line2d_18">
	<g>
		<defs>
			<rect id="SVGID_37_" x="130.5" y="113.5" width="809.1" height="354.8"/>
		</defs>
		<clipPath id="SVGID_38_">
			<use xlink:href="#SVGID_37_"  style="overflow:visible;"/>
		</clipPath>
		<path class="st33" d="M130.5,445.2l8.1,1.6l8.1,0.4l8.1-1.4l8.1,1.2l8.1-0.6l8.1,1l8.1-0.6l8.1,0.8l8.1-0.9l8.1,1.7l8.1-0.5
			l8.1-0.3l8.1-0.5l8.1,1l8.1-0.9l8.1,0.8l8.1-0.6l8.1,0.2l8.1-0.7l8.1,0.7l8.1,0.4l8.1,0.3l8.1-0.5l8.1-0.5l8.1,1.1l8.1-0.4
			l8.1-0.2l8.1,2.9l8.1-1.4l8.1,0.6l8.1,0.2l8.1,0.7l8.1,0.4l8.1-0.3l8.1,0.7l8.1,1.2l8.1,0.5l8.1,0.3l8.1,0.3l8.1-1l8.1,0.8
			l8.1-0.7l8.1,1.3l8.1,0.1l8.1-1.6l8.1,1.7l8.1-1.3l8.1,0.4l8.1-0.6l8.1,1.9l8.1,0l8.1-0.8l8.1-0.8l8.1,0.8l8.1-0.5l8.1-0.3
			l8.1,1.6l8.1-1.2l8.1-1.8l8.1-0.5l8.1-0.5l8.1-1.2l8.1,0.8l8.1-1.2l8.1,1l8.1,0.3l8.1,0.1l8.1-0.4l8.1,3l8.1,0.4l8.1-1.3l8.1,1.7
			l8.1,1.1l8.1-2.1l8.1,0.3l8.1,2.2l8.1-0.5l8.1-1.7l8.1,0.7l8.1-1.1l8.1,2.7l8.1-0.3l8.1,0.6l8.1-0.6l8.1,0.7l8.1-0.4l8.1,0.1
			l8.1,1.3l8.1-0.4l8.1-1.3l8.1,0.2l8.1,1.9l8.1-0.8l8.1-0.3l8.1,0.3l8.1-2.1l8.1,0.1l8.1-0.2l8.1,3.5"/>
	</g>
</g>
<g id="line2d_19">
	<g>
		<defs>
			<rect id="SVGID_39_" x="130.5" y="113.5" width="809.1" height="354.8"/>
		</defs>
		<clipPath id="SVGID_40_">
			<use xlink:href="#SVGID_39_"  style="overflow:visible;"/>
		</clipPath>
		<path class="st34" d="M130.5,444.4l8.1,2.8l8.1-0.1l8.1,0.1l8.1-0.7l8.1,0.7l8.1,0.4l8.1-0.8l8.1,1l8.1-0.4l8.1,0l8.1,0.3l8.1-1.5
			l8.1,0.6l8.1,0.7l8.1-0.6l8.1,0.1l8.1-0.1l8.1,1.2l8.1-0.6l8.1-1.1l8.1,1.6l8.1-0.5l8.1-1.2l8.1,1.2l8.1-0.3l8.1,1l8.1,0l8.1-0.3
			l8.1,1.7l8.1-0.4l8.1,0.2l8.1-0.5l8.1,0.9l8.1,0l8.1,1.8l8.1,0l8.1,0.5l8.1,0.9l8.1,0.9l8.1-0.5l8.1-2.8l8.1,1.4l8.1-0.7l8.1,1.2
			l8.1,0.8l8.1,0.3l8.1-1.5l8.1,0.3l8.1-0.3l8.1,0.2l8.1,0.8l8.1-0.3l8.1-0.4l8.1,0l8.1-0.7l8.1,0l8.1-1.1l8.1,0l8.1,0.5l8.1-1.9
			l8.1-0.7l8.1,0.2l8.1-0.2l8.1-1.9l8.1,1.6l8.1-0.4l8.1,0.9l8.1,2.3l8.1-0.3l8.1-0.4l8.1,1l8.1,0.3l8.1,0.4l8.1,1.2l8.1,1.1
			l8.1-0.2l8.1-1.3l8.1,0.4l8.1,0.3l8.1-1.6l8.1,1.7l8.1-0.5l8.1,1.9l8.1-1.8l8.1,1.3l8.1-0.4l8.1,1.3l8.1-2.1l8.1,0.8l8.1-1.7
			l8.1,2.1l8.1-2.2l8.1,2.7l8.1,1.1l8.1-2.6l8.1-1.1l8.1-1.1l8.1,3l8.1,1.4"/>
	</g>
</g>
<g id="line2d_20">
	<g>
		<defs>
			<rect id="SVGID_41_" x="130.5" y="113.5" width="809.1" height="354.8"/>
		</defs>
		<clipPath id="SVGID_42_">
			<use xlink:href="#SVGID_41_"  style="overflow:visible;"/>
		</clipPath>
		<path class="st35" d="M130.5,444.3l8.1,3l8.1,1.3l8.1-0.4l8.1,0.6l8.1-0.6l8.1-0.5l8.1,0l8.1,0.9l8.1,0.3l8.1-1l8.1,0.6l8.1-0.3
			l8.1,0.8l8.1-0.3l8.1,0l8.1-0.4l8.1,1l8.1-1.5l8.1,0.6l8.1-0.8l8.1,1.5l8.1-1.2l8.1,0l8.1,1.8l8.1,0l8.1-2.2l8.1,2l8.1-0.4
			l8.1,0.3l8.1-0.5l8.1,0l8.1,0.1l8.1,1l8.1,0.3l8.1-1.1l8.1,1l8.1,1.6l8.1-0.1l8.1,1.4l8.1,1.5l8.1-2.1l8.1,0.3l8.1,1.6l8.1-0.4
			l8.1,0l8.1-1.4l8.1,0.9l8.1,0.2l8.1-0.4l8.1,0.3l8.1-1.2l8.1,1.7l8.1-1.3l8.1,1.8l8.1,0.8l8.1-4l8.1-0.7l8.1,0.9l8.1-1.2l8.1-2
			l8.1,1l8.1-0.7l8.1-0.4l8.1,0.1l8.1-0.4l8.1,0.9l8.1,0.7l8.1,0.1l8.1,1.2l8.1,0l8.1-0.3l8.1-0.4l8.1,0.5l8.1-0.6l8.1,1.9l8.1-0.2
			l8.1,0.1l8.1-2.5l8.1,2.3l8.1,0.9l8.1-0.3l8.1-2l8.1,1.8l8.1,3.2l8.1,1l8.1,0.8l8.1-0.4l8.1-1.5l8.1-4.3l8.1-3.5l8.1,1.8l8.1,0.7
			l8.1,2.3l8.1-0.5l8.1,2.6l8.1-4.4l8.1-2.4l8.1-2.3l8.1,5.8"/>
	</g>
</g>
<g id="line2d_21">
	<g>
		<defs>
			<rect id="SVGID_43_" x="130.5" y="113.5" width="809.1" height="354.8"/>
		</defs>
		<clipPath id="SVGID_44_">
			<use xlink:href="#SVGID_43_"  style="overflow:visible;"/>
		</clipPath>
		<path class="st36" d="M130.5,446.3l8.1,2.3l8.1-1.9l8.1,0.3l8.1,0.3l8.1,0.3l8.1-0.7l8.1,0.6l8.1,0l8.1,0.4l8.1-0.7l8.1,1.1
			l8.1,0.4l8.1-0.5l8.1,0.4l8.1-0.7l8.1,0.2l8.1,1.3l8.1-1.8l8.1,0.6l8.1,0.3l8.1,0.1l8.1,0.5l8.1-1.2l8.1,1.4l8.1,0.5l8.1-0.5
			l8.1-0.7l8.1,0.3l8.1,0.7l8.1,0.3l8.1-0.3l8.1,0.9l8.1,0.5l8.1,0.8l8.1,1.4l8.1-0.8l8.1,1.1l8.1-1.3l8.1,0.3l8.1,0.3l8.1-0.2
			l8.1-0.3l8.1,1.4l8.1-0.5l8.1,0.1l8.1-0.3l8.1,1.3l8.1-1.7l8.1,1l8.1-0.9l8.1,0.8l8.1-0.8l8.1,1.3l8.1,0.1l8.1,0.9l8.1,0l8.1-2.1
			l8.1-1.5l8.1,0.9l8.1-0.9l8.1,1.4l8.1-2.9l8.1-0.4l8.1,0.6l8.1-0.1l8.1,0.1l8.1,0.8l8.1,1.1l8.1,0.7l8.1,0.6l8.1,0.8l8.1-0.6
			l8.1,0.9l8.1,0.1l8.1,1.3l8.1-1.6l8.1-0.8l8.1,3.3l8.1-0.7l8.1-1.2l8.1,1.3l8.1-0.6l8.1,0l8.1-1.4l8.1,2.1l8.1-1.7l8.1,1.7
			l8.1,0.9l8.1-0.4l8.1-0.6l8.1-0.2l8.1,0.4l8.1-1.2l8.1,0.7l8.1,0.4l8.1-4.1l8.1,1.4l8.1-1.2l8.1,4"/>
	</g>
</g>
<g id="line2d_22">
	<g>
		<defs>
			<rect id="SVGID_45_" x="130.5" y="113.5" width="809.1" height="354.8"/>
		</defs>
		<clipPath id="SVGID_46_">
			<use xlink:href="#SVGID_45_"  style="overflow:visible;"/>
		</clipPath>
		<path class="st37" d="M130.5,444.7l8.1,5.3l8.1,0.1l8.1-0.3l8.1,0.1l8.1-0.8l8.1,1.1l8.1,0.1l8.1-0.5l8.1,0.5l8.1-0.5l8.1,0.9
			l8.1-0.7l8.1,0.2l8.1,0.5l8.1-1.1l8.1,0.2l8.1,0.7l8.1,0.2l8.1-0.6l8.1,0.8l8.1,0.2l8.1-0.2l8.1-0.4l8.1-0.7l8.1,0.3l8.1,1.3
			l8.1-0.8l8.1,0.8l8.1-0.8l8.1,0l8.1,0.6l8.1,1l8.1-1.1l8.1,1.5l8.1,0.7l8.1,0l8.1,1.6l8.1,0.5l8.1,0.2l8.1-0.9l8.1,0.2l8.1,1.3
			l8.1-1.8l8.1,1.4l8.1-0.6l8.1-0.2l8.1-0.7l8.1,1.1l8.1-0.4l8.1-0.2l8.1-0.6l8.1,1.3l8.1,0l8.1-1.2l8.1,0l8.1-0.6l8.1,0.4l8.1,0.2
			l8.1-1.7l8.1,0.5l8.1-2.1l8.1-1l8.1-0.1l8.1,0.7l8.1-0.5l8.1,0.7l8.1,0.5l8.1,1.4l8.1,0.5l8.1-1l8.1,0.3l8.1,0.3l8.1,1.2l8.1,0.2
			l8.1-1l8.1,2l8.1-0.5l8.1,0.2l8.1-1.5l8.1,1.6l8.1,0.6l8.1,0l8.1-0.3l8.1,0.3l8.1,1.5l8.1,0.5l8.1-0.4l8.1-1.4l8.1-0.2l8.1-0.5
			l8.1,1.9l8.1-0.7l8.1-0.5l8.1,0.5l8.1-1.2l8.1-2.5l8.1-0.2l8.1,1.9l8.1,3.4"/>
	</g>
</g>
<g id="line2d_23">
	<g>
		<defs>
			<rect id="SVGID_47_" x="130.5" y="113.5" width="809.1" height="354.8"/>
		</defs>
		<clipPath id="SVGID_48_">
			<use xlink:href="#SVGID_47_"  style="overflow:visible;"/>
		</clipPath>
		<path class="st38" d="M130.5,448.6l8.1,0.1l8.1,1l8.1-0.7l8.1-0.2l8.1,1.6l8.1-0.5l8.1,0.2l8.1,0l8.1-0.4l8.1,0.7l8.1,0.9l8.1-1
			l8.1-1.1l8.1,1.9l8.1,0l8.1-0.5l8.1-0.2l8.1,1l8.1-0.7l8.1,0.4l8.1,0l8.1,0.4l8.1,0l8.1,0.1l8.1,0.1l8.1,1.2l8.1-1.3l8.1,1.1
			l8.1-0.9l8.1,0.1l8.1-0.3l8.1,0l8.1,2.2l8.1-0.5l8.1,1.8l8.1-0.6l8.1,1.5l8.1,0.8l8.1,2.4l8.1-0.3l8.1,1.4l8.1-0.7l8.1-0.9
			l8.1,0.3l8.1-1.1l8.1,1.4l8.1,0.3l8.1,0.5l8.1-1.6l8.1,0.2l8.1,1.1l8.1,0.3l8.1,0.2l8.1-1.5l8.1,0.4l8.1-1l8.1-2.4l8.1,0.1
			l8.1-0.2l8.1-2.2l8.1,0.1l8.1-0.9l8.1-1.2l8.1-0.5l8.1-0.2l8.1,0.8l8.1,1.3l8.1,0.6l8.1,1.3l8.1,0.5l8.1,0.4l8.1,0.3l8.1,0.4
			l8.1,1.7l8.1,0l8.1-0.5l8.1-0.6l8.1-0.6l8.1,0.5l8.1,2.5l8.1,0l8.1,0.7l8.1,1.6l8.1-0.5l8.1,0.4l8.1-0.3l8.1-0.7l8.1,0.9l8.1-1.3
			l8.1-1.9l8.1-0.2l8.1,2l8.1,0.2l8.1,1l8.1-0.3l8.1-5.4l8.1-0.2l8.1,0.8l8.1,8.7"/>
	</g>
</g>
<g id="line2d_24">
	<g>
		<defs>
			<rect id="SVGID_49_" x="130.5" y="113.5" width="809.1" height="354.8"/>
		</defs>
		<clipPath id="SVGID_50_">
			<use xlink:href="#SVGID_49_"  style="overflow:visible;"/>
		</clipPath>
		<path class="st39" d="M130.5,444.9l8.1,0.9l8.1,1.1l8.1-0.2l8.1,1.3l8.1-0.5l8.1,0.8l8.1-0.4l8.1,0.9l8.1-0.7l8.1,0.3l8.1-0.5
			l8.1,0.2l8.1,0.7l8.1-1.2l8.1,0.5l8.1-1.3l8.1,2.3l8.1-0.8l8.1,1.2l8.1-1.5l8.1,1l8.1-0.1l8.1-0.9l8.1,0.9l8.1,1.4l8.1-1.1
			l8.1,1.2l8.1,0.1l8.1-0.3l8.1,0.2l8.1,1.1l8.1,0.5l8.1-0.7l8.1,0.9l8.1,1.2l8.1,1.6l8.1-2l8.1,3.5l8.1-2.3l8.1,1.8l8.1-0.7
			l8.1-0.9l8.1-0.6l8.1,1.4l8.1-1.2l8.1,1.2l8.1,0.1l8.1,1.2l8.1-1.2l8.1,0.8l8.1,0.5l8.1-1l8.1-1l8.1,0.2l8.1,1.1l8.1-0.7l8.1-0.9
			l8.1-0.2l8.1-0.5l8.1,0.2l8.1-1.9l8.1-0.4l8.1,0.2l8.1-1.5l8.1,0.2l8.1,0.5l8.1,0.8l8.1,1.4l8.1,1.5l8.1-0.2l8.1-0.3l8.1,0.3
			l8.1,1.9l8.1-2.1l8.1,2.9l8.1-1l8.1-0.6l8.1-0.1l8.1,2l8.1-0.9l8.1-0.3l8.1,0.3l8.1,0.1l8.1,0.1l8.1-0.2l8.1,1.4l8.1-0.4l8.1-0.6
			l8.1,0.1l8.1-1l8.1,0.4l8.1,0.4l8.1-1.3l8.1,1.6l8.1-0.1l8.1-3.7l8.1-0.5l8.1,3.2l8.1,0.1"/>
	</g>
</g>
<g id="line2d_25">
	<g>
		<defs>
			<rect id="SVGID_51_" x="130.5" y="113.5" width="809.1" height="354.8"/>
		</defs>
		<clipPath id="SVGID_52_">
			<use xlink:href="#SVGID_51_"  style="overflow:visible;"/>
		</clipPath>
		<path class="st40" d="M130.5,446.8l8.1,1.6l8.1,0.3l8.1,0.2l8.1-0.8l8.1,0.8l8.1-1l8.1,0.4l8.1,0.2l8.1-0.2l8.1,0.6l8.1,0.2
			l8.1,1.3l8.1-1l8.1-0.1l8.1,0.1l8.1-0.6l8.1-0.2l8.1,0.8l8.1,0.6l8.1-1l8.1,0.3l8.1-0.1l8.1,0.3l8.1-0.6l8.1,0.9l8.1-1.5l8.1,1.6
			l8.1-0.8l8.1,0.5l8.1,1.3l8.1-0.4l8.1,0.1l8.1,1.1l8.1,0.8l8.1-0.1l8.1,1.5l8.1-0.7l8.1,0.9l8.1-0.3l8.1,1.8l8.1-0.5l8.1,1.3
			l8.1-0.5l8.1-1.2l8.1-0.8l8.1,1.3l8.1,0.9l8.1-1.7l8.1,2.3l8.1-0.6l8.1-1.4l8.1,0.7l8.1,0.9l8.1,0.2l8.1,0.2l8.1-1.6l8.1,0.1
			l8.1-0.2l8.1-0.6l8.1-1.8l8.1,0.6l8.1-3.2l8.1,0.5l8.1-0.5l8.1,0.2l8.1,0.2l8.1,1.1l8.1-0.2l8.1,0.1l8.1,0.7l8.1,1.6l8.1,0.2
			l8.1,2.1l8.1-1.4l8.1,1.5l8.1,0.7l8.1-0.5l8.1-1.9l8.1,3.2l8.1-1.7l8.1,0.2l8.1,1l8.1,1.2l8.1-1.3l8.1,0.4l8.1,0.6l8.1-0.3
			l8.1,0.7l8.1,0.5l8.1-1.7l8.1-0.8l8.1,1.6l8.1,0.8l8.1-0.1l8.1-0.4l8.1-2.8l8.1,0l8.1,0.9l8.1,1.8"/>
	</g>
</g>
<g id="line2d_26">
	<g>
		<defs>
			<rect id="SVGID_53_" x="130.5" y="113.5" width="809.1" height="354.8"/>
		</defs>
		<clipPath id="SVGID_54_">
			<use xlink:href="#SVGID_53_"  style="overflow:visible;"/>
		</clipPath>
		<path class="st41" d="M130.5,444.3l8.1,3l8.1,0l8.1-0.2l8.1,1.3l8.1-0.1l8.1-0.1l8.1,0.7l8.1-0.4l8.1-0.4l8.1,1l8.1,0.8l8.1-1.1
			l8.1-0.7l8.1,0.9l8.1,0.9l8.1-1.6l8.1-0.1l8.1,0.8l8.1,0l8.1-0.3l8.1-0.3l8.1,1.1l8.1-1l8.1,0.7l8.1-0.7l8.1,0.7l8.1,0l8.1-0.1
			l8.1,0.8l8.1-0.7l8.1,0.8l8.1-1.2l8.1,1.9l8.1,0.8l8.1-0.6l8.1,1.6l8.1,0.7l8.1,0.9l8.1,0.1l8.1,1.1l8.1,0l8.1,0.8l8.1-1.1
			l8.1,0.7l8.1-0.9l8.1,2.5l8.1-1.6l8.1-0.4l8.1,1.4l8.1-1.1l8.1,1l8.1,0.3l8.1-1.2l8.1,0.6l8.1-0.9l8.1-0.6l8.1-1.2l8.1-0.4
			l8.1-0.2l8.1-1.4l8.1-0.3l8.1-0.6l8.1-1.6l8.1-0.9l8.1,1l8.1,0.2l8.1,0.4l8.1,1.7l8.1-0.4l8.1-0.5l8.1,1.4l8.1,1.7l8.1,1.2
			l8.1-0.8l8.1,0.9l8.1-0.5l8.1,0.8l8.1-0.6l8.1,0.9l8.1,1.6l8.1,1.2l8.1-2.4l8.1,1.3l8.1,0.8l8.1,1.6l8.1-0.4l8.1-2.2l8.1,2.5
			l8.1-1.4l8.1-1.7l8.1,2.5l8.1,0l8.1,0.4l8.1-0.3l8.1-0.8l8.1-1.9l8.1-2l8.1,2.5l8.1,2.7"/>
	</g>
</g>
<g id="patch_3">
	<path class="st42" d="M130.5,468.3V113.5"/>
</g>
<g id="patch_4">
	<path class="st42" d="M939.6,468.3V113.5"/>
</g>
<g id="patch_5">
	<path class="st42" d="M130.5,468.3h809.1"/>
</g>
<g id="patch_6">
	<path class="st42" d="M130.5,113.5h809.1"/>
</g>
</svg>
