<?xml version="1.0" encoding="utf-8" standalone="no"?>
<!DOCTYPE svg PUBLIC "-//W3C//DTD SVG 1.1//EN"
  "http://www.w3.org/Graphics/SVG/1.1/DTD/svg11.dtd">
<!-- Created with matplotlib (https://matplotlib.org/) -->
<svg height="576pt" version="1.1" viewBox="0 0 1044 576" width="1044pt" xmlns="http://www.w3.org/2000/svg" xmlns:xlink="http://www.w3.org/1999/xlink">
 <defs>
  <style type="text/css">
*{stroke-linecap:butt;stroke-linejoin:round;}
  </style>
 </defs>
 <g id="figure_1">
  <g id="patch_1">
   <path d="M 0 576 
L 1044 576 
L 1044 0 
L 0 0 
z
" style="fill:#ffffff;"/>
  </g>
  <g id="axes_1">
   <g id="patch_2">
    <path d="M 130.5 468.288 
L 939.6 468.288 
L 939.6 113.472 
L 130.5 113.472 
z
" style="fill:#ffffff;"/>
   </g>
   <g id="matplotlib.axis_1">
    <g id="xtick_1">
     <g id="line2d_1">
      <defs>
       <path d="M 0 0 
L 0 3.5 
" id="ma46fad8a03" style="stroke:#000000;stroke-width:0.8;"/>
      </defs>
      <g>
       <use style="stroke:#000000;stroke-width:0.8;" x="130.5" xlink:href="#ma46fad8a03" y="468.288"/>
      </g>
     </g>
     <g id="text_1">
      <!-- 0 -->
      <defs>
       <path d="M 31.78125 66.40625 
Q 24.171875 66.40625 20.328125 58.90625 
Q 16.5 51.421875 16.5 36.375 
Q 16.5 21.390625 20.328125 13.890625 
Q 24.171875 6.390625 31.78125 6.390625 
Q 39.453125 6.390625 43.28125 13.890625 
Q 47.125 21.390625 47.125 36.375 
Q 47.125 51.421875 43.28125 58.90625 
Q 39.453125 66.40625 31.78125 66.40625 
z
M 31.78125 74.21875 
Q 44.046875 74.21875 50.515625 64.515625 
Q 56.984375 54.828125 56.984375 36.375 
Q 56.984375 17.96875 50.515625 8.265625 
Q 44.046875 -1.421875 31.78125 -1.421875 
Q 19.53125 -1.421875 13.0625 8.265625 
Q 6.59375 17.96875 6.59375 36.375 
Q 6.59375 54.828125 13.0625 64.515625 
Q 19.53125 74.21875 31.78125 74.21875 
z
" id="DejaVuSans-48"/>
      </defs>
      <g transform="translate(127.31875 482.886437)scale(0.1 -0.1)">
       <use xlink:href="#DejaVuSans-48"/>
      </g>
     </g>
    </g>
    <g id="xtick_2">
     <g id="line2d_2">
      <g>
       <use style="stroke:#000000;stroke-width:0.8;" x="292.32" xlink:href="#ma46fad8a03" y="468.288"/>
      </g>
     </g>
     <g id="text_2">
      <!-- 20 -->
      <defs>
       <path d="M 19.1875 8.296875 
L 53.609375 8.296875 
L 53.609375 0 
L 7.328125 0 
L 7.328125 8.296875 
Q 12.9375 14.109375 22.625 23.890625 
Q 32.328125 33.6875 34.8125 36.53125 
Q 39.546875 41.84375 41.421875 45.53125 
Q 43.3125 49.21875 43.3125 52.78125 
Q 43.3125 58.59375 39.234375 62.25 
Q 35.15625 65.921875 28.609375 65.921875 
Q 23.96875 65.921875 18.8125 64.3125 
Q 13.671875 62.703125 7.8125 59.421875 
L 7.8125 69.390625 
Q 13.765625 71.78125 18.9375 73 
Q 24.125 74.21875 28.421875 74.21875 
Q 39.75 74.21875 46.484375 68.546875 
Q 53.21875 62.890625 53.21875 53.421875 
Q 53.21875 48.921875 51.53125 44.890625 
Q 49.859375 40.875 45.40625 35.40625 
Q 44.1875 33.984375 37.640625 27.21875 
Q 31.109375 20.453125 19.1875 8.296875 
z
" id="DejaVuSans-50"/>
      </defs>
      <g transform="translate(285.9575 482.886437)scale(0.1 -0.1)">
       <use xlink:href="#DejaVuSans-50"/>
       <use x="63.623047" xlink:href="#DejaVuSans-48"/>
      </g>
     </g>
    </g>
    <g id="xtick_3">
     <g id="line2d_3">
      <g>
       <use style="stroke:#000000;stroke-width:0.8;" x="454.14" xlink:href="#ma46fad8a03" y="468.288"/>
      </g>
     </g>
     <g id="text_3">
      <!-- 40 -->
      <defs>
       <path d="M 37.796875 64.3125 
L 12.890625 25.390625 
L 37.796875 25.390625 
z
M 35.203125 72.90625 
L 47.609375 72.90625 
L 47.609375 25.390625 
L 58.015625 25.390625 
L 58.015625 17.1875 
L 47.609375 17.1875 
L 47.609375 0 
L 37.796875 0 
L 37.796875 17.1875 
L 4.890625 17.1875 
L 4.890625 26.703125 
z
" id="DejaVuSans-52"/>
      </defs>
      <g transform="translate(447.7775 482.886437)scale(0.1 -0.1)">
       <use xlink:href="#DejaVuSans-52"/>
       <use x="63.623047" xlink:href="#DejaVuSans-48"/>
      </g>
     </g>
    </g>
    <g id="xtick_4">
     <g id="line2d_4">
      <g>
       <use style="stroke:#000000;stroke-width:0.8;" x="615.96" xlink:href="#ma46fad8a03" y="468.288"/>
      </g>
     </g>
     <g id="text_4">
      <!-- 60 -->
      <defs>
       <path d="M 33.015625 40.375 
Q 26.375 40.375 22.484375 35.828125 
Q 18.609375 31.296875 18.609375 23.390625 
Q 18.609375 15.53125 22.484375 10.953125 
Q 26.375 6.390625 33.015625 6.390625 
Q 39.65625 6.390625 43.53125 10.953125 
Q 47.40625 15.53125 47.40625 23.390625 
Q 47.40625 31.296875 43.53125 35.828125 
Q 39.65625 40.375 33.015625 40.375 
z
M 52.59375 71.296875 
L 52.59375 62.3125 
Q 48.875 64.0625 45.09375 64.984375 
Q 41.3125 65.921875 37.59375 65.921875 
Q 27.828125 65.921875 22.671875 59.328125 
Q 17.53125 52.734375 16.796875 39.40625 
Q 19.671875 43.65625 24.015625 45.921875 
Q 28.375 48.1875 33.59375 48.1875 
Q 44.578125 48.1875 50.953125 41.515625 
Q 57.328125 34.859375 57.328125 23.390625 
Q 57.328125 12.15625 50.6875 5.359375 
Q 44.046875 -1.421875 33.015625 -1.421875 
Q 20.359375 -1.421875 13.671875 8.265625 
Q 6.984375 17.96875 6.984375 36.375 
Q 6.984375 53.65625 15.1875 63.9375 
Q 23.390625 74.21875 37.203125 74.21875 
Q 40.921875 74.21875 44.703125 73.484375 
Q 48.484375 72.75 52.59375 71.296875 
z
" id="DejaVuSans-54"/>
      </defs>
      <g transform="translate(609.5975 482.886437)scale(0.1 -0.1)">
       <use xlink:href="#DejaVuSans-54"/>
       <use x="63.623047" xlink:href="#DejaVuSans-48"/>
      </g>
     </g>
    </g>
    <g id="xtick_5">
     <g id="line2d_5">
      <g>
       <use style="stroke:#000000;stroke-width:0.8;" x="777.78" xlink:href="#ma46fad8a03" y="468.288"/>
      </g>
     </g>
     <g id="text_5">
      <!-- 80 -->
      <defs>
       <path d="M 31.78125 34.625 
Q 24.75 34.625 20.71875 30.859375 
Q 16.703125 27.09375 16.703125 20.515625 
Q 16.703125 13.921875 20.71875 10.15625 
Q 24.75 6.390625 31.78125 6.390625 
Q 38.8125 6.390625 42.859375 10.171875 
Q 46.921875 13.96875 46.921875 20.515625 
Q 46.921875 27.09375 42.890625 30.859375 
Q 38.875 34.625 31.78125 34.625 
z
M 21.921875 38.8125 
Q 15.578125 40.375 12.03125 44.71875 
Q 8.5 49.078125 8.5 55.328125 
Q 8.5 64.0625 14.71875 69.140625 
Q 20.953125 74.21875 31.78125 74.21875 
Q 42.671875 74.21875 48.875 69.140625 
Q 55.078125 64.0625 55.078125 55.328125 
Q 55.078125 49.078125 51.53125 44.71875 
Q 48 40.375 41.703125 38.8125 
Q 48.828125 37.15625 52.796875 32.3125 
Q 56.78125 27.484375 56.78125 20.515625 
Q 56.78125 9.90625 50.3125 4.234375 
Q 43.84375 -1.421875 31.78125 -1.421875 
Q 19.734375 -1.421875 13.25 4.234375 
Q 6.78125 9.90625 6.78125 20.515625 
Q 6.78125 27.484375 10.78125 32.3125 
Q 14.796875 37.15625 21.921875 38.8125 
z
M 18.3125 54.390625 
Q 18.3125 48.734375 21.84375 45.5625 
Q 25.390625 42.390625 31.78125 42.390625 
Q 38.140625 42.390625 41.71875 45.5625 
Q 45.3125 48.734375 45.3125 54.390625 
Q 45.3125 60.0625 41.71875 63.234375 
Q 38.140625 66.40625 31.78125 66.40625 
Q 25.390625 66.40625 21.84375 63.234375 
Q 18.3125 60.0625 18.3125 54.390625 
z
" id="DejaVuSans-56"/>
      </defs>
      <g transform="translate(771.4175 482.886437)scale(0.1 -0.1)">
       <use xlink:href="#DejaVuSans-56"/>
       <use x="63.623047" xlink:href="#DejaVuSans-48"/>
      </g>
     </g>
    </g>
    <g id="xtick_6">
     <g id="line2d_6">
      <g>
       <use style="stroke:#000000;stroke-width:0.8;" x="939.6" xlink:href="#ma46fad8a03" y="468.288"/>
      </g>
     </g>
     <g id="text_6">
      <!-- 100 -->
      <defs>
       <path d="M 12.40625 8.296875 
L 28.515625 8.296875 
L 28.515625 63.921875 
L 10.984375 60.40625 
L 10.984375 69.390625 
L 28.421875 72.90625 
L 38.28125 72.90625 
L 38.28125 8.296875 
L 54.390625 8.296875 
L 54.390625 0 
L 12.40625 0 
z
" id="DejaVuSans-49"/>
      </defs>
      <g transform="translate(930.05625 482.886437)scale(0.1 -0.1)">
       <use xlink:href="#DejaVuSans-49"/>
       <use x="63.623047" xlink:href="#DejaVuSans-48"/>
       <use x="127.246094" xlink:href="#DejaVuSans-48"/>
      </g>
     </g>
    </g>
    <g id="text_7">
     <!-- Shortage magnitude percentile -->
     <defs>
      <path d="M 53.515625 70.515625 
L 53.515625 60.890625 
Q 47.90625 63.578125 42.921875 64.890625 
Q 37.9375 66.21875 33.296875 66.21875 
Q 25.25 66.21875 20.875 63.09375 
Q 16.5 59.96875 16.5 54.203125 
Q 16.5 49.359375 19.40625 46.890625 
Q 22.3125 44.4375 30.421875 42.921875 
L 36.375 41.703125 
Q 47.40625 39.59375 52.65625 34.296875 
Q 57.90625 29 57.90625 20.125 
Q 57.90625 9.515625 50.796875 4.046875 
Q 43.703125 -1.421875 29.984375 -1.421875 
Q 24.8125 -1.421875 18.96875 -0.25 
Q 13.140625 0.921875 6.890625 3.21875 
L 6.890625 13.375 
Q 12.890625 10.015625 18.65625 8.296875 
Q 24.421875 6.59375 29.984375 6.59375 
Q 38.421875 6.59375 43.015625 9.90625 
Q 47.609375 13.234375 47.609375 19.390625 
Q 47.609375 24.75 44.3125 27.78125 
Q 41.015625 30.8125 33.5 32.328125 
L 27.484375 33.5 
Q 16.453125 35.6875 11.515625 40.375 
Q 6.59375 45.0625 6.59375 53.421875 
Q 6.59375 63.09375 13.40625 68.65625 
Q 20.21875 74.21875 32.171875 74.21875 
Q 37.3125 74.21875 42.625 73.28125 
Q 47.953125 72.359375 53.515625 70.515625 
z
" id="DejaVuSans-83"/>
      <path d="M 54.890625 33.015625 
L 54.890625 0 
L 45.90625 0 
L 45.90625 32.71875 
Q 45.90625 40.484375 42.875 44.328125 
Q 39.84375 48.1875 33.796875 48.1875 
Q 26.515625 48.1875 22.3125 43.546875 
Q 18.109375 38.921875 18.109375 30.90625 
L 18.109375 0 
L 9.078125 0 
L 9.078125 75.984375 
L 18.109375 75.984375 
L 18.109375 46.1875 
Q 21.34375 51.125 25.703125 53.5625 
Q 30.078125 56 35.796875 56 
Q 45.21875 56 50.046875 50.171875 
Q 54.890625 44.34375 54.890625 33.015625 
z
" id="DejaVuSans-104"/>
      <path d="M 30.609375 48.390625 
Q 23.390625 48.390625 19.1875 42.75 
Q 14.984375 37.109375 14.984375 27.296875 
Q 14.984375 17.484375 19.15625 11.84375 
Q 23.34375 6.203125 30.609375 6.203125 
Q 37.796875 6.203125 41.984375 11.859375 
Q 46.1875 17.53125 46.1875 27.296875 
Q 46.1875 37.015625 41.984375 42.703125 
Q 37.796875 48.390625 30.609375 48.390625 
z
M 30.609375 56 
Q 42.328125 56 49.015625 48.375 
Q 55.71875 40.765625 55.71875 27.296875 
Q 55.71875 13.875 49.015625 6.21875 
Q 42.328125 -1.421875 30.609375 -1.421875 
Q 18.84375 -1.421875 12.171875 6.21875 
Q 5.515625 13.875 5.515625 27.296875 
Q 5.515625 40.765625 12.171875 48.375 
Q 18.84375 56 30.609375 56 
z
" id="DejaVuSans-111"/>
      <path d="M 41.109375 46.296875 
Q 39.59375 47.171875 37.8125 47.578125 
Q 36.03125 48 33.890625 48 
Q 26.265625 48 22.1875 43.046875 
Q 18.109375 38.09375 18.109375 28.8125 
L 18.109375 0 
L 9.078125 0 
L 9.078125 54.6875 
L 18.109375 54.6875 
L 18.109375 46.1875 
Q 20.953125 51.171875 25.484375 53.578125 
Q 30.03125 56 36.53125 56 
Q 37.453125 56 38.578125 55.875 
Q 39.703125 55.765625 41.0625 55.515625 
z
" id="DejaVuSans-114"/>
      <path d="M 18.3125 70.21875 
L 18.3125 54.6875 
L 36.8125 54.6875 
L 36.8125 47.703125 
L 18.3125 47.703125 
L 18.3125 18.015625 
Q 18.3125 11.328125 20.140625 9.421875 
Q 21.96875 7.515625 27.59375 7.515625 
L 36.8125 7.515625 
L 36.8125 0 
L 27.59375 0 
Q 17.1875 0 13.234375 3.875 
Q 9.28125 7.765625 9.28125 18.015625 
L 9.28125 47.703125 
L 2.6875 47.703125 
L 2.6875 54.6875 
L 9.28125 54.6875 
L 9.28125 70.21875 
z
" id="DejaVuSans-116"/>
      <path d="M 34.28125 27.484375 
Q 23.390625 27.484375 19.1875 25 
Q 14.984375 22.515625 14.984375 16.5 
Q 14.984375 11.71875 18.140625 8.90625 
Q 21.296875 6.109375 26.703125 6.109375 
Q 34.1875 6.109375 38.703125 11.40625 
Q 43.21875 16.703125 43.21875 25.484375 
L 43.21875 27.484375 
z
M 52.203125 31.203125 
L 52.203125 0 
L 43.21875 0 
L 43.21875 8.296875 
Q 40.140625 3.328125 35.546875 0.953125 
Q 30.953125 -1.421875 24.3125 -1.421875 
Q 15.921875 -1.421875 10.953125 3.296875 
Q 6 8.015625 6 15.921875 
Q 6 25.140625 12.171875 29.828125 
Q 18.359375 34.515625 30.609375 34.515625 
L 43.21875 34.515625 
L 43.21875 35.40625 
Q 43.21875 41.609375 39.140625 45 
Q 35.0625 48.390625 27.6875 48.390625 
Q 23 48.390625 18.546875 47.265625 
Q 14.109375 46.140625 10.015625 43.890625 
L 10.015625 52.203125 
Q 14.9375 54.109375 19.578125 55.046875 
Q 24.21875 56 28.609375 56 
Q 40.484375 56 46.34375 49.84375 
Q 52.203125 43.703125 52.203125 31.203125 
z
" id="DejaVuSans-97"/>
      <path d="M 45.40625 27.984375 
Q 45.40625 37.75 41.375 43.109375 
Q 37.359375 48.484375 30.078125 48.484375 
Q 22.859375 48.484375 18.828125 43.109375 
Q 14.796875 37.75 14.796875 27.984375 
Q 14.796875 18.265625 18.828125 12.890625 
Q 22.859375 7.515625 30.078125 7.515625 
Q 37.359375 7.515625 41.375 12.890625 
Q 45.40625 18.265625 45.40625 27.984375 
z
M 54.390625 6.78125 
Q 54.390625 -7.171875 48.1875 -13.984375 
Q 42 -20.796875 29.203125 -20.796875 
Q 24.46875 -20.796875 20.265625 -20.09375 
Q 16.0625 -19.390625 12.109375 -17.921875 
L 12.109375 -9.1875 
Q 16.0625 -11.328125 19.921875 -12.34375 
Q 23.78125 -13.375 27.78125 -13.375 
Q 36.625 -13.375 41.015625 -8.765625 
Q 45.40625 -4.15625 45.40625 5.171875 
L 45.40625 9.625 
Q 42.625 4.78125 38.28125 2.390625 
Q 33.9375 0 27.875 0 
Q 17.828125 0 11.671875 7.65625 
Q 5.515625 15.328125 5.515625 27.984375 
Q 5.515625 40.671875 11.671875 48.328125 
Q 17.828125 56 27.875 56 
Q 33.9375 56 38.28125 53.609375 
Q 42.625 51.21875 45.40625 46.390625 
L 45.40625 54.6875 
L 54.390625 54.6875 
z
" id="DejaVuSans-103"/>
      <path d="M 56.203125 29.59375 
L 56.203125 25.203125 
L 14.890625 25.203125 
Q 15.484375 15.921875 20.484375 11.0625 
Q 25.484375 6.203125 34.421875 6.203125 
Q 39.59375 6.203125 44.453125 7.46875 
Q 49.3125 8.734375 54.109375 11.28125 
L 54.109375 2.78125 
Q 49.265625 0.734375 44.1875 -0.34375 
Q 39.109375 -1.421875 33.890625 -1.421875 
Q 20.796875 -1.421875 13.15625 6.1875 
Q 5.515625 13.8125 5.515625 26.8125 
Q 5.515625 40.234375 12.765625 48.109375 
Q 20.015625 56 32.328125 56 
Q 43.359375 56 49.78125 48.890625 
Q 56.203125 41.796875 56.203125 29.59375 
z
M 47.21875 32.234375 
Q 47.125 39.59375 43.09375 43.984375 
Q 39.0625 48.390625 32.421875 48.390625 
Q 24.90625 48.390625 20.390625 44.140625 
Q 15.875 39.890625 15.1875 32.171875 
z
" id="DejaVuSans-101"/>
      <path id="DejaVuSans-32"/>
      <path d="M 52 44.1875 
Q 55.375 50.25 60.0625 53.125 
Q 64.75 56 71.09375 56 
Q 79.640625 56 84.28125 50.015625 
Q 88.921875 44.046875 88.921875 33.015625 
L 88.921875 0 
L 79.890625 0 
L 79.890625 32.71875 
Q 79.890625 40.578125 77.09375 44.375 
Q 74.3125 48.1875 68.609375 48.1875 
Q 61.625 48.1875 57.5625 43.546875 
Q 53.515625 38.921875 53.515625 30.90625 
L 53.515625 0 
L 44.484375 0 
L 44.484375 32.71875 
Q 44.484375 40.625 41.703125 44.40625 
Q 38.921875 48.1875 33.109375 48.1875 
Q 26.21875 48.1875 22.15625 43.53125 
Q 18.109375 38.875 18.109375 30.90625 
L 18.109375 0 
L 9.078125 0 
L 9.078125 54.6875 
L 18.109375 54.6875 
L 18.109375 46.1875 
Q 21.1875 51.21875 25.484375 53.609375 
Q 29.78125 56 35.6875 56 
Q 41.65625 56 45.828125 52.96875 
Q 50 49.953125 52 44.1875 
z
" id="DejaVuSans-109"/>
      <path d="M 54.890625 33.015625 
L 54.890625 0 
L 45.90625 0 
L 45.90625 32.71875 
Q 45.90625 40.484375 42.875 44.328125 
Q 39.84375 48.1875 33.796875 48.1875 
Q 26.515625 48.1875 22.3125 43.546875 
Q 18.109375 38.921875 18.109375 30.90625 
L 18.109375 0 
L 9.078125 0 
L 9.078125 54.6875 
L 18.109375 54.6875 
L 18.109375 46.1875 
Q 21.34375 51.125 25.703125 53.5625 
Q 30.078125 56 35.796875 56 
Q 45.21875 56 50.046875 50.171875 
Q 54.890625 44.34375 54.890625 33.015625 
z
" id="DejaVuSans-110"/>
      <path d="M 9.421875 54.6875 
L 18.40625 54.6875 
L 18.40625 0 
L 9.421875 0 
z
M 9.421875 75.984375 
L 18.40625 75.984375 
L 18.40625 64.59375 
L 9.421875 64.59375 
z
" id="DejaVuSans-105"/>
      <path d="M 8.5 21.578125 
L 8.5 54.6875 
L 17.484375 54.6875 
L 17.484375 21.921875 
Q 17.484375 14.15625 20.5 10.265625 
Q 23.53125 6.390625 29.59375 6.390625 
Q 36.859375 6.390625 41.078125 11.03125 
Q 45.3125 15.671875 45.3125 23.6875 
L 45.3125 54.6875 
L 54.296875 54.6875 
L 54.296875 0 
L 45.3125 0 
L 45.3125 8.40625 
Q 42.046875 3.421875 37.71875 1 
Q 33.40625 -1.421875 27.6875 -1.421875 
Q 18.265625 -1.421875 13.375 4.4375 
Q 8.5 10.296875 8.5 21.578125 
z
M 31.109375 56 
z
" id="DejaVuSans-117"/>
      <path d="M 45.40625 46.390625 
L 45.40625 75.984375 
L 54.390625 75.984375 
L 54.390625 0 
L 45.40625 0 
L 45.40625 8.203125 
Q 42.578125 3.328125 38.25 0.953125 
Q 33.9375 -1.421875 27.875 -1.421875 
Q 17.96875 -1.421875 11.734375 6.484375 
Q 5.515625 14.40625 5.515625 27.296875 
Q 5.515625 40.1875 11.734375 48.09375 
Q 17.96875 56 27.875 56 
Q 33.9375 56 38.25 53.625 
Q 42.578125 51.265625 45.40625 46.390625 
z
M 14.796875 27.296875 
Q 14.796875 17.390625 18.875 11.75 
Q 22.953125 6.109375 30.078125 6.109375 
Q 37.203125 6.109375 41.296875 11.75 
Q 45.40625 17.390625 45.40625 27.296875 
Q 45.40625 37.203125 41.296875 42.84375 
Q 37.203125 48.484375 30.078125 48.484375 
Q 22.953125 48.484375 18.875 42.84375 
Q 14.796875 37.203125 14.796875 27.296875 
z
" id="DejaVuSans-100"/>
      <path d="M 18.109375 8.203125 
L 18.109375 -20.796875 
L 9.078125 -20.796875 
L 9.078125 54.6875 
L 18.109375 54.6875 
L 18.109375 46.390625 
Q 20.953125 51.265625 25.265625 53.625 
Q 29.59375 56 35.59375 56 
Q 45.5625 56 51.78125 48.09375 
Q 58.015625 40.1875 58.015625 27.296875 
Q 58.015625 14.40625 51.78125 6.484375 
Q 45.5625 -1.421875 35.59375 -1.421875 
Q 29.59375 -1.421875 25.265625 0.953125 
Q 20.953125 3.328125 18.109375 8.203125 
z
M 48.6875 27.296875 
Q 48.6875 37.203125 44.609375 42.84375 
Q 40.53125 48.484375 33.40625 48.484375 
Q 26.265625 48.484375 22.1875 42.84375 
Q 18.109375 37.203125 18.109375 27.296875 
Q 18.109375 17.390625 22.1875 11.75 
Q 26.265625 6.109375 33.40625 6.109375 
Q 40.53125 6.109375 44.609375 11.75 
Q 48.6875 17.390625 48.6875 27.296875 
z
" id="DejaVuSans-112"/>
      <path d="M 48.78125 52.59375 
L 48.78125 44.1875 
Q 44.96875 46.296875 41.140625 47.34375 
Q 37.3125 48.390625 33.40625 48.390625 
Q 24.65625 48.390625 19.8125 42.84375 
Q 14.984375 37.3125 14.984375 27.296875 
Q 14.984375 17.28125 19.8125 11.734375 
Q 24.65625 6.203125 33.40625 6.203125 
Q 37.3125 6.203125 41.140625 7.25 
Q 44.96875 8.296875 48.78125 10.40625 
L 48.78125 2.09375 
Q 45.015625 0.34375 40.984375 -0.53125 
Q 36.96875 -1.421875 32.421875 -1.421875 
Q 20.0625 -1.421875 12.78125 6.34375 
Q 5.515625 14.109375 5.515625 27.296875 
Q 5.515625 40.671875 12.859375 48.328125 
Q 20.21875 56 33.015625 56 
Q 37.15625 56 41.109375 55.140625 
Q 45.0625 54.296875 48.78125 52.59375 
z
" id="DejaVuSans-99"/>
      <path d="M 9.421875 75.984375 
L 18.40625 75.984375 
L 18.40625 0 
L 9.421875 0 
z
" id="DejaVuSans-108"/>
     </defs>
     <g transform="translate(410.13625 501.123625)scale(0.16 -0.16)">
      <use xlink:href="#DejaVuSans-83"/>
      <use x="63.476562" xlink:href="#DejaVuSans-104"/>
      <use x="126.855469" xlink:href="#DejaVuSans-111"/>
      <use x="188.037109" xlink:href="#DejaVuSans-114"/>
      <use x="229.150391" xlink:href="#DejaVuSans-116"/>
      <use x="268.359375" xlink:href="#DejaVuSans-97"/>
      <use x="329.638672" xlink:href="#DejaVuSans-103"/>
      <use x="393.115234" xlink:href="#DejaVuSans-101"/>
      <use x="454.638672" xlink:href="#DejaVuSans-32"/>
      <use x="486.425781" xlink:href="#DejaVuSans-109"/>
      <use x="583.837891" xlink:href="#DejaVuSans-97"/>
      <use x="645.117188" xlink:href="#DejaVuSans-103"/>
      <use x="708.59375" xlink:href="#DejaVuSans-110"/>
      <use x="771.972656" xlink:href="#DejaVuSans-105"/>
      <use x="799.755859" xlink:href="#DejaVuSans-116"/>
      <use x="838.964844" xlink:href="#DejaVuSans-117"/>
      <use x="902.34375" xlink:href="#DejaVuSans-100"/>
      <use x="965.820312" xlink:href="#DejaVuSans-101"/>
      <use x="1027.34375" xlink:href="#DejaVuSans-32"/>
      <use x="1059.130859" xlink:href="#DejaVuSans-112"/>
      <use x="1122.607422" xlink:href="#DejaVuSans-101"/>
      <use x="1184.130859" xlink:href="#DejaVuSans-114"/>
      <use x="1225.212891" xlink:href="#DejaVuSans-99"/>
      <use x="1280.193359" xlink:href="#DejaVuSans-101"/>
      <use x="1341.716797" xlink:href="#DejaVuSans-110"/>
      <use x="1405.095703" xlink:href="#DejaVuSans-116"/>
      <use x="1444.304688" xlink:href="#DejaVuSans-105"/>
      <use x="1472.087891" xlink:href="#DejaVuSans-108"/>
      <use x="1499.871094" xlink:href="#DejaVuSans-101"/>
     </g>
    </g>
   </g>
   <g id="matplotlib.axis_2">
    <g id="ytick_1">
     <g id="line2d_7">
      <defs>
       <path d="M 0 0 
L -3.5 0 
" id="m50e6e8956b" style="stroke:#000000;stroke-width:0.8;"/>
      </defs>
      <g>
       <use style="stroke:#000000;stroke-width:0.8;" x="130.5" xlink:href="#m50e6e8956b" y="468.288"/>
      </g>
     </g>
     <g id="text_8">
      <!-- 0.0 -->
      <defs>
       <path d="M 10.6875 12.40625 
L 21 12.40625 
L 21 0 
L 10.6875 0 
z
" id="DejaVuSans-46"/>
      </defs>
      <g transform="translate(107.596875 472.087219)scale(0.1 -0.1)">
       <use xlink:href="#DejaVuSans-48"/>
       <use x="63.623047" xlink:href="#DejaVuSans-46"/>
       <use x="95.410156" xlink:href="#DejaVuSans-48"/>
      </g>
     </g>
    </g>
    <g id="ytick_2">
     <g id="line2d_8">
      <g>
       <use style="stroke:#000000;stroke-width:0.8;" x="130.5" xlink:href="#m50e6e8956b" y="397.3248"/>
      </g>
     </g>
     <g id="text_9">
      <!-- 0.2 -->
      <g transform="translate(107.596875 401.124019)scale(0.1 -0.1)">
       <use xlink:href="#DejaVuSans-48"/>
       <use x="63.623047" xlink:href="#DejaVuSans-46"/>
       <use x="95.410156" xlink:href="#DejaVuSans-50"/>
      </g>
     </g>
    </g>
    <g id="ytick_3">
     <g id="line2d_9">
      <g>
       <use style="stroke:#000000;stroke-width:0.8;" x="130.5" xlink:href="#m50e6e8956b" y="326.3616"/>
      </g>
     </g>
     <g id="text_10">
      <!-- 0.4 -->
      <g transform="translate(107.596875 330.160819)scale(0.1 -0.1)">
       <use xlink:href="#DejaVuSans-48"/>
       <use x="63.623047" xlink:href="#DejaVuSans-46"/>
       <use x="95.410156" xlink:href="#DejaVuSans-52"/>
      </g>
     </g>
    </g>
    <g id="ytick_4">
     <g id="line2d_10">
      <g>
       <use style="stroke:#000000;stroke-width:0.8;" x="130.5" xlink:href="#m50e6e8956b" y="255.3984"/>
      </g>
     </g>
     <g id="text_11">
      <!-- 0.6 -->
      <g transform="translate(107.596875 259.197619)scale(0.1 -0.1)">
       <use xlink:href="#DejaVuSans-48"/>
       <use x="63.623047" xlink:href="#DejaVuSans-46"/>
       <use x="95.410156" xlink:href="#DejaVuSans-54"/>
      </g>
     </g>
    </g>
    <g id="ytick_5">
     <g id="line2d_11">
      <g>
       <use style="stroke:#000000;stroke-width:0.8;" x="130.5" xlink:href="#m50e6e8956b" y="184.4352"/>
      </g>
     </g>
     <g id="text_12">
      <!-- 0.8 -->
      <g transform="translate(107.596875 188.234419)scale(0.1 -0.1)">
       <use xlink:href="#DejaVuSans-48"/>
       <use x="63.623047" xlink:href="#DejaVuSans-46"/>
       <use x="95.410156" xlink:href="#DejaVuSans-56"/>
      </g>
     </g>
    </g>
    <g id="ytick_6">
     <g id="line2d_12">
      <g>
       <use style="stroke:#000000;stroke-width:0.8;" x="130.5" xlink:href="#m50e6e8956b" y="113.472"/>
      </g>
     </g>
     <g id="text_13">
      <!-- 1.0 -->
      <g transform="translate(107.596875 117.271219)scale(0.1 -0.1)">
       <use xlink:href="#DejaVuSans-49"/>
       <use x="63.623047" xlink:href="#DejaVuSans-46"/>
       <use x="95.410156" xlink:href="#DejaVuSans-48"/>
      </g>
     </g>
    </g>
    <g id="text_14">
     <!-- Variance explained -->
     <defs>
      <path d="M 28.609375 0 
L 0.78125 72.90625 
L 11.078125 72.90625 
L 34.1875 11.53125 
L 57.328125 72.90625 
L 67.578125 72.90625 
L 39.796875 0 
z
" id="DejaVuSans-86"/>
      <path d="M 54.890625 54.6875 
L 35.109375 28.078125 
L 55.90625 0 
L 45.3125 0 
L 29.390625 21.484375 
L 13.484375 0 
L 2.875 0 
L 24.125 28.609375 
L 4.6875 54.6875 
L 15.28125 54.6875 
L 29.78125 35.203125 
L 44.28125 54.6875 
z
" id="DejaVuSans-120"/>
     </defs>
     <g transform="translate(100.269375 367.7475)rotate(-90)scale(0.16 -0.16)">
      <use xlink:href="#DejaVuSans-86"/>
      <use x="68.298828" xlink:href="#DejaVuSans-97"/>
      <use x="129.578125" xlink:href="#DejaVuSans-114"/>
      <use x="170.691406" xlink:href="#DejaVuSans-105"/>
      <use x="198.474609" xlink:href="#DejaVuSans-97"/>
      <use x="259.753906" xlink:href="#DejaVuSans-110"/>
      <use x="323.132812" xlink:href="#DejaVuSans-99"/>
      <use x="378.113281" xlink:href="#DejaVuSans-101"/>
      <use x="439.636719" xlink:href="#DejaVuSans-32"/>
      <use x="471.423828" xlink:href="#DejaVuSans-101"/>
      <use x="532.931641" xlink:href="#DejaVuSans-120"/>
      <use x="592.111328" xlink:href="#DejaVuSans-112"/>
      <use x="655.587891" xlink:href="#DejaVuSans-108"/>
      <use x="683.371094" xlink:href="#DejaVuSans-97"/>
      <use x="744.650391" xlink:href="#DejaVuSans-105"/>
      <use x="772.433594" xlink:href="#DejaVuSans-110"/>
      <use x="835.8125" xlink:href="#DejaVuSans-101"/>
      <use x="897.335938" xlink:href="#DejaVuSans-100"/>
     </g>
    </g>
   </g>
   <g id="line2d_13">
    <path clip-path="url(#p07fd4e8b78)" d="M 187.137 468.195637 
L 195.228 468.195637 
L 203.319 468.11563 
L 211.41 468.021697 
L 219.501 467.837908 
L 227.592 467.607926 
L 235.683 467.430054 
L 243.774 467.168845 
L 251.865 467.023917 
L 259.956 466.950022 
L 268.047 466.809722 
L 276.138 466.645359 
L 284.229 466.24151 
L 292.32 466.061891 
L 300.411 465.66979 
L 308.502 465.111585 
L 316.593 464.603381 
L 324.684 463.822873 
L 332.775 463.287357 
L 340.866 462.956742 
L 348.957 462.474523 
L 357.048 461.921729 
L 365.139 461.275038 
L 373.23 460.548663 
L 381.321 459.687581 
L 389.412 458.679765 
L 397.503 457.931381 
L 405.594 457.287805 
L 413.685 456.641499 
L 421.776 456.04818 
L 429.867 455.345088 
L 437.958 454.689993 
L 446.049 454.032287 
L 454.14 453.241871 
L 462.231 452.495252 
L 470.322 451.668761 
L 478.413 450.595761 
L 486.504 449.965845 
L 494.595 449.359192 
L 502.686 448.808415 
L 510.777 448.174091 
L 518.868 447.848384 
L 526.959 447.485648 
L 535.05 447.051305 
L 543.141 446.996569 
L 551.232 446.690177 
L 559.323 446.259005 
L 567.414 445.931737 
L 575.505 445.800032 
L 583.596 445.657784 
L 591.687 445.343992 
L 599.778 445.108923 
L 607.869 444.898887 
L 615.96 444.752805 
L 624.051 444.527812 
L 632.142 444.426366 
L 640.233 444.35687 
L 648.324 444.049006 
L 656.415 443.87968 
L 664.506 443.905775 
L 672.597 444.251541 
L 680.688 444.602856 
L 688.779 445.259495 
L 696.87 445.762517 
L 704.961 445.996861 
L 713.052 446.382708 
L 721.143 446.575476 
L 729.234 446.604097 
L 737.325 446.155264 
L 745.416 445.461322 
L 753.507 444.687012 
L 761.598 444.024906 
L 769.689 443.443079 
L 777.78 442.775988 
L 785.871 442.15942 
L 793.962 441.753245 
L 802.053 441.598194 
L 810.144 441.441957 
L 818.235 441.392465 
L 826.326 441.356951 
L 834.417 441.365975 
L 842.508 441.454614 
L 850.599 441.583137 
L 858.69 441.840018 
L 866.781 442.208643 
L 874.872 442.788776 
L 882.963 443.786383 
L 891.054 445.085565 
L 899.145 446.51661 
L 907.236 448.139597 
L 915.327 449.610425 
L 923.418 451.646233 
L 931.509 454.124326 
" style="fill:none;stroke:#f18670;stroke-linecap:square;stroke-width:2;"/>
   </g>
   <g id="line2d_14">
    <path clip-path="url(#p07fd4e8b78)" d="M 187.137 468.277408 
L 195.228 468.277408 
L 203.319 468.268233 
L 211.41 468.255993 
L 219.501 468.210716 
L 227.592 468.138169 
L 235.683 468.094166 
L 243.774 468.089848 
L 251.865 468.137317 
L 259.956 468.132362 
L 268.047 468.080672 
L 276.138 468.034831 
L 284.229 467.97189 
L 292.32 467.923876 
L 300.411 467.836785 
L 308.502 467.927704 
L 316.593 468.027209 
L 324.684 468.085642 
L 332.775 468.10591 
L 340.866 468.100051 
L 348.957 468.053611 
L 357.048 467.981926 
L 365.139 467.928677 
L 373.23 467.913863 
L 381.321 467.92227 
L 389.412 467.876603 
L 397.503 467.840934 
L 405.594 467.872234 
L 413.685 467.906108 
L 421.776 467.933975 
L 429.867 468.002398 
L 437.958 468.03127 
L 446.049 468.029481 
L 454.14 468.022194 
L 462.231 467.995984 
L 470.322 467.984645 
L 478.413 468.008912 
L 486.504 468.051065 
L 494.595 468.062816 
L 502.686 468.088867 
L 510.777 468.076741 
L 518.868 468.064643 
L 526.959 468.027783 
L 535.05 468.011815 
L 543.141 468.048242 
L 551.232 468.084941 
L 559.323 468.09737 
L 567.414 468.121909 
L 575.505 468.095058 
L 583.596 468.086261 
L 591.687 468.095538 
L 599.778 468.086293 
L 607.869 468.091966 
L 615.96 468.099885 
L 624.051 468.076607 
L 632.142 468.08237 
L 640.233 468.111624 
L 648.324 468.113671 
L 656.415 468.104017 
L 664.506 468.119032 
L 672.597 468.159398 
L 680.688 468.183241 
L 688.779 468.197676 
L 696.87 468.21776 
L 704.961 468.237731 
L 713.052 468.256448 
L 721.143 468.26357 
L 729.234 468.277466 
L 737.325 468.283654 
L 745.416 468.284628 
L 753.507 468.284152 
L 761.598 468.285233 
L 769.689 468.285523 
L 777.78 468.287505 
L 785.871 468.287999 
L 793.962 468.287992 
L 802.053 468.287799 
L 810.144 468.287345 
L 818.235 468.287633 
L 826.326 468.287988 
L 834.417 468.287938 
L 842.508 468.287891 
L 850.599 468.286901 
L 858.69 468.284156 
L 866.781 468.284005 
L 874.872 468.284441 
L 882.963 468.282384 
L 891.054 468.277137 
L 899.145 468.252438 
L 907.236 468.235583 
L 915.327 468.213174 
L 923.418 468.167588 
L 931.509 468.149938 
" style="fill:none;stroke:#e24d3f;stroke-linecap:square;stroke-width:2;"/>
   </g>
   <g id="line2d_15">
    <path clip-path="url(#p07fd4e8b78)" d="M 187.137 468.196537 
L 195.228 468.196537 
L 203.319 468.117309 
L 211.41 468.026401 
L 219.501 467.875303 
L 227.592 467.809306 
L 235.683 467.805087 
L 243.774 467.629937 
L 251.865 467.538974 
L 259.956 467.628195 
L 268.047 467.622471 
L 276.138 467.551652 
L 284.229 467.440479 
L 292.32 467.435446 
L 300.411 467.305269 
L 308.502 467.167771 
L 316.593 467.079306 
L 324.684 466.75797 
L 332.775 466.658091 
L 340.866 466.515052 
L 348.957 466.300974 
L 357.048 466.096692 
L 365.139 465.900889 
L 373.23 465.5196 
L 381.321 465.061494 
L 389.412 464.845909 
L 397.503 464.706478 
L 405.594 464.435047 
L 413.685 464.233337 
L 421.776 464.205275 
L 429.867 464.073483 
L 437.958 464.014217 
L 446.049 464.151093 
L 454.14 464.287483 
L 462.231 464.45374 
L 470.322 464.648946 
L 478.413 464.672993 
L 486.504 464.781194 
L 494.595 464.816655 
L 502.686 465.05652 
L 510.777 465.095592 
L 518.868 464.855476 
L 526.959 464.87941 
L 535.05 464.794225 
L 543.141 464.693872 
L 551.232 464.783542 
L 559.323 464.887364 
L 567.414 464.988419 
L 575.505 465.120603 
L 583.596 465.112385 
L 591.687 465.246157 
L 599.778 465.283379 
L 607.869 465.273677 
L 615.96 465.19267 
L 624.051 465.085143 
L 632.142 465.099365 
L 640.233 465.11032 
L 648.324 465.013172 
L 656.415 464.860653 
L 664.506 464.617629 
L 672.597 464.45007 
L 680.688 464.471992 
L 688.779 464.638661 
L 696.87 464.732243 
L 704.961 464.855473 
L 713.052 464.970076 
L 721.143 465.006693 
L 729.234 465.176214 
L 737.325 465.231853 
L 745.416 465.139812 
L 753.507 465.138369 
L 761.598 465.169847 
L 769.689 465.151504 
L 777.78 465.129919 
L 785.871 465.124436 
L 793.962 465.211713 
L 802.053 465.272657 
L 810.144 465.274036 
L 818.235 465.275939 
L 826.326 465.250038 
L 834.417 465.26895 
L 842.508 465.294803 
L 850.599 465.281961 
L 858.69 465.314212 
L 866.781 465.309542 
L 874.872 465.269859 
L 882.963 465.244263 
L 891.054 465.19156 
L 899.145 465.304475 
L 907.236 465.434498 
L 915.327 465.655919 
L 923.418 465.988947 
L 931.509 466.276457 
" style="fill:none;stroke:#cf233e;stroke-linecap:square;stroke-width:2;"/>
   </g>
   <g id="line2d_16">
    <path clip-path="url(#p07fd4e8b78)" d="M 187.137 468.283377 
L 195.228 468.283377 
L 203.319 468.279373 
L 211.41 468.274569 
L 219.501 468.263825 
L 227.592 468.242341 
L 235.683 468.227214 
L 243.774 468.239328 
L 251.865 468.233232 
L 259.956 468.245778 
L 268.047 468.263886 
L 276.138 468.266229 
L 284.229 468.255269 
L 292.32 468.246479 
L 300.411 468.21906 
L 308.502 468.263348 
L 316.593 468.283519 
L 324.684 468.287545 
L 332.775 468.281629 
L 340.866 468.242634 
L 348.957 468.192077 
L 357.048 468.216886 
L 365.139 468.24027 
L 373.23 468.233607 
L 381.321 468.247503 
L 389.412 468.269121 
L 397.503 468.276773 
L 405.594 468.275144 
L 413.685 468.273617 
L 421.776 468.271716 
L 429.867 468.268275 
L 437.958 468.26889 
L 446.049 468.274752 
L 454.14 468.284589 
L 462.231 468.28773 
L 470.322 468.287999 
L 478.413 468.28695 
L 486.504 468.287906 
L 494.595 468.283106 
L 502.686 468.274163 
L 510.777 468.272291 
L 518.868 468.25946 
L 526.959 468.241479 
L 535.05 468.221751 
L 543.141 468.196163 
L 551.232 468.182575 
L 559.323 468.145688 
L 567.414 468.131373 
L 575.505 468.130642 
L 583.596 468.13871 
L 591.687 468.159368 
L 599.778 468.17059 
L 607.869 468.183202 
L 615.96 468.206572 
L 624.051 468.208197 
L 632.142 468.197266 
L 640.233 468.190458 
L 648.324 468.190539 
L 656.415 468.205037 
L 664.506 468.218829 
L 672.597 468.239618 
L 680.688 468.251217 
L 688.779 468.261598 
L 696.87 468.269885 
L 704.961 468.268942 
L 713.052 468.264881 
L 721.143 468.264854 
L 729.234 468.266414 
L 737.325 468.26437 
L 745.416 468.268302 
L 753.507 468.261385 
L 761.598 468.250162 
L 769.689 468.237134 
L 777.78 468.227546 
L 785.871 468.21869 
L 793.962 468.202546 
L 802.053 468.180448 
L 810.144 468.166187 
L 818.235 468.148444 
L 826.326 468.129817 
L 834.417 468.129559 
L 842.508 468.130526 
L 850.599 468.121414 
L 858.69 468.106006 
L 866.781 468.098936 
L 874.872 468.109802 
L 882.963 468.111664 
L 891.054 468.126906 
L 899.145 468.121818 
L 907.236 468.114188 
L 915.327 468.10452 
L 923.418 468.031615 
L 931.509 468.00868 
" style="fill:none;stroke:#681e33;stroke-linecap:square;stroke-width:2;"/>
   </g>
   <g id="line2d_17">
    <path clip-path="url(#p07fd4e8b78)" d="M 187.137 468.209066 
L 195.228 468.209066 
L 203.319 468.140691 
L 211.41 468.05855 
L 219.501 467.873172 
L 227.592 467.731679 
L 235.683 467.748817 
L 243.774 467.640264 
L 251.865 467.562736 
L 259.956 467.616352 
L 268.047 467.548835 
L 276.138 467.440894 
L 284.229 467.108379 
L 292.32 467.079195 
L 300.411 466.991787 
L 308.502 466.96784 
L 316.593 466.956785 
L 324.684 466.855469 
L 332.775 466.846688 
L 340.866 466.832488 
L 348.957 466.720956 
L 357.048 466.56755 
L 365.139 466.478892 
L 373.23 466.314632 
L 381.321 466.165272 
L 389.412 465.974534 
L 397.503 465.899592 
L 405.594 465.957053 
L 413.685 465.972515 
L 421.776 465.87023 
L 429.867 465.76299 
L 437.958 465.808322 
L 446.049 465.727772 
L 454.14 465.432412 
L 462.231 465.198931 
L 470.322 465.107189 
L 478.413 465.04206 
L 486.504 465.008647 
L 494.595 464.830816 
L 502.686 464.787582 
L 510.777 464.608363 
L 518.868 464.435572 
L 526.959 464.339108 
L 535.05 464.300647 
L 543.141 464.368542 
L 551.232 464.550493 
L 559.323 464.726234 
L 567.414 464.850457 
L 575.505 464.884347 
L 583.596 464.907898 
L 591.687 464.981335 
L 599.778 464.982994 
L 607.869 465.114101 
L 615.96 465.22606 
L 624.051 465.25122 
L 632.142 465.394318 
L 640.233 465.622191 
L 648.324 465.709123 
L 656.415 465.738838 
L 664.506 465.743844 
L 672.597 465.715892 
L 680.688 465.746965 
L 688.779 465.770997 
L 696.87 465.795736 
L 704.961 465.814916 
L 713.052 465.772771 
L 721.143 465.754353 
L 729.234 465.816995 
L 737.325 465.732569 
L 745.416 465.636444 
L 753.507 465.558457 
L 761.598 465.500974 
L 769.689 465.43751 
L 777.78 465.445874 
L 785.871 465.425992 
L 793.962 465.412665 
L 802.053 465.381543 
L 810.144 465.395338 
L 818.235 465.448435 
L 826.326 465.521487 
L 834.417 465.576358 
L 842.508 465.676388 
L 850.599 465.792743 
L 858.69 465.960769 
L 866.781 466.170058 
L 874.872 466.358007 
L 882.963 466.52516 
L 891.054 466.702146 
L 899.145 466.853114 
L 907.236 466.948134 
L 915.327 467.125434 
L 923.418 467.225426 
L 931.509 467.396078 
" style="fill:none;stroke:#676572;stroke-linecap:square;stroke-width:2;"/>
   </g>
   <g id="line2d_18">
    <path clip-path="url(#p07fd4e8b78)" d="M 187.137 468.244464 
L 195.228 468.244464 
L 203.319 468.206752 
L 211.41 468.161838 
L 219.501 468.065592 
L 227.592 467.93293 
L 235.683 467.8744 
L 243.774 467.81535 
L 251.865 467.781254 
L 259.956 467.73095 
L 268.047 467.64495 
L 276.138 467.585056 
L 284.229 467.399437 
L 292.32 467.242318 
L 300.411 467.068624 
L 308.502 466.888812 
L 316.593 466.610346 
L 324.684 466.26439 
L 332.775 465.77153 
L 340.866 465.347382 
L 348.957 464.629709 
L 357.048 463.943442 
L 365.139 463.2266 
L 373.23 462.394868 
L 381.321 461.454669 
L 389.412 460.334145 
L 397.503 459.015358 
L 405.594 457.748532 
L 413.685 456.492146 
L 421.776 455.238589 
L 429.867 453.694391 
L 437.958 451.982833 
L 446.049 450.175748 
L 454.14 448.254886 
L 462.231 446.439601 
L 470.322 444.865545 
L 478.413 442.930177 
L 486.504 440.997748 
L 494.595 439.394633 
L 502.686 437.72567 
L 510.777 435.974033 
L 518.868 434.00328 
L 526.959 432.086523 
L 535.05 430.659866 
L 543.141 429.057076 
L 551.232 426.772985 
L 559.323 424.511431 
L 567.414 422.400677 
L 575.505 420.29196 
L 583.596 418.493684 
L 591.687 416.210365 
L 599.778 414.127248 
L 607.869 411.933014 
L 615.96 409.624349 
L 624.051 407.147428 
L 632.142 404.581996 
L 640.233 402.258748 
L 648.324 400.044087 
L 656.415 398.065206 
L 664.506 396.1537 
L 672.597 393.496795 
L 680.688 391.176073 
L 688.779 388.727036 
L 696.87 386.031229 
L 704.961 383.165774 
L 713.052 380.984193 
L 721.143 379.199069 
L 729.234 377.626166 
L 737.325 376.666998 
L 745.416 376.623609 
L 753.507 375.972803 
L 761.598 375.052874 
L 769.689 373.604388 
L 777.78 371.632033 
L 785.871 369.258607 
L 793.962 366.502676 
L 802.053 363.660785 
L 810.144 360.652502 
L 818.235 357.324172 
L 826.326 353.261631 
L 834.417 349.058833 
L 842.508 344.350005 
L 850.599 339.163268 
L 858.69 333.350491 
L 866.781 327.314348 
L 874.872 321.424504 
L 882.963 314.711605 
L 891.054 307.526233 
L 899.145 300.118524 
L 907.236 293.021109 
L 915.327 285.598007 
L 923.418 277.622453 
L 931.509 268.515832 
" style="fill:none;stroke:#f3be22;stroke-linecap:square;stroke-width:2;"/>
   </g>
   <g id="line2d_19">
    <path clip-path="url(#p07fd4e8b78)" d="M 187.137 468.184591 
L 195.228 468.184591 
L 203.319 468.095014 
L 211.41 467.995232 
L 219.501 467.866488 
L 227.592 467.839844 
L 235.683 467.811885 
L 243.774 467.555996 
L 251.865 467.368784 
L 259.956 467.431031 
L 268.047 467.471775 
L 276.138 467.432376 
L 284.229 467.343143 
L 292.32 467.3317 
L 300.411 467.102016 
L 308.502 466.810865 
L 316.593 466.556283 
L 324.684 466.162528 
L 332.775 465.803011 
L 340.866 465.461521 
L 348.957 464.943468 
L 357.048 464.874609 
L 365.139 464.509898 
L 373.23 463.766327 
L 381.321 463.136464 
L 389.412 462.90042 
L 397.503 462.500745 
L 405.594 462.087675 
L 413.685 461.736118 
L 421.776 461.544282 
L 429.867 461.274112 
L 437.958 460.871528 
L 446.049 460.432432 
L 454.14 459.838713 
L 462.231 459.390674 
L 470.322 459.36035 
L 478.413 459.231719 
L 486.504 458.965449 
L 494.595 458.985981 
L 502.686 458.867949 
L 510.777 458.987181 
L 518.868 459.207202 
L 526.959 459.565326 
L 535.05 460.130387 
L 543.141 460.679413 
L 551.232 461.149281 
L 559.323 461.599421 
L 567.414 461.661541 
L 575.505 461.85903 
L 583.596 462.105619 
L 591.687 462.432888 
L 599.778 462.622044 
L 607.869 462.754669 
L 615.96 462.943251 
L 624.051 463.230194 
L 632.142 463.555949 
L 640.233 463.764913 
L 648.324 463.863598 
L 656.415 464.045828 
L 664.506 464.337513 
L 672.597 464.568107 
L 680.688 464.820505 
L 688.779 465.092614 
L 696.87 465.268157 
L 704.961 465.441501 
L 713.052 465.57708 
L 721.143 465.660098 
L 729.234 465.689476 
L 737.325 465.7367 
L 745.416 465.738501 
L 753.507 465.733102 
L 761.598 465.76099 
L 769.689 465.792674 
L 777.78 465.860797 
L 785.871 465.941946 
L 793.962 466.016248 
L 802.053 466.026203 
L 810.144 466.104229 
L 818.235 466.157211 
L 826.326 466.227551 
L 834.417 466.264399 
L 842.508 466.291632 
L 850.599 466.345347 
L 858.69 466.402447 
L 866.781 466.454612 
L 874.872 466.570973 
L 882.963 466.661224 
L 891.054 466.805671 
L 899.145 467.043564 
L 907.236 467.27437 
L 915.327 467.470687 
L 923.418 467.745189 
L 931.509 467.93036 
" style="fill:none;stroke:#59deba;stroke-linecap:square;stroke-width:2;"/>
   </g>
   <g id="line2d_20">
    <path clip-path="url(#p07fd4e8b78)" d="M 187.137 468.203186 
L 195.228 468.203186 
L 203.319 468.129718 
L 211.41 468.041582 
L 219.501 467.844298 
L 227.592 467.593061 
L 235.683 467.446255 
L 243.774 467.185674 
L 251.865 466.960325 
L 259.956 466.810983 
L 268.047 466.608486 
L 276.138 466.400625 
L 284.229 465.911029 
L 292.32 465.576801 
L 300.411 465.314684 
L 308.502 464.874918 
L 316.593 464.383031 
L 324.684 463.756543 
L 332.775 463.056445 
L 340.866 462.513576 
L 348.957 462.122141 
L 357.048 461.644171 
L 365.139 461.192376 
L 373.23 460.51905 
L 381.321 459.785575 
L 389.412 458.756513 
L 397.503 457.426095 
L 405.594 456.185357 
L 413.685 455.004242 
L 421.776 453.72103 
L 429.867 452.431859 
L 437.958 451.150587 
L 446.049 449.85439 
L 454.14 448.616462 
L 462.231 447.349935 
L 470.322 446.09653 
L 478.413 444.891759 
L 486.504 443.795667 
L 494.595 443.131471 
L 502.686 442.688089 
L 510.777 442.292501 
L 518.868 441.977084 
L 526.959 442.169161 
L 535.05 442.371862 
L 543.141 442.741032 
L 551.232 442.813105 
L 559.323 442.828217 
L 567.414 442.792475 
L 575.505 442.227475 
L 583.596 441.934127 
L 591.687 441.67285 
L 599.778 441.572538 
L 607.869 441.188784 
L 615.96 440.73838 
L 624.051 440.33708 
L 632.142 439.718653 
L 640.233 439.198201 
L 648.324 439.064497 
L 656.415 438.970641 
L 664.506 438.671811 
L 672.597 438.598982 
L 680.688 438.830981 
L 688.779 438.943266 
L 696.87 439.169716 
L 704.961 439.295026 
L 713.052 439.269746 
L 721.143 438.789736 
L 729.234 438.287847 
L 737.325 437.665888 
L 745.416 436.508867 
L 753.507 435.440321 
L 761.598 434.247682 
L 769.689 433.274303 
L 777.78 432.430475 
L 785.871 431.774346 
L 793.962 431.076887 
L 802.053 430.650115 
L 810.144 430.354298 
L 818.235 430.156291 
L 826.326 430.10565 
L 834.417 430.284781 
L 842.508 430.605031 
L 850.599 431.078785 
L 858.69 431.881733 
L 866.781 433.073769 
L 874.872 434.337202 
L 882.963 435.606962 
L 891.054 437.225792 
L 899.145 439.185513 
L 907.236 440.958966 
L 915.327 443.11015 
L 923.418 444.923901 
L 931.509 447.272471 
" style="fill:none;stroke:#14015c;stroke-linecap:square;stroke-width:2;"/>
   </g>
   <g id="line2d_21">
    <path clip-path="url(#p07fd4e8b78)" d="M 187.137 468.284069 
L 195.228 468.284069 
L 203.319 468.280665 
L 211.41 468.276112 
L 219.501 468.259131 
L 227.592 468.216959 
L 235.683 468.169861 
L 243.774 468.151036 
L 251.865 468.150103 
L 259.956 468.152623 
L 268.047 468.129571 
L 276.138 468.086375 
L 284.229 467.861931 
L 292.32 467.692967 
L 300.411 467.539526 
L 308.502 467.460138 
L 316.593 467.347326 
L 324.684 467.172528 
L 332.775 467.149719 
L 340.866 467.157319 
L 348.957 467.118339 
L 357.048 467.269747 
L 365.139 467.23004 
L 373.23 467.203116 
L 381.321 467.305862 
L 389.412 467.390218 
L 397.503 467.348466 
L 405.594 467.161866 
L 413.685 467.098247 
L 421.776 467.076701 
L 429.867 467.145192 
L 437.958 467.189725 
L 446.049 467.178811 
L 454.14 467.137528 
L 462.231 467.050696 
L 470.322 467.030713 
L 478.413 467.177139 
L 486.504 467.321149 
L 494.595 467.266483 
L 502.686 467.22739 
L 510.777 467.210115 
L 518.868 467.223987 
L 526.959 467.324576 
L 535.05 467.300946 
L 543.141 467.297234 
L 551.232 467.322401 
L 559.323 467.257349 
L 567.414 467.180395 
L 575.505 467.006267 
L 583.596 466.876159 
L 591.687 466.786913 
L 599.778 466.684208 
L 607.869 466.58261 
L 615.96 466.455041 
L 624.051 466.30923 
L 632.142 466.216333 
L 640.233 466.225928 
L 648.324 466.289505 
L 656.415 466.412397 
L 664.506 466.538319 
L 672.597 466.577764 
L 680.688 466.596326 
L 688.779 466.647714 
L 696.87 466.672565 
L 704.961 466.761254 
L 713.052 466.840101 
L 721.143 466.849364 
L 729.234 467.01548 
L 737.325 467.096464 
L 745.416 467.083676 
L 753.507 467.112407 
L 761.598 467.093347 
L 769.689 467.049002 
L 777.78 467.030016 
L 785.871 467.031149 
L 793.962 466.984452 
L 802.053 466.904686 
L 810.144 466.776083 
L 818.235 466.657345 
L 826.326 466.579865 
L 834.417 466.507232 
L 842.508 466.372406 
L 850.599 466.232435 
L 858.69 466.11109 
L 866.781 465.97924 
L 874.872 465.865734 
L 882.963 465.811054 
L 891.054 465.746986 
L 899.145 465.844834 
L 907.236 465.815663 
L 915.327 465.962524 
L 923.418 466.144632 
L 931.509 466.274519 
" style="fill:none;stroke:#daf8a3;stroke-linecap:square;stroke-width:2;"/>
   </g>
   <g id="line2d_22">
    <path clip-path="url(#p07fd4e8b78)" d="M 187.137 468.246143 
L 195.228 468.246143 
L 203.319 468.209885 
L 211.41 468.169559 
L 219.501 468.118318 
L 227.592 468.057741 
L 235.683 468.026444 
L 243.774 468.059771 
L 251.865 468.174906 
L 259.956 468.208876 
L 268.047 468.206817 
L 276.138 468.203298 
L 284.229 468.27455 
L 292.32 468.287916 
L 300.411 468.28443 
L 308.502 468.270317 
L 316.593 468.254857 
L 324.684 468.266523 
L 332.775 468.245169 
L 340.866 468.241975 
L 348.957 468.240258 
L 357.048 468.215007 
L 365.139 468.182557 
L 373.23 468.16718 
L 381.321 468.172141 
L 389.412 468.115773 
L 397.503 468.008163 
L 405.594 467.965385 
L 413.685 467.937965 
L 421.776 467.930761 
L 429.867 467.902187 
L 437.958 467.860409 
L 446.049 467.877728 
L 454.14 467.928837 
L 462.231 467.922005 
L 470.322 467.925275 
L 478.413 467.976498 
L 486.504 468.011543 
L 494.595 467.97225 
L 502.686 467.950856 
L 510.777 467.926636 
L 518.868 467.899834 
L 526.959 467.861513 
L 535.05 467.735748 
L 543.141 467.586284 
L 551.232 467.540242 
L 559.323 467.354397 
L 567.414 467.228585 
L 575.505 467.220133 
L 583.596 467.216588 
L 591.687 467.250249 
L 599.778 467.230511 
L 607.869 467.235041 
L 615.96 467.260542 
L 624.051 467.300599 
L 632.142 467.350273 
L 640.233 467.372556 
L 648.324 467.411181 
L 656.415 467.462614 
L 664.506 467.526356 
L 672.597 467.581679 
L 680.688 467.643686 
L 688.779 467.705298 
L 696.87 467.788755 
L 704.961 467.843092 
L 713.052 467.884921 
L 721.143 467.912353 
L 729.234 467.934505 
L 737.325 467.925349 
L 745.416 467.866623 
L 753.507 467.827692 
L 761.598 467.773784 
L 769.689 467.729671 
L 777.78 467.700477 
L 785.871 467.64751 
L 793.962 467.613335 
L 802.053 467.5706 
L 810.144 467.53204 
L 818.235 467.492573 
L 826.326 467.453099 
L 834.417 467.439502 
L 842.508 467.466068 
L 850.599 467.487429 
L 858.69 467.477023 
L 866.781 467.480334 
L 874.872 467.554478 
L 882.963 467.58078 
L 891.054 467.635287 
L 899.145 467.792996 
L 907.236 467.888556 
L 915.327 467.965915 
L 923.418 468.076238 
L 931.509 468.167878 
" style="fill:none;stroke:#0b7a0a;stroke-linecap:square;stroke-width:2;"/>
   </g>
   <g id="line2d_23">
    <path clip-path="url(#p07fd4e8b78)" d="M 187.137 468.198307 
L 195.228 468.198307 
L 203.319 468.120611 
L 211.41 468.035343 
L 219.501 467.940972 
L 227.592 467.913286 
L 235.683 467.926198 
L 243.774 467.89175 
L 251.865 467.902542 
L 259.956 467.968126 
L 268.047 468.050111 
L 276.138 468.123901 
L 284.229 468.23909 
L 292.32 468.264582 
L 300.411 468.274561 
L 308.502 468.277054 
L 316.593 468.287855 
L 324.684 468.274635 
L 332.775 468.255531 
L 340.866 468.25316 
L 348.957 468.215656 
L 357.048 468.234107 
L 365.139 468.239568 
L 373.23 468.245833 
L 381.321 468.276183 
L 389.412 468.265787 
L 397.503 468.260906 
L 405.594 468.247997 
L 413.685 468.242009 
L 421.776 468.248599 
L 429.867 468.269092 
L 437.958 468.287979 
L 446.049 468.279572 
L 454.14 468.277711 
L 462.231 468.276386 
L 470.322 468.274833 
L 478.413 468.270808 
L 486.504 468.25513 
L 494.595 468.257844 
L 502.686 468.259486 
L 510.777 468.267434 
L 518.868 468.271877 
L 526.959 468.287154 
L 535.05 468.287992 
L 543.141 468.285619 
L 551.232 468.27473 
L 559.323 468.269355 
L 567.414 468.257342 
L 575.505 468.242052 
L 583.596 468.242417 
L 591.687 468.250991 
L 599.778 468.263788 
L 607.869 468.267793 
L 615.96 468.268583 
L 624.051 468.26974 
L 632.142 468.27507 
L 640.233 468.279633 
L 648.324 468.280409 
L 656.415 468.285331 
L 664.506 468.287511 
L 672.597 468.287834 
L 680.688 468.287997 
L 688.779 468.286703 
L 696.87 468.284 
L 704.961 468.27842 
L 713.052 468.266327 
L 721.143 468.259556 
L 729.234 468.245985 
L 737.325 468.238699 
L 745.416 468.245812 
L 753.507 468.240214 
L 761.598 468.243213 
L 769.689 468.252272 
L 777.78 468.252561 
L 785.871 468.246074 
L 793.962 468.250753 
L 802.053 468.259632 
L 810.144 468.266843 
L 818.235 468.270202 
L 826.326 468.273301 
L 834.417 468.275279 
L 842.508 468.27303 
L 850.599 468.263694 
L 858.69 468.254052 
L 866.781 468.248604 
L 874.872 468.251923 
L 882.963 468.251126 
L 891.054 468.248628 
L 899.145 468.234968 
L 907.236 468.21664 
L 915.327 468.180291 
L 923.418 468.136634 
L 931.509 468.077594 
" style="fill:none;stroke:#f8ffa2;stroke-linecap:square;stroke-width:2;"/>
   </g>
   <g id="line2d_24">
    <path clip-path="url(#p07fd4e8b78)" d="M 187.137 468.244399 
L 195.228 468.244399 
L 203.319 468.20663 
L 211.41 468.161174 
L 219.501 468.05749 
L 227.592 467.936897 
L 235.683 467.87222 
L 243.774 467.740858 
L 251.865 467.621041 
L 259.956 467.503888 
L 268.047 467.367249 
L 276.138 467.206998 
L 284.229 466.799109 
L 292.32 466.571183 
L 300.411 466.21168 
L 308.502 465.943082 
L 316.593 465.74661 
L 324.684 465.610707 
L 332.775 465.180093 
L 340.866 465.007764 
L 348.957 465.072626 
L 357.048 465.340153 
L 365.139 465.254203 
L 373.23 465.376595 
L 381.321 465.580653 
L 389.412 465.87424 
L 397.503 466.053803 
L 405.594 466.082677 
L 413.685 466.118992 
L 421.776 466.213491 
L 429.867 466.320252 
L 437.958 466.379399 
L 446.049 466.478999 
L 454.14 466.470213 
L 462.231 466.3303 
L 470.322 466.129252 
L 478.413 465.984923 
L 486.504 465.713884 
L 494.595 465.517731 
L 502.686 465.250373 
L 510.777 464.918273 
L 518.868 464.53472 
L 526.959 464.073151 
L 535.05 463.640098 
L 543.141 463.152868 
L 551.232 462.731788 
L 559.323 462.479031 
L 567.414 462.288335 
L 575.505 462.219797 
L 583.596 462.150159 
L 591.687 462.121746 
L 599.778 462.150691 
L 607.869 462.350413 
L 615.96 462.551789 
L 624.051 462.732542 
L 632.142 462.856593 
L 640.233 462.938497 
L 648.324 463.016131 
L 656.415 463.078988 
L 664.506 463.238611 
L 672.597 463.546943 
L 680.688 463.807232 
L 688.779 463.979034 
L 696.87 464.136297 
L 704.961 464.260011 
L 713.052 464.432361 
L 721.143 464.534868 
L 729.234 464.687074 
L 737.325 464.654186 
L 745.416 464.486945 
L 753.507 464.308349 
L 761.598 464.195423 
L 769.689 464.026201 
L 777.78 463.889959 
L 785.871 463.832533 
L 793.962 463.720976 
L 802.053 463.641722 
L 810.144 463.618029 
L 818.235 463.603948 
L 826.326 463.558949 
L 834.417 463.50439 
L 842.508 463.485346 
L 850.599 463.457863 
L 858.69 463.476168 
L 866.781 463.520983 
L 874.872 463.690127 
L 882.963 463.843928 
L 891.054 464.007665 
L 899.145 464.182676 
L 907.236 464.383735 
L 915.327 464.779081 
L 923.418 465.089139 
L 931.509 465.570441 
" style="fill:none;stroke:#578dc0;stroke-linecap:square;stroke-width:2;"/>
   </g>
   <g id="line2d_25">
    <path clip-path="url(#p07fd4e8b78)" d="M 187.137 468.286734 
L 195.228 468.286734 
L 203.319 468.285637 
L 211.41 468.284482 
L 219.501 468.283773 
L 227.592 468.287368 
L 235.683 468.287036 
L 243.774 468.286221 
L 251.865 468.280064 
L 259.956 468.269554 
L 268.047 468.268032 
L 276.138 468.268354 
L 284.229 468.222348 
L 292.32 468.140323 
L 300.411 468.064183 
L 308.502 468.018672 
L 316.593 468.018419 
L 324.684 468.032477 
L 332.775 467.895827 
L 340.866 467.836772 
L 348.957 467.787772 
L 357.048 467.67922 
L 365.139 467.546132 
L 373.23 467.549186 
L 381.321 467.606311 
L 389.412 467.55747 
L 397.503 467.351334 
L 405.594 467.134056 
L 413.685 466.968607 
L 421.776 466.776195 
L 429.867 466.501125 
L 437.958 466.211156 
L 446.049 465.941228 
L 454.14 465.78235 
L 462.231 465.674633 
L 470.322 465.602498 
L 478.413 465.505607 
L 486.504 465.548695 
L 494.595 465.591992 
L 502.686 465.678565 
L 510.777 465.788023 
L 518.868 465.714037 
L 526.959 465.731501 
L 535.05 465.678034 
L 543.141 465.654131 
L 551.232 465.701699 
L 559.323 465.749722 
L 567.414 465.792988 
L 575.505 465.785999 
L 583.596 465.830782 
L 591.687 465.831432 
L 599.778 465.826782 
L 607.869 465.766087 
L 615.96 465.631976 
L 624.051 465.630065 
L 632.142 465.58412 
L 640.233 465.561487 
L 648.324 465.667336 
L 656.415 465.691622 
L 664.506 465.636848 
L 672.597 465.60768 
L 680.688 465.560656 
L 688.779 465.548812 
L 696.87 465.612523 
L 704.961 465.785675 
L 713.052 465.936031 
L 721.143 465.997999 
L 729.234 466.036546 
L 737.325 466.121166 
L 745.416 466.182976 
L 753.507 466.25307 
L 761.598 466.312554 
L 769.689 466.385252 
L 777.78 466.463647 
L 785.871 466.510426 
L 793.962 466.636674 
L 802.053 466.734925 
L 810.144 466.806543 
L 818.235 466.895473 
L 826.326 466.995746 
L 834.417 467.073352 
L 842.508 467.138665 
L 850.599 467.2145 
L 858.69 467.282117 
L 866.781 467.329258 
L 874.872 467.357245 
L 882.963 467.393267 
L 891.054 467.480571 
L 899.145 467.633379 
L 907.236 467.792088 
L 915.327 467.894548 
L 923.418 468.08996 
L 931.509 468.241968 
" style="fill:none;stroke:#4e4ad8;stroke-linecap:square;stroke-width:2;"/>
   </g>
   <g id="line2d_26">
    <path clip-path="url(#p07fd4e8b78)" d="M 187.137 468.20498 
L 195.228 468.20498 
L 203.319 468.133066 
L 211.41 468.04675 
L 219.501 467.852958 
L 227.592 467.70464 
L 235.683 467.723839 
L 243.774 467.738411 
L 251.865 467.867769 
L 259.956 467.918213 
L 268.047 467.8784 
L 276.138 467.893867 
L 284.229 467.856582 
L 292.32 467.911254 
L 300.411 468.01409 
L 308.502 468.111869 
L 316.593 468.174582 
L 324.684 468.193934 
L 332.775 468.219925 
L 340.866 468.190212 
L 348.957 468.208748 
L 357.048 468.169015 
L 365.139 468.163351 
L 373.23 468.124343 
L 381.321 468.067732 
L 389.412 468.047212 
L 397.503 468.028142 
L 405.594 468.039598 
L 413.685 468.058894 
L 421.776 468.064348 
L 429.867 468.087676 
L 437.958 468.104012 
L 446.049 468.139532 
L 454.14 468.192749 
L 462.231 468.233818 
L 470.322 468.257554 
L 478.413 468.269635 
L 486.504 468.269912 
L 494.595 468.245706 
L 502.686 468.216947 
L 510.777 468.200127 
L 518.868 468.175411 
L 526.959 468.136105 
L 535.05 468.109192 
L 543.141 468.025907 
L 551.232 467.99368 
L 559.323 467.962007 
L 567.414 467.935728 
L 575.505 467.883868 
L 583.596 467.836661 
L 591.687 467.700101 
L 599.778 467.601836 
L 607.869 467.579955 
L 615.96 467.562297 
L 624.051 467.555144 
L 632.142 467.531809 
L 640.233 467.513143 
L 648.324 467.515112 
L 656.415 467.543107 
L 664.506 467.567561 
L 672.597 467.588283 
L 680.688 467.560733 
L 688.779 467.581953 
L 696.87 467.648092 
L 704.961 467.647972 
L 713.052 467.630336 
L 721.143 467.626966 
L 729.234 467.677461 
L 737.325 467.666922 
L 745.416 467.638415 
L 753.507 467.626075 
L 761.598 467.583067 
L 769.689 467.579889 
L 777.78 467.594304 
L 785.871 467.570879 
L 793.962 467.483257 
L 802.053 467.405643 
L 810.144 467.342795 
L 818.235 467.287309 
L 826.326 467.209926 
L 834.417 467.121304 
L 842.508 467.050345 
L 850.599 466.95311 
L 858.69 466.856762 
L 866.781 466.72625 
L 874.872 466.628308 
L 882.963 466.610507 
L 891.054 466.520065 
L 899.145 466.367949 
L 907.236 466.335967 
L 915.327 466.359238 
L 923.418 466.281037 
L 931.509 466.173999 
" style="fill:none;stroke:#32b3f7;stroke-linecap:square;stroke-width:2;"/>
   </g>
   <g id="patch_3">
    <path d="M 130.5 468.288 
L 130.5 113.472 
" style="fill:none;stroke:#000000;stroke-linecap:square;stroke-linejoin:miter;stroke-width:0.8;"/>
   </g>
   <g id="patch_4">
    <path d="M 939.6 468.288 
L 939.6 113.472 
" style="fill:none;stroke:#000000;stroke-linecap:square;stroke-linejoin:miter;stroke-width:0.8;"/>
   </g>
   <g id="patch_5">
    <path d="M 130.5 468.288 
L 939.6 468.288 
" style="fill:none;stroke:#000000;stroke-linecap:square;stroke-linejoin:miter;stroke-width:0.8;"/>
   </g>
   <g id="patch_6">
    <path d="M 130.5 113.472 
L 939.6 113.472 
" style="fill:none;stroke:#000000;stroke-linecap:square;stroke-linejoin:miter;stroke-width:0.8;"/>
   </g>
   <g id="text_15">
    <!-- R2 -->
    <defs>
     <path d="M 44.390625 34.1875 
Q 47.5625 33.109375 50.5625 29.59375 
Q 53.5625 26.078125 56.59375 19.921875 
L 66.609375 0 
L 56 0 
L 46.6875 18.703125 
Q 43.0625 26.03125 39.671875 28.421875 
Q 36.28125 30.8125 30.421875 30.8125 
L 19.671875 30.8125 
L 19.671875 0 
L 9.8125 0 
L 9.8125 72.90625 
L 32.078125 72.90625 
Q 44.578125 72.90625 50.734375 67.671875 
Q 56.890625 62.453125 56.890625 51.90625 
Q 56.890625 45.015625 53.6875 40.46875 
Q 50.484375 35.9375 44.390625 34.1875 
z
M 19.671875 64.796875 
L 19.671875 38.921875 
L 32.078125 38.921875 
Q 39.203125 38.921875 42.84375 42.21875 
Q 46.484375 45.515625 46.484375 51.90625 
Q 46.484375 58.296875 42.84375 61.546875 
Q 39.203125 64.796875 32.078125 64.796875 
z
" id="DejaVuSans-82"/>
    </defs>
    <g transform="translate(527.063437 107.472)scale(0.12 -0.12)">
     <use xlink:href="#DejaVuSans-82"/>
     <use x="69.482422" xlink:href="#DejaVuSans-50"/>
    </g>
   </g>
   <g id="legend_1">
    <g id="patch_7">
     <path d="M 152.324219 640.696 
L 917.775781 640.696 
Q 919.775781 640.696 919.775781 638.696 
L 919.775781 595.661625 
Q 919.775781 593.661625 917.775781 593.661625 
L 152.324219 593.661625 
Q 150.324219 593.661625 150.324219 595.661625 
L 150.324219 638.696 
Q 150.324219 640.696 152.324219 640.696 
z
" style="fill:#ffffff;opacity:0.8;stroke:#cccccc;stroke-linejoin:miter;"/>
    </g>
    <g id="line2d_27">
     <path style="fill:none;stroke:#f18670;stroke-linecap:square;stroke-width:2;"/>
    </g>
    <g id="line2d_28"/>
    <g id="text_16">
     <!-- IWR demand mutliplier -->
     <defs>
      <path d="M 9.8125 72.90625 
L 19.671875 72.90625 
L 19.671875 0 
L 9.8125 0 
z
" id="DejaVuSans-73"/>
      <path d="M 3.328125 72.90625 
L 13.28125 72.90625 
L 28.609375 11.28125 
L 43.890625 72.90625 
L 54.984375 72.90625 
L 70.3125 11.28125 
L 85.59375 72.90625 
L 95.609375 72.90625 
L 77.296875 0 
L 64.890625 0 
L 49.515625 63.28125 
L 33.984375 0 
L 21.578125 0 
z
" id="DejaVuSans-87"/>
     </defs>
     <g transform="translate(182.324219 605.260063)scale(0.1 -0.1)">
      <use xlink:href="#DejaVuSans-73"/>
      <use x="29.492188" xlink:href="#DejaVuSans-87"/>
      <use x="128.369141" xlink:href="#DejaVuSans-82"/>
      <use x="197.851562" xlink:href="#DejaVuSans-32"/>
      <use x="229.638672" xlink:href="#DejaVuSans-100"/>
      <use x="293.115234" xlink:href="#DejaVuSans-101"/>
      <use x="354.638672" xlink:href="#DejaVuSans-109"/>
      <use x="452.050781" xlink:href="#DejaVuSans-97"/>
      <use x="513.330078" xlink:href="#DejaVuSans-110"/>
      <use x="576.708984" xlink:href="#DejaVuSans-100"/>
      <use x="640.185547" xlink:href="#DejaVuSans-32"/>
      <use x="671.972656" xlink:href="#DejaVuSans-109"/>
      <use x="769.384766" xlink:href="#DejaVuSans-117"/>
      <use x="832.763672" xlink:href="#DejaVuSans-116"/>
      <use x="871.972656" xlink:href="#DejaVuSans-108"/>
      <use x="899.755859" xlink:href="#DejaVuSans-105"/>
      <use x="927.539062" xlink:href="#DejaVuSans-112"/>
      <use x="991.015625" xlink:href="#DejaVuSans-108"/>
      <use x="1018.798828" xlink:href="#DejaVuSans-105"/>
      <use x="1046.582031" xlink:href="#DejaVuSans-101"/>
      <use x="1108.105469" xlink:href="#DejaVuSans-114"/>
     </g>
    </g>
    <g id="line2d_29">
     <path style="fill:none;stroke:#e24d3f;stroke-linecap:square;stroke-width:2;"/>
    </g>
    <g id="line2d_30"/>
    <g id="text_17">
     <!-- Reservoir loss -->
     <defs>
      <path d="M 44.28125 53.078125 
L 44.28125 44.578125 
Q 40.484375 46.53125 36.375 47.5 
Q 32.28125 48.484375 27.875 48.484375 
Q 21.1875 48.484375 17.84375 46.4375 
Q 14.5 44.390625 14.5 40.28125 
Q 14.5 37.15625 16.890625 35.375 
Q 19.28125 33.59375 26.515625 31.984375 
L 29.59375 31.296875 
Q 39.15625 29.25 43.1875 25.515625 
Q 47.21875 21.78125 47.21875 15.09375 
Q 47.21875 7.46875 41.1875 3.015625 
Q 35.15625 -1.421875 24.609375 -1.421875 
Q 20.21875 -1.421875 15.453125 -0.5625 
Q 10.6875 0.296875 5.421875 2 
L 5.421875 11.28125 
Q 10.40625 8.6875 15.234375 7.390625 
Q 20.0625 6.109375 24.8125 6.109375 
Q 31.15625 6.109375 34.5625 8.28125 
Q 37.984375 10.453125 37.984375 14.40625 
Q 37.984375 18.0625 35.515625 20.015625 
Q 33.0625 21.96875 24.703125 23.78125 
L 21.578125 24.515625 
Q 13.234375 26.265625 9.515625 29.90625 
Q 5.8125 33.546875 5.8125 39.890625 
Q 5.8125 47.609375 11.28125 51.796875 
Q 16.75 56 26.8125 56 
Q 31.78125 56 36.171875 55.265625 
Q 40.578125 54.546875 44.28125 53.078125 
z
" id="DejaVuSans-115"/>
      <path d="M 2.984375 54.6875 
L 12.5 54.6875 
L 29.59375 8.796875 
L 46.6875 54.6875 
L 56.203125 54.6875 
L 35.6875 0 
L 23.484375 0 
z
" id="DejaVuSans-118"/>
     </defs>
     <g transform="translate(182.324219 619.938188)scale(0.1 -0.1)">
      <use xlink:href="#DejaVuSans-82"/>
      <use x="69.419922" xlink:href="#DejaVuSans-101"/>
      <use x="130.943359" xlink:href="#DejaVuSans-115"/>
      <use x="183.042969" xlink:href="#DejaVuSans-101"/>
      <use x="244.566406" xlink:href="#DejaVuSans-114"/>
      <use x="285.679688" xlink:href="#DejaVuSans-118"/>
      <use x="344.859375" xlink:href="#DejaVuSans-111"/>
      <use x="406.041016" xlink:href="#DejaVuSans-105"/>
      <use x="433.824219" xlink:href="#DejaVuSans-114"/>
      <use x="474.9375" xlink:href="#DejaVuSans-32"/>
      <use x="506.724609" xlink:href="#DejaVuSans-108"/>
      <use x="534.507812" xlink:href="#DejaVuSans-111"/>
      <use x="595.689453" xlink:href="#DejaVuSans-115"/>
      <use x="647.789062" xlink:href="#DejaVuSans-115"/>
     </g>
    </g>
    <g id="line2d_31">
     <path style="fill:none;stroke:#cf233e;stroke-linecap:square;stroke-width:2;"/>
    </g>
    <g id="line2d_32"/>
    <g id="text_18">
     <!-- TBD demand multiplier -->
     <defs>
      <path d="M -0.296875 72.90625 
L 61.375 72.90625 
L 61.375 64.59375 
L 35.5 64.59375 
L 35.5 0 
L 25.59375 0 
L 25.59375 64.59375 
L -0.296875 64.59375 
z
" id="DejaVuSans-84"/>
      <path d="M 19.671875 34.8125 
L 19.671875 8.109375 
L 35.5 8.109375 
Q 43.453125 8.109375 47.28125 11.40625 
Q 51.125 14.703125 51.125 21.484375 
Q 51.125 28.328125 47.28125 31.5625 
Q 43.453125 34.8125 35.5 34.8125 
z
M 19.671875 64.796875 
L 19.671875 42.828125 
L 34.28125 42.828125 
Q 41.5 42.828125 45.03125 45.53125 
Q 48.578125 48.25 48.578125 53.8125 
Q 48.578125 59.328125 45.03125 62.0625 
Q 41.5 64.796875 34.28125 64.796875 
z
M 9.8125 72.90625 
L 35.015625 72.90625 
Q 46.296875 72.90625 52.390625 68.21875 
Q 58.5 63.53125 58.5 54.890625 
Q 58.5 48.1875 55.375 44.234375 
Q 52.25 40.28125 46.1875 39.3125 
Q 53.46875 37.75 57.5 32.78125 
Q 61.53125 27.828125 61.53125 20.40625 
Q 61.53125 10.640625 54.890625 5.3125 
Q 48.25 0 35.984375 0 
L 9.8125 0 
z
" id="DejaVuSans-66"/>
      <path d="M 19.671875 64.796875 
L 19.671875 8.109375 
L 31.59375 8.109375 
Q 46.6875 8.109375 53.6875 14.9375 
Q 60.6875 21.78125 60.6875 36.53125 
Q 60.6875 51.171875 53.6875 57.984375 
Q 46.6875 64.796875 31.59375 64.796875 
z
M 9.8125 72.90625 
L 30.078125 72.90625 
Q 51.265625 72.90625 61.171875 64.09375 
Q 71.09375 55.28125 71.09375 36.53125 
Q 71.09375 17.671875 61.125 8.828125 
Q 51.171875 0 30.078125 0 
L 9.8125 0 
z
" id="DejaVuSans-68"/>
     </defs>
     <g transform="translate(182.324219 634.616313)scale(0.1 -0.1)">
      <use xlink:href="#DejaVuSans-84"/>
      <use x="61.083984" xlink:href="#DejaVuSans-66"/>
      <use x="129.6875" xlink:href="#DejaVuSans-68"/>
      <use x="206.689453" xlink:href="#DejaVuSans-32"/>
      <use x="238.476562" xlink:href="#DejaVuSans-100"/>
      <use x="301.953125" xlink:href="#DejaVuSans-101"/>
      <use x="363.476562" xlink:href="#DejaVuSans-109"/>
      <use x="460.888672" xlink:href="#DejaVuSans-97"/>
      <use x="522.167969" xlink:href="#DejaVuSans-110"/>
      <use x="585.546875" xlink:href="#DejaVuSans-100"/>
      <use x="649.023438" xlink:href="#DejaVuSans-32"/>
      <use x="680.810547" xlink:href="#DejaVuSans-109"/>
      <use x="778.222656" xlink:href="#DejaVuSans-117"/>
      <use x="841.601562" xlink:href="#DejaVuSans-108"/>
      <use x="869.384766" xlink:href="#DejaVuSans-116"/>
      <use x="908.59375" xlink:href="#DejaVuSans-105"/>
      <use x="936.376953" xlink:href="#DejaVuSans-112"/>
      <use x="999.853516" xlink:href="#DejaVuSans-108"/>
      <use x="1027.636719" xlink:href="#DejaVuSans-105"/>
      <use x="1055.419922" xlink:href="#DejaVuSans-101"/>
      <use x="1116.943359" xlink:href="#DejaVuSans-114"/>
     </g>
    </g>
    <g id="line2d_33">
     <path style="fill:none;stroke:#681e33;stroke-linecap:square;stroke-width:2;"/>
    </g>
    <g id="line2d_34"/>
    <g id="text_19">
     <!-- M&amp;I demand multiplier -->
     <defs>
      <path d="M 9.8125 72.90625 
L 24.515625 72.90625 
L 43.109375 23.296875 
L 61.8125 72.90625 
L 76.515625 72.90625 
L 76.515625 0 
L 66.890625 0 
L 66.890625 64.015625 
L 48.09375 14.015625 
L 38.1875 14.015625 
L 19.390625 64.015625 
L 19.390625 0 
L 9.8125 0 
z
" id="DejaVuSans-77"/>
      <path d="M 24.3125 39.203125 
Q 19.875 35.25 17.796875 31.3125 
Q 15.71875 27.390625 15.71875 23.09375 
Q 15.71875 15.96875 20.890625 11.234375 
Q 26.078125 6.5 33.890625 6.5 
Q 38.53125 6.5 42.578125 8.03125 
Q 46.625 9.578125 50.203125 12.703125 
z
M 31.203125 44.671875 
L 56 19.28125 
Q 58.890625 23.640625 60.5 28.59375 
Q 62.109375 33.546875 62.40625 39.109375 
L 71.484375 39.109375 
Q 70.90625 32.671875 68.359375 26.359375 
Q 65.828125 20.0625 61.28125 13.921875 
L 74.90625 0 
L 62.59375 0 
L 55.609375 7.171875 
Q 50.53125 2.828125 44.96875 0.703125 
Q 39.40625 -1.421875 33.015625 -1.421875 
Q 21.234375 -1.421875 13.765625 5.296875 
Q 6.296875 12.015625 6.296875 22.515625 
Q 6.296875 28.765625 9.5625 34.25 
Q 12.84375 39.75 19.390625 44.578125 
Q 17.046875 47.65625 15.8125 50.703125 
Q 14.59375 53.765625 14.59375 56.6875 
Q 14.59375 64.59375 20.015625 69.40625 
Q 25.4375 74.21875 34.421875 74.21875 
Q 38.484375 74.21875 42.5 73.34375 
Q 46.53125 72.46875 50.6875 70.703125 
L 50.6875 61.8125 
Q 46.4375 64.109375 42.578125 65.296875 
Q 38.71875 66.5 35.40625 66.5 
Q 30.28125 66.5 27.078125 63.78125 
Q 23.875 61.078125 23.875 56.78125 
Q 23.875 54.296875 25.3125 51.78125 
Q 26.765625 49.265625 31.203125 44.671875 
z
" id="DejaVuSans-38"/>
     </defs>
     <g transform="translate(346.128906 605.260063)scale(0.1 -0.1)">
      <use xlink:href="#DejaVuSans-77"/>
      <use x="86.279297" xlink:href="#DejaVuSans-38"/>
      <use x="164.257812" xlink:href="#DejaVuSans-73"/>
      <use x="193.75" xlink:href="#DejaVuSans-32"/>
      <use x="225.537109" xlink:href="#DejaVuSans-100"/>
      <use x="289.013672" xlink:href="#DejaVuSans-101"/>
      <use x="350.537109" xlink:href="#DejaVuSans-109"/>
      <use x="447.949219" xlink:href="#DejaVuSans-97"/>
      <use x="509.228516" xlink:href="#DejaVuSans-110"/>
      <use x="572.607422" xlink:href="#DejaVuSans-100"/>
      <use x="636.083984" xlink:href="#DejaVuSans-32"/>
      <use x="667.871094" xlink:href="#DejaVuSans-109"/>
      <use x="765.283203" xlink:href="#DejaVuSans-117"/>
      <use x="828.662109" xlink:href="#DejaVuSans-108"/>
      <use x="856.445312" xlink:href="#DejaVuSans-116"/>
      <use x="895.654297" xlink:href="#DejaVuSans-105"/>
      <use x="923.4375" xlink:href="#DejaVuSans-112"/>
      <use x="986.914062" xlink:href="#DejaVuSans-108"/>
      <use x="1014.697266" xlink:href="#DejaVuSans-105"/>
      <use x="1042.480469" xlink:href="#DejaVuSans-101"/>
      <use x="1104.003906" xlink:href="#DejaVuSans-114"/>
     </g>
    </g>
    <g id="line2d_35">
     <path style="fill:none;stroke:#676572;stroke-linecap:square;stroke-width:2;"/>
    </g>
    <g id="line2d_36"/>
    <g id="text_20">
     <!-- Shoshone active -->
     <g transform="translate(346.128906 619.938188)scale(0.1 -0.1)">
      <use xlink:href="#DejaVuSans-83"/>
      <use x="63.476562" xlink:href="#DejaVuSans-104"/>
      <use x="126.855469" xlink:href="#DejaVuSans-111"/>
      <use x="188.037109" xlink:href="#DejaVuSans-115"/>
      <use x="240.136719" xlink:href="#DejaVuSans-104"/>
      <use x="303.515625" xlink:href="#DejaVuSans-111"/>
      <use x="364.697266" xlink:href="#DejaVuSans-110"/>
      <use x="428.076172" xlink:href="#DejaVuSans-101"/>
      <use x="489.599609" xlink:href="#DejaVuSans-32"/>
      <use x="521.386719" xlink:href="#DejaVuSans-97"/>
      <use x="582.666016" xlink:href="#DejaVuSans-99"/>
      <use x="637.646484" xlink:href="#DejaVuSans-116"/>
      <use x="676.855469" xlink:href="#DejaVuSans-105"/>
      <use x="704.638672" xlink:href="#DejaVuSans-118"/>
      <use x="763.818359" xlink:href="#DejaVuSans-101"/>
     </g>
    </g>
    <g id="line2d_37">
     <path style="fill:none;stroke:#f3be22;stroke-linecap:square;stroke-width:2;"/>
    </g>
    <g id="line2d_38"/>
    <g id="text_21">
     <!-- Env. flow senior right -->
     <defs>
      <path d="M 9.8125 72.90625 
L 55.90625 72.90625 
L 55.90625 64.59375 
L 19.671875 64.59375 
L 19.671875 43.015625 
L 54.390625 43.015625 
L 54.390625 34.71875 
L 19.671875 34.71875 
L 19.671875 8.296875 
L 56.78125 8.296875 
L 56.78125 0 
L 9.8125 0 
z
" id="DejaVuSans-69"/>
      <path d="M 37.109375 75.984375 
L 37.109375 68.5 
L 28.515625 68.5 
Q 23.6875 68.5 21.796875 66.546875 
Q 19.921875 64.59375 19.921875 59.515625 
L 19.921875 54.6875 
L 34.71875 54.6875 
L 34.71875 47.703125 
L 19.921875 47.703125 
L 19.921875 0 
L 10.890625 0 
L 10.890625 47.703125 
L 2.296875 47.703125 
L 2.296875 54.6875 
L 10.890625 54.6875 
L 10.890625 58.5 
Q 10.890625 67.625 15.140625 71.796875 
Q 19.390625 75.984375 28.609375 75.984375 
z
" id="DejaVuSans-102"/>
      <path d="M 4.203125 54.6875 
L 13.1875 54.6875 
L 24.421875 12.015625 
L 35.59375 54.6875 
L 46.1875 54.6875 
L 57.421875 12.015625 
L 68.609375 54.6875 
L 77.59375 54.6875 
L 63.28125 0 
L 52.6875 0 
L 40.921875 44.828125 
L 29.109375 0 
L 18.5 0 
z
" id="DejaVuSans-119"/>
     </defs>
     <g transform="translate(346.128906 634.616313)scale(0.1 -0.1)">
      <use xlink:href="#DejaVuSans-69"/>
      <use x="63.183594" xlink:href="#DejaVuSans-110"/>
      <use x="126.5625" xlink:href="#DejaVuSans-118"/>
      <use x="185.632812" xlink:href="#DejaVuSans-46"/>
      <use x="217.419922" xlink:href="#DejaVuSans-32"/>
      <use x="249.207031" xlink:href="#DejaVuSans-102"/>
      <use x="284.412109" xlink:href="#DejaVuSans-108"/>
      <use x="312.195312" xlink:href="#DejaVuSans-111"/>
      <use x="373.376953" xlink:href="#DejaVuSans-119"/>
      <use x="455.164062" xlink:href="#DejaVuSans-32"/>
      <use x="486.951172" xlink:href="#DejaVuSans-115"/>
      <use x="539.050781" xlink:href="#DejaVuSans-101"/>
      <use x="600.574219" xlink:href="#DejaVuSans-110"/>
      <use x="663.953125" xlink:href="#DejaVuSans-105"/>
      <use x="691.736328" xlink:href="#DejaVuSans-111"/>
      <use x="752.917969" xlink:href="#DejaVuSans-114"/>
      <use x="794.03125" xlink:href="#DejaVuSans-32"/>
      <use x="825.818359" xlink:href="#DejaVuSans-114"/>
      <use x="866.931641" xlink:href="#DejaVuSans-105"/>
      <use x="894.714844" xlink:href="#DejaVuSans-103"/>
      <use x="958.191406" xlink:href="#DejaVuSans-104"/>
      <use x="1021.570312" xlink:href="#DejaVuSans-116"/>
     </g>
    </g>
    <g id="line2d_39">
     <path style="fill:none;stroke:#59deba;stroke-linecap:square;stroke-width:2;"/>
    </g>
    <g id="line2d_40"/>
    <g id="text_22">
     <!-- Evaporation delta -->
     <g transform="translate(508.641406 605.260063)scale(0.1 -0.1)">
      <use xlink:href="#DejaVuSans-69"/>
      <use x="63.183594" xlink:href="#DejaVuSans-118"/>
      <use x="122.363281" xlink:href="#DejaVuSans-97"/>
      <use x="183.642578" xlink:href="#DejaVuSans-112"/>
      <use x="247.119141" xlink:href="#DejaVuSans-111"/>
      <use x="308.300781" xlink:href="#DejaVuSans-114"/>
      <use x="349.414062" xlink:href="#DejaVuSans-97"/>
      <use x="410.693359" xlink:href="#DejaVuSans-116"/>
      <use x="449.902344" xlink:href="#DejaVuSans-105"/>
      <use x="477.685547" xlink:href="#DejaVuSans-111"/>
      <use x="538.867188" xlink:href="#DejaVuSans-110"/>
      <use x="602.246094" xlink:href="#DejaVuSans-32"/>
      <use x="634.033203" xlink:href="#DejaVuSans-100"/>
      <use x="697.509766" xlink:href="#DejaVuSans-101"/>
      <use x="759.033203" xlink:href="#DejaVuSans-108"/>
      <use x="786.816406" xlink:href="#DejaVuSans-116"/>
      <use x="826.025391" xlink:href="#DejaVuSans-97"/>
     </g>
    </g>
    <g id="line2d_41">
     <path style="fill:none;stroke:#14015c;stroke-linecap:square;stroke-width:2;"/>
    </g>
    <g id="line2d_42"/>
    <g id="text_23">
     <!-- Dry state mu -->
     <defs>
      <path d="M 32.171875 -5.078125 
Q 28.375 -14.84375 24.75 -17.8125 
Q 21.140625 -20.796875 15.09375 -20.796875 
L 7.90625 -20.796875 
L 7.90625 -13.28125 
L 13.1875 -13.28125 
Q 16.890625 -13.28125 18.9375 -11.515625 
Q 21 -9.765625 23.484375 -3.21875 
L 25.09375 0.875 
L 2.984375 54.6875 
L 12.5 54.6875 
L 29.59375 11.921875 
L 46.6875 54.6875 
L 56.203125 54.6875 
z
" id="DejaVuSans-121"/>
     </defs>
     <g transform="translate(508.641406 619.938188)scale(0.1 -0.1)">
      <use xlink:href="#DejaVuSans-68"/>
      <use x="77.001953" xlink:href="#DejaVuSans-114"/>
      <use x="118.115234" xlink:href="#DejaVuSans-121"/>
      <use x="177.294922" xlink:href="#DejaVuSans-32"/>
      <use x="209.082031" xlink:href="#DejaVuSans-115"/>
      <use x="261.181641" xlink:href="#DejaVuSans-116"/>
      <use x="300.390625" xlink:href="#DejaVuSans-97"/>
      <use x="361.669922" xlink:href="#DejaVuSans-116"/>
      <use x="400.878906" xlink:href="#DejaVuSans-101"/>
      <use x="462.402344" xlink:href="#DejaVuSans-32"/>
      <use x="494.189453" xlink:href="#DejaVuSans-109"/>
      <use x="591.601562" xlink:href="#DejaVuSans-117"/>
     </g>
    </g>
    <g id="line2d_43">
     <path style="fill:none;stroke:#daf8a3;stroke-linecap:square;stroke-width:2;"/>
    </g>
    <g id="line2d_44"/>
    <g id="text_24">
     <!-- Dry state sigma -->
     <g transform="translate(508.641406 634.616313)scale(0.1 -0.1)">
      <use xlink:href="#DejaVuSans-68"/>
      <use x="77.001953" xlink:href="#DejaVuSans-114"/>
      <use x="118.115234" xlink:href="#DejaVuSans-121"/>
      <use x="177.294922" xlink:href="#DejaVuSans-32"/>
      <use x="209.082031" xlink:href="#DejaVuSans-115"/>
      <use x="261.181641" xlink:href="#DejaVuSans-116"/>
      <use x="300.390625" xlink:href="#DejaVuSans-97"/>
      <use x="361.669922" xlink:href="#DejaVuSans-116"/>
      <use x="400.878906" xlink:href="#DejaVuSans-101"/>
      <use x="462.402344" xlink:href="#DejaVuSans-32"/>
      <use x="494.189453" xlink:href="#DejaVuSans-115"/>
      <use x="546.289062" xlink:href="#DejaVuSans-105"/>
      <use x="574.072266" xlink:href="#DejaVuSans-103"/>
      <use x="637.548828" xlink:href="#DejaVuSans-109"/>
      <use x="734.960938" xlink:href="#DejaVuSans-97"/>
     </g>
    </g>
    <g id="line2d_45">
     <path style="fill:none;stroke:#0b7a0a;stroke-linecap:square;stroke-width:2;"/>
    </g>
    <g id="line2d_46"/>
    <g id="text_25">
     <!-- Wet state mu -->
     <g transform="translate(645.374219 605.260063)scale(0.1 -0.1)">
      <use xlink:href="#DejaVuSans-87"/>
      <use x="98.798828" xlink:href="#DejaVuSans-101"/>
      <use x="160.322266" xlink:href="#DejaVuSans-116"/>
      <use x="199.53125" xlink:href="#DejaVuSans-32"/>
      <use x="231.318359" xlink:href="#DejaVuSans-115"/>
      <use x="283.417969" xlink:href="#DejaVuSans-116"/>
      <use x="322.626953" xlink:href="#DejaVuSans-97"/>
      <use x="383.90625" xlink:href="#DejaVuSans-116"/>
      <use x="423.115234" xlink:href="#DejaVuSans-101"/>
      <use x="484.638672" xlink:href="#DejaVuSans-32"/>
      <use x="516.425781" xlink:href="#DejaVuSans-109"/>
      <use x="613.837891" xlink:href="#DejaVuSans-117"/>
     </g>
    </g>
    <g id="line2d_47">
     <path style="fill:none;stroke:#f8ffa2;stroke-linecap:square;stroke-width:2;"/>
    </g>
    <g id="line2d_48"/>
    <g id="text_26">
     <!-- Wet state sigma -->
     <g transform="translate(645.374219 619.938188)scale(0.1 -0.1)">
      <use xlink:href="#DejaVuSans-87"/>
      <use x="98.798828" xlink:href="#DejaVuSans-101"/>
      <use x="160.322266" xlink:href="#DejaVuSans-116"/>
      <use x="199.53125" xlink:href="#DejaVuSans-32"/>
      <use x="231.318359" xlink:href="#DejaVuSans-115"/>
      <use x="283.417969" xlink:href="#DejaVuSans-116"/>
      <use x="322.626953" xlink:href="#DejaVuSans-97"/>
      <use x="383.90625" xlink:href="#DejaVuSans-116"/>
      <use x="423.115234" xlink:href="#DejaVuSans-101"/>
      <use x="484.638672" xlink:href="#DejaVuSans-32"/>
      <use x="516.425781" xlink:href="#DejaVuSans-115"/>
      <use x="568.525391" xlink:href="#DejaVuSans-105"/>
      <use x="596.308594" xlink:href="#DejaVuSans-103"/>
      <use x="659.785156" xlink:href="#DejaVuSans-109"/>
      <use x="757.197266" xlink:href="#DejaVuSans-97"/>
     </g>
    </g>
    <g id="line2d_49">
     <path style="fill:none;stroke:#578dc0;stroke-linecap:square;stroke-width:2;"/>
    </g>
    <g id="line2d_50"/>
    <g id="text_27">
     <!-- Dry-to-dry state prob. -->
     <defs>
      <path d="M 4.890625 31.390625 
L 31.203125 31.390625 
L 31.203125 23.390625 
L 4.890625 23.390625 
z
" id="DejaVuSans-45"/>
      <path d="M 48.6875 27.296875 
Q 48.6875 37.203125 44.609375 42.84375 
Q 40.53125 48.484375 33.40625 48.484375 
Q 26.265625 48.484375 22.1875 42.84375 
Q 18.109375 37.203125 18.109375 27.296875 
Q 18.109375 17.390625 22.1875 11.75 
Q 26.265625 6.109375 33.40625 6.109375 
Q 40.53125 6.109375 44.609375 11.75 
Q 48.6875 17.390625 48.6875 27.296875 
z
M 18.109375 46.390625 
Q 20.953125 51.265625 25.265625 53.625 
Q 29.59375 56 35.59375 56 
Q 45.5625 56 51.78125 48.09375 
Q 58.015625 40.1875 58.015625 27.296875 
Q 58.015625 14.40625 51.78125 6.484375 
Q 45.5625 -1.421875 35.59375 -1.421875 
Q 29.59375 -1.421875 25.265625 0.953125 
Q 20.953125 3.328125 18.109375 8.203125 
L 18.109375 0 
L 9.078125 0 
L 9.078125 75.984375 
L 18.109375 75.984375 
z
" id="DejaVuSans-98"/>
     </defs>
     <g transform="translate(645.374219 634.616313)scale(0.1 -0.1)">
      <use xlink:href="#DejaVuSans-68"/>
      <use x="77.001953" xlink:href="#DejaVuSans-114"/>
      <use x="118.115234" xlink:href="#DejaVuSans-121"/>
      <use x="177.279297" xlink:href="#DejaVuSans-45"/>
      <use x="213.363281" xlink:href="#DejaVuSans-116"/>
      <use x="252.572266" xlink:href="#DejaVuSans-111"/>
      <use x="313.769531" xlink:href="#DejaVuSans-45"/>
      <use x="349.853516" xlink:href="#DejaVuSans-100"/>
      <use x="413.330078" xlink:href="#DejaVuSans-114"/>
      <use x="454.443359" xlink:href="#DejaVuSans-121"/>
      <use x="513.623047" xlink:href="#DejaVuSans-32"/>
      <use x="545.410156" xlink:href="#DejaVuSans-115"/>
      <use x="597.509766" xlink:href="#DejaVuSans-116"/>
      <use x="636.71875" xlink:href="#DejaVuSans-97"/>
      <use x="697.998047" xlink:href="#DejaVuSans-116"/>
      <use x="737.207031" xlink:href="#DejaVuSans-101"/>
      <use x="798.730469" xlink:href="#DejaVuSans-32"/>
      <use x="830.517578" xlink:href="#DejaVuSans-112"/>
      <use x="893.994141" xlink:href="#DejaVuSans-114"/>
      <use x="935.076172" xlink:href="#DejaVuSans-111"/>
      <use x="996.257812" xlink:href="#DejaVuSans-98"/>
      <use x="1059.734375" xlink:href="#DejaVuSans-46"/>
     </g>
    </g>
    <g id="line2d_51">
     <path style="fill:none;stroke:#4e4ad8;stroke-linecap:square;stroke-width:2;"/>
    </g>
    <g id="line2d_52"/>
    <g id="text_28">
     <!-- Wet-to-wet state prob. -->
     <g transform="translate(802.525781 605.260063)scale(0.1 -0.1)">
      <use xlink:href="#DejaVuSans-87"/>
      <use x="98.798828" xlink:href="#DejaVuSans-101"/>
      <use x="160.322266" xlink:href="#DejaVuSans-116"/>
      <use x="199.53125" xlink:href="#DejaVuSans-45"/>
      <use x="235.615234" xlink:href="#DejaVuSans-116"/>
      <use x="274.824219" xlink:href="#DejaVuSans-111"/>
      <use x="336.021484" xlink:href="#DejaVuSans-45"/>
      <use x="372.105469" xlink:href="#DejaVuSans-119"/>
      <use x="453.892578" xlink:href="#DejaVuSans-101"/>
      <use x="515.416016" xlink:href="#DejaVuSans-116"/>
      <use x="554.625" xlink:href="#DejaVuSans-32"/>
      <use x="586.412109" xlink:href="#DejaVuSans-115"/>
      <use x="638.511719" xlink:href="#DejaVuSans-116"/>
      <use x="677.720703" xlink:href="#DejaVuSans-97"/>
      <use x="739" xlink:href="#DejaVuSans-116"/>
      <use x="778.208984" xlink:href="#DejaVuSans-101"/>
      <use x="839.732422" xlink:href="#DejaVuSans-32"/>
      <use x="871.519531" xlink:href="#DejaVuSans-112"/>
      <use x="934.996094" xlink:href="#DejaVuSans-114"/>
      <use x="976.078125" xlink:href="#DejaVuSans-111"/>
      <use x="1037.259766" xlink:href="#DejaVuSans-98"/>
      <use x="1100.736328" xlink:href="#DejaVuSans-46"/>
     </g>
    </g>
    <g id="line2d_53">
     <path style="fill:none;stroke:#32b3f7;stroke-linecap:square;stroke-width:2;"/>
    </g>
    <g id="line2d_54"/>
    <g id="text_29">
     <!-- Earlier snowmelt -->
     <g transform="translate(802.525781 619.938188)scale(0.1 -0.1)">
      <use xlink:href="#DejaVuSans-69"/>
      <use x="63.183594" xlink:href="#DejaVuSans-97"/>
      <use x="124.462891" xlink:href="#DejaVuSans-114"/>
      <use x="165.576172" xlink:href="#DejaVuSans-108"/>
      <use x="193.359375" xlink:href="#DejaVuSans-105"/>
      <use x="221.142578" xlink:href="#DejaVuSans-101"/>
      <use x="282.666016" xlink:href="#DejaVuSans-114"/>
      <use x="323.779297" xlink:href="#DejaVuSans-32"/>
      <use x="355.566406" xlink:href="#DejaVuSans-115"/>
      <use x="407.666016" xlink:href="#DejaVuSans-110"/>
      <use x="471.044922" xlink:href="#DejaVuSans-111"/>
      <use x="532.226562" xlink:href="#DejaVuSans-119"/>
      <use x="614.013672" xlink:href="#DejaVuSans-109"/>
      <use x="711.425781" xlink:href="#DejaVuSans-101"/>
      <use x="772.949219" xlink:href="#DejaVuSans-108"/>
      <use x="800.732422" xlink:href="#DejaVuSans-116"/>
     </g>
    </g>
   </g>
  </g>
  <g id="text_30">
   <!-- Shortage magnitude sensitivity for 7202003 -->
   <defs>
    <path d="M 8.203125 72.90625 
L 55.078125 72.90625 
L 55.078125 68.703125 
L 28.609375 0 
L 18.3125 0 
L 43.21875 64.59375 
L 8.203125 64.59375 
z
" id="DejaVuSans-55"/>
    <path d="M 40.578125 39.3125 
Q 47.65625 37.796875 51.625 33 
Q 55.609375 28.21875 55.609375 21.1875 
Q 55.609375 10.40625 48.1875 4.484375 
Q 40.765625 -1.421875 27.09375 -1.421875 
Q 22.515625 -1.421875 17.65625 -0.515625 
Q 12.796875 0.390625 7.625 2.203125 
L 7.625 11.71875 
Q 11.71875 9.328125 16.59375 8.109375 
Q 21.484375 6.890625 26.8125 6.890625 
Q 36.078125 6.890625 40.9375 10.546875 
Q 45.796875 14.203125 45.796875 21.1875 
Q 45.796875 27.640625 41.28125 31.265625 
Q 36.765625 34.90625 28.71875 34.90625 
L 20.21875 34.90625 
L 20.21875 43.015625 
L 29.109375 43.015625 
Q 36.375 43.015625 40.234375 45.921875 
Q 44.09375 48.828125 44.09375 54.296875 
Q 44.09375 59.90625 40.109375 62.90625 
Q 36.140625 65.921875 28.71875 65.921875 
Q 24.65625 65.921875 20.015625 65.03125 
Q 15.375 64.15625 9.8125 62.3125 
L 9.8125 71.09375 
Q 15.4375 72.65625 20.34375 73.4375 
Q 25.25 74.21875 29.59375 74.21875 
Q 40.828125 74.21875 47.359375 69.109375 
Q 53.90625 64.015625 53.90625 55.328125 
Q 53.90625 49.265625 50.4375 45.09375 
Q 46.96875 40.921875 40.578125 39.3125 
z
" id="DejaVuSans-51"/>
   </defs>
   <g transform="translate(344.81625 23.6775)scale(0.16 -0.16)">
    <use xlink:href="#DejaVuSans-83"/>
    <use x="63.476562" xlink:href="#DejaVuSans-104"/>
    <use x="126.855469" xlink:href="#DejaVuSans-111"/>
    <use x="188.037109" xlink:href="#DejaVuSans-114"/>
    <use x="229.150391" xlink:href="#DejaVuSans-116"/>
    <use x="268.359375" xlink:href="#DejaVuSans-97"/>
    <use x="329.638672" xlink:href="#DejaVuSans-103"/>
    <use x="393.115234" xlink:href="#DejaVuSans-101"/>
    <use x="454.638672" xlink:href="#DejaVuSans-32"/>
    <use x="486.425781" xlink:href="#DejaVuSans-109"/>
    <use x="583.837891" xlink:href="#DejaVuSans-97"/>
    <use x="645.117188" xlink:href="#DejaVuSans-103"/>
    <use x="708.59375" xlink:href="#DejaVuSans-110"/>
    <use x="771.972656" xlink:href="#DejaVuSans-105"/>
    <use x="799.755859" xlink:href="#DejaVuSans-116"/>
    <use x="838.964844" xlink:href="#DejaVuSans-117"/>
    <use x="902.34375" xlink:href="#DejaVuSans-100"/>
    <use x="965.820312" xlink:href="#DejaVuSans-101"/>
    <use x="1027.34375" xlink:href="#DejaVuSans-32"/>
    <use x="1059.130859" xlink:href="#DejaVuSans-115"/>
    <use x="1111.230469" xlink:href="#DejaVuSans-101"/>
    <use x="1172.753906" xlink:href="#DejaVuSans-110"/>
    <use x="1236.132812" xlink:href="#DejaVuSans-115"/>
    <use x="1288.232422" xlink:href="#DejaVuSans-105"/>
    <use x="1316.015625" xlink:href="#DejaVuSans-116"/>
    <use x="1355.224609" xlink:href="#DejaVuSans-105"/>
    <use x="1383.007812" xlink:href="#DejaVuSans-118"/>
    <use x="1442.1875" xlink:href="#DejaVuSans-105"/>
    <use x="1469.970703" xlink:href="#DejaVuSans-116"/>
    <use x="1509.179688" xlink:href="#DejaVuSans-121"/>
    <use x="1568.359375" xlink:href="#DejaVuSans-32"/>
    <use x="1600.146484" xlink:href="#DejaVuSans-102"/>
    <use x="1635.351562" xlink:href="#DejaVuSans-111"/>
    <use x="1696.533203" xlink:href="#DejaVuSans-114"/>
    <use x="1737.646484" xlink:href="#DejaVuSans-32"/>
    <use x="1769.433594" xlink:href="#DejaVuSans-55"/>
    <use x="1833.056641" xlink:href="#DejaVuSans-50"/>
    <use x="1896.679688" xlink:href="#DejaVuSans-48"/>
    <use x="1960.302734" xlink:href="#DejaVuSans-50"/>
    <use x="2023.925781" xlink:href="#DejaVuSans-48"/>
    <use x="2087.548828" xlink:href="#DejaVuSans-48"/>
    <use x="2151.171875" xlink:href="#DejaVuSans-51"/>
   </g>
  </g>
 </g>
 <defs>
  <clipPath id="p07fd4e8b78">
   <rect height="354.816" width="809.1" x="130.5" y="113.472"/>
  </clipPath>
 </defs>
</svg>
