<?xml version="1.0" encoding="utf-8" standalone="no"?>
<!DOCTYPE svg PUBLIC "-//W3C//DTD SVG 1.1//EN"
  "http://www.w3.org/Graphics/SVG/1.1/DTD/svg11.dtd">
<!-- Created with matplotlib (https://matplotlib.org/) -->
<svg height="576pt" version="1.1" viewBox="0 0 1044 576" width="1044pt" xmlns="http://www.w3.org/2000/svg" xmlns:xlink="http://www.w3.org/1999/xlink">
 <defs>
  <style type="text/css">
*{stroke-linecap:butt;stroke-linejoin:round;}
  </style>
 </defs>
 <g id="figure_1">
  <g id="patch_1">
   <path d="M 0 576 
L 1044 576 
L 1044 0 
L 0 0 
z
" style="fill:#ffffff;"/>
  </g>
  <g id="axes_1">
   <g id="patch_2">
    <path d="M 130.5 468.288 
L 939.6 468.288 
L 939.6 113.472 
L 130.5 113.472 
z
" style="fill:#ffffff;"/>
   </g>
   <g id="matplotlib.axis_1">
    <g id="xtick_1">
     <g id="line2d_1">
      <defs>
       <path d="M 0 0 
L 0 3.5 
" id="m495d13fe56" style="stroke:#000000;stroke-width:0.8;"/>
      </defs>
      <g>
       <use style="stroke:#000000;stroke-width:0.8;" x="130.5" xlink:href="#m495d13fe56" y="468.288"/>
      </g>
     </g>
     <g id="text_1">
      <!-- 0 -->
      <defs>
       <path d="M 31.78125 66.40625 
Q 24.171875 66.40625 20.328125 58.90625 
Q 16.5 51.421875 16.5 36.375 
Q 16.5 21.390625 20.328125 13.890625 
Q 24.171875 6.390625 31.78125 6.390625 
Q 39.453125 6.390625 43.28125 13.890625 
Q 47.125 21.390625 47.125 36.375 
Q 47.125 51.421875 43.28125 58.90625 
Q 39.453125 66.40625 31.78125 66.40625 
z
M 31.78125 74.21875 
Q 44.046875 74.21875 50.515625 64.515625 
Q 56.984375 54.828125 56.984375 36.375 
Q 56.984375 17.96875 50.515625 8.265625 
Q 44.046875 -1.421875 31.78125 -1.421875 
Q 19.53125 -1.421875 13.0625 8.265625 
Q 6.59375 17.96875 6.59375 36.375 
Q 6.59375 54.828125 13.0625 64.515625 
Q 19.53125 74.21875 31.78125 74.21875 
z
" id="DejaVuSans-48"/>
      </defs>
      <g transform="translate(127.31875 482.886437)scale(0.1 -0.1)">
       <use xlink:href="#DejaVuSans-48"/>
      </g>
     </g>
    </g>
    <g id="xtick_2">
     <g id="line2d_2">
      <g>
       <use style="stroke:#000000;stroke-width:0.8;" x="292.32" xlink:href="#m495d13fe56" y="468.288"/>
      </g>
     </g>
     <g id="text_2">
      <!-- 20 -->
      <defs>
       <path d="M 19.1875 8.296875 
L 53.609375 8.296875 
L 53.609375 0 
L 7.328125 0 
L 7.328125 8.296875 
Q 12.9375 14.109375 22.625 23.890625 
Q 32.328125 33.6875 34.8125 36.53125 
Q 39.546875 41.84375 41.421875 45.53125 
Q 43.3125 49.21875 43.3125 52.78125 
Q 43.3125 58.59375 39.234375 62.25 
Q 35.15625 65.921875 28.609375 65.921875 
Q 23.96875 65.921875 18.8125 64.3125 
Q 13.671875 62.703125 7.8125 59.421875 
L 7.8125 69.390625 
Q 13.765625 71.78125 18.9375 73 
Q 24.125 74.21875 28.421875 74.21875 
Q 39.75 74.21875 46.484375 68.546875 
Q 53.21875 62.890625 53.21875 53.421875 
Q 53.21875 48.921875 51.53125 44.890625 
Q 49.859375 40.875 45.40625 35.40625 
Q 44.1875 33.984375 37.640625 27.21875 
Q 31.109375 20.453125 19.1875 8.296875 
z
" id="DejaVuSans-50"/>
      </defs>
      <g transform="translate(285.9575 482.886437)scale(0.1 -0.1)">
       <use xlink:href="#DejaVuSans-50"/>
       <use x="63.623047" xlink:href="#DejaVuSans-48"/>
      </g>
     </g>
    </g>
    <g id="xtick_3">
     <g id="line2d_3">
      <g>
       <use style="stroke:#000000;stroke-width:0.8;" x="454.14" xlink:href="#m495d13fe56" y="468.288"/>
      </g>
     </g>
     <g id="text_3">
      <!-- 40 -->
      <defs>
       <path d="M 37.796875 64.3125 
L 12.890625 25.390625 
L 37.796875 25.390625 
z
M 35.203125 72.90625 
L 47.609375 72.90625 
L 47.609375 25.390625 
L 58.015625 25.390625 
L 58.015625 17.1875 
L 47.609375 17.1875 
L 47.609375 0 
L 37.796875 0 
L 37.796875 17.1875 
L 4.890625 17.1875 
L 4.890625 26.703125 
z
" id="DejaVuSans-52"/>
      </defs>
      <g transform="translate(447.7775 482.886437)scale(0.1 -0.1)">
       <use xlink:href="#DejaVuSans-52"/>
       <use x="63.623047" xlink:href="#DejaVuSans-48"/>
      </g>
     </g>
    </g>
    <g id="xtick_4">
     <g id="line2d_4">
      <g>
       <use style="stroke:#000000;stroke-width:0.8;" x="615.96" xlink:href="#m495d13fe56" y="468.288"/>
      </g>
     </g>
     <g id="text_4">
      <!-- 60 -->
      <defs>
       <path d="M 33.015625 40.375 
Q 26.375 40.375 22.484375 35.828125 
Q 18.609375 31.296875 18.609375 23.390625 
Q 18.609375 15.53125 22.484375 10.953125 
Q 26.375 6.390625 33.015625 6.390625 
Q 39.65625 6.390625 43.53125 10.953125 
Q 47.40625 15.53125 47.40625 23.390625 
Q 47.40625 31.296875 43.53125 35.828125 
Q 39.65625 40.375 33.015625 40.375 
z
M 52.59375 71.296875 
L 52.59375 62.3125 
Q 48.875 64.0625 45.09375 64.984375 
Q 41.3125 65.921875 37.59375 65.921875 
Q 27.828125 65.921875 22.671875 59.328125 
Q 17.53125 52.734375 16.796875 39.40625 
Q 19.671875 43.65625 24.015625 45.921875 
Q 28.375 48.1875 33.59375 48.1875 
Q 44.578125 48.1875 50.953125 41.515625 
Q 57.328125 34.859375 57.328125 23.390625 
Q 57.328125 12.15625 50.6875 5.359375 
Q 44.046875 -1.421875 33.015625 -1.421875 
Q 20.359375 -1.421875 13.671875 8.265625 
Q 6.984375 17.96875 6.984375 36.375 
Q 6.984375 53.65625 15.1875 63.9375 
Q 23.390625 74.21875 37.203125 74.21875 
Q 40.921875 74.21875 44.703125 73.484375 
Q 48.484375 72.75 52.59375 71.296875 
z
" id="DejaVuSans-54"/>
      </defs>
      <g transform="translate(609.5975 482.886437)scale(0.1 -0.1)">
       <use xlink:href="#DejaVuSans-54"/>
       <use x="63.623047" xlink:href="#DejaVuSans-48"/>
      </g>
     </g>
    </g>
    <g id="xtick_5">
     <g id="line2d_5">
      <g>
       <use style="stroke:#000000;stroke-width:0.8;" x="777.78" xlink:href="#m495d13fe56" y="468.288"/>
      </g>
     </g>
     <g id="text_5">
      <!-- 80 -->
      <defs>
       <path d="M 31.78125 34.625 
Q 24.75 34.625 20.71875 30.859375 
Q 16.703125 27.09375 16.703125 20.515625 
Q 16.703125 13.921875 20.71875 10.15625 
Q 24.75 6.390625 31.78125 6.390625 
Q 38.8125 6.390625 42.859375 10.171875 
Q 46.921875 13.96875 46.921875 20.515625 
Q 46.921875 27.09375 42.890625 30.859375 
Q 38.875 34.625 31.78125 34.625 
z
M 21.921875 38.8125 
Q 15.578125 40.375 12.03125 44.71875 
Q 8.5 49.078125 8.5 55.328125 
Q 8.5 64.0625 14.71875 69.140625 
Q 20.953125 74.21875 31.78125 74.21875 
Q 42.671875 74.21875 48.875 69.140625 
Q 55.078125 64.0625 55.078125 55.328125 
Q 55.078125 49.078125 51.53125 44.71875 
Q 48 40.375 41.703125 38.8125 
Q 48.828125 37.15625 52.796875 32.3125 
Q 56.78125 27.484375 56.78125 20.515625 
Q 56.78125 9.90625 50.3125 4.234375 
Q 43.84375 -1.421875 31.78125 -1.421875 
Q 19.734375 -1.421875 13.25 4.234375 
Q 6.78125 9.90625 6.78125 20.515625 
Q 6.78125 27.484375 10.78125 32.3125 
Q 14.796875 37.15625 21.921875 38.8125 
z
M 18.3125 54.390625 
Q 18.3125 48.734375 21.84375 45.5625 
Q 25.390625 42.390625 31.78125 42.390625 
Q 38.140625 42.390625 41.71875 45.5625 
Q 45.3125 48.734375 45.3125 54.390625 
Q 45.3125 60.0625 41.71875 63.234375 
Q 38.140625 66.40625 31.78125 66.40625 
Q 25.390625 66.40625 21.84375 63.234375 
Q 18.3125 60.0625 18.3125 54.390625 
z
" id="DejaVuSans-56"/>
      </defs>
      <g transform="translate(771.4175 482.886437)scale(0.1 -0.1)">
       <use xlink:href="#DejaVuSans-56"/>
       <use x="63.623047" xlink:href="#DejaVuSans-48"/>
      </g>
     </g>
    </g>
    <g id="xtick_6">
     <g id="line2d_6">
      <g>
       <use style="stroke:#000000;stroke-width:0.8;" x="939.6" xlink:href="#m495d13fe56" y="468.288"/>
      </g>
     </g>
     <g id="text_6">
      <!-- 100 -->
      <defs>
       <path d="M 12.40625 8.296875 
L 28.515625 8.296875 
L 28.515625 63.921875 
L 10.984375 60.40625 
L 10.984375 69.390625 
L 28.421875 72.90625 
L 38.28125 72.90625 
L 38.28125 8.296875 
L 54.390625 8.296875 
L 54.390625 0 
L 12.40625 0 
z
" id="DejaVuSans-49"/>
      </defs>
      <g transform="translate(930.05625 482.886437)scale(0.1 -0.1)">
       <use xlink:href="#DejaVuSans-49"/>
       <use x="63.623047" xlink:href="#DejaVuSans-48"/>
       <use x="127.246094" xlink:href="#DejaVuSans-48"/>
      </g>
     </g>
    </g>
    <g id="text_7">
     <!-- Shortage magnitude percentile -->
     <defs>
      <path d="M 53.515625 70.515625 
L 53.515625 60.890625 
Q 47.90625 63.578125 42.921875 64.890625 
Q 37.9375 66.21875 33.296875 66.21875 
Q 25.25 66.21875 20.875 63.09375 
Q 16.5 59.96875 16.5 54.203125 
Q 16.5 49.359375 19.40625 46.890625 
Q 22.3125 44.4375 30.421875 42.921875 
L 36.375 41.703125 
Q 47.40625 39.59375 52.65625 34.296875 
Q 57.90625 29 57.90625 20.125 
Q 57.90625 9.515625 50.796875 4.046875 
Q 43.703125 -1.421875 29.984375 -1.421875 
Q 24.8125 -1.421875 18.96875 -0.25 
Q 13.140625 0.921875 6.890625 3.21875 
L 6.890625 13.375 
Q 12.890625 10.015625 18.65625 8.296875 
Q 24.421875 6.59375 29.984375 6.59375 
Q 38.421875 6.59375 43.015625 9.90625 
Q 47.609375 13.234375 47.609375 19.390625 
Q 47.609375 24.75 44.3125 27.78125 
Q 41.015625 30.8125 33.5 32.328125 
L 27.484375 33.5 
Q 16.453125 35.6875 11.515625 40.375 
Q 6.59375 45.0625 6.59375 53.421875 
Q 6.59375 63.09375 13.40625 68.65625 
Q 20.21875 74.21875 32.171875 74.21875 
Q 37.3125 74.21875 42.625 73.28125 
Q 47.953125 72.359375 53.515625 70.515625 
z
" id="DejaVuSans-83"/>
      <path d="M 54.890625 33.015625 
L 54.890625 0 
L 45.90625 0 
L 45.90625 32.71875 
Q 45.90625 40.484375 42.875 44.328125 
Q 39.84375 48.1875 33.796875 48.1875 
Q 26.515625 48.1875 22.3125 43.546875 
Q 18.109375 38.921875 18.109375 30.90625 
L 18.109375 0 
L 9.078125 0 
L 9.078125 75.984375 
L 18.109375 75.984375 
L 18.109375 46.1875 
Q 21.34375 51.125 25.703125 53.5625 
Q 30.078125 56 35.796875 56 
Q 45.21875 56 50.046875 50.171875 
Q 54.890625 44.34375 54.890625 33.015625 
z
" id="DejaVuSans-104"/>
      <path d="M 30.609375 48.390625 
Q 23.390625 48.390625 19.1875 42.75 
Q 14.984375 37.109375 14.984375 27.296875 
Q 14.984375 17.484375 19.15625 11.84375 
Q 23.34375 6.203125 30.609375 6.203125 
Q 37.796875 6.203125 41.984375 11.859375 
Q 46.1875 17.53125 46.1875 27.296875 
Q 46.1875 37.015625 41.984375 42.703125 
Q 37.796875 48.390625 30.609375 48.390625 
z
M 30.609375 56 
Q 42.328125 56 49.015625 48.375 
Q 55.71875 40.765625 55.71875 27.296875 
Q 55.71875 13.875 49.015625 6.21875 
Q 42.328125 -1.421875 30.609375 -1.421875 
Q 18.84375 -1.421875 12.171875 6.21875 
Q 5.515625 13.875 5.515625 27.296875 
Q 5.515625 40.765625 12.171875 48.375 
Q 18.84375 56 30.609375 56 
z
" id="DejaVuSans-111"/>
      <path d="M 41.109375 46.296875 
Q 39.59375 47.171875 37.8125 47.578125 
Q 36.03125 48 33.890625 48 
Q 26.265625 48 22.1875 43.046875 
Q 18.109375 38.09375 18.109375 28.8125 
L 18.109375 0 
L 9.078125 0 
L 9.078125 54.6875 
L 18.109375 54.6875 
L 18.109375 46.1875 
Q 20.953125 51.171875 25.484375 53.578125 
Q 30.03125 56 36.53125 56 
Q 37.453125 56 38.578125 55.875 
Q 39.703125 55.765625 41.0625 55.515625 
z
" id="DejaVuSans-114"/>
      <path d="M 18.3125 70.21875 
L 18.3125 54.6875 
L 36.8125 54.6875 
L 36.8125 47.703125 
L 18.3125 47.703125 
L 18.3125 18.015625 
Q 18.3125 11.328125 20.140625 9.421875 
Q 21.96875 7.515625 27.59375 7.515625 
L 36.8125 7.515625 
L 36.8125 0 
L 27.59375 0 
Q 17.1875 0 13.234375 3.875 
Q 9.28125 7.765625 9.28125 18.015625 
L 9.28125 47.703125 
L 2.6875 47.703125 
L 2.6875 54.6875 
L 9.28125 54.6875 
L 9.28125 70.21875 
z
" id="DejaVuSans-116"/>
      <path d="M 34.28125 27.484375 
Q 23.390625 27.484375 19.1875 25 
Q 14.984375 22.515625 14.984375 16.5 
Q 14.984375 11.71875 18.140625 8.90625 
Q 21.296875 6.109375 26.703125 6.109375 
Q 34.1875 6.109375 38.703125 11.40625 
Q 43.21875 16.703125 43.21875 25.484375 
L 43.21875 27.484375 
z
M 52.203125 31.203125 
L 52.203125 0 
L 43.21875 0 
L 43.21875 8.296875 
Q 40.140625 3.328125 35.546875 0.953125 
Q 30.953125 -1.421875 24.3125 -1.421875 
Q 15.921875 -1.421875 10.953125 3.296875 
Q 6 8.015625 6 15.921875 
Q 6 25.140625 12.171875 29.828125 
Q 18.359375 34.515625 30.609375 34.515625 
L 43.21875 34.515625 
L 43.21875 35.40625 
Q 43.21875 41.609375 39.140625 45 
Q 35.0625 48.390625 27.6875 48.390625 
Q 23 48.390625 18.546875 47.265625 
Q 14.109375 46.140625 10.015625 43.890625 
L 10.015625 52.203125 
Q 14.9375 54.109375 19.578125 55.046875 
Q 24.21875 56 28.609375 56 
Q 40.484375 56 46.34375 49.84375 
Q 52.203125 43.703125 52.203125 31.203125 
z
" id="DejaVuSans-97"/>
      <path d="M 45.40625 27.984375 
Q 45.40625 37.75 41.375 43.109375 
Q 37.359375 48.484375 30.078125 48.484375 
Q 22.859375 48.484375 18.828125 43.109375 
Q 14.796875 37.75 14.796875 27.984375 
Q 14.796875 18.265625 18.828125 12.890625 
Q 22.859375 7.515625 30.078125 7.515625 
Q 37.359375 7.515625 41.375 12.890625 
Q 45.40625 18.265625 45.40625 27.984375 
z
M 54.390625 6.78125 
Q 54.390625 -7.171875 48.1875 -13.984375 
Q 42 -20.796875 29.203125 -20.796875 
Q 24.46875 -20.796875 20.265625 -20.09375 
Q 16.0625 -19.390625 12.109375 -17.921875 
L 12.109375 -9.1875 
Q 16.0625 -11.328125 19.921875 -12.34375 
Q 23.78125 -13.375 27.78125 -13.375 
Q 36.625 -13.375 41.015625 -8.765625 
Q 45.40625 -4.15625 45.40625 5.171875 
L 45.40625 9.625 
Q 42.625 4.78125 38.28125 2.390625 
Q 33.9375 0 27.875 0 
Q 17.828125 0 11.671875 7.65625 
Q 5.515625 15.328125 5.515625 27.984375 
Q 5.515625 40.671875 11.671875 48.328125 
Q 17.828125 56 27.875 56 
Q 33.9375 56 38.28125 53.609375 
Q 42.625 51.21875 45.40625 46.390625 
L 45.40625 54.6875 
L 54.390625 54.6875 
z
" id="DejaVuSans-103"/>
      <path d="M 56.203125 29.59375 
L 56.203125 25.203125 
L 14.890625 25.203125 
Q 15.484375 15.921875 20.484375 11.0625 
Q 25.484375 6.203125 34.421875 6.203125 
Q 39.59375 6.203125 44.453125 7.46875 
Q 49.3125 8.734375 54.109375 11.28125 
L 54.109375 2.78125 
Q 49.265625 0.734375 44.1875 -0.34375 
Q 39.109375 -1.421875 33.890625 -1.421875 
Q 20.796875 -1.421875 13.15625 6.1875 
Q 5.515625 13.8125 5.515625 26.8125 
Q 5.515625 40.234375 12.765625 48.109375 
Q 20.015625 56 32.328125 56 
Q 43.359375 56 49.78125 48.890625 
Q 56.203125 41.796875 56.203125 29.59375 
z
M 47.21875 32.234375 
Q 47.125 39.59375 43.09375 43.984375 
Q 39.0625 48.390625 32.421875 48.390625 
Q 24.90625 48.390625 20.390625 44.140625 
Q 15.875 39.890625 15.1875 32.171875 
z
" id="DejaVuSans-101"/>
      <path id="DejaVuSans-32"/>
      <path d="M 52 44.1875 
Q 55.375 50.25 60.0625 53.125 
Q 64.75 56 71.09375 56 
Q 79.640625 56 84.28125 50.015625 
Q 88.921875 44.046875 88.921875 33.015625 
L 88.921875 0 
L 79.890625 0 
L 79.890625 32.71875 
Q 79.890625 40.578125 77.09375 44.375 
Q 74.3125 48.1875 68.609375 48.1875 
Q 61.625 48.1875 57.5625 43.546875 
Q 53.515625 38.921875 53.515625 30.90625 
L 53.515625 0 
L 44.484375 0 
L 44.484375 32.71875 
Q 44.484375 40.625 41.703125 44.40625 
Q 38.921875 48.1875 33.109375 48.1875 
Q 26.21875 48.1875 22.15625 43.53125 
Q 18.109375 38.875 18.109375 30.90625 
L 18.109375 0 
L 9.078125 0 
L 9.078125 54.6875 
L 18.109375 54.6875 
L 18.109375 46.1875 
Q 21.1875 51.21875 25.484375 53.609375 
Q 29.78125 56 35.6875 56 
Q 41.65625 56 45.828125 52.96875 
Q 50 49.953125 52 44.1875 
z
" id="DejaVuSans-109"/>
      <path d="M 54.890625 33.015625 
L 54.890625 0 
L 45.90625 0 
L 45.90625 32.71875 
Q 45.90625 40.484375 42.875 44.328125 
Q 39.84375 48.1875 33.796875 48.1875 
Q 26.515625 48.1875 22.3125 43.546875 
Q 18.109375 38.921875 18.109375 30.90625 
L 18.109375 0 
L 9.078125 0 
L 9.078125 54.6875 
L 18.109375 54.6875 
L 18.109375 46.1875 
Q 21.34375 51.125 25.703125 53.5625 
Q 30.078125 56 35.796875 56 
Q 45.21875 56 50.046875 50.171875 
Q 54.890625 44.34375 54.890625 33.015625 
z
" id="DejaVuSans-110"/>
      <path d="M 9.421875 54.6875 
L 18.40625 54.6875 
L 18.40625 0 
L 9.421875 0 
z
M 9.421875 75.984375 
L 18.40625 75.984375 
L 18.40625 64.59375 
L 9.421875 64.59375 
z
" id="DejaVuSans-105"/>
      <path d="M 8.5 21.578125 
L 8.5 54.6875 
L 17.484375 54.6875 
L 17.484375 21.921875 
Q 17.484375 14.15625 20.5 10.265625 
Q 23.53125 6.390625 29.59375 6.390625 
Q 36.859375 6.390625 41.078125 11.03125 
Q 45.3125 15.671875 45.3125 23.6875 
L 45.3125 54.6875 
L 54.296875 54.6875 
L 54.296875 0 
L 45.3125 0 
L 45.3125 8.40625 
Q 42.046875 3.421875 37.71875 1 
Q 33.40625 -1.421875 27.6875 -1.421875 
Q 18.265625 -1.421875 13.375 4.4375 
Q 8.5 10.296875 8.5 21.578125 
z
M 31.109375 56 
z
" id="DejaVuSans-117"/>
      <path d="M 45.40625 46.390625 
L 45.40625 75.984375 
L 54.390625 75.984375 
L 54.390625 0 
L 45.40625 0 
L 45.40625 8.203125 
Q 42.578125 3.328125 38.25 0.953125 
Q 33.9375 -1.421875 27.875 -1.421875 
Q 17.96875 -1.421875 11.734375 6.484375 
Q 5.515625 14.40625 5.515625 27.296875 
Q 5.515625 40.1875 11.734375 48.09375 
Q 17.96875 56 27.875 56 
Q 33.9375 56 38.25 53.625 
Q 42.578125 51.265625 45.40625 46.390625 
z
M 14.796875 27.296875 
Q 14.796875 17.390625 18.875 11.75 
Q 22.953125 6.109375 30.078125 6.109375 
Q 37.203125 6.109375 41.296875 11.75 
Q 45.40625 17.390625 45.40625 27.296875 
Q 45.40625 37.203125 41.296875 42.84375 
Q 37.203125 48.484375 30.078125 48.484375 
Q 22.953125 48.484375 18.875 42.84375 
Q 14.796875 37.203125 14.796875 27.296875 
z
" id="DejaVuSans-100"/>
      <path d="M 18.109375 8.203125 
L 18.109375 -20.796875 
L 9.078125 -20.796875 
L 9.078125 54.6875 
L 18.109375 54.6875 
L 18.109375 46.390625 
Q 20.953125 51.265625 25.265625 53.625 
Q 29.59375 56 35.59375 56 
Q 45.5625 56 51.78125 48.09375 
Q 58.015625 40.1875 58.015625 27.296875 
Q 58.015625 14.40625 51.78125 6.484375 
Q 45.5625 -1.421875 35.59375 -1.421875 
Q 29.59375 -1.421875 25.265625 0.953125 
Q 20.953125 3.328125 18.109375 8.203125 
z
M 48.6875 27.296875 
Q 48.6875 37.203125 44.609375 42.84375 
Q 40.53125 48.484375 33.40625 48.484375 
Q 26.265625 48.484375 22.1875 42.84375 
Q 18.109375 37.203125 18.109375 27.296875 
Q 18.109375 17.390625 22.1875 11.75 
Q 26.265625 6.109375 33.40625 6.109375 
Q 40.53125 6.109375 44.609375 11.75 
Q 48.6875 17.390625 48.6875 27.296875 
z
" id="DejaVuSans-112"/>
      <path d="M 48.78125 52.59375 
L 48.78125 44.1875 
Q 44.96875 46.296875 41.140625 47.34375 
Q 37.3125 48.390625 33.40625 48.390625 
Q 24.65625 48.390625 19.8125 42.84375 
Q 14.984375 37.3125 14.984375 27.296875 
Q 14.984375 17.28125 19.8125 11.734375 
Q 24.65625 6.203125 33.40625 6.203125 
Q 37.3125 6.203125 41.140625 7.25 
Q 44.96875 8.296875 48.78125 10.40625 
L 48.78125 2.09375 
Q 45.015625 0.34375 40.984375 -0.53125 
Q 36.96875 -1.421875 32.421875 -1.421875 
Q 20.0625 -1.421875 12.78125 6.34375 
Q 5.515625 14.109375 5.515625 27.296875 
Q 5.515625 40.671875 12.859375 48.328125 
Q 20.21875 56 33.015625 56 
Q 37.15625 56 41.109375 55.140625 
Q 45.0625 54.296875 48.78125 52.59375 
z
" id="DejaVuSans-99"/>
      <path d="M 9.421875 75.984375 
L 18.40625 75.984375 
L 18.40625 0 
L 9.421875 0 
z
" id="DejaVuSans-108"/>
     </defs>
     <g transform="translate(410.13625 501.123625)scale(0.16 -0.16)">
      <use xlink:href="#DejaVuSans-83"/>
      <use x="63.476562" xlink:href="#DejaVuSans-104"/>
      <use x="126.855469" xlink:href="#DejaVuSans-111"/>
      <use x="188.037109" xlink:href="#DejaVuSans-114"/>
      <use x="229.150391" xlink:href="#DejaVuSans-116"/>
      <use x="268.359375" xlink:href="#DejaVuSans-97"/>
      <use x="329.638672" xlink:href="#DejaVuSans-103"/>
      <use x="393.115234" xlink:href="#DejaVuSans-101"/>
      <use x="454.638672" xlink:href="#DejaVuSans-32"/>
      <use x="486.425781" xlink:href="#DejaVuSans-109"/>
      <use x="583.837891" xlink:href="#DejaVuSans-97"/>
      <use x="645.117188" xlink:href="#DejaVuSans-103"/>
      <use x="708.59375" xlink:href="#DejaVuSans-110"/>
      <use x="771.972656" xlink:href="#DejaVuSans-105"/>
      <use x="799.755859" xlink:href="#DejaVuSans-116"/>
      <use x="838.964844" xlink:href="#DejaVuSans-117"/>
      <use x="902.34375" xlink:href="#DejaVuSans-100"/>
      <use x="965.820312" xlink:href="#DejaVuSans-101"/>
      <use x="1027.34375" xlink:href="#DejaVuSans-32"/>
      <use x="1059.130859" xlink:href="#DejaVuSans-112"/>
      <use x="1122.607422" xlink:href="#DejaVuSans-101"/>
      <use x="1184.130859" xlink:href="#DejaVuSans-114"/>
      <use x="1225.212891" xlink:href="#DejaVuSans-99"/>
      <use x="1280.193359" xlink:href="#DejaVuSans-101"/>
      <use x="1341.716797" xlink:href="#DejaVuSans-110"/>
      <use x="1405.095703" xlink:href="#DejaVuSans-116"/>
      <use x="1444.304688" xlink:href="#DejaVuSans-105"/>
      <use x="1472.087891" xlink:href="#DejaVuSans-108"/>
      <use x="1499.871094" xlink:href="#DejaVuSans-101"/>
     </g>
    </g>
   </g>
   <g id="matplotlib.axis_2">
    <g id="ytick_1">
     <g id="line2d_7">
      <defs>
       <path d="M 0 0 
L -3.5 0 
" id="m643647a702" style="stroke:#000000;stroke-width:0.8;"/>
      </defs>
      <g>
       <use style="stroke:#000000;stroke-width:0.8;" x="130.5" xlink:href="#m643647a702" y="468.288"/>
      </g>
     </g>
     <g id="text_8">
      <!-- 0.0 -->
      <defs>
       <path d="M 10.6875 12.40625 
L 21 12.40625 
L 21 0 
L 10.6875 0 
z
" id="DejaVuSans-46"/>
      </defs>
      <g transform="translate(107.596875 472.087219)scale(0.1 -0.1)">
       <use xlink:href="#DejaVuSans-48"/>
       <use x="63.623047" xlink:href="#DejaVuSans-46"/>
       <use x="95.410156" xlink:href="#DejaVuSans-48"/>
      </g>
     </g>
    </g>
    <g id="ytick_2">
     <g id="line2d_8">
      <g>
       <use style="stroke:#000000;stroke-width:0.8;" x="130.5" xlink:href="#m643647a702" y="397.3248"/>
      </g>
     </g>
     <g id="text_9">
      <!-- 0.2 -->
      <g transform="translate(107.596875 401.124019)scale(0.1 -0.1)">
       <use xlink:href="#DejaVuSans-48"/>
       <use x="63.623047" xlink:href="#DejaVuSans-46"/>
       <use x="95.410156" xlink:href="#DejaVuSans-50"/>
      </g>
     </g>
    </g>
    <g id="ytick_3">
     <g id="line2d_9">
      <g>
       <use style="stroke:#000000;stroke-width:0.8;" x="130.5" xlink:href="#m643647a702" y="326.3616"/>
      </g>
     </g>
     <g id="text_10">
      <!-- 0.4 -->
      <g transform="translate(107.596875 330.160819)scale(0.1 -0.1)">
       <use xlink:href="#DejaVuSans-48"/>
       <use x="63.623047" xlink:href="#DejaVuSans-46"/>
       <use x="95.410156" xlink:href="#DejaVuSans-52"/>
      </g>
     </g>
    </g>
    <g id="ytick_4">
     <g id="line2d_10">
      <g>
       <use style="stroke:#000000;stroke-width:0.8;" x="130.5" xlink:href="#m643647a702" y="255.3984"/>
      </g>
     </g>
     <g id="text_11">
      <!-- 0.6 -->
      <g transform="translate(107.596875 259.197619)scale(0.1 -0.1)">
       <use xlink:href="#DejaVuSans-48"/>
       <use x="63.623047" xlink:href="#DejaVuSans-46"/>
       <use x="95.410156" xlink:href="#DejaVuSans-54"/>
      </g>
     </g>
    </g>
    <g id="ytick_5">
     <g id="line2d_11">
      <g>
       <use style="stroke:#000000;stroke-width:0.8;" x="130.5" xlink:href="#m643647a702" y="184.4352"/>
      </g>
     </g>
     <g id="text_12">
      <!-- 0.8 -->
      <g transform="translate(107.596875 188.234419)scale(0.1 -0.1)">
       <use xlink:href="#DejaVuSans-48"/>
       <use x="63.623047" xlink:href="#DejaVuSans-46"/>
       <use x="95.410156" xlink:href="#DejaVuSans-56"/>
      </g>
     </g>
    </g>
    <g id="ytick_6">
     <g id="line2d_12">
      <g>
       <use style="stroke:#000000;stroke-width:0.8;" x="130.5" xlink:href="#m643647a702" y="113.472"/>
      </g>
     </g>
     <g id="text_13">
      <!-- 1.0 -->
      <g transform="translate(107.596875 117.271219)scale(0.1 -0.1)">
       <use xlink:href="#DejaVuSans-49"/>
       <use x="63.623047" xlink:href="#DejaVuSans-46"/>
       <use x="95.410156" xlink:href="#DejaVuSans-48"/>
      </g>
     </g>
    </g>
    <g id="text_14">
     <!-- Variance explained -->
     <defs>
      <path d="M 28.609375 0 
L 0.78125 72.90625 
L 11.078125 72.90625 
L 34.1875 11.53125 
L 57.328125 72.90625 
L 67.578125 72.90625 
L 39.796875 0 
z
" id="DejaVuSans-86"/>
      <path d="M 54.890625 54.6875 
L 35.109375 28.078125 
L 55.90625 0 
L 45.3125 0 
L 29.390625 21.484375 
L 13.484375 0 
L 2.875 0 
L 24.125 28.609375 
L 4.6875 54.6875 
L 15.28125 54.6875 
L 29.78125 35.203125 
L 44.28125 54.6875 
z
" id="DejaVuSans-120"/>
     </defs>
     <g transform="translate(100.269375 367.7475)rotate(-90)scale(0.16 -0.16)">
      <use xlink:href="#DejaVuSans-86"/>
      <use x="68.298828" xlink:href="#DejaVuSans-97"/>
      <use x="129.578125" xlink:href="#DejaVuSans-114"/>
      <use x="170.691406" xlink:href="#DejaVuSans-105"/>
      <use x="198.474609" xlink:href="#DejaVuSans-97"/>
      <use x="259.753906" xlink:href="#DejaVuSans-110"/>
      <use x="323.132812" xlink:href="#DejaVuSans-99"/>
      <use x="378.113281" xlink:href="#DejaVuSans-101"/>
      <use x="439.636719" xlink:href="#DejaVuSans-32"/>
      <use x="471.423828" xlink:href="#DejaVuSans-101"/>
      <use x="532.931641" xlink:href="#DejaVuSans-120"/>
      <use x="592.111328" xlink:href="#DejaVuSans-112"/>
      <use x="655.587891" xlink:href="#DejaVuSans-108"/>
      <use x="683.371094" xlink:href="#DejaVuSans-97"/>
      <use x="744.650391" xlink:href="#DejaVuSans-105"/>
      <use x="772.433594" xlink:href="#DejaVuSans-110"/>
      <use x="835.8125" xlink:href="#DejaVuSans-101"/>
      <use x="897.335938" xlink:href="#DejaVuSans-100"/>
     </g>
    </g>
   </g>
   <g id="line2d_13">
    <path clip-path="url(#p375581c3b0)" d="M 130.5 467.102518 
L 138.591 467.102518 
L 146.682 467.102518 
L 154.773 467.102518 
L 162.864 467.102518 
L 170.955 467.102518 
L 179.046 467.102518 
L 187.137 467.102518 
L 195.228 467.102518 
L 203.319 467.102518 
L 211.41 467.102518 
L 219.501 467.102518 
L 227.592 467.102518 
L 235.683 467.102518 
L 243.774 467.102518 
L 251.865 467.102518 
L 259.956 467.102518 
L 268.047 467.102518 
L 276.138 467.102518 
L 284.229 467.102518 
L 292.32 467.102518 
L 300.411 467.102518 
L 308.502 467.102518 
L 316.593 467.102518 
L 324.684 467.102518 
L 332.775 467.102518 
L 340.866 467.102518 
L 348.957 467.102518 
L 357.048 467.102518 
L 365.139 467.102518 
L 373.23 467.102518 
L 381.321 467.102518 
L 389.412 467.102518 
L 397.503 467.102518 
L 405.594 467.102518 
L 413.685 467.102518 
L 421.776 467.102518 
L 429.867 467.102518 
L 437.958 467.102518 
L 446.049 467.102518 
L 454.14 467.102518 
L 462.231 467.102518 
L 470.322 467.102518 
L 478.413 467.102518 
L 486.504 467.102518 
L 494.595 467.102518 
L 502.686 467.102518 
L 510.777 467.102518 
L 518.868 467.102518 
L 526.959 467.102518 
L 535.05 467.102518 
L 543.141 467.102518 
L 551.232 467.102518 
L 559.323 467.102518 
L 567.414 467.102518 
L 575.505 467.102518 
L 583.596 467.102518 
L 591.687 467.102518 
L 599.778 467.102518 
L 607.869 467.102518 
L 615.96 467.102518 
L 624.051 467.102518 
L 632.142 467.102518 
L 640.233 467.102518 
L 648.324 467.102518 
L 656.415 467.102518 
L 664.506 467.102518 
L 672.597 467.102518 
L 680.688 467.102518 
L 688.779 467.12268 
L 696.87 466.949641 
L 704.961 467.23759 
L 713.052 467.280316 
L 721.143 463.657041 
L 729.234 460.91292 
L 737.325 467.552574 
L 745.416 467.51066 
L 753.507 467.359162 
L 761.598 467.332978 
L 769.689 467.259223 
L 777.78 467.093839 
L 785.871 467.374223 
L 793.962 467.848351 
L 802.053 467.859977 
L 810.144 467.748362 
L 818.235 467.936158 
L 826.326 467.929925 
L 834.417 464.485334 
L 842.508 466.465222 
L 850.599 467.586233 
L 858.69 467.591137 
L 866.781 467.547304 
L 874.872 467.289041 
L 882.963 467.605791 
L 891.054 463.138306 
L 899.145 467.716049 
L 907.236 465.557058 
L 915.327 465.1408 
L 923.418 467.683731 
L 931.509 467.509281 
" style="fill:none;stroke:#f18670;stroke-linecap:square;stroke-width:2;"/>
   </g>
   <g id="line2d_14">
    <path clip-path="url(#p375581c3b0)" d="M 130.5 468.147811 
L 138.591 468.147811 
L 146.682 468.147811 
L 154.773 468.147811 
L 162.864 468.147811 
L 170.955 468.147811 
L 179.046 468.147811 
L 187.137 468.147811 
L 195.228 468.147811 
L 203.319 468.147811 
L 211.41 468.147811 
L 219.501 468.147811 
L 227.592 468.147811 
L 235.683 468.147811 
L 243.774 468.147811 
L 251.865 468.147811 
L 259.956 468.147811 
L 268.047 468.147811 
L 276.138 468.147811 
L 284.229 468.147811 
L 292.32 468.147811 
L 300.411 468.147811 
L 308.502 468.147811 
L 316.593 468.147811 
L 324.684 468.147811 
L 332.775 468.147811 
L 340.866 468.147811 
L 348.957 468.147811 
L 357.048 468.147811 
L 365.139 468.147811 
L 373.23 468.147811 
L 381.321 468.147811 
L 389.412 468.147811 
L 397.503 468.147811 
L 405.594 468.147811 
L 413.685 468.147811 
L 421.776 468.147811 
L 429.867 468.147811 
L 437.958 468.147811 
L 446.049 468.147811 
L 454.14 468.147811 
L 462.231 468.147811 
L 470.322 468.147811 
L 478.413 468.147811 
L 486.504 468.147811 
L 494.595 468.147811 
L 502.686 468.147811 
L 510.777 468.147811 
L 518.868 468.147811 
L 526.959 468.147811 
L 535.05 468.147811 
L 543.141 468.147811 
L 551.232 468.147811 
L 559.323 468.147811 
L 567.414 468.147811 
L 575.505 468.147811 
L 583.596 468.147811 
L 591.687 468.147811 
L 599.778 468.147811 
L 607.869 468.147811 
L 615.96 468.147811 
L 624.051 468.147811 
L 632.142 468.147811 
L 640.233 468.147811 
L 648.324 468.147811 
L 656.415 468.147811 
L 664.506 468.147811 
L 672.597 468.147811 
L 680.688 468.147811 
L 688.779 468.175437 
L 696.87 468.165719 
L 704.961 468.161198 
L 713.052 468.165902 
L 721.143 468.186891 
L 729.234 468.188924 
L 737.325 468.140386 
L 745.416 468.160348 
L 753.507 468.158225 
L 761.598 468.163953 
L 769.689 468.144729 
L 777.78 468.148406 
L 785.871 468.17537 
L 793.962 468.171656 
L 802.053 468.19949 
L 810.144 468.216499 
L 818.235 468.186493 
L 826.326 468.195137 
L 834.417 468.193408 
L 842.508 468.202955 
L 850.599 468.171517 
L 858.69 468.174207 
L 866.781 468.200712 
L 874.872 468.162352 
L 882.963 468.060597 
L 891.054 468.058658 
L 899.145 468.153806 
L 907.236 468.1483 
L 915.327 468.158813 
L 923.418 468.099676 
L 931.509 468.237707 
" style="fill:none;stroke:#e24d3f;stroke-linecap:square;stroke-width:2;"/>
   </g>
   <g id="line2d_15">
    <path clip-path="url(#p375581c3b0)" d="M 130.5 468.25882 
L 138.591 468.25882 
L 146.682 468.25882 
L 154.773 468.25882 
L 162.864 468.25882 
L 170.955 468.25882 
L 179.046 468.25882 
L 187.137 468.25882 
L 195.228 468.25882 
L 203.319 468.25882 
L 211.41 468.25882 
L 219.501 468.25882 
L 227.592 468.25882 
L 235.683 468.25882 
L 243.774 468.25882 
L 251.865 468.25882 
L 259.956 468.25882 
L 268.047 468.25882 
L 276.138 468.25882 
L 284.229 468.25882 
L 292.32 468.25882 
L 300.411 468.25882 
L 308.502 468.25882 
L 316.593 468.25882 
L 324.684 468.25882 
L 332.775 468.25882 
L 340.866 468.25882 
L 348.957 468.25882 
L 357.048 468.25882 
L 365.139 468.25882 
L 373.23 468.25882 
L 381.321 468.25882 
L 389.412 468.25882 
L 397.503 468.25882 
L 405.594 468.25882 
L 413.685 468.25882 
L 421.776 468.25882 
L 429.867 468.25882 
L 437.958 468.25882 
L 446.049 468.25882 
L 454.14 468.25882 
L 462.231 468.25882 
L 470.322 468.25882 
L 478.413 468.25882 
L 486.504 468.25882 
L 494.595 468.25882 
L 502.686 468.25882 
L 510.777 468.25882 
L 518.868 468.25882 
L 526.959 468.25882 
L 535.05 468.25882 
L 543.141 468.25882 
L 551.232 468.25882 
L 559.323 468.25882 
L 567.414 468.25882 
L 575.505 468.25882 
L 583.596 468.25882 
L 591.687 468.25882 
L 599.778 468.25882 
L 607.869 468.25882 
L 615.96 468.25882 
L 624.051 468.25882 
L 632.142 468.25882 
L 640.233 468.25882 
L 648.324 468.25882 
L 656.415 468.25882 
L 664.506 468.25882 
L 672.597 468.25882 
L 680.688 468.25882 
L 688.779 468.261139 
L 696.87 468.265293 
L 704.961 468.262377 
L 713.052 468.253965 
L 721.143 468.243424 
L 729.234 468.200374 
L 737.325 468.247445 
L 745.416 468.247837 
L 753.507 468.250108 
L 761.598 468.24902 
L 769.689 468.250256 
L 777.78 468.268043 
L 785.871 468.26874 
L 793.962 468.278017 
L 802.053 468.266846 
L 810.144 468.273809 
L 818.235 468.264206 
L 826.326 468.267363 
L 834.417 468.233663 
L 842.508 468.221952 
L 850.599 468.226094 
L 858.69 468.258161 
L 866.781 468.199741 
L 874.872 468.19722 
L 882.963 468.076533 
L 891.054 468.237287 
L 899.145 468.236191 
L 907.236 468.245838 
L 915.327 468.246137 
L 923.418 468.279948 
L 931.509 468.288 
" style="fill:none;stroke:#cf233e;stroke-linecap:square;stroke-width:2;"/>
   </g>
   <g id="line2d_16">
    <path clip-path="url(#p375581c3b0)" d="M 130.5 467.877901 
L 138.591 467.877901 
L 146.682 467.877901 
L 154.773 467.877901 
L 162.864 467.877901 
L 170.955 467.877901 
L 179.046 467.877901 
L 187.137 467.877901 
L 195.228 467.877901 
L 203.319 467.877901 
L 211.41 467.877901 
L 219.501 467.877901 
L 227.592 467.877901 
L 235.683 467.877901 
L 243.774 467.877901 
L 251.865 467.877901 
L 259.956 467.877901 
L 268.047 467.877901 
L 276.138 467.877901 
L 284.229 467.877901 
L 292.32 467.877901 
L 300.411 467.877901 
L 308.502 467.877901 
L 316.593 467.877901 
L 324.684 467.877901 
L 332.775 467.877901 
L 340.866 467.877901 
L 348.957 467.877901 
L 357.048 467.877901 
L 365.139 467.877901 
L 373.23 467.877901 
L 381.321 467.877901 
L 389.412 467.877901 
L 397.503 467.877901 
L 405.594 467.877901 
L 413.685 467.877901 
L 421.776 467.877901 
L 429.867 467.877901 
L 437.958 467.877901 
L 446.049 467.877901 
L 454.14 467.877901 
L 462.231 467.877901 
L 470.322 467.877901 
L 478.413 467.877901 
L 486.504 467.877901 
L 494.595 467.877901 
L 502.686 467.877901 
L 510.777 467.877901 
L 518.868 467.877901 
L 526.959 467.877901 
L 535.05 467.877901 
L 543.141 467.877901 
L 551.232 467.877901 
L 559.323 467.877901 
L 567.414 467.877901 
L 575.505 467.877901 
L 583.596 467.877901 
L 591.687 467.877901 
L 599.778 467.877901 
L 607.869 467.877901 
L 615.96 467.877901 
L 624.051 467.877901 
L 632.142 467.877901 
L 640.233 467.877901 
L 648.324 467.877901 
L 656.415 467.877901 
L 664.506 467.877901 
L 672.597 467.877901 
L 680.688 467.877901 
L 688.779 467.891025 
L 696.87 467.918618 
L 704.961 467.940601 
L 713.052 467.928702 
L 721.143 467.844652 
L 729.234 467.907035 
L 737.325 467.838235 
L 745.416 467.848021 
L 753.507 467.795887 
L 761.598 467.803853 
L 769.689 467.807164 
L 777.78 467.784464 
L 785.871 467.812444 
L 793.962 467.832345 
L 802.053 467.884246 
L 810.144 467.910703 
L 818.235 467.917327 
L 826.326 467.883803 
L 834.417 467.923969 
L 842.508 467.950628 
L 850.599 467.970352 
L 858.69 468.041456 
L 866.781 467.965923 
L 874.872 468.025092 
L 882.963 467.909954 
L 891.054 467.670043 
L 899.145 468.066987 
L 907.236 467.981912 
L 915.327 468.042275 
L 923.418 468.143733 
L 931.509 468.021198 
" style="fill:none;stroke:#681e33;stroke-linecap:square;stroke-width:2;"/>
   </g>
   <g id="line2d_17">
    <path clip-path="url(#p375581c3b0)" d="M 130.5 468.28099 
L 138.591 468.28099 
L 146.682 468.28099 
L 154.773 468.28099 
L 162.864 468.28099 
L 170.955 468.28099 
L 179.046 468.28099 
L 187.137 468.28099 
L 195.228 468.28099 
L 203.319 468.28099 
L 211.41 468.28099 
L 219.501 468.28099 
L 227.592 468.28099 
L 235.683 468.28099 
L 243.774 468.28099 
L 251.865 468.28099 
L 259.956 468.28099 
L 268.047 468.28099 
L 276.138 468.28099 
L 284.229 468.28099 
L 292.32 468.28099 
L 300.411 468.28099 
L 308.502 468.28099 
L 316.593 468.28099 
L 324.684 468.28099 
L 332.775 468.28099 
L 340.866 468.28099 
L 348.957 468.28099 
L 357.048 468.28099 
L 365.139 468.28099 
L 373.23 468.28099 
L 381.321 468.28099 
L 389.412 468.28099 
L 397.503 468.28099 
L 405.594 468.28099 
L 413.685 468.28099 
L 421.776 468.28099 
L 429.867 468.28099 
L 437.958 468.28099 
L 446.049 468.28099 
L 454.14 468.28099 
L 462.231 468.28099 
L 470.322 468.28099 
L 478.413 468.28099 
L 486.504 468.28099 
L 494.595 468.28099 
L 502.686 468.28099 
L 510.777 468.28099 
L 518.868 468.28099 
L 526.959 468.28099 
L 535.05 468.28099 
L 543.141 468.28099 
L 551.232 468.28099 
L 559.323 468.28099 
L 567.414 468.28099 
L 575.505 468.28099 
L 583.596 468.28099 
L 591.687 468.28099 
L 599.778 468.28099 
L 607.869 468.28099 
L 615.96 468.28099 
L 624.051 468.28099 
L 632.142 468.28099 
L 640.233 468.28099 
L 648.324 468.28099 
L 656.415 468.28099 
L 664.506 468.28099 
L 672.597 468.28099 
L 680.688 468.28099 
L 688.779 468.283215 
L 696.87 468.286809 
L 704.961 468.279644 
L 713.052 468.284764 
L 721.143 468.277752 
L 729.234 468.28719 
L 737.325 468.286154 
L 745.416 468.285656 
L 753.507 468.287126 
L 761.598 468.286584 
L 769.689 468.287319 
L 777.78 468.287835 
L 785.871 468.287714 
L 793.962 468.287991 
L 802.053 468.286799 
L 810.144 468.274117 
L 818.235 468.275734 
L 826.326 468.270426 
L 834.417 468.263545 
L 842.508 468.28554 
L 850.599 468.286831 
L 858.69 468.287396 
L 866.781 468.268523 
L 874.872 468.250383 
L 882.963 468.274742 
L 891.054 468.186778 
L 899.145 468.287264 
L 907.236 468.284531 
L 915.327 468.287982 
L 923.418 468.280175 
L 931.509 468.278344 
" style="fill:none;stroke:#676572;stroke-linecap:square;stroke-width:2;"/>
   </g>
   <g id="line2d_18">
    <path clip-path="url(#p375581c3b0)" d="M 130.5 468.118465 
L 138.591 468.118465 
L 146.682 468.118465 
L 154.773 468.118465 
L 162.864 468.118465 
L 170.955 468.118465 
L 179.046 468.118465 
L 187.137 468.118465 
L 195.228 468.118465 
L 203.319 468.118465 
L 211.41 468.118465 
L 219.501 468.118465 
L 227.592 468.118465 
L 235.683 468.118465 
L 243.774 468.118465 
L 251.865 468.118465 
L 259.956 468.118465 
L 268.047 468.118465 
L 276.138 468.118465 
L 284.229 468.118465 
L 292.32 468.118465 
L 300.411 468.118465 
L 308.502 468.118465 
L 316.593 468.118465 
L 324.684 468.118465 
L 332.775 468.118465 
L 340.866 468.118465 
L 348.957 468.118465 
L 357.048 468.118465 
L 365.139 468.118465 
L 373.23 468.118465 
L 381.321 468.118465 
L 389.412 468.118465 
L 397.503 468.118465 
L 405.594 468.118465 
L 413.685 468.118465 
L 421.776 468.118465 
L 429.867 468.118465 
L 437.958 468.118465 
L 446.049 468.118465 
L 454.14 468.118465 
L 462.231 468.118465 
L 470.322 468.118465 
L 478.413 468.118465 
L 486.504 468.118465 
L 494.595 468.118465 
L 502.686 468.118465 
L 510.777 468.118465 
L 518.868 468.118465 
L 526.959 468.118465 
L 535.05 468.118465 
L 543.141 468.118465 
L 551.232 468.118465 
L 559.323 468.118465 
L 567.414 468.118465 
L 575.505 468.118465 
L 583.596 468.118465 
L 591.687 468.118465 
L 599.778 468.118465 
L 607.869 468.118465 
L 615.96 468.118465 
L 624.051 468.118465 
L 632.142 468.118465 
L 640.233 468.118465 
L 648.324 468.118465 
L 656.415 468.118465 
L 664.506 468.118465 
L 672.597 468.118465 
L 680.688 468.118465 
L 688.779 468.135117 
L 696.87 468.138885 
L 704.961 468.155676 
L 713.052 468.160439 
L 721.143 468.049927 
L 729.234 468.037462 
L 737.325 468.122057 
L 745.416 468.095464 
L 753.507 468.096585 
L 761.598 468.117593 
L 769.689 468.12644 
L 777.78 468.122352 
L 785.871 468.205276 
L 793.962 468.210171 
L 802.053 468.220226 
L 810.144 468.238631 
L 818.235 468.248524 
L 826.326 468.264279 
L 834.417 468.225106 
L 842.508 468.217715 
L 850.599 468.234048 
L 858.69 468.217546 
L 866.781 468.132281 
L 874.872 468.12749 
L 882.963 468.037057 
L 891.054 467.919368 
L 899.145 468.236613 
L 907.236 468.117084 
L 915.327 468.17828 
L 923.418 468.181789 
L 931.509 468.132989 
" style="fill:none;stroke:#f3be22;stroke-linecap:square;stroke-width:2;"/>
   </g>
   <g id="line2d_19">
    <path clip-path="url(#p375581c3b0)" d="M 130.5 468.261952 
L 138.591 468.261952 
L 146.682 468.261952 
L 154.773 468.261952 
L 162.864 468.261952 
L 170.955 468.261952 
L 179.046 468.261952 
L 187.137 468.261952 
L 195.228 468.261952 
L 203.319 468.261952 
L 211.41 468.261952 
L 219.501 468.261952 
L 227.592 468.261952 
L 235.683 468.261952 
L 243.774 468.261952 
L 251.865 468.261952 
L 259.956 468.261952 
L 268.047 468.261952 
L 276.138 468.261952 
L 284.229 468.261952 
L 292.32 468.261952 
L 300.411 468.261952 
L 308.502 468.261952 
L 316.593 468.261952 
L 324.684 468.261952 
L 332.775 468.261952 
L 340.866 468.261952 
L 348.957 468.261952 
L 357.048 468.261952 
L 365.139 468.261952 
L 373.23 468.261952 
L 381.321 468.261952 
L 389.412 468.261952 
L 397.503 468.261952 
L 405.594 468.261952 
L 413.685 468.261952 
L 421.776 468.261952 
L 429.867 468.261952 
L 437.958 468.261952 
L 446.049 468.261952 
L 454.14 468.261952 
L 462.231 468.261952 
L 470.322 468.261952 
L 478.413 468.261952 
L 486.504 468.261952 
L 494.595 468.261952 
L 502.686 468.261952 
L 510.777 468.261952 
L 518.868 468.261952 
L 526.959 468.261952 
L 535.05 468.261952 
L 543.141 468.261952 
L 551.232 468.261952 
L 559.323 468.261952 
L 567.414 468.261952 
L 575.505 468.261952 
L 583.596 468.261952 
L 591.687 468.261952 
L 599.778 468.261952 
L 607.869 468.261952 
L 615.96 468.261952 
L 624.051 468.261952 
L 632.142 468.261952 
L 640.233 468.261952 
L 648.324 468.261952 
L 656.415 468.261952 
L 664.506 468.261952 
L 672.597 468.261952 
L 680.688 468.261952 
L 688.779 468.259786 
L 696.87 468.267302 
L 704.961 468.27367 
L 713.052 468.272529 
L 721.143 468.287542 
L 729.234 468.285534 
L 737.325 468.261963 
L 745.416 468.250599 
L 753.507 468.247082 
L 761.598 468.251176 
L 769.689 468.261051 
L 777.78 468.272607 
L 785.871 468.271512 
L 793.962 468.275254 
L 802.053 468.279885 
L 810.144 468.270162 
L 818.235 468.274044 
L 826.326 468.265489 
L 834.417 468.287646 
L 842.508 468.283458 
L 850.599 468.286759 
L 858.69 468.28644 
L 866.781 468.287114 
L 874.872 468.284605 
L 882.963 468.286836 
L 891.054 468.26311 
L 899.145 468.232678 
L 907.236 468.262907 
L 915.327 468.256686 
L 923.418 468.229728 
L 931.509 468.215307 
" style="fill:none;stroke:#59deba;stroke-linecap:square;stroke-width:2;"/>
   </g>
   <g id="line2d_20">
    <path clip-path="url(#p375581c3b0)" d="M 130.5 443.910091 
L 138.591 443.910091 
L 146.682 443.910091 
L 154.773 443.910091 
L 162.864 443.910091 
L 170.955 443.910091 
L 179.046 443.910091 
L 187.137 443.910091 
L 195.228 443.910091 
L 203.319 443.910091 
L 211.41 443.910091 
L 219.501 443.910091 
L 227.592 443.910091 
L 235.683 443.910091 
L 243.774 443.910091 
L 251.865 443.910091 
L 259.956 443.910091 
L 268.047 443.910091 
L 276.138 443.910091 
L 284.229 443.910091 
L 292.32 443.910091 
L 300.411 443.910091 
L 308.502 443.910091 
L 316.593 443.910091 
L 324.684 443.910091 
L 332.775 443.910091 
L 340.866 443.910091 
L 348.957 443.910091 
L 357.048 443.910091 
L 365.139 443.910091 
L 373.23 443.910091 
L 381.321 443.910091 
L 389.412 443.910091 
L 397.503 443.910091 
L 405.594 443.910091 
L 413.685 443.910091 
L 421.776 443.910091 
L 429.867 443.910091 
L 437.958 443.910091 
L 446.049 443.910091 
L 454.14 443.910091 
L 462.231 443.910091 
L 470.322 443.910091 
L 478.413 443.910091 
L 486.504 443.910091 
L 494.595 443.910091 
L 502.686 443.910091 
L 510.777 443.910091 
L 518.868 443.910091 
L 526.959 443.910091 
L 535.05 443.910091 
L 543.141 443.910091 
L 551.232 443.910091 
L 559.323 443.910091 
L 567.414 443.910091 
L 575.505 443.910091 
L 583.596 443.910091 
L 591.687 443.910091 
L 599.778 443.910091 
L 607.869 443.910091 
L 615.96 443.910091 
L 624.051 443.910091 
L 632.142 443.910091 
L 640.233 443.910091 
L 648.324 443.910091 
L 656.415 443.910091 
L 664.506 443.910091 
L 672.597 443.910091 
L 680.688 443.910091 
L 688.779 444.06377 
L 696.87 444.555101 
L 704.961 445.003585 
L 713.052 444.956543 
L 721.143 446.41045 
L 729.234 444.796761 
L 737.325 441.470681 
L 745.416 441.434861 
L 753.507 441.195712 
L 761.598 441.231863 
L 769.689 441.451739 
L 777.78 440.892703 
L 785.871 441.408695 
L 793.962 441.730303 
L 802.053 441.83702 
L 810.144 442.234171 
L 818.235 442.778317 
L 826.326 443.063138 
L 834.417 445.992591 
L 842.508 448.579549 
L 850.599 449.08271 
L 858.69 449.62745 
L 866.781 449.889067 
L 874.872 448.18731 
L 882.963 448.475347 
L 891.054 448.131905 
L 899.145 451.450924 
L 907.236 451.521062 
L 915.327 451.186898 
L 923.418 449.153454 
L 931.509 449.031434 
" style="fill:none;stroke:#14015c;stroke-linecap:square;stroke-width:2;"/>
   </g>
   <g id="line2d_21">
    <path clip-path="url(#p375581c3b0)" d="M 130.5 468.249322 
L 138.591 468.249322 
L 146.682 468.249322 
L 154.773 468.249322 
L 162.864 468.249322 
L 170.955 468.249322 
L 179.046 468.249322 
L 187.137 468.249322 
L 195.228 468.249322 
L 203.319 468.249322 
L 211.41 468.249322 
L 219.501 468.249322 
L 227.592 468.249322 
L 235.683 468.249322 
L 243.774 468.249322 
L 251.865 468.249322 
L 259.956 468.249322 
L 268.047 468.249322 
L 276.138 468.249322 
L 284.229 468.249322 
L 292.32 468.249322 
L 300.411 468.249322 
L 308.502 468.249322 
L 316.593 468.249322 
L 324.684 468.249322 
L 332.775 468.249322 
L 340.866 468.249322 
L 348.957 468.249322 
L 357.048 468.249322 
L 365.139 468.249322 
L 373.23 468.249322 
L 381.321 468.249322 
L 389.412 468.249322 
L 397.503 468.249322 
L 405.594 468.249322 
L 413.685 468.249322 
L 421.776 468.249322 
L 429.867 468.249322 
L 437.958 468.249322 
L 446.049 468.249322 
L 454.14 468.249322 
L 462.231 468.249322 
L 470.322 468.249322 
L 478.413 468.249322 
L 486.504 468.249322 
L 494.595 468.249322 
L 502.686 468.249322 
L 510.777 468.249322 
L 518.868 468.249322 
L 526.959 468.249322 
L 535.05 468.249322 
L 543.141 468.249322 
L 551.232 468.249322 
L 559.323 468.249322 
L 567.414 468.249322 
L 575.505 468.249322 
L 583.596 468.249322 
L 591.687 468.249322 
L 599.778 468.249322 
L 607.869 468.249322 
L 615.96 468.249322 
L 624.051 468.249322 
L 632.142 468.249322 
L 640.233 468.249322 
L 648.324 468.249322 
L 656.415 468.249322 
L 664.506 468.249322 
L 672.597 468.249322 
L 680.688 468.249322 
L 688.779 468.243922 
L 696.87 468.233626 
L 704.961 468.241424 
L 713.052 468.245745 
L 721.143 468.163641 
L 729.234 468.126974 
L 737.325 468.157951 
L 745.416 468.158915 
L 753.507 468.176807 
L 761.598 468.181638 
L 769.689 468.181594 
L 777.78 468.175152 
L 785.871 468.207926 
L 793.962 468.235276 
L 802.053 468.21932 
L 810.144 468.216881 
L 818.235 468.153931 
L 826.326 468.174465 
L 834.417 468.092356 
L 842.508 468.132417 
L 850.599 468.122573 
L 858.69 468.187641 
L 866.781 468.21127 
L 874.872 468.226207 
L 882.963 468.263119 
L 891.054 468.283955 
L 899.145 468.279894 
L 907.236 468.277409 
L 915.327 468.286193 
L 923.418 468.132557 
L 931.509 468.148124 
" style="fill:none;stroke:#daf8a3;stroke-linecap:square;stroke-width:2;"/>
   </g>
   <g id="line2d_22">
    <path clip-path="url(#p375581c3b0)" d="M 130.5 451.480891 
L 138.591 451.480891 
L 146.682 451.480891 
L 154.773 451.480891 
L 162.864 451.480891 
L 170.955 451.480891 
L 179.046 451.480891 
L 187.137 451.480891 
L 195.228 451.480891 
L 203.319 451.480891 
L 211.41 451.480891 
L 219.501 451.480891 
L 227.592 451.480891 
L 235.683 451.480891 
L 243.774 451.480891 
L 251.865 451.480891 
L 259.956 451.480891 
L 268.047 451.480891 
L 276.138 451.480891 
L 284.229 451.480891 
L 292.32 451.480891 
L 300.411 451.480891 
L 308.502 451.480891 
L 316.593 451.480891 
L 324.684 451.480891 
L 332.775 451.480891 
L 340.866 451.480891 
L 348.957 451.480891 
L 357.048 451.480891 
L 365.139 451.480891 
L 373.23 451.480891 
L 381.321 451.480891 
L 389.412 451.480891 
L 397.503 451.480891 
L 405.594 451.480891 
L 413.685 451.480891 
L 421.776 451.480891 
L 429.867 451.480891 
L 437.958 451.480891 
L 446.049 451.480891 
L 454.14 451.480891 
L 462.231 451.480891 
L 470.322 451.480891 
L 478.413 451.480891 
L 486.504 451.480891 
L 494.595 451.480891 
L 502.686 451.480891 
L 510.777 451.480891 
L 518.868 451.480891 
L 526.959 451.480891 
L 535.05 451.480891 
L 543.141 451.480891 
L 551.232 451.480891 
L 559.323 451.480891 
L 567.414 451.480891 
L 575.505 451.480891 
L 583.596 451.480891 
L 591.687 451.480891 
L 599.778 451.480891 
L 607.869 451.480891 
L 615.96 451.480891 
L 624.051 451.480891 
L 632.142 451.480891 
L 640.233 451.480891 
L 648.324 451.480891 
L 656.415 451.480891 
L 664.506 451.480891 
L 672.597 451.480891 
L 680.688 451.480891 
L 688.779 451.68033 
L 696.87 451.985913 
L 704.961 452.061803 
L 713.052 452.164232 
L 721.143 452.178829 
L 729.234 452.78024 
L 737.325 454.035029 
L 745.416 454.089703 
L 753.507 454.469712 
L 761.598 454.366977 
L 769.689 454.416559 
L 777.78 454.567293 
L 785.871 456.207185 
L 793.962 456.537044 
L 802.053 456.75934 
L 810.144 456.789952 
L 818.235 456.574225 
L 826.326 456.703976 
L 834.417 458.560408 
L 842.508 458.734018 
L 850.599 459.046696 
L 858.69 459.839742 
L 866.781 460.38116 
L 874.872 459.476785 
L 882.963 460.011412 
L 891.054 461.22415 
L 899.145 460.722925 
L 907.236 461.356076 
L 915.327 461.390249 
L 923.418 461.226209 
L 931.509 461.929332 
" style="fill:none;stroke:#0b7a0a;stroke-linecap:square;stroke-width:2;"/>
   </g>
   <g id="line2d_23">
    <path clip-path="url(#p375581c3b0)" d="M 130.5 467.58049 
L 138.591 467.58049 
L 146.682 467.58049 
L 154.773 467.58049 
L 162.864 467.58049 
L 170.955 467.58049 
L 179.046 467.58049 
L 187.137 467.58049 
L 195.228 467.58049 
L 203.319 467.58049 
L 211.41 467.58049 
L 219.501 467.58049 
L 227.592 467.58049 
L 235.683 467.58049 
L 243.774 467.58049 
L 251.865 467.58049 
L 259.956 467.58049 
L 268.047 467.58049 
L 276.138 467.58049 
L 284.229 467.58049 
L 292.32 467.58049 
L 300.411 467.58049 
L 308.502 467.58049 
L 316.593 467.58049 
L 324.684 467.58049 
L 332.775 467.58049 
L 340.866 467.58049 
L 348.957 467.58049 
L 357.048 467.58049 
L 365.139 467.58049 
L 373.23 467.58049 
L 381.321 467.58049 
L 389.412 467.58049 
L 397.503 467.58049 
L 405.594 467.58049 
L 413.685 467.58049 
L 421.776 467.58049 
L 429.867 467.58049 
L 437.958 467.58049 
L 446.049 467.58049 
L 454.14 467.58049 
L 462.231 467.58049 
L 470.322 467.58049 
L 478.413 467.58049 
L 486.504 467.58049 
L 494.595 467.58049 
L 502.686 467.58049 
L 510.777 467.58049 
L 518.868 467.58049 
L 526.959 467.58049 
L 535.05 467.58049 
L 543.141 467.58049 
L 551.232 467.58049 
L 559.323 467.58049 
L 567.414 467.58049 
L 575.505 467.58049 
L 583.596 467.58049 
L 591.687 467.58049 
L 599.778 467.58049 
L 607.869 467.58049 
L 615.96 467.58049 
L 624.051 467.58049 
L 632.142 467.58049 
L 640.233 467.58049 
L 648.324 467.58049 
L 656.415 467.58049 
L 664.506 467.58049 
L 672.597 467.58049 
L 680.688 467.58049 
L 688.779 467.552251 
L 696.87 467.591025 
L 704.961 467.702488 
L 713.052 467.708848 
L 721.143 467.609631 
L 729.234 467.744807 
L 737.325 467.574916 
L 745.416 467.575819 
L 753.507 467.629477 
L 761.598 467.64543 
L 769.689 467.649436 
L 777.78 467.742301 
L 785.871 467.782069 
L 793.962 467.790819 
L 802.053 467.765398 
L 810.144 467.805286 
L 818.235 467.781493 
L 826.326 467.846071 
L 834.417 468.021599 
L 842.508 467.944466 
L 850.599 467.898992 
L 858.69 467.937313 
L 866.781 467.99801 
L 874.872 468.042544 
L 882.963 467.992187 
L 891.054 468.068745 
L 899.145 468.006467 
L 907.236 468.104062 
L 915.327 468.103843 
L 923.418 468.18571 
L 931.509 468.146178 
" style="fill:none;stroke:#f8ffa2;stroke-linecap:square;stroke-width:2;"/>
   </g>
   <g id="line2d_24">
    <path clip-path="url(#p375581c3b0)" d="M 130.5 457.04147 
L 138.591 457.04147 
L 146.682 457.04147 
L 154.773 457.04147 
L 162.864 457.04147 
L 170.955 457.04147 
L 179.046 457.04147 
L 187.137 457.04147 
L 195.228 457.04147 
L 203.319 457.04147 
L 211.41 457.04147 
L 219.501 457.04147 
L 227.592 457.04147 
L 235.683 457.04147 
L 243.774 457.04147 
L 251.865 457.04147 
L 259.956 457.04147 
L 268.047 457.04147 
L 276.138 457.04147 
L 284.229 457.04147 
L 292.32 457.04147 
L 300.411 457.04147 
L 308.502 457.04147 
L 316.593 457.04147 
L 324.684 457.04147 
L 332.775 457.04147 
L 340.866 457.04147 
L 348.957 457.04147 
L 357.048 457.04147 
L 365.139 457.04147 
L 373.23 457.04147 
L 381.321 457.04147 
L 389.412 457.04147 
L 397.503 457.04147 
L 405.594 457.04147 
L 413.685 457.04147 
L 421.776 457.04147 
L 429.867 457.04147 
L 437.958 457.04147 
L 446.049 457.04147 
L 454.14 457.04147 
L 462.231 457.04147 
L 470.322 457.04147 
L 478.413 457.04147 
L 486.504 457.04147 
L 494.595 457.04147 
L 502.686 457.04147 
L 510.777 457.04147 
L 518.868 457.04147 
L 526.959 457.04147 
L 535.05 457.04147 
L 543.141 457.04147 
L 551.232 457.04147 
L 559.323 457.04147 
L 567.414 457.04147 
L 575.505 457.04147 
L 583.596 457.04147 
L 591.687 457.04147 
L 599.778 457.04147 
L 607.869 457.04147 
L 615.96 457.04147 
L 624.051 457.04147 
L 632.142 457.04147 
L 640.233 457.04147 
L 648.324 457.04147 
L 656.415 457.04147 
L 664.506 457.04147 
L 672.597 457.04147 
L 680.688 457.04147 
L 688.779 457.209566 
L 696.87 457.147881 
L 704.961 457.421771 
L 713.052 457.458097 
L 721.143 456.956458 
L 729.234 456.858558 
L 737.325 457.1895 
L 745.416 457.313954 
L 753.507 457.358218 
L 761.598 457.293472 
L 769.689 457.37701 
L 777.78 457.538898 
L 785.871 458.730284 
L 793.962 458.826525 
L 802.053 458.716892 
L 810.144 459.040755 
L 818.235 459.290772 
L 826.326 459.482907 
L 834.417 461.081883 
L 842.508 461.628362 
L 850.599 462.146723 
L 858.69 462.4463 
L 866.781 462.61286 
L 874.872 462.451308 
L 882.963 463.113944 
L 891.054 463.192168 
L 899.145 464.6601 
L 907.236 464.655258 
L 915.327 464.872236 
L 923.418 464.692715 
L 931.509 464.738441 
" style="fill:none;stroke:#578dc0;stroke-linecap:square;stroke-width:2;"/>
   </g>
   <g id="line2d_25">
    <path clip-path="url(#p375581c3b0)" d="M 130.5 467.208226 
L 138.591 467.208226 
L 146.682 467.208226 
L 154.773 467.208226 
L 162.864 467.208226 
L 170.955 467.208226 
L 179.046 467.208226 
L 187.137 467.208226 
L 195.228 467.208226 
L 203.319 467.208226 
L 211.41 467.208226 
L 219.501 467.208226 
L 227.592 467.208226 
L 235.683 467.208226 
L 243.774 467.208226 
L 251.865 467.208226 
L 259.956 467.208226 
L 268.047 467.208226 
L 276.138 467.208226 
L 284.229 467.208226 
L 292.32 467.208226 
L 300.411 467.208226 
L 308.502 467.208226 
L 316.593 467.208226 
L 324.684 467.208226 
L 332.775 467.208226 
L 340.866 467.208226 
L 348.957 467.208226 
L 357.048 467.208226 
L 365.139 467.208226 
L 373.23 467.208226 
L 381.321 467.208226 
L 389.412 467.208226 
L 397.503 467.208226 
L 405.594 467.208226 
L 413.685 467.208226 
L 421.776 467.208226 
L 429.867 467.208226 
L 437.958 467.208226 
L 446.049 467.208226 
L 454.14 467.208226 
L 462.231 467.208226 
L 470.322 467.208226 
L 478.413 467.208226 
L 486.504 467.208226 
L 494.595 467.208226 
L 502.686 467.208226 
L 510.777 467.208226 
L 518.868 467.208226 
L 526.959 467.208226 
L 535.05 467.208226 
L 543.141 467.208226 
L 551.232 467.208226 
L 559.323 467.208226 
L 567.414 467.208226 
L 575.505 467.208226 
L 583.596 467.208226 
L 591.687 467.208226 
L 599.778 467.208226 
L 607.869 467.208226 
L 615.96 467.208226 
L 624.051 467.208226 
L 632.142 467.208226 
L 640.233 467.208226 
L 648.324 467.208226 
L 656.415 467.208226 
L 664.506 467.208226 
L 672.597 467.208226 
L 680.688 467.208226 
L 688.779 467.133463 
L 696.87 467.185103 
L 704.961 467.248244 
L 713.052 467.242559 
L 721.143 467.281407 
L 729.234 467.312192 
L 737.325 467.673676 
L 745.416 467.619722 
L 753.507 467.578814 
L 761.598 467.581258 
L 769.689 467.576937 
L 777.78 467.565168 
L 785.871 467.58179 
L 793.962 467.55819 
L 802.053 467.555773 
L 810.144 467.620147 
L 818.235 467.414447 
L 826.326 467.454743 
L 834.417 467.709474 
L 842.508 467.898558 
L 850.599 467.946426 
L 858.69 468.009568 
L 866.781 467.976282 
L 874.872 467.93758 
L 882.963 468.000467 
L 891.054 467.932029 
L 899.145 467.687517 
L 907.236 467.742721 
L 915.327 467.819267 
L 923.418 467.695726 
L 931.509 467.710918 
" style="fill:none;stroke:#4e4ad8;stroke-linecap:square;stroke-width:2;"/>
   </g>
   <g id="line2d_26">
    <path clip-path="url(#p375581c3b0)" d="M 130.5 369.065404 
L 138.591 369.065404 
L 146.682 369.065404 
L 154.773 369.065404 
L 162.864 369.065404 
L 170.955 369.065404 
L 179.046 369.065404 
L 187.137 369.065404 
L 195.228 369.065404 
L 203.319 369.065404 
L 211.41 369.065404 
L 219.501 369.065404 
L 227.592 369.065404 
L 235.683 369.065404 
L 243.774 369.065404 
L 251.865 369.065404 
L 259.956 369.065404 
L 268.047 369.065404 
L 276.138 369.065404 
L 284.229 369.065404 
L 292.32 369.065404 
L 300.411 369.065404 
L 308.502 369.065404 
L 316.593 369.065404 
L 324.684 369.065404 
L 332.775 369.065404 
L 340.866 369.065404 
L 348.957 369.065404 
L 357.048 369.065404 
L 365.139 369.065404 
L 373.23 369.065404 
L 381.321 369.065404 
L 389.412 369.065404 
L 397.503 369.065404 
L 405.594 369.065404 
L 413.685 369.065404 
L 421.776 369.065404 
L 429.867 369.065404 
L 437.958 369.065404 
L 446.049 369.065404 
L 454.14 369.065404 
L 462.231 369.065404 
L 470.322 369.065404 
L 478.413 369.065404 
L 486.504 369.065404 
L 494.595 369.065404 
L 502.686 369.065404 
L 510.777 369.065404 
L 518.868 369.065404 
L 526.959 369.065404 
L 535.05 369.065404 
L 543.141 369.065404 
L 551.232 369.065404 
L 559.323 369.065404 
L 567.414 369.065404 
L 575.505 369.065404 
L 583.596 369.065404 
L 591.687 369.065404 
L 599.778 369.065404 
L 607.869 369.065404 
L 615.96 369.065404 
L 624.051 369.065404 
L 632.142 369.065404 
L 640.233 369.065404 
L 648.324 369.065404 
L 656.415 369.065404 
L 664.506 369.065404 
L 672.597 369.065404 
L 680.688 369.065404 
L 688.779 369.451537 
L 696.87 368.968258 
L 704.961 368.443891 
L 713.052 368.032053 
L 721.143 367.446525 
L 729.234 360.938726 
L 737.325 338.55343 
L 745.416 338.622078 
L 753.507 339.535424 
L 761.598 339.595188 
L 769.689 339.903327 
L 777.78 341.829178 
L 785.871 337.210833 
L 793.962 335.437751 
L 802.053 335.474058 
L 810.144 335.881615 
L 818.235 336.539747 
L 826.326 336.696173 
L 834.417 330.5122 
L 842.508 324.003122 
L 850.599 320.716852 
L 858.69 321.442649 
L 866.781 344.225752 
L 874.872 333.504974 
L 882.963 323.745785 
L 891.054 332.85751 
L 899.145 343.42604 
L 907.236 348.66289 
L 915.327 353.575813 
L 923.418 365.965933 
L 931.509 359.72517 
" style="fill:none;stroke:#32b3f7;stroke-linecap:square;stroke-width:2;"/>
   </g>
   <g id="patch_3">
    <path d="M 130.5 468.288 
L 130.5 113.472 
" style="fill:none;stroke:#000000;stroke-linecap:square;stroke-linejoin:miter;stroke-width:0.8;"/>
   </g>
   <g id="patch_4">
    <path d="M 939.6 468.288 
L 939.6 113.472 
" style="fill:none;stroke:#000000;stroke-linecap:square;stroke-linejoin:miter;stroke-width:0.8;"/>
   </g>
   <g id="patch_5">
    <path d="M 130.5 468.288 
L 939.6 468.288 
" style="fill:none;stroke:#000000;stroke-linecap:square;stroke-linejoin:miter;stroke-width:0.8;"/>
   </g>
   <g id="patch_6">
    <path d="M 130.5 113.472 
L 939.6 113.472 
" style="fill:none;stroke:#000000;stroke-linecap:square;stroke-linejoin:miter;stroke-width:0.8;"/>
   </g>
   <g id="text_15">
    <!-- R2 -->
    <defs>
     <path d="M 44.390625 34.1875 
Q 47.5625 33.109375 50.5625 29.59375 
Q 53.5625 26.078125 56.59375 19.921875 
L 66.609375 0 
L 56 0 
L 46.6875 18.703125 
Q 43.0625 26.03125 39.671875 28.421875 
Q 36.28125 30.8125 30.421875 30.8125 
L 19.671875 30.8125 
L 19.671875 0 
L 9.8125 0 
L 9.8125 72.90625 
L 32.078125 72.90625 
Q 44.578125 72.90625 50.734375 67.671875 
Q 56.890625 62.453125 56.890625 51.90625 
Q 56.890625 45.015625 53.6875 40.46875 
Q 50.484375 35.9375 44.390625 34.1875 
z
M 19.671875 64.796875 
L 19.671875 38.921875 
L 32.078125 38.921875 
Q 39.203125 38.921875 42.84375 42.21875 
Q 46.484375 45.515625 46.484375 51.90625 
Q 46.484375 58.296875 42.84375 61.546875 
Q 39.203125 64.796875 32.078125 64.796875 
z
" id="DejaVuSans-82"/>
    </defs>
    <g transform="translate(527.063437 107.472)scale(0.12 -0.12)">
     <use xlink:href="#DejaVuSans-82"/>
     <use x="69.482422" xlink:href="#DejaVuSans-50"/>
    </g>
   </g>
   <g id="legend_1">
    <g id="patch_7">
     <path d="M 152.324219 640.696 
L 917.775781 640.696 
Q 919.775781 640.696 919.775781 638.696 
L 919.775781 595.661625 
Q 919.775781 593.661625 917.775781 593.661625 
L 152.324219 593.661625 
Q 150.324219 593.661625 150.324219 595.661625 
L 150.324219 638.696 
Q 150.324219 640.696 152.324219 640.696 
z
" style="fill:#ffffff;opacity:0.8;stroke:#cccccc;stroke-linejoin:miter;"/>
    </g>
    <g id="line2d_27">
     <path style="fill:none;stroke:#f18670;stroke-linecap:square;stroke-width:2;"/>
    </g>
    <g id="line2d_28"/>
    <g id="text_16">
     <!-- IWR demand mutliplier -->
     <defs>
      <path d="M 9.8125 72.90625 
L 19.671875 72.90625 
L 19.671875 0 
L 9.8125 0 
z
" id="DejaVuSans-73"/>
      <path d="M 3.328125 72.90625 
L 13.28125 72.90625 
L 28.609375 11.28125 
L 43.890625 72.90625 
L 54.984375 72.90625 
L 70.3125 11.28125 
L 85.59375 72.90625 
L 95.609375 72.90625 
L 77.296875 0 
L 64.890625 0 
L 49.515625 63.28125 
L 33.984375 0 
L 21.578125 0 
z
" id="DejaVuSans-87"/>
     </defs>
     <g transform="translate(182.324219 605.260063)scale(0.1 -0.1)">
      <use xlink:href="#DejaVuSans-73"/>
      <use x="29.492188" xlink:href="#DejaVuSans-87"/>
      <use x="128.369141" xlink:href="#DejaVuSans-82"/>
      <use x="197.851562" xlink:href="#DejaVuSans-32"/>
      <use x="229.638672" xlink:href="#DejaVuSans-100"/>
      <use x="293.115234" xlink:href="#DejaVuSans-101"/>
      <use x="354.638672" xlink:href="#DejaVuSans-109"/>
      <use x="452.050781" xlink:href="#DejaVuSans-97"/>
      <use x="513.330078" xlink:href="#DejaVuSans-110"/>
      <use x="576.708984" xlink:href="#DejaVuSans-100"/>
      <use x="640.185547" xlink:href="#DejaVuSans-32"/>
      <use x="671.972656" xlink:href="#DejaVuSans-109"/>
      <use x="769.384766" xlink:href="#DejaVuSans-117"/>
      <use x="832.763672" xlink:href="#DejaVuSans-116"/>
      <use x="871.972656" xlink:href="#DejaVuSans-108"/>
      <use x="899.755859" xlink:href="#DejaVuSans-105"/>
      <use x="927.539062" xlink:href="#DejaVuSans-112"/>
      <use x="991.015625" xlink:href="#DejaVuSans-108"/>
      <use x="1018.798828" xlink:href="#DejaVuSans-105"/>
      <use x="1046.582031" xlink:href="#DejaVuSans-101"/>
      <use x="1108.105469" xlink:href="#DejaVuSans-114"/>
     </g>
    </g>
    <g id="line2d_29">
     <path style="fill:none;stroke:#e24d3f;stroke-linecap:square;stroke-width:2;"/>
    </g>
    <g id="line2d_30"/>
    <g id="text_17">
     <!-- Reservoir loss -->
     <defs>
      <path d="M 44.28125 53.078125 
L 44.28125 44.578125 
Q 40.484375 46.53125 36.375 47.5 
Q 32.28125 48.484375 27.875 48.484375 
Q 21.1875 48.484375 17.84375 46.4375 
Q 14.5 44.390625 14.5 40.28125 
Q 14.5 37.15625 16.890625 35.375 
Q 19.28125 33.59375 26.515625 31.984375 
L 29.59375 31.296875 
Q 39.15625 29.25 43.1875 25.515625 
Q 47.21875 21.78125 47.21875 15.09375 
Q 47.21875 7.46875 41.1875 3.015625 
Q 35.15625 -1.421875 24.609375 -1.421875 
Q 20.21875 -1.421875 15.453125 -0.5625 
Q 10.6875 0.296875 5.421875 2 
L 5.421875 11.28125 
Q 10.40625 8.6875 15.234375 7.390625 
Q 20.0625 6.109375 24.8125 6.109375 
Q 31.15625 6.109375 34.5625 8.28125 
Q 37.984375 10.453125 37.984375 14.40625 
Q 37.984375 18.0625 35.515625 20.015625 
Q 33.0625 21.96875 24.703125 23.78125 
L 21.578125 24.515625 
Q 13.234375 26.265625 9.515625 29.90625 
Q 5.8125 33.546875 5.8125 39.890625 
Q 5.8125 47.609375 11.28125 51.796875 
Q 16.75 56 26.8125 56 
Q 31.78125 56 36.171875 55.265625 
Q 40.578125 54.546875 44.28125 53.078125 
z
" id="DejaVuSans-115"/>
      <path d="M 2.984375 54.6875 
L 12.5 54.6875 
L 29.59375 8.796875 
L 46.6875 54.6875 
L 56.203125 54.6875 
L 35.6875 0 
L 23.484375 0 
z
" id="DejaVuSans-118"/>
     </defs>
     <g transform="translate(182.324219 619.938188)scale(0.1 -0.1)">
      <use xlink:href="#DejaVuSans-82"/>
      <use x="69.419922" xlink:href="#DejaVuSans-101"/>
      <use x="130.943359" xlink:href="#DejaVuSans-115"/>
      <use x="183.042969" xlink:href="#DejaVuSans-101"/>
      <use x="244.566406" xlink:href="#DejaVuSans-114"/>
      <use x="285.679688" xlink:href="#DejaVuSans-118"/>
      <use x="344.859375" xlink:href="#DejaVuSans-111"/>
      <use x="406.041016" xlink:href="#DejaVuSans-105"/>
      <use x="433.824219" xlink:href="#DejaVuSans-114"/>
      <use x="474.9375" xlink:href="#DejaVuSans-32"/>
      <use x="506.724609" xlink:href="#DejaVuSans-108"/>
      <use x="534.507812" xlink:href="#DejaVuSans-111"/>
      <use x="595.689453" xlink:href="#DejaVuSans-115"/>
      <use x="647.789062" xlink:href="#DejaVuSans-115"/>
     </g>
    </g>
    <g id="line2d_31">
     <path style="fill:none;stroke:#cf233e;stroke-linecap:square;stroke-width:2;"/>
    </g>
    <g id="line2d_32"/>
    <g id="text_18">
     <!-- TBD demand multiplier -->
     <defs>
      <path d="M -0.296875 72.90625 
L 61.375 72.90625 
L 61.375 64.59375 
L 35.5 64.59375 
L 35.5 0 
L 25.59375 0 
L 25.59375 64.59375 
L -0.296875 64.59375 
z
" id="DejaVuSans-84"/>
      <path d="M 19.671875 34.8125 
L 19.671875 8.109375 
L 35.5 8.109375 
Q 43.453125 8.109375 47.28125 11.40625 
Q 51.125 14.703125 51.125 21.484375 
Q 51.125 28.328125 47.28125 31.5625 
Q 43.453125 34.8125 35.5 34.8125 
z
M 19.671875 64.796875 
L 19.671875 42.828125 
L 34.28125 42.828125 
Q 41.5 42.828125 45.03125 45.53125 
Q 48.578125 48.25 48.578125 53.8125 
Q 48.578125 59.328125 45.03125 62.0625 
Q 41.5 64.796875 34.28125 64.796875 
z
M 9.8125 72.90625 
L 35.015625 72.90625 
Q 46.296875 72.90625 52.390625 68.21875 
Q 58.5 63.53125 58.5 54.890625 
Q 58.5 48.1875 55.375 44.234375 
Q 52.25 40.28125 46.1875 39.3125 
Q 53.46875 37.75 57.5 32.78125 
Q 61.53125 27.828125 61.53125 20.40625 
Q 61.53125 10.640625 54.890625 5.3125 
Q 48.25 0 35.984375 0 
L 9.8125 0 
z
" id="DejaVuSans-66"/>
      <path d="M 19.671875 64.796875 
L 19.671875 8.109375 
L 31.59375 8.109375 
Q 46.6875 8.109375 53.6875 14.9375 
Q 60.6875 21.78125 60.6875 36.53125 
Q 60.6875 51.171875 53.6875 57.984375 
Q 46.6875 64.796875 31.59375 64.796875 
z
M 9.8125 72.90625 
L 30.078125 72.90625 
Q 51.265625 72.90625 61.171875 64.09375 
Q 71.09375 55.28125 71.09375 36.53125 
Q 71.09375 17.671875 61.125 8.828125 
Q 51.171875 0 30.078125 0 
L 9.8125 0 
z
" id="DejaVuSans-68"/>
     </defs>
     <g transform="translate(182.324219 634.616313)scale(0.1 -0.1)">
      <use xlink:href="#DejaVuSans-84"/>
      <use x="61.083984" xlink:href="#DejaVuSans-66"/>
      <use x="129.6875" xlink:href="#DejaVuSans-68"/>
      <use x="206.689453" xlink:href="#DejaVuSans-32"/>
      <use x="238.476562" xlink:href="#DejaVuSans-100"/>
      <use x="301.953125" xlink:href="#DejaVuSans-101"/>
      <use x="363.476562" xlink:href="#DejaVuSans-109"/>
      <use x="460.888672" xlink:href="#DejaVuSans-97"/>
      <use x="522.167969" xlink:href="#DejaVuSans-110"/>
      <use x="585.546875" xlink:href="#DejaVuSans-100"/>
      <use x="649.023438" xlink:href="#DejaVuSans-32"/>
      <use x="680.810547" xlink:href="#DejaVuSans-109"/>
      <use x="778.222656" xlink:href="#DejaVuSans-117"/>
      <use x="841.601562" xlink:href="#DejaVuSans-108"/>
      <use x="869.384766" xlink:href="#DejaVuSans-116"/>
      <use x="908.59375" xlink:href="#DejaVuSans-105"/>
      <use x="936.376953" xlink:href="#DejaVuSans-112"/>
      <use x="999.853516" xlink:href="#DejaVuSans-108"/>
      <use x="1027.636719" xlink:href="#DejaVuSans-105"/>
      <use x="1055.419922" xlink:href="#DejaVuSans-101"/>
      <use x="1116.943359" xlink:href="#DejaVuSans-114"/>
     </g>
    </g>
    <g id="line2d_33">
     <path style="fill:none;stroke:#681e33;stroke-linecap:square;stroke-width:2;"/>
    </g>
    <g id="line2d_34"/>
    <g id="text_19">
     <!-- M&amp;I demand multiplier -->
     <defs>
      <path d="M 9.8125 72.90625 
L 24.515625 72.90625 
L 43.109375 23.296875 
L 61.8125 72.90625 
L 76.515625 72.90625 
L 76.515625 0 
L 66.890625 0 
L 66.890625 64.015625 
L 48.09375 14.015625 
L 38.1875 14.015625 
L 19.390625 64.015625 
L 19.390625 0 
L 9.8125 0 
z
" id="DejaVuSans-77"/>
      <path d="M 24.3125 39.203125 
Q 19.875 35.25 17.796875 31.3125 
Q 15.71875 27.390625 15.71875 23.09375 
Q 15.71875 15.96875 20.890625 11.234375 
Q 26.078125 6.5 33.890625 6.5 
Q 38.53125 6.5 42.578125 8.03125 
Q 46.625 9.578125 50.203125 12.703125 
z
M 31.203125 44.671875 
L 56 19.28125 
Q 58.890625 23.640625 60.5 28.59375 
Q 62.109375 33.546875 62.40625 39.109375 
L 71.484375 39.109375 
Q 70.90625 32.671875 68.359375 26.359375 
Q 65.828125 20.0625 61.28125 13.921875 
L 74.90625 0 
L 62.59375 0 
L 55.609375 7.171875 
Q 50.53125 2.828125 44.96875 0.703125 
Q 39.40625 -1.421875 33.015625 -1.421875 
Q 21.234375 -1.421875 13.765625 5.296875 
Q 6.296875 12.015625 6.296875 22.515625 
Q 6.296875 28.765625 9.5625 34.25 
Q 12.84375 39.75 19.390625 44.578125 
Q 17.046875 47.65625 15.8125 50.703125 
Q 14.59375 53.765625 14.59375 56.6875 
Q 14.59375 64.59375 20.015625 69.40625 
Q 25.4375 74.21875 34.421875 74.21875 
Q 38.484375 74.21875 42.5 73.34375 
Q 46.53125 72.46875 50.6875 70.703125 
L 50.6875 61.8125 
Q 46.4375 64.109375 42.578125 65.296875 
Q 38.71875 66.5 35.40625 66.5 
Q 30.28125 66.5 27.078125 63.78125 
Q 23.875 61.078125 23.875 56.78125 
Q 23.875 54.296875 25.3125 51.78125 
Q 26.765625 49.265625 31.203125 44.671875 
z
" id="DejaVuSans-38"/>
     </defs>
     <g transform="translate(346.128906 605.260063)scale(0.1 -0.1)">
      <use xlink:href="#DejaVuSans-77"/>
      <use x="86.279297" xlink:href="#DejaVuSans-38"/>
      <use x="164.257812" xlink:href="#DejaVuSans-73"/>
      <use x="193.75" xlink:href="#DejaVuSans-32"/>
      <use x="225.537109" xlink:href="#DejaVuSans-100"/>
      <use x="289.013672" xlink:href="#DejaVuSans-101"/>
      <use x="350.537109" xlink:href="#DejaVuSans-109"/>
      <use x="447.949219" xlink:href="#DejaVuSans-97"/>
      <use x="509.228516" xlink:href="#DejaVuSans-110"/>
      <use x="572.607422" xlink:href="#DejaVuSans-100"/>
      <use x="636.083984" xlink:href="#DejaVuSans-32"/>
      <use x="667.871094" xlink:href="#DejaVuSans-109"/>
      <use x="765.283203" xlink:href="#DejaVuSans-117"/>
      <use x="828.662109" xlink:href="#DejaVuSans-108"/>
      <use x="856.445312" xlink:href="#DejaVuSans-116"/>
      <use x="895.654297" xlink:href="#DejaVuSans-105"/>
      <use x="923.4375" xlink:href="#DejaVuSans-112"/>
      <use x="986.914062" xlink:href="#DejaVuSans-108"/>
      <use x="1014.697266" xlink:href="#DejaVuSans-105"/>
      <use x="1042.480469" xlink:href="#DejaVuSans-101"/>
      <use x="1104.003906" xlink:href="#DejaVuSans-114"/>
     </g>
    </g>
    <g id="line2d_35">
     <path style="fill:none;stroke:#676572;stroke-linecap:square;stroke-width:2;"/>
    </g>
    <g id="line2d_36"/>
    <g id="text_20">
     <!-- Shoshone active -->
     <g transform="translate(346.128906 619.938188)scale(0.1 -0.1)">
      <use xlink:href="#DejaVuSans-83"/>
      <use x="63.476562" xlink:href="#DejaVuSans-104"/>
      <use x="126.855469" xlink:href="#DejaVuSans-111"/>
      <use x="188.037109" xlink:href="#DejaVuSans-115"/>
      <use x="240.136719" xlink:href="#DejaVuSans-104"/>
      <use x="303.515625" xlink:href="#DejaVuSans-111"/>
      <use x="364.697266" xlink:href="#DejaVuSans-110"/>
      <use x="428.076172" xlink:href="#DejaVuSans-101"/>
      <use x="489.599609" xlink:href="#DejaVuSans-32"/>
      <use x="521.386719" xlink:href="#DejaVuSans-97"/>
      <use x="582.666016" xlink:href="#DejaVuSans-99"/>
      <use x="637.646484" xlink:href="#DejaVuSans-116"/>
      <use x="676.855469" xlink:href="#DejaVuSans-105"/>
      <use x="704.638672" xlink:href="#DejaVuSans-118"/>
      <use x="763.818359" xlink:href="#DejaVuSans-101"/>
     </g>
    </g>
    <g id="line2d_37">
     <path style="fill:none;stroke:#f3be22;stroke-linecap:square;stroke-width:2;"/>
    </g>
    <g id="line2d_38"/>
    <g id="text_21">
     <!-- Env. flow senior right -->
     <defs>
      <path d="M 9.8125 72.90625 
L 55.90625 72.90625 
L 55.90625 64.59375 
L 19.671875 64.59375 
L 19.671875 43.015625 
L 54.390625 43.015625 
L 54.390625 34.71875 
L 19.671875 34.71875 
L 19.671875 8.296875 
L 56.78125 8.296875 
L 56.78125 0 
L 9.8125 0 
z
" id="DejaVuSans-69"/>
      <path d="M 37.109375 75.984375 
L 37.109375 68.5 
L 28.515625 68.5 
Q 23.6875 68.5 21.796875 66.546875 
Q 19.921875 64.59375 19.921875 59.515625 
L 19.921875 54.6875 
L 34.71875 54.6875 
L 34.71875 47.703125 
L 19.921875 47.703125 
L 19.921875 0 
L 10.890625 0 
L 10.890625 47.703125 
L 2.296875 47.703125 
L 2.296875 54.6875 
L 10.890625 54.6875 
L 10.890625 58.5 
Q 10.890625 67.625 15.140625 71.796875 
Q 19.390625 75.984375 28.609375 75.984375 
z
" id="DejaVuSans-102"/>
      <path d="M 4.203125 54.6875 
L 13.1875 54.6875 
L 24.421875 12.015625 
L 35.59375 54.6875 
L 46.1875 54.6875 
L 57.421875 12.015625 
L 68.609375 54.6875 
L 77.59375 54.6875 
L 63.28125 0 
L 52.6875 0 
L 40.921875 44.828125 
L 29.109375 0 
L 18.5 0 
z
" id="DejaVuSans-119"/>
     </defs>
     <g transform="translate(346.128906 634.616313)scale(0.1 -0.1)">
      <use xlink:href="#DejaVuSans-69"/>
      <use x="63.183594" xlink:href="#DejaVuSans-110"/>
      <use x="126.5625" xlink:href="#DejaVuSans-118"/>
      <use x="185.632812" xlink:href="#DejaVuSans-46"/>
      <use x="217.419922" xlink:href="#DejaVuSans-32"/>
      <use x="249.207031" xlink:href="#DejaVuSans-102"/>
      <use x="284.412109" xlink:href="#DejaVuSans-108"/>
      <use x="312.195312" xlink:href="#DejaVuSans-111"/>
      <use x="373.376953" xlink:href="#DejaVuSans-119"/>
      <use x="455.164062" xlink:href="#DejaVuSans-32"/>
      <use x="486.951172" xlink:href="#DejaVuSans-115"/>
      <use x="539.050781" xlink:href="#DejaVuSans-101"/>
      <use x="600.574219" xlink:href="#DejaVuSans-110"/>
      <use x="663.953125" xlink:href="#DejaVuSans-105"/>
      <use x="691.736328" xlink:href="#DejaVuSans-111"/>
      <use x="752.917969" xlink:href="#DejaVuSans-114"/>
      <use x="794.03125" xlink:href="#DejaVuSans-32"/>
      <use x="825.818359" xlink:href="#DejaVuSans-114"/>
      <use x="866.931641" xlink:href="#DejaVuSans-105"/>
      <use x="894.714844" xlink:href="#DejaVuSans-103"/>
      <use x="958.191406" xlink:href="#DejaVuSans-104"/>
      <use x="1021.570312" xlink:href="#DejaVuSans-116"/>
     </g>
    </g>
    <g id="line2d_39">
     <path style="fill:none;stroke:#59deba;stroke-linecap:square;stroke-width:2;"/>
    </g>
    <g id="line2d_40"/>
    <g id="text_22">
     <!-- Evaporation delta -->
     <g transform="translate(508.641406 605.260063)scale(0.1 -0.1)">
      <use xlink:href="#DejaVuSans-69"/>
      <use x="63.183594" xlink:href="#DejaVuSans-118"/>
      <use x="122.363281" xlink:href="#DejaVuSans-97"/>
      <use x="183.642578" xlink:href="#DejaVuSans-112"/>
      <use x="247.119141" xlink:href="#DejaVuSans-111"/>
      <use x="308.300781" xlink:href="#DejaVuSans-114"/>
      <use x="349.414062" xlink:href="#DejaVuSans-97"/>
      <use x="410.693359" xlink:href="#DejaVuSans-116"/>
      <use x="449.902344" xlink:href="#DejaVuSans-105"/>
      <use x="477.685547" xlink:href="#DejaVuSans-111"/>
      <use x="538.867188" xlink:href="#DejaVuSans-110"/>
      <use x="602.246094" xlink:href="#DejaVuSans-32"/>
      <use x="634.033203" xlink:href="#DejaVuSans-100"/>
      <use x="697.509766" xlink:href="#DejaVuSans-101"/>
      <use x="759.033203" xlink:href="#DejaVuSans-108"/>
      <use x="786.816406" xlink:href="#DejaVuSans-116"/>
      <use x="826.025391" xlink:href="#DejaVuSans-97"/>
     </g>
    </g>
    <g id="line2d_41">
     <path style="fill:none;stroke:#14015c;stroke-linecap:square;stroke-width:2;"/>
    </g>
    <g id="line2d_42"/>
    <g id="text_23">
     <!-- Dry state mu -->
     <defs>
      <path d="M 32.171875 -5.078125 
Q 28.375 -14.84375 24.75 -17.8125 
Q 21.140625 -20.796875 15.09375 -20.796875 
L 7.90625 -20.796875 
L 7.90625 -13.28125 
L 13.1875 -13.28125 
Q 16.890625 -13.28125 18.9375 -11.515625 
Q 21 -9.765625 23.484375 -3.21875 
L 25.09375 0.875 
L 2.984375 54.6875 
L 12.5 54.6875 
L 29.59375 11.921875 
L 46.6875 54.6875 
L 56.203125 54.6875 
z
" id="DejaVuSans-121"/>
     </defs>
     <g transform="translate(508.641406 619.938188)scale(0.1 -0.1)">
      <use xlink:href="#DejaVuSans-68"/>
      <use x="77.001953" xlink:href="#DejaVuSans-114"/>
      <use x="118.115234" xlink:href="#DejaVuSans-121"/>
      <use x="177.294922" xlink:href="#DejaVuSans-32"/>
      <use x="209.082031" xlink:href="#DejaVuSans-115"/>
      <use x="261.181641" xlink:href="#DejaVuSans-116"/>
      <use x="300.390625" xlink:href="#DejaVuSans-97"/>
      <use x="361.669922" xlink:href="#DejaVuSans-116"/>
      <use x="400.878906" xlink:href="#DejaVuSans-101"/>
      <use x="462.402344" xlink:href="#DejaVuSans-32"/>
      <use x="494.189453" xlink:href="#DejaVuSans-109"/>
      <use x="591.601562" xlink:href="#DejaVuSans-117"/>
     </g>
    </g>
    <g id="line2d_43">
     <path style="fill:none;stroke:#daf8a3;stroke-linecap:square;stroke-width:2;"/>
    </g>
    <g id="line2d_44"/>
    <g id="text_24">
     <!-- Dry state sigma -->
     <g transform="translate(508.641406 634.616313)scale(0.1 -0.1)">
      <use xlink:href="#DejaVuSans-68"/>
      <use x="77.001953" xlink:href="#DejaVuSans-114"/>
      <use x="118.115234" xlink:href="#DejaVuSans-121"/>
      <use x="177.294922" xlink:href="#DejaVuSans-32"/>
      <use x="209.082031" xlink:href="#DejaVuSans-115"/>
      <use x="261.181641" xlink:href="#DejaVuSans-116"/>
      <use x="300.390625" xlink:href="#DejaVuSans-97"/>
      <use x="361.669922" xlink:href="#DejaVuSans-116"/>
      <use x="400.878906" xlink:href="#DejaVuSans-101"/>
      <use x="462.402344" xlink:href="#DejaVuSans-32"/>
      <use x="494.189453" xlink:href="#DejaVuSans-115"/>
      <use x="546.289062" xlink:href="#DejaVuSans-105"/>
      <use x="574.072266" xlink:href="#DejaVuSans-103"/>
      <use x="637.548828" xlink:href="#DejaVuSans-109"/>
      <use x="734.960938" xlink:href="#DejaVuSans-97"/>
     </g>
    </g>
    <g id="line2d_45">
     <path style="fill:none;stroke:#0b7a0a;stroke-linecap:square;stroke-width:2;"/>
    </g>
    <g id="line2d_46"/>
    <g id="text_25">
     <!-- Wet state mu -->
     <g transform="translate(645.374219 605.260063)scale(0.1 -0.1)">
      <use xlink:href="#DejaVuSans-87"/>
      <use x="98.798828" xlink:href="#DejaVuSans-101"/>
      <use x="160.322266" xlink:href="#DejaVuSans-116"/>
      <use x="199.53125" xlink:href="#DejaVuSans-32"/>
      <use x="231.318359" xlink:href="#DejaVuSans-115"/>
      <use x="283.417969" xlink:href="#DejaVuSans-116"/>
      <use x="322.626953" xlink:href="#DejaVuSans-97"/>
      <use x="383.90625" xlink:href="#DejaVuSans-116"/>
      <use x="423.115234" xlink:href="#DejaVuSans-101"/>
      <use x="484.638672" xlink:href="#DejaVuSans-32"/>
      <use x="516.425781" xlink:href="#DejaVuSans-109"/>
      <use x="613.837891" xlink:href="#DejaVuSans-117"/>
     </g>
    </g>
    <g id="line2d_47">
     <path style="fill:none;stroke:#f8ffa2;stroke-linecap:square;stroke-width:2;"/>
    </g>
    <g id="line2d_48"/>
    <g id="text_26">
     <!-- Wet state sigma -->
     <g transform="translate(645.374219 619.938188)scale(0.1 -0.1)">
      <use xlink:href="#DejaVuSans-87"/>
      <use x="98.798828" xlink:href="#DejaVuSans-101"/>
      <use x="160.322266" xlink:href="#DejaVuSans-116"/>
      <use x="199.53125" xlink:href="#DejaVuSans-32"/>
      <use x="231.318359" xlink:href="#DejaVuSans-115"/>
      <use x="283.417969" xlink:href="#DejaVuSans-116"/>
      <use x="322.626953" xlink:href="#DejaVuSans-97"/>
      <use x="383.90625" xlink:href="#DejaVuSans-116"/>
      <use x="423.115234" xlink:href="#DejaVuSans-101"/>
      <use x="484.638672" xlink:href="#DejaVuSans-32"/>
      <use x="516.425781" xlink:href="#DejaVuSans-115"/>
      <use x="568.525391" xlink:href="#DejaVuSans-105"/>
      <use x="596.308594" xlink:href="#DejaVuSans-103"/>
      <use x="659.785156" xlink:href="#DejaVuSans-109"/>
      <use x="757.197266" xlink:href="#DejaVuSans-97"/>
     </g>
    </g>
    <g id="line2d_49">
     <path style="fill:none;stroke:#578dc0;stroke-linecap:square;stroke-width:2;"/>
    </g>
    <g id="line2d_50"/>
    <g id="text_27">
     <!-- Dry-to-dry state prob. -->
     <defs>
      <path d="M 4.890625 31.390625 
L 31.203125 31.390625 
L 31.203125 23.390625 
L 4.890625 23.390625 
z
" id="DejaVuSans-45"/>
      <path d="M 48.6875 27.296875 
Q 48.6875 37.203125 44.609375 42.84375 
Q 40.53125 48.484375 33.40625 48.484375 
Q 26.265625 48.484375 22.1875 42.84375 
Q 18.109375 37.203125 18.109375 27.296875 
Q 18.109375 17.390625 22.1875 11.75 
Q 26.265625 6.109375 33.40625 6.109375 
Q 40.53125 6.109375 44.609375 11.75 
Q 48.6875 17.390625 48.6875 27.296875 
z
M 18.109375 46.390625 
Q 20.953125 51.265625 25.265625 53.625 
Q 29.59375 56 35.59375 56 
Q 45.5625 56 51.78125 48.09375 
Q 58.015625 40.1875 58.015625 27.296875 
Q 58.015625 14.40625 51.78125 6.484375 
Q 45.5625 -1.421875 35.59375 -1.421875 
Q 29.59375 -1.421875 25.265625 0.953125 
Q 20.953125 3.328125 18.109375 8.203125 
L 18.109375 0 
L 9.078125 0 
L 9.078125 75.984375 
L 18.109375 75.984375 
z
" id="DejaVuSans-98"/>
     </defs>
     <g transform="translate(645.374219 634.616313)scale(0.1 -0.1)">
      <use xlink:href="#DejaVuSans-68"/>
      <use x="77.001953" xlink:href="#DejaVuSans-114"/>
      <use x="118.115234" xlink:href="#DejaVuSans-121"/>
      <use x="177.279297" xlink:href="#DejaVuSans-45"/>
      <use x="213.363281" xlink:href="#DejaVuSans-116"/>
      <use x="252.572266" xlink:href="#DejaVuSans-111"/>
      <use x="313.769531" xlink:href="#DejaVuSans-45"/>
      <use x="349.853516" xlink:href="#DejaVuSans-100"/>
      <use x="413.330078" xlink:href="#DejaVuSans-114"/>
      <use x="454.443359" xlink:href="#DejaVuSans-121"/>
      <use x="513.623047" xlink:href="#DejaVuSans-32"/>
      <use x="545.410156" xlink:href="#DejaVuSans-115"/>
      <use x="597.509766" xlink:href="#DejaVuSans-116"/>
      <use x="636.71875" xlink:href="#DejaVuSans-97"/>
      <use x="697.998047" xlink:href="#DejaVuSans-116"/>
      <use x="737.207031" xlink:href="#DejaVuSans-101"/>
      <use x="798.730469" xlink:href="#DejaVuSans-32"/>
      <use x="830.517578" xlink:href="#DejaVuSans-112"/>
      <use x="893.994141" xlink:href="#DejaVuSans-114"/>
      <use x="935.076172" xlink:href="#DejaVuSans-111"/>
      <use x="996.257812" xlink:href="#DejaVuSans-98"/>
      <use x="1059.734375" xlink:href="#DejaVuSans-46"/>
     </g>
    </g>
    <g id="line2d_51">
     <path style="fill:none;stroke:#4e4ad8;stroke-linecap:square;stroke-width:2;"/>
    </g>
    <g id="line2d_52"/>
    <g id="text_28">
     <!-- Wet-to-wet state prob. -->
     <g transform="translate(802.525781 605.260063)scale(0.1 -0.1)">
      <use xlink:href="#DejaVuSans-87"/>
      <use x="98.798828" xlink:href="#DejaVuSans-101"/>
      <use x="160.322266" xlink:href="#DejaVuSans-116"/>
      <use x="199.53125" xlink:href="#DejaVuSans-45"/>
      <use x="235.615234" xlink:href="#DejaVuSans-116"/>
      <use x="274.824219" xlink:href="#DejaVuSans-111"/>
      <use x="336.021484" xlink:href="#DejaVuSans-45"/>
      <use x="372.105469" xlink:href="#DejaVuSans-119"/>
      <use x="453.892578" xlink:href="#DejaVuSans-101"/>
      <use x="515.416016" xlink:href="#DejaVuSans-116"/>
      <use x="554.625" xlink:href="#DejaVuSans-32"/>
      <use x="586.412109" xlink:href="#DejaVuSans-115"/>
      <use x="638.511719" xlink:href="#DejaVuSans-116"/>
      <use x="677.720703" xlink:href="#DejaVuSans-97"/>
      <use x="739" xlink:href="#DejaVuSans-116"/>
      <use x="778.208984" xlink:href="#DejaVuSans-101"/>
      <use x="839.732422" xlink:href="#DejaVuSans-32"/>
      <use x="871.519531" xlink:href="#DejaVuSans-112"/>
      <use x="934.996094" xlink:href="#DejaVuSans-114"/>
      <use x="976.078125" xlink:href="#DejaVuSans-111"/>
      <use x="1037.259766" xlink:href="#DejaVuSans-98"/>
      <use x="1100.736328" xlink:href="#DejaVuSans-46"/>
     </g>
    </g>
    <g id="line2d_53">
     <path style="fill:none;stroke:#32b3f7;stroke-linecap:square;stroke-width:2;"/>
    </g>
    <g id="line2d_54"/>
    <g id="text_29">
     <!-- Earlier snowmelt -->
     <g transform="translate(802.525781 619.938188)scale(0.1 -0.1)">
      <use xlink:href="#DejaVuSans-69"/>
      <use x="63.183594" xlink:href="#DejaVuSans-97"/>
      <use x="124.462891" xlink:href="#DejaVuSans-114"/>
      <use x="165.576172" xlink:href="#DejaVuSans-108"/>
      <use x="193.359375" xlink:href="#DejaVuSans-105"/>
      <use x="221.142578" xlink:href="#DejaVuSans-101"/>
      <use x="282.666016" xlink:href="#DejaVuSans-114"/>
      <use x="323.779297" xlink:href="#DejaVuSans-32"/>
      <use x="355.566406" xlink:href="#DejaVuSans-115"/>
      <use x="407.666016" xlink:href="#DejaVuSans-110"/>
      <use x="471.044922" xlink:href="#DejaVuSans-111"/>
      <use x="532.226562" xlink:href="#DejaVuSans-119"/>
      <use x="614.013672" xlink:href="#DejaVuSans-109"/>
      <use x="711.425781" xlink:href="#DejaVuSans-101"/>
      <use x="772.949219" xlink:href="#DejaVuSans-108"/>
      <use x="800.732422" xlink:href="#DejaVuSans-116"/>
     </g>
    </g>
   </g>
  </g>
  <g id="text_30">
   <!-- Shortage magnitude sensitivity for 3600687 -->
   <defs>
    <path d="M 40.578125 39.3125 
Q 47.65625 37.796875 51.625 33 
Q 55.609375 28.21875 55.609375 21.1875 
Q 55.609375 10.40625 48.1875 4.484375 
Q 40.765625 -1.421875 27.09375 -1.421875 
Q 22.515625 -1.421875 17.65625 -0.515625 
Q 12.796875 0.390625 7.625 2.203125 
L 7.625 11.71875 
Q 11.71875 9.328125 16.59375 8.109375 
Q 21.484375 6.890625 26.8125 6.890625 
Q 36.078125 6.890625 40.9375 10.546875 
Q 45.796875 14.203125 45.796875 21.1875 
Q 45.796875 27.640625 41.28125 31.265625 
Q 36.765625 34.90625 28.71875 34.90625 
L 20.21875 34.90625 
L 20.21875 43.015625 
L 29.109375 43.015625 
Q 36.375 43.015625 40.234375 45.921875 
Q 44.09375 48.828125 44.09375 54.296875 
Q 44.09375 59.90625 40.109375 62.90625 
Q 36.140625 65.921875 28.71875 65.921875 
Q 24.65625 65.921875 20.015625 65.03125 
Q 15.375 64.15625 9.8125 62.3125 
L 9.8125 71.09375 
Q 15.4375 72.65625 20.34375 73.4375 
Q 25.25 74.21875 29.59375 74.21875 
Q 40.828125 74.21875 47.359375 69.109375 
Q 53.90625 64.015625 53.90625 55.328125 
Q 53.90625 49.265625 50.4375 45.09375 
Q 46.96875 40.921875 40.578125 39.3125 
z
" id="DejaVuSans-51"/>
    <path d="M 8.203125 72.90625 
L 55.078125 72.90625 
L 55.078125 68.703125 
L 28.609375 0 
L 18.3125 0 
L 43.21875 64.59375 
L 8.203125 64.59375 
z
" id="DejaVuSans-55"/>
   </defs>
   <g transform="translate(344.81625 23.6775)scale(0.16 -0.16)">
    <use xlink:href="#DejaVuSans-83"/>
    <use x="63.476562" xlink:href="#DejaVuSans-104"/>
    <use x="126.855469" xlink:href="#DejaVuSans-111"/>
    <use x="188.037109" xlink:href="#DejaVuSans-114"/>
    <use x="229.150391" xlink:href="#DejaVuSans-116"/>
    <use x="268.359375" xlink:href="#DejaVuSans-97"/>
    <use x="329.638672" xlink:href="#DejaVuSans-103"/>
    <use x="393.115234" xlink:href="#DejaVuSans-101"/>
    <use x="454.638672" xlink:href="#DejaVuSans-32"/>
    <use x="486.425781" xlink:href="#DejaVuSans-109"/>
    <use x="583.837891" xlink:href="#DejaVuSans-97"/>
    <use x="645.117188" xlink:href="#DejaVuSans-103"/>
    <use x="708.59375" xlink:href="#DejaVuSans-110"/>
    <use x="771.972656" xlink:href="#DejaVuSans-105"/>
    <use x="799.755859" xlink:href="#DejaVuSans-116"/>
    <use x="838.964844" xlink:href="#DejaVuSans-117"/>
    <use x="902.34375" xlink:href="#DejaVuSans-100"/>
    <use x="965.820312" xlink:href="#DejaVuSans-101"/>
    <use x="1027.34375" xlink:href="#DejaVuSans-32"/>
    <use x="1059.130859" xlink:href="#DejaVuSans-115"/>
    <use x="1111.230469" xlink:href="#DejaVuSans-101"/>
    <use x="1172.753906" xlink:href="#DejaVuSans-110"/>
    <use x="1236.132812" xlink:href="#DejaVuSans-115"/>
    <use x="1288.232422" xlink:href="#DejaVuSans-105"/>
    <use x="1316.015625" xlink:href="#DejaVuSans-116"/>
    <use x="1355.224609" xlink:href="#DejaVuSans-105"/>
    <use x="1383.007812" xlink:href="#DejaVuSans-118"/>
    <use x="1442.1875" xlink:href="#DejaVuSans-105"/>
    <use x="1469.970703" xlink:href="#DejaVuSans-116"/>
    <use x="1509.179688" xlink:href="#DejaVuSans-121"/>
    <use x="1568.359375" xlink:href="#DejaVuSans-32"/>
    <use x="1600.146484" xlink:href="#DejaVuSans-102"/>
    <use x="1635.351562" xlink:href="#DejaVuSans-111"/>
    <use x="1696.533203" xlink:href="#DejaVuSans-114"/>
    <use x="1737.646484" xlink:href="#DejaVuSans-32"/>
    <use x="1769.433594" xlink:href="#DejaVuSans-51"/>
    <use x="1833.056641" xlink:href="#DejaVuSans-54"/>
    <use x="1896.679688" xlink:href="#DejaVuSans-48"/>
    <use x="1960.302734" xlink:href="#DejaVuSans-48"/>
    <use x="2023.925781" xlink:href="#DejaVuSans-54"/>
    <use x="2087.548828" xlink:href="#DejaVuSans-56"/>
    <use x="2151.171875" xlink:href="#DejaVuSans-55"/>
   </g>
  </g>
 </g>
 <defs>
  <clipPath id="p375581c3b0">
   <rect height="354.816" width="809.1" x="130.5" y="113.472"/>
  </clipPath>
 </defs>
</svg>
