<?xml version="1.0" encoding="utf-8" standalone="no"?>
<!DOCTYPE svg PUBLIC "-//W3C//DTD SVG 1.1//EN"
  "http://www.w3.org/Graphics/SVG/1.1/DTD/svg11.dtd">
<!-- Created with matplotlib (https://matplotlib.org/) -->
<svg height="576pt" version="1.1" viewBox="0 0 1044 576" width="1044pt" xmlns="http://www.w3.org/2000/svg" xmlns:xlink="http://www.w3.org/1999/xlink">
 <defs>
  <style type="text/css">
*{stroke-linecap:butt;stroke-linejoin:round;}
  </style>
 </defs>
 <g id="figure_1">
  <g id="patch_1">
   <path d="M 0 576 
L 1044 576 
L 1044 0 
L 0 0 
z
" style="fill:#ffffff;"/>
  </g>
  <g id="axes_1">
   <g id="patch_2">
    <path d="M 130.5 468.288 
L 939.6 468.288 
L 939.6 113.472 
L 130.5 113.472 
z
" style="fill:#ffffff;"/>
   </g>
   <g id="matplotlib.axis_1">
    <g id="xtick_1">
     <g id="line2d_1">
      <defs>
       <path d="M 0 0 
L 0 3.5 
" id="maf64d487b6" style="stroke:#000000;stroke-width:0.8;"/>
      </defs>
      <g>
       <use style="stroke:#000000;stroke-width:0.8;" x="130.5" xlink:href="#maf64d487b6" y="468.288"/>
      </g>
     </g>
     <g id="text_1">
      <!-- 0 -->
      <defs>
       <path d="M 31.78125 66.40625 
Q 24.171875 66.40625 20.328125 58.90625 
Q 16.5 51.421875 16.5 36.375 
Q 16.5 21.390625 20.328125 13.890625 
Q 24.171875 6.390625 31.78125 6.390625 
Q 39.453125 6.390625 43.28125 13.890625 
Q 47.125 21.390625 47.125 36.375 
Q 47.125 51.421875 43.28125 58.90625 
Q 39.453125 66.40625 31.78125 66.40625 
z
M 31.78125 74.21875 
Q 44.046875 74.21875 50.515625 64.515625 
Q 56.984375 54.828125 56.984375 36.375 
Q 56.984375 17.96875 50.515625 8.265625 
Q 44.046875 -1.421875 31.78125 -1.421875 
Q 19.53125 -1.421875 13.0625 8.265625 
Q 6.59375 17.96875 6.59375 36.375 
Q 6.59375 54.828125 13.0625 64.515625 
Q 19.53125 74.21875 31.78125 74.21875 
z
" id="DejaVuSans-48"/>
      </defs>
      <g transform="translate(127.31875 482.886437)scale(0.1 -0.1)">
       <use xlink:href="#DejaVuSans-48"/>
      </g>
     </g>
    </g>
    <g id="xtick_2">
     <g id="line2d_2">
      <g>
       <use style="stroke:#000000;stroke-width:0.8;" x="292.32" xlink:href="#maf64d487b6" y="468.288"/>
      </g>
     </g>
     <g id="text_2">
      <!-- 20 -->
      <defs>
       <path d="M 19.1875 8.296875 
L 53.609375 8.296875 
L 53.609375 0 
L 7.328125 0 
L 7.328125 8.296875 
Q 12.9375 14.109375 22.625 23.890625 
Q 32.328125 33.6875 34.8125 36.53125 
Q 39.546875 41.84375 41.421875 45.53125 
Q 43.3125 49.21875 43.3125 52.78125 
Q 43.3125 58.59375 39.234375 62.25 
Q 35.15625 65.921875 28.609375 65.921875 
Q 23.96875 65.921875 18.8125 64.3125 
Q 13.671875 62.703125 7.8125 59.421875 
L 7.8125 69.390625 
Q 13.765625 71.78125 18.9375 73 
Q 24.125 74.21875 28.421875 74.21875 
Q 39.75 74.21875 46.484375 68.546875 
Q 53.21875 62.890625 53.21875 53.421875 
Q 53.21875 48.921875 51.53125 44.890625 
Q 49.859375 40.875 45.40625 35.40625 
Q 44.1875 33.984375 37.640625 27.21875 
Q 31.109375 20.453125 19.1875 8.296875 
z
" id="DejaVuSans-50"/>
      </defs>
      <g transform="translate(285.9575 482.886437)scale(0.1 -0.1)">
       <use xlink:href="#DejaVuSans-50"/>
       <use x="63.623047" xlink:href="#DejaVuSans-48"/>
      </g>
     </g>
    </g>
    <g id="xtick_3">
     <g id="line2d_3">
      <g>
       <use style="stroke:#000000;stroke-width:0.8;" x="454.14" xlink:href="#maf64d487b6" y="468.288"/>
      </g>
     </g>
     <g id="text_3">
      <!-- 40 -->
      <defs>
       <path d="M 37.796875 64.3125 
L 12.890625 25.390625 
L 37.796875 25.390625 
z
M 35.203125 72.90625 
L 47.609375 72.90625 
L 47.609375 25.390625 
L 58.015625 25.390625 
L 58.015625 17.1875 
L 47.609375 17.1875 
L 47.609375 0 
L 37.796875 0 
L 37.796875 17.1875 
L 4.890625 17.1875 
L 4.890625 26.703125 
z
" id="DejaVuSans-52"/>
      </defs>
      <g transform="translate(447.7775 482.886437)scale(0.1 -0.1)">
       <use xlink:href="#DejaVuSans-52"/>
       <use x="63.623047" xlink:href="#DejaVuSans-48"/>
      </g>
     </g>
    </g>
    <g id="xtick_4">
     <g id="line2d_4">
      <g>
       <use style="stroke:#000000;stroke-width:0.8;" x="615.96" xlink:href="#maf64d487b6" y="468.288"/>
      </g>
     </g>
     <g id="text_4">
      <!-- 60 -->
      <defs>
       <path d="M 33.015625 40.375 
Q 26.375 40.375 22.484375 35.828125 
Q 18.609375 31.296875 18.609375 23.390625 
Q 18.609375 15.53125 22.484375 10.953125 
Q 26.375 6.390625 33.015625 6.390625 
Q 39.65625 6.390625 43.53125 10.953125 
Q 47.40625 15.53125 47.40625 23.390625 
Q 47.40625 31.296875 43.53125 35.828125 
Q 39.65625 40.375 33.015625 40.375 
z
M 52.59375 71.296875 
L 52.59375 62.3125 
Q 48.875 64.0625 45.09375 64.984375 
Q 41.3125 65.921875 37.59375 65.921875 
Q 27.828125 65.921875 22.671875 59.328125 
Q 17.53125 52.734375 16.796875 39.40625 
Q 19.671875 43.65625 24.015625 45.921875 
Q 28.375 48.1875 33.59375 48.1875 
Q 44.578125 48.1875 50.953125 41.515625 
Q 57.328125 34.859375 57.328125 23.390625 
Q 57.328125 12.15625 50.6875 5.359375 
Q 44.046875 -1.421875 33.015625 -1.421875 
Q 20.359375 -1.421875 13.671875 8.265625 
Q 6.984375 17.96875 6.984375 36.375 
Q 6.984375 53.65625 15.1875 63.9375 
Q 23.390625 74.21875 37.203125 74.21875 
Q 40.921875 74.21875 44.703125 73.484375 
Q 48.484375 72.75 52.59375 71.296875 
z
" id="DejaVuSans-54"/>
      </defs>
      <g transform="translate(609.5975 482.886437)scale(0.1 -0.1)">
       <use xlink:href="#DejaVuSans-54"/>
       <use x="63.623047" xlink:href="#DejaVuSans-48"/>
      </g>
     </g>
    </g>
    <g id="xtick_5">
     <g id="line2d_5">
      <g>
       <use style="stroke:#000000;stroke-width:0.8;" x="777.78" xlink:href="#maf64d487b6" y="468.288"/>
      </g>
     </g>
     <g id="text_5">
      <!-- 80 -->
      <defs>
       <path d="M 31.78125 34.625 
Q 24.75 34.625 20.71875 30.859375 
Q 16.703125 27.09375 16.703125 20.515625 
Q 16.703125 13.921875 20.71875 10.15625 
Q 24.75 6.390625 31.78125 6.390625 
Q 38.8125 6.390625 42.859375 10.171875 
Q 46.921875 13.96875 46.921875 20.515625 
Q 46.921875 27.09375 42.890625 30.859375 
Q 38.875 34.625 31.78125 34.625 
z
M 21.921875 38.8125 
Q 15.578125 40.375 12.03125 44.71875 
Q 8.5 49.078125 8.5 55.328125 
Q 8.5 64.0625 14.71875 69.140625 
Q 20.953125 74.21875 31.78125 74.21875 
Q 42.671875 74.21875 48.875 69.140625 
Q 55.078125 64.0625 55.078125 55.328125 
Q 55.078125 49.078125 51.53125 44.71875 
Q 48 40.375 41.703125 38.8125 
Q 48.828125 37.15625 52.796875 32.3125 
Q 56.78125 27.484375 56.78125 20.515625 
Q 56.78125 9.90625 50.3125 4.234375 
Q 43.84375 -1.421875 31.78125 -1.421875 
Q 19.734375 -1.421875 13.25 4.234375 
Q 6.78125 9.90625 6.78125 20.515625 
Q 6.78125 27.484375 10.78125 32.3125 
Q 14.796875 37.15625 21.921875 38.8125 
z
M 18.3125 54.390625 
Q 18.3125 48.734375 21.84375 45.5625 
Q 25.390625 42.390625 31.78125 42.390625 
Q 38.140625 42.390625 41.71875 45.5625 
Q 45.3125 48.734375 45.3125 54.390625 
Q 45.3125 60.0625 41.71875 63.234375 
Q 38.140625 66.40625 31.78125 66.40625 
Q 25.390625 66.40625 21.84375 63.234375 
Q 18.3125 60.0625 18.3125 54.390625 
z
" id="DejaVuSans-56"/>
      </defs>
      <g transform="translate(771.4175 482.886437)scale(0.1 -0.1)">
       <use xlink:href="#DejaVuSans-56"/>
       <use x="63.623047" xlink:href="#DejaVuSans-48"/>
      </g>
     </g>
    </g>
    <g id="xtick_6">
     <g id="line2d_6">
      <g>
       <use style="stroke:#000000;stroke-width:0.8;" x="939.6" xlink:href="#maf64d487b6" y="468.288"/>
      </g>
     </g>
     <g id="text_6">
      <!-- 100 -->
      <defs>
       <path d="M 12.40625 8.296875 
L 28.515625 8.296875 
L 28.515625 63.921875 
L 10.984375 60.40625 
L 10.984375 69.390625 
L 28.421875 72.90625 
L 38.28125 72.90625 
L 38.28125 8.296875 
L 54.390625 8.296875 
L 54.390625 0 
L 12.40625 0 
z
" id="DejaVuSans-49"/>
      </defs>
      <g transform="translate(930.05625 482.886437)scale(0.1 -0.1)">
       <use xlink:href="#DejaVuSans-49"/>
       <use x="63.623047" xlink:href="#DejaVuSans-48"/>
       <use x="127.246094" xlink:href="#DejaVuSans-48"/>
      </g>
     </g>
    </g>
    <g id="text_7">
     <!-- Shortage magnitude percentile -->
     <defs>
      <path d="M 53.515625 70.515625 
L 53.515625 60.890625 
Q 47.90625 63.578125 42.921875 64.890625 
Q 37.9375 66.21875 33.296875 66.21875 
Q 25.25 66.21875 20.875 63.09375 
Q 16.5 59.96875 16.5 54.203125 
Q 16.5 49.359375 19.40625 46.890625 
Q 22.3125 44.4375 30.421875 42.921875 
L 36.375 41.703125 
Q 47.40625 39.59375 52.65625 34.296875 
Q 57.90625 29 57.90625 20.125 
Q 57.90625 9.515625 50.796875 4.046875 
Q 43.703125 -1.421875 29.984375 -1.421875 
Q 24.8125 -1.421875 18.96875 -0.25 
Q 13.140625 0.921875 6.890625 3.21875 
L 6.890625 13.375 
Q 12.890625 10.015625 18.65625 8.296875 
Q 24.421875 6.59375 29.984375 6.59375 
Q 38.421875 6.59375 43.015625 9.90625 
Q 47.609375 13.234375 47.609375 19.390625 
Q 47.609375 24.75 44.3125 27.78125 
Q 41.015625 30.8125 33.5 32.328125 
L 27.484375 33.5 
Q 16.453125 35.6875 11.515625 40.375 
Q 6.59375 45.0625 6.59375 53.421875 
Q 6.59375 63.09375 13.40625 68.65625 
Q 20.21875 74.21875 32.171875 74.21875 
Q 37.3125 74.21875 42.625 73.28125 
Q 47.953125 72.359375 53.515625 70.515625 
z
" id="DejaVuSans-83"/>
      <path d="M 54.890625 33.015625 
L 54.890625 0 
L 45.90625 0 
L 45.90625 32.71875 
Q 45.90625 40.484375 42.875 44.328125 
Q 39.84375 48.1875 33.796875 48.1875 
Q 26.515625 48.1875 22.3125 43.546875 
Q 18.109375 38.921875 18.109375 30.90625 
L 18.109375 0 
L 9.078125 0 
L 9.078125 75.984375 
L 18.109375 75.984375 
L 18.109375 46.1875 
Q 21.34375 51.125 25.703125 53.5625 
Q 30.078125 56 35.796875 56 
Q 45.21875 56 50.046875 50.171875 
Q 54.890625 44.34375 54.890625 33.015625 
z
" id="DejaVuSans-104"/>
      <path d="M 30.609375 48.390625 
Q 23.390625 48.390625 19.1875 42.75 
Q 14.984375 37.109375 14.984375 27.296875 
Q 14.984375 17.484375 19.15625 11.84375 
Q 23.34375 6.203125 30.609375 6.203125 
Q 37.796875 6.203125 41.984375 11.859375 
Q 46.1875 17.53125 46.1875 27.296875 
Q 46.1875 37.015625 41.984375 42.703125 
Q 37.796875 48.390625 30.609375 48.390625 
z
M 30.609375 56 
Q 42.328125 56 49.015625 48.375 
Q 55.71875 40.765625 55.71875 27.296875 
Q 55.71875 13.875 49.015625 6.21875 
Q 42.328125 -1.421875 30.609375 -1.421875 
Q 18.84375 -1.421875 12.171875 6.21875 
Q 5.515625 13.875 5.515625 27.296875 
Q 5.515625 40.765625 12.171875 48.375 
Q 18.84375 56 30.609375 56 
z
" id="DejaVuSans-111"/>
      <path d="M 41.109375 46.296875 
Q 39.59375 47.171875 37.8125 47.578125 
Q 36.03125 48 33.890625 48 
Q 26.265625 48 22.1875 43.046875 
Q 18.109375 38.09375 18.109375 28.8125 
L 18.109375 0 
L 9.078125 0 
L 9.078125 54.6875 
L 18.109375 54.6875 
L 18.109375 46.1875 
Q 20.953125 51.171875 25.484375 53.578125 
Q 30.03125 56 36.53125 56 
Q 37.453125 56 38.578125 55.875 
Q 39.703125 55.765625 41.0625 55.515625 
z
" id="DejaVuSans-114"/>
      <path d="M 18.3125 70.21875 
L 18.3125 54.6875 
L 36.8125 54.6875 
L 36.8125 47.703125 
L 18.3125 47.703125 
L 18.3125 18.015625 
Q 18.3125 11.328125 20.140625 9.421875 
Q 21.96875 7.515625 27.59375 7.515625 
L 36.8125 7.515625 
L 36.8125 0 
L 27.59375 0 
Q 17.1875 0 13.234375 3.875 
Q 9.28125 7.765625 9.28125 18.015625 
L 9.28125 47.703125 
L 2.6875 47.703125 
L 2.6875 54.6875 
L 9.28125 54.6875 
L 9.28125 70.21875 
z
" id="DejaVuSans-116"/>
      <path d="M 34.28125 27.484375 
Q 23.390625 27.484375 19.1875 25 
Q 14.984375 22.515625 14.984375 16.5 
Q 14.984375 11.71875 18.140625 8.90625 
Q 21.296875 6.109375 26.703125 6.109375 
Q 34.1875 6.109375 38.703125 11.40625 
Q 43.21875 16.703125 43.21875 25.484375 
L 43.21875 27.484375 
z
M 52.203125 31.203125 
L 52.203125 0 
L 43.21875 0 
L 43.21875 8.296875 
Q 40.140625 3.328125 35.546875 0.953125 
Q 30.953125 -1.421875 24.3125 -1.421875 
Q 15.921875 -1.421875 10.953125 3.296875 
Q 6 8.015625 6 15.921875 
Q 6 25.140625 12.171875 29.828125 
Q 18.359375 34.515625 30.609375 34.515625 
L 43.21875 34.515625 
L 43.21875 35.40625 
Q 43.21875 41.609375 39.140625 45 
Q 35.0625 48.390625 27.6875 48.390625 
Q 23 48.390625 18.546875 47.265625 
Q 14.109375 46.140625 10.015625 43.890625 
L 10.015625 52.203125 
Q 14.9375 54.109375 19.578125 55.046875 
Q 24.21875 56 28.609375 56 
Q 40.484375 56 46.34375 49.84375 
Q 52.203125 43.703125 52.203125 31.203125 
z
" id="DejaVuSans-97"/>
      <path d="M 45.40625 27.984375 
Q 45.40625 37.75 41.375 43.109375 
Q 37.359375 48.484375 30.078125 48.484375 
Q 22.859375 48.484375 18.828125 43.109375 
Q 14.796875 37.75 14.796875 27.984375 
Q 14.796875 18.265625 18.828125 12.890625 
Q 22.859375 7.515625 30.078125 7.515625 
Q 37.359375 7.515625 41.375 12.890625 
Q 45.40625 18.265625 45.40625 27.984375 
z
M 54.390625 6.78125 
Q 54.390625 -7.171875 48.1875 -13.984375 
Q 42 -20.796875 29.203125 -20.796875 
Q 24.46875 -20.796875 20.265625 -20.09375 
Q 16.0625 -19.390625 12.109375 -17.921875 
L 12.109375 -9.1875 
Q 16.0625 -11.328125 19.921875 -12.34375 
Q 23.78125 -13.375 27.78125 -13.375 
Q 36.625 -13.375 41.015625 -8.765625 
Q 45.40625 -4.15625 45.40625 5.171875 
L 45.40625 9.625 
Q 42.625 4.78125 38.28125 2.390625 
Q 33.9375 0 27.875 0 
Q 17.828125 0 11.671875 7.65625 
Q 5.515625 15.328125 5.515625 27.984375 
Q 5.515625 40.671875 11.671875 48.328125 
Q 17.828125 56 27.875 56 
Q 33.9375 56 38.28125 53.609375 
Q 42.625 51.21875 45.40625 46.390625 
L 45.40625 54.6875 
L 54.390625 54.6875 
z
" id="DejaVuSans-103"/>
      <path d="M 56.203125 29.59375 
L 56.203125 25.203125 
L 14.890625 25.203125 
Q 15.484375 15.921875 20.484375 11.0625 
Q 25.484375 6.203125 34.421875 6.203125 
Q 39.59375 6.203125 44.453125 7.46875 
Q 49.3125 8.734375 54.109375 11.28125 
L 54.109375 2.78125 
Q 49.265625 0.734375 44.1875 -0.34375 
Q 39.109375 -1.421875 33.890625 -1.421875 
Q 20.796875 -1.421875 13.15625 6.1875 
Q 5.515625 13.8125 5.515625 26.8125 
Q 5.515625 40.234375 12.765625 48.109375 
Q 20.015625 56 32.328125 56 
Q 43.359375 56 49.78125 48.890625 
Q 56.203125 41.796875 56.203125 29.59375 
z
M 47.21875 32.234375 
Q 47.125 39.59375 43.09375 43.984375 
Q 39.0625 48.390625 32.421875 48.390625 
Q 24.90625 48.390625 20.390625 44.140625 
Q 15.875 39.890625 15.1875 32.171875 
z
" id="DejaVuSans-101"/>
      <path id="DejaVuSans-32"/>
      <path d="M 52 44.1875 
Q 55.375 50.25 60.0625 53.125 
Q 64.75 56 71.09375 56 
Q 79.640625 56 84.28125 50.015625 
Q 88.921875 44.046875 88.921875 33.015625 
L 88.921875 0 
L 79.890625 0 
L 79.890625 32.71875 
Q 79.890625 40.578125 77.09375 44.375 
Q 74.3125 48.1875 68.609375 48.1875 
Q 61.625 48.1875 57.5625 43.546875 
Q 53.515625 38.921875 53.515625 30.90625 
L 53.515625 0 
L 44.484375 0 
L 44.484375 32.71875 
Q 44.484375 40.625 41.703125 44.40625 
Q 38.921875 48.1875 33.109375 48.1875 
Q 26.21875 48.1875 22.15625 43.53125 
Q 18.109375 38.875 18.109375 30.90625 
L 18.109375 0 
L 9.078125 0 
L 9.078125 54.6875 
L 18.109375 54.6875 
L 18.109375 46.1875 
Q 21.1875 51.21875 25.484375 53.609375 
Q 29.78125 56 35.6875 56 
Q 41.65625 56 45.828125 52.96875 
Q 50 49.953125 52 44.1875 
z
" id="DejaVuSans-109"/>
      <path d="M 54.890625 33.015625 
L 54.890625 0 
L 45.90625 0 
L 45.90625 32.71875 
Q 45.90625 40.484375 42.875 44.328125 
Q 39.84375 48.1875 33.796875 48.1875 
Q 26.515625 48.1875 22.3125 43.546875 
Q 18.109375 38.921875 18.109375 30.90625 
L 18.109375 0 
L 9.078125 0 
L 9.078125 54.6875 
L 18.109375 54.6875 
L 18.109375 46.1875 
Q 21.34375 51.125 25.703125 53.5625 
Q 30.078125 56 35.796875 56 
Q 45.21875 56 50.046875 50.171875 
Q 54.890625 44.34375 54.890625 33.015625 
z
" id="DejaVuSans-110"/>
      <path d="M 9.421875 54.6875 
L 18.40625 54.6875 
L 18.40625 0 
L 9.421875 0 
z
M 9.421875 75.984375 
L 18.40625 75.984375 
L 18.40625 64.59375 
L 9.421875 64.59375 
z
" id="DejaVuSans-105"/>
      <path d="M 8.5 21.578125 
L 8.5 54.6875 
L 17.484375 54.6875 
L 17.484375 21.921875 
Q 17.484375 14.15625 20.5 10.265625 
Q 23.53125 6.390625 29.59375 6.390625 
Q 36.859375 6.390625 41.078125 11.03125 
Q 45.3125 15.671875 45.3125 23.6875 
L 45.3125 54.6875 
L 54.296875 54.6875 
L 54.296875 0 
L 45.3125 0 
L 45.3125 8.40625 
Q 42.046875 3.421875 37.71875 1 
Q 33.40625 -1.421875 27.6875 -1.421875 
Q 18.265625 -1.421875 13.375 4.4375 
Q 8.5 10.296875 8.5 21.578125 
z
M 31.109375 56 
z
" id="DejaVuSans-117"/>
      <path d="M 45.40625 46.390625 
L 45.40625 75.984375 
L 54.390625 75.984375 
L 54.390625 0 
L 45.40625 0 
L 45.40625 8.203125 
Q 42.578125 3.328125 38.25 0.953125 
Q 33.9375 -1.421875 27.875 -1.421875 
Q 17.96875 -1.421875 11.734375 6.484375 
Q 5.515625 14.40625 5.515625 27.296875 
Q 5.515625 40.1875 11.734375 48.09375 
Q 17.96875 56 27.875 56 
Q 33.9375 56 38.25 53.625 
Q 42.578125 51.265625 45.40625 46.390625 
z
M 14.796875 27.296875 
Q 14.796875 17.390625 18.875 11.75 
Q 22.953125 6.109375 30.078125 6.109375 
Q 37.203125 6.109375 41.296875 11.75 
Q 45.40625 17.390625 45.40625 27.296875 
Q 45.40625 37.203125 41.296875 42.84375 
Q 37.203125 48.484375 30.078125 48.484375 
Q 22.953125 48.484375 18.875 42.84375 
Q 14.796875 37.203125 14.796875 27.296875 
z
" id="DejaVuSans-100"/>
      <path d="M 18.109375 8.203125 
L 18.109375 -20.796875 
L 9.078125 -20.796875 
L 9.078125 54.6875 
L 18.109375 54.6875 
L 18.109375 46.390625 
Q 20.953125 51.265625 25.265625 53.625 
Q 29.59375 56 35.59375 56 
Q 45.5625 56 51.78125 48.09375 
Q 58.015625 40.1875 58.015625 27.296875 
Q 58.015625 14.40625 51.78125 6.484375 
Q 45.5625 -1.421875 35.59375 -1.421875 
Q 29.59375 -1.421875 25.265625 0.953125 
Q 20.953125 3.328125 18.109375 8.203125 
z
M 48.6875 27.296875 
Q 48.6875 37.203125 44.609375 42.84375 
Q 40.53125 48.484375 33.40625 48.484375 
Q 26.265625 48.484375 22.1875 42.84375 
Q 18.109375 37.203125 18.109375 27.296875 
Q 18.109375 17.390625 22.1875 11.75 
Q 26.265625 6.109375 33.40625 6.109375 
Q 40.53125 6.109375 44.609375 11.75 
Q 48.6875 17.390625 48.6875 27.296875 
z
" id="DejaVuSans-112"/>
      <path d="M 48.78125 52.59375 
L 48.78125 44.1875 
Q 44.96875 46.296875 41.140625 47.34375 
Q 37.3125 48.390625 33.40625 48.390625 
Q 24.65625 48.390625 19.8125 42.84375 
Q 14.984375 37.3125 14.984375 27.296875 
Q 14.984375 17.28125 19.8125 11.734375 
Q 24.65625 6.203125 33.40625 6.203125 
Q 37.3125 6.203125 41.140625 7.25 
Q 44.96875 8.296875 48.78125 10.40625 
L 48.78125 2.09375 
Q 45.015625 0.34375 40.984375 -0.53125 
Q 36.96875 -1.421875 32.421875 -1.421875 
Q 20.0625 -1.421875 12.78125 6.34375 
Q 5.515625 14.109375 5.515625 27.296875 
Q 5.515625 40.671875 12.859375 48.328125 
Q 20.21875 56 33.015625 56 
Q 37.15625 56 41.109375 55.140625 
Q 45.0625 54.296875 48.78125 52.59375 
z
" id="DejaVuSans-99"/>
      <path d="M 9.421875 75.984375 
L 18.40625 75.984375 
L 18.40625 0 
L 9.421875 0 
z
" id="DejaVuSans-108"/>
     </defs>
     <g transform="translate(410.13625 501.123625)scale(0.16 -0.16)">
      <use xlink:href="#DejaVuSans-83"/>
      <use x="63.476562" xlink:href="#DejaVuSans-104"/>
      <use x="126.855469" xlink:href="#DejaVuSans-111"/>
      <use x="188.037109" xlink:href="#DejaVuSans-114"/>
      <use x="229.150391" xlink:href="#DejaVuSans-116"/>
      <use x="268.359375" xlink:href="#DejaVuSans-97"/>
      <use x="329.638672" xlink:href="#DejaVuSans-103"/>
      <use x="393.115234" xlink:href="#DejaVuSans-101"/>
      <use x="454.638672" xlink:href="#DejaVuSans-32"/>
      <use x="486.425781" xlink:href="#DejaVuSans-109"/>
      <use x="583.837891" xlink:href="#DejaVuSans-97"/>
      <use x="645.117188" xlink:href="#DejaVuSans-103"/>
      <use x="708.59375" xlink:href="#DejaVuSans-110"/>
      <use x="771.972656" xlink:href="#DejaVuSans-105"/>
      <use x="799.755859" xlink:href="#DejaVuSans-116"/>
      <use x="838.964844" xlink:href="#DejaVuSans-117"/>
      <use x="902.34375" xlink:href="#DejaVuSans-100"/>
      <use x="965.820312" xlink:href="#DejaVuSans-101"/>
      <use x="1027.34375" xlink:href="#DejaVuSans-32"/>
      <use x="1059.130859" xlink:href="#DejaVuSans-112"/>
      <use x="1122.607422" xlink:href="#DejaVuSans-101"/>
      <use x="1184.130859" xlink:href="#DejaVuSans-114"/>
      <use x="1225.212891" xlink:href="#DejaVuSans-99"/>
      <use x="1280.193359" xlink:href="#DejaVuSans-101"/>
      <use x="1341.716797" xlink:href="#DejaVuSans-110"/>
      <use x="1405.095703" xlink:href="#DejaVuSans-116"/>
      <use x="1444.304688" xlink:href="#DejaVuSans-105"/>
      <use x="1472.087891" xlink:href="#DejaVuSans-108"/>
      <use x="1499.871094" xlink:href="#DejaVuSans-101"/>
     </g>
    </g>
   </g>
   <g id="matplotlib.axis_2">
    <g id="ytick_1">
     <g id="line2d_7">
      <defs>
       <path d="M 0 0 
L -3.5 0 
" id="m7c5708403e" style="stroke:#000000;stroke-width:0.8;"/>
      </defs>
      <g>
       <use style="stroke:#000000;stroke-width:0.8;" x="130.5" xlink:href="#m7c5708403e" y="468.288"/>
      </g>
     </g>
     <g id="text_8">
      <!-- 0.0 -->
      <defs>
       <path d="M 10.6875 12.40625 
L 21 12.40625 
L 21 0 
L 10.6875 0 
z
" id="DejaVuSans-46"/>
      </defs>
      <g transform="translate(107.596875 472.087219)scale(0.1 -0.1)">
       <use xlink:href="#DejaVuSans-48"/>
       <use x="63.623047" xlink:href="#DejaVuSans-46"/>
       <use x="95.410156" xlink:href="#DejaVuSans-48"/>
      </g>
     </g>
    </g>
    <g id="ytick_2">
     <g id="line2d_8">
      <g>
       <use style="stroke:#000000;stroke-width:0.8;" x="130.5" xlink:href="#m7c5708403e" y="397.3248"/>
      </g>
     </g>
     <g id="text_9">
      <!-- 0.2 -->
      <g transform="translate(107.596875 401.124019)scale(0.1 -0.1)">
       <use xlink:href="#DejaVuSans-48"/>
       <use x="63.623047" xlink:href="#DejaVuSans-46"/>
       <use x="95.410156" xlink:href="#DejaVuSans-50"/>
      </g>
     </g>
    </g>
    <g id="ytick_3">
     <g id="line2d_9">
      <g>
       <use style="stroke:#000000;stroke-width:0.8;" x="130.5" xlink:href="#m7c5708403e" y="326.3616"/>
      </g>
     </g>
     <g id="text_10">
      <!-- 0.4 -->
      <g transform="translate(107.596875 330.160819)scale(0.1 -0.1)">
       <use xlink:href="#DejaVuSans-48"/>
       <use x="63.623047" xlink:href="#DejaVuSans-46"/>
       <use x="95.410156" xlink:href="#DejaVuSans-52"/>
      </g>
     </g>
    </g>
    <g id="ytick_4">
     <g id="line2d_10">
      <g>
       <use style="stroke:#000000;stroke-width:0.8;" x="130.5" xlink:href="#m7c5708403e" y="255.3984"/>
      </g>
     </g>
     <g id="text_11">
      <!-- 0.6 -->
      <g transform="translate(107.596875 259.197619)scale(0.1 -0.1)">
       <use xlink:href="#DejaVuSans-48"/>
       <use x="63.623047" xlink:href="#DejaVuSans-46"/>
       <use x="95.410156" xlink:href="#DejaVuSans-54"/>
      </g>
     </g>
    </g>
    <g id="ytick_5">
     <g id="line2d_11">
      <g>
       <use style="stroke:#000000;stroke-width:0.8;" x="130.5" xlink:href="#m7c5708403e" y="184.4352"/>
      </g>
     </g>
     <g id="text_12">
      <!-- 0.8 -->
      <g transform="translate(107.596875 188.234419)scale(0.1 -0.1)">
       <use xlink:href="#DejaVuSans-48"/>
       <use x="63.623047" xlink:href="#DejaVuSans-46"/>
       <use x="95.410156" xlink:href="#DejaVuSans-56"/>
      </g>
     </g>
    </g>
    <g id="ytick_6">
     <g id="line2d_12">
      <g>
       <use style="stroke:#000000;stroke-width:0.8;" x="130.5" xlink:href="#m7c5708403e" y="113.472"/>
      </g>
     </g>
     <g id="text_13">
      <!-- 1.0 -->
      <g transform="translate(107.596875 117.271219)scale(0.1 -0.1)">
       <use xlink:href="#DejaVuSans-49"/>
       <use x="63.623047" xlink:href="#DejaVuSans-46"/>
       <use x="95.410156" xlink:href="#DejaVuSans-48"/>
      </g>
     </g>
    </g>
    <g id="text_14">
     <!-- Variance explained -->
     <defs>
      <path d="M 28.609375 0 
L 0.78125 72.90625 
L 11.078125 72.90625 
L 34.1875 11.53125 
L 57.328125 72.90625 
L 67.578125 72.90625 
L 39.796875 0 
z
" id="DejaVuSans-86"/>
      <path d="M 54.890625 54.6875 
L 35.109375 28.078125 
L 55.90625 0 
L 45.3125 0 
L 29.390625 21.484375 
L 13.484375 0 
L 2.875 0 
L 24.125 28.609375 
L 4.6875 54.6875 
L 15.28125 54.6875 
L 29.78125 35.203125 
L 44.28125 54.6875 
z
" id="DejaVuSans-120"/>
     </defs>
     <g transform="translate(100.269375 367.7475)rotate(-90)scale(0.16 -0.16)">
      <use xlink:href="#DejaVuSans-86"/>
      <use x="68.298828" xlink:href="#DejaVuSans-97"/>
      <use x="129.578125" xlink:href="#DejaVuSans-114"/>
      <use x="170.691406" xlink:href="#DejaVuSans-105"/>
      <use x="198.474609" xlink:href="#DejaVuSans-97"/>
      <use x="259.753906" xlink:href="#DejaVuSans-110"/>
      <use x="323.132812" xlink:href="#DejaVuSans-99"/>
      <use x="378.113281" xlink:href="#DejaVuSans-101"/>
      <use x="439.636719" xlink:href="#DejaVuSans-32"/>
      <use x="471.423828" xlink:href="#DejaVuSans-101"/>
      <use x="532.931641" xlink:href="#DejaVuSans-120"/>
      <use x="592.111328" xlink:href="#DejaVuSans-112"/>
      <use x="655.587891" xlink:href="#DejaVuSans-108"/>
      <use x="683.371094" xlink:href="#DejaVuSans-97"/>
      <use x="744.650391" xlink:href="#DejaVuSans-105"/>
      <use x="772.433594" xlink:href="#DejaVuSans-110"/>
      <use x="835.8125" xlink:href="#DejaVuSans-101"/>
      <use x="897.335938" xlink:href="#DejaVuSans-100"/>
     </g>
    </g>
   </g>
   <g id="line2d_13">
    <path clip-path="url(#p7c96d28c62)" d="M 130.5 467.420887 
L 138.591 468.080336 
L 146.682 468.047058 
L 154.773 468.002524 
L 162.864 467.982539 
L 170.955 467.982563 
L 179.046 467.989609 
L 187.137 468.043546 
L 195.228 468.05468 
L 203.319 468.059258 
L 211.41 468.056289 
L 219.501 468.053363 
L 227.592 468.071566 
L 235.683 468.075879 
L 243.774 468.074937 
L 251.865 468.051923 
L 259.956 468.055272 
L 268.047 468.059045 
L 276.138 468.074198 
L 284.229 468.077323 
L 292.32 468.083256 
L 300.411 468.084155 
L 308.502 468.059988 
L 316.593 468.062243 
L 324.684 468.05623 
L 332.775 468.051008 
L 340.866 468.074536 
L 348.957 468.073996 
L 357.048 468.0773 
L 365.139 468.070664 
L 373.23 468.066934 
L 381.321 468.08569 
L 389.412 468.090167 
L 397.503 468.095913 
L 405.594 468.091817 
L 413.685 468.102308 
L 421.776 468.09309 
L 429.867 468.090475 
L 437.958 468.090327 
L 446.049 468.086797 
L 454.14 468.094963 
L 462.231 468.097593 
L 470.322 468.096007 
L 478.413 468.100491 
L 486.504 468.094267 
L 494.595 468.117076 
L 502.686 468.103502 
L 510.777 468.098532 
L 518.868 468.100922 
L 526.959 468.098469 
L 535.05 468.095703 
L 543.141 468.097219 
L 551.232 468.087284 
L 559.323 468.088944 
L 567.414 468.088575 
L 575.505 468.087187 
L 583.596 468.103681 
L 591.687 468.106561 
L 599.778 468.115603 
L 607.869 468.115039 
L 615.96 468.109393 
L 624.051 468.106463 
L 632.142 468.110434 
L 640.233 468.108968 
L 648.324 468.096748 
L 656.415 468.09368 
L 664.506 468.082436 
L 672.597 468.085711 
L 680.688 468.086682 
L 688.779 468.087008 
L 696.87 468.086324 
L 704.961 468.08834 
L 713.052 468.10466 
L 721.143 468.102853 
L 729.234 468.091859 
L 737.325 468.081431 
L 745.416 468.076125 
L 753.507 468.084326 
L 761.598 468.086767 
L 769.689 468.090887 
L 777.78 468.084025 
L 785.871 468.090354 
L 793.962 468.101353 
L 802.053 468.095459 
L 810.144 468.091134 
L 818.235 468.093654 
L 826.326 468.086264 
L 834.417 468.091386 
L 842.508 468.09298 
L 850.599 468.077562 
L 858.69 468.073284 
L 866.781 468.081903 
L 874.872 468.058154 
L 882.963 468.05014 
L 891.054 468.060421 
L 899.145 468.052342 
L 907.236 468.05906 
L 915.327 468.070276 
L 923.418 468.082352 
L 931.509 468.165693 
" style="fill:none;stroke:#f18670;stroke-linecap:square;stroke-width:2;"/>
   </g>
   <g id="line2d_14">
    <path clip-path="url(#p7c96d28c62)" d="M 130.5 466.796617 
L 138.591 466.876874 
L 146.682 467.22186 
L 154.773 467.359359 
L 162.864 467.407407 
L 170.955 467.415443 
L 179.046 467.423331 
L 187.137 467.449377 
L 195.228 467.504899 
L 203.319 467.546783 
L 211.41 467.536325 
L 219.501 467.524181 
L 227.592 467.533641 
L 235.683 467.526679 
L 243.774 467.51284 
L 251.865 467.511702 
L 259.956 467.517704 
L 268.047 467.519532 
L 276.138 467.500214 
L 284.229 467.509381 
L 292.32 467.521565 
L 300.411 467.52357 
L 308.502 467.539875 
L 316.593 467.576169 
L 324.684 467.54905 
L 332.775 467.539249 
L 340.866 467.538297 
L 348.957 467.533454 
L 357.048 467.53628 
L 365.139 467.519438 
L 373.23 467.529851 
L 381.321 467.542197 
L 389.412 467.544638 
L 397.503 467.553492 
L 405.594 467.539137 
L 413.685 467.566152 
L 421.776 467.597194 
L 429.867 467.603706 
L 437.958 467.601024 
L 446.049 467.61007 
L 454.14 467.605575 
L 462.231 467.614945 
L 470.322 467.631265 
L 478.413 467.636064 
L 486.504 467.651257 
L 494.595 467.686149 
L 502.686 467.67355 
L 510.777 467.696587 
L 518.868 467.712958 
L 526.959 467.708673 
L 535.05 467.733927 
L 543.141 467.73105 
L 551.232 467.715684 
L 559.323 467.70514 
L 567.414 467.714003 
L 575.505 467.714311 
L 583.596 467.719131 
L 591.687 467.725036 
L 599.778 467.72703 
L 607.869 467.731552 
L 615.96 467.7636 
L 624.051 467.769349 
L 632.142 467.787052 
L 640.233 467.827094 
L 648.324 467.817308 
L 656.415 467.838828 
L 664.506 467.871325 
L 672.597 467.888984 
L 680.688 467.891655 
L 688.779 467.912772 
L 696.87 467.919584 
L 704.961 467.899632 
L 713.052 467.865575 
L 721.143 467.888974 
L 729.234 467.878538 
L 737.325 467.900522 
L 745.416 467.894772 
L 753.507 467.884799 
L 761.598 467.890689 
L 769.689 467.875455 
L 777.78 467.887993 
L 785.871 467.882995 
L 793.962 467.88992 
L 802.053 467.892522 
L 810.144 467.866218 
L 818.235 467.867481 
L 826.326 467.878656 
L 834.417 467.852331 
L 842.508 467.867495 
L 850.599 467.872444 
L 858.69 467.850534 
L 866.781 467.852072 
L 874.872 467.897712 
L 882.963 467.911278 
L 891.054 467.905153 
L 899.145 467.888742 
L 907.236 467.823714 
L 915.327 467.832911 
L 923.418 467.823765 
L 931.509 467.799484 
" style="fill:none;stroke:#e24d3f;stroke-linecap:square;stroke-width:2;"/>
   </g>
   <g id="line2d_15">
    <path clip-path="url(#p7c96d28c62)" d="M 130.5 283.565698 
L 138.591 203.054399 
L 146.682 190.765784 
L 154.773 184.660373 
L 162.864 184.466345 
L 170.955 183.839953 
L 179.046 183.501745 
L 187.137 182.900913 
L 195.228 182.516872 
L 203.319 182.588937 
L 211.41 182.295149 
L 219.501 182.263725 
L 227.592 181.947992 
L 235.683 181.484127 
L 243.774 181.377644 
L 251.865 181.286419 
L 259.956 181.230157 
L 268.047 181.209072 
L 276.138 181.225566 
L 284.229 181.154635 
L 292.32 181.011893 
L 300.411 180.992657 
L 308.502 180.90404 
L 316.593 180.813253 
L 324.684 180.915738 
L 332.775 181.033424 
L 340.866 181.006438 
L 348.957 181.125199 
L 357.048 181.161537 
L 365.139 181.161152 
L 373.23 181.193566 
L 381.321 181.663528 
L 389.412 181.883328 
L 397.503 182.592627 
L 405.594 182.641283 
L 413.685 182.953763 
L 421.776 183.084635 
L 429.867 183.107025 
L 437.958 183.128957 
L 446.049 183.240086 
L 454.14 183.370924 
L 462.231 183.651703 
L 470.322 184.533033 
L 478.413 185.064896 
L 486.504 185.649721 
L 494.595 186.55475 
L 502.686 187.136563 
L 510.777 187.504612 
L 518.868 187.554224 
L 526.959 187.999932 
L 535.05 189.017627 
L 543.141 189.160726 
L 551.232 189.521396 
L 559.323 189.83339 
L 567.414 191.224761 
L 575.505 191.435763 
L 583.596 191.821894 
L 591.687 192.318697 
L 599.778 192.82395 
L 607.869 193.304779 
L 615.96 193.907067 
L 624.051 194.437868 
L 632.142 195.006244 
L 640.233 196.153507 
L 648.324 197.458136 
L 656.415 197.840897 
L 664.506 198.483017 
L 672.597 198.954489 
L 680.688 199.384273 
L 688.779 199.896299 
L 696.87 200.649299 
L 704.961 201.36029 
L 713.052 203.040801 
L 721.143 203.962878 
L 729.234 205.767685 
L 737.325 206.713658 
L 745.416 207.089527 
L 753.507 208.279122 
L 761.598 210.314994 
L 769.689 211.58223 
L 777.78 212.673564 
L 785.871 213.576673 
L 793.962 214.522031 
L 802.053 215.91668 
L 810.144 217.788782 
L 818.235 218.441931 
L 826.326 219.454365 
L 834.417 220.85955 
L 842.508 222.197084 
L 850.599 224.671538 
L 858.69 227.081349 
L 866.781 230.568206 
L 874.872 237.390711 
L 882.963 242.393913 
L 891.054 245.973666 
L 899.145 246.820056 
L 907.236 253.355173 
L 915.327 255.169142 
L 923.418 258.322606 
L 931.509 287.708344 
" style="fill:none;stroke:#cf233e;stroke-linecap:square;stroke-width:2;"/>
   </g>
   <g id="line2d_16">
    <path clip-path="url(#p7c96d28c62)" d="M 130.5 468.203771 
L 138.591 468.235627 
L 146.682 468.28792 
L 154.773 468.258584 
L 162.864 468.252911 
L 170.955 468.252526 
L 179.046 468.256994 
L 187.137 468.251865 
L 195.228 468.252728 
L 203.319 468.252973 
L 211.41 468.251151 
L 219.501 468.252779 
L 227.592 468.256859 
L 235.683 468.257389 
L 243.774 468.253953 
L 251.865 468.253199 
L 259.956 468.251793 
L 268.047 468.253237 
L 276.138 468.25451 
L 284.229 468.257484 
L 292.32 468.257063 
L 300.411 468.257549 
L 308.502 468.256059 
L 316.593 468.251866 
L 324.684 468.246227 
L 332.775 468.246562 
L 340.866 468.249479 
L 348.957 468.244895 
L 357.048 468.247841 
L 365.139 468.246683 
L 373.23 468.245959 
L 381.321 468.248575 
L 389.412 468.246022 
L 397.503 468.245406 
L 405.594 468.249585 
L 413.685 468.247062 
L 421.776 468.238637 
L 429.867 468.235854 
L 437.958 468.235529 
L 446.049 468.234431 
L 454.14 468.238641 
L 462.231 468.238521 
L 470.322 468.226836 
L 478.413 468.229772 
L 486.504 468.236478 
L 494.595 468.227253 
L 502.686 468.228189 
L 510.777 468.2268 
L 518.868 468.227401 
L 526.959 468.220432 
L 535.05 468.217412 
L 543.141 468.217321 
L 551.232 468.220899 
L 559.323 468.219752 
L 567.414 468.218924 
L 575.505 468.21849 
L 583.596 468.215378 
L 591.687 468.223616 
L 599.778 468.224065 
L 607.869 468.2241 
L 615.96 468.232676 
L 624.051 468.23056 
L 632.142 468.23649 
L 640.233 468.234132 
L 648.324 468.231661 
L 656.415 468.233367 
L 664.506 468.228787 
L 672.597 468.228533 
L 680.688 468.235055 
L 688.779 468.230298 
L 696.87 468.229638 
L 704.961 468.232992 
L 713.052 468.236631 
L 721.143 468.228896 
L 729.234 468.212656 
L 737.325 468.198835 
L 745.416 468.19495 
L 753.507 468.183476 
L 761.598 468.175254 
L 769.689 468.17539 
L 777.78 468.175648 
L 785.871 468.169575 
L 793.962 468.166243 
L 802.053 468.16314 
L 810.144 468.152463 
L 818.235 468.155332 
L 826.326 468.141386 
L 834.417 468.149318 
L 842.508 468.146688 
L 850.599 468.148731 
L 858.69 468.131514 
L 866.781 468.076936 
L 874.872 468.054548 
L 882.963 468.066871 
L 891.054 468.053178 
L 899.145 468.05241 
L 907.236 468.023362 
L 915.327 468.012691 
L 923.418 467.986504 
L 931.509 468.090959 
" style="fill:none;stroke:#681e33;stroke-linecap:square;stroke-width:2;"/>
   </g>
   <g id="line2d_17">
    <path clip-path="url(#p7c96d28c62)" d="M 130.5 467.857176 
L 138.591 468.083252 
L 146.682 468.224665 
L 154.773 468.252522 
L 162.864 468.240741 
L 170.955 468.249858 
L 179.046 468.242476 
L 187.137 468.25289 
L 195.228 468.25238 
L 203.319 468.256966 
L 211.41 468.263441 
L 219.501 468.268893 
L 227.592 468.279799 
L 235.683 468.281721 
L 243.774 468.284944 
L 251.865 468.285726 
L 259.956 468.286329 
L 268.047 468.28638 
L 276.138 468.286541 
L 284.229 468.287446 
L 292.32 468.28763 
L 300.411 468.287655 
L 308.502 468.287972 
L 316.593 468.287885 
L 324.684 468.287827 
L 332.775 468.287983 
L 340.866 468.287977 
L 348.957 468.287946 
L 357.048 468.287936 
L 365.139 468.287989 
L 373.23 468.287934 
L 381.321 468.287699 
L 389.412 468.287755 
L 397.503 468.287238 
L 405.594 468.287867 
L 413.685 468.287833 
L 421.776 468.287862 
L 429.867 468.287952 
L 437.958 468.287948 
L 446.049 468.287568 
L 454.14 468.28728 
L 462.231 468.28761 
L 470.322 468.28689 
L 478.413 468.285883 
L 486.504 468.287239 
L 494.595 468.285372 
L 502.686 468.28523 
L 510.777 468.285497 
L 518.868 468.28519 
L 526.959 468.285266 
L 535.05 468.287163 
L 543.141 468.287077 
L 551.232 468.2864 
L 559.323 468.286485 
L 567.414 468.283458 
L 575.505 468.282685 
L 583.596 468.283226 
L 591.687 468.283461 
L 599.778 468.285139 
L 607.869 468.283911 
L 615.96 468.283385 
L 624.051 468.283288 
L 632.142 468.282745 
L 640.233 468.285232 
L 648.324 468.285392 
L 656.415 468.28588 
L 664.506 468.286783 
L 672.597 468.286972 
L 680.688 468.286591 
L 688.779 468.286788 
L 696.87 468.286859 
L 704.961 468.287864 
L 713.052 468.287184 
L 721.143 468.287726 
L 729.234 468.287677 
L 737.325 468.287209 
L 745.416 468.287678 
L 753.507 468.287916 
L 761.598 468.287977 
L 769.689 468.287849 
L 777.78 468.287833 
L 785.871 468.287461 
L 793.962 468.28729 
L 802.053 468.286525 
L 810.144 468.286089 
L 818.235 468.286243 
L 826.326 468.28704 
L 834.417 468.287713 
L 842.508 468.28788 
L 850.599 468.287623 
L 858.69 468.286934 
L 866.781 468.286441 
L 874.872 468.284414 
L 882.963 468.276693 
L 891.054 468.269718 
L 899.145 468.27002 
L 907.236 468.262905 
L 915.327 468.256713 
L 923.418 468.259839 
L 931.509 468.258704 
" style="fill:none;stroke:#676572;stroke-linecap:square;stroke-width:2;"/>
   </g>
   <g id="line2d_18">
    <path clip-path="url(#p7c96d28c62)" d="M 130.5 468.221653 
L 138.591 468.175945 
L 146.682 468.023206 
L 154.773 467.90824 
L 162.864 467.867 
L 170.955 467.849095 
L 179.046 467.876087 
L 187.137 467.900981 
L 195.228 467.907765 
L 203.319 467.922798 
L 211.41 467.917508 
L 219.501 467.916976 
L 227.592 467.905812 
L 235.683 467.89262 
L 243.774 467.879492 
L 251.865 467.890195 
L 259.956 467.885649 
L 268.047 467.877168 
L 276.138 467.869511 
L 284.229 467.878622 
L 292.32 467.879454 
L 300.411 467.880964 
L 308.502 467.887606 
L 316.593 467.906016 
L 324.684 467.917174 
L 332.775 467.93121 
L 340.866 467.933075 
L 348.957 467.927632 
L 357.048 467.929702 
L 365.139 467.922018 
L 373.23 467.908412 
L 381.321 467.907273 
L 389.412 467.909677 
L 397.503 467.913057 
L 405.594 467.90885 
L 413.685 467.913504 
L 421.776 467.906323 
L 429.867 467.908689 
L 437.958 467.909562 
L 446.049 467.904617 
L 454.14 467.895156 
L 462.231 467.889861 
L 470.322 467.899765 
L 478.413 467.905247 
L 486.504 467.895925 
L 494.595 467.925244 
L 502.686 467.939165 
L 510.777 467.938854 
L 518.868 467.93098 
L 526.959 467.930323 
L 535.05 467.933054 
L 543.141 467.933413 
L 551.232 467.944049 
L 559.323 467.95791 
L 567.414 468.006562 
L 575.505 468.003632 
L 583.596 468.012324 
L 591.687 468.004908 
L 599.778 468.023312 
L 607.869 468.017615 
L 615.96 468.021791 
L 624.051 468.0105 
L 632.142 468.006959 
L 640.233 467.990622 
L 648.324 467.992313 
L 656.415 467.972628 
L 664.506 467.971193 
L 672.597 467.971083 
L 680.688 467.985251 
L 688.779 467.981108 
L 696.87 467.989641 
L 704.961 467.993039 
L 713.052 467.99496 
L 721.143 468.010243 
L 729.234 468.018088 
L 737.325 468.009537 
L 745.416 468.00014 
L 753.507 468.014011 
L 761.598 468.029726 
L 769.689 468.037312 
L 777.78 468.01879 
L 785.871 468.033004 
L 793.962 468.030894 
L 802.053 468.027249 
L 810.144 468.031823 
L 818.235 468.036163 
L 826.326 468.040027 
L 834.417 468.074075 
L 842.508 468.072637 
L 850.599 468.092156 
L 858.69 468.09701 
L 866.781 468.094412 
L 874.872 468.105983 
L 882.963 468.124673 
L 891.054 468.149068 
L 899.145 468.150328 
L 907.236 468.146204 
L 915.327 468.154635 
L 923.418 468.144459 
L 931.509 468.221548 
" style="fill:none;stroke:#f3be22;stroke-linecap:square;stroke-width:2;"/>
   </g>
   <g id="line2d_19">
    <path clip-path="url(#p7c96d28c62)" d="M 130.5 468.059048 
L 138.591 467.927362 
L 146.682 467.911577 
L 154.773 467.759075 
L 162.864 467.74381 
L 170.955 467.757685 
L 179.046 467.771066 
L 187.137 467.684993 
L 195.228 467.647948 
L 203.319 467.649519 
L 211.41 467.637811 
L 219.501 467.614545 
L 227.592 467.616397 
L 235.683 467.605545 
L 243.774 467.593561 
L 251.865 467.574148 
L 259.956 467.561316 
L 268.047 467.563622 
L 276.138 467.535606 
L 284.229 467.518547 
L 292.32 467.519041 
L 300.411 467.520058 
L 308.502 467.463688 
L 316.593 467.461116 
L 324.684 467.457997 
L 332.775 467.444695 
L 340.866 467.443332 
L 348.957 467.418407 
L 357.048 467.424157 
L 365.139 467.438949 
L 373.23 467.413875 
L 381.321 467.414069 
L 389.412 467.442152 
L 397.503 467.42473 
L 405.594 467.438189 
L 413.685 467.41583 
L 421.776 467.410429 
L 429.867 467.411407 
L 437.958 467.412615 
L 446.049 467.408012 
L 454.14 467.40203 
L 462.231 467.406813 
L 470.322 467.454546 
L 478.413 467.470963 
L 486.504 467.468207 
L 494.595 467.489394 
L 502.686 467.481689 
L 510.777 467.482105 
L 518.868 467.479823 
L 526.959 467.477876 
L 535.05 467.464558 
L 543.141 467.454562 
L 551.232 467.465462 
L 559.323 467.477548 
L 567.414 467.485366 
L 575.505 467.479714 
L 583.596 467.479928 
L 591.687 467.479634 
L 599.778 467.475518 
L 607.869 467.48533 
L 615.96 467.494661 
L 624.051 467.478929 
L 632.142 467.484412 
L 640.233 467.474823 
L 648.324 467.488246 
L 656.415 467.519244 
L 664.506 467.506537 
L 672.597 467.504967 
L 680.688 467.489712 
L 688.779 467.4758 
L 696.87 467.495633 
L 704.961 467.482214 
L 713.052 467.504099 
L 721.143 467.517797 
L 729.234 467.516342 
L 737.325 467.499027 
L 745.416 467.484805 
L 753.507 467.486184 
L 761.598 467.461942 
L 769.689 467.433757 
L 777.78 467.45298 
L 785.871 467.458739 
L 793.962 467.485317 
L 802.053 467.467425 
L 810.144 467.454079 
L 818.235 467.456978 
L 826.326 467.424885 
L 834.417 467.386222 
L 842.508 467.331218 
L 850.599 467.191976 
L 858.69 467.144141 
L 866.781 467.096935 
L 874.872 467.0061 
L 882.963 466.950907 
L 891.054 466.99484 
L 899.145 466.989375 
L 907.236 467.039782 
L 915.327 467.085322 
L 923.418 467.158366 
L 931.509 467.495212 
" style="fill:none;stroke:#59deba;stroke-linecap:square;stroke-width:2;"/>
   </g>
   <g id="line2d_20">
    <path clip-path="url(#p7c96d28c62)" d="M 130.5 467.676216 
L 138.591 468.168401 
L 146.682 468.242737 
L 154.773 468.273067 
L 162.864 468.280257 
L 170.955 468.280829 
L 179.046 468.283002 
L 187.137 468.286492 
L 195.228 468.286312 
L 203.319 468.287275 
L 211.41 468.287691 
L 219.501 468.287709 
L 227.592 468.287909 
L 235.683 468.287508 
L 243.774 468.287704 
L 251.865 468.287722 
L 259.956 468.287375 
L 268.047 468.287048 
L 276.138 468.28716 
L 284.229 468.287857 
L 292.32 468.287746 
L 300.411 468.287763 
L 308.502 468.287995 
L 316.593 468.287963 
L 324.684 468.287997 
L 332.775 468.287436 
L 340.866 468.28661 
L 348.957 468.28622 
L 357.048 468.285662 
L 365.139 468.28597 
L 373.23 468.286036 
L 381.321 468.286121 
L 389.412 468.285727 
L 397.503 468.283664 
L 405.594 468.2839 
L 413.685 468.282535 
L 421.776 468.281622 
L 429.867 468.280717 
L 437.958 468.280529 
L 446.049 468.281218 
L 454.14 468.281778 
L 462.231 468.282114 
L 470.322 468.281496 
L 478.413 468.277277 
L 486.504 468.27228 
L 494.595 468.274639 
L 502.686 468.273746 
L 510.777 468.276406 
L 518.868 468.278672 
L 526.959 468.279993 
L 535.05 468.277827 
L 543.141 468.278746 
L 551.232 468.278449 
L 559.323 468.278772 
L 567.414 468.276475 
L 575.505 468.276117 
L 583.596 468.279724 
L 591.687 468.280714 
L 599.778 468.281341 
L 607.869 468.280765 
L 615.96 468.278586 
L 624.051 468.277488 
L 632.142 468.277682 
L 640.233 468.274392 
L 648.324 468.274568 
L 656.415 468.271623 
L 664.506 468.271993 
L 672.597 468.267852 
L 680.688 468.265711 
L 688.779 468.25901 
L 696.87 468.262866 
L 704.961 468.263241 
L 713.052 468.264434 
L 721.143 468.261353 
L 729.234 468.260501 
L 737.325 468.262844 
L 745.416 468.263918 
L 753.507 468.265417 
L 761.598 468.270289 
L 769.689 468.27178 
L 777.78 468.273126 
L 785.871 468.277752 
L 793.962 468.27754 
L 802.053 468.280941 
L 810.144 468.28141 
L 818.235 468.280372 
L 826.326 468.282632 
L 834.417 468.28251 
L 842.508 468.284128 
L 850.599 468.284954 
L 858.69 468.284109 
L 866.781 468.286574 
L 874.872 468.284347 
L 882.963 468.283986 
L 891.054 468.279811 
L 899.145 468.281418 
L 907.236 468.275548 
L 915.327 468.277839 
L 923.418 468.282769 
L 931.509 468.276948 
" style="fill:none;stroke:#14015c;stroke-linecap:square;stroke-width:2;"/>
   </g>
   <g id="line2d_21">
    <path clip-path="url(#p7c96d28c62)" d="M 130.5 467.748077 
L 138.591 467.702673 
L 146.682 467.777593 
L 154.773 467.801342 
L 162.864 467.830934 
L 170.955 467.851159 
L 179.046 467.864327 
L 187.137 467.942706 
L 195.228 467.958646 
L 203.319 467.96815 
L 211.41 467.967042 
L 219.501 467.983873 
L 227.592 467.984728 
L 235.683 468.006677 
L 243.774 468.010015 
L 251.865 468.018977 
L 259.956 468.019723 
L 268.047 468.027084 
L 276.138 468.020773 
L 284.229 468.023357 
L 292.32 468.038435 
L 300.411 468.038595 
L 308.502 468.061186 
L 316.593 468.085503 
L 324.684 468.098748 
L 332.775 468.101463 
L 340.866 468.112426 
L 348.957 468.106475 
L 357.048 468.103589 
L 365.139 468.102174 
L 373.23 468.108731 
L 381.321 468.094549 
L 389.412 468.088504 
L 397.503 468.098664 
L 405.594 468.104384 
L 413.685 468.111485 
L 421.776 468.108503 
L 429.867 468.112268 
L 437.958 468.111833 
L 446.049 468.103486 
L 454.14 468.104369 
L 462.231 468.094602 
L 470.322 468.051464 
L 478.413 468.048977 
L 486.504 468.044872 
L 494.595 468.031634 
L 502.686 468.03133 
L 510.777 468.011696 
L 518.868 467.99828 
L 526.959 467.979144 
L 535.05 467.957442 
L 543.141 467.952358 
L 551.232 467.96946 
L 559.323 467.962046 
L 567.414 467.937462 
L 575.505 467.940453 
L 583.596 467.927238 
L 591.687 467.91262 
L 599.778 467.894268 
L 607.869 467.869826 
L 615.96 467.863587 
L 624.051 467.863952 
L 632.142 467.86566 
L 640.233 467.877174 
L 648.324 467.885837 
L 656.415 467.880779 
L 664.506 467.878851 
L 672.597 467.888832 
L 680.688 467.8822 
L 688.779 467.883431 
L 696.87 467.891201 
L 704.961 467.893843 
L 713.052 467.919297 
L 721.143 467.914487 
L 729.234 467.887327 
L 737.325 467.907131 
L 745.416 467.918878 
L 753.507 467.928346 
L 761.598 467.895368 
L 769.689 467.861754 
L 777.78 467.853378 
L 785.871 467.857517 
L 793.962 467.834299 
L 802.053 467.820245 
L 810.144 467.823951 
L 818.235 467.820409 
L 826.326 467.808757 
L 834.417 467.82287 
L 842.508 467.83369 
L 850.599 467.833294 
L 858.69 467.775991 
L 866.781 467.739448 
L 874.872 467.665196 
L 882.963 467.673268 
L 891.054 467.645057 
L 899.145 467.625648 
L 907.236 467.658746 
L 915.327 467.669588 
L 923.418 467.656456 
L 931.509 467.617273 
" style="fill:none;stroke:#daf8a3;stroke-linecap:square;stroke-width:2;"/>
   </g>
   <g id="line2d_22">
    <path clip-path="url(#p7c96d28c62)" d="M 130.5 458.705363 
L 138.591 460.501274 
L 146.682 459.873919 
L 154.773 459.455856 
L 162.864 459.354056 
L 170.955 459.403099 
L 179.046 459.39399 
L 187.137 459.401186 
L 195.228 459.432375 
L 203.319 459.292258 
L 211.41 459.502037 
L 219.501 459.522926 
L 227.592 459.685943 
L 235.683 459.682669 
L 243.774 459.734785 
L 251.865 459.755307 
L 259.956 459.796007 
L 268.047 459.76047 
L 276.138 459.770618 
L 284.229 459.804173 
L 292.32 459.842771 
L 300.411 459.843354 
L 308.502 460.048855 
L 316.593 460.236549 
L 324.684 460.16576 
L 332.775 460.223539 
L 340.866 460.403665 
L 348.957 460.391784 
L 357.048 460.461263 
L 365.139 460.516424 
L 373.23 460.511938 
L 381.321 460.533384 
L 389.412 460.643696 
L 397.503 460.620773 
L 405.594 460.724778 
L 413.685 460.917777 
L 421.776 461.010103 
L 429.867 461.038005 
L 437.958 461.044942 
L 446.049 461.052387 
L 454.14 461.124069 
L 462.231 461.127482 
L 470.322 461.398571 
L 478.413 461.505769 
L 486.504 461.54576 
L 494.595 461.526344 
L 502.686 461.512644 
L 510.777 461.418808 
L 518.868 461.399064 
L 526.959 461.354068 
L 535.05 461.384047 
L 543.141 461.399341 
L 551.232 461.349251 
L 559.323 461.368014 
L 567.414 461.430677 
L 575.505 461.404694 
L 583.596 461.496282 
L 591.687 461.49631 
L 599.778 461.474039 
L 607.869 461.465588 
L 615.96 461.426661 
L 624.051 461.413746 
L 632.142 461.357693 
L 640.233 461.374957 
L 648.324 461.413534 
L 656.415 461.363133 
L 664.506 461.339185 
L 672.597 461.334023 
L 680.688 461.440316 
L 688.779 461.477053 
L 696.87 461.482384 
L 704.961 461.486415 
L 713.052 461.453152 
L 721.143 461.504166 
L 729.234 461.569073 
L 737.325 461.50572 
L 745.416 461.537148 
L 753.507 461.504146 
L 761.598 461.481572 
L 769.689 461.506991 
L 777.78 461.482886 
L 785.871 461.491337 
L 793.962 461.474714 
L 802.053 461.409548 
L 810.144 461.442641 
L 818.235 461.455497 
L 826.326 461.446637 
L 834.417 461.416261 
L 842.508 461.35208 
L 850.599 461.295772 
L 858.69 461.280033 
L 866.781 461.310664 
L 874.872 461.468975 
L 882.963 461.394191 
L 891.054 461.477856 
L 899.145 461.521205 
L 907.236 461.333937 
L 915.327 461.265703 
L 923.418 461.427071 
L 931.509 461.822683 
" style="fill:none;stroke:#0b7a0a;stroke-linecap:square;stroke-width:2;"/>
   </g>
   <g id="line2d_23">
    <path clip-path="url(#p7c96d28c62)" d="M 130.5 467.912106 
L 138.591 468.287033 
L 146.682 468.28589 
L 154.773 468.250211 
L 162.864 468.245599 
L 170.955 468.245555 
L 179.046 468.247142 
L 187.137 468.24798 
L 195.228 468.251182 
L 203.319 468.247429 
L 211.41 468.239159 
L 219.501 468.238559 
L 227.592 468.232374 
L 235.683 468.230636 
L 243.774 468.224615 
L 251.865 468.223734 
L 259.956 468.22063 
L 268.047 468.219323 
L 276.138 468.223318 
L 284.229 468.223276 
L 292.32 468.21666 
L 300.411 468.218691 
L 308.502 468.201135 
L 316.593 468.184639 
L 324.684 468.184628 
L 332.775 468.181587 
L 340.866 468.186909 
L 348.957 468.184146 
L 357.048 468.179507 
L 365.139 468.179321 
L 373.23 468.171421 
L 381.321 468.166229 
L 389.412 468.151971 
L 397.503 468.136951 
L 405.594 468.137451 
L 413.685 468.106015 
L 421.776 468.091796 
L 429.867 468.094299 
L 437.958 468.094416 
L 446.049 468.08915 
L 454.14 468.092874 
L 462.231 468.088959 
L 470.322 468.081081 
L 478.413 468.064617 
L 486.504 468.045541 
L 494.595 468.043733 
L 502.686 468.016605 
L 510.777 468.009242 
L 518.868 468.007938 
L 526.959 467.990131 
L 535.05 467.985833 
L 543.141 467.970212 
L 551.232 467.953264 
L 559.323 467.943647 
L 567.414 467.941196 
L 575.505 467.936479 
L 583.596 467.895311 
L 591.687 467.885068 
L 599.778 467.893928 
L 607.869 467.897778 
L 615.96 467.89791 
L 624.051 467.868779 
L 632.142 467.882053 
L 640.233 467.864961 
L 648.324 467.823348 
L 656.415 467.825783 
L 664.506 467.814241 
L 672.597 467.801612 
L 680.688 467.808188 
L 688.779 467.778518 
L 696.87 467.745759 
L 704.961 467.721854 
L 713.052 467.715765 
L 721.143 467.685022 
L 729.234 467.616332 
L 737.325 467.598754 
L 745.416 467.576026 
L 753.507 467.587407 
L 761.598 467.536559 
L 769.689 467.482164 
L 777.78 467.443716 
L 785.871 467.419249 
L 793.962 467.420915 
L 802.053 467.427012 
L 810.144 467.449496 
L 818.235 467.440662 
L 826.326 467.386006 
L 834.417 467.391129 
L 842.508 467.413643 
L 850.599 467.395696 
L 858.69 467.445676 
L 866.781 467.460747 
L 874.872 467.461299 
L 882.963 467.412731 
L 891.054 467.426081 
L 899.145 467.42684 
L 907.236 467.424521 
L 915.327 467.453056 
L 923.418 467.459191 
L 931.509 467.640806 
" style="fill:none;stroke:#f8ffa2;stroke-linecap:square;stroke-width:2;"/>
   </g>
   <g id="line2d_24">
    <path clip-path="url(#p7c96d28c62)" d="M 130.5 468.285151 
L 138.591 468.282501 
L 146.682 468.284849 
L 154.773 468.287587 
L 162.864 468.286062 
L 170.955 468.285584 
L 179.046 468.283401 
L 187.137 468.284814 
L 195.228 468.283087 
L 203.319 468.285088 
L 211.41 468.283991 
L 219.501 468.285177 
L 227.592 468.285262 
L 235.683 468.28652 
L 243.774 468.286531 
L 251.865 468.286063 
L 259.956 468.285593 
L 268.047 468.285456 
L 276.138 468.285875 
L 284.229 468.286489 
L 292.32 468.286333 
L 300.411 468.28627 
L 308.502 468.287974 
L 316.593 468.28798 
L 324.684 468.287993 
L 332.775 468.287838 
L 340.866 468.28786 
L 348.957 468.287858 
L 357.048 468.287889 
L 365.139 468.287726 
L 373.23 468.28736 
L 381.321 468.287157 
L 389.412 468.283815 
L 397.503 468.282309 
L 405.594 468.280027 
L 413.685 468.276 
L 421.776 468.271132 
L 429.867 468.270212 
L 437.958 468.270503 
L 446.049 468.268231 
L 454.14 468.261903 
L 462.231 468.258845 
L 470.322 468.242608 
L 478.413 468.237362 
L 486.504 468.230927 
L 494.595 468.218561 
L 502.686 468.216159 
L 510.777 468.21112 
L 518.868 468.210561 
L 526.959 468.20378 
L 535.05 468.196157 
L 543.141 468.193105 
L 551.232 468.183617 
L 559.323 468.179518 
L 567.414 468.159149 
L 575.505 468.156893 
L 583.596 468.149112 
L 591.687 468.142875 
L 599.778 468.119862 
L 607.869 468.122947 
L 615.96 468.109517 
L 624.051 468.114005 
L 632.142 468.102581 
L 640.233 468.097355 
L 648.324 468.078265 
L 656.415 468.062376 
L 664.506 468.059009 
L 672.597 468.05483 
L 680.688 468.066478 
L 688.779 468.081771 
L 696.87 468.091785 
L 704.961 468.093974 
L 713.052 468.092675 
L 721.143 468.087992 
L 729.234 468.067743 
L 737.325 468.053031 
L 745.416 468.0429 
L 753.507 468.02184 
L 761.598 467.989743 
L 769.689 467.974829 
L 777.78 467.966754 
L 785.871 467.955992 
L 793.962 467.945405 
L 802.053 467.941852 
L 810.144 467.92708 
L 818.235 467.921278 
L 826.326 467.907778 
L 834.417 467.893945 
L 842.508 467.882558 
L 850.599 467.845728 
L 858.69 467.815673 
L 866.781 467.791042 
L 874.872 467.793831 
L 882.963 467.794923 
L 891.054 467.787613 
L 899.145 467.785111 
L 907.236 467.716661 
L 915.327 467.735096 
L 923.418 467.721055 
L 931.509 467.853212 
" style="fill:none;stroke:#578dc0;stroke-linecap:square;stroke-width:2;"/>
   </g>
   <g id="line2d_25">
    <path clip-path="url(#p7c96d28c62)" d="M 130.5 466.282941 
L 138.591 466.715169 
L 146.682 466.747178 
L 154.773 466.793514 
L 162.864 466.792518 
L 170.955 466.773017 
L 179.046 466.845917 
L 187.137 466.959363 
L 195.228 466.90496 
L 203.319 466.934577 
L 211.41 467.001684 
L 219.501 467.052648 
L 227.592 467.116676 
L 235.683 467.100515 
L 243.774 467.113418 
L 251.865 467.128628 
L 259.956 467.136353 
L 268.047 467.12922 
L 276.138 467.138805 
L 284.229 467.181942 
L 292.32 467.189622 
L 300.411 467.184547 
L 308.502 467.200148 
L 316.593 467.258158 
L 324.684 467.26896 
L 332.775 467.255365 
L 340.866 467.237841 
L 348.957 467.265285 
L 357.048 467.256949 
L 365.139 467.254598 
L 373.23 467.270141 
L 381.321 467.243999 
L 389.412 467.218825 
L 397.503 467.245373 
L 405.594 467.257787 
L 413.685 467.296507 
L 421.776 467.26011 
L 429.867 467.26597 
L 437.958 467.263802 
L 446.049 467.260046 
L 454.14 467.303377 
L 462.231 467.299705 
L 470.322 467.372229 
L 478.413 467.386963 
L 486.504 467.441525 
L 494.595 467.506807 
L 502.686 467.548823 
L 510.777 467.565139 
L 518.868 467.563414 
L 526.959 467.583695 
L 535.05 467.625704 
L 543.141 467.626936 
L 551.232 467.649068 
L 559.323 467.650875 
L 567.414 467.697384 
L 575.505 467.696943 
L 583.596 467.713846 
L 591.687 467.733476 
L 599.778 467.763874 
L 607.869 467.804955 
L 615.96 467.802178 
L 624.051 467.800404 
L 632.142 467.815061 
L 640.233 467.828949 
L 648.324 467.859079 
L 656.415 467.867788 
L 664.506 467.879212 
L 672.597 467.87745 
L 680.688 467.875462 
L 688.779 467.845298 
L 696.87 467.847908 
L 704.961 467.854144 
L 713.052 467.853184 
L 721.143 467.84616 
L 729.234 467.898188 
L 737.325 467.901614 
L 745.416 467.911569 
L 753.507 467.92167 
L 761.598 467.959967 
L 769.689 467.984158 
L 777.78 467.99517 
L 785.871 468.003438 
L 793.962 468.009626 
L 802.053 468.04646 
L 810.144 468.064336 
L 818.235 468.067373 
L 826.326 468.078488 
L 834.417 468.092585 
L 842.508 468.105796 
L 850.599 468.139217 
L 858.69 468.184822 
L 866.781 468.20398 
L 874.872 468.242769 
L 882.963 468.2533 
L 891.054 468.264078 
L 899.145 468.266325 
L 907.236 468.282723 
L 915.327 468.285547 
L 923.418 468.287309 
L 931.509 468.278146 
" style="fill:none;stroke:#4e4ad8;stroke-linecap:square;stroke-width:2;"/>
   </g>
   <g id="line2d_26">
    <path clip-path="url(#p7c96d28c62)" d="M 130.5 453.776482 
L 138.591 464.586705 
L 146.682 465.617995 
L 154.773 465.873298 
L 162.864 465.95653 
L 170.955 465.97796 
L 179.046 465.946956 
L 187.137 465.869757 
L 195.228 465.938284 
L 203.319 465.89238 
L 211.41 465.821282 
L 219.501 465.815658 
L 227.592 465.874036 
L 235.683 465.905913 
L 243.774 465.883604 
L 251.865 465.866953 
L 259.956 465.854599 
L 268.047 465.871972 
L 276.138 465.871758 
L 284.229 465.85854 
L 292.32 465.889382 
L 300.411 465.912861 
L 308.502 465.840175 
L 316.593 465.872621 
L 324.684 465.867226 
L 332.775 465.86386 
L 340.866 465.890296 
L 348.957 465.871546 
L 357.048 465.86604 
L 365.139 465.833445 
L 373.23 465.846116 
L 381.321 465.788596 
L 389.412 465.73178 
L 397.503 465.733511 
L 405.594 465.743583 
L 413.685 465.680555 
L 421.776 465.649201 
L 429.867 465.670561 
L 437.958 465.664647 
L 446.049 465.669453 
L 454.14 465.661823 
L 462.231 465.617221 
L 470.322 465.450906 
L 478.413 465.434188 
L 486.504 465.395957 
L 494.595 465.29392 
L 502.686 465.278841 
L 510.777 465.260587 
L 518.868 465.2294 
L 526.959 465.221366 
L 535.05 465.132168 
L 543.141 465.134891 
L 551.232 465.110497 
L 559.323 465.100174 
L 567.414 464.951107 
L 575.505 464.948766 
L 583.596 464.918598 
L 591.687 464.855655 
L 599.778 464.832295 
L 607.869 464.79306 
L 615.96 464.794943 
L 624.051 464.768333 
L 632.142 464.721452 
L 640.233 464.685467 
L 648.324 464.544913 
L 656.415 464.493087 
L 664.506 464.435887 
L 672.597 464.400936 
L 680.688 464.262745 
L 688.779 464.225333 
L 696.87 464.135327 
L 704.961 464.05157 
L 713.052 463.912411 
L 721.143 463.893023 
L 729.234 463.833693 
L 737.325 463.749242 
L 745.416 463.687386 
L 753.507 463.609273 
L 761.598 463.486634 
L 769.689 463.411078 
L 777.78 463.385586 
L 785.871 463.310555 
L 793.962 463.31577 
L 802.053 463.252363 
L 810.144 463.129577 
L 818.235 463.075684 
L 826.326 463.027581 
L 834.417 462.920834 
L 842.508 462.787463 
L 850.599 462.744814 
L 858.69 462.602328 
L 866.781 462.302278 
L 874.872 462.106075 
L 882.963 462.098602 
L 891.054 461.893169 
L 899.145 461.798804 
L 907.236 461.499076 
L 915.327 461.400207 
L 923.418 461.26735 
L 931.509 458.808082 
" style="fill:none;stroke:#32b3f7;stroke-linecap:square;stroke-width:2;"/>
   </g>
   <g id="patch_3">
    <path d="M 130.5 468.288 
L 130.5 113.472 
" style="fill:none;stroke:#000000;stroke-linecap:square;stroke-linejoin:miter;stroke-width:0.8;"/>
   </g>
   <g id="patch_4">
    <path d="M 939.6 468.288 
L 939.6 113.472 
" style="fill:none;stroke:#000000;stroke-linecap:square;stroke-linejoin:miter;stroke-width:0.8;"/>
   </g>
   <g id="patch_5">
    <path d="M 130.5 468.288 
L 939.6 468.288 
" style="fill:none;stroke:#000000;stroke-linecap:square;stroke-linejoin:miter;stroke-width:0.8;"/>
   </g>
   <g id="patch_6">
    <path d="M 130.5 113.472 
L 939.6 113.472 
" style="fill:none;stroke:#000000;stroke-linecap:square;stroke-linejoin:miter;stroke-width:0.8;"/>
   </g>
   <g id="text_15">
    <!-- R2 -->
    <defs>
     <path d="M 44.390625 34.1875 
Q 47.5625 33.109375 50.5625 29.59375 
Q 53.5625 26.078125 56.59375 19.921875 
L 66.609375 0 
L 56 0 
L 46.6875 18.703125 
Q 43.0625 26.03125 39.671875 28.421875 
Q 36.28125 30.8125 30.421875 30.8125 
L 19.671875 30.8125 
L 19.671875 0 
L 9.8125 0 
L 9.8125 72.90625 
L 32.078125 72.90625 
Q 44.578125 72.90625 50.734375 67.671875 
Q 56.890625 62.453125 56.890625 51.90625 
Q 56.890625 45.015625 53.6875 40.46875 
Q 50.484375 35.9375 44.390625 34.1875 
z
M 19.671875 64.796875 
L 19.671875 38.921875 
L 32.078125 38.921875 
Q 39.203125 38.921875 42.84375 42.21875 
Q 46.484375 45.515625 46.484375 51.90625 
Q 46.484375 58.296875 42.84375 61.546875 
Q 39.203125 64.796875 32.078125 64.796875 
z
" id="DejaVuSans-82"/>
    </defs>
    <g transform="translate(527.063437 107.472)scale(0.12 -0.12)">
     <use xlink:href="#DejaVuSans-82"/>
     <use x="69.482422" xlink:href="#DejaVuSans-50"/>
    </g>
   </g>
   <g id="legend_1">
    <g id="patch_7">
     <path d="M 152.324219 640.696 
L 917.775781 640.696 
Q 919.775781 640.696 919.775781 638.696 
L 919.775781 595.661625 
Q 919.775781 593.661625 917.775781 593.661625 
L 152.324219 593.661625 
Q 150.324219 593.661625 150.324219 595.661625 
L 150.324219 638.696 
Q 150.324219 640.696 152.324219 640.696 
z
" style="fill:#ffffff;opacity:0.8;stroke:#cccccc;stroke-linejoin:miter;"/>
    </g>
    <g id="line2d_27">
     <path style="fill:none;stroke:#f18670;stroke-linecap:square;stroke-width:2;"/>
    </g>
    <g id="line2d_28"/>
    <g id="text_16">
     <!-- IWR demand mutliplier -->
     <defs>
      <path d="M 9.8125 72.90625 
L 19.671875 72.90625 
L 19.671875 0 
L 9.8125 0 
z
" id="DejaVuSans-73"/>
      <path d="M 3.328125 72.90625 
L 13.28125 72.90625 
L 28.609375 11.28125 
L 43.890625 72.90625 
L 54.984375 72.90625 
L 70.3125 11.28125 
L 85.59375 72.90625 
L 95.609375 72.90625 
L 77.296875 0 
L 64.890625 0 
L 49.515625 63.28125 
L 33.984375 0 
L 21.578125 0 
z
" id="DejaVuSans-87"/>
     </defs>
     <g transform="translate(182.324219 605.260063)scale(0.1 -0.1)">
      <use xlink:href="#DejaVuSans-73"/>
      <use x="29.492188" xlink:href="#DejaVuSans-87"/>
      <use x="128.369141" xlink:href="#DejaVuSans-82"/>
      <use x="197.851562" xlink:href="#DejaVuSans-32"/>
      <use x="229.638672" xlink:href="#DejaVuSans-100"/>
      <use x="293.115234" xlink:href="#DejaVuSans-101"/>
      <use x="354.638672" xlink:href="#DejaVuSans-109"/>
      <use x="452.050781" xlink:href="#DejaVuSans-97"/>
      <use x="513.330078" xlink:href="#DejaVuSans-110"/>
      <use x="576.708984" xlink:href="#DejaVuSans-100"/>
      <use x="640.185547" xlink:href="#DejaVuSans-32"/>
      <use x="671.972656" xlink:href="#DejaVuSans-109"/>
      <use x="769.384766" xlink:href="#DejaVuSans-117"/>
      <use x="832.763672" xlink:href="#DejaVuSans-116"/>
      <use x="871.972656" xlink:href="#DejaVuSans-108"/>
      <use x="899.755859" xlink:href="#DejaVuSans-105"/>
      <use x="927.539062" xlink:href="#DejaVuSans-112"/>
      <use x="991.015625" xlink:href="#DejaVuSans-108"/>
      <use x="1018.798828" xlink:href="#DejaVuSans-105"/>
      <use x="1046.582031" xlink:href="#DejaVuSans-101"/>
      <use x="1108.105469" xlink:href="#DejaVuSans-114"/>
     </g>
    </g>
    <g id="line2d_29">
     <path style="fill:none;stroke:#e24d3f;stroke-linecap:square;stroke-width:2;"/>
    </g>
    <g id="line2d_30"/>
    <g id="text_17">
     <!-- Reservoir loss -->
     <defs>
      <path d="M 44.28125 53.078125 
L 44.28125 44.578125 
Q 40.484375 46.53125 36.375 47.5 
Q 32.28125 48.484375 27.875 48.484375 
Q 21.1875 48.484375 17.84375 46.4375 
Q 14.5 44.390625 14.5 40.28125 
Q 14.5 37.15625 16.890625 35.375 
Q 19.28125 33.59375 26.515625 31.984375 
L 29.59375 31.296875 
Q 39.15625 29.25 43.1875 25.515625 
Q 47.21875 21.78125 47.21875 15.09375 
Q 47.21875 7.46875 41.1875 3.015625 
Q 35.15625 -1.421875 24.609375 -1.421875 
Q 20.21875 -1.421875 15.453125 -0.5625 
Q 10.6875 0.296875 5.421875 2 
L 5.421875 11.28125 
Q 10.40625 8.6875 15.234375 7.390625 
Q 20.0625 6.109375 24.8125 6.109375 
Q 31.15625 6.109375 34.5625 8.28125 
Q 37.984375 10.453125 37.984375 14.40625 
Q 37.984375 18.0625 35.515625 20.015625 
Q 33.0625 21.96875 24.703125 23.78125 
L 21.578125 24.515625 
Q 13.234375 26.265625 9.515625 29.90625 
Q 5.8125 33.546875 5.8125 39.890625 
Q 5.8125 47.609375 11.28125 51.796875 
Q 16.75 56 26.8125 56 
Q 31.78125 56 36.171875 55.265625 
Q 40.578125 54.546875 44.28125 53.078125 
z
" id="DejaVuSans-115"/>
      <path d="M 2.984375 54.6875 
L 12.5 54.6875 
L 29.59375 8.796875 
L 46.6875 54.6875 
L 56.203125 54.6875 
L 35.6875 0 
L 23.484375 0 
z
" id="DejaVuSans-118"/>
     </defs>
     <g transform="translate(182.324219 619.938188)scale(0.1 -0.1)">
      <use xlink:href="#DejaVuSans-82"/>
      <use x="69.419922" xlink:href="#DejaVuSans-101"/>
      <use x="130.943359" xlink:href="#DejaVuSans-115"/>
      <use x="183.042969" xlink:href="#DejaVuSans-101"/>
      <use x="244.566406" xlink:href="#DejaVuSans-114"/>
      <use x="285.679688" xlink:href="#DejaVuSans-118"/>
      <use x="344.859375" xlink:href="#DejaVuSans-111"/>
      <use x="406.041016" xlink:href="#DejaVuSans-105"/>
      <use x="433.824219" xlink:href="#DejaVuSans-114"/>
      <use x="474.9375" xlink:href="#DejaVuSans-32"/>
      <use x="506.724609" xlink:href="#DejaVuSans-108"/>
      <use x="534.507812" xlink:href="#DejaVuSans-111"/>
      <use x="595.689453" xlink:href="#DejaVuSans-115"/>
      <use x="647.789062" xlink:href="#DejaVuSans-115"/>
     </g>
    </g>
    <g id="line2d_31">
     <path style="fill:none;stroke:#cf233e;stroke-linecap:square;stroke-width:2;"/>
    </g>
    <g id="line2d_32"/>
    <g id="text_18">
     <!-- TBD demand multiplier -->
     <defs>
      <path d="M -0.296875 72.90625 
L 61.375 72.90625 
L 61.375 64.59375 
L 35.5 64.59375 
L 35.5 0 
L 25.59375 0 
L 25.59375 64.59375 
L -0.296875 64.59375 
z
" id="DejaVuSans-84"/>
      <path d="M 19.671875 34.8125 
L 19.671875 8.109375 
L 35.5 8.109375 
Q 43.453125 8.109375 47.28125 11.40625 
Q 51.125 14.703125 51.125 21.484375 
Q 51.125 28.328125 47.28125 31.5625 
Q 43.453125 34.8125 35.5 34.8125 
z
M 19.671875 64.796875 
L 19.671875 42.828125 
L 34.28125 42.828125 
Q 41.5 42.828125 45.03125 45.53125 
Q 48.578125 48.25 48.578125 53.8125 
Q 48.578125 59.328125 45.03125 62.0625 
Q 41.5 64.796875 34.28125 64.796875 
z
M 9.8125 72.90625 
L 35.015625 72.90625 
Q 46.296875 72.90625 52.390625 68.21875 
Q 58.5 63.53125 58.5 54.890625 
Q 58.5 48.1875 55.375 44.234375 
Q 52.25 40.28125 46.1875 39.3125 
Q 53.46875 37.75 57.5 32.78125 
Q 61.53125 27.828125 61.53125 20.40625 
Q 61.53125 10.640625 54.890625 5.3125 
Q 48.25 0 35.984375 0 
L 9.8125 0 
z
" id="DejaVuSans-66"/>
      <path d="M 19.671875 64.796875 
L 19.671875 8.109375 
L 31.59375 8.109375 
Q 46.6875 8.109375 53.6875 14.9375 
Q 60.6875 21.78125 60.6875 36.53125 
Q 60.6875 51.171875 53.6875 57.984375 
Q 46.6875 64.796875 31.59375 64.796875 
z
M 9.8125 72.90625 
L 30.078125 72.90625 
Q 51.265625 72.90625 61.171875 64.09375 
Q 71.09375 55.28125 71.09375 36.53125 
Q 71.09375 17.671875 61.125 8.828125 
Q 51.171875 0 30.078125 0 
L 9.8125 0 
z
" id="DejaVuSans-68"/>
     </defs>
     <g transform="translate(182.324219 634.616313)scale(0.1 -0.1)">
      <use xlink:href="#DejaVuSans-84"/>
      <use x="61.083984" xlink:href="#DejaVuSans-66"/>
      <use x="129.6875" xlink:href="#DejaVuSans-68"/>
      <use x="206.689453" xlink:href="#DejaVuSans-32"/>
      <use x="238.476562" xlink:href="#DejaVuSans-100"/>
      <use x="301.953125" xlink:href="#DejaVuSans-101"/>
      <use x="363.476562" xlink:href="#DejaVuSans-109"/>
      <use x="460.888672" xlink:href="#DejaVuSans-97"/>
      <use x="522.167969" xlink:href="#DejaVuSans-110"/>
      <use x="585.546875" xlink:href="#DejaVuSans-100"/>
      <use x="649.023438" xlink:href="#DejaVuSans-32"/>
      <use x="680.810547" xlink:href="#DejaVuSans-109"/>
      <use x="778.222656" xlink:href="#DejaVuSans-117"/>
      <use x="841.601562" xlink:href="#DejaVuSans-108"/>
      <use x="869.384766" xlink:href="#DejaVuSans-116"/>
      <use x="908.59375" xlink:href="#DejaVuSans-105"/>
      <use x="936.376953" xlink:href="#DejaVuSans-112"/>
      <use x="999.853516" xlink:href="#DejaVuSans-108"/>
      <use x="1027.636719" xlink:href="#DejaVuSans-105"/>
      <use x="1055.419922" xlink:href="#DejaVuSans-101"/>
      <use x="1116.943359" xlink:href="#DejaVuSans-114"/>
     </g>
    </g>
    <g id="line2d_33">
     <path style="fill:none;stroke:#681e33;stroke-linecap:square;stroke-width:2;"/>
    </g>
    <g id="line2d_34"/>
    <g id="text_19">
     <!-- M&amp;I demand multiplier -->
     <defs>
      <path d="M 9.8125 72.90625 
L 24.515625 72.90625 
L 43.109375 23.296875 
L 61.8125 72.90625 
L 76.515625 72.90625 
L 76.515625 0 
L 66.890625 0 
L 66.890625 64.015625 
L 48.09375 14.015625 
L 38.1875 14.015625 
L 19.390625 64.015625 
L 19.390625 0 
L 9.8125 0 
z
" id="DejaVuSans-77"/>
      <path d="M 24.3125 39.203125 
Q 19.875 35.25 17.796875 31.3125 
Q 15.71875 27.390625 15.71875 23.09375 
Q 15.71875 15.96875 20.890625 11.234375 
Q 26.078125 6.5 33.890625 6.5 
Q 38.53125 6.5 42.578125 8.03125 
Q 46.625 9.578125 50.203125 12.703125 
z
M 31.203125 44.671875 
L 56 19.28125 
Q 58.890625 23.640625 60.5 28.59375 
Q 62.109375 33.546875 62.40625 39.109375 
L 71.484375 39.109375 
Q 70.90625 32.671875 68.359375 26.359375 
Q 65.828125 20.0625 61.28125 13.921875 
L 74.90625 0 
L 62.59375 0 
L 55.609375 7.171875 
Q 50.53125 2.828125 44.96875 0.703125 
Q 39.40625 -1.421875 33.015625 -1.421875 
Q 21.234375 -1.421875 13.765625 5.296875 
Q 6.296875 12.015625 6.296875 22.515625 
Q 6.296875 28.765625 9.5625 34.25 
Q 12.84375 39.75 19.390625 44.578125 
Q 17.046875 47.65625 15.8125 50.703125 
Q 14.59375 53.765625 14.59375 56.6875 
Q 14.59375 64.59375 20.015625 69.40625 
Q 25.4375 74.21875 34.421875 74.21875 
Q 38.484375 74.21875 42.5 73.34375 
Q 46.53125 72.46875 50.6875 70.703125 
L 50.6875 61.8125 
Q 46.4375 64.109375 42.578125 65.296875 
Q 38.71875 66.5 35.40625 66.5 
Q 30.28125 66.5 27.078125 63.78125 
Q 23.875 61.078125 23.875 56.78125 
Q 23.875 54.296875 25.3125 51.78125 
Q 26.765625 49.265625 31.203125 44.671875 
z
" id="DejaVuSans-38"/>
     </defs>
     <g transform="translate(346.128906 605.260063)scale(0.1 -0.1)">
      <use xlink:href="#DejaVuSans-77"/>
      <use x="86.279297" xlink:href="#DejaVuSans-38"/>
      <use x="164.257812" xlink:href="#DejaVuSans-73"/>
      <use x="193.75" xlink:href="#DejaVuSans-32"/>
      <use x="225.537109" xlink:href="#DejaVuSans-100"/>
      <use x="289.013672" xlink:href="#DejaVuSans-101"/>
      <use x="350.537109" xlink:href="#DejaVuSans-109"/>
      <use x="447.949219" xlink:href="#DejaVuSans-97"/>
      <use x="509.228516" xlink:href="#DejaVuSans-110"/>
      <use x="572.607422" xlink:href="#DejaVuSans-100"/>
      <use x="636.083984" xlink:href="#DejaVuSans-32"/>
      <use x="667.871094" xlink:href="#DejaVuSans-109"/>
      <use x="765.283203" xlink:href="#DejaVuSans-117"/>
      <use x="828.662109" xlink:href="#DejaVuSans-108"/>
      <use x="856.445312" xlink:href="#DejaVuSans-116"/>
      <use x="895.654297" xlink:href="#DejaVuSans-105"/>
      <use x="923.4375" xlink:href="#DejaVuSans-112"/>
      <use x="986.914062" xlink:href="#DejaVuSans-108"/>
      <use x="1014.697266" xlink:href="#DejaVuSans-105"/>
      <use x="1042.480469" xlink:href="#DejaVuSans-101"/>
      <use x="1104.003906" xlink:href="#DejaVuSans-114"/>
     </g>
    </g>
    <g id="line2d_35">
     <path style="fill:none;stroke:#676572;stroke-linecap:square;stroke-width:2;"/>
    </g>
    <g id="line2d_36"/>
    <g id="text_20">
     <!-- Shoshone active -->
     <g transform="translate(346.128906 619.938188)scale(0.1 -0.1)">
      <use xlink:href="#DejaVuSans-83"/>
      <use x="63.476562" xlink:href="#DejaVuSans-104"/>
      <use x="126.855469" xlink:href="#DejaVuSans-111"/>
      <use x="188.037109" xlink:href="#DejaVuSans-115"/>
      <use x="240.136719" xlink:href="#DejaVuSans-104"/>
      <use x="303.515625" xlink:href="#DejaVuSans-111"/>
      <use x="364.697266" xlink:href="#DejaVuSans-110"/>
      <use x="428.076172" xlink:href="#DejaVuSans-101"/>
      <use x="489.599609" xlink:href="#DejaVuSans-32"/>
      <use x="521.386719" xlink:href="#DejaVuSans-97"/>
      <use x="582.666016" xlink:href="#DejaVuSans-99"/>
      <use x="637.646484" xlink:href="#DejaVuSans-116"/>
      <use x="676.855469" xlink:href="#DejaVuSans-105"/>
      <use x="704.638672" xlink:href="#DejaVuSans-118"/>
      <use x="763.818359" xlink:href="#DejaVuSans-101"/>
     </g>
    </g>
    <g id="line2d_37">
     <path style="fill:none;stroke:#f3be22;stroke-linecap:square;stroke-width:2;"/>
    </g>
    <g id="line2d_38"/>
    <g id="text_21">
     <!-- Env. flow senior right -->
     <defs>
      <path d="M 9.8125 72.90625 
L 55.90625 72.90625 
L 55.90625 64.59375 
L 19.671875 64.59375 
L 19.671875 43.015625 
L 54.390625 43.015625 
L 54.390625 34.71875 
L 19.671875 34.71875 
L 19.671875 8.296875 
L 56.78125 8.296875 
L 56.78125 0 
L 9.8125 0 
z
" id="DejaVuSans-69"/>
      <path d="M 37.109375 75.984375 
L 37.109375 68.5 
L 28.515625 68.5 
Q 23.6875 68.5 21.796875 66.546875 
Q 19.921875 64.59375 19.921875 59.515625 
L 19.921875 54.6875 
L 34.71875 54.6875 
L 34.71875 47.703125 
L 19.921875 47.703125 
L 19.921875 0 
L 10.890625 0 
L 10.890625 47.703125 
L 2.296875 47.703125 
L 2.296875 54.6875 
L 10.890625 54.6875 
L 10.890625 58.5 
Q 10.890625 67.625 15.140625 71.796875 
Q 19.390625 75.984375 28.609375 75.984375 
z
" id="DejaVuSans-102"/>
      <path d="M 4.203125 54.6875 
L 13.1875 54.6875 
L 24.421875 12.015625 
L 35.59375 54.6875 
L 46.1875 54.6875 
L 57.421875 12.015625 
L 68.609375 54.6875 
L 77.59375 54.6875 
L 63.28125 0 
L 52.6875 0 
L 40.921875 44.828125 
L 29.109375 0 
L 18.5 0 
z
" id="DejaVuSans-119"/>
     </defs>
     <g transform="translate(346.128906 634.616313)scale(0.1 -0.1)">
      <use xlink:href="#DejaVuSans-69"/>
      <use x="63.183594" xlink:href="#DejaVuSans-110"/>
      <use x="126.5625" xlink:href="#DejaVuSans-118"/>
      <use x="185.632812" xlink:href="#DejaVuSans-46"/>
      <use x="217.419922" xlink:href="#DejaVuSans-32"/>
      <use x="249.207031" xlink:href="#DejaVuSans-102"/>
      <use x="284.412109" xlink:href="#DejaVuSans-108"/>
      <use x="312.195312" xlink:href="#DejaVuSans-111"/>
      <use x="373.376953" xlink:href="#DejaVuSans-119"/>
      <use x="455.164062" xlink:href="#DejaVuSans-32"/>
      <use x="486.951172" xlink:href="#DejaVuSans-115"/>
      <use x="539.050781" xlink:href="#DejaVuSans-101"/>
      <use x="600.574219" xlink:href="#DejaVuSans-110"/>
      <use x="663.953125" xlink:href="#DejaVuSans-105"/>
      <use x="691.736328" xlink:href="#DejaVuSans-111"/>
      <use x="752.917969" xlink:href="#DejaVuSans-114"/>
      <use x="794.03125" xlink:href="#DejaVuSans-32"/>
      <use x="825.818359" xlink:href="#DejaVuSans-114"/>
      <use x="866.931641" xlink:href="#DejaVuSans-105"/>
      <use x="894.714844" xlink:href="#DejaVuSans-103"/>
      <use x="958.191406" xlink:href="#DejaVuSans-104"/>
      <use x="1021.570312" xlink:href="#DejaVuSans-116"/>
     </g>
    </g>
    <g id="line2d_39">
     <path style="fill:none;stroke:#59deba;stroke-linecap:square;stroke-width:2;"/>
    </g>
    <g id="line2d_40"/>
    <g id="text_22">
     <!-- Evaporation delta -->
     <g transform="translate(508.641406 605.260063)scale(0.1 -0.1)">
      <use xlink:href="#DejaVuSans-69"/>
      <use x="63.183594" xlink:href="#DejaVuSans-118"/>
      <use x="122.363281" xlink:href="#DejaVuSans-97"/>
      <use x="183.642578" xlink:href="#DejaVuSans-112"/>
      <use x="247.119141" xlink:href="#DejaVuSans-111"/>
      <use x="308.300781" xlink:href="#DejaVuSans-114"/>
      <use x="349.414062" xlink:href="#DejaVuSans-97"/>
      <use x="410.693359" xlink:href="#DejaVuSans-116"/>
      <use x="449.902344" xlink:href="#DejaVuSans-105"/>
      <use x="477.685547" xlink:href="#DejaVuSans-111"/>
      <use x="538.867188" xlink:href="#DejaVuSans-110"/>
      <use x="602.246094" xlink:href="#DejaVuSans-32"/>
      <use x="634.033203" xlink:href="#DejaVuSans-100"/>
      <use x="697.509766" xlink:href="#DejaVuSans-101"/>
      <use x="759.033203" xlink:href="#DejaVuSans-108"/>
      <use x="786.816406" xlink:href="#DejaVuSans-116"/>
      <use x="826.025391" xlink:href="#DejaVuSans-97"/>
     </g>
    </g>
    <g id="line2d_41">
     <path style="fill:none;stroke:#14015c;stroke-linecap:square;stroke-width:2;"/>
    </g>
    <g id="line2d_42"/>
    <g id="text_23">
     <!-- Dry state mu -->
     <defs>
      <path d="M 32.171875 -5.078125 
Q 28.375 -14.84375 24.75 -17.8125 
Q 21.140625 -20.796875 15.09375 -20.796875 
L 7.90625 -20.796875 
L 7.90625 -13.28125 
L 13.1875 -13.28125 
Q 16.890625 -13.28125 18.9375 -11.515625 
Q 21 -9.765625 23.484375 -3.21875 
L 25.09375 0.875 
L 2.984375 54.6875 
L 12.5 54.6875 
L 29.59375 11.921875 
L 46.6875 54.6875 
L 56.203125 54.6875 
z
" id="DejaVuSans-121"/>
     </defs>
     <g transform="translate(508.641406 619.938188)scale(0.1 -0.1)">
      <use xlink:href="#DejaVuSans-68"/>
      <use x="77.001953" xlink:href="#DejaVuSans-114"/>
      <use x="118.115234" xlink:href="#DejaVuSans-121"/>
      <use x="177.294922" xlink:href="#DejaVuSans-32"/>
      <use x="209.082031" xlink:href="#DejaVuSans-115"/>
      <use x="261.181641" xlink:href="#DejaVuSans-116"/>
      <use x="300.390625" xlink:href="#DejaVuSans-97"/>
      <use x="361.669922" xlink:href="#DejaVuSans-116"/>
      <use x="400.878906" xlink:href="#DejaVuSans-101"/>
      <use x="462.402344" xlink:href="#DejaVuSans-32"/>
      <use x="494.189453" xlink:href="#DejaVuSans-109"/>
      <use x="591.601562" xlink:href="#DejaVuSans-117"/>
     </g>
    </g>
    <g id="line2d_43">
     <path style="fill:none;stroke:#daf8a3;stroke-linecap:square;stroke-width:2;"/>
    </g>
    <g id="line2d_44"/>
    <g id="text_24">
     <!-- Dry state sigma -->
     <g transform="translate(508.641406 634.616313)scale(0.1 -0.1)">
      <use xlink:href="#DejaVuSans-68"/>
      <use x="77.001953" xlink:href="#DejaVuSans-114"/>
      <use x="118.115234" xlink:href="#DejaVuSans-121"/>
      <use x="177.294922" xlink:href="#DejaVuSans-32"/>
      <use x="209.082031" xlink:href="#DejaVuSans-115"/>
      <use x="261.181641" xlink:href="#DejaVuSans-116"/>
      <use x="300.390625" xlink:href="#DejaVuSans-97"/>
      <use x="361.669922" xlink:href="#DejaVuSans-116"/>
      <use x="400.878906" xlink:href="#DejaVuSans-101"/>
      <use x="462.402344" xlink:href="#DejaVuSans-32"/>
      <use x="494.189453" xlink:href="#DejaVuSans-115"/>
      <use x="546.289062" xlink:href="#DejaVuSans-105"/>
      <use x="574.072266" xlink:href="#DejaVuSans-103"/>
      <use x="637.548828" xlink:href="#DejaVuSans-109"/>
      <use x="734.960938" xlink:href="#DejaVuSans-97"/>
     </g>
    </g>
    <g id="line2d_45">
     <path style="fill:none;stroke:#0b7a0a;stroke-linecap:square;stroke-width:2;"/>
    </g>
    <g id="line2d_46"/>
    <g id="text_25">
     <!-- Wet state mu -->
     <g transform="translate(645.374219 605.260063)scale(0.1 -0.1)">
      <use xlink:href="#DejaVuSans-87"/>
      <use x="98.798828" xlink:href="#DejaVuSans-101"/>
      <use x="160.322266" xlink:href="#DejaVuSans-116"/>
      <use x="199.53125" xlink:href="#DejaVuSans-32"/>
      <use x="231.318359" xlink:href="#DejaVuSans-115"/>
      <use x="283.417969" xlink:href="#DejaVuSans-116"/>
      <use x="322.626953" xlink:href="#DejaVuSans-97"/>
      <use x="383.90625" xlink:href="#DejaVuSans-116"/>
      <use x="423.115234" xlink:href="#DejaVuSans-101"/>
      <use x="484.638672" xlink:href="#DejaVuSans-32"/>
      <use x="516.425781" xlink:href="#DejaVuSans-109"/>
      <use x="613.837891" xlink:href="#DejaVuSans-117"/>
     </g>
    </g>
    <g id="line2d_47">
     <path style="fill:none;stroke:#f8ffa2;stroke-linecap:square;stroke-width:2;"/>
    </g>
    <g id="line2d_48"/>
    <g id="text_26">
     <!-- Wet state sigma -->
     <g transform="translate(645.374219 619.938188)scale(0.1 -0.1)">
      <use xlink:href="#DejaVuSans-87"/>
      <use x="98.798828" xlink:href="#DejaVuSans-101"/>
      <use x="160.322266" xlink:href="#DejaVuSans-116"/>
      <use x="199.53125" xlink:href="#DejaVuSans-32"/>
      <use x="231.318359" xlink:href="#DejaVuSans-115"/>
      <use x="283.417969" xlink:href="#DejaVuSans-116"/>
      <use x="322.626953" xlink:href="#DejaVuSans-97"/>
      <use x="383.90625" xlink:href="#DejaVuSans-116"/>
      <use x="423.115234" xlink:href="#DejaVuSans-101"/>
      <use x="484.638672" xlink:href="#DejaVuSans-32"/>
      <use x="516.425781" xlink:href="#DejaVuSans-115"/>
      <use x="568.525391" xlink:href="#DejaVuSans-105"/>
      <use x="596.308594" xlink:href="#DejaVuSans-103"/>
      <use x="659.785156" xlink:href="#DejaVuSans-109"/>
      <use x="757.197266" xlink:href="#DejaVuSans-97"/>
     </g>
    </g>
    <g id="line2d_49">
     <path style="fill:none;stroke:#578dc0;stroke-linecap:square;stroke-width:2;"/>
    </g>
    <g id="line2d_50"/>
    <g id="text_27">
     <!-- Dry-to-dry state prob. -->
     <defs>
      <path d="M 4.890625 31.390625 
L 31.203125 31.390625 
L 31.203125 23.390625 
L 4.890625 23.390625 
z
" id="DejaVuSans-45"/>
      <path d="M 48.6875 27.296875 
Q 48.6875 37.203125 44.609375 42.84375 
Q 40.53125 48.484375 33.40625 48.484375 
Q 26.265625 48.484375 22.1875 42.84375 
Q 18.109375 37.203125 18.109375 27.296875 
Q 18.109375 17.390625 22.1875 11.75 
Q 26.265625 6.109375 33.40625 6.109375 
Q 40.53125 6.109375 44.609375 11.75 
Q 48.6875 17.390625 48.6875 27.296875 
z
M 18.109375 46.390625 
Q 20.953125 51.265625 25.265625 53.625 
Q 29.59375 56 35.59375 56 
Q 45.5625 56 51.78125 48.09375 
Q 58.015625 40.1875 58.015625 27.296875 
Q 58.015625 14.40625 51.78125 6.484375 
Q 45.5625 -1.421875 35.59375 -1.421875 
Q 29.59375 -1.421875 25.265625 0.953125 
Q 20.953125 3.328125 18.109375 8.203125 
L 18.109375 0 
L 9.078125 0 
L 9.078125 75.984375 
L 18.109375 75.984375 
z
" id="DejaVuSans-98"/>
     </defs>
     <g transform="translate(645.374219 634.616313)scale(0.1 -0.1)">
      <use xlink:href="#DejaVuSans-68"/>
      <use x="77.001953" xlink:href="#DejaVuSans-114"/>
      <use x="118.115234" xlink:href="#DejaVuSans-121"/>
      <use x="177.279297" xlink:href="#DejaVuSans-45"/>
      <use x="213.363281" xlink:href="#DejaVuSans-116"/>
      <use x="252.572266" xlink:href="#DejaVuSans-111"/>
      <use x="313.769531" xlink:href="#DejaVuSans-45"/>
      <use x="349.853516" xlink:href="#DejaVuSans-100"/>
      <use x="413.330078" xlink:href="#DejaVuSans-114"/>
      <use x="454.443359" xlink:href="#DejaVuSans-121"/>
      <use x="513.623047" xlink:href="#DejaVuSans-32"/>
      <use x="545.410156" xlink:href="#DejaVuSans-115"/>
      <use x="597.509766" xlink:href="#DejaVuSans-116"/>
      <use x="636.71875" xlink:href="#DejaVuSans-97"/>
      <use x="697.998047" xlink:href="#DejaVuSans-116"/>
      <use x="737.207031" xlink:href="#DejaVuSans-101"/>
      <use x="798.730469" xlink:href="#DejaVuSans-32"/>
      <use x="830.517578" xlink:href="#DejaVuSans-112"/>
      <use x="893.994141" xlink:href="#DejaVuSans-114"/>
      <use x="935.076172" xlink:href="#DejaVuSans-111"/>
      <use x="996.257812" xlink:href="#DejaVuSans-98"/>
      <use x="1059.734375" xlink:href="#DejaVuSans-46"/>
     </g>
    </g>
    <g id="line2d_51">
     <path style="fill:none;stroke:#4e4ad8;stroke-linecap:square;stroke-width:2;"/>
    </g>
    <g id="line2d_52"/>
    <g id="text_28">
     <!-- Wet-to-wet state prob. -->
     <g transform="translate(802.525781 605.260063)scale(0.1 -0.1)">
      <use xlink:href="#DejaVuSans-87"/>
      <use x="98.798828" xlink:href="#DejaVuSans-101"/>
      <use x="160.322266" xlink:href="#DejaVuSans-116"/>
      <use x="199.53125" xlink:href="#DejaVuSans-45"/>
      <use x="235.615234" xlink:href="#DejaVuSans-116"/>
      <use x="274.824219" xlink:href="#DejaVuSans-111"/>
      <use x="336.021484" xlink:href="#DejaVuSans-45"/>
      <use x="372.105469" xlink:href="#DejaVuSans-119"/>
      <use x="453.892578" xlink:href="#DejaVuSans-101"/>
      <use x="515.416016" xlink:href="#DejaVuSans-116"/>
      <use x="554.625" xlink:href="#DejaVuSans-32"/>
      <use x="586.412109" xlink:href="#DejaVuSans-115"/>
      <use x="638.511719" xlink:href="#DejaVuSans-116"/>
      <use x="677.720703" xlink:href="#DejaVuSans-97"/>
      <use x="739" xlink:href="#DejaVuSans-116"/>
      <use x="778.208984" xlink:href="#DejaVuSans-101"/>
      <use x="839.732422" xlink:href="#DejaVuSans-32"/>
      <use x="871.519531" xlink:href="#DejaVuSans-112"/>
      <use x="934.996094" xlink:href="#DejaVuSans-114"/>
      <use x="976.078125" xlink:href="#DejaVuSans-111"/>
      <use x="1037.259766" xlink:href="#DejaVuSans-98"/>
      <use x="1100.736328" xlink:href="#DejaVuSans-46"/>
     </g>
    </g>
    <g id="line2d_53">
     <path style="fill:none;stroke:#32b3f7;stroke-linecap:square;stroke-width:2;"/>
    </g>
    <g id="line2d_54"/>
    <g id="text_29">
     <!-- Earlier snowmelt -->
     <g transform="translate(802.525781 619.938188)scale(0.1 -0.1)">
      <use xlink:href="#DejaVuSans-69"/>
      <use x="63.183594" xlink:href="#DejaVuSans-97"/>
      <use x="124.462891" xlink:href="#DejaVuSans-114"/>
      <use x="165.576172" xlink:href="#DejaVuSans-108"/>
      <use x="193.359375" xlink:href="#DejaVuSans-105"/>
      <use x="221.142578" xlink:href="#DejaVuSans-101"/>
      <use x="282.666016" xlink:href="#DejaVuSans-114"/>
      <use x="323.779297" xlink:href="#DejaVuSans-32"/>
      <use x="355.566406" xlink:href="#DejaVuSans-115"/>
      <use x="407.666016" xlink:href="#DejaVuSans-110"/>
      <use x="471.044922" xlink:href="#DejaVuSans-111"/>
      <use x="532.226562" xlink:href="#DejaVuSans-119"/>
      <use x="614.013672" xlink:href="#DejaVuSans-109"/>
      <use x="711.425781" xlink:href="#DejaVuSans-101"/>
      <use x="772.949219" xlink:href="#DejaVuSans-108"/>
      <use x="800.732422" xlink:href="#DejaVuSans-116"/>
     </g>
    </g>
   </g>
  </g>
  <g id="text_30">
   <!-- Shortage magnitude sensitivity for 3704614 -->
   <defs>
    <path d="M 40.578125 39.3125 
Q 47.65625 37.796875 51.625 33 
Q 55.609375 28.21875 55.609375 21.1875 
Q 55.609375 10.40625 48.1875 4.484375 
Q 40.765625 -1.421875 27.09375 -1.421875 
Q 22.515625 -1.421875 17.65625 -0.515625 
Q 12.796875 0.390625 7.625 2.203125 
L 7.625 11.71875 
Q 11.71875 9.328125 16.59375 8.109375 
Q 21.484375 6.890625 26.8125 6.890625 
Q 36.078125 6.890625 40.9375 10.546875 
Q 45.796875 14.203125 45.796875 21.1875 
Q 45.796875 27.640625 41.28125 31.265625 
Q 36.765625 34.90625 28.71875 34.90625 
L 20.21875 34.90625 
L 20.21875 43.015625 
L 29.109375 43.015625 
Q 36.375 43.015625 40.234375 45.921875 
Q 44.09375 48.828125 44.09375 54.296875 
Q 44.09375 59.90625 40.109375 62.90625 
Q 36.140625 65.921875 28.71875 65.921875 
Q 24.65625 65.921875 20.015625 65.03125 
Q 15.375 64.15625 9.8125 62.3125 
L 9.8125 71.09375 
Q 15.4375 72.65625 20.34375 73.4375 
Q 25.25 74.21875 29.59375 74.21875 
Q 40.828125 74.21875 47.359375 69.109375 
Q 53.90625 64.015625 53.90625 55.328125 
Q 53.90625 49.265625 50.4375 45.09375 
Q 46.96875 40.921875 40.578125 39.3125 
z
" id="DejaVuSans-51"/>
    <path d="M 8.203125 72.90625 
L 55.078125 72.90625 
L 55.078125 68.703125 
L 28.609375 0 
L 18.3125 0 
L 43.21875 64.59375 
L 8.203125 64.59375 
z
" id="DejaVuSans-55"/>
   </defs>
   <g transform="translate(344.81625 23.6775)scale(0.16 -0.16)">
    <use xlink:href="#DejaVuSans-83"/>
    <use x="63.476562" xlink:href="#DejaVuSans-104"/>
    <use x="126.855469" xlink:href="#DejaVuSans-111"/>
    <use x="188.037109" xlink:href="#DejaVuSans-114"/>
    <use x="229.150391" xlink:href="#DejaVuSans-116"/>
    <use x="268.359375" xlink:href="#DejaVuSans-97"/>
    <use x="329.638672" xlink:href="#DejaVuSans-103"/>
    <use x="393.115234" xlink:href="#DejaVuSans-101"/>
    <use x="454.638672" xlink:href="#DejaVuSans-32"/>
    <use x="486.425781" xlink:href="#DejaVuSans-109"/>
    <use x="583.837891" xlink:href="#DejaVuSans-97"/>
    <use x="645.117188" xlink:href="#DejaVuSans-103"/>
    <use x="708.59375" xlink:href="#DejaVuSans-110"/>
    <use x="771.972656" xlink:href="#DejaVuSans-105"/>
    <use x="799.755859" xlink:href="#DejaVuSans-116"/>
    <use x="838.964844" xlink:href="#DejaVuSans-117"/>
    <use x="902.34375" xlink:href="#DejaVuSans-100"/>
    <use x="965.820312" xlink:href="#DejaVuSans-101"/>
    <use x="1027.34375" xlink:href="#DejaVuSans-32"/>
    <use x="1059.130859" xlink:href="#DejaVuSans-115"/>
    <use x="1111.230469" xlink:href="#DejaVuSans-101"/>
    <use x="1172.753906" xlink:href="#DejaVuSans-110"/>
    <use x="1236.132812" xlink:href="#DejaVuSans-115"/>
    <use x="1288.232422" xlink:href="#DejaVuSans-105"/>
    <use x="1316.015625" xlink:href="#DejaVuSans-116"/>
    <use x="1355.224609" xlink:href="#DejaVuSans-105"/>
    <use x="1383.007812" xlink:href="#DejaVuSans-118"/>
    <use x="1442.1875" xlink:href="#DejaVuSans-105"/>
    <use x="1469.970703" xlink:href="#DejaVuSans-116"/>
    <use x="1509.179688" xlink:href="#DejaVuSans-121"/>
    <use x="1568.359375" xlink:href="#DejaVuSans-32"/>
    <use x="1600.146484" xlink:href="#DejaVuSans-102"/>
    <use x="1635.351562" xlink:href="#DejaVuSans-111"/>
    <use x="1696.533203" xlink:href="#DejaVuSans-114"/>
    <use x="1737.646484" xlink:href="#DejaVuSans-32"/>
    <use x="1769.433594" xlink:href="#DejaVuSans-51"/>
    <use x="1833.056641" xlink:href="#DejaVuSans-55"/>
    <use x="1896.679688" xlink:href="#DejaVuSans-48"/>
    <use x="1960.302734" xlink:href="#DejaVuSans-52"/>
    <use x="2023.925781" xlink:href="#DejaVuSans-54"/>
    <use x="2087.548828" xlink:href="#DejaVuSans-49"/>
    <use x="2151.171875" xlink:href="#DejaVuSans-52"/>
   </g>
  </g>
 </g>
 <defs>
  <clipPath id="p7c96d28c62">
   <rect height="354.816" width="809.1" x="130.5" y="113.472"/>
  </clipPath>
 </defs>
</svg>
