<?xml version="1.0" encoding="utf-8" standalone="no"?>
<!DOCTYPE svg PUBLIC "-//W3C//DTD SVG 1.1//EN"
  "http://www.w3.org/Graphics/SVG/1.1/DTD/svg11.dtd">
<!-- Created with matplotlib (https://matplotlib.org/) -->
<svg height="576pt" version="1.1" viewBox="0 0 1044 576" width="1044pt" xmlns="http://www.w3.org/2000/svg" xmlns:xlink="http://www.w3.org/1999/xlink">
 <defs>
  <style type="text/css">
*{stroke-linecap:butt;stroke-linejoin:round;}
  </style>
 </defs>
 <g id="figure_1">
  <g id="patch_1">
   <path d="M 0 576 
L 1044 576 
L 1044 0 
L 0 0 
z
" style="fill:#ffffff;"/>
  </g>
  <g id="axes_1">
   <g id="patch_2">
    <path d="M 130.5 468.288 
L 939.6 468.288 
L 939.6 113.472 
L 130.5 113.472 
z
" style="fill:#ffffff;"/>
   </g>
   <g id="matplotlib.axis_1">
    <g id="xtick_1">
     <g id="line2d_1">
      <defs>
       <path d="M 0 0 
L 0 3.5 
" id="mbc580d82cf" style="stroke:#000000;stroke-width:0.8;"/>
      </defs>
      <g>
       <use style="stroke:#000000;stroke-width:0.8;" x="130.5" xlink:href="#mbc580d82cf" y="468.288"/>
      </g>
     </g>
     <g id="text_1">
      <!-- 0 -->
      <defs>
       <path d="M 31.78125 66.40625 
Q 24.171875 66.40625 20.328125 58.90625 
Q 16.5 51.421875 16.5 36.375 
Q 16.5 21.390625 20.328125 13.890625 
Q 24.171875 6.390625 31.78125 6.390625 
Q 39.453125 6.390625 43.28125 13.890625 
Q 47.125 21.390625 47.125 36.375 
Q 47.125 51.421875 43.28125 58.90625 
Q 39.453125 66.40625 31.78125 66.40625 
z
M 31.78125 74.21875 
Q 44.046875 74.21875 50.515625 64.515625 
Q 56.984375 54.828125 56.984375 36.375 
Q 56.984375 17.96875 50.515625 8.265625 
Q 44.046875 -1.421875 31.78125 -1.421875 
Q 19.53125 -1.421875 13.0625 8.265625 
Q 6.59375 17.96875 6.59375 36.375 
Q 6.59375 54.828125 13.0625 64.515625 
Q 19.53125 74.21875 31.78125 74.21875 
z
" id="DejaVuSans-48"/>
      </defs>
      <g transform="translate(127.31875 482.886437)scale(0.1 -0.1)">
       <use xlink:href="#DejaVuSans-48"/>
      </g>
     </g>
    </g>
    <g id="xtick_2">
     <g id="line2d_2">
      <g>
       <use style="stroke:#000000;stroke-width:0.8;" x="292.32" xlink:href="#mbc580d82cf" y="468.288"/>
      </g>
     </g>
     <g id="text_2">
      <!-- 20 -->
      <defs>
       <path d="M 19.1875 8.296875 
L 53.609375 8.296875 
L 53.609375 0 
L 7.328125 0 
L 7.328125 8.296875 
Q 12.9375 14.109375 22.625 23.890625 
Q 32.328125 33.6875 34.8125 36.53125 
Q 39.546875 41.84375 41.421875 45.53125 
Q 43.3125 49.21875 43.3125 52.78125 
Q 43.3125 58.59375 39.234375 62.25 
Q 35.15625 65.921875 28.609375 65.921875 
Q 23.96875 65.921875 18.8125 64.3125 
Q 13.671875 62.703125 7.8125 59.421875 
L 7.8125 69.390625 
Q 13.765625 71.78125 18.9375 73 
Q 24.125 74.21875 28.421875 74.21875 
Q 39.75 74.21875 46.484375 68.546875 
Q 53.21875 62.890625 53.21875 53.421875 
Q 53.21875 48.921875 51.53125 44.890625 
Q 49.859375 40.875 45.40625 35.40625 
Q 44.1875 33.984375 37.640625 27.21875 
Q 31.109375 20.453125 19.1875 8.296875 
z
" id="DejaVuSans-50"/>
      </defs>
      <g transform="translate(285.9575 482.886437)scale(0.1 -0.1)">
       <use xlink:href="#DejaVuSans-50"/>
       <use x="63.623047" xlink:href="#DejaVuSans-48"/>
      </g>
     </g>
    </g>
    <g id="xtick_3">
     <g id="line2d_3">
      <g>
       <use style="stroke:#000000;stroke-width:0.8;" x="454.14" xlink:href="#mbc580d82cf" y="468.288"/>
      </g>
     </g>
     <g id="text_3">
      <!-- 40 -->
      <defs>
       <path d="M 37.796875 64.3125 
L 12.890625 25.390625 
L 37.796875 25.390625 
z
M 35.203125 72.90625 
L 47.609375 72.90625 
L 47.609375 25.390625 
L 58.015625 25.390625 
L 58.015625 17.1875 
L 47.609375 17.1875 
L 47.609375 0 
L 37.796875 0 
L 37.796875 17.1875 
L 4.890625 17.1875 
L 4.890625 26.703125 
z
" id="DejaVuSans-52"/>
      </defs>
      <g transform="translate(447.7775 482.886437)scale(0.1 -0.1)">
       <use xlink:href="#DejaVuSans-52"/>
       <use x="63.623047" xlink:href="#DejaVuSans-48"/>
      </g>
     </g>
    </g>
    <g id="xtick_4">
     <g id="line2d_4">
      <g>
       <use style="stroke:#000000;stroke-width:0.8;" x="615.96" xlink:href="#mbc580d82cf" y="468.288"/>
      </g>
     </g>
     <g id="text_4">
      <!-- 60 -->
      <defs>
       <path d="M 33.015625 40.375 
Q 26.375 40.375 22.484375 35.828125 
Q 18.609375 31.296875 18.609375 23.390625 
Q 18.609375 15.53125 22.484375 10.953125 
Q 26.375 6.390625 33.015625 6.390625 
Q 39.65625 6.390625 43.53125 10.953125 
Q 47.40625 15.53125 47.40625 23.390625 
Q 47.40625 31.296875 43.53125 35.828125 
Q 39.65625 40.375 33.015625 40.375 
z
M 52.59375 71.296875 
L 52.59375 62.3125 
Q 48.875 64.0625 45.09375 64.984375 
Q 41.3125 65.921875 37.59375 65.921875 
Q 27.828125 65.921875 22.671875 59.328125 
Q 17.53125 52.734375 16.796875 39.40625 
Q 19.671875 43.65625 24.015625 45.921875 
Q 28.375 48.1875 33.59375 48.1875 
Q 44.578125 48.1875 50.953125 41.515625 
Q 57.328125 34.859375 57.328125 23.390625 
Q 57.328125 12.15625 50.6875 5.359375 
Q 44.046875 -1.421875 33.015625 -1.421875 
Q 20.359375 -1.421875 13.671875 8.265625 
Q 6.984375 17.96875 6.984375 36.375 
Q 6.984375 53.65625 15.1875 63.9375 
Q 23.390625 74.21875 37.203125 74.21875 
Q 40.921875 74.21875 44.703125 73.484375 
Q 48.484375 72.75 52.59375 71.296875 
z
" id="DejaVuSans-54"/>
      </defs>
      <g transform="translate(609.5975 482.886437)scale(0.1 -0.1)">
       <use xlink:href="#DejaVuSans-54"/>
       <use x="63.623047" xlink:href="#DejaVuSans-48"/>
      </g>
     </g>
    </g>
    <g id="xtick_5">
     <g id="line2d_5">
      <g>
       <use style="stroke:#000000;stroke-width:0.8;" x="777.78" xlink:href="#mbc580d82cf" y="468.288"/>
      </g>
     </g>
     <g id="text_5">
      <!-- 80 -->
      <defs>
       <path d="M 31.78125 34.625 
Q 24.75 34.625 20.71875 30.859375 
Q 16.703125 27.09375 16.703125 20.515625 
Q 16.703125 13.921875 20.71875 10.15625 
Q 24.75 6.390625 31.78125 6.390625 
Q 38.8125 6.390625 42.859375 10.171875 
Q 46.921875 13.96875 46.921875 20.515625 
Q 46.921875 27.09375 42.890625 30.859375 
Q 38.875 34.625 31.78125 34.625 
z
M 21.921875 38.8125 
Q 15.578125 40.375 12.03125 44.71875 
Q 8.5 49.078125 8.5 55.328125 
Q 8.5 64.0625 14.71875 69.140625 
Q 20.953125 74.21875 31.78125 74.21875 
Q 42.671875 74.21875 48.875 69.140625 
Q 55.078125 64.0625 55.078125 55.328125 
Q 55.078125 49.078125 51.53125 44.71875 
Q 48 40.375 41.703125 38.8125 
Q 48.828125 37.15625 52.796875 32.3125 
Q 56.78125 27.484375 56.78125 20.515625 
Q 56.78125 9.90625 50.3125 4.234375 
Q 43.84375 -1.421875 31.78125 -1.421875 
Q 19.734375 -1.421875 13.25 4.234375 
Q 6.78125 9.90625 6.78125 20.515625 
Q 6.78125 27.484375 10.78125 32.3125 
Q 14.796875 37.15625 21.921875 38.8125 
z
M 18.3125 54.390625 
Q 18.3125 48.734375 21.84375 45.5625 
Q 25.390625 42.390625 31.78125 42.390625 
Q 38.140625 42.390625 41.71875 45.5625 
Q 45.3125 48.734375 45.3125 54.390625 
Q 45.3125 60.0625 41.71875 63.234375 
Q 38.140625 66.40625 31.78125 66.40625 
Q 25.390625 66.40625 21.84375 63.234375 
Q 18.3125 60.0625 18.3125 54.390625 
z
" id="DejaVuSans-56"/>
      </defs>
      <g transform="translate(771.4175 482.886437)scale(0.1 -0.1)">
       <use xlink:href="#DejaVuSans-56"/>
       <use x="63.623047" xlink:href="#DejaVuSans-48"/>
      </g>
     </g>
    </g>
    <g id="xtick_6">
     <g id="line2d_6">
      <g>
       <use style="stroke:#000000;stroke-width:0.8;" x="939.6" xlink:href="#mbc580d82cf" y="468.288"/>
      </g>
     </g>
     <g id="text_6">
      <!-- 100 -->
      <defs>
       <path d="M 12.40625 8.296875 
L 28.515625 8.296875 
L 28.515625 63.921875 
L 10.984375 60.40625 
L 10.984375 69.390625 
L 28.421875 72.90625 
L 38.28125 72.90625 
L 38.28125 8.296875 
L 54.390625 8.296875 
L 54.390625 0 
L 12.40625 0 
z
" id="DejaVuSans-49"/>
      </defs>
      <g transform="translate(930.05625 482.886437)scale(0.1 -0.1)">
       <use xlink:href="#DejaVuSans-49"/>
       <use x="63.623047" xlink:href="#DejaVuSans-48"/>
       <use x="127.246094" xlink:href="#DejaVuSans-48"/>
      </g>
     </g>
    </g>
    <g id="text_7">
     <!-- Shortage magnitude percentile -->
     <defs>
      <path d="M 53.515625 70.515625 
L 53.515625 60.890625 
Q 47.90625 63.578125 42.921875 64.890625 
Q 37.9375 66.21875 33.296875 66.21875 
Q 25.25 66.21875 20.875 63.09375 
Q 16.5 59.96875 16.5 54.203125 
Q 16.5 49.359375 19.40625 46.890625 
Q 22.3125 44.4375 30.421875 42.921875 
L 36.375 41.703125 
Q 47.40625 39.59375 52.65625 34.296875 
Q 57.90625 29 57.90625 20.125 
Q 57.90625 9.515625 50.796875 4.046875 
Q 43.703125 -1.421875 29.984375 -1.421875 
Q 24.8125 -1.421875 18.96875 -0.25 
Q 13.140625 0.921875 6.890625 3.21875 
L 6.890625 13.375 
Q 12.890625 10.015625 18.65625 8.296875 
Q 24.421875 6.59375 29.984375 6.59375 
Q 38.421875 6.59375 43.015625 9.90625 
Q 47.609375 13.234375 47.609375 19.390625 
Q 47.609375 24.75 44.3125 27.78125 
Q 41.015625 30.8125 33.5 32.328125 
L 27.484375 33.5 
Q 16.453125 35.6875 11.515625 40.375 
Q 6.59375 45.0625 6.59375 53.421875 
Q 6.59375 63.09375 13.40625 68.65625 
Q 20.21875 74.21875 32.171875 74.21875 
Q 37.3125 74.21875 42.625 73.28125 
Q 47.953125 72.359375 53.515625 70.515625 
z
" id="DejaVuSans-83"/>
      <path d="M 54.890625 33.015625 
L 54.890625 0 
L 45.90625 0 
L 45.90625 32.71875 
Q 45.90625 40.484375 42.875 44.328125 
Q 39.84375 48.1875 33.796875 48.1875 
Q 26.515625 48.1875 22.3125 43.546875 
Q 18.109375 38.921875 18.109375 30.90625 
L 18.109375 0 
L 9.078125 0 
L 9.078125 75.984375 
L 18.109375 75.984375 
L 18.109375 46.1875 
Q 21.34375 51.125 25.703125 53.5625 
Q 30.078125 56 35.796875 56 
Q 45.21875 56 50.046875 50.171875 
Q 54.890625 44.34375 54.890625 33.015625 
z
" id="DejaVuSans-104"/>
      <path d="M 30.609375 48.390625 
Q 23.390625 48.390625 19.1875 42.75 
Q 14.984375 37.109375 14.984375 27.296875 
Q 14.984375 17.484375 19.15625 11.84375 
Q 23.34375 6.203125 30.609375 6.203125 
Q 37.796875 6.203125 41.984375 11.859375 
Q 46.1875 17.53125 46.1875 27.296875 
Q 46.1875 37.015625 41.984375 42.703125 
Q 37.796875 48.390625 30.609375 48.390625 
z
M 30.609375 56 
Q 42.328125 56 49.015625 48.375 
Q 55.71875 40.765625 55.71875 27.296875 
Q 55.71875 13.875 49.015625 6.21875 
Q 42.328125 -1.421875 30.609375 -1.421875 
Q 18.84375 -1.421875 12.171875 6.21875 
Q 5.515625 13.875 5.515625 27.296875 
Q 5.515625 40.765625 12.171875 48.375 
Q 18.84375 56 30.609375 56 
z
" id="DejaVuSans-111"/>
      <path d="M 41.109375 46.296875 
Q 39.59375 47.171875 37.8125 47.578125 
Q 36.03125 48 33.890625 48 
Q 26.265625 48 22.1875 43.046875 
Q 18.109375 38.09375 18.109375 28.8125 
L 18.109375 0 
L 9.078125 0 
L 9.078125 54.6875 
L 18.109375 54.6875 
L 18.109375 46.1875 
Q 20.953125 51.171875 25.484375 53.578125 
Q 30.03125 56 36.53125 56 
Q 37.453125 56 38.578125 55.875 
Q 39.703125 55.765625 41.0625 55.515625 
z
" id="DejaVuSans-114"/>
      <path d="M 18.3125 70.21875 
L 18.3125 54.6875 
L 36.8125 54.6875 
L 36.8125 47.703125 
L 18.3125 47.703125 
L 18.3125 18.015625 
Q 18.3125 11.328125 20.140625 9.421875 
Q 21.96875 7.515625 27.59375 7.515625 
L 36.8125 7.515625 
L 36.8125 0 
L 27.59375 0 
Q 17.1875 0 13.234375 3.875 
Q 9.28125 7.765625 9.28125 18.015625 
L 9.28125 47.703125 
L 2.6875 47.703125 
L 2.6875 54.6875 
L 9.28125 54.6875 
L 9.28125 70.21875 
z
" id="DejaVuSans-116"/>
      <path d="M 34.28125 27.484375 
Q 23.390625 27.484375 19.1875 25 
Q 14.984375 22.515625 14.984375 16.5 
Q 14.984375 11.71875 18.140625 8.90625 
Q 21.296875 6.109375 26.703125 6.109375 
Q 34.1875 6.109375 38.703125 11.40625 
Q 43.21875 16.703125 43.21875 25.484375 
L 43.21875 27.484375 
z
M 52.203125 31.203125 
L 52.203125 0 
L 43.21875 0 
L 43.21875 8.296875 
Q 40.140625 3.328125 35.546875 0.953125 
Q 30.953125 -1.421875 24.3125 -1.421875 
Q 15.921875 -1.421875 10.953125 3.296875 
Q 6 8.015625 6 15.921875 
Q 6 25.140625 12.171875 29.828125 
Q 18.359375 34.515625 30.609375 34.515625 
L 43.21875 34.515625 
L 43.21875 35.40625 
Q 43.21875 41.609375 39.140625 45 
Q 35.0625 48.390625 27.6875 48.390625 
Q 23 48.390625 18.546875 47.265625 
Q 14.109375 46.140625 10.015625 43.890625 
L 10.015625 52.203125 
Q 14.9375 54.109375 19.578125 55.046875 
Q 24.21875 56 28.609375 56 
Q 40.484375 56 46.34375 49.84375 
Q 52.203125 43.703125 52.203125 31.203125 
z
" id="DejaVuSans-97"/>
      <path d="M 45.40625 27.984375 
Q 45.40625 37.75 41.375 43.109375 
Q 37.359375 48.484375 30.078125 48.484375 
Q 22.859375 48.484375 18.828125 43.109375 
Q 14.796875 37.75 14.796875 27.984375 
Q 14.796875 18.265625 18.828125 12.890625 
Q 22.859375 7.515625 30.078125 7.515625 
Q 37.359375 7.515625 41.375 12.890625 
Q 45.40625 18.265625 45.40625 27.984375 
z
M 54.390625 6.78125 
Q 54.390625 -7.171875 48.1875 -13.984375 
Q 42 -20.796875 29.203125 -20.796875 
Q 24.46875 -20.796875 20.265625 -20.09375 
Q 16.0625 -19.390625 12.109375 -17.921875 
L 12.109375 -9.1875 
Q 16.0625 -11.328125 19.921875 -12.34375 
Q 23.78125 -13.375 27.78125 -13.375 
Q 36.625 -13.375 41.015625 -8.765625 
Q 45.40625 -4.15625 45.40625 5.171875 
L 45.40625 9.625 
Q 42.625 4.78125 38.28125 2.390625 
Q 33.9375 0 27.875 0 
Q 17.828125 0 11.671875 7.65625 
Q 5.515625 15.328125 5.515625 27.984375 
Q 5.515625 40.671875 11.671875 48.328125 
Q 17.828125 56 27.875 56 
Q 33.9375 56 38.28125 53.609375 
Q 42.625 51.21875 45.40625 46.390625 
L 45.40625 54.6875 
L 54.390625 54.6875 
z
" id="DejaVuSans-103"/>
      <path d="M 56.203125 29.59375 
L 56.203125 25.203125 
L 14.890625 25.203125 
Q 15.484375 15.921875 20.484375 11.0625 
Q 25.484375 6.203125 34.421875 6.203125 
Q 39.59375 6.203125 44.453125 7.46875 
Q 49.3125 8.734375 54.109375 11.28125 
L 54.109375 2.78125 
Q 49.265625 0.734375 44.1875 -0.34375 
Q 39.109375 -1.421875 33.890625 -1.421875 
Q 20.796875 -1.421875 13.15625 6.1875 
Q 5.515625 13.8125 5.515625 26.8125 
Q 5.515625 40.234375 12.765625 48.109375 
Q 20.015625 56 32.328125 56 
Q 43.359375 56 49.78125 48.890625 
Q 56.203125 41.796875 56.203125 29.59375 
z
M 47.21875 32.234375 
Q 47.125 39.59375 43.09375 43.984375 
Q 39.0625 48.390625 32.421875 48.390625 
Q 24.90625 48.390625 20.390625 44.140625 
Q 15.875 39.890625 15.1875 32.171875 
z
" id="DejaVuSans-101"/>
      <path id="DejaVuSans-32"/>
      <path d="M 52 44.1875 
Q 55.375 50.25 60.0625 53.125 
Q 64.75 56 71.09375 56 
Q 79.640625 56 84.28125 50.015625 
Q 88.921875 44.046875 88.921875 33.015625 
L 88.921875 0 
L 79.890625 0 
L 79.890625 32.71875 
Q 79.890625 40.578125 77.09375 44.375 
Q 74.3125 48.1875 68.609375 48.1875 
Q 61.625 48.1875 57.5625 43.546875 
Q 53.515625 38.921875 53.515625 30.90625 
L 53.515625 0 
L 44.484375 0 
L 44.484375 32.71875 
Q 44.484375 40.625 41.703125 44.40625 
Q 38.921875 48.1875 33.109375 48.1875 
Q 26.21875 48.1875 22.15625 43.53125 
Q 18.109375 38.875 18.109375 30.90625 
L 18.109375 0 
L 9.078125 0 
L 9.078125 54.6875 
L 18.109375 54.6875 
L 18.109375 46.1875 
Q 21.1875 51.21875 25.484375 53.609375 
Q 29.78125 56 35.6875 56 
Q 41.65625 56 45.828125 52.96875 
Q 50 49.953125 52 44.1875 
z
" id="DejaVuSans-109"/>
      <path d="M 54.890625 33.015625 
L 54.890625 0 
L 45.90625 0 
L 45.90625 32.71875 
Q 45.90625 40.484375 42.875 44.328125 
Q 39.84375 48.1875 33.796875 48.1875 
Q 26.515625 48.1875 22.3125 43.546875 
Q 18.109375 38.921875 18.109375 30.90625 
L 18.109375 0 
L 9.078125 0 
L 9.078125 54.6875 
L 18.109375 54.6875 
L 18.109375 46.1875 
Q 21.34375 51.125 25.703125 53.5625 
Q 30.078125 56 35.796875 56 
Q 45.21875 56 50.046875 50.171875 
Q 54.890625 44.34375 54.890625 33.015625 
z
" id="DejaVuSans-110"/>
      <path d="M 9.421875 54.6875 
L 18.40625 54.6875 
L 18.40625 0 
L 9.421875 0 
z
M 9.421875 75.984375 
L 18.40625 75.984375 
L 18.40625 64.59375 
L 9.421875 64.59375 
z
" id="DejaVuSans-105"/>
      <path d="M 8.5 21.578125 
L 8.5 54.6875 
L 17.484375 54.6875 
L 17.484375 21.921875 
Q 17.484375 14.15625 20.5 10.265625 
Q 23.53125 6.390625 29.59375 6.390625 
Q 36.859375 6.390625 41.078125 11.03125 
Q 45.3125 15.671875 45.3125 23.6875 
L 45.3125 54.6875 
L 54.296875 54.6875 
L 54.296875 0 
L 45.3125 0 
L 45.3125 8.40625 
Q 42.046875 3.421875 37.71875 1 
Q 33.40625 -1.421875 27.6875 -1.421875 
Q 18.265625 -1.421875 13.375 4.4375 
Q 8.5 10.296875 8.5 21.578125 
z
M 31.109375 56 
z
" id="DejaVuSans-117"/>
      <path d="M 45.40625 46.390625 
L 45.40625 75.984375 
L 54.390625 75.984375 
L 54.390625 0 
L 45.40625 0 
L 45.40625 8.203125 
Q 42.578125 3.328125 38.25 0.953125 
Q 33.9375 -1.421875 27.875 -1.421875 
Q 17.96875 -1.421875 11.734375 6.484375 
Q 5.515625 14.40625 5.515625 27.296875 
Q 5.515625 40.1875 11.734375 48.09375 
Q 17.96875 56 27.875 56 
Q 33.9375 56 38.25 53.625 
Q 42.578125 51.265625 45.40625 46.390625 
z
M 14.796875 27.296875 
Q 14.796875 17.390625 18.875 11.75 
Q 22.953125 6.109375 30.078125 6.109375 
Q 37.203125 6.109375 41.296875 11.75 
Q 45.40625 17.390625 45.40625 27.296875 
Q 45.40625 37.203125 41.296875 42.84375 
Q 37.203125 48.484375 30.078125 48.484375 
Q 22.953125 48.484375 18.875 42.84375 
Q 14.796875 37.203125 14.796875 27.296875 
z
" id="DejaVuSans-100"/>
      <path d="M 18.109375 8.203125 
L 18.109375 -20.796875 
L 9.078125 -20.796875 
L 9.078125 54.6875 
L 18.109375 54.6875 
L 18.109375 46.390625 
Q 20.953125 51.265625 25.265625 53.625 
Q 29.59375 56 35.59375 56 
Q 45.5625 56 51.78125 48.09375 
Q 58.015625 40.1875 58.015625 27.296875 
Q 58.015625 14.40625 51.78125 6.484375 
Q 45.5625 -1.421875 35.59375 -1.421875 
Q 29.59375 -1.421875 25.265625 0.953125 
Q 20.953125 3.328125 18.109375 8.203125 
z
M 48.6875 27.296875 
Q 48.6875 37.203125 44.609375 42.84375 
Q 40.53125 48.484375 33.40625 48.484375 
Q 26.265625 48.484375 22.1875 42.84375 
Q 18.109375 37.203125 18.109375 27.296875 
Q 18.109375 17.390625 22.1875 11.75 
Q 26.265625 6.109375 33.40625 6.109375 
Q 40.53125 6.109375 44.609375 11.75 
Q 48.6875 17.390625 48.6875 27.296875 
z
" id="DejaVuSans-112"/>
      <path d="M 48.78125 52.59375 
L 48.78125 44.1875 
Q 44.96875 46.296875 41.140625 47.34375 
Q 37.3125 48.390625 33.40625 48.390625 
Q 24.65625 48.390625 19.8125 42.84375 
Q 14.984375 37.3125 14.984375 27.296875 
Q 14.984375 17.28125 19.8125 11.734375 
Q 24.65625 6.203125 33.40625 6.203125 
Q 37.3125 6.203125 41.140625 7.25 
Q 44.96875 8.296875 48.78125 10.40625 
L 48.78125 2.09375 
Q 45.015625 0.34375 40.984375 -0.53125 
Q 36.96875 -1.421875 32.421875 -1.421875 
Q 20.0625 -1.421875 12.78125 6.34375 
Q 5.515625 14.109375 5.515625 27.296875 
Q 5.515625 40.671875 12.859375 48.328125 
Q 20.21875 56 33.015625 56 
Q 37.15625 56 41.109375 55.140625 
Q 45.0625 54.296875 48.78125 52.59375 
z
" id="DejaVuSans-99"/>
      <path d="M 9.421875 75.984375 
L 18.40625 75.984375 
L 18.40625 0 
L 9.421875 0 
z
" id="DejaVuSans-108"/>
     </defs>
     <g transform="translate(410.13625 501.123625)scale(0.16 -0.16)">
      <use xlink:href="#DejaVuSans-83"/>
      <use x="63.476562" xlink:href="#DejaVuSans-104"/>
      <use x="126.855469" xlink:href="#DejaVuSans-111"/>
      <use x="188.037109" xlink:href="#DejaVuSans-114"/>
      <use x="229.150391" xlink:href="#DejaVuSans-116"/>
      <use x="268.359375" xlink:href="#DejaVuSans-97"/>
      <use x="329.638672" xlink:href="#DejaVuSans-103"/>
      <use x="393.115234" xlink:href="#DejaVuSans-101"/>
      <use x="454.638672" xlink:href="#DejaVuSans-32"/>
      <use x="486.425781" xlink:href="#DejaVuSans-109"/>
      <use x="583.837891" xlink:href="#DejaVuSans-97"/>
      <use x="645.117188" xlink:href="#DejaVuSans-103"/>
      <use x="708.59375" xlink:href="#DejaVuSans-110"/>
      <use x="771.972656" xlink:href="#DejaVuSans-105"/>
      <use x="799.755859" xlink:href="#DejaVuSans-116"/>
      <use x="838.964844" xlink:href="#DejaVuSans-117"/>
      <use x="902.34375" xlink:href="#DejaVuSans-100"/>
      <use x="965.820312" xlink:href="#DejaVuSans-101"/>
      <use x="1027.34375" xlink:href="#DejaVuSans-32"/>
      <use x="1059.130859" xlink:href="#DejaVuSans-112"/>
      <use x="1122.607422" xlink:href="#DejaVuSans-101"/>
      <use x="1184.130859" xlink:href="#DejaVuSans-114"/>
      <use x="1225.212891" xlink:href="#DejaVuSans-99"/>
      <use x="1280.193359" xlink:href="#DejaVuSans-101"/>
      <use x="1341.716797" xlink:href="#DejaVuSans-110"/>
      <use x="1405.095703" xlink:href="#DejaVuSans-116"/>
      <use x="1444.304688" xlink:href="#DejaVuSans-105"/>
      <use x="1472.087891" xlink:href="#DejaVuSans-108"/>
      <use x="1499.871094" xlink:href="#DejaVuSans-101"/>
     </g>
    </g>
   </g>
   <g id="matplotlib.axis_2">
    <g id="ytick_1">
     <g id="line2d_7">
      <defs>
       <path d="M 0 0 
L -3.5 0 
" id="mee1ac76647" style="stroke:#000000;stroke-width:0.8;"/>
      </defs>
      <g>
       <use style="stroke:#000000;stroke-width:0.8;" x="130.5" xlink:href="#mee1ac76647" y="468.288"/>
      </g>
     </g>
     <g id="text_8">
      <!-- 0.0 -->
      <defs>
       <path d="M 10.6875 12.40625 
L 21 12.40625 
L 21 0 
L 10.6875 0 
z
" id="DejaVuSans-46"/>
      </defs>
      <g transform="translate(107.596875 472.087219)scale(0.1 -0.1)">
       <use xlink:href="#DejaVuSans-48"/>
       <use x="63.623047" xlink:href="#DejaVuSans-46"/>
       <use x="95.410156" xlink:href="#DejaVuSans-48"/>
      </g>
     </g>
    </g>
    <g id="ytick_2">
     <g id="line2d_8">
      <g>
       <use style="stroke:#000000;stroke-width:0.8;" x="130.5" xlink:href="#mee1ac76647" y="397.3248"/>
      </g>
     </g>
     <g id="text_9">
      <!-- 0.2 -->
      <g transform="translate(107.596875 401.124019)scale(0.1 -0.1)">
       <use xlink:href="#DejaVuSans-48"/>
       <use x="63.623047" xlink:href="#DejaVuSans-46"/>
       <use x="95.410156" xlink:href="#DejaVuSans-50"/>
      </g>
     </g>
    </g>
    <g id="ytick_3">
     <g id="line2d_9">
      <g>
       <use style="stroke:#000000;stroke-width:0.8;" x="130.5" xlink:href="#mee1ac76647" y="326.3616"/>
      </g>
     </g>
     <g id="text_10">
      <!-- 0.4 -->
      <g transform="translate(107.596875 330.160819)scale(0.1 -0.1)">
       <use xlink:href="#DejaVuSans-48"/>
       <use x="63.623047" xlink:href="#DejaVuSans-46"/>
       <use x="95.410156" xlink:href="#DejaVuSans-52"/>
      </g>
     </g>
    </g>
    <g id="ytick_4">
     <g id="line2d_10">
      <g>
       <use style="stroke:#000000;stroke-width:0.8;" x="130.5" xlink:href="#mee1ac76647" y="255.3984"/>
      </g>
     </g>
     <g id="text_11">
      <!-- 0.6 -->
      <g transform="translate(107.596875 259.197619)scale(0.1 -0.1)">
       <use xlink:href="#DejaVuSans-48"/>
       <use x="63.623047" xlink:href="#DejaVuSans-46"/>
       <use x="95.410156" xlink:href="#DejaVuSans-54"/>
      </g>
     </g>
    </g>
    <g id="ytick_5">
     <g id="line2d_11">
      <g>
       <use style="stroke:#000000;stroke-width:0.8;" x="130.5" xlink:href="#mee1ac76647" y="184.4352"/>
      </g>
     </g>
     <g id="text_12">
      <!-- 0.8 -->
      <g transform="translate(107.596875 188.234419)scale(0.1 -0.1)">
       <use xlink:href="#DejaVuSans-48"/>
       <use x="63.623047" xlink:href="#DejaVuSans-46"/>
       <use x="95.410156" xlink:href="#DejaVuSans-56"/>
      </g>
     </g>
    </g>
    <g id="ytick_6">
     <g id="line2d_12">
      <g>
       <use style="stroke:#000000;stroke-width:0.8;" x="130.5" xlink:href="#mee1ac76647" y="113.472"/>
      </g>
     </g>
     <g id="text_13">
      <!-- 1.0 -->
      <g transform="translate(107.596875 117.271219)scale(0.1 -0.1)">
       <use xlink:href="#DejaVuSans-49"/>
       <use x="63.623047" xlink:href="#DejaVuSans-46"/>
       <use x="95.410156" xlink:href="#DejaVuSans-48"/>
      </g>
     </g>
    </g>
    <g id="text_14">
     <!-- Variance explained -->
     <defs>
      <path d="M 28.609375 0 
L 0.78125 72.90625 
L 11.078125 72.90625 
L 34.1875 11.53125 
L 57.328125 72.90625 
L 67.578125 72.90625 
L 39.796875 0 
z
" id="DejaVuSans-86"/>
      <path d="M 54.890625 54.6875 
L 35.109375 28.078125 
L 55.90625 0 
L 45.3125 0 
L 29.390625 21.484375 
L 13.484375 0 
L 2.875 0 
L 24.125 28.609375 
L 4.6875 54.6875 
L 15.28125 54.6875 
L 29.78125 35.203125 
L 44.28125 54.6875 
z
" id="DejaVuSans-120"/>
     </defs>
     <g transform="translate(100.269375 367.7475)rotate(-90)scale(0.16 -0.16)">
      <use xlink:href="#DejaVuSans-86"/>
      <use x="68.298828" xlink:href="#DejaVuSans-97"/>
      <use x="129.578125" xlink:href="#DejaVuSans-114"/>
      <use x="170.691406" xlink:href="#DejaVuSans-105"/>
      <use x="198.474609" xlink:href="#DejaVuSans-97"/>
      <use x="259.753906" xlink:href="#DejaVuSans-110"/>
      <use x="323.132812" xlink:href="#DejaVuSans-99"/>
      <use x="378.113281" xlink:href="#DejaVuSans-101"/>
      <use x="439.636719" xlink:href="#DejaVuSans-32"/>
      <use x="471.423828" xlink:href="#DejaVuSans-101"/>
      <use x="532.931641" xlink:href="#DejaVuSans-120"/>
      <use x="592.111328" xlink:href="#DejaVuSans-112"/>
      <use x="655.587891" xlink:href="#DejaVuSans-108"/>
      <use x="683.371094" xlink:href="#DejaVuSans-97"/>
      <use x="744.650391" xlink:href="#DejaVuSans-105"/>
      <use x="772.433594" xlink:href="#DejaVuSans-110"/>
      <use x="835.8125" xlink:href="#DejaVuSans-101"/>
      <use x="897.335938" xlink:href="#DejaVuSans-100"/>
     </g>
    </g>
   </g>
   <g id="line2d_13">
    <path clip-path="url(#peb0c860897)" d="M 130.5 441.049992 
L 138.591 441.049992 
L 146.682 441.049992 
L 154.773 441.049992 
L 162.864 441.049992 
L 170.955 441.049992 
L 179.046 441.077709 
L 187.137 440.896757 
L 195.228 434.470721 
L 203.319 433.445394 
L 211.41 430.889282 
L 219.501 428.418182 
L 227.592 423.570018 
L 235.683 422.579975 
L 243.774 422.197546 
L 251.865 422.114253 
L 259.956 422.250714 
L 268.047 422.538764 
L 276.138 422.707554 
L 284.229 422.917816 
L 292.32 423.356129 
L 300.411 423.453772 
L 308.502 423.256995 
L 316.593 423.415856 
L 324.684 423.275257 
L 332.775 423.219164 
L 340.866 422.856186 
L 348.957 422.899582 
L 357.048 422.73484 
L 365.139 422.387792 
L 373.23 422.039242 
L 381.321 421.29799 
L 389.412 421.115918 
L 397.503 420.902954 
L 405.594 420.341802 
L 413.685 420.165792 
L 421.776 420.150194 
L 429.867 420.086809 
L 437.958 419.887617 
L 446.049 418.971386 
L 454.14 417.94815 
L 462.231 417.530573 
L 470.322 417.236812 
L 478.413 416.96825 
L 486.504 415.717615 
L 494.595 413.936782 
L 502.686 411.425708 
L 510.777 408.80186 
L 518.868 405.393112 
L 526.959 405.330912 
L 535.05 405.094231 
L 543.141 404.781009 
L 551.232 404.787038 
L 559.323 404.341147 
L 567.414 403.958542 
L 575.505 404.123715 
L 583.596 404.137504 
L 591.687 405.118777 
L 599.778 405.302877 
L 607.869 405.602925 
L 615.96 405.729093 
L 624.051 406.063494 
L 632.142 405.940277 
L 640.233 406.051926 
L 648.324 405.335581 
L 656.415 405.157141 
L 664.506 405.18763 
L 672.597 405.420496 
L 680.688 405.719963 
L 688.779 405.986466 
L 696.87 406.199252 
L 704.961 406.246198 
L 713.052 406.145924 
L 721.143 406.150301 
L 729.234 406.377897 
L 737.325 406.535143 
L 745.416 406.455917 
L 753.507 410.070159 
L 761.598 411.991027 
L 769.689 412.293518 
L 777.78 412.555097 
L 785.871 408.361036 
L 793.962 395.239004 
L 802.053 393.357939 
L 810.144 393.136254 
L 818.235 391.051988 
L 826.326 390.771192 
L 834.417 390.85412 
L 842.508 396.33392 
L 850.599 397.852548 
L 858.69 392.17206 
L 866.781 385.21718 
L 874.872 381.067149 
L 882.963 376.218363 
L 891.054 375.344865 
L 899.145 377.02026 
L 907.236 394.864445 
L 915.327 401.481581 
L 923.418 406.179204 
L 931.509 404.216799 
" style="fill:none;stroke:#f18670;stroke-linecap:square;stroke-width:2;"/>
   </g>
   <g id="line2d_14">
    <path clip-path="url(#peb0c860897)" d="M 130.5 468.135612 
L 138.591 468.135612 
L 146.682 468.135612 
L 154.773 468.135612 
L 162.864 468.135612 
L 170.955 468.135612 
L 179.046 468.11324 
L 187.137 468.043472 
L 195.228 468.008295 
L 203.319 467.999349 
L 211.41 468.040513 
L 219.501 468.056365 
L 227.592 468.121765 
L 235.683 468.122396 
L 243.774 468.137722 
L 251.865 468.128649 
L 259.956 468.131382 
L 268.047 468.073134 
L 276.138 468.065929 
L 284.229 468.07279 
L 292.32 468.019623 
L 300.411 468.042472 
L 308.502 468.0516 
L 316.593 468.038515 
L 324.684 468.068314 
L 332.775 468.059361 
L 340.866 468.012719 
L 348.957 468.021565 
L 357.048 468.022948 
L 365.139 468.014084 
L 373.23 467.982081 
L 381.321 468.006622 
L 389.412 468.019565 
L 397.503 468.044364 
L 405.594 468.047055 
L 413.685 468.048007 
L 421.776 468.04166 
L 429.867 468.036852 
L 437.958 468.031943 
L 446.049 468.021501 
L 454.14 468.022635 
L 462.231 468.030939 
L 470.322 468.028156 
L 478.413 468.036151 
L 486.504 468.038646 
L 494.595 467.990758 
L 502.686 468.093112 
L 510.777 468.13094 
L 518.868 468.194367 
L 526.959 468.199523 
L 535.05 468.203969 
L 543.141 468.184244 
L 551.232 468.186336 
L 559.323 468.189006 
L 567.414 468.166841 
L 575.505 468.182302 
L 583.596 468.205483 
L 591.687 468.192378 
L 599.778 468.17857 
L 607.869 468.182486 
L 615.96 468.130648 
L 624.051 468.122098 
L 632.142 468.120052 
L 640.233 468.14255 
L 648.324 468.145427 
L 656.415 468.153899 
L 664.506 468.160831 
L 672.597 468.125516 
L 680.688 468.151697 
L 688.779 468.136943 
L 696.87 468.165429 
L 704.961 468.156634 
L 713.052 468.159434 
L 721.143 468.154076 
L 729.234 468.159061 
L 737.325 468.158293 
L 745.416 468.170608 
L 753.507 468.12159 
L 761.598 468.090613 
L 769.689 468.077575 
L 777.78 468.074923 
L 785.871 468.021494 
L 793.962 468.057398 
L 802.053 468.045575 
L 810.144 468.036998 
L 818.235 468.012636 
L 826.326 468.022598 
L 834.417 467.943649 
L 842.508 468.00522 
L 850.599 467.584122 
L 858.69 467.732377 
L 866.781 467.873445 
L 874.872 467.898263 
L 882.963 467.862988 
L 891.054 467.813677 
L 899.145 467.911548 
L 907.236 468.104988 
L 915.327 468.145974 
L 923.418 468.147189 
L 931.509 468.113698 
" style="fill:none;stroke:#e24d3f;stroke-linecap:square;stroke-width:2;"/>
   </g>
   <g id="line2d_15">
    <path clip-path="url(#peb0c860897)" d="M 130.5 468.235653 
L 138.591 468.235653 
L 146.682 468.235653 
L 154.773 468.235653 
L 162.864 468.235653 
L 170.955 468.235653 
L 179.046 468.232755 
L 187.137 468.22181 
L 195.228 468.183362 
L 203.319 468.1802 
L 211.41 468.152248 
L 219.501 468.153464 
L 227.592 468.179013 
L 235.683 468.166972 
L 243.774 468.186816 
L 251.865 468.194384 
L 259.956 468.223284 
L 268.047 468.229971 
L 276.138 468.235312 
L 284.229 468.225036 
L 292.32 468.245662 
L 300.411 468.246719 
L 308.502 468.241752 
L 316.593 468.238735 
L 324.684 468.244306 
L 332.775 468.246104 
L 340.866 468.258212 
L 348.957 468.254574 
L 357.048 468.25874 
L 365.139 468.264033 
L 373.23 468.257097 
L 381.321 468.260716 
L 389.412 468.257792 
L 397.503 468.263716 
L 405.594 468.267498 
L 413.685 468.267268 
L 421.776 468.26811 
L 429.867 468.269209 
L 437.958 468.270214 
L 446.049 468.277634 
L 454.14 468.272438 
L 462.231 468.26878 
L 470.322 468.26768 
L 478.413 468.264916 
L 486.504 468.271954 
L 494.595 468.274893 
L 502.686 468.270641 
L 510.777 468.250316 
L 518.868 468.249628 
L 526.959 468.245499 
L 535.05 468.248796 
L 543.141 468.252156 
L 551.232 468.257322 
L 559.323 468.221181 
L 567.414 468.186 
L 575.505 468.209226 
L 583.596 468.225337 
L 591.687 468.255463 
L 599.778 468.259605 
L 607.869 468.253163 
L 615.96 468.27842 
L 624.051 468.276868 
L 632.142 468.278055 
L 640.233 468.274545 
L 648.324 468.270409 
L 656.415 468.261838 
L 664.506 468.260967 
L 672.597 468.273213 
L 680.688 468.266289 
L 688.779 468.264416 
L 696.87 468.267106 
L 704.961 468.263022 
L 713.052 468.266243 
L 721.143 468.264808 
L 729.234 468.259193 
L 737.325 468.261389 
L 745.416 468.244763 
L 753.507 468.256094 
L 761.598 468.271445 
L 769.689 468.259844 
L 777.78 468.257005 
L 785.871 468.275607 
L 793.962 468.241899 
L 802.053 468.27451 
L 810.144 468.260442 
L 818.235 468.257496 
L 826.326 468.227613 
L 834.417 468.194369 
L 842.508 468.216265 
L 850.599 468.196515 
L 858.69 468.070266 
L 866.781 468.099697 
L 874.872 467.993804 
L 882.963 467.928477 
L 891.054 468.082708 
L 899.145 467.956914 
L 907.236 467.931764 
L 915.327 467.885894 
L 923.418 468.209361 
L 931.509 468.146285 
" style="fill:none;stroke:#cf233e;stroke-linecap:square;stroke-width:2;"/>
   </g>
   <g id="line2d_16">
    <path clip-path="url(#peb0c860897)" d="M 130.5 468.045652 
L 138.591 468.045652 
L 146.682 468.045652 
L 154.773 468.045652 
L 162.864 468.045652 
L 170.955 468.045652 
L 179.046 468.05875 
L 187.137 468.017401 
L 195.228 467.995868 
L 203.319 468.017757 
L 211.41 467.949019 
L 219.501 468.051133 
L 227.592 468.084879 
L 235.683 468.112269 
L 243.774 468.13567 
L 251.865 468.141365 
L 259.956 468.157317 
L 268.047 468.174527 
L 276.138 468.155444 
L 284.229 468.129227 
L 292.32 468.172027 
L 300.411 468.158632 
L 308.502 468.146666 
L 316.593 468.130527 
L 324.684 468.100122 
L 332.775 468.11283 
L 340.866 468.09506 
L 348.957 468.101998 
L 357.048 468.09518 
L 365.139 468.079089 
L 373.23 468.060554 
L 381.321 468.061152 
L 389.412 468.066657 
L 397.503 468.055024 
L 405.594 468.04016 
L 413.685 468.037006 
L 421.776 468.04172 
L 429.867 468.051487 
L 437.958 468.048732 
L 446.049 468.033176 
L 454.14 467.997268 
L 462.231 468.009631 
L 470.322 467.992406 
L 478.413 467.993433 
L 486.504 467.957312 
L 494.595 467.958344 
L 502.686 467.886834 
L 510.777 467.875585 
L 518.868 468.013063 
L 526.959 468.027041 
L 535.05 468.00448 
L 543.141 468.013292 
L 551.232 467.993622 
L 559.323 468.018688 
L 567.414 467.970141 
L 575.505 467.996334 
L 583.596 467.980084 
L 591.687 467.931992 
L 599.778 467.922929 
L 607.869 467.932467 
L 615.96 467.96918 
L 624.051 467.935208 
L 632.142 467.930843 
L 640.233 467.905692 
L 648.324 467.880095 
L 656.415 467.856168 
L 664.506 467.874816 
L 672.597 467.871042 
L 680.688 467.863589 
L 688.779 467.828743 
L 696.87 467.799696 
L 704.961 467.800186 
L 713.052 467.81104 
L 721.143 467.820192 
L 729.234 467.804901 
L 737.325 467.797089 
L 745.416 467.781467 
L 753.507 467.667526 
L 761.598 467.755091 
L 769.689 467.789171 
L 777.78 467.764697 
L 785.871 467.749003 
L 793.962 467.705524 
L 802.053 467.744908 
L 810.144 467.861752 
L 818.235 467.891248 
L 826.326 467.853891 
L 834.417 467.895953 
L 842.508 467.495781 
L 850.599 467.696337 
L 858.69 467.871539 
L 866.781 468.015664 
L 874.872 468.097131 
L 882.963 468.038292 
L 891.054 468.093945 
L 899.145 468.038648 
L 907.236 468.084821 
L 915.327 468.141002 
L 923.418 468.06244 
L 931.509 468.211912 
" style="fill:none;stroke:#681e33;stroke-linecap:square;stroke-width:2;"/>
   </g>
   <g id="line2d_17">
    <path clip-path="url(#peb0c860897)" d="M 130.5 468.213325 
L 138.591 468.213325 
L 146.682 468.213325 
L 154.773 468.213325 
L 162.864 468.213325 
L 170.955 468.213325 
L 179.046 468.214644 
L 187.137 468.228532 
L 195.228 468.177366 
L 203.319 468.187368 
L 211.41 468.198397 
L 219.501 468.230398 
L 227.592 468.215931 
L 235.683 468.190871 
L 243.774 468.182564 
L 251.865 468.167833 
L 259.956 468.189529 
L 268.047 468.18737 
L 276.138 468.177449 
L 284.229 468.175695 
L 292.32 468.174087 
L 300.411 468.194624 
L 308.502 468.201128 
L 316.593 468.19839 
L 324.684 468.211262 
L 332.775 468.205814 
L 340.866 468.197439 
L 348.957 468.199929 
L 357.048 468.200222 
L 365.139 468.196084 
L 373.23 468.193589 
L 381.321 468.169261 
L 389.412 468.154673 
L 397.503 468.1528 
L 405.594 468.163868 
L 413.685 468.168206 
L 421.776 468.170042 
L 429.867 468.177233 
L 437.958 468.19293 
L 446.049 468.210441 
L 454.14 468.240236 
L 462.231 468.242038 
L 470.322 468.235961 
L 478.413 468.229596 
L 486.504 468.25971 
L 494.595 468.217994 
L 502.686 468.26018 
L 510.777 468.265808 
L 518.868 468.272381 
L 526.959 468.268026 
L 535.05 468.266801 
L 543.141 468.264866 
L 551.232 468.26065 
L 559.323 468.264741 
L 567.414 468.264538 
L 575.505 468.265423 
L 583.596 468.269269 
L 591.687 468.279511 
L 599.778 468.281508 
L 607.869 468.267352 
L 615.96 468.241093 
L 624.051 468.255276 
L 632.142 468.259698 
L 640.233 468.269665 
L 648.324 468.27548 
L 656.415 468.2826 
L 664.506 468.285203 
L 672.597 468.280826 
L 680.688 468.277545 
L 688.779 468.275788 
L 696.87 468.269254 
L 704.961 468.260081 
L 713.052 468.261487 
L 721.143 468.261691 
L 729.234 468.265124 
L 737.325 468.264099 
L 745.416 468.273565 
L 753.507 468.282543 
L 761.598 468.286855 
L 769.689 468.279962 
L 777.78 468.286235 
L 785.871 468.286691 
L 793.962 468.287996 
L 802.053 468.287976 
L 810.144 468.287971 
L 818.235 468.287809 
L 826.326 468.285574 
L 834.417 468.287898 
L 842.508 468.258675 
L 850.599 468.101092 
L 858.69 468.141758 
L 866.781 468.20035 
L 874.872 468.204391 
L 882.963 468.220897 
L 891.054 468.173296 
L 899.145 468.19792 
L 907.236 468.25068 
L 915.327 468.205518 
L 923.418 468.211389 
L 931.509 468.272192 
" style="fill:none;stroke:#676572;stroke-linecap:square;stroke-width:2;"/>
   </g>
   <g id="line2d_18">
    <path clip-path="url(#peb0c860897)" d="M 130.5 468.024978 
L 138.591 468.024978 
L 146.682 468.024978 
L 154.773 468.024978 
L 162.864 468.024978 
L 170.955 468.024978 
L 179.046 468.011356 
L 187.137 467.96033 
L 195.228 467.891518 
L 203.319 467.888557 
L 211.41 467.817285 
L 219.501 467.831411 
L 227.592 467.78125 
L 235.683 467.788726 
L 243.774 467.766681 
L 251.865 467.790415 
L 259.956 467.795576 
L 268.047 467.780394 
L 276.138 467.777252 
L 284.229 467.793425 
L 292.32 467.79213 
L 300.411 467.7914 
L 308.502 467.783477 
L 316.593 467.752641 
L 324.684 467.765146 
L 332.775 467.758038 
L 340.866 467.636503 
L 348.957 467.65923 
L 357.048 467.651837 
L 365.139 467.669234 
L 373.23 467.671886 
L 381.321 467.646842 
L 389.412 467.63785 
L 397.503 467.664378 
L 405.594 467.663054 
L 413.685 467.66912 
L 421.776 467.681364 
L 429.867 467.696154 
L 437.958 467.71673 
L 446.049 467.741056 
L 454.14 467.696574 
L 462.231 467.736071 
L 470.322 467.725555 
L 478.413 467.711246 
L 486.504 467.747268 
L 494.595 467.711453 
L 502.686 467.677916 
L 510.777 467.654105 
L 518.868 467.497455 
L 526.959 467.564298 
L 535.05 467.522829 
L 543.141 467.56256 
L 551.232 467.584041 
L 559.323 467.555372 
L 567.414 467.52722 
L 575.505 467.54068 
L 583.596 467.536195 
L 591.687 467.4828 
L 599.778 467.477448 
L 607.869 467.405655 
L 615.96 467.46103 
L 624.051 467.373278 
L 632.142 467.367315 
L 640.233 467.378988 
L 648.324 467.383786 
L 656.415 467.384851 
L 664.506 467.434001 
L 672.597 467.447283 
L 680.688 467.474624 
L 688.779 467.535913 
L 696.87 467.600898 
L 704.961 467.585536 
L 713.052 467.586406 
L 721.143 467.587607 
L 729.234 467.558189 
L 737.325 467.553952 
L 745.416 467.552752 
L 753.507 467.552687 
L 761.598 467.502107 
L 769.689 467.575834 
L 777.78 467.528197 
L 785.871 467.452665 
L 793.962 467.006191 
L 802.053 466.907209 
L 810.144 466.82156 
L 818.235 466.734028 
L 826.326 466.743001 
L 834.417 466.855905 
L 842.508 467.025732 
L 850.599 467.266119 
L 858.69 467.262856 
L 866.781 467.161955 
L 874.872 466.972893 
L 882.963 467.110512 
L 891.054 467.137008 
L 899.145 467.097856 
L 907.236 467.162348 
L 915.327 467.462574 
L 923.418 467.618235 
L 931.509 467.594671 
" style="fill:none;stroke:#f3be22;stroke-linecap:square;stroke-width:2;"/>
   </g>
   <g id="line2d_19">
    <path clip-path="url(#peb0c860897)" d="M 130.5 468.287951 
L 138.591 468.287951 
L 146.682 468.287951 
L 154.773 468.287951 
L 162.864 468.287951 
L 170.955 468.287951 
L 179.046 468.287899 
L 187.137 468.287446 
L 195.228 468.287412 
L 203.319 468.287973 
L 211.41 468.287173 
L 219.501 468.286024 
L 227.592 468.287721 
L 235.683 468.287371 
L 243.774 468.2873 
L 251.865 468.287594 
L 259.956 468.287014 
L 268.047 468.287506 
L 276.138 468.287254 
L 284.229 468.286164 
L 292.32 468.281924 
L 300.411 468.278088 
L 308.502 468.276565 
L 316.593 468.273678 
L 324.684 468.268863 
L 332.775 468.269849 
L 340.866 468.252879 
L 348.957 468.252342 
L 357.048 468.253047 
L 365.139 468.260661 
L 373.23 468.266189 
L 381.321 468.266501 
L 389.412 468.265593 
L 397.503 468.265336 
L 405.594 468.266321 
L 413.685 468.265015 
L 421.776 468.266554 
L 429.867 468.267579 
L 437.958 468.266758 
L 446.049 468.267908 
L 454.14 468.265323 
L 462.231 468.267996 
L 470.322 468.268286 
L 478.413 468.267549 
L 486.504 468.251442 
L 494.595 468.273719 
L 502.686 468.269852 
L 510.777 468.266543 
L 518.868 468.262061 
L 526.959 468.261798 
L 535.05 468.261532 
L 543.141 468.271606 
L 551.232 468.269512 
L 559.323 468.271287 
L 567.414 468.259129 
L 575.505 468.268139 
L 583.596 468.267778 
L 591.687 468.273485 
L 599.778 468.275742 
L 607.869 468.280308 
L 615.96 468.285818 
L 624.051 468.282503 
L 632.142 468.284988 
L 640.233 468.277939 
L 648.324 468.281404 
L 656.415 468.282927 
L 664.506 468.283861 
L 672.597 468.285033 
L 680.688 468.284568 
L 688.779 468.2854 
L 696.87 468.283585 
L 704.961 468.282056 
L 713.052 468.283199 
L 721.143 468.283307 
L 729.234 468.284234 
L 737.325 468.284162 
L 745.416 468.273811 
L 753.507 468.268723 
L 761.598 468.285583 
L 769.689 468.283925 
L 777.78 468.283584 
L 785.871 468.283545 
L 793.962 468.256389 
L 802.053 468.256807 
L 810.144 468.227546 
L 818.235 468.216523 
L 826.326 468.185403 
L 834.417 468.089593 
L 842.508 468.184734 
L 850.599 468.226373 
L 858.69 468.125168 
L 866.781 467.990698 
L 874.872 467.954978 
L 882.963 467.850646 
L 891.054 467.701973 
L 899.145 467.748087 
L 907.236 467.950617 
L 915.327 468.083112 
L 923.418 468.049977 
L 931.509 468.115618 
" style="fill:none;stroke:#59deba;stroke-linecap:square;stroke-width:2;"/>
   </g>
   <g id="line2d_20">
    <path clip-path="url(#peb0c860897)" d="M 130.5 452.779295 
L 138.591 452.779295 
L 146.682 452.779295 
L 154.773 452.779295 
L 162.864 452.779295 
L 170.955 452.779295 
L 179.046 452.753748 
L 187.137 451.992472 
L 195.228 452.275801 
L 203.319 452.460321 
L 211.41 452.580623 
L 219.501 452.623298 
L 227.592 452.09117 
L 235.683 452.000386 
L 243.774 451.809955 
L 251.865 451.77809 
L 259.956 451.471602 
L 268.047 451.26734 
L 276.138 451.059643 
L 284.229 450.935706 
L 292.32 450.265628 
L 300.411 450.09654 
L 308.502 449.870567 
L 316.593 449.753845 
L 324.684 449.340117 
L 332.775 449.332718 
L 340.866 449.009705 
L 348.957 449.018688 
L 357.048 449.128439 
L 365.139 448.8654 
L 373.23 448.672131 
L 381.321 448.92002 
L 389.412 449.065355 
L 397.503 449.120254 
L 405.594 449.287664 
L 413.685 449.339549 
L 421.776 449.390565 
L 429.867 449.412903 
L 437.958 449.305413 
L 446.049 449.030331 
L 454.14 448.413374 
L 462.231 448.409016 
L 470.322 448.423859 
L 478.413 448.303545 
L 486.504 448.409102 
L 494.595 447.607147 
L 502.686 447.057026 
L 510.777 447.122192 
L 518.868 446.402204 
L 526.959 446.090068 
L 535.05 445.905898 
L 543.141 445.830496 
L 551.232 445.846575 
L 559.323 445.21995 
L 567.414 444.864309 
L 575.505 444.32315 
L 583.596 444.322846 
L 591.687 443.975947 
L 599.778 443.963455 
L 607.869 443.831964 
L 615.96 442.824373 
L 624.051 442.252844 
L 632.142 442.161556 
L 640.233 442.434635 
L 648.324 442.189484 
L 656.415 442.220534 
L 664.506 442.142945 
L 672.597 442.030333 
L 680.688 441.809099 
L 688.779 441.604894 
L 696.87 441.313562 
L 704.961 441.133483 
L 713.052 441.183513 
L 721.143 441.175998 
L 729.234 440.977539 
L 737.325 440.911866 
L 745.416 440.447369 
L 753.507 438.447754 
L 761.598 436.013279 
L 769.689 435.513809 
L 777.78 435.405048 
L 785.871 432.513425 
L 793.962 432.103256 
L 802.053 431.760437 
L 810.144 430.901013 
L 818.235 430.400679 
L 826.326 430.084485 
L 834.417 428.953115 
L 842.508 423.657783 
L 850.599 416.770761 
L 858.69 416.012479 
L 866.781 417.520455 
L 874.872 417.924107 
L 882.963 419.612649 
L 891.054 421.13656 
L 899.145 421.115547 
L 907.236 421.281779 
L 915.327 420.234256 
L 923.418 424.63358 
L 931.509 431.796336 
" style="fill:none;stroke:#14015c;stroke-linecap:square;stroke-width:2;"/>
   </g>
   <g id="line2d_21">
    <path clip-path="url(#peb0c860897)" d="M 130.5 467.118966 
L 138.591 467.118966 
L 146.682 467.118966 
L 154.773 467.118966 
L 162.864 467.118966 
L 170.955 467.118966 
L 179.046 467.100722 
L 187.137 467.095333 
L 195.228 467.126432 
L 203.319 467.091052 
L 211.41 467.05423 
L 219.501 467.035369 
L 227.592 466.986334 
L 235.683 467.016891 
L 243.774 466.957427 
L 251.865 466.942928 
L 259.956 466.913531 
L 268.047 466.813251 
L 276.138 466.767424 
L 284.229 466.827513 
L 292.32 466.796544 
L 300.411 466.732679 
L 308.502 466.707516 
L 316.593 466.687933 
L 324.684 466.686118 
L 332.775 466.685682 
L 340.866 466.770754 
L 348.957 466.794454 
L 357.048 466.774455 
L 365.139 466.687528 
L 373.23 466.680592 
L 381.321 466.670963 
L 389.412 466.686583 
L 397.503 466.662987 
L 405.594 466.614328 
L 413.685 466.636066 
L 421.776 466.595939 
L 429.867 466.569448 
L 437.958 466.510082 
L 446.049 466.525429 
L 454.14 466.478226 
L 462.231 466.495235 
L 470.322 466.524897 
L 478.413 466.515069 
L 486.504 466.421618 
L 494.595 466.613871 
L 502.686 466.631195 
L 510.777 466.670277 
L 518.868 466.619001 
L 526.959 466.674013 
L 535.05 466.668366 
L 543.141 466.684895 
L 551.232 466.715289 
L 559.323 466.802986 
L 567.414 466.840969 
L 575.505 467.002508 
L 583.596 467.007221 
L 591.687 467.093042 
L 599.778 467.133793 
L 607.869 467.095753 
L 615.96 467.051956 
L 624.051 467.06872 
L 632.142 467.037934 
L 640.233 466.971409 
L 648.324 467.033472 
L 656.415 466.992084 
L 664.506 466.995803 
L 672.597 467.033882 
L 680.688 467.020506 
L 688.779 467.123526 
L 696.87 467.235164 
L 704.961 467.255774 
L 713.052 467.231543 
L 721.143 467.247399 
L 729.234 467.268455 
L 737.325 467.259154 
L 745.416 467.270249 
L 753.507 467.317846 
L 761.598 467.354907 
L 769.689 467.354328 
L 777.78 467.359217 
L 785.871 467.346938 
L 793.962 467.73446 
L 802.053 467.686623 
L 810.144 467.696549 
L 818.235 467.612131 
L 826.326 467.676787 
L 834.417 467.788321 
L 842.508 468.073799 
L 850.599 468.258067 
L 858.69 468.269715 
L 866.781 468.270476 
L 874.872 468.257829 
L 882.963 468.287761 
L 891.054 468.278303 
L 899.145 468.275899 
L 907.236 468.283802 
L 915.327 468.286858 
L 923.418 468.277389 
L 931.509 468.277435 
" style="fill:none;stroke:#daf8a3;stroke-linecap:square;stroke-width:2;"/>
   </g>
   <g id="line2d_22">
    <path clip-path="url(#peb0c860897)" d="M 130.5 387.984496 
L 138.591 387.984496 
L 146.682 387.984496 
L 154.773 387.984496 
L 162.864 387.984496 
L 170.955 387.984496 
L 179.046 388.502485 
L 187.137 390.165967 
L 195.228 394.816872 
L 203.319 395.584969 
L 211.41 397.375799 
L 219.501 399.874171 
L 227.592 404.444949 
L 235.683 406.005598 
L 243.774 406.711625 
L 251.865 406.948211 
L 259.956 408.070752 
L 268.047 408.575904 
L 276.138 408.948437 
L 284.229 409.504867 
L 292.32 411.066782 
L 300.411 412.741404 
L 308.502 413.581519 
L 316.593 413.998261 
L 324.684 414.718984 
L 332.775 414.877702 
L 340.866 417.679807 
L 348.957 417.649495 
L 357.048 417.771163 
L 365.139 418.594984 
L 373.23 418.951959 
L 381.321 419.449937 
L 389.412 419.917219 
L 397.503 420.640024 
L 405.594 420.758941 
L 413.685 421.284116 
L 421.776 421.412778 
L 429.867 421.371102 
L 437.958 421.417831 
L 446.049 421.471907 
L 454.14 423.208492 
L 462.231 423.511062 
L 470.322 423.748564 
L 478.413 423.886818 
L 486.504 424.963119 
L 494.595 426.936588 
L 502.686 428.967831 
L 510.777 431.110386 
L 518.868 433.1998 
L 526.959 433.522654 
L 535.05 433.701846 
L 543.141 434.284692 
L 551.232 434.460496 
L 559.323 435.342621 
L 567.414 436.360124 
L 575.505 437.031278 
L 583.596 436.742529 
L 591.687 437.725672 
L 599.778 437.920186 
L 607.869 438.180834 
L 615.96 439.131394 
L 624.051 439.800572 
L 632.142 439.842891 
L 640.233 440.163826 
L 648.324 440.529476 
L 656.415 440.857252 
L 664.506 441.13384 
L 672.597 441.623827 
L 680.688 441.592483 
L 688.779 441.679862 
L 696.87 442.38535 
L 704.961 442.842806 
L 713.052 442.911183 
L 721.143 443.022685 
L 729.234 443.298492 
L 737.325 443.388759 
L 745.416 443.697651 
L 753.507 446.355176 
L 761.598 448.595685 
L 769.689 448.849162 
L 777.78 449.219252 
L 785.871 451.835888 
L 793.962 455.742964 
L 802.053 456.123173 
L 810.144 456.840525 
L 818.235 457.075829 
L 826.326 457.310691 
L 834.417 458.240999 
L 842.508 459.866703 
L 850.599 461.593317 
L 858.69 462.61069 
L 866.781 462.817 
L 874.872 462.794412 
L 882.963 462.437389 
L 891.054 462.490102 
L 899.145 461.976096 
L 907.236 461.380704 
L 915.327 460.982861 
L 923.418 461.764113 
L 931.509 462.92675 
" style="fill:none;stroke:#0b7a0a;stroke-linecap:square;stroke-width:2;"/>
   </g>
   <g id="line2d_23">
    <path clip-path="url(#peb0c860897)" d="M 130.5 465.850462 
L 138.591 465.850462 
L 146.682 465.850462 
L 154.773 465.850462 
L 162.864 465.850462 
L 170.955 465.850462 
L 179.046 465.864006 
L 187.137 465.798776 
L 195.228 465.718737 
L 203.319 465.765825 
L 211.41 465.780925 
L 219.501 465.839019 
L 227.592 466.07284 
L 235.683 466.264962 
L 243.774 466.270415 
L 251.865 466.223656 
L 259.956 466.414624 
L 268.047 466.391119 
L 276.138 466.295603 
L 284.229 466.385234 
L 292.32 466.479649 
L 300.411 466.515664 
L 308.502 466.501535 
L 316.593 466.521762 
L 324.684 466.540146 
L 332.775 466.525386 
L 340.866 466.774047 
L 348.957 466.779032 
L 357.048 466.817001 
L 365.139 466.863088 
L 373.23 466.924919 
L 381.321 466.923884 
L 389.412 466.956182 
L 397.503 466.93581 
L 405.594 466.965511 
L 413.685 466.975449 
L 421.776 466.982822 
L 429.867 466.995354 
L 437.958 466.99163 
L 446.049 467.095564 
L 454.14 467.230349 
L 462.231 467.210177 
L 470.322 467.217165 
L 478.413 467.254416 
L 486.504 467.32569 
L 494.595 467.569157 
L 502.686 467.69968 
L 510.777 467.838062 
L 518.868 467.837181 
L 526.959 467.837013 
L 535.05 467.86292 
L 543.141 467.876192 
L 551.232 467.901557 
L 559.323 467.944004 
L 567.414 467.954548 
L 575.505 467.984818 
L 583.596 467.99156 
L 591.687 468.025737 
L 599.778 468.037047 
L 607.869 468.06412 
L 615.96 468.082092 
L 624.051 468.090972 
L 632.142 468.088711 
L 640.233 468.116309 
L 648.324 468.109306 
L 656.415 468.128864 
L 664.506 468.131247 
L 672.597 468.155372 
L 680.688 468.159161 
L 688.779 468.162264 
L 696.87 468.167613 
L 704.961 468.181218 
L 713.052 468.177682 
L 721.143 468.178628 
L 729.234 468.179389 
L 737.325 468.176666 
L 745.416 468.195468 
L 753.507 468.246816 
L 761.598 468.276763 
L 769.689 468.28406 
L 777.78 468.285342 
L 785.871 468.285835 
L 793.962 468.236214 
L 802.053 468.245787 
L 810.144 468.23979 
L 818.235 468.212428 
L 826.326 468.218433 
L 834.417 468.215939 
L 842.508 468.19267 
L 850.599 468.105571 
L 858.69 468.100549 
L 866.781 468.038993 
L 874.872 468.030425 
L 882.963 467.999485 
L 891.054 468.048711 
L 899.145 468.039443 
L 907.236 468.064376 
L 915.327 468.129827 
L 923.418 468.250629 
L 931.509 468.219596 
" style="fill:none;stroke:#f8ffa2;stroke-linecap:square;stroke-width:2;"/>
   </g>
   <g id="line2d_24">
    <path clip-path="url(#peb0c860897)" d="M 130.5 451.427857 
L 138.591 451.427857 
L 146.682 451.427857 
L 154.773 451.427857 
L 162.864 451.427857 
L 170.955 451.427857 
L 179.046 450.984407 
L 187.137 450.719009 
L 195.228 450.013056 
L 203.319 450.157 
L 211.41 449.751074 
L 219.501 449.876698 
L 227.592 450.037002 
L 235.683 449.935562 
L 243.774 449.864782 
L 251.865 449.953004 
L 259.956 449.991632 
L 268.047 450.267697 
L 276.138 450.253094 
L 284.229 450.269005 
L 292.32 450.091028 
L 300.411 450.073831 
L 308.502 450.113784 
L 316.593 450.049337 
L 324.684 450.177834 
L 332.775 450.163008 
L 340.866 450.137649 
L 348.957 450.167582 
L 357.048 450.123997 
L 365.139 450.300857 
L 373.23 450.35776 
L 381.321 450.481938 
L 389.412 450.585351 
L 397.503 450.612134 
L 405.594 450.512638 
L 413.685 450.611044 
L 421.776 450.62028 
L 429.867 450.657111 
L 437.958 450.599837 
L 446.049 450.50573 
L 454.14 450.477306 
L 462.231 450.67177 
L 470.322 450.853227 
L 478.413 450.768862 
L 486.504 450.758128 
L 494.595 450.848172 
L 502.686 450.85299 
L 510.777 451.029984 
L 518.868 451.248733 
L 526.959 451.275676 
L 535.05 451.136922 
L 543.141 450.997666 
L 551.232 451.066829 
L 559.323 451.580437 
L 567.414 451.799481 
L 575.505 451.746812 
L 583.596 452.016924 
L 591.687 451.580795 
L 599.778 451.444063 
L 607.869 451.374141 
L 615.96 450.989519 
L 624.051 450.464837 
L 632.142 450.607495 
L 640.233 450.71107 
L 648.324 450.557454 
L 656.415 450.531517 
L 664.506 450.447883 
L 672.597 450.169952 
L 680.688 450.392429 
L 688.779 450.596222 
L 696.87 450.832595 
L 704.961 450.905143 
L 713.052 450.901825 
L 721.143 450.911286 
L 729.234 450.868686 
L 737.325 450.879363 
L 745.416 450.606447 
L 753.507 449.478046 
L 761.598 447.981058 
L 769.689 448.196058 
L 777.78 448.490743 
L 785.871 448.449918 
L 793.962 450.900195 
L 802.053 451.096027 
L 810.144 451.865835 
L 818.235 452.097195 
L 826.326 452.078062 
L 834.417 452.99542 
L 842.508 453.610631 
L 850.599 453.759109 
L 858.69 454.292267 
L 866.781 454.473172 
L 874.872 455.173796 
L 882.963 456.352458 
L 891.054 457.351191 
L 899.145 456.888145 
L 907.236 456.182781 
L 915.327 456.379668 
L 923.418 457.08307 
L 931.509 460.346116 
" style="fill:none;stroke:#578dc0;stroke-linecap:square;stroke-width:2;"/>
   </g>
   <g id="line2d_25">
    <path clip-path="url(#peb0c860897)" d="M 130.5 465.061705 
L 138.591 465.061705 
L 146.682 465.061705 
L 154.773 465.061705 
L 162.864 465.061705 
L 170.955 465.061705 
L 179.046 465.109934 
L 187.137 464.978946 
L 195.228 465.382368 
L 203.319 465.43124 
L 211.41 465.621829 
L 219.501 465.492242 
L 227.592 465.529025 
L 235.683 465.748747 
L 243.774 465.874895 
L 251.865 465.943963 
L 259.956 465.939508 
L 268.047 466.005292 
L 276.138 466.049808 
L 284.229 466.074893 
L 292.32 466.298322 
L 300.411 466.349741 
L 308.502 466.356383 
L 316.593 466.438529 
L 324.684 466.409858 
L 332.775 466.43483 
L 340.866 466.550785 
L 348.957 466.535401 
L 357.048 466.499461 
L 365.139 466.468453 
L 373.23 466.554189 
L 381.321 466.56262 
L 389.412 466.57656 
L 397.503 466.598726 
L 405.594 466.621089 
L 413.685 466.639642 
L 421.776 466.645593 
L 429.867 466.642267 
L 437.958 466.65516 
L 446.049 466.749916 
L 454.14 466.837435 
L 462.231 466.901567 
L 470.322 466.87745 
L 478.413 466.898952 
L 486.504 466.953449 
L 494.595 467.003038 
L 502.686 467.099949 
L 510.777 467.243304 
L 518.868 467.306937 
L 526.959 467.382979 
L 535.05 467.39787 
L 543.141 467.415508 
L 551.232 467.400821 
L 559.323 467.451131 
L 567.414 467.504135 
L 575.505 467.472999 
L 583.596 467.505041 
L 591.687 467.489372 
L 599.778 467.481064 
L 607.869 467.552181 
L 615.96 467.5676 
L 624.051 467.531006 
L 632.142 467.547059 
L 640.233 467.59504 
L 648.324 467.582675 
L 656.415 467.582961 
L 664.506 467.569866 
L 672.597 467.530493 
L 680.688 467.525772 
L 688.779 467.545841 
L 696.87 467.589133 
L 704.961 467.585699 
L 713.052 467.582274 
L 721.143 467.572836 
L 729.234 467.546604 
L 737.325 467.550342 
L 745.416 467.533473 
L 753.507 467.641107 
L 761.598 467.505378 
L 769.689 467.494095 
L 777.78 467.426227 
L 785.871 467.403459 
L 793.962 467.6747 
L 802.053 467.673286 
L 810.144 467.733679 
L 818.235 467.715751 
L 826.326 467.748862 
L 834.417 467.843452 
L 842.508 467.818935 
L 850.599 467.464052 
L 858.69 467.391131 
L 866.781 467.490797 
L 874.872 467.383341 
L 882.963 467.448262 
L 891.054 467.388169 
L 899.145 467.542323 
L 907.236 467.214674 
L 915.327 466.936942 
L 923.418 467.067107 
L 931.509 466.734805 
" style="fill:none;stroke:#4e4ad8;stroke-linecap:square;stroke-width:2;"/>
   </g>
   <g id="line2d_26">
    <path clip-path="url(#peb0c860897)" d="M 130.5 431.79673 
L 138.591 431.79673 
L 146.682 431.79673 
L 154.773 431.79673 
L 162.864 431.79673 
L 170.955 431.79673 
L 179.046 431.433991 
L 187.137 430.075319 
L 195.228 426.365868 
L 203.319 426.124777 
L 211.41 425.919027 
L 219.501 424.494332 
L 227.592 423.726712 
L 235.683 422.743942 
L 243.774 422.331377 
L 251.865 421.700988 
L 259.956 421.069592 
L 268.047 420.271345 
L 276.138 420.167451 
L 284.229 419.025407 
L 292.32 416.570436 
L 300.411 415.459715 
L 308.502 414.957472 
L 316.593 414.254679 
L 324.684 412.858584 
L 332.775 412.659546 
L 340.866 410.260223 
L 348.957 410.289514 
L 357.048 410.31011 
L 365.139 409.64731 
L 373.23 409.257499 
L 381.321 409.110748 
L 389.412 408.673807 
L 397.503 408.062919 
L 405.594 407.775219 
L 413.685 407.384307 
L 421.776 407.463134 
L 429.867 407.574195 
L 437.958 407.683066 
L 446.049 408.278871 
L 454.14 408.837588 
L 462.231 408.818216 
L 470.322 408.517257 
L 478.413 408.573014 
L 486.504 409.038514 
L 494.595 408.452468 
L 502.686 408.679308 
L 510.777 408.162436 
L 518.868 408.285806 
L 526.959 408.234073 
L 535.05 408.558653 
L 543.141 408.176075 
L 551.232 407.844763 
L 559.323 407.009849 
L 567.414 406.31909 
L 575.505 405.483726 
L 583.596 404.82116 
L 591.687 404.307207 
L 599.778 404.064979 
L 607.869 403.344693 
L 615.96 402.59213 
L 624.051 401.869254 
L 632.142 402.014553 
L 640.233 401.777085 
L 648.324 401.596647 
L 656.415 401.305169 
L 664.506 401.322921 
L 672.597 400.980541 
L 680.688 400.708293 
L 688.779 400.70427 
L 696.87 400.618411 
L 704.961 400.499963 
L 713.052 400.497249 
L 721.143 400.559417 
L 729.234 400.434538 
L 737.325 400.301929 
L 745.416 399.502896 
L 753.507 396.236963 
L 761.598 393.751278 
L 769.689 393.531955 
L 777.78 394.347217 
L 785.871 397.715764 
L 793.962 406.488375 
L 802.053 407.218325 
L 810.144 408.343657 
L 818.235 408.207017 
L 826.326 409.180976 
L 834.417 411.339986 
L 842.508 410.903583 
L 850.599 411.62825 
L 858.69 415.671053 
L 866.781 418.62705 
L 874.872 420.887594 
L 882.963 424.036994 
L 891.054 426.95151 
L 899.145 429.137404 
L 907.236 428.630012 
L 915.327 428.925934 
L 923.418 428.463534 
L 931.509 428.352767 
" style="fill:none;stroke:#32b3f7;stroke-linecap:square;stroke-width:2;"/>
   </g>
   <g id="patch_3">
    <path d="M 130.5 468.288 
L 130.5 113.472 
" style="fill:none;stroke:#000000;stroke-linecap:square;stroke-linejoin:miter;stroke-width:0.8;"/>
   </g>
   <g id="patch_4">
    <path d="M 939.6 468.288 
L 939.6 113.472 
" style="fill:none;stroke:#000000;stroke-linecap:square;stroke-linejoin:miter;stroke-width:0.8;"/>
   </g>
   <g id="patch_5">
    <path d="M 130.5 468.288 
L 939.6 468.288 
" style="fill:none;stroke:#000000;stroke-linecap:square;stroke-linejoin:miter;stroke-width:0.8;"/>
   </g>
   <g id="patch_6">
    <path d="M 130.5 113.472 
L 939.6 113.472 
" style="fill:none;stroke:#000000;stroke-linecap:square;stroke-linejoin:miter;stroke-width:0.8;"/>
   </g>
   <g id="text_15">
    <!-- R2 -->
    <defs>
     <path d="M 44.390625 34.1875 
Q 47.5625 33.109375 50.5625 29.59375 
Q 53.5625 26.078125 56.59375 19.921875 
L 66.609375 0 
L 56 0 
L 46.6875 18.703125 
Q 43.0625 26.03125 39.671875 28.421875 
Q 36.28125 30.8125 30.421875 30.8125 
L 19.671875 30.8125 
L 19.671875 0 
L 9.8125 0 
L 9.8125 72.90625 
L 32.078125 72.90625 
Q 44.578125 72.90625 50.734375 67.671875 
Q 56.890625 62.453125 56.890625 51.90625 
Q 56.890625 45.015625 53.6875 40.46875 
Q 50.484375 35.9375 44.390625 34.1875 
z
M 19.671875 64.796875 
L 19.671875 38.921875 
L 32.078125 38.921875 
Q 39.203125 38.921875 42.84375 42.21875 
Q 46.484375 45.515625 46.484375 51.90625 
Q 46.484375 58.296875 42.84375 61.546875 
Q 39.203125 64.796875 32.078125 64.796875 
z
" id="DejaVuSans-82"/>
    </defs>
    <g transform="translate(527.063437 107.472)scale(0.12 -0.12)">
     <use xlink:href="#DejaVuSans-82"/>
     <use x="69.482422" xlink:href="#DejaVuSans-50"/>
    </g>
   </g>
   <g id="legend_1">
    <g id="patch_7">
     <path d="M 152.324219 640.696 
L 917.775781 640.696 
Q 919.775781 640.696 919.775781 638.696 
L 919.775781 595.661625 
Q 919.775781 593.661625 917.775781 593.661625 
L 152.324219 593.661625 
Q 150.324219 593.661625 150.324219 595.661625 
L 150.324219 638.696 
Q 150.324219 640.696 152.324219 640.696 
z
" style="fill:#ffffff;opacity:0.8;stroke:#cccccc;stroke-linejoin:miter;"/>
    </g>
    <g id="line2d_27">
     <path style="fill:none;stroke:#f18670;stroke-linecap:square;stroke-width:2;"/>
    </g>
    <g id="line2d_28"/>
    <g id="text_16">
     <!-- IWR demand mutliplier -->
     <defs>
      <path d="M 9.8125 72.90625 
L 19.671875 72.90625 
L 19.671875 0 
L 9.8125 0 
z
" id="DejaVuSans-73"/>
      <path d="M 3.328125 72.90625 
L 13.28125 72.90625 
L 28.609375 11.28125 
L 43.890625 72.90625 
L 54.984375 72.90625 
L 70.3125 11.28125 
L 85.59375 72.90625 
L 95.609375 72.90625 
L 77.296875 0 
L 64.890625 0 
L 49.515625 63.28125 
L 33.984375 0 
L 21.578125 0 
z
" id="DejaVuSans-87"/>
     </defs>
     <g transform="translate(182.324219 605.260063)scale(0.1 -0.1)">
      <use xlink:href="#DejaVuSans-73"/>
      <use x="29.492188" xlink:href="#DejaVuSans-87"/>
      <use x="128.369141" xlink:href="#DejaVuSans-82"/>
      <use x="197.851562" xlink:href="#DejaVuSans-32"/>
      <use x="229.638672" xlink:href="#DejaVuSans-100"/>
      <use x="293.115234" xlink:href="#DejaVuSans-101"/>
      <use x="354.638672" xlink:href="#DejaVuSans-109"/>
      <use x="452.050781" xlink:href="#DejaVuSans-97"/>
      <use x="513.330078" xlink:href="#DejaVuSans-110"/>
      <use x="576.708984" xlink:href="#DejaVuSans-100"/>
      <use x="640.185547" xlink:href="#DejaVuSans-32"/>
      <use x="671.972656" xlink:href="#DejaVuSans-109"/>
      <use x="769.384766" xlink:href="#DejaVuSans-117"/>
      <use x="832.763672" xlink:href="#DejaVuSans-116"/>
      <use x="871.972656" xlink:href="#DejaVuSans-108"/>
      <use x="899.755859" xlink:href="#DejaVuSans-105"/>
      <use x="927.539062" xlink:href="#DejaVuSans-112"/>
      <use x="991.015625" xlink:href="#DejaVuSans-108"/>
      <use x="1018.798828" xlink:href="#DejaVuSans-105"/>
      <use x="1046.582031" xlink:href="#DejaVuSans-101"/>
      <use x="1108.105469" xlink:href="#DejaVuSans-114"/>
     </g>
    </g>
    <g id="line2d_29">
     <path style="fill:none;stroke:#e24d3f;stroke-linecap:square;stroke-width:2;"/>
    </g>
    <g id="line2d_30"/>
    <g id="text_17">
     <!-- Reservoir loss -->
     <defs>
      <path d="M 44.28125 53.078125 
L 44.28125 44.578125 
Q 40.484375 46.53125 36.375 47.5 
Q 32.28125 48.484375 27.875 48.484375 
Q 21.1875 48.484375 17.84375 46.4375 
Q 14.5 44.390625 14.5 40.28125 
Q 14.5 37.15625 16.890625 35.375 
Q 19.28125 33.59375 26.515625 31.984375 
L 29.59375 31.296875 
Q 39.15625 29.25 43.1875 25.515625 
Q 47.21875 21.78125 47.21875 15.09375 
Q 47.21875 7.46875 41.1875 3.015625 
Q 35.15625 -1.421875 24.609375 -1.421875 
Q 20.21875 -1.421875 15.453125 -0.5625 
Q 10.6875 0.296875 5.421875 2 
L 5.421875 11.28125 
Q 10.40625 8.6875 15.234375 7.390625 
Q 20.0625 6.109375 24.8125 6.109375 
Q 31.15625 6.109375 34.5625 8.28125 
Q 37.984375 10.453125 37.984375 14.40625 
Q 37.984375 18.0625 35.515625 20.015625 
Q 33.0625 21.96875 24.703125 23.78125 
L 21.578125 24.515625 
Q 13.234375 26.265625 9.515625 29.90625 
Q 5.8125 33.546875 5.8125 39.890625 
Q 5.8125 47.609375 11.28125 51.796875 
Q 16.75 56 26.8125 56 
Q 31.78125 56 36.171875 55.265625 
Q 40.578125 54.546875 44.28125 53.078125 
z
" id="DejaVuSans-115"/>
      <path d="M 2.984375 54.6875 
L 12.5 54.6875 
L 29.59375 8.796875 
L 46.6875 54.6875 
L 56.203125 54.6875 
L 35.6875 0 
L 23.484375 0 
z
" id="DejaVuSans-118"/>
     </defs>
     <g transform="translate(182.324219 619.938188)scale(0.1 -0.1)">
      <use xlink:href="#DejaVuSans-82"/>
      <use x="69.419922" xlink:href="#DejaVuSans-101"/>
      <use x="130.943359" xlink:href="#DejaVuSans-115"/>
      <use x="183.042969" xlink:href="#DejaVuSans-101"/>
      <use x="244.566406" xlink:href="#DejaVuSans-114"/>
      <use x="285.679688" xlink:href="#DejaVuSans-118"/>
      <use x="344.859375" xlink:href="#DejaVuSans-111"/>
      <use x="406.041016" xlink:href="#DejaVuSans-105"/>
      <use x="433.824219" xlink:href="#DejaVuSans-114"/>
      <use x="474.9375" xlink:href="#DejaVuSans-32"/>
      <use x="506.724609" xlink:href="#DejaVuSans-108"/>
      <use x="534.507812" xlink:href="#DejaVuSans-111"/>
      <use x="595.689453" xlink:href="#DejaVuSans-115"/>
      <use x="647.789062" xlink:href="#DejaVuSans-115"/>
     </g>
    </g>
    <g id="line2d_31">
     <path style="fill:none;stroke:#cf233e;stroke-linecap:square;stroke-width:2;"/>
    </g>
    <g id="line2d_32"/>
    <g id="text_18">
     <!-- TBD demand multiplier -->
     <defs>
      <path d="M -0.296875 72.90625 
L 61.375 72.90625 
L 61.375 64.59375 
L 35.5 64.59375 
L 35.5 0 
L 25.59375 0 
L 25.59375 64.59375 
L -0.296875 64.59375 
z
" id="DejaVuSans-84"/>
      <path d="M 19.671875 34.8125 
L 19.671875 8.109375 
L 35.5 8.109375 
Q 43.453125 8.109375 47.28125 11.40625 
Q 51.125 14.703125 51.125 21.484375 
Q 51.125 28.328125 47.28125 31.5625 
Q 43.453125 34.8125 35.5 34.8125 
z
M 19.671875 64.796875 
L 19.671875 42.828125 
L 34.28125 42.828125 
Q 41.5 42.828125 45.03125 45.53125 
Q 48.578125 48.25 48.578125 53.8125 
Q 48.578125 59.328125 45.03125 62.0625 
Q 41.5 64.796875 34.28125 64.796875 
z
M 9.8125 72.90625 
L 35.015625 72.90625 
Q 46.296875 72.90625 52.390625 68.21875 
Q 58.5 63.53125 58.5 54.890625 
Q 58.5 48.1875 55.375 44.234375 
Q 52.25 40.28125 46.1875 39.3125 
Q 53.46875 37.75 57.5 32.78125 
Q 61.53125 27.828125 61.53125 20.40625 
Q 61.53125 10.640625 54.890625 5.3125 
Q 48.25 0 35.984375 0 
L 9.8125 0 
z
" id="DejaVuSans-66"/>
      <path d="M 19.671875 64.796875 
L 19.671875 8.109375 
L 31.59375 8.109375 
Q 46.6875 8.109375 53.6875 14.9375 
Q 60.6875 21.78125 60.6875 36.53125 
Q 60.6875 51.171875 53.6875 57.984375 
Q 46.6875 64.796875 31.59375 64.796875 
z
M 9.8125 72.90625 
L 30.078125 72.90625 
Q 51.265625 72.90625 61.171875 64.09375 
Q 71.09375 55.28125 71.09375 36.53125 
Q 71.09375 17.671875 61.125 8.828125 
Q 51.171875 0 30.078125 0 
L 9.8125 0 
z
" id="DejaVuSans-68"/>
     </defs>
     <g transform="translate(182.324219 634.616313)scale(0.1 -0.1)">
      <use xlink:href="#DejaVuSans-84"/>
      <use x="61.083984" xlink:href="#DejaVuSans-66"/>
      <use x="129.6875" xlink:href="#DejaVuSans-68"/>
      <use x="206.689453" xlink:href="#DejaVuSans-32"/>
      <use x="238.476562" xlink:href="#DejaVuSans-100"/>
      <use x="301.953125" xlink:href="#DejaVuSans-101"/>
      <use x="363.476562" xlink:href="#DejaVuSans-109"/>
      <use x="460.888672" xlink:href="#DejaVuSans-97"/>
      <use x="522.167969" xlink:href="#DejaVuSans-110"/>
      <use x="585.546875" xlink:href="#DejaVuSans-100"/>
      <use x="649.023438" xlink:href="#DejaVuSans-32"/>
      <use x="680.810547" xlink:href="#DejaVuSans-109"/>
      <use x="778.222656" xlink:href="#DejaVuSans-117"/>
      <use x="841.601562" xlink:href="#DejaVuSans-108"/>
      <use x="869.384766" xlink:href="#DejaVuSans-116"/>
      <use x="908.59375" xlink:href="#DejaVuSans-105"/>
      <use x="936.376953" xlink:href="#DejaVuSans-112"/>
      <use x="999.853516" xlink:href="#DejaVuSans-108"/>
      <use x="1027.636719" xlink:href="#DejaVuSans-105"/>
      <use x="1055.419922" xlink:href="#DejaVuSans-101"/>
      <use x="1116.943359" xlink:href="#DejaVuSans-114"/>
     </g>
    </g>
    <g id="line2d_33">
     <path style="fill:none;stroke:#681e33;stroke-linecap:square;stroke-width:2;"/>
    </g>
    <g id="line2d_34"/>
    <g id="text_19">
     <!-- M&amp;I demand multiplier -->
     <defs>
      <path d="M 9.8125 72.90625 
L 24.515625 72.90625 
L 43.109375 23.296875 
L 61.8125 72.90625 
L 76.515625 72.90625 
L 76.515625 0 
L 66.890625 0 
L 66.890625 64.015625 
L 48.09375 14.015625 
L 38.1875 14.015625 
L 19.390625 64.015625 
L 19.390625 0 
L 9.8125 0 
z
" id="DejaVuSans-77"/>
      <path d="M 24.3125 39.203125 
Q 19.875 35.25 17.796875 31.3125 
Q 15.71875 27.390625 15.71875 23.09375 
Q 15.71875 15.96875 20.890625 11.234375 
Q 26.078125 6.5 33.890625 6.5 
Q 38.53125 6.5 42.578125 8.03125 
Q 46.625 9.578125 50.203125 12.703125 
z
M 31.203125 44.671875 
L 56 19.28125 
Q 58.890625 23.640625 60.5 28.59375 
Q 62.109375 33.546875 62.40625 39.109375 
L 71.484375 39.109375 
Q 70.90625 32.671875 68.359375 26.359375 
Q 65.828125 20.0625 61.28125 13.921875 
L 74.90625 0 
L 62.59375 0 
L 55.609375 7.171875 
Q 50.53125 2.828125 44.96875 0.703125 
Q 39.40625 -1.421875 33.015625 -1.421875 
Q 21.234375 -1.421875 13.765625 5.296875 
Q 6.296875 12.015625 6.296875 22.515625 
Q 6.296875 28.765625 9.5625 34.25 
Q 12.84375 39.75 19.390625 44.578125 
Q 17.046875 47.65625 15.8125 50.703125 
Q 14.59375 53.765625 14.59375 56.6875 
Q 14.59375 64.59375 20.015625 69.40625 
Q 25.4375 74.21875 34.421875 74.21875 
Q 38.484375 74.21875 42.5 73.34375 
Q 46.53125 72.46875 50.6875 70.703125 
L 50.6875 61.8125 
Q 46.4375 64.109375 42.578125 65.296875 
Q 38.71875 66.5 35.40625 66.5 
Q 30.28125 66.5 27.078125 63.78125 
Q 23.875 61.078125 23.875 56.78125 
Q 23.875 54.296875 25.3125 51.78125 
Q 26.765625 49.265625 31.203125 44.671875 
z
" id="DejaVuSans-38"/>
     </defs>
     <g transform="translate(346.128906 605.260063)scale(0.1 -0.1)">
      <use xlink:href="#DejaVuSans-77"/>
      <use x="86.279297" xlink:href="#DejaVuSans-38"/>
      <use x="164.257812" xlink:href="#DejaVuSans-73"/>
      <use x="193.75" xlink:href="#DejaVuSans-32"/>
      <use x="225.537109" xlink:href="#DejaVuSans-100"/>
      <use x="289.013672" xlink:href="#DejaVuSans-101"/>
      <use x="350.537109" xlink:href="#DejaVuSans-109"/>
      <use x="447.949219" xlink:href="#DejaVuSans-97"/>
      <use x="509.228516" xlink:href="#DejaVuSans-110"/>
      <use x="572.607422" xlink:href="#DejaVuSans-100"/>
      <use x="636.083984" xlink:href="#DejaVuSans-32"/>
      <use x="667.871094" xlink:href="#DejaVuSans-109"/>
      <use x="765.283203" xlink:href="#DejaVuSans-117"/>
      <use x="828.662109" xlink:href="#DejaVuSans-108"/>
      <use x="856.445312" xlink:href="#DejaVuSans-116"/>
      <use x="895.654297" xlink:href="#DejaVuSans-105"/>
      <use x="923.4375" xlink:href="#DejaVuSans-112"/>
      <use x="986.914062" xlink:href="#DejaVuSans-108"/>
      <use x="1014.697266" xlink:href="#DejaVuSans-105"/>
      <use x="1042.480469" xlink:href="#DejaVuSans-101"/>
      <use x="1104.003906" xlink:href="#DejaVuSans-114"/>
     </g>
    </g>
    <g id="line2d_35">
     <path style="fill:none;stroke:#676572;stroke-linecap:square;stroke-width:2;"/>
    </g>
    <g id="line2d_36"/>
    <g id="text_20">
     <!-- Shoshone active -->
     <g transform="translate(346.128906 619.938188)scale(0.1 -0.1)">
      <use xlink:href="#DejaVuSans-83"/>
      <use x="63.476562" xlink:href="#DejaVuSans-104"/>
      <use x="126.855469" xlink:href="#DejaVuSans-111"/>
      <use x="188.037109" xlink:href="#DejaVuSans-115"/>
      <use x="240.136719" xlink:href="#DejaVuSans-104"/>
      <use x="303.515625" xlink:href="#DejaVuSans-111"/>
      <use x="364.697266" xlink:href="#DejaVuSans-110"/>
      <use x="428.076172" xlink:href="#DejaVuSans-101"/>
      <use x="489.599609" xlink:href="#DejaVuSans-32"/>
      <use x="521.386719" xlink:href="#DejaVuSans-97"/>
      <use x="582.666016" xlink:href="#DejaVuSans-99"/>
      <use x="637.646484" xlink:href="#DejaVuSans-116"/>
      <use x="676.855469" xlink:href="#DejaVuSans-105"/>
      <use x="704.638672" xlink:href="#DejaVuSans-118"/>
      <use x="763.818359" xlink:href="#DejaVuSans-101"/>
     </g>
    </g>
    <g id="line2d_37">
     <path style="fill:none;stroke:#f3be22;stroke-linecap:square;stroke-width:2;"/>
    </g>
    <g id="line2d_38"/>
    <g id="text_21">
     <!-- Env. flow senior right -->
     <defs>
      <path d="M 9.8125 72.90625 
L 55.90625 72.90625 
L 55.90625 64.59375 
L 19.671875 64.59375 
L 19.671875 43.015625 
L 54.390625 43.015625 
L 54.390625 34.71875 
L 19.671875 34.71875 
L 19.671875 8.296875 
L 56.78125 8.296875 
L 56.78125 0 
L 9.8125 0 
z
" id="DejaVuSans-69"/>
      <path d="M 37.109375 75.984375 
L 37.109375 68.5 
L 28.515625 68.5 
Q 23.6875 68.5 21.796875 66.546875 
Q 19.921875 64.59375 19.921875 59.515625 
L 19.921875 54.6875 
L 34.71875 54.6875 
L 34.71875 47.703125 
L 19.921875 47.703125 
L 19.921875 0 
L 10.890625 0 
L 10.890625 47.703125 
L 2.296875 47.703125 
L 2.296875 54.6875 
L 10.890625 54.6875 
L 10.890625 58.5 
Q 10.890625 67.625 15.140625 71.796875 
Q 19.390625 75.984375 28.609375 75.984375 
z
" id="DejaVuSans-102"/>
      <path d="M 4.203125 54.6875 
L 13.1875 54.6875 
L 24.421875 12.015625 
L 35.59375 54.6875 
L 46.1875 54.6875 
L 57.421875 12.015625 
L 68.609375 54.6875 
L 77.59375 54.6875 
L 63.28125 0 
L 52.6875 0 
L 40.921875 44.828125 
L 29.109375 0 
L 18.5 0 
z
" id="DejaVuSans-119"/>
     </defs>
     <g transform="translate(346.128906 634.616313)scale(0.1 -0.1)">
      <use xlink:href="#DejaVuSans-69"/>
      <use x="63.183594" xlink:href="#DejaVuSans-110"/>
      <use x="126.5625" xlink:href="#DejaVuSans-118"/>
      <use x="185.632812" xlink:href="#DejaVuSans-46"/>
      <use x="217.419922" xlink:href="#DejaVuSans-32"/>
      <use x="249.207031" xlink:href="#DejaVuSans-102"/>
      <use x="284.412109" xlink:href="#DejaVuSans-108"/>
      <use x="312.195312" xlink:href="#DejaVuSans-111"/>
      <use x="373.376953" xlink:href="#DejaVuSans-119"/>
      <use x="455.164062" xlink:href="#DejaVuSans-32"/>
      <use x="486.951172" xlink:href="#DejaVuSans-115"/>
      <use x="539.050781" xlink:href="#DejaVuSans-101"/>
      <use x="600.574219" xlink:href="#DejaVuSans-110"/>
      <use x="663.953125" xlink:href="#DejaVuSans-105"/>
      <use x="691.736328" xlink:href="#DejaVuSans-111"/>
      <use x="752.917969" xlink:href="#DejaVuSans-114"/>
      <use x="794.03125" xlink:href="#DejaVuSans-32"/>
      <use x="825.818359" xlink:href="#DejaVuSans-114"/>
      <use x="866.931641" xlink:href="#DejaVuSans-105"/>
      <use x="894.714844" xlink:href="#DejaVuSans-103"/>
      <use x="958.191406" xlink:href="#DejaVuSans-104"/>
      <use x="1021.570312" xlink:href="#DejaVuSans-116"/>
     </g>
    </g>
    <g id="line2d_39">
     <path style="fill:none;stroke:#59deba;stroke-linecap:square;stroke-width:2;"/>
    </g>
    <g id="line2d_40"/>
    <g id="text_22">
     <!-- Evaporation delta -->
     <g transform="translate(508.641406 605.260063)scale(0.1 -0.1)">
      <use xlink:href="#DejaVuSans-69"/>
      <use x="63.183594" xlink:href="#DejaVuSans-118"/>
      <use x="122.363281" xlink:href="#DejaVuSans-97"/>
      <use x="183.642578" xlink:href="#DejaVuSans-112"/>
      <use x="247.119141" xlink:href="#DejaVuSans-111"/>
      <use x="308.300781" xlink:href="#DejaVuSans-114"/>
      <use x="349.414062" xlink:href="#DejaVuSans-97"/>
      <use x="410.693359" xlink:href="#DejaVuSans-116"/>
      <use x="449.902344" xlink:href="#DejaVuSans-105"/>
      <use x="477.685547" xlink:href="#DejaVuSans-111"/>
      <use x="538.867188" xlink:href="#DejaVuSans-110"/>
      <use x="602.246094" xlink:href="#DejaVuSans-32"/>
      <use x="634.033203" xlink:href="#DejaVuSans-100"/>
      <use x="697.509766" xlink:href="#DejaVuSans-101"/>
      <use x="759.033203" xlink:href="#DejaVuSans-108"/>
      <use x="786.816406" xlink:href="#DejaVuSans-116"/>
      <use x="826.025391" xlink:href="#DejaVuSans-97"/>
     </g>
    </g>
    <g id="line2d_41">
     <path style="fill:none;stroke:#14015c;stroke-linecap:square;stroke-width:2;"/>
    </g>
    <g id="line2d_42"/>
    <g id="text_23">
     <!-- Dry state mu -->
     <defs>
      <path d="M 32.171875 -5.078125 
Q 28.375 -14.84375 24.75 -17.8125 
Q 21.140625 -20.796875 15.09375 -20.796875 
L 7.90625 -20.796875 
L 7.90625 -13.28125 
L 13.1875 -13.28125 
Q 16.890625 -13.28125 18.9375 -11.515625 
Q 21 -9.765625 23.484375 -3.21875 
L 25.09375 0.875 
L 2.984375 54.6875 
L 12.5 54.6875 
L 29.59375 11.921875 
L 46.6875 54.6875 
L 56.203125 54.6875 
z
" id="DejaVuSans-121"/>
     </defs>
     <g transform="translate(508.641406 619.938188)scale(0.1 -0.1)">
      <use xlink:href="#DejaVuSans-68"/>
      <use x="77.001953" xlink:href="#DejaVuSans-114"/>
      <use x="118.115234" xlink:href="#DejaVuSans-121"/>
      <use x="177.294922" xlink:href="#DejaVuSans-32"/>
      <use x="209.082031" xlink:href="#DejaVuSans-115"/>
      <use x="261.181641" xlink:href="#DejaVuSans-116"/>
      <use x="300.390625" xlink:href="#DejaVuSans-97"/>
      <use x="361.669922" xlink:href="#DejaVuSans-116"/>
      <use x="400.878906" xlink:href="#DejaVuSans-101"/>
      <use x="462.402344" xlink:href="#DejaVuSans-32"/>
      <use x="494.189453" xlink:href="#DejaVuSans-109"/>
      <use x="591.601562" xlink:href="#DejaVuSans-117"/>
     </g>
    </g>
    <g id="line2d_43">
     <path style="fill:none;stroke:#daf8a3;stroke-linecap:square;stroke-width:2;"/>
    </g>
    <g id="line2d_44"/>
    <g id="text_24">
     <!-- Dry state sigma -->
     <g transform="translate(508.641406 634.616313)scale(0.1 -0.1)">
      <use xlink:href="#DejaVuSans-68"/>
      <use x="77.001953" xlink:href="#DejaVuSans-114"/>
      <use x="118.115234" xlink:href="#DejaVuSans-121"/>
      <use x="177.294922" xlink:href="#DejaVuSans-32"/>
      <use x="209.082031" xlink:href="#DejaVuSans-115"/>
      <use x="261.181641" xlink:href="#DejaVuSans-116"/>
      <use x="300.390625" xlink:href="#DejaVuSans-97"/>
      <use x="361.669922" xlink:href="#DejaVuSans-116"/>
      <use x="400.878906" xlink:href="#DejaVuSans-101"/>
      <use x="462.402344" xlink:href="#DejaVuSans-32"/>
      <use x="494.189453" xlink:href="#DejaVuSans-115"/>
      <use x="546.289062" xlink:href="#DejaVuSans-105"/>
      <use x="574.072266" xlink:href="#DejaVuSans-103"/>
      <use x="637.548828" xlink:href="#DejaVuSans-109"/>
      <use x="734.960938" xlink:href="#DejaVuSans-97"/>
     </g>
    </g>
    <g id="line2d_45">
     <path style="fill:none;stroke:#0b7a0a;stroke-linecap:square;stroke-width:2;"/>
    </g>
    <g id="line2d_46"/>
    <g id="text_25">
     <!-- Wet state mu -->
     <g transform="translate(645.374219 605.260063)scale(0.1 -0.1)">
      <use xlink:href="#DejaVuSans-87"/>
      <use x="98.798828" xlink:href="#DejaVuSans-101"/>
      <use x="160.322266" xlink:href="#DejaVuSans-116"/>
      <use x="199.53125" xlink:href="#DejaVuSans-32"/>
      <use x="231.318359" xlink:href="#DejaVuSans-115"/>
      <use x="283.417969" xlink:href="#DejaVuSans-116"/>
      <use x="322.626953" xlink:href="#DejaVuSans-97"/>
      <use x="383.90625" xlink:href="#DejaVuSans-116"/>
      <use x="423.115234" xlink:href="#DejaVuSans-101"/>
      <use x="484.638672" xlink:href="#DejaVuSans-32"/>
      <use x="516.425781" xlink:href="#DejaVuSans-109"/>
      <use x="613.837891" xlink:href="#DejaVuSans-117"/>
     </g>
    </g>
    <g id="line2d_47">
     <path style="fill:none;stroke:#f8ffa2;stroke-linecap:square;stroke-width:2;"/>
    </g>
    <g id="line2d_48"/>
    <g id="text_26">
     <!-- Wet state sigma -->
     <g transform="translate(645.374219 619.938188)scale(0.1 -0.1)">
      <use xlink:href="#DejaVuSans-87"/>
      <use x="98.798828" xlink:href="#DejaVuSans-101"/>
      <use x="160.322266" xlink:href="#DejaVuSans-116"/>
      <use x="199.53125" xlink:href="#DejaVuSans-32"/>
      <use x="231.318359" xlink:href="#DejaVuSans-115"/>
      <use x="283.417969" xlink:href="#DejaVuSans-116"/>
      <use x="322.626953" xlink:href="#DejaVuSans-97"/>
      <use x="383.90625" xlink:href="#DejaVuSans-116"/>
      <use x="423.115234" xlink:href="#DejaVuSans-101"/>
      <use x="484.638672" xlink:href="#DejaVuSans-32"/>
      <use x="516.425781" xlink:href="#DejaVuSans-115"/>
      <use x="568.525391" xlink:href="#DejaVuSans-105"/>
      <use x="596.308594" xlink:href="#DejaVuSans-103"/>
      <use x="659.785156" xlink:href="#DejaVuSans-109"/>
      <use x="757.197266" xlink:href="#DejaVuSans-97"/>
     </g>
    </g>
    <g id="line2d_49">
     <path style="fill:none;stroke:#578dc0;stroke-linecap:square;stroke-width:2;"/>
    </g>
    <g id="line2d_50"/>
    <g id="text_27">
     <!-- Dry-to-dry state prob. -->
     <defs>
      <path d="M 4.890625 31.390625 
L 31.203125 31.390625 
L 31.203125 23.390625 
L 4.890625 23.390625 
z
" id="DejaVuSans-45"/>
      <path d="M 48.6875 27.296875 
Q 48.6875 37.203125 44.609375 42.84375 
Q 40.53125 48.484375 33.40625 48.484375 
Q 26.265625 48.484375 22.1875 42.84375 
Q 18.109375 37.203125 18.109375 27.296875 
Q 18.109375 17.390625 22.1875 11.75 
Q 26.265625 6.109375 33.40625 6.109375 
Q 40.53125 6.109375 44.609375 11.75 
Q 48.6875 17.390625 48.6875 27.296875 
z
M 18.109375 46.390625 
Q 20.953125 51.265625 25.265625 53.625 
Q 29.59375 56 35.59375 56 
Q 45.5625 56 51.78125 48.09375 
Q 58.015625 40.1875 58.015625 27.296875 
Q 58.015625 14.40625 51.78125 6.484375 
Q 45.5625 -1.421875 35.59375 -1.421875 
Q 29.59375 -1.421875 25.265625 0.953125 
Q 20.953125 3.328125 18.109375 8.203125 
L 18.109375 0 
L 9.078125 0 
L 9.078125 75.984375 
L 18.109375 75.984375 
z
" id="DejaVuSans-98"/>
     </defs>
     <g transform="translate(645.374219 634.616313)scale(0.1 -0.1)">
      <use xlink:href="#DejaVuSans-68"/>
      <use x="77.001953" xlink:href="#DejaVuSans-114"/>
      <use x="118.115234" xlink:href="#DejaVuSans-121"/>
      <use x="177.279297" xlink:href="#DejaVuSans-45"/>
      <use x="213.363281" xlink:href="#DejaVuSans-116"/>
      <use x="252.572266" xlink:href="#DejaVuSans-111"/>
      <use x="313.769531" xlink:href="#DejaVuSans-45"/>
      <use x="349.853516" xlink:href="#DejaVuSans-100"/>
      <use x="413.330078" xlink:href="#DejaVuSans-114"/>
      <use x="454.443359" xlink:href="#DejaVuSans-121"/>
      <use x="513.623047" xlink:href="#DejaVuSans-32"/>
      <use x="545.410156" xlink:href="#DejaVuSans-115"/>
      <use x="597.509766" xlink:href="#DejaVuSans-116"/>
      <use x="636.71875" xlink:href="#DejaVuSans-97"/>
      <use x="697.998047" xlink:href="#DejaVuSans-116"/>
      <use x="737.207031" xlink:href="#DejaVuSans-101"/>
      <use x="798.730469" xlink:href="#DejaVuSans-32"/>
      <use x="830.517578" xlink:href="#DejaVuSans-112"/>
      <use x="893.994141" xlink:href="#DejaVuSans-114"/>
      <use x="935.076172" xlink:href="#DejaVuSans-111"/>
      <use x="996.257812" xlink:href="#DejaVuSans-98"/>
      <use x="1059.734375" xlink:href="#DejaVuSans-46"/>
     </g>
    </g>
    <g id="line2d_51">
     <path style="fill:none;stroke:#4e4ad8;stroke-linecap:square;stroke-width:2;"/>
    </g>
    <g id="line2d_52"/>
    <g id="text_28">
     <!-- Wet-to-wet state prob. -->
     <g transform="translate(802.525781 605.260063)scale(0.1 -0.1)">
      <use xlink:href="#DejaVuSans-87"/>
      <use x="98.798828" xlink:href="#DejaVuSans-101"/>
      <use x="160.322266" xlink:href="#DejaVuSans-116"/>
      <use x="199.53125" xlink:href="#DejaVuSans-45"/>
      <use x="235.615234" xlink:href="#DejaVuSans-116"/>
      <use x="274.824219" xlink:href="#DejaVuSans-111"/>
      <use x="336.021484" xlink:href="#DejaVuSans-45"/>
      <use x="372.105469" xlink:href="#DejaVuSans-119"/>
      <use x="453.892578" xlink:href="#DejaVuSans-101"/>
      <use x="515.416016" xlink:href="#DejaVuSans-116"/>
      <use x="554.625" xlink:href="#DejaVuSans-32"/>
      <use x="586.412109" xlink:href="#DejaVuSans-115"/>
      <use x="638.511719" xlink:href="#DejaVuSans-116"/>
      <use x="677.720703" xlink:href="#DejaVuSans-97"/>
      <use x="739" xlink:href="#DejaVuSans-116"/>
      <use x="778.208984" xlink:href="#DejaVuSans-101"/>
      <use x="839.732422" xlink:href="#DejaVuSans-32"/>
      <use x="871.519531" xlink:href="#DejaVuSans-112"/>
      <use x="934.996094" xlink:href="#DejaVuSans-114"/>
      <use x="976.078125" xlink:href="#DejaVuSans-111"/>
      <use x="1037.259766" xlink:href="#DejaVuSans-98"/>
      <use x="1100.736328" xlink:href="#DejaVuSans-46"/>
     </g>
    </g>
    <g id="line2d_53">
     <path style="fill:none;stroke:#32b3f7;stroke-linecap:square;stroke-width:2;"/>
    </g>
    <g id="line2d_54"/>
    <g id="text_29">
     <!-- Earlier snowmelt -->
     <g transform="translate(802.525781 619.938188)scale(0.1 -0.1)">
      <use xlink:href="#DejaVuSans-69"/>
      <use x="63.183594" xlink:href="#DejaVuSans-97"/>
      <use x="124.462891" xlink:href="#DejaVuSans-114"/>
      <use x="165.576172" xlink:href="#DejaVuSans-108"/>
      <use x="193.359375" xlink:href="#DejaVuSans-105"/>
      <use x="221.142578" xlink:href="#DejaVuSans-101"/>
      <use x="282.666016" xlink:href="#DejaVuSans-114"/>
      <use x="323.779297" xlink:href="#DejaVuSans-32"/>
      <use x="355.566406" xlink:href="#DejaVuSans-115"/>
      <use x="407.666016" xlink:href="#DejaVuSans-110"/>
      <use x="471.044922" xlink:href="#DejaVuSans-111"/>
      <use x="532.226562" xlink:href="#DejaVuSans-119"/>
      <use x="614.013672" xlink:href="#DejaVuSans-109"/>
      <use x="711.425781" xlink:href="#DejaVuSans-101"/>
      <use x="772.949219" xlink:href="#DejaVuSans-108"/>
      <use x="800.732422" xlink:href="#DejaVuSans-116"/>
     </g>
    </g>
   </g>
  </g>
  <g id="text_30">
   <!-- Shortage magnitude sensitivity for 7000550 -->
   <defs>
    <path d="M 8.203125 72.90625 
L 55.078125 72.90625 
L 55.078125 68.703125 
L 28.609375 0 
L 18.3125 0 
L 43.21875 64.59375 
L 8.203125 64.59375 
z
" id="DejaVuSans-55"/>
    <path d="M 10.796875 72.90625 
L 49.515625 72.90625 
L 49.515625 64.59375 
L 19.828125 64.59375 
L 19.828125 46.734375 
Q 21.96875 47.46875 24.109375 47.828125 
Q 26.265625 48.1875 28.421875 48.1875 
Q 40.625 48.1875 47.75 41.5 
Q 54.890625 34.8125 54.890625 23.390625 
Q 54.890625 11.625 47.5625 5.09375 
Q 40.234375 -1.421875 26.90625 -1.421875 
Q 22.3125 -1.421875 17.546875 -0.640625 
Q 12.796875 0.140625 7.71875 1.703125 
L 7.71875 11.625 
Q 12.109375 9.234375 16.796875 8.0625 
Q 21.484375 6.890625 26.703125 6.890625 
Q 35.15625 6.890625 40.078125 11.328125 
Q 45.015625 15.765625 45.015625 23.390625 
Q 45.015625 31 40.078125 35.4375 
Q 35.15625 39.890625 26.703125 39.890625 
Q 22.75 39.890625 18.8125 39.015625 
Q 14.890625 38.140625 10.796875 36.28125 
z
" id="DejaVuSans-53"/>
   </defs>
   <g transform="translate(344.81625 23.6775)scale(0.16 -0.16)">
    <use xlink:href="#DejaVuSans-83"/>
    <use x="63.476562" xlink:href="#DejaVuSans-104"/>
    <use x="126.855469" xlink:href="#DejaVuSans-111"/>
    <use x="188.037109" xlink:href="#DejaVuSans-114"/>
    <use x="229.150391" xlink:href="#DejaVuSans-116"/>
    <use x="268.359375" xlink:href="#DejaVuSans-97"/>
    <use x="329.638672" xlink:href="#DejaVuSans-103"/>
    <use x="393.115234" xlink:href="#DejaVuSans-101"/>
    <use x="454.638672" xlink:href="#DejaVuSans-32"/>
    <use x="486.425781" xlink:href="#DejaVuSans-109"/>
    <use x="583.837891" xlink:href="#DejaVuSans-97"/>
    <use x="645.117188" xlink:href="#DejaVuSans-103"/>
    <use x="708.59375" xlink:href="#DejaVuSans-110"/>
    <use x="771.972656" xlink:href="#DejaVuSans-105"/>
    <use x="799.755859" xlink:href="#DejaVuSans-116"/>
    <use x="838.964844" xlink:href="#DejaVuSans-117"/>
    <use x="902.34375" xlink:href="#DejaVuSans-100"/>
    <use x="965.820312" xlink:href="#DejaVuSans-101"/>
    <use x="1027.34375" xlink:href="#DejaVuSans-32"/>
    <use x="1059.130859" xlink:href="#DejaVuSans-115"/>
    <use x="1111.230469" xlink:href="#DejaVuSans-101"/>
    <use x="1172.753906" xlink:href="#DejaVuSans-110"/>
    <use x="1236.132812" xlink:href="#DejaVuSans-115"/>
    <use x="1288.232422" xlink:href="#DejaVuSans-105"/>
    <use x="1316.015625" xlink:href="#DejaVuSans-116"/>
    <use x="1355.224609" xlink:href="#DejaVuSans-105"/>
    <use x="1383.007812" xlink:href="#DejaVuSans-118"/>
    <use x="1442.1875" xlink:href="#DejaVuSans-105"/>
    <use x="1469.970703" xlink:href="#DejaVuSans-116"/>
    <use x="1509.179688" xlink:href="#DejaVuSans-121"/>
    <use x="1568.359375" xlink:href="#DejaVuSans-32"/>
    <use x="1600.146484" xlink:href="#DejaVuSans-102"/>
    <use x="1635.351562" xlink:href="#DejaVuSans-111"/>
    <use x="1696.533203" xlink:href="#DejaVuSans-114"/>
    <use x="1737.646484" xlink:href="#DejaVuSans-32"/>
    <use x="1769.433594" xlink:href="#DejaVuSans-55"/>
    <use x="1833.056641" xlink:href="#DejaVuSans-48"/>
    <use x="1896.679688" xlink:href="#DejaVuSans-48"/>
    <use x="1960.302734" xlink:href="#DejaVuSans-48"/>
    <use x="2023.925781" xlink:href="#DejaVuSans-53"/>
    <use x="2087.548828" xlink:href="#DejaVuSans-53"/>
    <use x="2151.171875" xlink:href="#DejaVuSans-48"/>
   </g>
  </g>
 </g>
 <defs>
  <clipPath id="peb0c860897">
   <rect height="354.816" width="809.1" x="130.5" y="113.472"/>
  </clipPath>
 </defs>
</svg>
