<?xml version="1.0" encoding="utf-8" standalone="no"?>
<!DOCTYPE svg PUBLIC "-//W3C//DTD SVG 1.1//EN"
  "http://www.w3.org/Graphics/SVG/1.1/DTD/svg11.dtd">
<!-- Created with matplotlib (https://matplotlib.org/) -->
<svg height="576pt" version="1.1" viewBox="0 0 1044 576" width="1044pt" xmlns="http://www.w3.org/2000/svg" xmlns:xlink="http://www.w3.org/1999/xlink">
 <defs>
  <style type="text/css">
*{stroke-linecap:butt;stroke-linejoin:round;}
  </style>
 </defs>
 <g id="figure_1">
  <g id="patch_1">
   <path d="M 0 576 
L 1044 576 
L 1044 0 
L 0 0 
z
" style="fill:#ffffff;"/>
  </g>
  <g id="axes_1">
   <g id="patch_2">
    <path d="M 130.5 468.288 
L 939.6 468.288 
L 939.6 113.472 
L 130.5 113.472 
z
" style="fill:#ffffff;"/>
   </g>
   <g id="matplotlib.axis_1">
    <g id="xtick_1">
     <g id="line2d_1">
      <defs>
       <path d="M 0 0 
L 0 3.5 
" id="mc24eda53f0" style="stroke:#000000;stroke-width:0.8;"/>
      </defs>
      <g>
       <use style="stroke:#000000;stroke-width:0.8;" x="130.5" xlink:href="#mc24eda53f0" y="468.288"/>
      </g>
     </g>
     <g id="text_1">
      <!-- 0 -->
      <defs>
       <path d="M 31.78125 66.40625 
Q 24.171875 66.40625 20.328125 58.90625 
Q 16.5 51.421875 16.5 36.375 
Q 16.5 21.390625 20.328125 13.890625 
Q 24.171875 6.390625 31.78125 6.390625 
Q 39.453125 6.390625 43.28125 13.890625 
Q 47.125 21.390625 47.125 36.375 
Q 47.125 51.421875 43.28125 58.90625 
Q 39.453125 66.40625 31.78125 66.40625 
z
M 31.78125 74.21875 
Q 44.046875 74.21875 50.515625 64.515625 
Q 56.984375 54.828125 56.984375 36.375 
Q 56.984375 17.96875 50.515625 8.265625 
Q 44.046875 -1.421875 31.78125 -1.421875 
Q 19.53125 -1.421875 13.0625 8.265625 
Q 6.59375 17.96875 6.59375 36.375 
Q 6.59375 54.828125 13.0625 64.515625 
Q 19.53125 74.21875 31.78125 74.21875 
z
" id="DejaVuSans-48"/>
      </defs>
      <g transform="translate(127.31875 482.886437)scale(0.1 -0.1)">
       <use xlink:href="#DejaVuSans-48"/>
      </g>
     </g>
    </g>
    <g id="xtick_2">
     <g id="line2d_2">
      <g>
       <use style="stroke:#000000;stroke-width:0.8;" x="292.32" xlink:href="#mc24eda53f0" y="468.288"/>
      </g>
     </g>
     <g id="text_2">
      <!-- 20 -->
      <defs>
       <path d="M 19.1875 8.296875 
L 53.609375 8.296875 
L 53.609375 0 
L 7.328125 0 
L 7.328125 8.296875 
Q 12.9375 14.109375 22.625 23.890625 
Q 32.328125 33.6875 34.8125 36.53125 
Q 39.546875 41.84375 41.421875 45.53125 
Q 43.3125 49.21875 43.3125 52.78125 
Q 43.3125 58.59375 39.234375 62.25 
Q 35.15625 65.921875 28.609375 65.921875 
Q 23.96875 65.921875 18.8125 64.3125 
Q 13.671875 62.703125 7.8125 59.421875 
L 7.8125 69.390625 
Q 13.765625 71.78125 18.9375 73 
Q 24.125 74.21875 28.421875 74.21875 
Q 39.75 74.21875 46.484375 68.546875 
Q 53.21875 62.890625 53.21875 53.421875 
Q 53.21875 48.921875 51.53125 44.890625 
Q 49.859375 40.875 45.40625 35.40625 
Q 44.1875 33.984375 37.640625 27.21875 
Q 31.109375 20.453125 19.1875 8.296875 
z
" id="DejaVuSans-50"/>
      </defs>
      <g transform="translate(285.9575 482.886437)scale(0.1 -0.1)">
       <use xlink:href="#DejaVuSans-50"/>
       <use x="63.623047" xlink:href="#DejaVuSans-48"/>
      </g>
     </g>
    </g>
    <g id="xtick_3">
     <g id="line2d_3">
      <g>
       <use style="stroke:#000000;stroke-width:0.8;" x="454.14" xlink:href="#mc24eda53f0" y="468.288"/>
      </g>
     </g>
     <g id="text_3">
      <!-- 40 -->
      <defs>
       <path d="M 37.796875 64.3125 
L 12.890625 25.390625 
L 37.796875 25.390625 
z
M 35.203125 72.90625 
L 47.609375 72.90625 
L 47.609375 25.390625 
L 58.015625 25.390625 
L 58.015625 17.1875 
L 47.609375 17.1875 
L 47.609375 0 
L 37.796875 0 
L 37.796875 17.1875 
L 4.890625 17.1875 
L 4.890625 26.703125 
z
" id="DejaVuSans-52"/>
      </defs>
      <g transform="translate(447.7775 482.886437)scale(0.1 -0.1)">
       <use xlink:href="#DejaVuSans-52"/>
       <use x="63.623047" xlink:href="#DejaVuSans-48"/>
      </g>
     </g>
    </g>
    <g id="xtick_4">
     <g id="line2d_4">
      <g>
       <use style="stroke:#000000;stroke-width:0.8;" x="615.96" xlink:href="#mc24eda53f0" y="468.288"/>
      </g>
     </g>
     <g id="text_4">
      <!-- 60 -->
      <defs>
       <path d="M 33.015625 40.375 
Q 26.375 40.375 22.484375 35.828125 
Q 18.609375 31.296875 18.609375 23.390625 
Q 18.609375 15.53125 22.484375 10.953125 
Q 26.375 6.390625 33.015625 6.390625 
Q 39.65625 6.390625 43.53125 10.953125 
Q 47.40625 15.53125 47.40625 23.390625 
Q 47.40625 31.296875 43.53125 35.828125 
Q 39.65625 40.375 33.015625 40.375 
z
M 52.59375 71.296875 
L 52.59375 62.3125 
Q 48.875 64.0625 45.09375 64.984375 
Q 41.3125 65.921875 37.59375 65.921875 
Q 27.828125 65.921875 22.671875 59.328125 
Q 17.53125 52.734375 16.796875 39.40625 
Q 19.671875 43.65625 24.015625 45.921875 
Q 28.375 48.1875 33.59375 48.1875 
Q 44.578125 48.1875 50.953125 41.515625 
Q 57.328125 34.859375 57.328125 23.390625 
Q 57.328125 12.15625 50.6875 5.359375 
Q 44.046875 -1.421875 33.015625 -1.421875 
Q 20.359375 -1.421875 13.671875 8.265625 
Q 6.984375 17.96875 6.984375 36.375 
Q 6.984375 53.65625 15.1875 63.9375 
Q 23.390625 74.21875 37.203125 74.21875 
Q 40.921875 74.21875 44.703125 73.484375 
Q 48.484375 72.75 52.59375 71.296875 
z
" id="DejaVuSans-54"/>
      </defs>
      <g transform="translate(609.5975 482.886437)scale(0.1 -0.1)">
       <use xlink:href="#DejaVuSans-54"/>
       <use x="63.623047" xlink:href="#DejaVuSans-48"/>
      </g>
     </g>
    </g>
    <g id="xtick_5">
     <g id="line2d_5">
      <g>
       <use style="stroke:#000000;stroke-width:0.8;" x="777.78" xlink:href="#mc24eda53f0" y="468.288"/>
      </g>
     </g>
     <g id="text_5">
      <!-- 80 -->
      <defs>
       <path d="M 31.78125 34.625 
Q 24.75 34.625 20.71875 30.859375 
Q 16.703125 27.09375 16.703125 20.515625 
Q 16.703125 13.921875 20.71875 10.15625 
Q 24.75 6.390625 31.78125 6.390625 
Q 38.8125 6.390625 42.859375 10.171875 
Q 46.921875 13.96875 46.921875 20.515625 
Q 46.921875 27.09375 42.890625 30.859375 
Q 38.875 34.625 31.78125 34.625 
z
M 21.921875 38.8125 
Q 15.578125 40.375 12.03125 44.71875 
Q 8.5 49.078125 8.5 55.328125 
Q 8.5 64.0625 14.71875 69.140625 
Q 20.953125 74.21875 31.78125 74.21875 
Q 42.671875 74.21875 48.875 69.140625 
Q 55.078125 64.0625 55.078125 55.328125 
Q 55.078125 49.078125 51.53125 44.71875 
Q 48 40.375 41.703125 38.8125 
Q 48.828125 37.15625 52.796875 32.3125 
Q 56.78125 27.484375 56.78125 20.515625 
Q 56.78125 9.90625 50.3125 4.234375 
Q 43.84375 -1.421875 31.78125 -1.421875 
Q 19.734375 -1.421875 13.25 4.234375 
Q 6.78125 9.90625 6.78125 20.515625 
Q 6.78125 27.484375 10.78125 32.3125 
Q 14.796875 37.15625 21.921875 38.8125 
z
M 18.3125 54.390625 
Q 18.3125 48.734375 21.84375 45.5625 
Q 25.390625 42.390625 31.78125 42.390625 
Q 38.140625 42.390625 41.71875 45.5625 
Q 45.3125 48.734375 45.3125 54.390625 
Q 45.3125 60.0625 41.71875 63.234375 
Q 38.140625 66.40625 31.78125 66.40625 
Q 25.390625 66.40625 21.84375 63.234375 
Q 18.3125 60.0625 18.3125 54.390625 
z
" id="DejaVuSans-56"/>
      </defs>
      <g transform="translate(771.4175 482.886437)scale(0.1 -0.1)">
       <use xlink:href="#DejaVuSans-56"/>
       <use x="63.623047" xlink:href="#DejaVuSans-48"/>
      </g>
     </g>
    </g>
    <g id="xtick_6">
     <g id="line2d_6">
      <g>
       <use style="stroke:#000000;stroke-width:0.8;" x="939.6" xlink:href="#mc24eda53f0" y="468.288"/>
      </g>
     </g>
     <g id="text_6">
      <!-- 100 -->
      <defs>
       <path d="M 12.40625 8.296875 
L 28.515625 8.296875 
L 28.515625 63.921875 
L 10.984375 60.40625 
L 10.984375 69.390625 
L 28.421875 72.90625 
L 38.28125 72.90625 
L 38.28125 8.296875 
L 54.390625 8.296875 
L 54.390625 0 
L 12.40625 0 
z
" id="DejaVuSans-49"/>
      </defs>
      <g transform="translate(930.05625 482.886437)scale(0.1 -0.1)">
       <use xlink:href="#DejaVuSans-49"/>
       <use x="63.623047" xlink:href="#DejaVuSans-48"/>
       <use x="127.246094" xlink:href="#DejaVuSans-48"/>
      </g>
     </g>
    </g>
    <g id="text_7">
     <!-- Shortage magnitude percentile -->
     <defs>
      <path d="M 53.515625 70.515625 
L 53.515625 60.890625 
Q 47.90625 63.578125 42.921875 64.890625 
Q 37.9375 66.21875 33.296875 66.21875 
Q 25.25 66.21875 20.875 63.09375 
Q 16.5 59.96875 16.5 54.203125 
Q 16.5 49.359375 19.40625 46.890625 
Q 22.3125 44.4375 30.421875 42.921875 
L 36.375 41.703125 
Q 47.40625 39.59375 52.65625 34.296875 
Q 57.90625 29 57.90625 20.125 
Q 57.90625 9.515625 50.796875 4.046875 
Q 43.703125 -1.421875 29.984375 -1.421875 
Q 24.8125 -1.421875 18.96875 -0.25 
Q 13.140625 0.921875 6.890625 3.21875 
L 6.890625 13.375 
Q 12.890625 10.015625 18.65625 8.296875 
Q 24.421875 6.59375 29.984375 6.59375 
Q 38.421875 6.59375 43.015625 9.90625 
Q 47.609375 13.234375 47.609375 19.390625 
Q 47.609375 24.75 44.3125 27.78125 
Q 41.015625 30.8125 33.5 32.328125 
L 27.484375 33.5 
Q 16.453125 35.6875 11.515625 40.375 
Q 6.59375 45.0625 6.59375 53.421875 
Q 6.59375 63.09375 13.40625 68.65625 
Q 20.21875 74.21875 32.171875 74.21875 
Q 37.3125 74.21875 42.625 73.28125 
Q 47.953125 72.359375 53.515625 70.515625 
z
" id="DejaVuSans-83"/>
      <path d="M 54.890625 33.015625 
L 54.890625 0 
L 45.90625 0 
L 45.90625 32.71875 
Q 45.90625 40.484375 42.875 44.328125 
Q 39.84375 48.1875 33.796875 48.1875 
Q 26.515625 48.1875 22.3125 43.546875 
Q 18.109375 38.921875 18.109375 30.90625 
L 18.109375 0 
L 9.078125 0 
L 9.078125 75.984375 
L 18.109375 75.984375 
L 18.109375 46.1875 
Q 21.34375 51.125 25.703125 53.5625 
Q 30.078125 56 35.796875 56 
Q 45.21875 56 50.046875 50.171875 
Q 54.890625 44.34375 54.890625 33.015625 
z
" id="DejaVuSans-104"/>
      <path d="M 30.609375 48.390625 
Q 23.390625 48.390625 19.1875 42.75 
Q 14.984375 37.109375 14.984375 27.296875 
Q 14.984375 17.484375 19.15625 11.84375 
Q 23.34375 6.203125 30.609375 6.203125 
Q 37.796875 6.203125 41.984375 11.859375 
Q 46.1875 17.53125 46.1875 27.296875 
Q 46.1875 37.015625 41.984375 42.703125 
Q 37.796875 48.390625 30.609375 48.390625 
z
M 30.609375 56 
Q 42.328125 56 49.015625 48.375 
Q 55.71875 40.765625 55.71875 27.296875 
Q 55.71875 13.875 49.015625 6.21875 
Q 42.328125 -1.421875 30.609375 -1.421875 
Q 18.84375 -1.421875 12.171875 6.21875 
Q 5.515625 13.875 5.515625 27.296875 
Q 5.515625 40.765625 12.171875 48.375 
Q 18.84375 56 30.609375 56 
z
" id="DejaVuSans-111"/>
      <path d="M 41.109375 46.296875 
Q 39.59375 47.171875 37.8125 47.578125 
Q 36.03125 48 33.890625 48 
Q 26.265625 48 22.1875 43.046875 
Q 18.109375 38.09375 18.109375 28.8125 
L 18.109375 0 
L 9.078125 0 
L 9.078125 54.6875 
L 18.109375 54.6875 
L 18.109375 46.1875 
Q 20.953125 51.171875 25.484375 53.578125 
Q 30.03125 56 36.53125 56 
Q 37.453125 56 38.578125 55.875 
Q 39.703125 55.765625 41.0625 55.515625 
z
" id="DejaVuSans-114"/>
      <path d="M 18.3125 70.21875 
L 18.3125 54.6875 
L 36.8125 54.6875 
L 36.8125 47.703125 
L 18.3125 47.703125 
L 18.3125 18.015625 
Q 18.3125 11.328125 20.140625 9.421875 
Q 21.96875 7.515625 27.59375 7.515625 
L 36.8125 7.515625 
L 36.8125 0 
L 27.59375 0 
Q 17.1875 0 13.234375 3.875 
Q 9.28125 7.765625 9.28125 18.015625 
L 9.28125 47.703125 
L 2.6875 47.703125 
L 2.6875 54.6875 
L 9.28125 54.6875 
L 9.28125 70.21875 
z
" id="DejaVuSans-116"/>
      <path d="M 34.28125 27.484375 
Q 23.390625 27.484375 19.1875 25 
Q 14.984375 22.515625 14.984375 16.5 
Q 14.984375 11.71875 18.140625 8.90625 
Q 21.296875 6.109375 26.703125 6.109375 
Q 34.1875 6.109375 38.703125 11.40625 
Q 43.21875 16.703125 43.21875 25.484375 
L 43.21875 27.484375 
z
M 52.203125 31.203125 
L 52.203125 0 
L 43.21875 0 
L 43.21875 8.296875 
Q 40.140625 3.328125 35.546875 0.953125 
Q 30.953125 -1.421875 24.3125 -1.421875 
Q 15.921875 -1.421875 10.953125 3.296875 
Q 6 8.015625 6 15.921875 
Q 6 25.140625 12.171875 29.828125 
Q 18.359375 34.515625 30.609375 34.515625 
L 43.21875 34.515625 
L 43.21875 35.40625 
Q 43.21875 41.609375 39.140625 45 
Q 35.0625 48.390625 27.6875 48.390625 
Q 23 48.390625 18.546875 47.265625 
Q 14.109375 46.140625 10.015625 43.890625 
L 10.015625 52.203125 
Q 14.9375 54.109375 19.578125 55.046875 
Q 24.21875 56 28.609375 56 
Q 40.484375 56 46.34375 49.84375 
Q 52.203125 43.703125 52.203125 31.203125 
z
" id="DejaVuSans-97"/>
      <path d="M 45.40625 27.984375 
Q 45.40625 37.75 41.375 43.109375 
Q 37.359375 48.484375 30.078125 48.484375 
Q 22.859375 48.484375 18.828125 43.109375 
Q 14.796875 37.75 14.796875 27.984375 
Q 14.796875 18.265625 18.828125 12.890625 
Q 22.859375 7.515625 30.078125 7.515625 
Q 37.359375 7.515625 41.375 12.890625 
Q 45.40625 18.265625 45.40625 27.984375 
z
M 54.390625 6.78125 
Q 54.390625 -7.171875 48.1875 -13.984375 
Q 42 -20.796875 29.203125 -20.796875 
Q 24.46875 -20.796875 20.265625 -20.09375 
Q 16.0625 -19.390625 12.109375 -17.921875 
L 12.109375 -9.1875 
Q 16.0625 -11.328125 19.921875 -12.34375 
Q 23.78125 -13.375 27.78125 -13.375 
Q 36.625 -13.375 41.015625 -8.765625 
Q 45.40625 -4.15625 45.40625 5.171875 
L 45.40625 9.625 
Q 42.625 4.78125 38.28125 2.390625 
Q 33.9375 0 27.875 0 
Q 17.828125 0 11.671875 7.65625 
Q 5.515625 15.328125 5.515625 27.984375 
Q 5.515625 40.671875 11.671875 48.328125 
Q 17.828125 56 27.875 56 
Q 33.9375 56 38.28125 53.609375 
Q 42.625 51.21875 45.40625 46.390625 
L 45.40625 54.6875 
L 54.390625 54.6875 
z
" id="DejaVuSans-103"/>
      <path d="M 56.203125 29.59375 
L 56.203125 25.203125 
L 14.890625 25.203125 
Q 15.484375 15.921875 20.484375 11.0625 
Q 25.484375 6.203125 34.421875 6.203125 
Q 39.59375 6.203125 44.453125 7.46875 
Q 49.3125 8.734375 54.109375 11.28125 
L 54.109375 2.78125 
Q 49.265625 0.734375 44.1875 -0.34375 
Q 39.109375 -1.421875 33.890625 -1.421875 
Q 20.796875 -1.421875 13.15625 6.1875 
Q 5.515625 13.8125 5.515625 26.8125 
Q 5.515625 40.234375 12.765625 48.109375 
Q 20.015625 56 32.328125 56 
Q 43.359375 56 49.78125 48.890625 
Q 56.203125 41.796875 56.203125 29.59375 
z
M 47.21875 32.234375 
Q 47.125 39.59375 43.09375 43.984375 
Q 39.0625 48.390625 32.421875 48.390625 
Q 24.90625 48.390625 20.390625 44.140625 
Q 15.875 39.890625 15.1875 32.171875 
z
" id="DejaVuSans-101"/>
      <path id="DejaVuSans-32"/>
      <path d="M 52 44.1875 
Q 55.375 50.25 60.0625 53.125 
Q 64.75 56 71.09375 56 
Q 79.640625 56 84.28125 50.015625 
Q 88.921875 44.046875 88.921875 33.015625 
L 88.921875 0 
L 79.890625 0 
L 79.890625 32.71875 
Q 79.890625 40.578125 77.09375 44.375 
Q 74.3125 48.1875 68.609375 48.1875 
Q 61.625 48.1875 57.5625 43.546875 
Q 53.515625 38.921875 53.515625 30.90625 
L 53.515625 0 
L 44.484375 0 
L 44.484375 32.71875 
Q 44.484375 40.625 41.703125 44.40625 
Q 38.921875 48.1875 33.109375 48.1875 
Q 26.21875 48.1875 22.15625 43.53125 
Q 18.109375 38.875 18.109375 30.90625 
L 18.109375 0 
L 9.078125 0 
L 9.078125 54.6875 
L 18.109375 54.6875 
L 18.109375 46.1875 
Q 21.1875 51.21875 25.484375 53.609375 
Q 29.78125 56 35.6875 56 
Q 41.65625 56 45.828125 52.96875 
Q 50 49.953125 52 44.1875 
z
" id="DejaVuSans-109"/>
      <path d="M 54.890625 33.015625 
L 54.890625 0 
L 45.90625 0 
L 45.90625 32.71875 
Q 45.90625 40.484375 42.875 44.328125 
Q 39.84375 48.1875 33.796875 48.1875 
Q 26.515625 48.1875 22.3125 43.546875 
Q 18.109375 38.921875 18.109375 30.90625 
L 18.109375 0 
L 9.078125 0 
L 9.078125 54.6875 
L 18.109375 54.6875 
L 18.109375 46.1875 
Q 21.34375 51.125 25.703125 53.5625 
Q 30.078125 56 35.796875 56 
Q 45.21875 56 50.046875 50.171875 
Q 54.890625 44.34375 54.890625 33.015625 
z
" id="DejaVuSans-110"/>
      <path d="M 9.421875 54.6875 
L 18.40625 54.6875 
L 18.40625 0 
L 9.421875 0 
z
M 9.421875 75.984375 
L 18.40625 75.984375 
L 18.40625 64.59375 
L 9.421875 64.59375 
z
" id="DejaVuSans-105"/>
      <path d="M 8.5 21.578125 
L 8.5 54.6875 
L 17.484375 54.6875 
L 17.484375 21.921875 
Q 17.484375 14.15625 20.5 10.265625 
Q 23.53125 6.390625 29.59375 6.390625 
Q 36.859375 6.390625 41.078125 11.03125 
Q 45.3125 15.671875 45.3125 23.6875 
L 45.3125 54.6875 
L 54.296875 54.6875 
L 54.296875 0 
L 45.3125 0 
L 45.3125 8.40625 
Q 42.046875 3.421875 37.71875 1 
Q 33.40625 -1.421875 27.6875 -1.421875 
Q 18.265625 -1.421875 13.375 4.4375 
Q 8.5 10.296875 8.5 21.578125 
z
M 31.109375 56 
z
" id="DejaVuSans-117"/>
      <path d="M 45.40625 46.390625 
L 45.40625 75.984375 
L 54.390625 75.984375 
L 54.390625 0 
L 45.40625 0 
L 45.40625 8.203125 
Q 42.578125 3.328125 38.25 0.953125 
Q 33.9375 -1.421875 27.875 -1.421875 
Q 17.96875 -1.421875 11.734375 6.484375 
Q 5.515625 14.40625 5.515625 27.296875 
Q 5.515625 40.1875 11.734375 48.09375 
Q 17.96875 56 27.875 56 
Q 33.9375 56 38.25 53.625 
Q 42.578125 51.265625 45.40625 46.390625 
z
M 14.796875 27.296875 
Q 14.796875 17.390625 18.875 11.75 
Q 22.953125 6.109375 30.078125 6.109375 
Q 37.203125 6.109375 41.296875 11.75 
Q 45.40625 17.390625 45.40625 27.296875 
Q 45.40625 37.203125 41.296875 42.84375 
Q 37.203125 48.484375 30.078125 48.484375 
Q 22.953125 48.484375 18.875 42.84375 
Q 14.796875 37.203125 14.796875 27.296875 
z
" id="DejaVuSans-100"/>
      <path d="M 18.109375 8.203125 
L 18.109375 -20.796875 
L 9.078125 -20.796875 
L 9.078125 54.6875 
L 18.109375 54.6875 
L 18.109375 46.390625 
Q 20.953125 51.265625 25.265625 53.625 
Q 29.59375 56 35.59375 56 
Q 45.5625 56 51.78125 48.09375 
Q 58.015625 40.1875 58.015625 27.296875 
Q 58.015625 14.40625 51.78125 6.484375 
Q 45.5625 -1.421875 35.59375 -1.421875 
Q 29.59375 -1.421875 25.265625 0.953125 
Q 20.953125 3.328125 18.109375 8.203125 
z
M 48.6875 27.296875 
Q 48.6875 37.203125 44.609375 42.84375 
Q 40.53125 48.484375 33.40625 48.484375 
Q 26.265625 48.484375 22.1875 42.84375 
Q 18.109375 37.203125 18.109375 27.296875 
Q 18.109375 17.390625 22.1875 11.75 
Q 26.265625 6.109375 33.40625 6.109375 
Q 40.53125 6.109375 44.609375 11.75 
Q 48.6875 17.390625 48.6875 27.296875 
z
" id="DejaVuSans-112"/>
      <path d="M 48.78125 52.59375 
L 48.78125 44.1875 
Q 44.96875 46.296875 41.140625 47.34375 
Q 37.3125 48.390625 33.40625 48.390625 
Q 24.65625 48.390625 19.8125 42.84375 
Q 14.984375 37.3125 14.984375 27.296875 
Q 14.984375 17.28125 19.8125 11.734375 
Q 24.65625 6.203125 33.40625 6.203125 
Q 37.3125 6.203125 41.140625 7.25 
Q 44.96875 8.296875 48.78125 10.40625 
L 48.78125 2.09375 
Q 45.015625 0.34375 40.984375 -0.53125 
Q 36.96875 -1.421875 32.421875 -1.421875 
Q 20.0625 -1.421875 12.78125 6.34375 
Q 5.515625 14.109375 5.515625 27.296875 
Q 5.515625 40.671875 12.859375 48.328125 
Q 20.21875 56 33.015625 56 
Q 37.15625 56 41.109375 55.140625 
Q 45.0625 54.296875 48.78125 52.59375 
z
" id="DejaVuSans-99"/>
      <path d="M 9.421875 75.984375 
L 18.40625 75.984375 
L 18.40625 0 
L 9.421875 0 
z
" id="DejaVuSans-108"/>
     </defs>
     <g transform="translate(410.13625 501.123625)scale(0.16 -0.16)">
      <use xlink:href="#DejaVuSans-83"/>
      <use x="63.476562" xlink:href="#DejaVuSans-104"/>
      <use x="126.855469" xlink:href="#DejaVuSans-111"/>
      <use x="188.037109" xlink:href="#DejaVuSans-114"/>
      <use x="229.150391" xlink:href="#DejaVuSans-116"/>
      <use x="268.359375" xlink:href="#DejaVuSans-97"/>
      <use x="329.638672" xlink:href="#DejaVuSans-103"/>
      <use x="393.115234" xlink:href="#DejaVuSans-101"/>
      <use x="454.638672" xlink:href="#DejaVuSans-32"/>
      <use x="486.425781" xlink:href="#DejaVuSans-109"/>
      <use x="583.837891" xlink:href="#DejaVuSans-97"/>
      <use x="645.117188" xlink:href="#DejaVuSans-103"/>
      <use x="708.59375" xlink:href="#DejaVuSans-110"/>
      <use x="771.972656" xlink:href="#DejaVuSans-105"/>
      <use x="799.755859" xlink:href="#DejaVuSans-116"/>
      <use x="838.964844" xlink:href="#DejaVuSans-117"/>
      <use x="902.34375" xlink:href="#DejaVuSans-100"/>
      <use x="965.820312" xlink:href="#DejaVuSans-101"/>
      <use x="1027.34375" xlink:href="#DejaVuSans-32"/>
      <use x="1059.130859" xlink:href="#DejaVuSans-112"/>
      <use x="1122.607422" xlink:href="#DejaVuSans-101"/>
      <use x="1184.130859" xlink:href="#DejaVuSans-114"/>
      <use x="1225.212891" xlink:href="#DejaVuSans-99"/>
      <use x="1280.193359" xlink:href="#DejaVuSans-101"/>
      <use x="1341.716797" xlink:href="#DejaVuSans-110"/>
      <use x="1405.095703" xlink:href="#DejaVuSans-116"/>
      <use x="1444.304688" xlink:href="#DejaVuSans-105"/>
      <use x="1472.087891" xlink:href="#DejaVuSans-108"/>
      <use x="1499.871094" xlink:href="#DejaVuSans-101"/>
     </g>
    </g>
   </g>
   <g id="matplotlib.axis_2">
    <g id="ytick_1">
     <g id="line2d_7">
      <defs>
       <path d="M 0 0 
L -3.5 0 
" id="m023f3e0488" style="stroke:#000000;stroke-width:0.8;"/>
      </defs>
      <g>
       <use style="stroke:#000000;stroke-width:0.8;" x="130.5" xlink:href="#m023f3e0488" y="468.288"/>
      </g>
     </g>
     <g id="text_8">
      <!-- 0.0 -->
      <defs>
       <path d="M 10.6875 12.40625 
L 21 12.40625 
L 21 0 
L 10.6875 0 
z
" id="DejaVuSans-46"/>
      </defs>
      <g transform="translate(107.596875 472.087219)scale(0.1 -0.1)">
       <use xlink:href="#DejaVuSans-48"/>
       <use x="63.623047" xlink:href="#DejaVuSans-46"/>
       <use x="95.410156" xlink:href="#DejaVuSans-48"/>
      </g>
     </g>
    </g>
    <g id="ytick_2">
     <g id="line2d_8">
      <g>
       <use style="stroke:#000000;stroke-width:0.8;" x="130.5" xlink:href="#m023f3e0488" y="397.3248"/>
      </g>
     </g>
     <g id="text_9">
      <!-- 0.2 -->
      <g transform="translate(107.596875 401.124019)scale(0.1 -0.1)">
       <use xlink:href="#DejaVuSans-48"/>
       <use x="63.623047" xlink:href="#DejaVuSans-46"/>
       <use x="95.410156" xlink:href="#DejaVuSans-50"/>
      </g>
     </g>
    </g>
    <g id="ytick_3">
     <g id="line2d_9">
      <g>
       <use style="stroke:#000000;stroke-width:0.8;" x="130.5" xlink:href="#m023f3e0488" y="326.3616"/>
      </g>
     </g>
     <g id="text_10">
      <!-- 0.4 -->
      <g transform="translate(107.596875 330.160819)scale(0.1 -0.1)">
       <use xlink:href="#DejaVuSans-48"/>
       <use x="63.623047" xlink:href="#DejaVuSans-46"/>
       <use x="95.410156" xlink:href="#DejaVuSans-52"/>
      </g>
     </g>
    </g>
    <g id="ytick_4">
     <g id="line2d_10">
      <g>
       <use style="stroke:#000000;stroke-width:0.8;" x="130.5" xlink:href="#m023f3e0488" y="255.3984"/>
      </g>
     </g>
     <g id="text_11">
      <!-- 0.6 -->
      <g transform="translate(107.596875 259.197619)scale(0.1 -0.1)">
       <use xlink:href="#DejaVuSans-48"/>
       <use x="63.623047" xlink:href="#DejaVuSans-46"/>
       <use x="95.410156" xlink:href="#DejaVuSans-54"/>
      </g>
     </g>
    </g>
    <g id="ytick_5">
     <g id="line2d_11">
      <g>
       <use style="stroke:#000000;stroke-width:0.8;" x="130.5" xlink:href="#m023f3e0488" y="184.4352"/>
      </g>
     </g>
     <g id="text_12">
      <!-- 0.8 -->
      <g transform="translate(107.596875 188.234419)scale(0.1 -0.1)">
       <use xlink:href="#DejaVuSans-48"/>
       <use x="63.623047" xlink:href="#DejaVuSans-46"/>
       <use x="95.410156" xlink:href="#DejaVuSans-56"/>
      </g>
     </g>
    </g>
    <g id="ytick_6">
     <g id="line2d_12">
      <g>
       <use style="stroke:#000000;stroke-width:0.8;" x="130.5" xlink:href="#m023f3e0488" y="113.472"/>
      </g>
     </g>
     <g id="text_13">
      <!-- 1.0 -->
      <g transform="translate(107.596875 117.271219)scale(0.1 -0.1)">
       <use xlink:href="#DejaVuSans-49"/>
       <use x="63.623047" xlink:href="#DejaVuSans-46"/>
       <use x="95.410156" xlink:href="#DejaVuSans-48"/>
      </g>
     </g>
    </g>
    <g id="text_14">
     <!-- Variance explained -->
     <defs>
      <path d="M 28.609375 0 
L 0.78125 72.90625 
L 11.078125 72.90625 
L 34.1875 11.53125 
L 57.328125 72.90625 
L 67.578125 72.90625 
L 39.796875 0 
z
" id="DejaVuSans-86"/>
      <path d="M 54.890625 54.6875 
L 35.109375 28.078125 
L 55.90625 0 
L 45.3125 0 
L 29.390625 21.484375 
L 13.484375 0 
L 2.875 0 
L 24.125 28.609375 
L 4.6875 54.6875 
L 15.28125 54.6875 
L 29.78125 35.203125 
L 44.28125 54.6875 
z
" id="DejaVuSans-120"/>
     </defs>
     <g transform="translate(100.269375 367.7475)rotate(-90)scale(0.16 -0.16)">
      <use xlink:href="#DejaVuSans-86"/>
      <use x="68.298828" xlink:href="#DejaVuSans-97"/>
      <use x="129.578125" xlink:href="#DejaVuSans-114"/>
      <use x="170.691406" xlink:href="#DejaVuSans-105"/>
      <use x="198.474609" xlink:href="#DejaVuSans-97"/>
      <use x="259.753906" xlink:href="#DejaVuSans-110"/>
      <use x="323.132812" xlink:href="#DejaVuSans-99"/>
      <use x="378.113281" xlink:href="#DejaVuSans-101"/>
      <use x="439.636719" xlink:href="#DejaVuSans-32"/>
      <use x="471.423828" xlink:href="#DejaVuSans-101"/>
      <use x="532.931641" xlink:href="#DejaVuSans-120"/>
      <use x="592.111328" xlink:href="#DejaVuSans-112"/>
      <use x="655.587891" xlink:href="#DejaVuSans-108"/>
      <use x="683.371094" xlink:href="#DejaVuSans-97"/>
      <use x="744.650391" xlink:href="#DejaVuSans-105"/>
      <use x="772.433594" xlink:href="#DejaVuSans-110"/>
      <use x="835.8125" xlink:href="#DejaVuSans-101"/>
      <use x="897.335938" xlink:href="#DejaVuSans-100"/>
     </g>
    </g>
   </g>
   <g id="line2d_13">
    <path clip-path="url(#p826d1e565e)" d="M 130.5 462.625706 
L 138.591 462.677162 
L 146.682 462.842269 
L 154.773 462.552366 
L 162.864 462.052893 
L 170.955 461.082474 
L 179.046 460.270876 
L 187.137 459.92486 
L 195.228 459.930825 
L 203.319 459.203117 
L 211.41 457.611091 
L 219.501 456.809717 
L 227.592 454.681956 
L 235.683 452.905294 
L 243.774 452.260955 
L 251.865 451.282126 
L 259.956 451.079857 
L 268.047 450.739238 
L 276.138 450.199499 
L 284.229 449.477245 
L 292.32 449.166111 
L 300.411 448.359587 
L 308.502 448.318022 
L 316.593 447.68509 
L 324.684 446.40028 
L 332.775 446.104934 
L 340.866 445.316947 
L 348.957 443.745875 
L 357.048 443.921408 
L 365.139 443.926263 
L 373.23 443.703513 
L 381.321 443.101787 
L 389.412 442.990464 
L 397.503 443.007595 
L 405.594 443.057965 
L 413.685 441.996623 
L 421.776 441.635103 
L 429.867 441.106632 
L 437.958 440.855466 
L 446.049 440.255121 
L 454.14 439.957337 
L 462.231 439.052273 
L 470.322 438.687096 
L 478.413 438.179656 
L 486.504 437.798302 
L 494.595 437.541264 
L 502.686 436.828085 
L 510.777 435.54535 
L 518.868 434.973854 
L 526.959 434.753064 
L 535.05 434.83854 
L 543.141 434.733594 
L 551.232 434.716831 
L 559.323 434.270381 
L 567.414 434.300119 
L 575.505 433.940401 
L 583.596 433.738156 
L 591.687 432.543323 
L 599.778 432.528161 
L 607.869 432.077494 
L 615.96 431.949077 
L 624.051 431.769534 
L 632.142 431.642653 
L 640.233 429.766605 
L 648.324 428.811665 
L 656.415 428.777216 
L 664.506 427.787091 
L 672.597 427.303365 
L 680.688 426.673585 
L 688.779 425.52949 
L 696.87 425.158163 
L 704.961 423.846918 
L 713.052 423.649933 
L 721.143 423.623403 
L 729.234 420.360749 
L 737.325 419.74342 
L 745.416 418.506191 
L 753.507 417.580423 
L 761.598 416.257596 
L 769.689 409.489386 
L 777.78 408.27644 
L 785.871 405.553374 
L 793.962 404.927886 
L 802.053 403.714788 
L 810.144 403.084314 
L 818.235 402.039337 
L 826.326 401.679018 
L 834.417 401.297738 
L 842.508 400.566109 
L 850.599 399.72613 
L 858.69 399.14437 
L 866.781 398.04949 
L 874.872 397.110099 
L 882.963 394.239965 
L 891.054 390.629836 
L 899.145 389.510905 
L 907.236 384.672125 
L 915.327 384.32293 
L 923.418 381.349441 
L 931.509 380.197934 
" style="fill:none;stroke:#f18670;stroke-linecap:square;stroke-width:2;"/>
   </g>
   <g id="line2d_14">
    <path clip-path="url(#p826d1e565e)" d="M 130.5 468.008024 
L 138.591 468.068228 
L 146.682 468.140244 
L 154.773 468.159022 
L 162.864 468.123686 
L 170.955 468.13167 
L 179.046 468.073222 
L 187.137 468.041937 
L 195.228 468.014023 
L 203.319 467.903935 
L 211.41 467.967618 
L 219.501 468.001315 
L 227.592 467.993191 
L 235.683 467.948596 
L 243.774 467.997582 
L 251.865 468.033646 
L 259.956 468.03299 
L 268.047 468.05765 
L 276.138 468.062798 
L 284.229 468.079874 
L 292.32 468.051288 
L 300.411 468.076269 
L 308.502 468.053295 
L 316.593 468.067465 
L 324.684 468.075749 
L 332.775 468.090521 
L 340.866 468.089287 
L 348.957 468.10152 
L 357.048 468.066545 
L 365.139 468.068168 
L 373.23 468.095468 
L 381.321 468.086371 
L 389.412 468.1198 
L 397.503 468.148831 
L 405.594 468.17862 
L 413.685 468.145229 
L 421.776 468.109047 
L 429.867 468.134619 
L 437.958 468.106215 
L 446.049 468.122796 
L 454.14 468.059688 
L 462.231 468.031362 
L 470.322 468.042435 
L 478.413 468.032156 
L 486.504 467.991268 
L 494.595 467.964897 
L 502.686 468.012243 
L 510.777 468.009656 
L 518.868 468.042536 
L 526.959 468.028028 
L 535.05 468.038662 
L 543.141 468.01695 
L 551.232 468.011909 
L 559.323 468.049431 
L 567.414 468.055669 
L 575.505 468.056438 
L 583.596 468.082267 
L 591.687 468.088014 
L 599.778 468.125147 
L 607.869 468.124251 
L 615.96 468.160445 
L 624.051 468.15263 
L 632.142 468.157003 
L 640.233 468.181141 
L 648.324 468.172069 
L 656.415 468.1671 
L 664.506 468.189059 
L 672.597 468.216072 
L 680.688 468.225869 
L 688.779 468.216205 
L 696.87 468.225056 
L 704.961 468.218802 
L 713.052 468.211809 
L 721.143 468.209993 
L 729.234 468.169725 
L 737.325 468.182971 
L 745.416 468.186625 
L 753.507 468.15381 
L 761.598 468.181431 
L 769.689 468.123855 
L 777.78 468.102757 
L 785.871 468.171858 
L 793.962 468.172852 
L 802.053 468.174146 
L 810.144 468.108406 
L 818.235 468.116106 
L 826.326 468.156602 
L 834.417 468.165742 
L 842.508 468.186854 
L 850.599 468.169034 
L 858.69 468.161168 
L 866.781 468.144223 
L 874.872 468.120502 
L 882.963 468.128527 
L 891.054 468.147901 
L 899.145 468.186665 
L 907.236 468.231155 
L 915.327 468.211722 
L 923.418 468.145662 
L 931.509 468.127111 
" style="fill:none;stroke:#e24d3f;stroke-linecap:square;stroke-width:2;"/>
   </g>
   <g id="line2d_15">
    <path clip-path="url(#p826d1e565e)" d="M 130.5 468.22294 
L 138.591 468.225538 
L 146.682 468.262035 
L 154.773 468.243731 
L 162.864 468.248708 
L 170.955 468.248276 
L 179.046 468.265803 
L 187.137 468.268294 
L 195.228 468.251751 
L 203.319 468.268231 
L 211.41 468.28787 
L 219.501 468.287994 
L 227.592 468.287215 
L 235.683 468.278771 
L 243.774 468.283425 
L 251.865 468.287891 
L 259.956 468.287988 
L 268.047 468.28796 
L 276.138 468.285342 
L 284.229 468.286359 
L 292.32 468.285607 
L 300.411 468.282037 
L 308.502 468.286318 
L 316.593 468.279685 
L 324.684 468.271617 
L 332.775 468.269532 
L 340.866 468.271623 
L 348.957 468.279094 
L 357.048 468.282337 
L 365.139 468.282546 
L 373.23 468.283296 
L 381.321 468.268872 
L 389.412 468.273004 
L 397.503 468.269771 
L 405.594 468.267778 
L 413.685 468.27102 
L 421.776 468.286721 
L 429.867 468.280196 
L 437.958 468.284437 
L 446.049 468.285532 
L 454.14 468.285644 
L 462.231 468.283397 
L 470.322 468.281309 
L 478.413 468.277801 
L 486.504 468.281884 
L 494.595 468.283051 
L 502.686 468.277432 
L 510.777 468.27929 
L 518.868 468.27492 
L 526.959 468.272753 
L 535.05 468.272625 
L 543.141 468.26948 
L 551.232 468.278582 
L 559.323 468.277382 
L 567.414 468.275331 
L 575.505 468.276916 
L 583.596 468.277088 
L 591.687 468.268189 
L 599.778 468.271109 
L 607.869 468.259073 
L 615.96 468.254554 
L 624.051 468.250747 
L 632.142 468.246233 
L 640.233 468.237431 
L 648.324 468.263256 
L 656.415 468.26078 
L 664.506 468.24893 
L 672.597 468.265258 
L 680.688 468.231606 
L 688.779 468.217756 
L 696.87 468.235459 
L 704.961 468.236544 
L 713.052 468.232212 
L 721.143 468.230071 
L 729.234 468.23898 
L 737.325 468.24858 
L 745.416 468.236278 
L 753.507 468.226911 
L 761.598 468.225146 
L 769.689 468.276926 
L 777.78 468.283507 
L 785.871 468.287953 
L 793.962 468.287509 
L 802.053 468.284334 
L 810.144 468.275403 
L 818.235 468.273489 
L 826.326 468.277001 
L 834.417 468.282951 
L 842.508 468.280297 
L 850.599 468.272058 
L 858.69 468.26134 
L 866.781 468.265311 
L 874.872 468.268287 
L 882.963 468.231533 
L 891.054 468.115357 
L 899.145 468.144804 
L 907.236 468.073334 
L 915.327 468.063422 
L 923.418 468.018296 
L 931.509 468.021225 
" style="fill:none;stroke:#cf233e;stroke-linecap:square;stroke-width:2;"/>
   </g>
   <g id="line2d_16">
    <path clip-path="url(#p826d1e565e)" d="M 130.5 467.781965 
L 138.591 467.772078 
L 146.682 467.843806 
L 154.773 467.811086 
L 162.864 468.011692 
L 170.955 467.976357 
L 179.046 467.974028 
L 187.137 468.040366 
L 195.228 468.112483 
L 203.319 468.12674 
L 211.41 468.101887 
L 219.501 468.173439 
L 227.592 468.178273 
L 235.683 468.064574 
L 243.774 468.10369 
L 251.865 468.077659 
L 259.956 468.092428 
L 268.047 468.082455 
L 276.138 468.123176 
L 284.229 468.093145 
L 292.32 468.101119 
L 300.411 468.157099 
L 308.502 468.167603 
L 316.593 468.119331 
L 324.684 468.062233 
L 332.775 468.081391 
L 340.866 468.088463 
L 348.957 468.122471 
L 357.048 468.109115 
L 365.139 468.113382 
L 373.23 468.122712 
L 381.321 468.124317 
L 389.412 468.112378 
L 397.503 468.103296 
L 405.594 468.089302 
L 413.685 468.06903 
L 421.776 468.087358 
L 429.867 468.087554 
L 437.958 468.102309 
L 446.049 468.076485 
L 454.14 468.109421 
L 462.231 468.092568 
L 470.322 468.095198 
L 478.413 468.087217 
L 486.504 468.10032 
L 494.595 468.108574 
L 502.686 468.108564 
L 510.777 468.154164 
L 518.868 468.156189 
L 526.959 468.154799 
L 535.05 468.157612 
L 543.141 468.152843 
L 551.232 468.195484 
L 559.323 468.202158 
L 567.414 468.199848 
L 575.505 468.200142 
L 583.596 468.196386 
L 591.687 468.180621 
L 599.778 468.169962 
L 607.869 468.156727 
L 615.96 468.188504 
L 624.051 468.192504 
L 632.142 468.175072 
L 640.233 468.138399 
L 648.324 468.10895 
L 656.415 468.129853 
L 664.506 468.147766 
L 672.597 468.163446 
L 680.688 468.203034 
L 688.779 468.196837 
L 696.87 468.192163 
L 704.961 468.186557 
L 713.052 468.188858 
L 721.143 468.185929 
L 729.234 468.15878 
L 737.325 468.119056 
L 745.416 468.050644 
L 753.507 468.054334 
L 761.598 468.046174 
L 769.689 468.097355 
L 777.78 468.04089 
L 785.871 467.972791 
L 793.962 468.001377 
L 802.053 468.034059 
L 810.144 468.027835 
L 818.235 468.032549 
L 826.326 468.002084 
L 834.417 467.93456 
L 842.508 467.922329 
L 850.599 467.918635 
L 858.69 467.939039 
L 866.781 467.977836 
L 874.872 468.016509 
L 882.963 468.025371 
L 891.054 468.064618 
L 899.145 468.080617 
L 907.236 468.12125 
L 915.327 468.129125 
L 923.418 468.171183 
L 931.509 468.215025 
" style="fill:none;stroke:#681e33;stroke-linecap:square;stroke-width:2;"/>
   </g>
   <g id="line2d_17">
    <path clip-path="url(#p826d1e565e)" d="M 130.5 468.030883 
L 138.591 468.064307 
L 146.682 468.202976 
L 154.773 468.217026 
L 162.864 468.225969 
L 170.955 468.225924 
L 179.046 468.161978 
L 187.137 468.18682 
L 195.228 468.177236 
L 203.319 468.173087 
L 211.41 468.210357 
L 219.501 468.194055 
L 227.592 468.135368 
L 235.683 468.187179 
L 243.774 468.223317 
L 251.865 468.225204 
L 259.956 468.230983 
L 268.047 468.224851 
L 276.138 468.183637 
L 284.229 468.188923 
L 292.32 468.183298 
L 300.411 468.189577 
L 308.502 468.184678 
L 316.593 468.20658 
L 324.684 468.211022 
L 332.775 468.187412 
L 340.866 468.183119 
L 348.957 468.127691 
L 357.048 468.130762 
L 365.139 468.125749 
L 373.23 468.116643 
L 381.321 468.108004 
L 389.412 468.129477 
L 397.503 468.131368 
L 405.594 468.140171 
L 413.685 468.156199 
L 421.776 468.16239 
L 429.867 468.142949 
L 437.958 468.139126 
L 446.049 468.142749 
L 454.14 468.16489 
L 462.231 468.186471 
L 470.322 468.17988 
L 478.413 468.193944 
L 486.504 468.191122 
L 494.595 468.223637 
L 502.686 468.216758 
L 510.777 468.210798 
L 518.868 468.190858 
L 526.959 468.20455 
L 535.05 468.204714 
L 543.141 468.219026 
L 551.232 468.197209 
L 559.323 468.195398 
L 567.414 468.184584 
L 575.505 468.185326 
L 583.596 468.203371 
L 591.687 468.209593 
L 599.778 468.217705 
L 607.869 468.230282 
L 615.96 468.239475 
L 624.051 468.245746 
L 632.142 468.249468 
L 640.233 468.191139 
L 648.324 468.219057 
L 656.415 468.221364 
L 664.506 468.203009 
L 672.597 468.212142 
L 680.688 468.192793 
L 688.779 468.205479 
L 696.87 468.190463 
L 704.961 468.212638 
L 713.052 468.220332 
L 721.143 468.218331 
L 729.234 468.20766 
L 737.325 468.205384 
L 745.416 468.194827 
L 753.507 468.206885 
L 761.598 468.203764 
L 769.689 468.248689 
L 777.78 468.254005 
L 785.871 468.249745 
L 793.962 468.255889 
L 802.053 468.248809 
L 810.144 468.264698 
L 818.235 468.253722 
L 826.326 468.265765 
L 834.417 468.257865 
L 842.508 468.272575 
L 850.599 468.269578 
L 858.69 468.261194 
L 866.781 468.253602 
L 874.872 468.247965 
L 882.963 468.259688 
L 891.054 468.205344 
L 899.145 468.170465 
L 907.236 468.229106 
L 915.327 468.218557 
L 923.418 468.258122 
L 931.509 468.244884 
" style="fill:none;stroke:#676572;stroke-linecap:square;stroke-width:2;"/>
   </g>
   <g id="line2d_18">
    <path clip-path="url(#p826d1e565e)" d="M 130.5 468.20633 
L 138.591 468.197757 
L 146.682 468.287496 
L 154.773 468.286989 
L 162.864 468.266951 
L 170.955 468.263888 
L 179.046 468.246048 
L 187.137 468.249296 
L 195.228 468.271558 
L 203.319 468.236138 
L 211.41 468.178982 
L 219.501 468.203396 
L 227.592 468.170263 
L 235.683 468.023524 
L 243.774 468.028085 
L 251.865 467.963196 
L 259.956 467.951405 
L 268.047 467.950639 
L 276.138 467.910785 
L 284.229 467.87898 
L 292.32 467.901196 
L 300.411 467.866618 
L 308.502 467.883029 
L 316.593 467.939315 
L 324.684 468.030728 
L 332.775 468.033827 
L 340.866 468.048315 
L 348.957 468.058889 
L 357.048 468.080986 
L 365.139 468.083256 
L 373.23 468.074796 
L 381.321 468.079682 
L 389.412 468.107149 
L 397.503 468.108807 
L 405.594 468.082204 
L 413.685 468.074813 
L 421.776 468.041576 
L 429.867 467.930301 
L 437.958 467.950823 
L 446.049 467.961922 
L 454.14 467.897669 
L 462.231 467.829967 
L 470.322 467.825118 
L 478.413 467.863747 
L 486.504 467.872153 
L 494.595 467.892752 
L 502.686 467.890468 
L 510.777 467.843383 
L 518.868 467.80998 
L 526.959 467.809572 
L 535.05 467.818928 
L 543.141 467.816396 
L 551.232 467.770371 
L 559.323 467.722864 
L 567.414 467.723591 
L 575.505 467.762247 
L 583.596 467.704909 
L 591.687 467.692784 
L 599.778 467.652424 
L 607.869 467.678808 
L 615.96 467.71995 
L 624.051 467.753508 
L 632.142 467.817137 
L 640.233 467.703371 
L 648.324 467.802156 
L 656.415 467.78332 
L 664.506 467.834997 
L 672.597 467.778593 
L 680.688 467.716211 
L 688.779 467.677833 
L 696.87 467.715289 
L 704.961 467.735811 
L 713.052 467.715404 
L 721.143 467.706333 
L 729.234 467.677898 
L 737.325 467.640797 
L 745.416 467.598239 
L 753.507 467.583869 
L 761.598 467.614303 
L 769.689 467.612228 
L 777.78 467.495826 
L 785.871 467.389787 
L 793.962 467.422513 
L 802.053 467.303714 
L 810.144 467.297825 
L 818.235 467.230913 
L 826.326 467.186255 
L 834.417 467.171473 
L 842.508 467.193203 
L 850.599 467.242622 
L 858.69 467.309227 
L 866.781 467.27786 
L 874.872 467.398478 
L 882.963 467.199961 
L 891.054 467.064693 
L 899.145 467.086173 
L 907.236 467.147361 
L 915.327 467.217801 
L 923.418 467.323514 
L 931.509 467.415955 
" style="fill:none;stroke:#f3be22;stroke-linecap:square;stroke-width:2;"/>
   </g>
   <g id="line2d_19">
    <path clip-path="url(#p826d1e565e)" d="M 130.5 467.866397 
L 138.591 467.872836 
L 146.682 467.136815 
L 154.773 467.051538 
L 162.864 466.87638 
L 170.955 466.901391 
L 179.046 466.900096 
L 187.137 466.932168 
L 195.228 466.895998 
L 203.319 466.799949 
L 211.41 467.050248 
L 219.501 466.978778 
L 227.592 466.807945 
L 235.683 467.085598 
L 243.774 467.167176 
L 251.865 467.268151 
L 259.956 467.310517 
L 268.047 467.377207 
L 276.138 467.319894 
L 284.229 467.34306 
L 292.32 467.386693 
L 300.411 467.52871 
L 308.502 467.527857 
L 316.593 467.631661 
L 324.684 467.63821 
L 332.775 467.641508 
L 340.866 467.576701 
L 348.957 467.755451 
L 357.048 467.776386 
L 365.139 467.773312 
L 373.23 467.758125 
L 381.321 467.707034 
L 389.412 467.702769 
L 397.503 467.697164 
L 405.594 467.669418 
L 413.685 467.742746 
L 421.776 467.718041 
L 429.867 467.647485 
L 437.958 467.654637 
L 446.049 467.594599 
L 454.14 467.659341 
L 462.231 467.682204 
L 470.322 467.688901 
L 478.413 467.684342 
L 486.504 467.616862 
L 494.595 467.627695 
L 502.686 467.551127 
L 510.777 467.57271 
L 518.868 467.569999 
L 526.959 467.480446 
L 535.05 467.475801 
L 543.141 467.502795 
L 551.232 467.499369 
L 559.323 467.546904 
L 567.414 467.528618 
L 575.505 467.514141 
L 583.596 467.465949 
L 591.687 467.461363 
L 599.778 467.585068 
L 607.869 467.629664 
L 615.96 467.587253 
L 624.051 467.596139 
L 632.142 467.694332 
L 640.233 467.755375 
L 648.324 467.764744 
L 656.415 467.710995 
L 664.506 467.714681 
L 672.597 467.654997 
L 680.688 467.67725 
L 688.779 467.719861 
L 696.87 467.669512 
L 704.961 467.574031 
L 713.052 467.568546 
L 721.143 467.558721 
L 729.234 467.534854 
L 737.325 467.5515 
L 745.416 467.55152 
L 753.507 467.522429 
L 761.598 467.532468 
L 769.689 467.732111 
L 777.78 467.738374 
L 785.871 467.756831 
L 793.962 467.681019 
L 802.053 467.569284 
L 810.144 467.514817 
L 818.235 467.539052 
L 826.326 467.528675 
L 834.417 467.528041 
L 842.508 467.514253 
L 850.599 467.529411 
L 858.69 467.552605 
L 866.781 467.470623 
L 874.872 467.411941 
L 882.963 467.300572 
L 891.054 467.469943 
L 899.145 467.342663 
L 907.236 467.67361 
L 915.327 467.826622 
L 923.418 467.903907 
L 931.509 467.938476 
" style="fill:none;stroke:#59deba;stroke-linecap:square;stroke-width:2;"/>
   </g>
   <g id="line2d_20">
    <path clip-path="url(#p826d1e565e)" d="M 130.5 455.262952 
L 138.591 454.703134 
L 146.682 439.153135 
L 154.773 438.613562 
L 162.864 435.39121 
L 170.955 434.961405 
L 179.046 434.227823 
L 187.137 431.919308 
L 195.228 431.005783 
L 203.319 429.352869 
L 211.41 426.98726 
L 219.501 425.590531 
L 227.592 422.411961 
L 235.683 420.766867 
L 243.774 420.426639 
L 251.865 419.449091 
L 259.956 418.907089 
L 268.047 418.474783 
L 276.138 417.509391 
L 284.229 416.821165 
L 292.32 416.549655 
L 300.411 415.358856 
L 308.502 414.825649 
L 316.593 413.717917 
L 324.684 412.77708 
L 332.775 412.149509 
L 340.866 411.385723 
L 348.957 409.387342 
L 357.048 408.829828 
L 365.139 408.85707 
L 373.23 408.627934 
L 381.321 408.803613 
L 389.412 408.34679 
L 397.503 407.918789 
L 405.594 407.02964 
L 413.685 405.951978 
L 421.776 406.124268 
L 429.867 405.626749 
L 437.958 405.353936 
L 446.049 404.18516 
L 454.14 403.870224 
L 462.231 403.836156 
L 470.322 404.040806 
L 478.413 403.275345 
L 486.504 402.274759 
L 494.595 402.270153 
L 502.686 402.232731 
L 510.777 401.728218 
L 518.868 401.577229 
L 526.959 401.727569 
L 535.05 401.465135 
L 543.141 401.358434 
L 551.232 400.506364 
L 559.323 399.005296 
L 567.414 399.058823 
L 575.505 398.716709 
L 583.596 398.932651 
L 591.687 398.257778 
L 599.778 397.637127 
L 607.869 397.237085 
L 615.96 396.881065 
L 624.051 397.023328 
L 632.142 397.462481 
L 640.233 395.967094 
L 648.324 394.195627 
L 656.415 393.878515 
L 664.506 392.602301 
L 672.597 391.939721 
L 680.688 390.484557 
L 688.779 389.539649 
L 696.87 389.371901 
L 704.961 389.155279 
L 713.052 389.036689 
L 721.143 389.066294 
L 729.234 387.028569 
L 737.325 386.115745 
L 745.416 384.565404 
L 753.507 385.431921 
L 761.598 384.264828 
L 769.689 382.100522 
L 777.78 382.770063 
L 785.871 381.279021 
L 793.962 381.542926 
L 802.053 380.9653 
L 810.144 379.632044 
L 818.235 379.933184 
L 826.326 379.946736 
L 834.417 379.24946 
L 842.508 379.905444 
L 850.599 378.62491 
L 858.69 377.628567 
L 866.781 377.131952 
L 874.872 377.255968 
L 882.963 371.124469 
L 891.054 368.636855 
L 899.145 367.684497 
L 907.236 365.253753 
L 915.327 365.253788 
L 923.418 365.883808 
L 931.509 366.250454 
" style="fill:none;stroke:#14015c;stroke-linecap:square;stroke-width:2;"/>
   </g>
   <g id="line2d_21">
    <path clip-path="url(#p826d1e565e)" d="M 130.5 468.191087 
L 138.591 468.137958 
L 146.682 468.08566 
L 154.773 468.07976 
L 162.864 467.88926 
L 170.955 467.866106 
L 179.046 467.872199 
L 187.137 467.910588 
L 195.228 467.971185 
L 203.319 468.051414 
L 211.41 468.051198 
L 219.501 468.006666 
L 227.592 467.856554 
L 235.683 467.791534 
L 243.774 467.764347 
L 251.865 467.677792 
L 259.956 467.660534 
L 268.047 467.630787 
L 276.138 467.577362 
L 284.229 467.425755 
L 292.32 467.373026 
L 300.411 467.399909 
L 308.502 467.443642 
L 316.593 467.351388 
L 324.684 467.334253 
L 332.775 467.383777 
L 340.866 467.360317 
L 348.957 467.47878 
L 357.048 467.547864 
L 365.139 467.551351 
L 373.23 467.601662 
L 381.321 467.618928 
L 389.412 467.649442 
L 397.503 467.630783 
L 405.594 467.555319 
L 413.685 467.613347 
L 421.776 467.542727 
L 429.867 467.549054 
L 437.958 467.572555 
L 446.049 467.616295 
L 454.14 467.571384 
L 462.231 467.610971 
L 470.322 467.617635 
L 478.413 467.589464 
L 486.504 467.592962 
L 494.595 467.578799 
L 502.686 467.660951 
L 510.777 467.662017 
L 518.868 467.686972 
L 526.959 467.677705 
L 535.05 467.689574 
L 543.141 467.656688 
L 551.232 467.770935 
L 559.323 467.838023 
L 567.414 467.84845 
L 575.505 467.876902 
L 583.596 467.823041 
L 591.687 467.817926 
L 599.778 467.817044 
L 607.869 467.821376 
L 615.96 467.793809 
L 624.051 467.789704 
L 632.142 467.794445 
L 640.233 467.701095 
L 648.324 467.77776 
L 656.415 467.814891 
L 664.506 467.800928 
L 672.597 467.781081 
L 680.688 467.814182 
L 688.779 467.78228 
L 696.87 467.781151 
L 704.961 467.720263 
L 713.052 467.732931 
L 721.143 467.738875 
L 729.234 467.925399 
L 737.325 467.922618 
L 745.416 467.948365 
L 753.507 467.97904 
L 761.598 467.984967 
L 769.689 468.15333 
L 777.78 468.168385 
L 785.871 468.193239 
L 793.962 468.206229 
L 802.053 468.208405 
L 810.144 468.257838 
L 818.235 468.262447 
L 826.326 468.276567 
L 834.417 468.277452 
L 842.508 468.281585 
L 850.599 468.287999 
L 858.69 468.282544 
L 866.781 468.270731 
L 874.872 468.230978 
L 882.963 467.743844 
L 891.054 467.255111 
L 899.145 467.185314 
L 907.236 466.171916 
L 915.327 465.880307 
L 923.418 464.44782 
L 931.509 464.182327 
" style="fill:none;stroke:#daf8a3;stroke-linecap:square;stroke-width:2;"/>
   </g>
   <g id="line2d_22">
    <path clip-path="url(#p826d1e565e)" d="M 130.5 414.617626 
L 138.591 411.917379 
L 146.682 417.53975 
L 154.773 417.753251 
L 162.864 418.10199 
L 170.955 417.970488 
L 179.046 417.904913 
L 187.137 417.239242 
L 195.228 417.421326 
L 203.319 418.428563 
L 211.41 419.824608 
L 219.501 421.785838 
L 227.592 423.584172 
L 235.683 425.671272 
L 243.774 426.575826 
L 251.865 427.438952 
L 259.956 428.16676 
L 268.047 427.855355 
L 276.138 429.325801 
L 284.229 429.94556 
L 292.32 430.142975 
L 300.411 430.617745 
L 308.502 431.064661 
L 316.593 431.549082 
L 324.684 432.623676 
L 332.775 433.165374 
L 340.866 433.156413 
L 348.957 434.896116 
L 357.048 435.674701 
L 365.139 435.712363 
L 373.23 435.625862 
L 381.321 436.398675 
L 389.412 436.814353 
L 397.503 437.411579 
L 405.594 437.739676 
L 413.685 438.537416 
L 421.776 439.66716 
L 429.867 440.508595 
L 437.958 440.43215 
L 446.049 441.28846 
L 454.14 442.216608 
L 462.231 442.958536 
L 470.322 443.094219 
L 478.413 443.497866 
L 486.504 443.24231 
L 494.595 442.870417 
L 502.686 443.315177 
L 510.777 443.638083 
L 518.868 444.100708 
L 526.959 444.474323 
L 535.05 444.53118 
L 543.141 445.008359 
L 551.232 445.359254 
L 559.323 445.922813 
L 567.414 445.993792 
L 575.505 446.242786 
L 583.596 446.491789 
L 591.687 446.633902 
L 599.778 446.925412 
L 607.869 447.109172 
L 615.96 447.020904 
L 624.051 447.234928 
L 632.142 448.249469 
L 640.233 449.769544 
L 648.324 450.688859 
L 656.415 451.135311 
L 664.506 451.862173 
L 672.597 452.139467 
L 680.688 453.319373 
L 688.779 453.878495 
L 696.87 454.282493 
L 704.961 454.740646 
L 713.052 454.804946 
L 721.143 454.821587 
L 729.234 456.129623 
L 737.325 456.679377 
L 745.416 456.6869 
L 753.507 456.96503 
L 761.598 457.416655 
L 769.689 459.256879 
L 777.78 459.769203 
L 785.871 460.765005 
L 793.962 461.122191 
L 802.053 461.741186 
L 810.144 462.479192 
L 818.235 462.561768 
L 826.326 462.786482 
L 834.417 462.62141 
L 842.508 462.89757 
L 850.599 463.295822 
L 858.69 463.551361 
L 866.781 463.475368 
L 874.872 463.888504 
L 882.963 465.501087 
L 891.054 466.085014 
L 899.145 466.361898 
L 907.236 466.964516 
L 915.327 467.053432 
L 923.418 467.210051 
L 931.509 467.20427 
" style="fill:none;stroke:#0b7a0a;stroke-linecap:square;stroke-width:2;"/>
   </g>
   <g id="line2d_23">
    <path clip-path="url(#p826d1e565e)" d="M 130.5 464.322557 
L 138.591 464.143606 
L 146.682 467.870142 
L 154.773 467.970255 
L 162.864 468.10507 
L 170.955 468.150912 
L 179.046 468.169669 
L 187.137 468.210584 
L 195.228 468.253783 
L 203.319 468.275074 
L 211.41 468.287791 
L 219.501 468.273493 
L 227.592 468.21438 
L 235.683 468.186871 
L 243.774 468.185891 
L 251.865 468.175435 
L 259.956 468.176307 
L 268.047 468.187454 
L 276.138 468.181605 
L 284.229 468.187976 
L 292.32 468.181619 
L 300.411 468.106388 
L 308.502 468.098664 
L 316.593 468.12509 
L 324.684 468.106506 
L 332.775 468.101234 
L 340.866 468.083498 
L 348.957 468.142525 
L 357.048 468.112394 
L 365.139 468.113574 
L 373.23 468.107924 
L 381.321 468.118232 
L 389.412 468.131551 
L 397.503 468.157826 
L 405.594 468.16415 
L 413.685 468.19581 
L 421.776 468.197865 
L 429.867 468.217238 
L 437.958 468.200735 
L 446.049 468.143642 
L 454.14 468.121427 
L 462.231 468.080712 
L 470.322 468.080239 
L 478.413 468.088298 
L 486.504 468.124931 
L 494.595 468.104798 
L 502.686 468.072572 
L 510.777 468.058537 
L 518.868 468.114184 
L 526.959 468.109768 
L 535.05 468.117597 
L 543.141 468.092435 
L 551.232 468.063816 
L 559.323 468.06412 
L 567.414 468.066732 
L 575.505 468.046256 
L 583.596 468.046053 
L 591.687 468.004638 
L 599.778 468.007061 
L 607.869 468.01282 
L 615.96 468.028127 
L 624.051 468.046266 
L 632.142 468.037678 
L 640.233 468.018741 
L 648.324 467.970959 
L 656.415 467.957564 
L 664.506 467.945785 
L 672.597 467.921531 
L 680.688 467.87003 
L 688.779 467.875513 
L 696.87 467.926843 
L 704.961 467.926899 
L 713.052 467.912414 
L 721.143 467.912643 
L 729.234 467.798843 
L 737.325 467.798938 
L 745.416 467.839302 
L 753.507 467.816736 
L 761.598 467.891599 
L 769.689 467.875525 
L 777.78 467.81957 
L 785.871 467.749045 
L 793.962 467.714144 
L 802.053 467.632126 
L 810.144 467.583871 
L 818.235 467.6643 
L 826.326 467.665256 
L 834.417 467.692183 
L 842.508 467.725273 
L 850.599 467.655877 
L 858.69 467.573148 
L 866.781 467.528607 
L 874.872 467.501082 
L 882.963 467.492391 
L 891.054 467.379087 
L 899.145 467.37339 
L 907.236 467.476086 
L 915.327 467.511607 
L 923.418 467.490134 
L 931.509 467.493814 
" style="fill:none;stroke:#f8ffa2;stroke-linecap:square;stroke-width:2;"/>
   </g>
   <g id="line2d_24">
    <path clip-path="url(#p826d1e565e)" d="M 130.5 460.763883 
L 138.591 460.513006 
L 146.682 453.276426 
L 154.773 452.914684 
L 162.864 450.528898 
L 170.955 449.96927 
L 179.046 448.500619 
L 187.137 447.688049 
L 195.228 447.42442 
L 203.319 445.695545 
L 211.41 444.612278 
L 219.501 442.286577 
L 227.592 439.980283 
L 235.683 438.504628 
L 243.774 436.82825 
L 251.865 436.348961 
L 259.956 435.99432 
L 268.047 436.102186 
L 276.138 435.129523 
L 284.229 434.887735 
L 292.32 435.117407 
L 300.411 434.719141 
L 308.502 434.348092 
L 316.593 434.174345 
L 324.684 432.922429 
L 332.775 432.808265 
L 340.866 432.966772 
L 348.957 432.816256 
L 357.048 433.054047 
L 365.139 433.04137 
L 373.23 432.927174 
L 381.321 432.588718 
L 389.412 432.633561 
L 397.503 432.392825 
L 405.594 432.404662 
L 413.685 431.791364 
L 421.776 431.683579 
L 429.867 431.69063 
L 437.958 431.201257 
L 446.049 431.042513 
L 454.14 430.853138 
L 462.231 430.381541 
L 470.322 430.319323 
L 478.413 430.37767 
L 486.504 430.246944 
L 494.595 430.357935 
L 502.686 430.408989 
L 510.777 430.247226 
L 518.868 430.264911 
L 526.959 430.078751 
L 535.05 430.205889 
L 543.141 430.238214 
L 551.232 430.545901 
L 559.323 430.679892 
L 567.414 430.533191 
L 575.505 430.784665 
L 583.596 430.814168 
L 591.687 430.670386 
L 599.778 430.548144 
L 607.869 430.424885 
L 615.96 430.526336 
L 624.051 430.320756 
L 632.142 429.766139 
L 640.233 429.626769 
L 648.324 430.170215 
L 656.415 430.135505 
L 664.506 430.211429 
L 672.597 430.964415 
L 680.688 431.639208 
L 688.779 432.293935 
L 696.87 432.511042 
L 704.961 433.112782 
L 713.052 433.249292 
L 721.143 433.354455 
L 729.234 433.996419 
L 737.325 434.07184 
L 745.416 434.73965 
L 753.507 434.777636 
L 761.598 435.258424 
L 769.689 437.721783 
L 777.78 438.720902 
L 785.871 440.193625 
L 793.962 440.589106 
L 802.053 441.046397 
L 810.144 441.944704 
L 818.235 442.081291 
L 826.326 442.392448 
L 834.417 442.664094 
L 842.508 443.165467 
L 850.599 443.429938 
L 858.69 443.670439 
L 866.781 443.866872 
L 874.872 444.739146 
L 882.963 450.448225 
L 891.054 451.937339 
L 899.145 452.489794 
L 907.236 454.858144 
L 915.327 455.26256 
L 923.418 456.160745 
L 931.509 456.250588 
" style="fill:none;stroke:#578dc0;stroke-linecap:square;stroke-width:2;"/>
   </g>
   <g id="line2d_25">
    <path clip-path="url(#p826d1e565e)" d="M 130.5 465.118595 
L 138.591 465.066808 
L 146.682 462.399985 
L 154.773 462.360831 
L 162.864 462.1653 
L 170.955 462.882166 
L 179.046 463.130275 
L 187.137 463.125141 
L 195.228 463.155866 
L 203.319 462.819503 
L 211.41 462.652455 
L 219.501 462.280741 
L 227.592 462.425718 
L 235.683 462.961059 
L 243.774 463.035398 
L 251.865 463.507014 
L 259.956 463.388172 
L 268.047 463.478296 
L 276.138 463.464559 
L 284.229 463.59124 
L 292.32 463.750025 
L 300.411 464.101813 
L 308.502 464.192239 
L 316.593 464.216652 
L 324.684 464.158285 
L 332.775 464.223543 
L 340.866 464.253427 
L 348.957 464.439095 
L 357.048 464.443174 
L 365.139 464.448441 
L 373.23 464.494022 
L 381.321 464.585019 
L 389.412 464.586218 
L 397.503 464.491978 
L 405.594 464.578742 
L 413.685 464.805788 
L 421.776 464.863761 
L 429.867 464.86539 
L 437.958 464.903106 
L 446.049 464.930768 
L 454.14 464.931506 
L 462.231 465.009179 
L 470.322 465.126952 
L 478.413 465.116372 
L 486.504 464.934411 
L 494.595 464.939883 
L 502.686 465.071753 
L 510.777 465.163531 
L 518.868 465.255504 
L 526.959 465.403046 
L 535.05 465.360494 
L 543.141 465.415633 
L 551.232 465.297241 
L 559.323 465.263747 
L 567.414 465.27953 
L 575.505 465.280435 
L 583.596 465.405529 
L 591.687 465.450429 
L 599.778 465.498308 
L 607.869 465.398078 
L 615.96 465.36786 
L 624.051 465.265031 
L 632.142 465.316277 
L 640.233 465.326971 
L 648.324 465.268872 
L 656.415 465.347732 
L 664.506 465.337348 
L 672.597 465.308657 
L 680.688 465.513204 
L 688.779 465.783334 
L 696.87 465.838295 
L 704.961 465.715352 
L 713.052 465.733545 
L 721.143 465.713299 
L 729.234 465.964959 
L 737.325 465.893074 
L 745.416 465.953375 
L 753.507 465.97807 
L 761.598 465.98661 
L 769.689 466.474368 
L 777.78 466.439904 
L 785.871 466.38883 
L 793.962 466.385345 
L 802.053 466.561011 
L 810.144 466.508941 
L 818.235 466.364993 
L 826.326 466.342945 
L 834.417 466.385568 
L 842.508 466.427243 
L 850.599 466.519875 
L 858.69 466.644088 
L 866.781 466.68371 
L 874.872 466.596313 
L 882.963 466.715534 
L 891.054 466.705969 
L 899.145 466.676792 
L 907.236 466.237666 
L 915.327 466.231198 
L 923.418 465.907908 
L 931.509 465.974206 
" style="fill:none;stroke:#4e4ad8;stroke-linecap:square;stroke-width:2;"/>
   </g>
   <g id="line2d_26">
    <path clip-path="url(#p826d1e565e)" d="M 130.5 437.917752 
L 138.591 436.559438 
L 146.682 442.85962 
L 154.773 443.277598 
L 162.864 448.194357 
L 170.955 448.780368 
L 179.046 449.917424 
L 187.137 451.82719 
L 195.228 452.241462 
L 203.319 453.734102 
L 211.41 455.73807 
L 219.501 457.322696 
L 227.592 458.519444 
L 235.683 458.803097 
L 243.774 459.968497 
L 251.865 460.327795 
L 259.956 460.559069 
L 268.047 460.850083 
L 276.138 461.162943 
L 284.229 461.396802 
L 292.32 461.682208 
L 300.411 462.454491 
L 308.502 462.637596 
L 316.593 463.009456 
L 324.684 463.380038 
L 332.775 463.383869 
L 340.866 463.336362 
L 348.957 463.510525 
L 357.048 463.605985 
L 365.139 463.611314 
L 373.23 463.72542 
L 381.321 463.756917 
L 389.412 464.038798 
L 397.503 464.000611 
L 405.594 464.081752 
L 413.685 464.159306 
L 421.776 464.16044 
L 429.867 464.15057 
L 437.958 464.066671 
L 446.049 464.112854 
L 454.14 464.349307 
L 462.231 464.440683 
L 470.322 464.513221 
L 478.413 464.726412 
L 486.504 464.704391 
L 494.595 464.641318 
L 502.686 464.904905 
L 510.777 465.000321 
L 518.868 465.024935 
L 526.959 464.931452 
L 535.05 464.893004 
L 543.141 464.745033 
L 551.232 464.960734 
L 559.323 465.10447 
L 567.414 465.091705 
L 575.505 465.158409 
L 583.596 465.262669 
L 591.687 465.398772 
L 599.778 465.488256 
L 607.869 465.60951 
L 615.96 465.676886 
L 624.051 465.717514 
L 632.142 465.793044 
L 640.233 466.165171 
L 648.324 466.397703 
L 656.415 466.35388 
L 664.506 466.410433 
L 672.597 466.516819 
L 680.688 466.797595 
L 688.779 466.938309 
L 696.87 466.96318 
L 704.961 467.010667 
L 713.052 467.03095 
L 721.143 467.054817 
L 729.234 467.208641 
L 737.325 467.180138 
L 745.416 467.165143 
L 753.507 467.139783 
L 761.598 466.903408 
L 769.689 466.758459 
L 777.78 466.715624 
L 785.871 466.568208 
L 793.962 466.262381 
L 802.053 465.984756 
L 810.144 465.687888 
L 818.235 465.657812 
L 826.326 465.495289 
L 834.417 465.341736 
L 842.508 465.109762 
L 850.599 465.014404 
L 858.69 464.900842 
L 866.781 464.917266 
L 874.872 464.674191 
L 882.963 463.73975 
L 891.054 464.081717 
L 899.145 464.512485 
L 907.236 465.676791 
L 915.327 465.977015 
L 923.418 466.733453 
L 931.509 466.861522 
" style="fill:none;stroke:#32b3f7;stroke-linecap:square;stroke-width:2;"/>
   </g>
   <g id="patch_3">
    <path d="M 130.5 468.288 
L 130.5 113.472 
" style="fill:none;stroke:#000000;stroke-linecap:square;stroke-linejoin:miter;stroke-width:0.8;"/>
   </g>
   <g id="patch_4">
    <path d="M 939.6 468.288 
L 939.6 113.472 
" style="fill:none;stroke:#000000;stroke-linecap:square;stroke-linejoin:miter;stroke-width:0.8;"/>
   </g>
   <g id="patch_5">
    <path d="M 130.5 468.288 
L 939.6 468.288 
" style="fill:none;stroke:#000000;stroke-linecap:square;stroke-linejoin:miter;stroke-width:0.8;"/>
   </g>
   <g id="patch_6">
    <path d="M 130.5 113.472 
L 939.6 113.472 
" style="fill:none;stroke:#000000;stroke-linecap:square;stroke-linejoin:miter;stroke-width:0.8;"/>
   </g>
   <g id="text_15">
    <!-- R2 -->
    <defs>
     <path d="M 44.390625 34.1875 
Q 47.5625 33.109375 50.5625 29.59375 
Q 53.5625 26.078125 56.59375 19.921875 
L 66.609375 0 
L 56 0 
L 46.6875 18.703125 
Q 43.0625 26.03125 39.671875 28.421875 
Q 36.28125 30.8125 30.421875 30.8125 
L 19.671875 30.8125 
L 19.671875 0 
L 9.8125 0 
L 9.8125 72.90625 
L 32.078125 72.90625 
Q 44.578125 72.90625 50.734375 67.671875 
Q 56.890625 62.453125 56.890625 51.90625 
Q 56.890625 45.015625 53.6875 40.46875 
Q 50.484375 35.9375 44.390625 34.1875 
z
M 19.671875 64.796875 
L 19.671875 38.921875 
L 32.078125 38.921875 
Q 39.203125 38.921875 42.84375 42.21875 
Q 46.484375 45.515625 46.484375 51.90625 
Q 46.484375 58.296875 42.84375 61.546875 
Q 39.203125 64.796875 32.078125 64.796875 
z
" id="DejaVuSans-82"/>
    </defs>
    <g transform="translate(527.063437 107.472)scale(0.12 -0.12)">
     <use xlink:href="#DejaVuSans-82"/>
     <use x="69.482422" xlink:href="#DejaVuSans-50"/>
    </g>
   </g>
   <g id="legend_1">
    <g id="patch_7">
     <path d="M 152.324219 640.696 
L 917.775781 640.696 
Q 919.775781 640.696 919.775781 638.696 
L 919.775781 595.661625 
Q 919.775781 593.661625 917.775781 593.661625 
L 152.324219 593.661625 
Q 150.324219 593.661625 150.324219 595.661625 
L 150.324219 638.696 
Q 150.324219 640.696 152.324219 640.696 
z
" style="fill:#ffffff;opacity:0.8;stroke:#cccccc;stroke-linejoin:miter;"/>
    </g>
    <g id="line2d_27">
     <path style="fill:none;stroke:#f18670;stroke-linecap:square;stroke-width:2;"/>
    </g>
    <g id="line2d_28"/>
    <g id="text_16">
     <!-- IWR demand mutliplier -->
     <defs>
      <path d="M 9.8125 72.90625 
L 19.671875 72.90625 
L 19.671875 0 
L 9.8125 0 
z
" id="DejaVuSans-73"/>
      <path d="M 3.328125 72.90625 
L 13.28125 72.90625 
L 28.609375 11.28125 
L 43.890625 72.90625 
L 54.984375 72.90625 
L 70.3125 11.28125 
L 85.59375 72.90625 
L 95.609375 72.90625 
L 77.296875 0 
L 64.890625 0 
L 49.515625 63.28125 
L 33.984375 0 
L 21.578125 0 
z
" id="DejaVuSans-87"/>
     </defs>
     <g transform="translate(182.324219 605.260063)scale(0.1 -0.1)">
      <use xlink:href="#DejaVuSans-73"/>
      <use x="29.492188" xlink:href="#DejaVuSans-87"/>
      <use x="128.369141" xlink:href="#DejaVuSans-82"/>
      <use x="197.851562" xlink:href="#DejaVuSans-32"/>
      <use x="229.638672" xlink:href="#DejaVuSans-100"/>
      <use x="293.115234" xlink:href="#DejaVuSans-101"/>
      <use x="354.638672" xlink:href="#DejaVuSans-109"/>
      <use x="452.050781" xlink:href="#DejaVuSans-97"/>
      <use x="513.330078" xlink:href="#DejaVuSans-110"/>
      <use x="576.708984" xlink:href="#DejaVuSans-100"/>
      <use x="640.185547" xlink:href="#DejaVuSans-32"/>
      <use x="671.972656" xlink:href="#DejaVuSans-109"/>
      <use x="769.384766" xlink:href="#DejaVuSans-117"/>
      <use x="832.763672" xlink:href="#DejaVuSans-116"/>
      <use x="871.972656" xlink:href="#DejaVuSans-108"/>
      <use x="899.755859" xlink:href="#DejaVuSans-105"/>
      <use x="927.539062" xlink:href="#DejaVuSans-112"/>
      <use x="991.015625" xlink:href="#DejaVuSans-108"/>
      <use x="1018.798828" xlink:href="#DejaVuSans-105"/>
      <use x="1046.582031" xlink:href="#DejaVuSans-101"/>
      <use x="1108.105469" xlink:href="#DejaVuSans-114"/>
     </g>
    </g>
    <g id="line2d_29">
     <path style="fill:none;stroke:#e24d3f;stroke-linecap:square;stroke-width:2;"/>
    </g>
    <g id="line2d_30"/>
    <g id="text_17">
     <!-- Reservoir loss -->
     <defs>
      <path d="M 44.28125 53.078125 
L 44.28125 44.578125 
Q 40.484375 46.53125 36.375 47.5 
Q 32.28125 48.484375 27.875 48.484375 
Q 21.1875 48.484375 17.84375 46.4375 
Q 14.5 44.390625 14.5 40.28125 
Q 14.5 37.15625 16.890625 35.375 
Q 19.28125 33.59375 26.515625 31.984375 
L 29.59375 31.296875 
Q 39.15625 29.25 43.1875 25.515625 
Q 47.21875 21.78125 47.21875 15.09375 
Q 47.21875 7.46875 41.1875 3.015625 
Q 35.15625 -1.421875 24.609375 -1.421875 
Q 20.21875 -1.421875 15.453125 -0.5625 
Q 10.6875 0.296875 5.421875 2 
L 5.421875 11.28125 
Q 10.40625 8.6875 15.234375 7.390625 
Q 20.0625 6.109375 24.8125 6.109375 
Q 31.15625 6.109375 34.5625 8.28125 
Q 37.984375 10.453125 37.984375 14.40625 
Q 37.984375 18.0625 35.515625 20.015625 
Q 33.0625 21.96875 24.703125 23.78125 
L 21.578125 24.515625 
Q 13.234375 26.265625 9.515625 29.90625 
Q 5.8125 33.546875 5.8125 39.890625 
Q 5.8125 47.609375 11.28125 51.796875 
Q 16.75 56 26.8125 56 
Q 31.78125 56 36.171875 55.265625 
Q 40.578125 54.546875 44.28125 53.078125 
z
" id="DejaVuSans-115"/>
      <path d="M 2.984375 54.6875 
L 12.5 54.6875 
L 29.59375 8.796875 
L 46.6875 54.6875 
L 56.203125 54.6875 
L 35.6875 0 
L 23.484375 0 
z
" id="DejaVuSans-118"/>
     </defs>
     <g transform="translate(182.324219 619.938188)scale(0.1 -0.1)">
      <use xlink:href="#DejaVuSans-82"/>
      <use x="69.419922" xlink:href="#DejaVuSans-101"/>
      <use x="130.943359" xlink:href="#DejaVuSans-115"/>
      <use x="183.042969" xlink:href="#DejaVuSans-101"/>
      <use x="244.566406" xlink:href="#DejaVuSans-114"/>
      <use x="285.679688" xlink:href="#DejaVuSans-118"/>
      <use x="344.859375" xlink:href="#DejaVuSans-111"/>
      <use x="406.041016" xlink:href="#DejaVuSans-105"/>
      <use x="433.824219" xlink:href="#DejaVuSans-114"/>
      <use x="474.9375" xlink:href="#DejaVuSans-32"/>
      <use x="506.724609" xlink:href="#DejaVuSans-108"/>
      <use x="534.507812" xlink:href="#DejaVuSans-111"/>
      <use x="595.689453" xlink:href="#DejaVuSans-115"/>
      <use x="647.789062" xlink:href="#DejaVuSans-115"/>
     </g>
    </g>
    <g id="line2d_31">
     <path style="fill:none;stroke:#cf233e;stroke-linecap:square;stroke-width:2;"/>
    </g>
    <g id="line2d_32"/>
    <g id="text_18">
     <!-- TBD demand multiplier -->
     <defs>
      <path d="M -0.296875 72.90625 
L 61.375 72.90625 
L 61.375 64.59375 
L 35.5 64.59375 
L 35.5 0 
L 25.59375 0 
L 25.59375 64.59375 
L -0.296875 64.59375 
z
" id="DejaVuSans-84"/>
      <path d="M 19.671875 34.8125 
L 19.671875 8.109375 
L 35.5 8.109375 
Q 43.453125 8.109375 47.28125 11.40625 
Q 51.125 14.703125 51.125 21.484375 
Q 51.125 28.328125 47.28125 31.5625 
Q 43.453125 34.8125 35.5 34.8125 
z
M 19.671875 64.796875 
L 19.671875 42.828125 
L 34.28125 42.828125 
Q 41.5 42.828125 45.03125 45.53125 
Q 48.578125 48.25 48.578125 53.8125 
Q 48.578125 59.328125 45.03125 62.0625 
Q 41.5 64.796875 34.28125 64.796875 
z
M 9.8125 72.90625 
L 35.015625 72.90625 
Q 46.296875 72.90625 52.390625 68.21875 
Q 58.5 63.53125 58.5 54.890625 
Q 58.5 48.1875 55.375 44.234375 
Q 52.25 40.28125 46.1875 39.3125 
Q 53.46875 37.75 57.5 32.78125 
Q 61.53125 27.828125 61.53125 20.40625 
Q 61.53125 10.640625 54.890625 5.3125 
Q 48.25 0 35.984375 0 
L 9.8125 0 
z
" id="DejaVuSans-66"/>
      <path d="M 19.671875 64.796875 
L 19.671875 8.109375 
L 31.59375 8.109375 
Q 46.6875 8.109375 53.6875 14.9375 
Q 60.6875 21.78125 60.6875 36.53125 
Q 60.6875 51.171875 53.6875 57.984375 
Q 46.6875 64.796875 31.59375 64.796875 
z
M 9.8125 72.90625 
L 30.078125 72.90625 
Q 51.265625 72.90625 61.171875 64.09375 
Q 71.09375 55.28125 71.09375 36.53125 
Q 71.09375 17.671875 61.125 8.828125 
Q 51.171875 0 30.078125 0 
L 9.8125 0 
z
" id="DejaVuSans-68"/>
     </defs>
     <g transform="translate(182.324219 634.616313)scale(0.1 -0.1)">
      <use xlink:href="#DejaVuSans-84"/>
      <use x="61.083984" xlink:href="#DejaVuSans-66"/>
      <use x="129.6875" xlink:href="#DejaVuSans-68"/>
      <use x="206.689453" xlink:href="#DejaVuSans-32"/>
      <use x="238.476562" xlink:href="#DejaVuSans-100"/>
      <use x="301.953125" xlink:href="#DejaVuSans-101"/>
      <use x="363.476562" xlink:href="#DejaVuSans-109"/>
      <use x="460.888672" xlink:href="#DejaVuSans-97"/>
      <use x="522.167969" xlink:href="#DejaVuSans-110"/>
      <use x="585.546875" xlink:href="#DejaVuSans-100"/>
      <use x="649.023438" xlink:href="#DejaVuSans-32"/>
      <use x="680.810547" xlink:href="#DejaVuSans-109"/>
      <use x="778.222656" xlink:href="#DejaVuSans-117"/>
      <use x="841.601562" xlink:href="#DejaVuSans-108"/>
      <use x="869.384766" xlink:href="#DejaVuSans-116"/>
      <use x="908.59375" xlink:href="#DejaVuSans-105"/>
      <use x="936.376953" xlink:href="#DejaVuSans-112"/>
      <use x="999.853516" xlink:href="#DejaVuSans-108"/>
      <use x="1027.636719" xlink:href="#DejaVuSans-105"/>
      <use x="1055.419922" xlink:href="#DejaVuSans-101"/>
      <use x="1116.943359" xlink:href="#DejaVuSans-114"/>
     </g>
    </g>
    <g id="line2d_33">
     <path style="fill:none;stroke:#681e33;stroke-linecap:square;stroke-width:2;"/>
    </g>
    <g id="line2d_34"/>
    <g id="text_19">
     <!-- M&amp;I demand multiplier -->
     <defs>
      <path d="M 9.8125 72.90625 
L 24.515625 72.90625 
L 43.109375 23.296875 
L 61.8125 72.90625 
L 76.515625 72.90625 
L 76.515625 0 
L 66.890625 0 
L 66.890625 64.015625 
L 48.09375 14.015625 
L 38.1875 14.015625 
L 19.390625 64.015625 
L 19.390625 0 
L 9.8125 0 
z
" id="DejaVuSans-77"/>
      <path d="M 24.3125 39.203125 
Q 19.875 35.25 17.796875 31.3125 
Q 15.71875 27.390625 15.71875 23.09375 
Q 15.71875 15.96875 20.890625 11.234375 
Q 26.078125 6.5 33.890625 6.5 
Q 38.53125 6.5 42.578125 8.03125 
Q 46.625 9.578125 50.203125 12.703125 
z
M 31.203125 44.671875 
L 56 19.28125 
Q 58.890625 23.640625 60.5 28.59375 
Q 62.109375 33.546875 62.40625 39.109375 
L 71.484375 39.109375 
Q 70.90625 32.671875 68.359375 26.359375 
Q 65.828125 20.0625 61.28125 13.921875 
L 74.90625 0 
L 62.59375 0 
L 55.609375 7.171875 
Q 50.53125 2.828125 44.96875 0.703125 
Q 39.40625 -1.421875 33.015625 -1.421875 
Q 21.234375 -1.421875 13.765625 5.296875 
Q 6.296875 12.015625 6.296875 22.515625 
Q 6.296875 28.765625 9.5625 34.25 
Q 12.84375 39.75 19.390625 44.578125 
Q 17.046875 47.65625 15.8125 50.703125 
Q 14.59375 53.765625 14.59375 56.6875 
Q 14.59375 64.59375 20.015625 69.40625 
Q 25.4375 74.21875 34.421875 74.21875 
Q 38.484375 74.21875 42.5 73.34375 
Q 46.53125 72.46875 50.6875 70.703125 
L 50.6875 61.8125 
Q 46.4375 64.109375 42.578125 65.296875 
Q 38.71875 66.5 35.40625 66.5 
Q 30.28125 66.5 27.078125 63.78125 
Q 23.875 61.078125 23.875 56.78125 
Q 23.875 54.296875 25.3125 51.78125 
Q 26.765625 49.265625 31.203125 44.671875 
z
" id="DejaVuSans-38"/>
     </defs>
     <g transform="translate(346.128906 605.260063)scale(0.1 -0.1)">
      <use xlink:href="#DejaVuSans-77"/>
      <use x="86.279297" xlink:href="#DejaVuSans-38"/>
      <use x="164.257812" xlink:href="#DejaVuSans-73"/>
      <use x="193.75" xlink:href="#DejaVuSans-32"/>
      <use x="225.537109" xlink:href="#DejaVuSans-100"/>
      <use x="289.013672" xlink:href="#DejaVuSans-101"/>
      <use x="350.537109" xlink:href="#DejaVuSans-109"/>
      <use x="447.949219" xlink:href="#DejaVuSans-97"/>
      <use x="509.228516" xlink:href="#DejaVuSans-110"/>
      <use x="572.607422" xlink:href="#DejaVuSans-100"/>
      <use x="636.083984" xlink:href="#DejaVuSans-32"/>
      <use x="667.871094" xlink:href="#DejaVuSans-109"/>
      <use x="765.283203" xlink:href="#DejaVuSans-117"/>
      <use x="828.662109" xlink:href="#DejaVuSans-108"/>
      <use x="856.445312" xlink:href="#DejaVuSans-116"/>
      <use x="895.654297" xlink:href="#DejaVuSans-105"/>
      <use x="923.4375" xlink:href="#DejaVuSans-112"/>
      <use x="986.914062" xlink:href="#DejaVuSans-108"/>
      <use x="1014.697266" xlink:href="#DejaVuSans-105"/>
      <use x="1042.480469" xlink:href="#DejaVuSans-101"/>
      <use x="1104.003906" xlink:href="#DejaVuSans-114"/>
     </g>
    </g>
    <g id="line2d_35">
     <path style="fill:none;stroke:#676572;stroke-linecap:square;stroke-width:2;"/>
    </g>
    <g id="line2d_36"/>
    <g id="text_20">
     <!-- Shoshone active -->
     <g transform="translate(346.128906 619.938188)scale(0.1 -0.1)">
      <use xlink:href="#DejaVuSans-83"/>
      <use x="63.476562" xlink:href="#DejaVuSans-104"/>
      <use x="126.855469" xlink:href="#DejaVuSans-111"/>
      <use x="188.037109" xlink:href="#DejaVuSans-115"/>
      <use x="240.136719" xlink:href="#DejaVuSans-104"/>
      <use x="303.515625" xlink:href="#DejaVuSans-111"/>
      <use x="364.697266" xlink:href="#DejaVuSans-110"/>
      <use x="428.076172" xlink:href="#DejaVuSans-101"/>
      <use x="489.599609" xlink:href="#DejaVuSans-32"/>
      <use x="521.386719" xlink:href="#DejaVuSans-97"/>
      <use x="582.666016" xlink:href="#DejaVuSans-99"/>
      <use x="637.646484" xlink:href="#DejaVuSans-116"/>
      <use x="676.855469" xlink:href="#DejaVuSans-105"/>
      <use x="704.638672" xlink:href="#DejaVuSans-118"/>
      <use x="763.818359" xlink:href="#DejaVuSans-101"/>
     </g>
    </g>
    <g id="line2d_37">
     <path style="fill:none;stroke:#f3be22;stroke-linecap:square;stroke-width:2;"/>
    </g>
    <g id="line2d_38"/>
    <g id="text_21">
     <!-- Env. flow senior right -->
     <defs>
      <path d="M 9.8125 72.90625 
L 55.90625 72.90625 
L 55.90625 64.59375 
L 19.671875 64.59375 
L 19.671875 43.015625 
L 54.390625 43.015625 
L 54.390625 34.71875 
L 19.671875 34.71875 
L 19.671875 8.296875 
L 56.78125 8.296875 
L 56.78125 0 
L 9.8125 0 
z
" id="DejaVuSans-69"/>
      <path d="M 37.109375 75.984375 
L 37.109375 68.5 
L 28.515625 68.5 
Q 23.6875 68.5 21.796875 66.546875 
Q 19.921875 64.59375 19.921875 59.515625 
L 19.921875 54.6875 
L 34.71875 54.6875 
L 34.71875 47.703125 
L 19.921875 47.703125 
L 19.921875 0 
L 10.890625 0 
L 10.890625 47.703125 
L 2.296875 47.703125 
L 2.296875 54.6875 
L 10.890625 54.6875 
L 10.890625 58.5 
Q 10.890625 67.625 15.140625 71.796875 
Q 19.390625 75.984375 28.609375 75.984375 
z
" id="DejaVuSans-102"/>
      <path d="M 4.203125 54.6875 
L 13.1875 54.6875 
L 24.421875 12.015625 
L 35.59375 54.6875 
L 46.1875 54.6875 
L 57.421875 12.015625 
L 68.609375 54.6875 
L 77.59375 54.6875 
L 63.28125 0 
L 52.6875 0 
L 40.921875 44.828125 
L 29.109375 0 
L 18.5 0 
z
" id="DejaVuSans-119"/>
     </defs>
     <g transform="translate(346.128906 634.616313)scale(0.1 -0.1)">
      <use xlink:href="#DejaVuSans-69"/>
      <use x="63.183594" xlink:href="#DejaVuSans-110"/>
      <use x="126.5625" xlink:href="#DejaVuSans-118"/>
      <use x="185.632812" xlink:href="#DejaVuSans-46"/>
      <use x="217.419922" xlink:href="#DejaVuSans-32"/>
      <use x="249.207031" xlink:href="#DejaVuSans-102"/>
      <use x="284.412109" xlink:href="#DejaVuSans-108"/>
      <use x="312.195312" xlink:href="#DejaVuSans-111"/>
      <use x="373.376953" xlink:href="#DejaVuSans-119"/>
      <use x="455.164062" xlink:href="#DejaVuSans-32"/>
      <use x="486.951172" xlink:href="#DejaVuSans-115"/>
      <use x="539.050781" xlink:href="#DejaVuSans-101"/>
      <use x="600.574219" xlink:href="#DejaVuSans-110"/>
      <use x="663.953125" xlink:href="#DejaVuSans-105"/>
      <use x="691.736328" xlink:href="#DejaVuSans-111"/>
      <use x="752.917969" xlink:href="#DejaVuSans-114"/>
      <use x="794.03125" xlink:href="#DejaVuSans-32"/>
      <use x="825.818359" xlink:href="#DejaVuSans-114"/>
      <use x="866.931641" xlink:href="#DejaVuSans-105"/>
      <use x="894.714844" xlink:href="#DejaVuSans-103"/>
      <use x="958.191406" xlink:href="#DejaVuSans-104"/>
      <use x="1021.570312" xlink:href="#DejaVuSans-116"/>
     </g>
    </g>
    <g id="line2d_39">
     <path style="fill:none;stroke:#59deba;stroke-linecap:square;stroke-width:2;"/>
    </g>
    <g id="line2d_40"/>
    <g id="text_22">
     <!-- Evaporation delta -->
     <g transform="translate(508.641406 605.260063)scale(0.1 -0.1)">
      <use xlink:href="#DejaVuSans-69"/>
      <use x="63.183594" xlink:href="#DejaVuSans-118"/>
      <use x="122.363281" xlink:href="#DejaVuSans-97"/>
      <use x="183.642578" xlink:href="#DejaVuSans-112"/>
      <use x="247.119141" xlink:href="#DejaVuSans-111"/>
      <use x="308.300781" xlink:href="#DejaVuSans-114"/>
      <use x="349.414062" xlink:href="#DejaVuSans-97"/>
      <use x="410.693359" xlink:href="#DejaVuSans-116"/>
      <use x="449.902344" xlink:href="#DejaVuSans-105"/>
      <use x="477.685547" xlink:href="#DejaVuSans-111"/>
      <use x="538.867188" xlink:href="#DejaVuSans-110"/>
      <use x="602.246094" xlink:href="#DejaVuSans-32"/>
      <use x="634.033203" xlink:href="#DejaVuSans-100"/>
      <use x="697.509766" xlink:href="#DejaVuSans-101"/>
      <use x="759.033203" xlink:href="#DejaVuSans-108"/>
      <use x="786.816406" xlink:href="#DejaVuSans-116"/>
      <use x="826.025391" xlink:href="#DejaVuSans-97"/>
     </g>
    </g>
    <g id="line2d_41">
     <path style="fill:none;stroke:#14015c;stroke-linecap:square;stroke-width:2;"/>
    </g>
    <g id="line2d_42"/>
    <g id="text_23">
     <!-- Dry state mu -->
     <defs>
      <path d="M 32.171875 -5.078125 
Q 28.375 -14.84375 24.75 -17.8125 
Q 21.140625 -20.796875 15.09375 -20.796875 
L 7.90625 -20.796875 
L 7.90625 -13.28125 
L 13.1875 -13.28125 
Q 16.890625 -13.28125 18.9375 -11.515625 
Q 21 -9.765625 23.484375 -3.21875 
L 25.09375 0.875 
L 2.984375 54.6875 
L 12.5 54.6875 
L 29.59375 11.921875 
L 46.6875 54.6875 
L 56.203125 54.6875 
z
" id="DejaVuSans-121"/>
     </defs>
     <g transform="translate(508.641406 619.938188)scale(0.1 -0.1)">
      <use xlink:href="#DejaVuSans-68"/>
      <use x="77.001953" xlink:href="#DejaVuSans-114"/>
      <use x="118.115234" xlink:href="#DejaVuSans-121"/>
      <use x="177.294922" xlink:href="#DejaVuSans-32"/>
      <use x="209.082031" xlink:href="#DejaVuSans-115"/>
      <use x="261.181641" xlink:href="#DejaVuSans-116"/>
      <use x="300.390625" xlink:href="#DejaVuSans-97"/>
      <use x="361.669922" xlink:href="#DejaVuSans-116"/>
      <use x="400.878906" xlink:href="#DejaVuSans-101"/>
      <use x="462.402344" xlink:href="#DejaVuSans-32"/>
      <use x="494.189453" xlink:href="#DejaVuSans-109"/>
      <use x="591.601562" xlink:href="#DejaVuSans-117"/>
     </g>
    </g>
    <g id="line2d_43">
     <path style="fill:none;stroke:#daf8a3;stroke-linecap:square;stroke-width:2;"/>
    </g>
    <g id="line2d_44"/>
    <g id="text_24">
     <!-- Dry state sigma -->
     <g transform="translate(508.641406 634.616313)scale(0.1 -0.1)">
      <use xlink:href="#DejaVuSans-68"/>
      <use x="77.001953" xlink:href="#DejaVuSans-114"/>
      <use x="118.115234" xlink:href="#DejaVuSans-121"/>
      <use x="177.294922" xlink:href="#DejaVuSans-32"/>
      <use x="209.082031" xlink:href="#DejaVuSans-115"/>
      <use x="261.181641" xlink:href="#DejaVuSans-116"/>
      <use x="300.390625" xlink:href="#DejaVuSans-97"/>
      <use x="361.669922" xlink:href="#DejaVuSans-116"/>
      <use x="400.878906" xlink:href="#DejaVuSans-101"/>
      <use x="462.402344" xlink:href="#DejaVuSans-32"/>
      <use x="494.189453" xlink:href="#DejaVuSans-115"/>
      <use x="546.289062" xlink:href="#DejaVuSans-105"/>
      <use x="574.072266" xlink:href="#DejaVuSans-103"/>
      <use x="637.548828" xlink:href="#DejaVuSans-109"/>
      <use x="734.960938" xlink:href="#DejaVuSans-97"/>
     </g>
    </g>
    <g id="line2d_45">
     <path style="fill:none;stroke:#0b7a0a;stroke-linecap:square;stroke-width:2;"/>
    </g>
    <g id="line2d_46"/>
    <g id="text_25">
     <!-- Wet state mu -->
     <g transform="translate(645.374219 605.260063)scale(0.1 -0.1)">
      <use xlink:href="#DejaVuSans-87"/>
      <use x="98.798828" xlink:href="#DejaVuSans-101"/>
      <use x="160.322266" xlink:href="#DejaVuSans-116"/>
      <use x="199.53125" xlink:href="#DejaVuSans-32"/>
      <use x="231.318359" xlink:href="#DejaVuSans-115"/>
      <use x="283.417969" xlink:href="#DejaVuSans-116"/>
      <use x="322.626953" xlink:href="#DejaVuSans-97"/>
      <use x="383.90625" xlink:href="#DejaVuSans-116"/>
      <use x="423.115234" xlink:href="#DejaVuSans-101"/>
      <use x="484.638672" xlink:href="#DejaVuSans-32"/>
      <use x="516.425781" xlink:href="#DejaVuSans-109"/>
      <use x="613.837891" xlink:href="#DejaVuSans-117"/>
     </g>
    </g>
    <g id="line2d_47">
     <path style="fill:none;stroke:#f8ffa2;stroke-linecap:square;stroke-width:2;"/>
    </g>
    <g id="line2d_48"/>
    <g id="text_26">
     <!-- Wet state sigma -->
     <g transform="translate(645.374219 619.938188)scale(0.1 -0.1)">
      <use xlink:href="#DejaVuSans-87"/>
      <use x="98.798828" xlink:href="#DejaVuSans-101"/>
      <use x="160.322266" xlink:href="#DejaVuSans-116"/>
      <use x="199.53125" xlink:href="#DejaVuSans-32"/>
      <use x="231.318359" xlink:href="#DejaVuSans-115"/>
      <use x="283.417969" xlink:href="#DejaVuSans-116"/>
      <use x="322.626953" xlink:href="#DejaVuSans-97"/>
      <use x="383.90625" xlink:href="#DejaVuSans-116"/>
      <use x="423.115234" xlink:href="#DejaVuSans-101"/>
      <use x="484.638672" xlink:href="#DejaVuSans-32"/>
      <use x="516.425781" xlink:href="#DejaVuSans-115"/>
      <use x="568.525391" xlink:href="#DejaVuSans-105"/>
      <use x="596.308594" xlink:href="#DejaVuSans-103"/>
      <use x="659.785156" xlink:href="#DejaVuSans-109"/>
      <use x="757.197266" xlink:href="#DejaVuSans-97"/>
     </g>
    </g>
    <g id="line2d_49">
     <path style="fill:none;stroke:#578dc0;stroke-linecap:square;stroke-width:2;"/>
    </g>
    <g id="line2d_50"/>
    <g id="text_27">
     <!-- Dry-to-dry state prob. -->
     <defs>
      <path d="M 4.890625 31.390625 
L 31.203125 31.390625 
L 31.203125 23.390625 
L 4.890625 23.390625 
z
" id="DejaVuSans-45"/>
      <path d="M 48.6875 27.296875 
Q 48.6875 37.203125 44.609375 42.84375 
Q 40.53125 48.484375 33.40625 48.484375 
Q 26.265625 48.484375 22.1875 42.84375 
Q 18.109375 37.203125 18.109375 27.296875 
Q 18.109375 17.390625 22.1875 11.75 
Q 26.265625 6.109375 33.40625 6.109375 
Q 40.53125 6.109375 44.609375 11.75 
Q 48.6875 17.390625 48.6875 27.296875 
z
M 18.109375 46.390625 
Q 20.953125 51.265625 25.265625 53.625 
Q 29.59375 56 35.59375 56 
Q 45.5625 56 51.78125 48.09375 
Q 58.015625 40.1875 58.015625 27.296875 
Q 58.015625 14.40625 51.78125 6.484375 
Q 45.5625 -1.421875 35.59375 -1.421875 
Q 29.59375 -1.421875 25.265625 0.953125 
Q 20.953125 3.328125 18.109375 8.203125 
L 18.109375 0 
L 9.078125 0 
L 9.078125 75.984375 
L 18.109375 75.984375 
z
" id="DejaVuSans-98"/>
     </defs>
     <g transform="translate(645.374219 634.616313)scale(0.1 -0.1)">
      <use xlink:href="#DejaVuSans-68"/>
      <use x="77.001953" xlink:href="#DejaVuSans-114"/>
      <use x="118.115234" xlink:href="#DejaVuSans-121"/>
      <use x="177.279297" xlink:href="#DejaVuSans-45"/>
      <use x="213.363281" xlink:href="#DejaVuSans-116"/>
      <use x="252.572266" xlink:href="#DejaVuSans-111"/>
      <use x="313.769531" xlink:href="#DejaVuSans-45"/>
      <use x="349.853516" xlink:href="#DejaVuSans-100"/>
      <use x="413.330078" xlink:href="#DejaVuSans-114"/>
      <use x="454.443359" xlink:href="#DejaVuSans-121"/>
      <use x="513.623047" xlink:href="#DejaVuSans-32"/>
      <use x="545.410156" xlink:href="#DejaVuSans-115"/>
      <use x="597.509766" xlink:href="#DejaVuSans-116"/>
      <use x="636.71875" xlink:href="#DejaVuSans-97"/>
      <use x="697.998047" xlink:href="#DejaVuSans-116"/>
      <use x="737.207031" xlink:href="#DejaVuSans-101"/>
      <use x="798.730469" xlink:href="#DejaVuSans-32"/>
      <use x="830.517578" xlink:href="#DejaVuSans-112"/>
      <use x="893.994141" xlink:href="#DejaVuSans-114"/>
      <use x="935.076172" xlink:href="#DejaVuSans-111"/>
      <use x="996.257812" xlink:href="#DejaVuSans-98"/>
      <use x="1059.734375" xlink:href="#DejaVuSans-46"/>
     </g>
    </g>
    <g id="line2d_51">
     <path style="fill:none;stroke:#4e4ad8;stroke-linecap:square;stroke-width:2;"/>
    </g>
    <g id="line2d_52"/>
    <g id="text_28">
     <!-- Wet-to-wet state prob. -->
     <g transform="translate(802.525781 605.260063)scale(0.1 -0.1)">
      <use xlink:href="#DejaVuSans-87"/>
      <use x="98.798828" xlink:href="#DejaVuSans-101"/>
      <use x="160.322266" xlink:href="#DejaVuSans-116"/>
      <use x="199.53125" xlink:href="#DejaVuSans-45"/>
      <use x="235.615234" xlink:href="#DejaVuSans-116"/>
      <use x="274.824219" xlink:href="#DejaVuSans-111"/>
      <use x="336.021484" xlink:href="#DejaVuSans-45"/>
      <use x="372.105469" xlink:href="#DejaVuSans-119"/>
      <use x="453.892578" xlink:href="#DejaVuSans-101"/>
      <use x="515.416016" xlink:href="#DejaVuSans-116"/>
      <use x="554.625" xlink:href="#DejaVuSans-32"/>
      <use x="586.412109" xlink:href="#DejaVuSans-115"/>
      <use x="638.511719" xlink:href="#DejaVuSans-116"/>
      <use x="677.720703" xlink:href="#DejaVuSans-97"/>
      <use x="739" xlink:href="#DejaVuSans-116"/>
      <use x="778.208984" xlink:href="#DejaVuSans-101"/>
      <use x="839.732422" xlink:href="#DejaVuSans-32"/>
      <use x="871.519531" xlink:href="#DejaVuSans-112"/>
      <use x="934.996094" xlink:href="#DejaVuSans-114"/>
      <use x="976.078125" xlink:href="#DejaVuSans-111"/>
      <use x="1037.259766" xlink:href="#DejaVuSans-98"/>
      <use x="1100.736328" xlink:href="#DejaVuSans-46"/>
     </g>
    </g>
    <g id="line2d_53">
     <path style="fill:none;stroke:#32b3f7;stroke-linecap:square;stroke-width:2;"/>
    </g>
    <g id="line2d_54"/>
    <g id="text_29">
     <!-- Earlier snowmelt -->
     <g transform="translate(802.525781 619.938188)scale(0.1 -0.1)">
      <use xlink:href="#DejaVuSans-69"/>
      <use x="63.183594" xlink:href="#DejaVuSans-97"/>
      <use x="124.462891" xlink:href="#DejaVuSans-114"/>
      <use x="165.576172" xlink:href="#DejaVuSans-108"/>
      <use x="193.359375" xlink:href="#DejaVuSans-105"/>
      <use x="221.142578" xlink:href="#DejaVuSans-101"/>
      <use x="282.666016" xlink:href="#DejaVuSans-114"/>
      <use x="323.779297" xlink:href="#DejaVuSans-32"/>
      <use x="355.566406" xlink:href="#DejaVuSans-115"/>
      <use x="407.666016" xlink:href="#DejaVuSans-110"/>
      <use x="471.044922" xlink:href="#DejaVuSans-111"/>
      <use x="532.226562" xlink:href="#DejaVuSans-119"/>
      <use x="614.013672" xlink:href="#DejaVuSans-109"/>
      <use x="711.425781" xlink:href="#DejaVuSans-101"/>
      <use x="772.949219" xlink:href="#DejaVuSans-108"/>
      <use x="800.732422" xlink:href="#DejaVuSans-116"/>
     </g>
    </g>
   </g>
  </g>
  <g id="text_30">
   <!-- Shortage magnitude sensitivity for 7200799 -->
   <defs>
    <path d="M 8.203125 72.90625 
L 55.078125 72.90625 
L 55.078125 68.703125 
L 28.609375 0 
L 18.3125 0 
L 43.21875 64.59375 
L 8.203125 64.59375 
z
" id="DejaVuSans-55"/>
    <path d="M 10.984375 1.515625 
L 10.984375 10.5 
Q 14.703125 8.734375 18.5 7.8125 
Q 22.3125 6.890625 25.984375 6.890625 
Q 35.75 6.890625 40.890625 13.453125 
Q 46.046875 20.015625 46.78125 33.40625 
Q 43.953125 29.203125 39.59375 26.953125 
Q 35.25 24.703125 29.984375 24.703125 
Q 19.046875 24.703125 12.671875 31.3125 
Q 6.296875 37.9375 6.296875 49.421875 
Q 6.296875 60.640625 12.9375 67.421875 
Q 19.578125 74.21875 30.609375 74.21875 
Q 43.265625 74.21875 49.921875 64.515625 
Q 56.59375 54.828125 56.59375 36.375 
Q 56.59375 19.140625 48.40625 8.859375 
Q 40.234375 -1.421875 26.421875 -1.421875 
Q 22.703125 -1.421875 18.890625 -0.6875 
Q 15.09375 0.046875 10.984375 1.515625 
z
M 30.609375 32.421875 
Q 37.25 32.421875 41.125 36.953125 
Q 45.015625 41.5 45.015625 49.421875 
Q 45.015625 57.28125 41.125 61.84375 
Q 37.25 66.40625 30.609375 66.40625 
Q 23.96875 66.40625 20.09375 61.84375 
Q 16.21875 57.28125 16.21875 49.421875 
Q 16.21875 41.5 20.09375 36.953125 
Q 23.96875 32.421875 30.609375 32.421875 
z
" id="DejaVuSans-57"/>
   </defs>
   <g transform="translate(344.81625 23.6775)scale(0.16 -0.16)">
    <use xlink:href="#DejaVuSans-83"/>
    <use x="63.476562" xlink:href="#DejaVuSans-104"/>
    <use x="126.855469" xlink:href="#DejaVuSans-111"/>
    <use x="188.037109" xlink:href="#DejaVuSans-114"/>
    <use x="229.150391" xlink:href="#DejaVuSans-116"/>
    <use x="268.359375" xlink:href="#DejaVuSans-97"/>
    <use x="329.638672" xlink:href="#DejaVuSans-103"/>
    <use x="393.115234" xlink:href="#DejaVuSans-101"/>
    <use x="454.638672" xlink:href="#DejaVuSans-32"/>
    <use x="486.425781" xlink:href="#DejaVuSans-109"/>
    <use x="583.837891" xlink:href="#DejaVuSans-97"/>
    <use x="645.117188" xlink:href="#DejaVuSans-103"/>
    <use x="708.59375" xlink:href="#DejaVuSans-110"/>
    <use x="771.972656" xlink:href="#DejaVuSans-105"/>
    <use x="799.755859" xlink:href="#DejaVuSans-116"/>
    <use x="838.964844" xlink:href="#DejaVuSans-117"/>
    <use x="902.34375" xlink:href="#DejaVuSans-100"/>
    <use x="965.820312" xlink:href="#DejaVuSans-101"/>
    <use x="1027.34375" xlink:href="#DejaVuSans-32"/>
    <use x="1059.130859" xlink:href="#DejaVuSans-115"/>
    <use x="1111.230469" xlink:href="#DejaVuSans-101"/>
    <use x="1172.753906" xlink:href="#DejaVuSans-110"/>
    <use x="1236.132812" xlink:href="#DejaVuSans-115"/>
    <use x="1288.232422" xlink:href="#DejaVuSans-105"/>
    <use x="1316.015625" xlink:href="#DejaVuSans-116"/>
    <use x="1355.224609" xlink:href="#DejaVuSans-105"/>
    <use x="1383.007812" xlink:href="#DejaVuSans-118"/>
    <use x="1442.1875" xlink:href="#DejaVuSans-105"/>
    <use x="1469.970703" xlink:href="#DejaVuSans-116"/>
    <use x="1509.179688" xlink:href="#DejaVuSans-121"/>
    <use x="1568.359375" xlink:href="#DejaVuSans-32"/>
    <use x="1600.146484" xlink:href="#DejaVuSans-102"/>
    <use x="1635.351562" xlink:href="#DejaVuSans-111"/>
    <use x="1696.533203" xlink:href="#DejaVuSans-114"/>
    <use x="1737.646484" xlink:href="#DejaVuSans-32"/>
    <use x="1769.433594" xlink:href="#DejaVuSans-55"/>
    <use x="1833.056641" xlink:href="#DejaVuSans-50"/>
    <use x="1896.679688" xlink:href="#DejaVuSans-48"/>
    <use x="1960.302734" xlink:href="#DejaVuSans-48"/>
    <use x="2023.925781" xlink:href="#DejaVuSans-55"/>
    <use x="2087.548828" xlink:href="#DejaVuSans-57"/>
    <use x="2151.171875" xlink:href="#DejaVuSans-57"/>
   </g>
  </g>
 </g>
 <defs>
  <clipPath id="p826d1e565e">
   <rect height="354.816" width="809.1" x="130.5" y="113.472"/>
  </clipPath>
 </defs>
</svg>
