<?xml version="1.0" encoding="utf-8" standalone="no"?>
<!DOCTYPE svg PUBLIC "-//W3C//DTD SVG 1.1//EN"
  "http://www.w3.org/Graphics/SVG/1.1/DTD/svg11.dtd">
<!-- Created with matplotlib (https://matplotlib.org/) -->
<svg height="576pt" version="1.1" viewBox="0 0 1044 576" width="1044pt" xmlns="http://www.w3.org/2000/svg" xmlns:xlink="http://www.w3.org/1999/xlink">
 <defs>
  <style type="text/css">
*{stroke-linecap:butt;stroke-linejoin:round;}
  </style>
 </defs>
 <g id="figure_1">
  <g id="patch_1">
   <path d="M 0 576 
L 1044 576 
L 1044 0 
L 0 0 
z
" style="fill:#ffffff;"/>
  </g>
  <g id="axes_1">
   <g id="patch_2">
    <path d="M 130.5 468.288 
L 939.6 468.288 
L 939.6 113.472 
L 130.5 113.472 
z
" style="fill:#ffffff;"/>
   </g>
   <g id="matplotlib.axis_1">
    <g id="xtick_1">
     <g id="line2d_1">
      <defs>
       <path d="M 0 0 
L 0 3.5 
" id="m8d5307e76b" style="stroke:#000000;stroke-width:0.8;"/>
      </defs>
      <g>
       <use style="stroke:#000000;stroke-width:0.8;" x="130.5" xlink:href="#m8d5307e76b" y="468.288"/>
      </g>
     </g>
     <g id="text_1">
      <!-- 0 -->
      <defs>
       <path d="M 31.78125 66.40625 
Q 24.171875 66.40625 20.328125 58.90625 
Q 16.5 51.421875 16.5 36.375 
Q 16.5 21.390625 20.328125 13.890625 
Q 24.171875 6.390625 31.78125 6.390625 
Q 39.453125 6.390625 43.28125 13.890625 
Q 47.125 21.390625 47.125 36.375 
Q 47.125 51.421875 43.28125 58.90625 
Q 39.453125 66.40625 31.78125 66.40625 
z
M 31.78125 74.21875 
Q 44.046875 74.21875 50.515625 64.515625 
Q 56.984375 54.828125 56.984375 36.375 
Q 56.984375 17.96875 50.515625 8.265625 
Q 44.046875 -1.421875 31.78125 -1.421875 
Q 19.53125 -1.421875 13.0625 8.265625 
Q 6.59375 17.96875 6.59375 36.375 
Q 6.59375 54.828125 13.0625 64.515625 
Q 19.53125 74.21875 31.78125 74.21875 
z
" id="DejaVuSans-48"/>
      </defs>
      <g transform="translate(127.31875 482.886437)scale(0.1 -0.1)">
       <use xlink:href="#DejaVuSans-48"/>
      </g>
     </g>
    </g>
    <g id="xtick_2">
     <g id="line2d_2">
      <g>
       <use style="stroke:#000000;stroke-width:0.8;" x="292.32" xlink:href="#m8d5307e76b" y="468.288"/>
      </g>
     </g>
     <g id="text_2">
      <!-- 20 -->
      <defs>
       <path d="M 19.1875 8.296875 
L 53.609375 8.296875 
L 53.609375 0 
L 7.328125 0 
L 7.328125 8.296875 
Q 12.9375 14.109375 22.625 23.890625 
Q 32.328125 33.6875 34.8125 36.53125 
Q 39.546875 41.84375 41.421875 45.53125 
Q 43.3125 49.21875 43.3125 52.78125 
Q 43.3125 58.59375 39.234375 62.25 
Q 35.15625 65.921875 28.609375 65.921875 
Q 23.96875 65.921875 18.8125 64.3125 
Q 13.671875 62.703125 7.8125 59.421875 
L 7.8125 69.390625 
Q 13.765625 71.78125 18.9375 73 
Q 24.125 74.21875 28.421875 74.21875 
Q 39.75 74.21875 46.484375 68.546875 
Q 53.21875 62.890625 53.21875 53.421875 
Q 53.21875 48.921875 51.53125 44.890625 
Q 49.859375 40.875 45.40625 35.40625 
Q 44.1875 33.984375 37.640625 27.21875 
Q 31.109375 20.453125 19.1875 8.296875 
z
" id="DejaVuSans-50"/>
      </defs>
      <g transform="translate(285.9575 482.886437)scale(0.1 -0.1)">
       <use xlink:href="#DejaVuSans-50"/>
       <use x="63.623047" xlink:href="#DejaVuSans-48"/>
      </g>
     </g>
    </g>
    <g id="xtick_3">
     <g id="line2d_3">
      <g>
       <use style="stroke:#000000;stroke-width:0.8;" x="454.14" xlink:href="#m8d5307e76b" y="468.288"/>
      </g>
     </g>
     <g id="text_3">
      <!-- 40 -->
      <defs>
       <path d="M 37.796875 64.3125 
L 12.890625 25.390625 
L 37.796875 25.390625 
z
M 35.203125 72.90625 
L 47.609375 72.90625 
L 47.609375 25.390625 
L 58.015625 25.390625 
L 58.015625 17.1875 
L 47.609375 17.1875 
L 47.609375 0 
L 37.796875 0 
L 37.796875 17.1875 
L 4.890625 17.1875 
L 4.890625 26.703125 
z
" id="DejaVuSans-52"/>
      </defs>
      <g transform="translate(447.7775 482.886437)scale(0.1 -0.1)">
       <use xlink:href="#DejaVuSans-52"/>
       <use x="63.623047" xlink:href="#DejaVuSans-48"/>
      </g>
     </g>
    </g>
    <g id="xtick_4">
     <g id="line2d_4">
      <g>
       <use style="stroke:#000000;stroke-width:0.8;" x="615.96" xlink:href="#m8d5307e76b" y="468.288"/>
      </g>
     </g>
     <g id="text_4">
      <!-- 60 -->
      <defs>
       <path d="M 33.015625 40.375 
Q 26.375 40.375 22.484375 35.828125 
Q 18.609375 31.296875 18.609375 23.390625 
Q 18.609375 15.53125 22.484375 10.953125 
Q 26.375 6.390625 33.015625 6.390625 
Q 39.65625 6.390625 43.53125 10.953125 
Q 47.40625 15.53125 47.40625 23.390625 
Q 47.40625 31.296875 43.53125 35.828125 
Q 39.65625 40.375 33.015625 40.375 
z
M 52.59375 71.296875 
L 52.59375 62.3125 
Q 48.875 64.0625 45.09375 64.984375 
Q 41.3125 65.921875 37.59375 65.921875 
Q 27.828125 65.921875 22.671875 59.328125 
Q 17.53125 52.734375 16.796875 39.40625 
Q 19.671875 43.65625 24.015625 45.921875 
Q 28.375 48.1875 33.59375 48.1875 
Q 44.578125 48.1875 50.953125 41.515625 
Q 57.328125 34.859375 57.328125 23.390625 
Q 57.328125 12.15625 50.6875 5.359375 
Q 44.046875 -1.421875 33.015625 -1.421875 
Q 20.359375 -1.421875 13.671875 8.265625 
Q 6.984375 17.96875 6.984375 36.375 
Q 6.984375 53.65625 15.1875 63.9375 
Q 23.390625 74.21875 37.203125 74.21875 
Q 40.921875 74.21875 44.703125 73.484375 
Q 48.484375 72.75 52.59375 71.296875 
z
" id="DejaVuSans-54"/>
      </defs>
      <g transform="translate(609.5975 482.886437)scale(0.1 -0.1)">
       <use xlink:href="#DejaVuSans-54"/>
       <use x="63.623047" xlink:href="#DejaVuSans-48"/>
      </g>
     </g>
    </g>
    <g id="xtick_5">
     <g id="line2d_5">
      <g>
       <use style="stroke:#000000;stroke-width:0.8;" x="777.78" xlink:href="#m8d5307e76b" y="468.288"/>
      </g>
     </g>
     <g id="text_5">
      <!-- 80 -->
      <defs>
       <path d="M 31.78125 34.625 
Q 24.75 34.625 20.71875 30.859375 
Q 16.703125 27.09375 16.703125 20.515625 
Q 16.703125 13.921875 20.71875 10.15625 
Q 24.75 6.390625 31.78125 6.390625 
Q 38.8125 6.390625 42.859375 10.171875 
Q 46.921875 13.96875 46.921875 20.515625 
Q 46.921875 27.09375 42.890625 30.859375 
Q 38.875 34.625 31.78125 34.625 
z
M 21.921875 38.8125 
Q 15.578125 40.375 12.03125 44.71875 
Q 8.5 49.078125 8.5 55.328125 
Q 8.5 64.0625 14.71875 69.140625 
Q 20.953125 74.21875 31.78125 74.21875 
Q 42.671875 74.21875 48.875 69.140625 
Q 55.078125 64.0625 55.078125 55.328125 
Q 55.078125 49.078125 51.53125 44.71875 
Q 48 40.375 41.703125 38.8125 
Q 48.828125 37.15625 52.796875 32.3125 
Q 56.78125 27.484375 56.78125 20.515625 
Q 56.78125 9.90625 50.3125 4.234375 
Q 43.84375 -1.421875 31.78125 -1.421875 
Q 19.734375 -1.421875 13.25 4.234375 
Q 6.78125 9.90625 6.78125 20.515625 
Q 6.78125 27.484375 10.78125 32.3125 
Q 14.796875 37.15625 21.921875 38.8125 
z
M 18.3125 54.390625 
Q 18.3125 48.734375 21.84375 45.5625 
Q 25.390625 42.390625 31.78125 42.390625 
Q 38.140625 42.390625 41.71875 45.5625 
Q 45.3125 48.734375 45.3125 54.390625 
Q 45.3125 60.0625 41.71875 63.234375 
Q 38.140625 66.40625 31.78125 66.40625 
Q 25.390625 66.40625 21.84375 63.234375 
Q 18.3125 60.0625 18.3125 54.390625 
z
" id="DejaVuSans-56"/>
      </defs>
      <g transform="translate(771.4175 482.886437)scale(0.1 -0.1)">
       <use xlink:href="#DejaVuSans-56"/>
       <use x="63.623047" xlink:href="#DejaVuSans-48"/>
      </g>
     </g>
    </g>
    <g id="xtick_6">
     <g id="line2d_6">
      <g>
       <use style="stroke:#000000;stroke-width:0.8;" x="939.6" xlink:href="#m8d5307e76b" y="468.288"/>
      </g>
     </g>
     <g id="text_6">
      <!-- 100 -->
      <defs>
       <path d="M 12.40625 8.296875 
L 28.515625 8.296875 
L 28.515625 63.921875 
L 10.984375 60.40625 
L 10.984375 69.390625 
L 28.421875 72.90625 
L 38.28125 72.90625 
L 38.28125 8.296875 
L 54.390625 8.296875 
L 54.390625 0 
L 12.40625 0 
z
" id="DejaVuSans-49"/>
      </defs>
      <g transform="translate(930.05625 482.886437)scale(0.1 -0.1)">
       <use xlink:href="#DejaVuSans-49"/>
       <use x="63.623047" xlink:href="#DejaVuSans-48"/>
       <use x="127.246094" xlink:href="#DejaVuSans-48"/>
      </g>
     </g>
    </g>
    <g id="text_7">
     <!-- Shortage magnitude percentile -->
     <defs>
      <path d="M 53.515625 70.515625 
L 53.515625 60.890625 
Q 47.90625 63.578125 42.921875 64.890625 
Q 37.9375 66.21875 33.296875 66.21875 
Q 25.25 66.21875 20.875 63.09375 
Q 16.5 59.96875 16.5 54.203125 
Q 16.5 49.359375 19.40625 46.890625 
Q 22.3125 44.4375 30.421875 42.921875 
L 36.375 41.703125 
Q 47.40625 39.59375 52.65625 34.296875 
Q 57.90625 29 57.90625 20.125 
Q 57.90625 9.515625 50.796875 4.046875 
Q 43.703125 -1.421875 29.984375 -1.421875 
Q 24.8125 -1.421875 18.96875 -0.25 
Q 13.140625 0.921875 6.890625 3.21875 
L 6.890625 13.375 
Q 12.890625 10.015625 18.65625 8.296875 
Q 24.421875 6.59375 29.984375 6.59375 
Q 38.421875 6.59375 43.015625 9.90625 
Q 47.609375 13.234375 47.609375 19.390625 
Q 47.609375 24.75 44.3125 27.78125 
Q 41.015625 30.8125 33.5 32.328125 
L 27.484375 33.5 
Q 16.453125 35.6875 11.515625 40.375 
Q 6.59375 45.0625 6.59375 53.421875 
Q 6.59375 63.09375 13.40625 68.65625 
Q 20.21875 74.21875 32.171875 74.21875 
Q 37.3125 74.21875 42.625 73.28125 
Q 47.953125 72.359375 53.515625 70.515625 
z
" id="DejaVuSans-83"/>
      <path d="M 54.890625 33.015625 
L 54.890625 0 
L 45.90625 0 
L 45.90625 32.71875 
Q 45.90625 40.484375 42.875 44.328125 
Q 39.84375 48.1875 33.796875 48.1875 
Q 26.515625 48.1875 22.3125 43.546875 
Q 18.109375 38.921875 18.109375 30.90625 
L 18.109375 0 
L 9.078125 0 
L 9.078125 75.984375 
L 18.109375 75.984375 
L 18.109375 46.1875 
Q 21.34375 51.125 25.703125 53.5625 
Q 30.078125 56 35.796875 56 
Q 45.21875 56 50.046875 50.171875 
Q 54.890625 44.34375 54.890625 33.015625 
z
" id="DejaVuSans-104"/>
      <path d="M 30.609375 48.390625 
Q 23.390625 48.390625 19.1875 42.75 
Q 14.984375 37.109375 14.984375 27.296875 
Q 14.984375 17.484375 19.15625 11.84375 
Q 23.34375 6.203125 30.609375 6.203125 
Q 37.796875 6.203125 41.984375 11.859375 
Q 46.1875 17.53125 46.1875 27.296875 
Q 46.1875 37.015625 41.984375 42.703125 
Q 37.796875 48.390625 30.609375 48.390625 
z
M 30.609375 56 
Q 42.328125 56 49.015625 48.375 
Q 55.71875 40.765625 55.71875 27.296875 
Q 55.71875 13.875 49.015625 6.21875 
Q 42.328125 -1.421875 30.609375 -1.421875 
Q 18.84375 -1.421875 12.171875 6.21875 
Q 5.515625 13.875 5.515625 27.296875 
Q 5.515625 40.765625 12.171875 48.375 
Q 18.84375 56 30.609375 56 
z
" id="DejaVuSans-111"/>
      <path d="M 41.109375 46.296875 
Q 39.59375 47.171875 37.8125 47.578125 
Q 36.03125 48 33.890625 48 
Q 26.265625 48 22.1875 43.046875 
Q 18.109375 38.09375 18.109375 28.8125 
L 18.109375 0 
L 9.078125 0 
L 9.078125 54.6875 
L 18.109375 54.6875 
L 18.109375 46.1875 
Q 20.953125 51.171875 25.484375 53.578125 
Q 30.03125 56 36.53125 56 
Q 37.453125 56 38.578125 55.875 
Q 39.703125 55.765625 41.0625 55.515625 
z
" id="DejaVuSans-114"/>
      <path d="M 18.3125 70.21875 
L 18.3125 54.6875 
L 36.8125 54.6875 
L 36.8125 47.703125 
L 18.3125 47.703125 
L 18.3125 18.015625 
Q 18.3125 11.328125 20.140625 9.421875 
Q 21.96875 7.515625 27.59375 7.515625 
L 36.8125 7.515625 
L 36.8125 0 
L 27.59375 0 
Q 17.1875 0 13.234375 3.875 
Q 9.28125 7.765625 9.28125 18.015625 
L 9.28125 47.703125 
L 2.6875 47.703125 
L 2.6875 54.6875 
L 9.28125 54.6875 
L 9.28125 70.21875 
z
" id="DejaVuSans-116"/>
      <path d="M 34.28125 27.484375 
Q 23.390625 27.484375 19.1875 25 
Q 14.984375 22.515625 14.984375 16.5 
Q 14.984375 11.71875 18.140625 8.90625 
Q 21.296875 6.109375 26.703125 6.109375 
Q 34.1875 6.109375 38.703125 11.40625 
Q 43.21875 16.703125 43.21875 25.484375 
L 43.21875 27.484375 
z
M 52.203125 31.203125 
L 52.203125 0 
L 43.21875 0 
L 43.21875 8.296875 
Q 40.140625 3.328125 35.546875 0.953125 
Q 30.953125 -1.421875 24.3125 -1.421875 
Q 15.921875 -1.421875 10.953125 3.296875 
Q 6 8.015625 6 15.921875 
Q 6 25.140625 12.171875 29.828125 
Q 18.359375 34.515625 30.609375 34.515625 
L 43.21875 34.515625 
L 43.21875 35.40625 
Q 43.21875 41.609375 39.140625 45 
Q 35.0625 48.390625 27.6875 48.390625 
Q 23 48.390625 18.546875 47.265625 
Q 14.109375 46.140625 10.015625 43.890625 
L 10.015625 52.203125 
Q 14.9375 54.109375 19.578125 55.046875 
Q 24.21875 56 28.609375 56 
Q 40.484375 56 46.34375 49.84375 
Q 52.203125 43.703125 52.203125 31.203125 
z
" id="DejaVuSans-97"/>
      <path d="M 45.40625 27.984375 
Q 45.40625 37.75 41.375 43.109375 
Q 37.359375 48.484375 30.078125 48.484375 
Q 22.859375 48.484375 18.828125 43.109375 
Q 14.796875 37.75 14.796875 27.984375 
Q 14.796875 18.265625 18.828125 12.890625 
Q 22.859375 7.515625 30.078125 7.515625 
Q 37.359375 7.515625 41.375 12.890625 
Q 45.40625 18.265625 45.40625 27.984375 
z
M 54.390625 6.78125 
Q 54.390625 -7.171875 48.1875 -13.984375 
Q 42 -20.796875 29.203125 -20.796875 
Q 24.46875 -20.796875 20.265625 -20.09375 
Q 16.0625 -19.390625 12.109375 -17.921875 
L 12.109375 -9.1875 
Q 16.0625 -11.328125 19.921875 -12.34375 
Q 23.78125 -13.375 27.78125 -13.375 
Q 36.625 -13.375 41.015625 -8.765625 
Q 45.40625 -4.15625 45.40625 5.171875 
L 45.40625 9.625 
Q 42.625 4.78125 38.28125 2.390625 
Q 33.9375 0 27.875 0 
Q 17.828125 0 11.671875 7.65625 
Q 5.515625 15.328125 5.515625 27.984375 
Q 5.515625 40.671875 11.671875 48.328125 
Q 17.828125 56 27.875 56 
Q 33.9375 56 38.28125 53.609375 
Q 42.625 51.21875 45.40625 46.390625 
L 45.40625 54.6875 
L 54.390625 54.6875 
z
" id="DejaVuSans-103"/>
      <path d="M 56.203125 29.59375 
L 56.203125 25.203125 
L 14.890625 25.203125 
Q 15.484375 15.921875 20.484375 11.0625 
Q 25.484375 6.203125 34.421875 6.203125 
Q 39.59375 6.203125 44.453125 7.46875 
Q 49.3125 8.734375 54.109375 11.28125 
L 54.109375 2.78125 
Q 49.265625 0.734375 44.1875 -0.34375 
Q 39.109375 -1.421875 33.890625 -1.421875 
Q 20.796875 -1.421875 13.15625 6.1875 
Q 5.515625 13.8125 5.515625 26.8125 
Q 5.515625 40.234375 12.765625 48.109375 
Q 20.015625 56 32.328125 56 
Q 43.359375 56 49.78125 48.890625 
Q 56.203125 41.796875 56.203125 29.59375 
z
M 47.21875 32.234375 
Q 47.125 39.59375 43.09375 43.984375 
Q 39.0625 48.390625 32.421875 48.390625 
Q 24.90625 48.390625 20.390625 44.140625 
Q 15.875 39.890625 15.1875 32.171875 
z
" id="DejaVuSans-101"/>
      <path id="DejaVuSans-32"/>
      <path d="M 52 44.1875 
Q 55.375 50.25 60.0625 53.125 
Q 64.75 56 71.09375 56 
Q 79.640625 56 84.28125 50.015625 
Q 88.921875 44.046875 88.921875 33.015625 
L 88.921875 0 
L 79.890625 0 
L 79.890625 32.71875 
Q 79.890625 40.578125 77.09375 44.375 
Q 74.3125 48.1875 68.609375 48.1875 
Q 61.625 48.1875 57.5625 43.546875 
Q 53.515625 38.921875 53.515625 30.90625 
L 53.515625 0 
L 44.484375 0 
L 44.484375 32.71875 
Q 44.484375 40.625 41.703125 44.40625 
Q 38.921875 48.1875 33.109375 48.1875 
Q 26.21875 48.1875 22.15625 43.53125 
Q 18.109375 38.875 18.109375 30.90625 
L 18.109375 0 
L 9.078125 0 
L 9.078125 54.6875 
L 18.109375 54.6875 
L 18.109375 46.1875 
Q 21.1875 51.21875 25.484375 53.609375 
Q 29.78125 56 35.6875 56 
Q 41.65625 56 45.828125 52.96875 
Q 50 49.953125 52 44.1875 
z
" id="DejaVuSans-109"/>
      <path d="M 54.890625 33.015625 
L 54.890625 0 
L 45.90625 0 
L 45.90625 32.71875 
Q 45.90625 40.484375 42.875 44.328125 
Q 39.84375 48.1875 33.796875 48.1875 
Q 26.515625 48.1875 22.3125 43.546875 
Q 18.109375 38.921875 18.109375 30.90625 
L 18.109375 0 
L 9.078125 0 
L 9.078125 54.6875 
L 18.109375 54.6875 
L 18.109375 46.1875 
Q 21.34375 51.125 25.703125 53.5625 
Q 30.078125 56 35.796875 56 
Q 45.21875 56 50.046875 50.171875 
Q 54.890625 44.34375 54.890625 33.015625 
z
" id="DejaVuSans-110"/>
      <path d="M 9.421875 54.6875 
L 18.40625 54.6875 
L 18.40625 0 
L 9.421875 0 
z
M 9.421875 75.984375 
L 18.40625 75.984375 
L 18.40625 64.59375 
L 9.421875 64.59375 
z
" id="DejaVuSans-105"/>
      <path d="M 8.5 21.578125 
L 8.5 54.6875 
L 17.484375 54.6875 
L 17.484375 21.921875 
Q 17.484375 14.15625 20.5 10.265625 
Q 23.53125 6.390625 29.59375 6.390625 
Q 36.859375 6.390625 41.078125 11.03125 
Q 45.3125 15.671875 45.3125 23.6875 
L 45.3125 54.6875 
L 54.296875 54.6875 
L 54.296875 0 
L 45.3125 0 
L 45.3125 8.40625 
Q 42.046875 3.421875 37.71875 1 
Q 33.40625 -1.421875 27.6875 -1.421875 
Q 18.265625 -1.421875 13.375 4.4375 
Q 8.5 10.296875 8.5 21.578125 
z
M 31.109375 56 
z
" id="DejaVuSans-117"/>
      <path d="M 45.40625 46.390625 
L 45.40625 75.984375 
L 54.390625 75.984375 
L 54.390625 0 
L 45.40625 0 
L 45.40625 8.203125 
Q 42.578125 3.328125 38.25 0.953125 
Q 33.9375 -1.421875 27.875 -1.421875 
Q 17.96875 -1.421875 11.734375 6.484375 
Q 5.515625 14.40625 5.515625 27.296875 
Q 5.515625 40.1875 11.734375 48.09375 
Q 17.96875 56 27.875 56 
Q 33.9375 56 38.25 53.625 
Q 42.578125 51.265625 45.40625 46.390625 
z
M 14.796875 27.296875 
Q 14.796875 17.390625 18.875 11.75 
Q 22.953125 6.109375 30.078125 6.109375 
Q 37.203125 6.109375 41.296875 11.75 
Q 45.40625 17.390625 45.40625 27.296875 
Q 45.40625 37.203125 41.296875 42.84375 
Q 37.203125 48.484375 30.078125 48.484375 
Q 22.953125 48.484375 18.875 42.84375 
Q 14.796875 37.203125 14.796875 27.296875 
z
" id="DejaVuSans-100"/>
      <path d="M 18.109375 8.203125 
L 18.109375 -20.796875 
L 9.078125 -20.796875 
L 9.078125 54.6875 
L 18.109375 54.6875 
L 18.109375 46.390625 
Q 20.953125 51.265625 25.265625 53.625 
Q 29.59375 56 35.59375 56 
Q 45.5625 56 51.78125 48.09375 
Q 58.015625 40.1875 58.015625 27.296875 
Q 58.015625 14.40625 51.78125 6.484375 
Q 45.5625 -1.421875 35.59375 -1.421875 
Q 29.59375 -1.421875 25.265625 0.953125 
Q 20.953125 3.328125 18.109375 8.203125 
z
M 48.6875 27.296875 
Q 48.6875 37.203125 44.609375 42.84375 
Q 40.53125 48.484375 33.40625 48.484375 
Q 26.265625 48.484375 22.1875 42.84375 
Q 18.109375 37.203125 18.109375 27.296875 
Q 18.109375 17.390625 22.1875 11.75 
Q 26.265625 6.109375 33.40625 6.109375 
Q 40.53125 6.109375 44.609375 11.75 
Q 48.6875 17.390625 48.6875 27.296875 
z
" id="DejaVuSans-112"/>
      <path d="M 48.78125 52.59375 
L 48.78125 44.1875 
Q 44.96875 46.296875 41.140625 47.34375 
Q 37.3125 48.390625 33.40625 48.390625 
Q 24.65625 48.390625 19.8125 42.84375 
Q 14.984375 37.3125 14.984375 27.296875 
Q 14.984375 17.28125 19.8125 11.734375 
Q 24.65625 6.203125 33.40625 6.203125 
Q 37.3125 6.203125 41.140625 7.25 
Q 44.96875 8.296875 48.78125 10.40625 
L 48.78125 2.09375 
Q 45.015625 0.34375 40.984375 -0.53125 
Q 36.96875 -1.421875 32.421875 -1.421875 
Q 20.0625 -1.421875 12.78125 6.34375 
Q 5.515625 14.109375 5.515625 27.296875 
Q 5.515625 40.671875 12.859375 48.328125 
Q 20.21875 56 33.015625 56 
Q 37.15625 56 41.109375 55.140625 
Q 45.0625 54.296875 48.78125 52.59375 
z
" id="DejaVuSans-99"/>
      <path d="M 9.421875 75.984375 
L 18.40625 75.984375 
L 18.40625 0 
L 9.421875 0 
z
" id="DejaVuSans-108"/>
     </defs>
     <g transform="translate(410.13625 501.123625)scale(0.16 -0.16)">
      <use xlink:href="#DejaVuSans-83"/>
      <use x="63.476562" xlink:href="#DejaVuSans-104"/>
      <use x="126.855469" xlink:href="#DejaVuSans-111"/>
      <use x="188.037109" xlink:href="#DejaVuSans-114"/>
      <use x="229.150391" xlink:href="#DejaVuSans-116"/>
      <use x="268.359375" xlink:href="#DejaVuSans-97"/>
      <use x="329.638672" xlink:href="#DejaVuSans-103"/>
      <use x="393.115234" xlink:href="#DejaVuSans-101"/>
      <use x="454.638672" xlink:href="#DejaVuSans-32"/>
      <use x="486.425781" xlink:href="#DejaVuSans-109"/>
      <use x="583.837891" xlink:href="#DejaVuSans-97"/>
      <use x="645.117188" xlink:href="#DejaVuSans-103"/>
      <use x="708.59375" xlink:href="#DejaVuSans-110"/>
      <use x="771.972656" xlink:href="#DejaVuSans-105"/>
      <use x="799.755859" xlink:href="#DejaVuSans-116"/>
      <use x="838.964844" xlink:href="#DejaVuSans-117"/>
      <use x="902.34375" xlink:href="#DejaVuSans-100"/>
      <use x="965.820312" xlink:href="#DejaVuSans-101"/>
      <use x="1027.34375" xlink:href="#DejaVuSans-32"/>
      <use x="1059.130859" xlink:href="#DejaVuSans-112"/>
      <use x="1122.607422" xlink:href="#DejaVuSans-101"/>
      <use x="1184.130859" xlink:href="#DejaVuSans-114"/>
      <use x="1225.212891" xlink:href="#DejaVuSans-99"/>
      <use x="1280.193359" xlink:href="#DejaVuSans-101"/>
      <use x="1341.716797" xlink:href="#DejaVuSans-110"/>
      <use x="1405.095703" xlink:href="#DejaVuSans-116"/>
      <use x="1444.304688" xlink:href="#DejaVuSans-105"/>
      <use x="1472.087891" xlink:href="#DejaVuSans-108"/>
      <use x="1499.871094" xlink:href="#DejaVuSans-101"/>
     </g>
    </g>
   </g>
   <g id="matplotlib.axis_2">
    <g id="ytick_1">
     <g id="line2d_7">
      <defs>
       <path d="M 0 0 
L -3.5 0 
" id="m7989e4e9e3" style="stroke:#000000;stroke-width:0.8;"/>
      </defs>
      <g>
       <use style="stroke:#000000;stroke-width:0.8;" x="130.5" xlink:href="#m7989e4e9e3" y="468.288"/>
      </g>
     </g>
     <g id="text_8">
      <!-- 0.0 -->
      <defs>
       <path d="M 10.6875 12.40625 
L 21 12.40625 
L 21 0 
L 10.6875 0 
z
" id="DejaVuSans-46"/>
      </defs>
      <g transform="translate(107.596875 472.087219)scale(0.1 -0.1)">
       <use xlink:href="#DejaVuSans-48"/>
       <use x="63.623047" xlink:href="#DejaVuSans-46"/>
       <use x="95.410156" xlink:href="#DejaVuSans-48"/>
      </g>
     </g>
    </g>
    <g id="ytick_2">
     <g id="line2d_8">
      <g>
       <use style="stroke:#000000;stroke-width:0.8;" x="130.5" xlink:href="#m7989e4e9e3" y="397.3248"/>
      </g>
     </g>
     <g id="text_9">
      <!-- 0.2 -->
      <g transform="translate(107.596875 401.124019)scale(0.1 -0.1)">
       <use xlink:href="#DejaVuSans-48"/>
       <use x="63.623047" xlink:href="#DejaVuSans-46"/>
       <use x="95.410156" xlink:href="#DejaVuSans-50"/>
      </g>
     </g>
    </g>
    <g id="ytick_3">
     <g id="line2d_9">
      <g>
       <use style="stroke:#000000;stroke-width:0.8;" x="130.5" xlink:href="#m7989e4e9e3" y="326.3616"/>
      </g>
     </g>
     <g id="text_10">
      <!-- 0.4 -->
      <g transform="translate(107.596875 330.160819)scale(0.1 -0.1)">
       <use xlink:href="#DejaVuSans-48"/>
       <use x="63.623047" xlink:href="#DejaVuSans-46"/>
       <use x="95.410156" xlink:href="#DejaVuSans-52"/>
      </g>
     </g>
    </g>
    <g id="ytick_4">
     <g id="line2d_10">
      <g>
       <use style="stroke:#000000;stroke-width:0.8;" x="130.5" xlink:href="#m7989e4e9e3" y="255.3984"/>
      </g>
     </g>
     <g id="text_11">
      <!-- 0.6 -->
      <g transform="translate(107.596875 259.197619)scale(0.1 -0.1)">
       <use xlink:href="#DejaVuSans-48"/>
       <use x="63.623047" xlink:href="#DejaVuSans-46"/>
       <use x="95.410156" xlink:href="#DejaVuSans-54"/>
      </g>
     </g>
    </g>
    <g id="ytick_5">
     <g id="line2d_11">
      <g>
       <use style="stroke:#000000;stroke-width:0.8;" x="130.5" xlink:href="#m7989e4e9e3" y="184.4352"/>
      </g>
     </g>
     <g id="text_12">
      <!-- 0.8 -->
      <g transform="translate(107.596875 188.234419)scale(0.1 -0.1)">
       <use xlink:href="#DejaVuSans-48"/>
       <use x="63.623047" xlink:href="#DejaVuSans-46"/>
       <use x="95.410156" xlink:href="#DejaVuSans-56"/>
      </g>
     </g>
    </g>
    <g id="ytick_6">
     <g id="line2d_12">
      <g>
       <use style="stroke:#000000;stroke-width:0.8;" x="130.5" xlink:href="#m7989e4e9e3" y="113.472"/>
      </g>
     </g>
     <g id="text_13">
      <!-- 1.0 -->
      <g transform="translate(107.596875 117.271219)scale(0.1 -0.1)">
       <use xlink:href="#DejaVuSans-49"/>
       <use x="63.623047" xlink:href="#DejaVuSans-46"/>
       <use x="95.410156" xlink:href="#DejaVuSans-48"/>
      </g>
     </g>
    </g>
    <g id="text_14">
     <!-- Variance explained -->
     <defs>
      <path d="M 28.609375 0 
L 0.78125 72.90625 
L 11.078125 72.90625 
L 34.1875 11.53125 
L 57.328125 72.90625 
L 67.578125 72.90625 
L 39.796875 0 
z
" id="DejaVuSans-86"/>
      <path d="M 54.890625 54.6875 
L 35.109375 28.078125 
L 55.90625 0 
L 45.3125 0 
L 29.390625 21.484375 
L 13.484375 0 
L 2.875 0 
L 24.125 28.609375 
L 4.6875 54.6875 
L 15.28125 54.6875 
L 29.78125 35.203125 
L 44.28125 54.6875 
z
" id="DejaVuSans-120"/>
     </defs>
     <g transform="translate(100.269375 367.7475)rotate(-90)scale(0.16 -0.16)">
      <use xlink:href="#DejaVuSans-86"/>
      <use x="68.298828" xlink:href="#DejaVuSans-97"/>
      <use x="129.578125" xlink:href="#DejaVuSans-114"/>
      <use x="170.691406" xlink:href="#DejaVuSans-105"/>
      <use x="198.474609" xlink:href="#DejaVuSans-97"/>
      <use x="259.753906" xlink:href="#DejaVuSans-110"/>
      <use x="323.132812" xlink:href="#DejaVuSans-99"/>
      <use x="378.113281" xlink:href="#DejaVuSans-101"/>
      <use x="439.636719" xlink:href="#DejaVuSans-32"/>
      <use x="471.423828" xlink:href="#DejaVuSans-101"/>
      <use x="532.931641" xlink:href="#DejaVuSans-120"/>
      <use x="592.111328" xlink:href="#DejaVuSans-112"/>
      <use x="655.587891" xlink:href="#DejaVuSans-108"/>
      <use x="683.371094" xlink:href="#DejaVuSans-97"/>
      <use x="744.650391" xlink:href="#DejaVuSans-105"/>
      <use x="772.433594" xlink:href="#DejaVuSans-110"/>
      <use x="835.8125" xlink:href="#DejaVuSans-101"/>
      <use x="897.335938" xlink:href="#DejaVuSans-100"/>
     </g>
    </g>
   </g>
   <g id="line2d_13">
    <path clip-path="url(#p9986075a03)" d="M 130.5 167.742588 
L 138.591 167.742588 
L 146.682 167.742588 
L 154.773 167.742588 
L 162.864 167.742588 
L 170.955 167.742588 
L 179.046 167.742588 
L 187.137 167.742588 
L 195.228 167.742588 
L 203.319 167.742588 
L 211.41 167.742588 
L 219.501 167.742588 
L 227.592 167.742588 
L 235.683 167.742588 
L 243.774 167.742588 
L 251.865 167.742588 
L 259.956 167.742588 
L 268.047 167.742588 
L 276.138 167.742588 
L 284.229 167.742588 
L 292.32 167.742588 
L 300.411 167.742588 
L 308.502 167.742588 
L 316.593 167.742588 
L 324.684 167.742588 
L 332.775 167.742588 
L 340.866 167.742588 
L 348.957 167.742588 
L 357.048 167.742588 
L 365.139 167.800024 
L 373.23 167.907777 
L 381.321 167.726661 
L 389.412 167.879573 
L 397.503 168.490683 
L 405.594 172.449293 
L 413.685 174.165757 
L 421.776 175.189731 
L 429.867 178.532584 
L 437.958 186.783022 
L 446.049 195.595369 
L 454.14 207.084761 
L 462.231 217.373213 
L 470.322 220.769146 
L 478.413 222.83336 
L 486.504 225.277287 
L 494.595 228.150751 
L 502.686 228.659632 
L 510.777 230.242751 
L 518.868 231.335182 
L 526.959 235.381553 
L 535.05 239.098574 
L 543.141 246.865653 
L 551.232 253.81424 
L 559.323 253.81424 
L 567.414 253.81424 
L 575.505 253.81424 
L 583.596 253.81424 
L 591.687 253.880453 
L 599.778 254.818518 
L 607.869 256.40576 
L 615.96 258.252807 
L 624.051 259.662713 
L 632.142 261.898143 
L 640.233 266.537775 
L 648.324 268.551864 
L 656.415 275.964118 
L 664.506 281.308788 
L 672.597 284.158829 
L 680.688 285.984821 
L 688.779 288.475356 
L 696.87 289.507902 
L 704.961 290.744018 
L 713.052 292.381607 
L 721.143 292.929106 
L 729.234 297.813664 
L 737.325 298.321948 
L 745.416 298.772486 
L 753.507 302.197687 
L 761.598 303.141321 
L 769.689 307.903893 
L 777.78 307.150055 
L 785.871 303.294883 
L 793.962 303.356548 
L 802.053 299.937365 
L 810.144 284.874157 
L 818.235 259.565243 
L 826.326 252.75469 
L 834.417 247.545903 
L 842.508 247.163762 
L 850.599 247.776592 
L 858.69 248.187337 
L 866.781 248.084621 
L 874.872 250.640101 
L 882.963 220.899579 
L 891.054 217.264907 
L 899.145 226.52825 
L 907.236 230.097162 
L 915.327 230.918646 
L 923.418 259.94449 
L 931.509 243.418137 
" style="fill:none;stroke:#f18670;stroke-linecap:square;stroke-width:2;"/>
   </g>
   <g id="line2d_14">
    <path clip-path="url(#p9986075a03)" d="M 130.5 468.157611 
L 138.591 468.157611 
L 146.682 468.157611 
L 154.773 468.157611 
L 162.864 468.157611 
L 170.955 468.157611 
L 179.046 468.157611 
L 187.137 468.157611 
L 195.228 468.157611 
L 203.319 468.157611 
L 211.41 468.157611 
L 219.501 468.157611 
L 227.592 468.157611 
L 235.683 468.157611 
L 243.774 468.157611 
L 251.865 468.157611 
L 259.956 468.157611 
L 268.047 468.157611 
L 276.138 468.157611 
L 284.229 468.157611 
L 292.32 468.157611 
L 300.411 468.157611 
L 308.502 468.157611 
L 316.593 468.157611 
L 324.684 468.157611 
L 332.775 468.157611 
L 340.866 468.157611 
L 348.957 468.157611 
L 357.048 468.157611 
L 365.139 468.151716 
L 373.23 468.160052 
L 381.321 468.182552 
L 389.412 468.163717 
L 397.503 468.131027 
L 405.594 468.097775 
L 413.685 468.163693 
L 421.776 468.17312 
L 429.867 468.156143 
L 437.958 468.188245 
L 446.049 468.185539 
L 454.14 468.186805 
L 462.231 468.182259 
L 470.322 468.192299 
L 478.413 468.194085 
L 486.504 468.194547 
L 494.595 468.202427 
L 502.686 468.193337 
L 510.777 468.186818 
L 518.868 468.192117 
L 526.959 468.16142 
L 535.05 468.127033 
L 543.141 468.147077 
L 551.232 468.110656 
L 559.323 468.110656 
L 567.414 468.110656 
L 575.505 468.110656 
L 583.596 468.110656 
L 591.687 468.108006 
L 599.778 468.077177 
L 607.869 468.026171 
L 615.96 468.055193 
L 624.051 468.07524 
L 632.142 468.090733 
L 640.233 468.034982 
L 648.324 468.061686 
L 656.415 468.106563 
L 664.506 468.106518 
L 672.597 468.121276 
L 680.688 468.1142 
L 688.779 468.12792 
L 696.87 468.124311 
L 704.961 468.10776 
L 713.052 468.104268 
L 721.143 468.155537 
L 729.234 468.242084 
L 737.325 468.244562 
L 745.416 468.249529 
L 753.507 468.233562 
L 761.598 468.213065 
L 769.689 468.181834 
L 777.78 468.138196 
L 785.871 468.168686 
L 793.962 468.1617 
L 802.053 468.164193 
L 810.144 468.15497 
L 818.235 468.180853 
L 826.326 468.223515 
L 834.417 468.235084 
L 842.508 468.216381 
L 850.599 468.242073 
L 858.69 468.240675 
L 866.781 468.248289 
L 874.872 468.219747 
L 882.963 468.119688 
L 891.054 468.126847 
L 899.145 468.188738 
L 907.236 468.196916 
L 915.327 468.2087 
L 923.418 468.257541 
L 931.509 467.999963 
" style="fill:none;stroke:#e24d3f;stroke-linecap:square;stroke-width:2;"/>
   </g>
   <g id="line2d_15">
    <path clip-path="url(#p9986075a03)" d="M 130.5 467.710718 
L 138.591 467.710718 
L 146.682 467.710718 
L 154.773 467.710718 
L 162.864 467.710718 
L 170.955 467.710718 
L 179.046 467.710718 
L 187.137 467.710718 
L 195.228 467.710718 
L 203.319 467.710718 
L 211.41 467.710718 
L 219.501 467.710718 
L 227.592 467.710718 
L 235.683 467.710718 
L 243.774 467.710718 
L 251.865 467.710718 
L 259.956 467.710718 
L 268.047 467.710718 
L 276.138 467.710718 
L 284.229 467.710718 
L 292.32 467.710718 
L 300.411 467.710718 
L 308.502 467.710718 
L 316.593 467.710718 
L 324.684 467.710718 
L 332.775 467.710718 
L 340.866 467.710718 
L 348.957 467.710718 
L 357.048 467.710718 
L 365.139 467.717299 
L 373.23 467.696497 
L 381.321 467.713467 
L 389.412 467.670835 
L 397.503 467.605045 
L 405.594 467.467506 
L 413.685 467.402846 
L 421.776 467.418762 
L 429.867 467.374637 
L 437.958 467.368427 
L 446.049 467.31231 
L 454.14 467.185033 
L 462.231 466.952434 
L 470.322 466.910667 
L 478.413 466.88814 
L 486.504 466.850122 
L 494.595 466.771221 
L 502.686 466.749521 
L 510.777 466.708691 
L 518.868 466.824191 
L 526.959 466.789584 
L 535.05 466.77972 
L 543.141 466.917494 
L 551.232 466.960566 
L 559.323 466.960566 
L 567.414 466.960566 
L 575.505 466.960566 
L 583.596 466.960566 
L 591.687 466.965108 
L 599.778 466.990685 
L 607.869 467.016992 
L 615.96 467.057171 
L 624.051 467.063521 
L 632.142 467.116884 
L 640.233 467.079329 
L 648.324 467.091531 
L 656.415 466.989022 
L 664.506 466.930226 
L 672.597 466.921281 
L 680.688 466.975 
L 688.779 466.881105 
L 696.87 466.863121 
L 704.961 466.889527 
L 713.052 466.94099 
L 721.143 466.872711 
L 729.234 467.036389 
L 737.325 467.079839 
L 745.416 467.055621 
L 753.507 466.946649 
L 761.598 466.968872 
L 769.689 466.961297 
L 777.78 466.888048 
L 785.871 466.906564 
L 793.962 466.925093 
L 802.053 466.908619 
L 810.144 466.979813 
L 818.235 467.130029 
L 826.326 467.369616 
L 834.417 467.357487 
L 842.508 467.261143 
L 850.599 467.216884 
L 858.69 467.207252 
L 866.781 467.196919 
L 874.872 467.316224 
L 882.963 467.589313 
L 891.054 467.516029 
L 899.145 467.196437 
L 907.236 467.328522 
L 915.327 467.380469 
L 923.418 466.974282 
L 931.509 468.214298 
" style="fill:none;stroke:#cf233e;stroke-linecap:square;stroke-width:2;"/>
   </g>
   <g id="line2d_16">
    <path clip-path="url(#p9986075a03)" d="M 130.5 468.0946 
L 138.591 468.0946 
L 146.682 468.0946 
L 154.773 468.0946 
L 162.864 468.0946 
L 170.955 468.0946 
L 179.046 468.0946 
L 187.137 468.0946 
L 195.228 468.0946 
L 203.319 468.0946 
L 211.41 468.0946 
L 219.501 468.0946 
L 227.592 468.0946 
L 235.683 468.0946 
L 243.774 468.0946 
L 251.865 468.0946 
L 259.956 468.0946 
L 268.047 468.0946 
L 276.138 468.0946 
L 284.229 468.0946 
L 292.32 468.0946 
L 300.411 468.0946 
L 308.502 468.0946 
L 316.593 468.0946 
L 324.684 468.0946 
L 332.775 468.0946 
L 340.866 468.0946 
L 348.957 468.0946 
L 357.048 468.0946 
L 365.139 468.090231 
L 373.23 468.085385 
L 381.321 468.089227 
L 389.412 468.093041 
L 397.503 468.100196 
L 405.594 468.17578 
L 413.685 468.174225 
L 421.776 468.176704 
L 429.867 468.22103 
L 437.958 468.213691 
L 446.049 468.213319 
L 454.14 468.184096 
L 462.231 468.193298 
L 470.322 468.212965 
L 478.413 468.206456 
L 486.504 468.21676 
L 494.595 468.230047 
L 502.686 468.227071 
L 510.777 468.233402 
L 518.868 468.227753 
L 526.959 468.229875 
L 535.05 468.239276 
L 543.141 468.241683 
L 551.232 468.284513 
L 559.323 468.284513 
L 567.414 468.284513 
L 575.505 468.284513 
L 583.596 468.284513 
L 591.687 468.284669 
L 599.778 468.284969 
L 607.869 468.287133 
L 615.96 468.287069 
L 624.051 468.286222 
L 632.142 468.287649 
L 640.233 468.287993 
L 648.324 468.287988 
L 656.415 468.286601 
L 664.506 468.28451 
L 672.597 468.284947 
L 680.688 468.283778 
L 688.779 468.281645 
L 696.87 468.2743 
L 704.961 468.275842 
L 713.052 468.277085 
L 721.143 468.270291 
L 729.234 468.285301 
L 737.325 468.282446 
L 745.416 468.280874 
L 753.507 468.285947 
L 761.598 468.287045 
L 769.689 468.277741 
L 777.78 468.259218 
L 785.871 468.221419 
L 793.962 468.257258 
L 802.053 468.246397 
L 810.144 468.264093 
L 818.235 468.28751 
L 826.326 468.268888 
L 834.417 468.266202 
L 842.508 468.260425 
L 850.599 468.271256 
L 858.69 468.282651 
L 866.781 468.287942 
L 874.872 468.249591 
L 882.963 468.250215 
L 891.054 468.24669 
L 899.145 468.249436 
L 907.236 468.263834 
L 915.327 468.278665 
L 923.418 468.227651 
L 931.509 468.278897 
" style="fill:none;stroke:#681e33;stroke-linecap:square;stroke-width:2;"/>
   </g>
   <g id="line2d_17">
    <path clip-path="url(#p9986075a03)" d="M 130.5 467.929693 
L 138.591 467.929693 
L 146.682 467.929693 
L 154.773 467.929693 
L 162.864 467.929693 
L 170.955 467.929693 
L 179.046 467.929693 
L 187.137 467.929693 
L 195.228 467.929693 
L 203.319 467.929693 
L 211.41 467.929693 
L 219.501 467.929693 
L 227.592 467.929693 
L 235.683 467.929693 
L 243.774 467.929693 
L 251.865 467.929693 
L 259.956 467.929693 
L 268.047 467.929693 
L 276.138 467.929693 
L 284.229 467.929693 
L 292.32 467.929693 
L 300.411 467.929693 
L 308.502 467.929693 
L 316.593 467.929693 
L 324.684 467.929693 
L 332.775 467.929693 
L 340.866 467.929693 
L 348.957 467.929693 
L 357.048 467.929693 
L 365.139 467.92419 
L 373.23 467.936924 
L 381.321 467.96272 
L 389.412 467.987505 
L 397.503 467.990921 
L 405.594 468.058395 
L 413.685 468.142973 
L 421.776 468.154148 
L 429.867 468.152804 
L 437.958 468.131612 
L 446.049 468.150775 
L 454.14 468.139012 
L 462.231 468.148623 
L 470.322 468.162111 
L 478.413 468.164039 
L 486.504 468.154277 
L 494.595 468.153612 
L 502.686 468.161475 
L 510.777 468.1728 
L 518.868 468.178885 
L 526.959 468.181557 
L 535.05 468.21189 
L 543.141 468.217584 
L 551.232 468.180911 
L 559.323 468.180911 
L 567.414 468.180911 
L 575.505 468.180911 
L 583.596 468.180911 
L 591.687 468.179411 
L 599.778 468.171903 
L 607.869 468.176733 
L 615.96 468.18054 
L 624.051 468.210342 
L 632.142 468.20985 
L 640.233 468.220959 
L 648.324 468.238718 
L 656.415 468.23394 
L 664.506 468.234223 
L 672.597 468.235225 
L 680.688 468.22449 
L 688.779 468.223886 
L 696.87 468.226278 
L 704.961 468.222913 
L 713.052 468.200094 
L 721.143 468.203037 
L 729.234 468.219991 
L 737.325 468.20896 
L 745.416 468.185691 
L 753.507 468.189317 
L 761.598 468.130821 
L 769.689 468.148208 
L 777.78 468.149008 
L 785.871 468.151411 
L 793.962 468.084953 
L 802.053 468.028525 
L 810.144 468.043709 
L 818.235 468.141683 
L 826.326 468.176601 
L 834.417 468.210964 
L 842.508 468.186366 
L 850.599 468.183823 
L 858.69 468.154472 
L 866.781 468.166272 
L 874.872 468.137945 
L 882.963 468.032804 
L 891.054 468.024948 
L 899.145 468.03124 
L 907.236 468.04532 
L 915.327 468.041307 
L 923.418 468.220216 
L 931.509 467.754444 
" style="fill:none;stroke:#676572;stroke-linecap:square;stroke-width:2;"/>
   </g>
   <g id="line2d_18">
    <path clip-path="url(#p9986075a03)" d="M 130.5 467.57718 
L 138.591 467.57718 
L 146.682 467.57718 
L 154.773 467.57718 
L 162.864 467.57718 
L 170.955 467.57718 
L 179.046 467.57718 
L 187.137 467.57718 
L 195.228 467.57718 
L 203.319 467.57718 
L 211.41 467.57718 
L 219.501 467.57718 
L 227.592 467.57718 
L 235.683 467.57718 
L 243.774 467.57718 
L 251.865 467.57718 
L 259.956 467.57718 
L 268.047 467.57718 
L 276.138 467.57718 
L 284.229 467.57718 
L 292.32 467.57718 
L 300.411 467.57718 
L 308.502 467.57718 
L 316.593 467.57718 
L 324.684 467.57718 
L 332.775 467.57718 
L 340.866 467.57718 
L 348.957 467.57718 
L 357.048 467.57718 
L 365.139 467.584693 
L 373.23 467.626489 
L 381.321 467.62905 
L 389.412 467.616284 
L 397.503 467.52044 
L 405.594 467.437645 
L 413.685 467.399022 
L 421.776 467.403223 
L 429.867 467.479961 
L 437.958 467.530523 
L 446.049 467.500829 
L 454.14 467.57874 
L 462.231 467.61405 
L 470.322 467.62004 
L 478.413 467.653094 
L 486.504 467.686317 
L 494.595 467.684257 
L 502.686 467.691612 
L 510.777 467.746684 
L 518.868 467.747531 
L 526.959 467.718765 
L 535.05 467.673235 
L 543.141 467.719332 
L 551.232 467.724228 
L 559.323 467.724228 
L 567.414 467.724228 
L 575.505 467.724228 
L 583.596 467.724228 
L 591.687 467.728113 
L 599.778 467.689025 
L 607.869 467.680961 
L 615.96 467.649384 
L 624.051 467.664952 
L 632.142 467.634596 
L 640.233 467.647126 
L 648.324 467.678484 
L 656.415 467.732734 
L 664.506 467.763179 
L 672.597 467.749312 
L 680.688 467.732818 
L 688.779 467.754077 
L 696.87 467.745899 
L 704.961 467.752347 
L 713.052 467.654057 
L 721.143 467.658607 
L 729.234 467.785154 
L 737.325 467.794488 
L 745.416 467.735114 
L 753.507 467.82575 
L 761.598 467.810235 
L 769.689 467.895798 
L 777.78 467.833235 
L 785.871 467.80445 
L 793.962 467.800565 
L 802.053 467.775311 
L 810.144 467.756336 
L 818.235 467.856138 
L 826.326 467.884835 
L 834.417 467.897982 
L 842.508 467.955189 
L 850.599 467.919398 
L 858.69 467.882307 
L 866.781 467.772365 
L 874.872 467.743596 
L 882.963 467.877546 
L 891.054 467.776895 
L 899.145 467.965218 
L 907.236 467.968697 
L 915.327 467.916604 
L 923.418 467.985849 
L 931.509 466.99766 
" style="fill:none;stroke:#f3be22;stroke-linecap:square;stroke-width:2;"/>
   </g>
   <g id="line2d_19">
    <path clip-path="url(#p9986075a03)" d="M 130.5 466.050115 
L 138.591 466.050115 
L 146.682 466.050115 
L 154.773 466.050115 
L 162.864 466.050115 
L 170.955 466.050115 
L 179.046 466.050115 
L 187.137 466.050115 
L 195.228 466.050115 
L 203.319 466.050115 
L 211.41 466.050115 
L 219.501 466.050115 
L 227.592 466.050115 
L 235.683 466.050115 
L 243.774 466.050115 
L 251.865 466.050115 
L 259.956 466.050115 
L 268.047 466.050115 
L 276.138 466.050115 
L 284.229 466.050115 
L 292.32 466.050115 
L 300.411 466.050115 
L 308.502 466.050115 
L 316.593 466.050115 
L 324.684 466.050115 
L 332.775 466.050115 
L 340.866 466.050115 
L 348.957 466.050115 
L 357.048 466.050115 
L 365.139 466.078634 
L 373.23 465.986517 
L 381.321 465.999982 
L 389.412 466.098084 
L 397.503 466.08684 
L 405.594 466.009782 
L 413.685 466.118163 
L 421.776 466.08139 
L 429.867 466.002683 
L 437.958 465.897636 
L 446.049 466.030847 
L 454.14 466.10526 
L 462.231 465.872065 
L 470.322 465.912003 
L 478.413 465.993008 
L 486.504 466.015064 
L 494.595 466.074548 
L 502.686 466.068033 
L 510.777 466.157701 
L 518.868 466.221716 
L 526.959 466.20449 
L 535.05 466.246441 
L 543.141 466.403575 
L 551.232 466.443216 
L 559.323 466.443216 
L 567.414 466.443216 
L 575.505 466.443216 
L 583.596 466.443216 
L 591.687 466.433821 
L 599.778 466.409553 
L 607.869 466.444061 
L 615.96 466.481755 
L 624.051 466.500241 
L 632.142 466.513514 
L 640.233 466.492957 
L 648.324 466.422677 
L 656.415 466.499312 
L 664.506 466.420268 
L 672.597 466.442405 
L 680.688 466.536962 
L 688.779 466.623462 
L 696.87 466.665175 
L 704.961 466.721445 
L 713.052 466.598052 
L 721.143 466.60867 
L 729.234 466.617493 
L 737.325 466.588225 
L 745.416 466.50713 
L 753.507 466.391439 
L 761.598 466.429942 
L 769.689 466.526676 
L 777.78 466.39318 
L 785.871 466.529403 
L 793.962 466.71803 
L 802.053 466.758812 
L 810.144 466.573441 
L 818.235 466.432572 
L 826.326 466.349119 
L 834.417 466.167437 
L 842.508 466.066362 
L 850.599 466.033995 
L 858.69 466.145652 
L 866.781 466.164096 
L 874.872 466.178533 
L 882.963 466.556848 
L 891.054 466.470981 
L 899.145 466.545132 
L 907.236 466.454071 
L 915.327 466.542206 
L 923.418 466.087434 
L 931.509 467.024589 
" style="fill:none;stroke:#59deba;stroke-linecap:square;stroke-width:2;"/>
   </g>
   <g id="line2d_20">
    <path clip-path="url(#p9986075a03)" d="M 130.5 468.175663 
L 138.591 468.175663 
L 146.682 468.175663 
L 154.773 468.175663 
L 162.864 468.175663 
L 170.955 468.175663 
L 179.046 468.175663 
L 187.137 468.175663 
L 195.228 468.175663 
L 203.319 468.175663 
L 211.41 468.175663 
L 219.501 468.175663 
L 227.592 468.175663 
L 235.683 468.175663 
L 243.774 468.175663 
L 251.865 468.175663 
L 259.956 468.175663 
L 268.047 468.175663 
L 276.138 468.175663 
L 284.229 468.175663 
L 292.32 468.175663 
L 300.411 468.175663 
L 308.502 468.175663 
L 316.593 468.175663 
L 324.684 468.175663 
L 332.775 468.175663 
L 340.866 468.175663 
L 348.957 468.175663 
L 357.048 468.175663 
L 365.139 468.173366 
L 373.23 468.178903 
L 381.321 468.159014 
L 389.412 468.152178 
L 397.503 468.11985 
L 405.594 468.044996 
L 413.685 467.993586 
L 421.776 468.014523 
L 429.867 467.957736 
L 437.958 467.922206 
L 446.049 467.935875 
L 454.14 467.928888 
L 462.231 467.892457 
L 470.322 467.93388 
L 478.413 467.954539 
L 486.504 467.935065 
L 494.595 467.867178 
L 502.686 467.853781 
L 510.777 467.841671 
L 518.868 467.863012 
L 526.959 467.862428 
L 535.05 467.844148 
L 543.141 467.714293 
L 551.232 467.723886 
L 559.323 467.723886 
L 567.414 467.723886 
L 575.505 467.723886 
L 583.596 467.723886 
L 591.687 467.732407 
L 599.778 467.678458 
L 607.869 467.665666 
L 615.96 467.645435 
L 624.051 467.679614 
L 632.142 467.674452 
L 640.233 467.687418 
L 648.324 467.735579 
L 656.415 467.829054 
L 664.506 467.828071 
L 672.597 467.79499 
L 680.688 467.755194 
L 688.779 467.769873 
L 696.87 467.72552 
L 704.961 467.737069 
L 713.052 467.703484 
L 721.143 467.690177 
L 729.234 467.657146 
L 737.325 467.621296 
L 745.416 467.607451 
L 753.507 467.56984 
L 761.598 467.547874 
L 769.689 467.382165 
L 777.78 467.381122 
L 785.871 467.459075 
L 793.962 467.396347 
L 802.053 467.314337 
L 810.144 467.124513 
L 818.235 467.25053 
L 826.326 467.02446 
L 834.417 466.860082 
L 842.508 466.904777 
L 850.599 466.945456 
L 858.69 466.758133 
L 866.781 466.611959 
L 874.872 466.265782 
L 882.963 465.322067 
L 891.054 465.52427 
L 899.145 465.476518 
L 907.236 465.496208 
L 915.327 465.475127 
L 923.418 465.277591 
L 931.509 466.120504 
" style="fill:none;stroke:#14015c;stroke-linecap:square;stroke-width:2;"/>
   </g>
   <g id="line2d_21">
    <path clip-path="url(#p9986075a03)" d="M 130.5 468.033545 
L 138.591 468.033545 
L 146.682 468.033545 
L 154.773 468.033545 
L 162.864 468.033545 
L 170.955 468.033545 
L 179.046 468.033545 
L 187.137 468.033545 
L 195.228 468.033545 
L 203.319 468.033545 
L 211.41 468.033545 
L 219.501 468.033545 
L 227.592 468.033545 
L 235.683 468.033545 
L 243.774 468.033545 
L 251.865 468.033545 
L 259.956 468.033545 
L 268.047 468.033545 
L 276.138 468.033545 
L 284.229 468.033545 
L 292.32 468.033545 
L 300.411 468.033545 
L 308.502 468.033545 
L 316.593 468.033545 
L 324.684 468.033545 
L 332.775 468.033545 
L 340.866 468.033545 
L 348.957 468.033545 
L 357.048 468.033545 
L 365.139 468.033628 
L 373.23 468.035539 
L 381.321 468.045095 
L 389.412 468.028894 
L 397.503 468.033483 
L 405.594 468.087762 
L 413.685 468.142487 
L 421.776 468.150515 
L 429.867 468.158539 
L 437.958 468.216371 
L 446.049 468.190021 
L 454.14 468.193023 
L 462.231 468.245402 
L 470.322 468.251603 
L 478.413 468.239088 
L 486.504 468.240019 
L 494.595 468.238035 
L 502.686 468.237966 
L 510.777 468.23616 
L 518.868 468.234585 
L 526.959 468.249399 
L 535.05 468.252893 
L 543.141 468.250121 
L 551.232 468.261858 
L 559.323 468.261858 
L 567.414 468.261858 
L 575.505 468.261858 
L 583.596 468.261858 
L 591.687 468.261074 
L 599.778 468.263163 
L 607.869 468.243868 
L 615.96 468.244542 
L 624.051 468.24158 
L 632.142 468.239791 
L 640.233 468.247446 
L 648.324 468.25041 
L 656.415 468.254137 
L 664.506 468.230135 
L 672.597 468.233783 
L 680.688 468.219173 
L 688.779 468.21967 
L 696.87 468.215791 
L 704.961 468.197498 
L 713.052 468.228577 
L 721.143 468.208054 
L 729.234 468.260399 
L 737.325 468.2642 
L 745.416 468.263304 
L 753.507 468.25237 
L 761.598 468.239605 
L 769.689 468.255735 
L 777.78 468.262624 
L 785.871 468.2636 
L 793.962 468.270931 
L 802.053 468.26904 
L 810.144 468.283562 
L 818.235 468.240977 
L 826.326 468.266387 
L 834.417 468.267896 
L 842.508 468.263133 
L 850.599 468.270362 
L 858.69 468.260159 
L 866.781 468.267961 
L 874.872 468.276347 
L 882.963 468.272265 
L 891.054 468.276297 
L 899.145 468.284468 
L 907.236 468.286133 
L 915.327 468.287942 
L 923.418 468.269806 
L 931.509 468.228692 
" style="fill:none;stroke:#daf8a3;stroke-linecap:square;stroke-width:2;"/>
   </g>
   <g id="line2d_22">
    <path clip-path="url(#p9986075a03)" d="M 130.5 467.508723 
L 138.591 467.508723 
L 146.682 467.508723 
L 154.773 467.508723 
L 162.864 467.508723 
L 170.955 467.508723 
L 179.046 467.508723 
L 187.137 467.508723 
L 195.228 467.508723 
L 203.319 467.508723 
L 211.41 467.508723 
L 219.501 467.508723 
L 227.592 467.508723 
L 235.683 467.508723 
L 243.774 467.508723 
L 251.865 467.508723 
L 259.956 467.508723 
L 268.047 467.508723 
L 276.138 467.508723 
L 284.229 467.508723 
L 292.32 467.508723 
L 300.411 467.508723 
L 308.502 467.508723 
L 316.593 467.508723 
L 324.684 467.508723 
L 332.775 467.508723 
L 340.866 467.508723 
L 348.957 467.508723 
L 357.048 467.508723 
L 365.139 467.504964 
L 373.23 467.521987 
L 381.321 467.569731 
L 389.412 467.659779 
L 397.503 467.652224 
L 405.594 467.834783 
L 413.685 467.936767 
L 421.776 467.970489 
L 429.867 467.963232 
L 437.958 468.067975 
L 446.049 468.144305 
L 454.14 468.173993 
L 462.231 468.209018 
L 470.322 468.237894 
L 478.413 468.240094 
L 486.504 468.251915 
L 494.595 468.240003 
L 502.686 468.236581 
L 510.777 468.244509 
L 518.868 468.247945 
L 526.959 468.261299 
L 535.05 468.249791 
L 543.141 468.228986 
L 551.232 468.234818 
L 559.323 468.234818 
L 567.414 468.234818 
L 575.505 468.234818 
L 583.596 468.234818 
L 591.687 468.235419 
L 599.778 468.246254 
L 607.869 468.262087 
L 615.96 468.260243 
L 624.051 468.265696 
L 632.142 468.274557 
L 640.233 468.27169 
L 648.324 468.26326 
L 656.415 468.272778 
L 664.506 468.258739 
L 672.597 468.243791 
L 680.688 468.258092 
L 688.779 468.266288 
L 696.87 468.260484 
L 704.961 468.263751 
L 713.052 468.265944 
L 721.143 468.273593 
L 729.234 468.228006 
L 737.325 468.226262 
L 745.416 468.206859 
L 753.507 468.179124 
L 761.598 468.215125 
L 769.689 468.199391 
L 777.78 468.187191 
L 785.871 468.21084 
L 793.962 468.203656 
L 802.053 468.185358 
L 810.144 468.22007 
L 818.235 468.268971 
L 826.326 468.272804 
L 834.417 468.271288 
L 842.508 468.277188 
L 850.599 468.262445 
L 858.69 468.264819 
L 866.781 468.252795 
L 874.872 468.24108 
L 882.963 468.243975 
L 891.054 468.199916 
L 899.145 468.280458 
L 907.236 468.277547 
L 915.327 468.282367 
L 923.418 468.281442 
L 931.509 467.635381 
" style="fill:none;stroke:#0b7a0a;stroke-linecap:square;stroke-width:2;"/>
   </g>
   <g id="line2d_23">
    <path clip-path="url(#p9986075a03)" d="M 130.5 467.734732 
L 138.591 467.734732 
L 146.682 467.734732 
L 154.773 467.734732 
L 162.864 467.734732 
L 170.955 467.734732 
L 179.046 467.734732 
L 187.137 467.734732 
L 195.228 467.734732 
L 203.319 467.734732 
L 211.41 467.734732 
L 219.501 467.734732 
L 227.592 467.734732 
L 235.683 467.734732 
L 243.774 467.734732 
L 251.865 467.734732 
L 259.956 467.734732 
L 268.047 467.734732 
L 276.138 467.734732 
L 284.229 467.734732 
L 292.32 467.734732 
L 300.411 467.734732 
L 308.502 467.734732 
L 316.593 467.734732 
L 324.684 467.734732 
L 332.775 467.734732 
L 340.866 467.734732 
L 348.957 467.734732 
L 357.048 467.734732 
L 365.139 467.725659 
L 373.23 467.737628 
L 381.321 467.79268 
L 389.412 467.840523 
L 397.503 467.891565 
L 405.594 467.859324 
L 413.685 467.816387 
L 421.776 467.830651 
L 429.867 467.871132 
L 437.958 467.824011 
L 446.049 467.849275 
L 454.14 467.804669 
L 462.231 467.756805 
L 470.322 467.734358 
L 478.413 467.723916 
L 486.504 467.726387 
L 494.595 467.751382 
L 502.686 467.758644 
L 510.777 467.747322 
L 518.868 467.755114 
L 526.959 467.788236 
L 535.05 467.798943 
L 543.141 467.904946 
L 551.232 467.870653 
L 559.323 467.870653 
L 567.414 467.870653 
L 575.505 467.870653 
L 583.596 467.870653 
L 591.687 467.866874 
L 599.778 467.872842 
L 607.869 467.892645 
L 615.96 467.867547 
L 624.051 467.89503 
L 632.142 467.86842 
L 640.233 467.902223 
L 648.324 467.886593 
L 656.415 467.842551 
L 664.506 467.787088 
L 672.597 467.806366 
L 680.688 467.805466 
L 688.779 467.775812 
L 696.87 467.752183 
L 704.961 467.735649 
L 713.052 467.759389 
L 721.143 467.80635 
L 729.234 467.777454 
L 737.325 467.826936 
L 745.416 467.862715 
L 753.507 467.943974 
L 761.598 467.947787 
L 769.689 467.855223 
L 777.78 467.794761 
L 785.871 467.705099 
L 793.962 467.692079 
L 802.053 467.705063 
L 810.144 467.874026 
L 818.235 467.804771 
L 826.326 467.653033 
L 834.417 467.696629 
L 842.508 467.63909 
L 850.599 467.652512 
L 858.69 467.62429 
L 866.781 467.651468 
L 874.872 467.645669 
L 882.963 467.556771 
L 891.054 467.595799 
L 899.145 467.706599 
L 907.236 467.705457 
L 915.327 467.695433 
L 923.418 467.844981 
L 931.509 467.790186 
" style="fill:none;stroke:#f8ffa2;stroke-linecap:square;stroke-width:2;"/>
   </g>
   <g id="line2d_24">
    <path clip-path="url(#p9986075a03)" d="M 130.5 467.999274 
L 138.591 467.999274 
L 146.682 467.999274 
L 154.773 467.999274 
L 162.864 467.999274 
L 170.955 467.999274 
L 179.046 467.999274 
L 187.137 467.999274 
L 195.228 467.999274 
L 203.319 467.999274 
L 211.41 467.999274 
L 219.501 467.999274 
L 227.592 467.999274 
L 235.683 467.999274 
L 243.774 467.999274 
L 251.865 467.999274 
L 259.956 467.999274 
L 268.047 467.999274 
L 276.138 467.999274 
L 284.229 467.999274 
L 292.32 467.999274 
L 300.411 467.999274 
L 308.502 467.999274 
L 316.593 467.999274 
L 324.684 467.999274 
L 332.775 467.999274 
L 340.866 467.999274 
L 348.957 467.999274 
L 357.048 467.999274 
L 365.139 468.00022 
L 373.23 468.033018 
L 381.321 468.059375 
L 389.412 468.059485 
L 397.503 468.055475 
L 405.594 468.158886 
L 413.685 468.136031 
L 421.776 468.109655 
L 429.867 468.129966 
L 437.958 468.161769 
L 446.049 468.177394 
L 454.14 468.219176 
L 462.231 468.241596 
L 470.322 468.24264 
L 478.413 468.22856 
L 486.504 468.239305 
L 494.595 468.237514 
L 502.686 468.233688 
L 510.777 468.240789 
L 518.868 468.249215 
L 526.959 468.25831 
L 535.05 468.264214 
L 543.141 468.26086 
L 551.232 468.272922 
L 559.323 468.272922 
L 567.414 468.272922 
L 575.505 468.272922 
L 583.596 468.272922 
L 591.687 468.273343 
L 599.778 468.276754 
L 607.869 468.281789 
L 615.96 468.28449 
L 624.051 468.283701 
L 632.142 468.283768 
L 640.233 468.287073 
L 648.324 468.28385 
L 656.415 468.264447 
L 664.506 468.270754 
L 672.597 468.266657 
L 680.688 468.2741 
L 688.779 468.280165 
L 696.87 468.277417 
L 704.961 468.278448 
L 713.052 468.283454 
L 721.143 468.283547 
L 729.234 468.284117 
L 737.325 468.285588 
L 745.416 468.284883 
L 753.507 468.287987 
L 761.598 468.287233 
L 769.689 468.287652 
L 777.78 468.282828 
L 785.871 468.287673 
L 793.962 468.286684 
L 802.053 468.287338 
L 810.144 468.269238 
L 818.235 468.182979 
L 826.326 468.086615 
L 834.417 468.066017 
L 842.508 468.112769 
L 850.599 468.143627 
L 858.69 468.153269 
L 866.781 468.130892 
L 874.872 468.203582 
L 882.963 467.966545 
L 891.054 468.029401 
L 899.145 467.90261 
L 907.236 467.847866 
L 915.327 467.831991 
L 923.418 467.988157 
L 931.509 467.444595 
" style="fill:none;stroke:#578dc0;stroke-linecap:square;stroke-width:2;"/>
   </g>
   <g id="line2d_25">
    <path clip-path="url(#p9986075a03)" d="M 130.5 468.267272 
L 138.591 468.267272 
L 146.682 468.267272 
L 154.773 468.267272 
L 162.864 468.267272 
L 170.955 468.267272 
L 179.046 468.267272 
L 187.137 468.267272 
L 195.228 468.267272 
L 203.319 468.267272 
L 211.41 468.267272 
L 219.501 468.267272 
L 227.592 468.267272 
L 235.683 468.267272 
L 243.774 468.267272 
L 251.865 468.267272 
L 259.956 468.267272 
L 268.047 468.267272 
L 276.138 468.267272 
L 284.229 468.267272 
L 292.32 468.267272 
L 300.411 468.267272 
L 308.502 468.267272 
L 316.593 468.267272 
L 324.684 468.267272 
L 332.775 468.267272 
L 340.866 468.267272 
L 348.957 468.267272 
L 357.048 468.267272 
L 365.139 468.266478 
L 373.23 468.262041 
L 381.321 468.268561 
L 389.412 468.270138 
L 397.503 468.273877 
L 405.594 468.287732 
L 413.685 468.287884 
L 421.776 468.287112 
L 429.867 468.287925 
L 437.958 468.287992 
L 446.049 468.287977 
L 454.14 468.287919 
L 462.231 468.282463 
L 470.322 468.26499 
L 478.413 468.261775 
L 486.504 468.264331 
L 494.595 468.254286 
L 502.686 468.250005 
L 510.777 468.250002 
L 518.868 468.252219 
L 526.959 468.251599 
L 535.05 468.25719 
L 543.141 468.257753 
L 551.232 468.241904 
L 559.323 468.241904 
L 567.414 468.241904 
L 575.505 468.241904 
L 583.596 468.241904 
L 591.687 468.243209 
L 599.778 468.246927 
L 607.869 468.249827 
L 615.96 468.242789 
L 624.051 468.248137 
L 632.142 468.23601 
L 640.233 468.233079 
L 648.324 468.225351 
L 656.415 468.215296 
L 664.506 468.196786 
L 672.597 468.216728 
L 680.688 468.198576 
L 688.779 468.188406 
L 696.87 468.183491 
L 704.961 468.192322 
L 713.052 468.207542 
L 721.143 468.201305 
L 729.234 468.187037 
L 737.325 468.185021 
L 745.416 468.21269 
L 753.507 468.213548 
L 761.598 468.203008 
L 769.689 468.178133 
L 777.78 468.148777 
L 785.871 468.177104 
L 793.962 468.173924 
L 802.053 468.171213 
L 810.144 468.187509 
L 818.235 468.248337 
L 826.326 468.220868 
L 834.417 468.195373 
L 842.508 468.200168 
L 850.599 468.173205 
L 858.69 468.18316 
L 866.781 468.178592 
L 874.872 468.28356 
L 882.963 468.281966 
L 891.054 468.287983 
L 899.145 468.279758 
L 907.236 468.281453 
L 915.327 468.282029 
L 923.418 468.287977 
L 931.509 468.184686 
" style="fill:none;stroke:#4e4ad8;stroke-linecap:square;stroke-width:2;"/>
   </g>
   <g id="line2d_26">
    <path clip-path="url(#p9986075a03)" d="M 130.5 468.163722 
L 138.591 468.163722 
L 146.682 468.163722 
L 154.773 468.163722 
L 162.864 468.163722 
L 170.955 468.163722 
L 179.046 468.163722 
L 187.137 468.163722 
L 195.228 468.163722 
L 203.319 468.163722 
L 211.41 468.163722 
L 219.501 468.163722 
L 227.592 468.163722 
L 235.683 468.163722 
L 243.774 468.163722 
L 251.865 468.163722 
L 259.956 468.163722 
L 268.047 468.163722 
L 276.138 468.163722 
L 284.229 468.163722 
L 292.32 468.163722 
L 300.411 468.163722 
L 308.502 468.163722 
L 316.593 468.163722 
L 324.684 468.163722 
L 332.775 468.163722 
L 340.866 468.163722 
L 348.957 468.163722 
L 357.048 468.163722 
L 365.139 468.166337 
L 373.23 468.162971 
L 381.321 468.171146 
L 389.412 468.189703 
L 397.503 468.209091 
L 405.594 468.181977 
L 413.685 468.167998 
L 421.776 468.168087 
L 429.867 468.157311 
L 437.958 468.199691 
L 446.049 468.234707 
L 454.14 468.229584 
L 462.231 468.235408 
L 470.322 468.236408 
L 478.413 468.239194 
L 486.504 468.225231 
L 494.595 468.233827 
L 502.686 468.23512 
L 510.777 468.242921 
L 518.868 468.246251 
L 526.959 468.262123 
L 535.05 468.256625 
L 543.141 468.26606 
L 551.232 468.2514 
L 559.323 468.2514 
L 567.414 468.2514 
L 575.505 468.2514 
L 583.596 468.2514 
L 591.687 468.252656 
L 599.778 468.256304 
L 607.869 468.25635 
L 615.96 468.263518 
L 624.051 468.261762 
L 632.142 468.264864 
L 640.233 468.276634 
L 648.324 468.267019 
L 656.415 468.247359 
L 664.506 468.250026 
L 672.597 468.232161 
L 680.688 468.242005 
L 688.779 468.237984 
L 696.87 468.236701 
L 704.961 468.24041 
L 713.052 468.254294 
L 721.143 468.25089 
L 729.234 468.266871 
L 737.325 468.268054 
L 745.416 468.271242 
L 753.507 468.277789 
L 761.598 468.279902 
L 769.689 468.26999 
L 777.78 468.281695 
L 785.871 468.287911 
L 793.962 468.281805 
L 802.053 468.282337 
L 810.144 468.281723 
L 818.235 468.280709 
L 826.326 468.287734 
L 834.417 468.287585 
L 842.508 468.287856 
L 850.599 468.287795 
L 858.69 468.287577 
L 866.781 468.287916 
L 874.872 468.27943 
L 882.963 468.274375 
L 891.054 468.284511 
L 899.145 468.251929 
L 907.236 468.27046 
L 915.327 468.263072 
L 923.418 468.242517 
L 931.509 468.282069 
" style="fill:none;stroke:#32b3f7;stroke-linecap:square;stroke-width:2;"/>
   </g>
   <g id="patch_3">
    <path d="M 130.5 468.288 
L 130.5 113.472 
" style="fill:none;stroke:#000000;stroke-linecap:square;stroke-linejoin:miter;stroke-width:0.8;"/>
   </g>
   <g id="patch_4">
    <path d="M 939.6 468.288 
L 939.6 113.472 
" style="fill:none;stroke:#000000;stroke-linecap:square;stroke-linejoin:miter;stroke-width:0.8;"/>
   </g>
   <g id="patch_5">
    <path d="M 130.5 468.288 
L 939.6 468.288 
" style="fill:none;stroke:#000000;stroke-linecap:square;stroke-linejoin:miter;stroke-width:0.8;"/>
   </g>
   <g id="patch_6">
    <path d="M 130.5 113.472 
L 939.6 113.472 
" style="fill:none;stroke:#000000;stroke-linecap:square;stroke-linejoin:miter;stroke-width:0.8;"/>
   </g>
   <g id="text_15">
    <!-- R2 -->
    <defs>
     <path d="M 44.390625 34.1875 
Q 47.5625 33.109375 50.5625 29.59375 
Q 53.5625 26.078125 56.59375 19.921875 
L 66.609375 0 
L 56 0 
L 46.6875 18.703125 
Q 43.0625 26.03125 39.671875 28.421875 
Q 36.28125 30.8125 30.421875 30.8125 
L 19.671875 30.8125 
L 19.671875 0 
L 9.8125 0 
L 9.8125 72.90625 
L 32.078125 72.90625 
Q 44.578125 72.90625 50.734375 67.671875 
Q 56.890625 62.453125 56.890625 51.90625 
Q 56.890625 45.015625 53.6875 40.46875 
Q 50.484375 35.9375 44.390625 34.1875 
z
M 19.671875 64.796875 
L 19.671875 38.921875 
L 32.078125 38.921875 
Q 39.203125 38.921875 42.84375 42.21875 
Q 46.484375 45.515625 46.484375 51.90625 
Q 46.484375 58.296875 42.84375 61.546875 
Q 39.203125 64.796875 32.078125 64.796875 
z
" id="DejaVuSans-82"/>
    </defs>
    <g transform="translate(527.063437 107.472)scale(0.12 -0.12)">
     <use xlink:href="#DejaVuSans-82"/>
     <use x="69.482422" xlink:href="#DejaVuSans-50"/>
    </g>
   </g>
   <g id="legend_1">
    <g id="patch_7">
     <path d="M 152.324219 640.696 
L 917.775781 640.696 
Q 919.775781 640.696 919.775781 638.696 
L 919.775781 595.661625 
Q 919.775781 593.661625 917.775781 593.661625 
L 152.324219 593.661625 
Q 150.324219 593.661625 150.324219 595.661625 
L 150.324219 638.696 
Q 150.324219 640.696 152.324219 640.696 
z
" style="fill:#ffffff;opacity:0.8;stroke:#cccccc;stroke-linejoin:miter;"/>
    </g>
    <g id="line2d_27">
     <path style="fill:none;stroke:#f18670;stroke-linecap:square;stroke-width:2;"/>
    </g>
    <g id="line2d_28"/>
    <g id="text_16">
     <!-- IWR demand mutliplier -->
     <defs>
      <path d="M 9.8125 72.90625 
L 19.671875 72.90625 
L 19.671875 0 
L 9.8125 0 
z
" id="DejaVuSans-73"/>
      <path d="M 3.328125 72.90625 
L 13.28125 72.90625 
L 28.609375 11.28125 
L 43.890625 72.90625 
L 54.984375 72.90625 
L 70.3125 11.28125 
L 85.59375 72.90625 
L 95.609375 72.90625 
L 77.296875 0 
L 64.890625 0 
L 49.515625 63.28125 
L 33.984375 0 
L 21.578125 0 
z
" id="DejaVuSans-87"/>
     </defs>
     <g transform="translate(182.324219 605.260063)scale(0.1 -0.1)">
      <use xlink:href="#DejaVuSans-73"/>
      <use x="29.492188" xlink:href="#DejaVuSans-87"/>
      <use x="128.369141" xlink:href="#DejaVuSans-82"/>
      <use x="197.851562" xlink:href="#DejaVuSans-32"/>
      <use x="229.638672" xlink:href="#DejaVuSans-100"/>
      <use x="293.115234" xlink:href="#DejaVuSans-101"/>
      <use x="354.638672" xlink:href="#DejaVuSans-109"/>
      <use x="452.050781" xlink:href="#DejaVuSans-97"/>
      <use x="513.330078" xlink:href="#DejaVuSans-110"/>
      <use x="576.708984" xlink:href="#DejaVuSans-100"/>
      <use x="640.185547" xlink:href="#DejaVuSans-32"/>
      <use x="671.972656" xlink:href="#DejaVuSans-109"/>
      <use x="769.384766" xlink:href="#DejaVuSans-117"/>
      <use x="832.763672" xlink:href="#DejaVuSans-116"/>
      <use x="871.972656" xlink:href="#DejaVuSans-108"/>
      <use x="899.755859" xlink:href="#DejaVuSans-105"/>
      <use x="927.539062" xlink:href="#DejaVuSans-112"/>
      <use x="991.015625" xlink:href="#DejaVuSans-108"/>
      <use x="1018.798828" xlink:href="#DejaVuSans-105"/>
      <use x="1046.582031" xlink:href="#DejaVuSans-101"/>
      <use x="1108.105469" xlink:href="#DejaVuSans-114"/>
     </g>
    </g>
    <g id="line2d_29">
     <path style="fill:none;stroke:#e24d3f;stroke-linecap:square;stroke-width:2;"/>
    </g>
    <g id="line2d_30"/>
    <g id="text_17">
     <!-- Reservoir loss -->
     <defs>
      <path d="M 44.28125 53.078125 
L 44.28125 44.578125 
Q 40.484375 46.53125 36.375 47.5 
Q 32.28125 48.484375 27.875 48.484375 
Q 21.1875 48.484375 17.84375 46.4375 
Q 14.5 44.390625 14.5 40.28125 
Q 14.5 37.15625 16.890625 35.375 
Q 19.28125 33.59375 26.515625 31.984375 
L 29.59375 31.296875 
Q 39.15625 29.25 43.1875 25.515625 
Q 47.21875 21.78125 47.21875 15.09375 
Q 47.21875 7.46875 41.1875 3.015625 
Q 35.15625 -1.421875 24.609375 -1.421875 
Q 20.21875 -1.421875 15.453125 -0.5625 
Q 10.6875 0.296875 5.421875 2 
L 5.421875 11.28125 
Q 10.40625 8.6875 15.234375 7.390625 
Q 20.0625 6.109375 24.8125 6.109375 
Q 31.15625 6.109375 34.5625 8.28125 
Q 37.984375 10.453125 37.984375 14.40625 
Q 37.984375 18.0625 35.515625 20.015625 
Q 33.0625 21.96875 24.703125 23.78125 
L 21.578125 24.515625 
Q 13.234375 26.265625 9.515625 29.90625 
Q 5.8125 33.546875 5.8125 39.890625 
Q 5.8125 47.609375 11.28125 51.796875 
Q 16.75 56 26.8125 56 
Q 31.78125 56 36.171875 55.265625 
Q 40.578125 54.546875 44.28125 53.078125 
z
" id="DejaVuSans-115"/>
      <path d="M 2.984375 54.6875 
L 12.5 54.6875 
L 29.59375 8.796875 
L 46.6875 54.6875 
L 56.203125 54.6875 
L 35.6875 0 
L 23.484375 0 
z
" id="DejaVuSans-118"/>
     </defs>
     <g transform="translate(182.324219 619.938188)scale(0.1 -0.1)">
      <use xlink:href="#DejaVuSans-82"/>
      <use x="69.419922" xlink:href="#DejaVuSans-101"/>
      <use x="130.943359" xlink:href="#DejaVuSans-115"/>
      <use x="183.042969" xlink:href="#DejaVuSans-101"/>
      <use x="244.566406" xlink:href="#DejaVuSans-114"/>
      <use x="285.679688" xlink:href="#DejaVuSans-118"/>
      <use x="344.859375" xlink:href="#DejaVuSans-111"/>
      <use x="406.041016" xlink:href="#DejaVuSans-105"/>
      <use x="433.824219" xlink:href="#DejaVuSans-114"/>
      <use x="474.9375" xlink:href="#DejaVuSans-32"/>
      <use x="506.724609" xlink:href="#DejaVuSans-108"/>
      <use x="534.507812" xlink:href="#DejaVuSans-111"/>
      <use x="595.689453" xlink:href="#DejaVuSans-115"/>
      <use x="647.789062" xlink:href="#DejaVuSans-115"/>
     </g>
    </g>
    <g id="line2d_31">
     <path style="fill:none;stroke:#cf233e;stroke-linecap:square;stroke-width:2;"/>
    </g>
    <g id="line2d_32"/>
    <g id="text_18">
     <!-- TBD demand multiplier -->
     <defs>
      <path d="M -0.296875 72.90625 
L 61.375 72.90625 
L 61.375 64.59375 
L 35.5 64.59375 
L 35.5 0 
L 25.59375 0 
L 25.59375 64.59375 
L -0.296875 64.59375 
z
" id="DejaVuSans-84"/>
      <path d="M 19.671875 34.8125 
L 19.671875 8.109375 
L 35.5 8.109375 
Q 43.453125 8.109375 47.28125 11.40625 
Q 51.125 14.703125 51.125 21.484375 
Q 51.125 28.328125 47.28125 31.5625 
Q 43.453125 34.8125 35.5 34.8125 
z
M 19.671875 64.796875 
L 19.671875 42.828125 
L 34.28125 42.828125 
Q 41.5 42.828125 45.03125 45.53125 
Q 48.578125 48.25 48.578125 53.8125 
Q 48.578125 59.328125 45.03125 62.0625 
Q 41.5 64.796875 34.28125 64.796875 
z
M 9.8125 72.90625 
L 35.015625 72.90625 
Q 46.296875 72.90625 52.390625 68.21875 
Q 58.5 63.53125 58.5 54.890625 
Q 58.5 48.1875 55.375 44.234375 
Q 52.25 40.28125 46.1875 39.3125 
Q 53.46875 37.75 57.5 32.78125 
Q 61.53125 27.828125 61.53125 20.40625 
Q 61.53125 10.640625 54.890625 5.3125 
Q 48.25 0 35.984375 0 
L 9.8125 0 
z
" id="DejaVuSans-66"/>
      <path d="M 19.671875 64.796875 
L 19.671875 8.109375 
L 31.59375 8.109375 
Q 46.6875 8.109375 53.6875 14.9375 
Q 60.6875 21.78125 60.6875 36.53125 
Q 60.6875 51.171875 53.6875 57.984375 
Q 46.6875 64.796875 31.59375 64.796875 
z
M 9.8125 72.90625 
L 30.078125 72.90625 
Q 51.265625 72.90625 61.171875 64.09375 
Q 71.09375 55.28125 71.09375 36.53125 
Q 71.09375 17.671875 61.125 8.828125 
Q 51.171875 0 30.078125 0 
L 9.8125 0 
z
" id="DejaVuSans-68"/>
     </defs>
     <g transform="translate(182.324219 634.616313)scale(0.1 -0.1)">
      <use xlink:href="#DejaVuSans-84"/>
      <use x="61.083984" xlink:href="#DejaVuSans-66"/>
      <use x="129.6875" xlink:href="#DejaVuSans-68"/>
      <use x="206.689453" xlink:href="#DejaVuSans-32"/>
      <use x="238.476562" xlink:href="#DejaVuSans-100"/>
      <use x="301.953125" xlink:href="#DejaVuSans-101"/>
      <use x="363.476562" xlink:href="#DejaVuSans-109"/>
      <use x="460.888672" xlink:href="#DejaVuSans-97"/>
      <use x="522.167969" xlink:href="#DejaVuSans-110"/>
      <use x="585.546875" xlink:href="#DejaVuSans-100"/>
      <use x="649.023438" xlink:href="#DejaVuSans-32"/>
      <use x="680.810547" xlink:href="#DejaVuSans-109"/>
      <use x="778.222656" xlink:href="#DejaVuSans-117"/>
      <use x="841.601562" xlink:href="#DejaVuSans-108"/>
      <use x="869.384766" xlink:href="#DejaVuSans-116"/>
      <use x="908.59375" xlink:href="#DejaVuSans-105"/>
      <use x="936.376953" xlink:href="#DejaVuSans-112"/>
      <use x="999.853516" xlink:href="#DejaVuSans-108"/>
      <use x="1027.636719" xlink:href="#DejaVuSans-105"/>
      <use x="1055.419922" xlink:href="#DejaVuSans-101"/>
      <use x="1116.943359" xlink:href="#DejaVuSans-114"/>
     </g>
    </g>
    <g id="line2d_33">
     <path style="fill:none;stroke:#681e33;stroke-linecap:square;stroke-width:2;"/>
    </g>
    <g id="line2d_34"/>
    <g id="text_19">
     <!-- M&amp;I demand multiplier -->
     <defs>
      <path d="M 9.8125 72.90625 
L 24.515625 72.90625 
L 43.109375 23.296875 
L 61.8125 72.90625 
L 76.515625 72.90625 
L 76.515625 0 
L 66.890625 0 
L 66.890625 64.015625 
L 48.09375 14.015625 
L 38.1875 14.015625 
L 19.390625 64.015625 
L 19.390625 0 
L 9.8125 0 
z
" id="DejaVuSans-77"/>
      <path d="M 24.3125 39.203125 
Q 19.875 35.25 17.796875 31.3125 
Q 15.71875 27.390625 15.71875 23.09375 
Q 15.71875 15.96875 20.890625 11.234375 
Q 26.078125 6.5 33.890625 6.5 
Q 38.53125 6.5 42.578125 8.03125 
Q 46.625 9.578125 50.203125 12.703125 
z
M 31.203125 44.671875 
L 56 19.28125 
Q 58.890625 23.640625 60.5 28.59375 
Q 62.109375 33.546875 62.40625 39.109375 
L 71.484375 39.109375 
Q 70.90625 32.671875 68.359375 26.359375 
Q 65.828125 20.0625 61.28125 13.921875 
L 74.90625 0 
L 62.59375 0 
L 55.609375 7.171875 
Q 50.53125 2.828125 44.96875 0.703125 
Q 39.40625 -1.421875 33.015625 -1.421875 
Q 21.234375 -1.421875 13.765625 5.296875 
Q 6.296875 12.015625 6.296875 22.515625 
Q 6.296875 28.765625 9.5625 34.25 
Q 12.84375 39.75 19.390625 44.578125 
Q 17.046875 47.65625 15.8125 50.703125 
Q 14.59375 53.765625 14.59375 56.6875 
Q 14.59375 64.59375 20.015625 69.40625 
Q 25.4375 74.21875 34.421875 74.21875 
Q 38.484375 74.21875 42.5 73.34375 
Q 46.53125 72.46875 50.6875 70.703125 
L 50.6875 61.8125 
Q 46.4375 64.109375 42.578125 65.296875 
Q 38.71875 66.5 35.40625 66.5 
Q 30.28125 66.5 27.078125 63.78125 
Q 23.875 61.078125 23.875 56.78125 
Q 23.875 54.296875 25.3125 51.78125 
Q 26.765625 49.265625 31.203125 44.671875 
z
" id="DejaVuSans-38"/>
     </defs>
     <g transform="translate(346.128906 605.260063)scale(0.1 -0.1)">
      <use xlink:href="#DejaVuSans-77"/>
      <use x="86.279297" xlink:href="#DejaVuSans-38"/>
      <use x="164.257812" xlink:href="#DejaVuSans-73"/>
      <use x="193.75" xlink:href="#DejaVuSans-32"/>
      <use x="225.537109" xlink:href="#DejaVuSans-100"/>
      <use x="289.013672" xlink:href="#DejaVuSans-101"/>
      <use x="350.537109" xlink:href="#DejaVuSans-109"/>
      <use x="447.949219" xlink:href="#DejaVuSans-97"/>
      <use x="509.228516" xlink:href="#DejaVuSans-110"/>
      <use x="572.607422" xlink:href="#DejaVuSans-100"/>
      <use x="636.083984" xlink:href="#DejaVuSans-32"/>
      <use x="667.871094" xlink:href="#DejaVuSans-109"/>
      <use x="765.283203" xlink:href="#DejaVuSans-117"/>
      <use x="828.662109" xlink:href="#DejaVuSans-108"/>
      <use x="856.445312" xlink:href="#DejaVuSans-116"/>
      <use x="895.654297" xlink:href="#DejaVuSans-105"/>
      <use x="923.4375" xlink:href="#DejaVuSans-112"/>
      <use x="986.914062" xlink:href="#DejaVuSans-108"/>
      <use x="1014.697266" xlink:href="#DejaVuSans-105"/>
      <use x="1042.480469" xlink:href="#DejaVuSans-101"/>
      <use x="1104.003906" xlink:href="#DejaVuSans-114"/>
     </g>
    </g>
    <g id="line2d_35">
     <path style="fill:none;stroke:#676572;stroke-linecap:square;stroke-width:2;"/>
    </g>
    <g id="line2d_36"/>
    <g id="text_20">
     <!-- Shoshone active -->
     <g transform="translate(346.128906 619.938188)scale(0.1 -0.1)">
      <use xlink:href="#DejaVuSans-83"/>
      <use x="63.476562" xlink:href="#DejaVuSans-104"/>
      <use x="126.855469" xlink:href="#DejaVuSans-111"/>
      <use x="188.037109" xlink:href="#DejaVuSans-115"/>
      <use x="240.136719" xlink:href="#DejaVuSans-104"/>
      <use x="303.515625" xlink:href="#DejaVuSans-111"/>
      <use x="364.697266" xlink:href="#DejaVuSans-110"/>
      <use x="428.076172" xlink:href="#DejaVuSans-101"/>
      <use x="489.599609" xlink:href="#DejaVuSans-32"/>
      <use x="521.386719" xlink:href="#DejaVuSans-97"/>
      <use x="582.666016" xlink:href="#DejaVuSans-99"/>
      <use x="637.646484" xlink:href="#DejaVuSans-116"/>
      <use x="676.855469" xlink:href="#DejaVuSans-105"/>
      <use x="704.638672" xlink:href="#DejaVuSans-118"/>
      <use x="763.818359" xlink:href="#DejaVuSans-101"/>
     </g>
    </g>
    <g id="line2d_37">
     <path style="fill:none;stroke:#f3be22;stroke-linecap:square;stroke-width:2;"/>
    </g>
    <g id="line2d_38"/>
    <g id="text_21">
     <!-- Env. flow senior right -->
     <defs>
      <path d="M 9.8125 72.90625 
L 55.90625 72.90625 
L 55.90625 64.59375 
L 19.671875 64.59375 
L 19.671875 43.015625 
L 54.390625 43.015625 
L 54.390625 34.71875 
L 19.671875 34.71875 
L 19.671875 8.296875 
L 56.78125 8.296875 
L 56.78125 0 
L 9.8125 0 
z
" id="DejaVuSans-69"/>
      <path d="M 37.109375 75.984375 
L 37.109375 68.5 
L 28.515625 68.5 
Q 23.6875 68.5 21.796875 66.546875 
Q 19.921875 64.59375 19.921875 59.515625 
L 19.921875 54.6875 
L 34.71875 54.6875 
L 34.71875 47.703125 
L 19.921875 47.703125 
L 19.921875 0 
L 10.890625 0 
L 10.890625 47.703125 
L 2.296875 47.703125 
L 2.296875 54.6875 
L 10.890625 54.6875 
L 10.890625 58.5 
Q 10.890625 67.625 15.140625 71.796875 
Q 19.390625 75.984375 28.609375 75.984375 
z
" id="DejaVuSans-102"/>
      <path d="M 4.203125 54.6875 
L 13.1875 54.6875 
L 24.421875 12.015625 
L 35.59375 54.6875 
L 46.1875 54.6875 
L 57.421875 12.015625 
L 68.609375 54.6875 
L 77.59375 54.6875 
L 63.28125 0 
L 52.6875 0 
L 40.921875 44.828125 
L 29.109375 0 
L 18.5 0 
z
" id="DejaVuSans-119"/>
     </defs>
     <g transform="translate(346.128906 634.616313)scale(0.1 -0.1)">
      <use xlink:href="#DejaVuSans-69"/>
      <use x="63.183594" xlink:href="#DejaVuSans-110"/>
      <use x="126.5625" xlink:href="#DejaVuSans-118"/>
      <use x="185.632812" xlink:href="#DejaVuSans-46"/>
      <use x="217.419922" xlink:href="#DejaVuSans-32"/>
      <use x="249.207031" xlink:href="#DejaVuSans-102"/>
      <use x="284.412109" xlink:href="#DejaVuSans-108"/>
      <use x="312.195312" xlink:href="#DejaVuSans-111"/>
      <use x="373.376953" xlink:href="#DejaVuSans-119"/>
      <use x="455.164062" xlink:href="#DejaVuSans-32"/>
      <use x="486.951172" xlink:href="#DejaVuSans-115"/>
      <use x="539.050781" xlink:href="#DejaVuSans-101"/>
      <use x="600.574219" xlink:href="#DejaVuSans-110"/>
      <use x="663.953125" xlink:href="#DejaVuSans-105"/>
      <use x="691.736328" xlink:href="#DejaVuSans-111"/>
      <use x="752.917969" xlink:href="#DejaVuSans-114"/>
      <use x="794.03125" xlink:href="#DejaVuSans-32"/>
      <use x="825.818359" xlink:href="#DejaVuSans-114"/>
      <use x="866.931641" xlink:href="#DejaVuSans-105"/>
      <use x="894.714844" xlink:href="#DejaVuSans-103"/>
      <use x="958.191406" xlink:href="#DejaVuSans-104"/>
      <use x="1021.570312" xlink:href="#DejaVuSans-116"/>
     </g>
    </g>
    <g id="line2d_39">
     <path style="fill:none;stroke:#59deba;stroke-linecap:square;stroke-width:2;"/>
    </g>
    <g id="line2d_40"/>
    <g id="text_22">
     <!-- Evaporation delta -->
     <g transform="translate(508.641406 605.260063)scale(0.1 -0.1)">
      <use xlink:href="#DejaVuSans-69"/>
      <use x="63.183594" xlink:href="#DejaVuSans-118"/>
      <use x="122.363281" xlink:href="#DejaVuSans-97"/>
      <use x="183.642578" xlink:href="#DejaVuSans-112"/>
      <use x="247.119141" xlink:href="#DejaVuSans-111"/>
      <use x="308.300781" xlink:href="#DejaVuSans-114"/>
      <use x="349.414062" xlink:href="#DejaVuSans-97"/>
      <use x="410.693359" xlink:href="#DejaVuSans-116"/>
      <use x="449.902344" xlink:href="#DejaVuSans-105"/>
      <use x="477.685547" xlink:href="#DejaVuSans-111"/>
      <use x="538.867188" xlink:href="#DejaVuSans-110"/>
      <use x="602.246094" xlink:href="#DejaVuSans-32"/>
      <use x="634.033203" xlink:href="#DejaVuSans-100"/>
      <use x="697.509766" xlink:href="#DejaVuSans-101"/>
      <use x="759.033203" xlink:href="#DejaVuSans-108"/>
      <use x="786.816406" xlink:href="#DejaVuSans-116"/>
      <use x="826.025391" xlink:href="#DejaVuSans-97"/>
     </g>
    </g>
    <g id="line2d_41">
     <path style="fill:none;stroke:#14015c;stroke-linecap:square;stroke-width:2;"/>
    </g>
    <g id="line2d_42"/>
    <g id="text_23">
     <!-- Dry state mu -->
     <defs>
      <path d="M 32.171875 -5.078125 
Q 28.375 -14.84375 24.75 -17.8125 
Q 21.140625 -20.796875 15.09375 -20.796875 
L 7.90625 -20.796875 
L 7.90625 -13.28125 
L 13.1875 -13.28125 
Q 16.890625 -13.28125 18.9375 -11.515625 
Q 21 -9.765625 23.484375 -3.21875 
L 25.09375 0.875 
L 2.984375 54.6875 
L 12.5 54.6875 
L 29.59375 11.921875 
L 46.6875 54.6875 
L 56.203125 54.6875 
z
" id="DejaVuSans-121"/>
     </defs>
     <g transform="translate(508.641406 619.938188)scale(0.1 -0.1)">
      <use xlink:href="#DejaVuSans-68"/>
      <use x="77.001953" xlink:href="#DejaVuSans-114"/>
      <use x="118.115234" xlink:href="#DejaVuSans-121"/>
      <use x="177.294922" xlink:href="#DejaVuSans-32"/>
      <use x="209.082031" xlink:href="#DejaVuSans-115"/>
      <use x="261.181641" xlink:href="#DejaVuSans-116"/>
      <use x="300.390625" xlink:href="#DejaVuSans-97"/>
      <use x="361.669922" xlink:href="#DejaVuSans-116"/>
      <use x="400.878906" xlink:href="#DejaVuSans-101"/>
      <use x="462.402344" xlink:href="#DejaVuSans-32"/>
      <use x="494.189453" xlink:href="#DejaVuSans-109"/>
      <use x="591.601562" xlink:href="#DejaVuSans-117"/>
     </g>
    </g>
    <g id="line2d_43">
     <path style="fill:none;stroke:#daf8a3;stroke-linecap:square;stroke-width:2;"/>
    </g>
    <g id="line2d_44"/>
    <g id="text_24">
     <!-- Dry state sigma -->
     <g transform="translate(508.641406 634.616313)scale(0.1 -0.1)">
      <use xlink:href="#DejaVuSans-68"/>
      <use x="77.001953" xlink:href="#DejaVuSans-114"/>
      <use x="118.115234" xlink:href="#DejaVuSans-121"/>
      <use x="177.294922" xlink:href="#DejaVuSans-32"/>
      <use x="209.082031" xlink:href="#DejaVuSans-115"/>
      <use x="261.181641" xlink:href="#DejaVuSans-116"/>
      <use x="300.390625" xlink:href="#DejaVuSans-97"/>
      <use x="361.669922" xlink:href="#DejaVuSans-116"/>
      <use x="400.878906" xlink:href="#DejaVuSans-101"/>
      <use x="462.402344" xlink:href="#DejaVuSans-32"/>
      <use x="494.189453" xlink:href="#DejaVuSans-115"/>
      <use x="546.289062" xlink:href="#DejaVuSans-105"/>
      <use x="574.072266" xlink:href="#DejaVuSans-103"/>
      <use x="637.548828" xlink:href="#DejaVuSans-109"/>
      <use x="734.960938" xlink:href="#DejaVuSans-97"/>
     </g>
    </g>
    <g id="line2d_45">
     <path style="fill:none;stroke:#0b7a0a;stroke-linecap:square;stroke-width:2;"/>
    </g>
    <g id="line2d_46"/>
    <g id="text_25">
     <!-- Wet state mu -->
     <g transform="translate(645.374219 605.260063)scale(0.1 -0.1)">
      <use xlink:href="#DejaVuSans-87"/>
      <use x="98.798828" xlink:href="#DejaVuSans-101"/>
      <use x="160.322266" xlink:href="#DejaVuSans-116"/>
      <use x="199.53125" xlink:href="#DejaVuSans-32"/>
      <use x="231.318359" xlink:href="#DejaVuSans-115"/>
      <use x="283.417969" xlink:href="#DejaVuSans-116"/>
      <use x="322.626953" xlink:href="#DejaVuSans-97"/>
      <use x="383.90625" xlink:href="#DejaVuSans-116"/>
      <use x="423.115234" xlink:href="#DejaVuSans-101"/>
      <use x="484.638672" xlink:href="#DejaVuSans-32"/>
      <use x="516.425781" xlink:href="#DejaVuSans-109"/>
      <use x="613.837891" xlink:href="#DejaVuSans-117"/>
     </g>
    </g>
    <g id="line2d_47">
     <path style="fill:none;stroke:#f8ffa2;stroke-linecap:square;stroke-width:2;"/>
    </g>
    <g id="line2d_48"/>
    <g id="text_26">
     <!-- Wet state sigma -->
     <g transform="translate(645.374219 619.938188)scale(0.1 -0.1)">
      <use xlink:href="#DejaVuSans-87"/>
      <use x="98.798828" xlink:href="#DejaVuSans-101"/>
      <use x="160.322266" xlink:href="#DejaVuSans-116"/>
      <use x="199.53125" xlink:href="#DejaVuSans-32"/>
      <use x="231.318359" xlink:href="#DejaVuSans-115"/>
      <use x="283.417969" xlink:href="#DejaVuSans-116"/>
      <use x="322.626953" xlink:href="#DejaVuSans-97"/>
      <use x="383.90625" xlink:href="#DejaVuSans-116"/>
      <use x="423.115234" xlink:href="#DejaVuSans-101"/>
      <use x="484.638672" xlink:href="#DejaVuSans-32"/>
      <use x="516.425781" xlink:href="#DejaVuSans-115"/>
      <use x="568.525391" xlink:href="#DejaVuSans-105"/>
      <use x="596.308594" xlink:href="#DejaVuSans-103"/>
      <use x="659.785156" xlink:href="#DejaVuSans-109"/>
      <use x="757.197266" xlink:href="#DejaVuSans-97"/>
     </g>
    </g>
    <g id="line2d_49">
     <path style="fill:none;stroke:#578dc0;stroke-linecap:square;stroke-width:2;"/>
    </g>
    <g id="line2d_50"/>
    <g id="text_27">
     <!-- Dry-to-dry state prob. -->
     <defs>
      <path d="M 4.890625 31.390625 
L 31.203125 31.390625 
L 31.203125 23.390625 
L 4.890625 23.390625 
z
" id="DejaVuSans-45"/>
      <path d="M 48.6875 27.296875 
Q 48.6875 37.203125 44.609375 42.84375 
Q 40.53125 48.484375 33.40625 48.484375 
Q 26.265625 48.484375 22.1875 42.84375 
Q 18.109375 37.203125 18.109375 27.296875 
Q 18.109375 17.390625 22.1875 11.75 
Q 26.265625 6.109375 33.40625 6.109375 
Q 40.53125 6.109375 44.609375 11.75 
Q 48.6875 17.390625 48.6875 27.296875 
z
M 18.109375 46.390625 
Q 20.953125 51.265625 25.265625 53.625 
Q 29.59375 56 35.59375 56 
Q 45.5625 56 51.78125 48.09375 
Q 58.015625 40.1875 58.015625 27.296875 
Q 58.015625 14.40625 51.78125 6.484375 
Q 45.5625 -1.421875 35.59375 -1.421875 
Q 29.59375 -1.421875 25.265625 0.953125 
Q 20.953125 3.328125 18.109375 8.203125 
L 18.109375 0 
L 9.078125 0 
L 9.078125 75.984375 
L 18.109375 75.984375 
z
" id="DejaVuSans-98"/>
     </defs>
     <g transform="translate(645.374219 634.616313)scale(0.1 -0.1)">
      <use xlink:href="#DejaVuSans-68"/>
      <use x="77.001953" xlink:href="#DejaVuSans-114"/>
      <use x="118.115234" xlink:href="#DejaVuSans-121"/>
      <use x="177.279297" xlink:href="#DejaVuSans-45"/>
      <use x="213.363281" xlink:href="#DejaVuSans-116"/>
      <use x="252.572266" xlink:href="#DejaVuSans-111"/>
      <use x="313.769531" xlink:href="#DejaVuSans-45"/>
      <use x="349.853516" xlink:href="#DejaVuSans-100"/>
      <use x="413.330078" xlink:href="#DejaVuSans-114"/>
      <use x="454.443359" xlink:href="#DejaVuSans-121"/>
      <use x="513.623047" xlink:href="#DejaVuSans-32"/>
      <use x="545.410156" xlink:href="#DejaVuSans-115"/>
      <use x="597.509766" xlink:href="#DejaVuSans-116"/>
      <use x="636.71875" xlink:href="#DejaVuSans-97"/>
      <use x="697.998047" xlink:href="#DejaVuSans-116"/>
      <use x="737.207031" xlink:href="#DejaVuSans-101"/>
      <use x="798.730469" xlink:href="#DejaVuSans-32"/>
      <use x="830.517578" xlink:href="#DejaVuSans-112"/>
      <use x="893.994141" xlink:href="#DejaVuSans-114"/>
      <use x="935.076172" xlink:href="#DejaVuSans-111"/>
      <use x="996.257812" xlink:href="#DejaVuSans-98"/>
      <use x="1059.734375" xlink:href="#DejaVuSans-46"/>
     </g>
    </g>
    <g id="line2d_51">
     <path style="fill:none;stroke:#4e4ad8;stroke-linecap:square;stroke-width:2;"/>
    </g>
    <g id="line2d_52"/>
    <g id="text_28">
     <!-- Wet-to-wet state prob. -->
     <g transform="translate(802.525781 605.260063)scale(0.1 -0.1)">
      <use xlink:href="#DejaVuSans-87"/>
      <use x="98.798828" xlink:href="#DejaVuSans-101"/>
      <use x="160.322266" xlink:href="#DejaVuSans-116"/>
      <use x="199.53125" xlink:href="#DejaVuSans-45"/>
      <use x="235.615234" xlink:href="#DejaVuSans-116"/>
      <use x="274.824219" xlink:href="#DejaVuSans-111"/>
      <use x="336.021484" xlink:href="#DejaVuSans-45"/>
      <use x="372.105469" xlink:href="#DejaVuSans-119"/>
      <use x="453.892578" xlink:href="#DejaVuSans-101"/>
      <use x="515.416016" xlink:href="#DejaVuSans-116"/>
      <use x="554.625" xlink:href="#DejaVuSans-32"/>
      <use x="586.412109" xlink:href="#DejaVuSans-115"/>
      <use x="638.511719" xlink:href="#DejaVuSans-116"/>
      <use x="677.720703" xlink:href="#DejaVuSans-97"/>
      <use x="739" xlink:href="#DejaVuSans-116"/>
      <use x="778.208984" xlink:href="#DejaVuSans-101"/>
      <use x="839.732422" xlink:href="#DejaVuSans-32"/>
      <use x="871.519531" xlink:href="#DejaVuSans-112"/>
      <use x="934.996094" xlink:href="#DejaVuSans-114"/>
      <use x="976.078125" xlink:href="#DejaVuSans-111"/>
      <use x="1037.259766" xlink:href="#DejaVuSans-98"/>
      <use x="1100.736328" xlink:href="#DejaVuSans-46"/>
     </g>
    </g>
    <g id="line2d_53">
     <path style="fill:none;stroke:#32b3f7;stroke-linecap:square;stroke-width:2;"/>
    </g>
    <g id="line2d_54"/>
    <g id="text_29">
     <!-- Earlier snowmelt -->
     <g transform="translate(802.525781 619.938188)scale(0.1 -0.1)">
      <use xlink:href="#DejaVuSans-69"/>
      <use x="63.183594" xlink:href="#DejaVuSans-97"/>
      <use x="124.462891" xlink:href="#DejaVuSans-114"/>
      <use x="165.576172" xlink:href="#DejaVuSans-108"/>
      <use x="193.359375" xlink:href="#DejaVuSans-105"/>
      <use x="221.142578" xlink:href="#DejaVuSans-101"/>
      <use x="282.666016" xlink:href="#DejaVuSans-114"/>
      <use x="323.779297" xlink:href="#DejaVuSans-32"/>
      <use x="355.566406" xlink:href="#DejaVuSans-115"/>
      <use x="407.666016" xlink:href="#DejaVuSans-110"/>
      <use x="471.044922" xlink:href="#DejaVuSans-111"/>
      <use x="532.226562" xlink:href="#DejaVuSans-119"/>
      <use x="614.013672" xlink:href="#DejaVuSans-109"/>
      <use x="711.425781" xlink:href="#DejaVuSans-101"/>
      <use x="772.949219" xlink:href="#DejaVuSans-108"/>
      <use x="800.732422" xlink:href="#DejaVuSans-116"/>
     </g>
    </g>
   </g>
  </g>
  <g id="text_30">
   <!-- Shortage magnitude sensitivity for 7200645 -->
   <defs>
    <path d="M 8.203125 72.90625 
L 55.078125 72.90625 
L 55.078125 68.703125 
L 28.609375 0 
L 18.3125 0 
L 43.21875 64.59375 
L 8.203125 64.59375 
z
" id="DejaVuSans-55"/>
    <path d="M 10.796875 72.90625 
L 49.515625 72.90625 
L 49.515625 64.59375 
L 19.828125 64.59375 
L 19.828125 46.734375 
Q 21.96875 47.46875 24.109375 47.828125 
Q 26.265625 48.1875 28.421875 48.1875 
Q 40.625 48.1875 47.75 41.5 
Q 54.890625 34.8125 54.890625 23.390625 
Q 54.890625 11.625 47.5625 5.09375 
Q 40.234375 -1.421875 26.90625 -1.421875 
Q 22.3125 -1.421875 17.546875 -0.640625 
Q 12.796875 0.140625 7.71875 1.703125 
L 7.71875 11.625 
Q 12.109375 9.234375 16.796875 8.0625 
Q 21.484375 6.890625 26.703125 6.890625 
Q 35.15625 6.890625 40.078125 11.328125 
Q 45.015625 15.765625 45.015625 23.390625 
Q 45.015625 31 40.078125 35.4375 
Q 35.15625 39.890625 26.703125 39.890625 
Q 22.75 39.890625 18.8125 39.015625 
Q 14.890625 38.140625 10.796875 36.28125 
z
" id="DejaVuSans-53"/>
   </defs>
   <g transform="translate(344.81625 23.6775)scale(0.16 -0.16)">
    <use xlink:href="#DejaVuSans-83"/>
    <use x="63.476562" xlink:href="#DejaVuSans-104"/>
    <use x="126.855469" xlink:href="#DejaVuSans-111"/>
    <use x="188.037109" xlink:href="#DejaVuSans-114"/>
    <use x="229.150391" xlink:href="#DejaVuSans-116"/>
    <use x="268.359375" xlink:href="#DejaVuSans-97"/>
    <use x="329.638672" xlink:href="#DejaVuSans-103"/>
    <use x="393.115234" xlink:href="#DejaVuSans-101"/>
    <use x="454.638672" xlink:href="#DejaVuSans-32"/>
    <use x="486.425781" xlink:href="#DejaVuSans-109"/>
    <use x="583.837891" xlink:href="#DejaVuSans-97"/>
    <use x="645.117188" xlink:href="#DejaVuSans-103"/>
    <use x="708.59375" xlink:href="#DejaVuSans-110"/>
    <use x="771.972656" xlink:href="#DejaVuSans-105"/>
    <use x="799.755859" xlink:href="#DejaVuSans-116"/>
    <use x="838.964844" xlink:href="#DejaVuSans-117"/>
    <use x="902.34375" xlink:href="#DejaVuSans-100"/>
    <use x="965.820312" xlink:href="#DejaVuSans-101"/>
    <use x="1027.34375" xlink:href="#DejaVuSans-32"/>
    <use x="1059.130859" xlink:href="#DejaVuSans-115"/>
    <use x="1111.230469" xlink:href="#DejaVuSans-101"/>
    <use x="1172.753906" xlink:href="#DejaVuSans-110"/>
    <use x="1236.132812" xlink:href="#DejaVuSans-115"/>
    <use x="1288.232422" xlink:href="#DejaVuSans-105"/>
    <use x="1316.015625" xlink:href="#DejaVuSans-116"/>
    <use x="1355.224609" xlink:href="#DejaVuSans-105"/>
    <use x="1383.007812" xlink:href="#DejaVuSans-118"/>
    <use x="1442.1875" xlink:href="#DejaVuSans-105"/>
    <use x="1469.970703" xlink:href="#DejaVuSans-116"/>
    <use x="1509.179688" xlink:href="#DejaVuSans-121"/>
    <use x="1568.359375" xlink:href="#DejaVuSans-32"/>
    <use x="1600.146484" xlink:href="#DejaVuSans-102"/>
    <use x="1635.351562" xlink:href="#DejaVuSans-111"/>
    <use x="1696.533203" xlink:href="#DejaVuSans-114"/>
    <use x="1737.646484" xlink:href="#DejaVuSans-32"/>
    <use x="1769.433594" xlink:href="#DejaVuSans-55"/>
    <use x="1833.056641" xlink:href="#DejaVuSans-50"/>
    <use x="1896.679688" xlink:href="#DejaVuSans-48"/>
    <use x="1960.302734" xlink:href="#DejaVuSans-48"/>
    <use x="2023.925781" xlink:href="#DejaVuSans-54"/>
    <use x="2087.548828" xlink:href="#DejaVuSans-52"/>
    <use x="2151.171875" xlink:href="#DejaVuSans-53"/>
   </g>
  </g>
 </g>
 <defs>
  <clipPath id="p9986075a03">
   <rect height="354.816" width="809.1" x="130.5" y="113.472"/>
  </clipPath>
 </defs>
</svg>
