<?xml version="1.0" encoding="utf-8" standalone="no"?>
<!DOCTYPE svg PUBLIC "-//W3C//DTD SVG 1.1//EN"
  "http://www.w3.org/Graphics/SVG/1.1/DTD/svg11.dtd">
<!-- Created with matplotlib (https://matplotlib.org/) -->
<svg height="576pt" version="1.1" viewBox="0 0 1044 576" width="1044pt" xmlns="http://www.w3.org/2000/svg" xmlns:xlink="http://www.w3.org/1999/xlink">
 <defs>
  <style type="text/css">
*{stroke-linecap:butt;stroke-linejoin:round;}
  </style>
 </defs>
 <g id="figure_1">
  <g id="patch_1">
   <path d="M 0 576 
L 1044 576 
L 1044 0 
L 0 0 
z
" style="fill:#ffffff;"/>
  </g>
  <g id="axes_1">
   <g id="patch_2">
    <path d="M 130.5 468.288 
L 939.6 468.288 
L 939.6 113.472 
L 130.5 113.472 
z
" style="fill:#ffffff;"/>
   </g>
   <g id="matplotlib.axis_1">
    <g id="xtick_1">
     <g id="line2d_1">
      <defs>
       <path d="M 0 0 
L 0 3.5 
" id="m41d7f27711" style="stroke:#000000;stroke-width:0.8;"/>
      </defs>
      <g>
       <use style="stroke:#000000;stroke-width:0.8;" x="130.5" xlink:href="#m41d7f27711" y="468.288"/>
      </g>
     </g>
     <g id="text_1">
      <!-- 0 -->
      <defs>
       <path d="M 31.78125 66.40625 
Q 24.171875 66.40625 20.328125 58.90625 
Q 16.5 51.421875 16.5 36.375 
Q 16.5 21.390625 20.328125 13.890625 
Q 24.171875 6.390625 31.78125 6.390625 
Q 39.453125 6.390625 43.28125 13.890625 
Q 47.125 21.390625 47.125 36.375 
Q 47.125 51.421875 43.28125 58.90625 
Q 39.453125 66.40625 31.78125 66.40625 
z
M 31.78125 74.21875 
Q 44.046875 74.21875 50.515625 64.515625 
Q 56.984375 54.828125 56.984375 36.375 
Q 56.984375 17.96875 50.515625 8.265625 
Q 44.046875 -1.421875 31.78125 -1.421875 
Q 19.53125 -1.421875 13.0625 8.265625 
Q 6.59375 17.96875 6.59375 36.375 
Q 6.59375 54.828125 13.0625 64.515625 
Q 19.53125 74.21875 31.78125 74.21875 
z
" id="DejaVuSans-48"/>
      </defs>
      <g transform="translate(127.31875 482.886437)scale(0.1 -0.1)">
       <use xlink:href="#DejaVuSans-48"/>
      </g>
     </g>
    </g>
    <g id="xtick_2">
     <g id="line2d_2">
      <g>
       <use style="stroke:#000000;stroke-width:0.8;" x="292.32" xlink:href="#m41d7f27711" y="468.288"/>
      </g>
     </g>
     <g id="text_2">
      <!-- 20 -->
      <defs>
       <path d="M 19.1875 8.296875 
L 53.609375 8.296875 
L 53.609375 0 
L 7.328125 0 
L 7.328125 8.296875 
Q 12.9375 14.109375 22.625 23.890625 
Q 32.328125 33.6875 34.8125 36.53125 
Q 39.546875 41.84375 41.421875 45.53125 
Q 43.3125 49.21875 43.3125 52.78125 
Q 43.3125 58.59375 39.234375 62.25 
Q 35.15625 65.921875 28.609375 65.921875 
Q 23.96875 65.921875 18.8125 64.3125 
Q 13.671875 62.703125 7.8125 59.421875 
L 7.8125 69.390625 
Q 13.765625 71.78125 18.9375 73 
Q 24.125 74.21875 28.421875 74.21875 
Q 39.75 74.21875 46.484375 68.546875 
Q 53.21875 62.890625 53.21875 53.421875 
Q 53.21875 48.921875 51.53125 44.890625 
Q 49.859375 40.875 45.40625 35.40625 
Q 44.1875 33.984375 37.640625 27.21875 
Q 31.109375 20.453125 19.1875 8.296875 
z
" id="DejaVuSans-50"/>
      </defs>
      <g transform="translate(285.9575 482.886437)scale(0.1 -0.1)">
       <use xlink:href="#DejaVuSans-50"/>
       <use x="63.623047" xlink:href="#DejaVuSans-48"/>
      </g>
     </g>
    </g>
    <g id="xtick_3">
     <g id="line2d_3">
      <g>
       <use style="stroke:#000000;stroke-width:0.8;" x="454.14" xlink:href="#m41d7f27711" y="468.288"/>
      </g>
     </g>
     <g id="text_3">
      <!-- 40 -->
      <defs>
       <path d="M 37.796875 64.3125 
L 12.890625 25.390625 
L 37.796875 25.390625 
z
M 35.203125 72.90625 
L 47.609375 72.90625 
L 47.609375 25.390625 
L 58.015625 25.390625 
L 58.015625 17.1875 
L 47.609375 17.1875 
L 47.609375 0 
L 37.796875 0 
L 37.796875 17.1875 
L 4.890625 17.1875 
L 4.890625 26.703125 
z
" id="DejaVuSans-52"/>
      </defs>
      <g transform="translate(447.7775 482.886437)scale(0.1 -0.1)">
       <use xlink:href="#DejaVuSans-52"/>
       <use x="63.623047" xlink:href="#DejaVuSans-48"/>
      </g>
     </g>
    </g>
    <g id="xtick_4">
     <g id="line2d_4">
      <g>
       <use style="stroke:#000000;stroke-width:0.8;" x="615.96" xlink:href="#m41d7f27711" y="468.288"/>
      </g>
     </g>
     <g id="text_4">
      <!-- 60 -->
      <defs>
       <path d="M 33.015625 40.375 
Q 26.375 40.375 22.484375 35.828125 
Q 18.609375 31.296875 18.609375 23.390625 
Q 18.609375 15.53125 22.484375 10.953125 
Q 26.375 6.390625 33.015625 6.390625 
Q 39.65625 6.390625 43.53125 10.953125 
Q 47.40625 15.53125 47.40625 23.390625 
Q 47.40625 31.296875 43.53125 35.828125 
Q 39.65625 40.375 33.015625 40.375 
z
M 52.59375 71.296875 
L 52.59375 62.3125 
Q 48.875 64.0625 45.09375 64.984375 
Q 41.3125 65.921875 37.59375 65.921875 
Q 27.828125 65.921875 22.671875 59.328125 
Q 17.53125 52.734375 16.796875 39.40625 
Q 19.671875 43.65625 24.015625 45.921875 
Q 28.375 48.1875 33.59375 48.1875 
Q 44.578125 48.1875 50.953125 41.515625 
Q 57.328125 34.859375 57.328125 23.390625 
Q 57.328125 12.15625 50.6875 5.359375 
Q 44.046875 -1.421875 33.015625 -1.421875 
Q 20.359375 -1.421875 13.671875 8.265625 
Q 6.984375 17.96875 6.984375 36.375 
Q 6.984375 53.65625 15.1875 63.9375 
Q 23.390625 74.21875 37.203125 74.21875 
Q 40.921875 74.21875 44.703125 73.484375 
Q 48.484375 72.75 52.59375 71.296875 
z
" id="DejaVuSans-54"/>
      </defs>
      <g transform="translate(609.5975 482.886437)scale(0.1 -0.1)">
       <use xlink:href="#DejaVuSans-54"/>
       <use x="63.623047" xlink:href="#DejaVuSans-48"/>
      </g>
     </g>
    </g>
    <g id="xtick_5">
     <g id="line2d_5">
      <g>
       <use style="stroke:#000000;stroke-width:0.8;" x="777.78" xlink:href="#m41d7f27711" y="468.288"/>
      </g>
     </g>
     <g id="text_5">
      <!-- 80 -->
      <defs>
       <path d="M 31.78125 34.625 
Q 24.75 34.625 20.71875 30.859375 
Q 16.703125 27.09375 16.703125 20.515625 
Q 16.703125 13.921875 20.71875 10.15625 
Q 24.75 6.390625 31.78125 6.390625 
Q 38.8125 6.390625 42.859375 10.171875 
Q 46.921875 13.96875 46.921875 20.515625 
Q 46.921875 27.09375 42.890625 30.859375 
Q 38.875 34.625 31.78125 34.625 
z
M 21.921875 38.8125 
Q 15.578125 40.375 12.03125 44.71875 
Q 8.5 49.078125 8.5 55.328125 
Q 8.5 64.0625 14.71875 69.140625 
Q 20.953125 74.21875 31.78125 74.21875 
Q 42.671875 74.21875 48.875 69.140625 
Q 55.078125 64.0625 55.078125 55.328125 
Q 55.078125 49.078125 51.53125 44.71875 
Q 48 40.375 41.703125 38.8125 
Q 48.828125 37.15625 52.796875 32.3125 
Q 56.78125 27.484375 56.78125 20.515625 
Q 56.78125 9.90625 50.3125 4.234375 
Q 43.84375 -1.421875 31.78125 -1.421875 
Q 19.734375 -1.421875 13.25 4.234375 
Q 6.78125 9.90625 6.78125 20.515625 
Q 6.78125 27.484375 10.78125 32.3125 
Q 14.796875 37.15625 21.921875 38.8125 
z
M 18.3125 54.390625 
Q 18.3125 48.734375 21.84375 45.5625 
Q 25.390625 42.390625 31.78125 42.390625 
Q 38.140625 42.390625 41.71875 45.5625 
Q 45.3125 48.734375 45.3125 54.390625 
Q 45.3125 60.0625 41.71875 63.234375 
Q 38.140625 66.40625 31.78125 66.40625 
Q 25.390625 66.40625 21.84375 63.234375 
Q 18.3125 60.0625 18.3125 54.390625 
z
" id="DejaVuSans-56"/>
      </defs>
      <g transform="translate(771.4175 482.886437)scale(0.1 -0.1)">
       <use xlink:href="#DejaVuSans-56"/>
       <use x="63.623047" xlink:href="#DejaVuSans-48"/>
      </g>
     </g>
    </g>
    <g id="xtick_6">
     <g id="line2d_6">
      <g>
       <use style="stroke:#000000;stroke-width:0.8;" x="939.6" xlink:href="#m41d7f27711" y="468.288"/>
      </g>
     </g>
     <g id="text_6">
      <!-- 100 -->
      <defs>
       <path d="M 12.40625 8.296875 
L 28.515625 8.296875 
L 28.515625 63.921875 
L 10.984375 60.40625 
L 10.984375 69.390625 
L 28.421875 72.90625 
L 38.28125 72.90625 
L 38.28125 8.296875 
L 54.390625 8.296875 
L 54.390625 0 
L 12.40625 0 
z
" id="DejaVuSans-49"/>
      </defs>
      <g transform="translate(930.05625 482.886437)scale(0.1 -0.1)">
       <use xlink:href="#DejaVuSans-49"/>
       <use x="63.623047" xlink:href="#DejaVuSans-48"/>
       <use x="127.246094" xlink:href="#DejaVuSans-48"/>
      </g>
     </g>
    </g>
    <g id="text_7">
     <!-- Shortage magnitude percentile -->
     <defs>
      <path d="M 53.515625 70.515625 
L 53.515625 60.890625 
Q 47.90625 63.578125 42.921875 64.890625 
Q 37.9375 66.21875 33.296875 66.21875 
Q 25.25 66.21875 20.875 63.09375 
Q 16.5 59.96875 16.5 54.203125 
Q 16.5 49.359375 19.40625 46.890625 
Q 22.3125 44.4375 30.421875 42.921875 
L 36.375 41.703125 
Q 47.40625 39.59375 52.65625 34.296875 
Q 57.90625 29 57.90625 20.125 
Q 57.90625 9.515625 50.796875 4.046875 
Q 43.703125 -1.421875 29.984375 -1.421875 
Q 24.8125 -1.421875 18.96875 -0.25 
Q 13.140625 0.921875 6.890625 3.21875 
L 6.890625 13.375 
Q 12.890625 10.015625 18.65625 8.296875 
Q 24.421875 6.59375 29.984375 6.59375 
Q 38.421875 6.59375 43.015625 9.90625 
Q 47.609375 13.234375 47.609375 19.390625 
Q 47.609375 24.75 44.3125 27.78125 
Q 41.015625 30.8125 33.5 32.328125 
L 27.484375 33.5 
Q 16.453125 35.6875 11.515625 40.375 
Q 6.59375 45.0625 6.59375 53.421875 
Q 6.59375 63.09375 13.40625 68.65625 
Q 20.21875 74.21875 32.171875 74.21875 
Q 37.3125 74.21875 42.625 73.28125 
Q 47.953125 72.359375 53.515625 70.515625 
z
" id="DejaVuSans-83"/>
      <path d="M 54.890625 33.015625 
L 54.890625 0 
L 45.90625 0 
L 45.90625 32.71875 
Q 45.90625 40.484375 42.875 44.328125 
Q 39.84375 48.1875 33.796875 48.1875 
Q 26.515625 48.1875 22.3125 43.546875 
Q 18.109375 38.921875 18.109375 30.90625 
L 18.109375 0 
L 9.078125 0 
L 9.078125 75.984375 
L 18.109375 75.984375 
L 18.109375 46.1875 
Q 21.34375 51.125 25.703125 53.5625 
Q 30.078125 56 35.796875 56 
Q 45.21875 56 50.046875 50.171875 
Q 54.890625 44.34375 54.890625 33.015625 
z
" id="DejaVuSans-104"/>
      <path d="M 30.609375 48.390625 
Q 23.390625 48.390625 19.1875 42.75 
Q 14.984375 37.109375 14.984375 27.296875 
Q 14.984375 17.484375 19.15625 11.84375 
Q 23.34375 6.203125 30.609375 6.203125 
Q 37.796875 6.203125 41.984375 11.859375 
Q 46.1875 17.53125 46.1875 27.296875 
Q 46.1875 37.015625 41.984375 42.703125 
Q 37.796875 48.390625 30.609375 48.390625 
z
M 30.609375 56 
Q 42.328125 56 49.015625 48.375 
Q 55.71875 40.765625 55.71875 27.296875 
Q 55.71875 13.875 49.015625 6.21875 
Q 42.328125 -1.421875 30.609375 -1.421875 
Q 18.84375 -1.421875 12.171875 6.21875 
Q 5.515625 13.875 5.515625 27.296875 
Q 5.515625 40.765625 12.171875 48.375 
Q 18.84375 56 30.609375 56 
z
" id="DejaVuSans-111"/>
      <path d="M 41.109375 46.296875 
Q 39.59375 47.171875 37.8125 47.578125 
Q 36.03125 48 33.890625 48 
Q 26.265625 48 22.1875 43.046875 
Q 18.109375 38.09375 18.109375 28.8125 
L 18.109375 0 
L 9.078125 0 
L 9.078125 54.6875 
L 18.109375 54.6875 
L 18.109375 46.1875 
Q 20.953125 51.171875 25.484375 53.578125 
Q 30.03125 56 36.53125 56 
Q 37.453125 56 38.578125 55.875 
Q 39.703125 55.765625 41.0625 55.515625 
z
" id="DejaVuSans-114"/>
      <path d="M 18.3125 70.21875 
L 18.3125 54.6875 
L 36.8125 54.6875 
L 36.8125 47.703125 
L 18.3125 47.703125 
L 18.3125 18.015625 
Q 18.3125 11.328125 20.140625 9.421875 
Q 21.96875 7.515625 27.59375 7.515625 
L 36.8125 7.515625 
L 36.8125 0 
L 27.59375 0 
Q 17.1875 0 13.234375 3.875 
Q 9.28125 7.765625 9.28125 18.015625 
L 9.28125 47.703125 
L 2.6875 47.703125 
L 2.6875 54.6875 
L 9.28125 54.6875 
L 9.28125 70.21875 
z
" id="DejaVuSans-116"/>
      <path d="M 34.28125 27.484375 
Q 23.390625 27.484375 19.1875 25 
Q 14.984375 22.515625 14.984375 16.5 
Q 14.984375 11.71875 18.140625 8.90625 
Q 21.296875 6.109375 26.703125 6.109375 
Q 34.1875 6.109375 38.703125 11.40625 
Q 43.21875 16.703125 43.21875 25.484375 
L 43.21875 27.484375 
z
M 52.203125 31.203125 
L 52.203125 0 
L 43.21875 0 
L 43.21875 8.296875 
Q 40.140625 3.328125 35.546875 0.953125 
Q 30.953125 -1.421875 24.3125 -1.421875 
Q 15.921875 -1.421875 10.953125 3.296875 
Q 6 8.015625 6 15.921875 
Q 6 25.140625 12.171875 29.828125 
Q 18.359375 34.515625 30.609375 34.515625 
L 43.21875 34.515625 
L 43.21875 35.40625 
Q 43.21875 41.609375 39.140625 45 
Q 35.0625 48.390625 27.6875 48.390625 
Q 23 48.390625 18.546875 47.265625 
Q 14.109375 46.140625 10.015625 43.890625 
L 10.015625 52.203125 
Q 14.9375 54.109375 19.578125 55.046875 
Q 24.21875 56 28.609375 56 
Q 40.484375 56 46.34375 49.84375 
Q 52.203125 43.703125 52.203125 31.203125 
z
" id="DejaVuSans-97"/>
      <path d="M 45.40625 27.984375 
Q 45.40625 37.75 41.375 43.109375 
Q 37.359375 48.484375 30.078125 48.484375 
Q 22.859375 48.484375 18.828125 43.109375 
Q 14.796875 37.75 14.796875 27.984375 
Q 14.796875 18.265625 18.828125 12.890625 
Q 22.859375 7.515625 30.078125 7.515625 
Q 37.359375 7.515625 41.375 12.890625 
Q 45.40625 18.265625 45.40625 27.984375 
z
M 54.390625 6.78125 
Q 54.390625 -7.171875 48.1875 -13.984375 
Q 42 -20.796875 29.203125 -20.796875 
Q 24.46875 -20.796875 20.265625 -20.09375 
Q 16.0625 -19.390625 12.109375 -17.921875 
L 12.109375 -9.1875 
Q 16.0625 -11.328125 19.921875 -12.34375 
Q 23.78125 -13.375 27.78125 -13.375 
Q 36.625 -13.375 41.015625 -8.765625 
Q 45.40625 -4.15625 45.40625 5.171875 
L 45.40625 9.625 
Q 42.625 4.78125 38.28125 2.390625 
Q 33.9375 0 27.875 0 
Q 17.828125 0 11.671875 7.65625 
Q 5.515625 15.328125 5.515625 27.984375 
Q 5.515625 40.671875 11.671875 48.328125 
Q 17.828125 56 27.875 56 
Q 33.9375 56 38.28125 53.609375 
Q 42.625 51.21875 45.40625 46.390625 
L 45.40625 54.6875 
L 54.390625 54.6875 
z
" id="DejaVuSans-103"/>
      <path d="M 56.203125 29.59375 
L 56.203125 25.203125 
L 14.890625 25.203125 
Q 15.484375 15.921875 20.484375 11.0625 
Q 25.484375 6.203125 34.421875 6.203125 
Q 39.59375 6.203125 44.453125 7.46875 
Q 49.3125 8.734375 54.109375 11.28125 
L 54.109375 2.78125 
Q 49.265625 0.734375 44.1875 -0.34375 
Q 39.109375 -1.421875 33.890625 -1.421875 
Q 20.796875 -1.421875 13.15625 6.1875 
Q 5.515625 13.8125 5.515625 26.8125 
Q 5.515625 40.234375 12.765625 48.109375 
Q 20.015625 56 32.328125 56 
Q 43.359375 56 49.78125 48.890625 
Q 56.203125 41.796875 56.203125 29.59375 
z
M 47.21875 32.234375 
Q 47.125 39.59375 43.09375 43.984375 
Q 39.0625 48.390625 32.421875 48.390625 
Q 24.90625 48.390625 20.390625 44.140625 
Q 15.875 39.890625 15.1875 32.171875 
z
" id="DejaVuSans-101"/>
      <path id="DejaVuSans-32"/>
      <path d="M 52 44.1875 
Q 55.375 50.25 60.0625 53.125 
Q 64.75 56 71.09375 56 
Q 79.640625 56 84.28125 50.015625 
Q 88.921875 44.046875 88.921875 33.015625 
L 88.921875 0 
L 79.890625 0 
L 79.890625 32.71875 
Q 79.890625 40.578125 77.09375 44.375 
Q 74.3125 48.1875 68.609375 48.1875 
Q 61.625 48.1875 57.5625 43.546875 
Q 53.515625 38.921875 53.515625 30.90625 
L 53.515625 0 
L 44.484375 0 
L 44.484375 32.71875 
Q 44.484375 40.625 41.703125 44.40625 
Q 38.921875 48.1875 33.109375 48.1875 
Q 26.21875 48.1875 22.15625 43.53125 
Q 18.109375 38.875 18.109375 30.90625 
L 18.109375 0 
L 9.078125 0 
L 9.078125 54.6875 
L 18.109375 54.6875 
L 18.109375 46.1875 
Q 21.1875 51.21875 25.484375 53.609375 
Q 29.78125 56 35.6875 56 
Q 41.65625 56 45.828125 52.96875 
Q 50 49.953125 52 44.1875 
z
" id="DejaVuSans-109"/>
      <path d="M 54.890625 33.015625 
L 54.890625 0 
L 45.90625 0 
L 45.90625 32.71875 
Q 45.90625 40.484375 42.875 44.328125 
Q 39.84375 48.1875 33.796875 48.1875 
Q 26.515625 48.1875 22.3125 43.546875 
Q 18.109375 38.921875 18.109375 30.90625 
L 18.109375 0 
L 9.078125 0 
L 9.078125 54.6875 
L 18.109375 54.6875 
L 18.109375 46.1875 
Q 21.34375 51.125 25.703125 53.5625 
Q 30.078125 56 35.796875 56 
Q 45.21875 56 50.046875 50.171875 
Q 54.890625 44.34375 54.890625 33.015625 
z
" id="DejaVuSans-110"/>
      <path d="M 9.421875 54.6875 
L 18.40625 54.6875 
L 18.40625 0 
L 9.421875 0 
z
M 9.421875 75.984375 
L 18.40625 75.984375 
L 18.40625 64.59375 
L 9.421875 64.59375 
z
" id="DejaVuSans-105"/>
      <path d="M 8.5 21.578125 
L 8.5 54.6875 
L 17.484375 54.6875 
L 17.484375 21.921875 
Q 17.484375 14.15625 20.5 10.265625 
Q 23.53125 6.390625 29.59375 6.390625 
Q 36.859375 6.390625 41.078125 11.03125 
Q 45.3125 15.671875 45.3125 23.6875 
L 45.3125 54.6875 
L 54.296875 54.6875 
L 54.296875 0 
L 45.3125 0 
L 45.3125 8.40625 
Q 42.046875 3.421875 37.71875 1 
Q 33.40625 -1.421875 27.6875 -1.421875 
Q 18.265625 -1.421875 13.375 4.4375 
Q 8.5 10.296875 8.5 21.578125 
z
M 31.109375 56 
z
" id="DejaVuSans-117"/>
      <path d="M 45.40625 46.390625 
L 45.40625 75.984375 
L 54.390625 75.984375 
L 54.390625 0 
L 45.40625 0 
L 45.40625 8.203125 
Q 42.578125 3.328125 38.25 0.953125 
Q 33.9375 -1.421875 27.875 -1.421875 
Q 17.96875 -1.421875 11.734375 6.484375 
Q 5.515625 14.40625 5.515625 27.296875 
Q 5.515625 40.1875 11.734375 48.09375 
Q 17.96875 56 27.875 56 
Q 33.9375 56 38.25 53.625 
Q 42.578125 51.265625 45.40625 46.390625 
z
M 14.796875 27.296875 
Q 14.796875 17.390625 18.875 11.75 
Q 22.953125 6.109375 30.078125 6.109375 
Q 37.203125 6.109375 41.296875 11.75 
Q 45.40625 17.390625 45.40625 27.296875 
Q 45.40625 37.203125 41.296875 42.84375 
Q 37.203125 48.484375 30.078125 48.484375 
Q 22.953125 48.484375 18.875 42.84375 
Q 14.796875 37.203125 14.796875 27.296875 
z
" id="DejaVuSans-100"/>
      <path d="M 18.109375 8.203125 
L 18.109375 -20.796875 
L 9.078125 -20.796875 
L 9.078125 54.6875 
L 18.109375 54.6875 
L 18.109375 46.390625 
Q 20.953125 51.265625 25.265625 53.625 
Q 29.59375 56 35.59375 56 
Q 45.5625 56 51.78125 48.09375 
Q 58.015625 40.1875 58.015625 27.296875 
Q 58.015625 14.40625 51.78125 6.484375 
Q 45.5625 -1.421875 35.59375 -1.421875 
Q 29.59375 -1.421875 25.265625 0.953125 
Q 20.953125 3.328125 18.109375 8.203125 
z
M 48.6875 27.296875 
Q 48.6875 37.203125 44.609375 42.84375 
Q 40.53125 48.484375 33.40625 48.484375 
Q 26.265625 48.484375 22.1875 42.84375 
Q 18.109375 37.203125 18.109375 27.296875 
Q 18.109375 17.390625 22.1875 11.75 
Q 26.265625 6.109375 33.40625 6.109375 
Q 40.53125 6.109375 44.609375 11.75 
Q 48.6875 17.390625 48.6875 27.296875 
z
" id="DejaVuSans-112"/>
      <path d="M 48.78125 52.59375 
L 48.78125 44.1875 
Q 44.96875 46.296875 41.140625 47.34375 
Q 37.3125 48.390625 33.40625 48.390625 
Q 24.65625 48.390625 19.8125 42.84375 
Q 14.984375 37.3125 14.984375 27.296875 
Q 14.984375 17.28125 19.8125 11.734375 
Q 24.65625 6.203125 33.40625 6.203125 
Q 37.3125 6.203125 41.140625 7.25 
Q 44.96875 8.296875 48.78125 10.40625 
L 48.78125 2.09375 
Q 45.015625 0.34375 40.984375 -0.53125 
Q 36.96875 -1.421875 32.421875 -1.421875 
Q 20.0625 -1.421875 12.78125 6.34375 
Q 5.515625 14.109375 5.515625 27.296875 
Q 5.515625 40.671875 12.859375 48.328125 
Q 20.21875 56 33.015625 56 
Q 37.15625 56 41.109375 55.140625 
Q 45.0625 54.296875 48.78125 52.59375 
z
" id="DejaVuSans-99"/>
      <path d="M 9.421875 75.984375 
L 18.40625 75.984375 
L 18.40625 0 
L 9.421875 0 
z
" id="DejaVuSans-108"/>
     </defs>
     <g transform="translate(410.13625 501.123625)scale(0.16 -0.16)">
      <use xlink:href="#DejaVuSans-83"/>
      <use x="63.476562" xlink:href="#DejaVuSans-104"/>
      <use x="126.855469" xlink:href="#DejaVuSans-111"/>
      <use x="188.037109" xlink:href="#DejaVuSans-114"/>
      <use x="229.150391" xlink:href="#DejaVuSans-116"/>
      <use x="268.359375" xlink:href="#DejaVuSans-97"/>
      <use x="329.638672" xlink:href="#DejaVuSans-103"/>
      <use x="393.115234" xlink:href="#DejaVuSans-101"/>
      <use x="454.638672" xlink:href="#DejaVuSans-32"/>
      <use x="486.425781" xlink:href="#DejaVuSans-109"/>
      <use x="583.837891" xlink:href="#DejaVuSans-97"/>
      <use x="645.117188" xlink:href="#DejaVuSans-103"/>
      <use x="708.59375" xlink:href="#DejaVuSans-110"/>
      <use x="771.972656" xlink:href="#DejaVuSans-105"/>
      <use x="799.755859" xlink:href="#DejaVuSans-116"/>
      <use x="838.964844" xlink:href="#DejaVuSans-117"/>
      <use x="902.34375" xlink:href="#DejaVuSans-100"/>
      <use x="965.820312" xlink:href="#DejaVuSans-101"/>
      <use x="1027.34375" xlink:href="#DejaVuSans-32"/>
      <use x="1059.130859" xlink:href="#DejaVuSans-112"/>
      <use x="1122.607422" xlink:href="#DejaVuSans-101"/>
      <use x="1184.130859" xlink:href="#DejaVuSans-114"/>
      <use x="1225.212891" xlink:href="#DejaVuSans-99"/>
      <use x="1280.193359" xlink:href="#DejaVuSans-101"/>
      <use x="1341.716797" xlink:href="#DejaVuSans-110"/>
      <use x="1405.095703" xlink:href="#DejaVuSans-116"/>
      <use x="1444.304688" xlink:href="#DejaVuSans-105"/>
      <use x="1472.087891" xlink:href="#DejaVuSans-108"/>
      <use x="1499.871094" xlink:href="#DejaVuSans-101"/>
     </g>
    </g>
   </g>
   <g id="matplotlib.axis_2">
    <g id="ytick_1">
     <g id="line2d_7">
      <defs>
       <path d="M 0 0 
L -3.5 0 
" id="m130cfdac4d" style="stroke:#000000;stroke-width:0.8;"/>
      </defs>
      <g>
       <use style="stroke:#000000;stroke-width:0.8;" x="130.5" xlink:href="#m130cfdac4d" y="468.288"/>
      </g>
     </g>
     <g id="text_8">
      <!-- 0.0 -->
      <defs>
       <path d="M 10.6875 12.40625 
L 21 12.40625 
L 21 0 
L 10.6875 0 
z
" id="DejaVuSans-46"/>
      </defs>
      <g transform="translate(107.596875 472.087219)scale(0.1 -0.1)">
       <use xlink:href="#DejaVuSans-48"/>
       <use x="63.623047" xlink:href="#DejaVuSans-46"/>
       <use x="95.410156" xlink:href="#DejaVuSans-48"/>
      </g>
     </g>
    </g>
    <g id="ytick_2">
     <g id="line2d_8">
      <g>
       <use style="stroke:#000000;stroke-width:0.8;" x="130.5" xlink:href="#m130cfdac4d" y="397.3248"/>
      </g>
     </g>
     <g id="text_9">
      <!-- 0.2 -->
      <g transform="translate(107.596875 401.124019)scale(0.1 -0.1)">
       <use xlink:href="#DejaVuSans-48"/>
       <use x="63.623047" xlink:href="#DejaVuSans-46"/>
       <use x="95.410156" xlink:href="#DejaVuSans-50"/>
      </g>
     </g>
    </g>
    <g id="ytick_3">
     <g id="line2d_9">
      <g>
       <use style="stroke:#000000;stroke-width:0.8;" x="130.5" xlink:href="#m130cfdac4d" y="326.3616"/>
      </g>
     </g>
     <g id="text_10">
      <!-- 0.4 -->
      <g transform="translate(107.596875 330.160819)scale(0.1 -0.1)">
       <use xlink:href="#DejaVuSans-48"/>
       <use x="63.623047" xlink:href="#DejaVuSans-46"/>
       <use x="95.410156" xlink:href="#DejaVuSans-52"/>
      </g>
     </g>
    </g>
    <g id="ytick_4">
     <g id="line2d_10">
      <g>
       <use style="stroke:#000000;stroke-width:0.8;" x="130.5" xlink:href="#m130cfdac4d" y="255.3984"/>
      </g>
     </g>
     <g id="text_11">
      <!-- 0.6 -->
      <g transform="translate(107.596875 259.197619)scale(0.1 -0.1)">
       <use xlink:href="#DejaVuSans-48"/>
       <use x="63.623047" xlink:href="#DejaVuSans-46"/>
       <use x="95.410156" xlink:href="#DejaVuSans-54"/>
      </g>
     </g>
    </g>
    <g id="ytick_5">
     <g id="line2d_11">
      <g>
       <use style="stroke:#000000;stroke-width:0.8;" x="130.5" xlink:href="#m130cfdac4d" y="184.4352"/>
      </g>
     </g>
     <g id="text_12">
      <!-- 0.8 -->
      <g transform="translate(107.596875 188.234419)scale(0.1 -0.1)">
       <use xlink:href="#DejaVuSans-48"/>
       <use x="63.623047" xlink:href="#DejaVuSans-46"/>
       <use x="95.410156" xlink:href="#DejaVuSans-56"/>
      </g>
     </g>
    </g>
    <g id="ytick_6">
     <g id="line2d_12">
      <g>
       <use style="stroke:#000000;stroke-width:0.8;" x="130.5" xlink:href="#m130cfdac4d" y="113.472"/>
      </g>
     </g>
     <g id="text_13">
      <!-- 1.0 -->
      <g transform="translate(107.596875 117.271219)scale(0.1 -0.1)">
       <use xlink:href="#DejaVuSans-49"/>
       <use x="63.623047" xlink:href="#DejaVuSans-46"/>
       <use x="95.410156" xlink:href="#DejaVuSans-48"/>
      </g>
     </g>
    </g>
    <g id="text_14">
     <!-- Variance explained -->
     <defs>
      <path d="M 28.609375 0 
L 0.78125 72.90625 
L 11.078125 72.90625 
L 34.1875 11.53125 
L 57.328125 72.90625 
L 67.578125 72.90625 
L 39.796875 0 
z
" id="DejaVuSans-86"/>
      <path d="M 54.890625 54.6875 
L 35.109375 28.078125 
L 55.90625 0 
L 45.3125 0 
L 29.390625 21.484375 
L 13.484375 0 
L 2.875 0 
L 24.125 28.609375 
L 4.6875 54.6875 
L 15.28125 54.6875 
L 29.78125 35.203125 
L 44.28125 54.6875 
z
" id="DejaVuSans-120"/>
     </defs>
     <g transform="translate(100.269375 367.7475)rotate(-90)scale(0.16 -0.16)">
      <use xlink:href="#DejaVuSans-86"/>
      <use x="68.298828" xlink:href="#DejaVuSans-97"/>
      <use x="129.578125" xlink:href="#DejaVuSans-114"/>
      <use x="170.691406" xlink:href="#DejaVuSans-105"/>
      <use x="198.474609" xlink:href="#DejaVuSans-97"/>
      <use x="259.753906" xlink:href="#DejaVuSans-110"/>
      <use x="323.132812" xlink:href="#DejaVuSans-99"/>
      <use x="378.113281" xlink:href="#DejaVuSans-101"/>
      <use x="439.636719" xlink:href="#DejaVuSans-32"/>
      <use x="471.423828" xlink:href="#DejaVuSans-101"/>
      <use x="532.931641" xlink:href="#DejaVuSans-120"/>
      <use x="592.111328" xlink:href="#DejaVuSans-112"/>
      <use x="655.587891" xlink:href="#DejaVuSans-108"/>
      <use x="683.371094" xlink:href="#DejaVuSans-97"/>
      <use x="744.650391" xlink:href="#DejaVuSans-105"/>
      <use x="772.433594" xlink:href="#DejaVuSans-110"/>
      <use x="835.8125" xlink:href="#DejaVuSans-101"/>
      <use x="897.335938" xlink:href="#DejaVuSans-100"/>
     </g>
    </g>
   </g>
   <g id="line2d_13">
    <path clip-path="url(#pc044df7a69)" d="M 130.5 453.146284 
L 138.591 453.146284 
L 146.682 453.146284 
L 154.773 453.146284 
L 162.864 453.146284 
L 170.955 453.146284 
L 179.046 453.146284 
L 187.137 453.146284 
L 195.228 453.146284 
L 203.319 453.146284 
L 211.41 453.146284 
L 219.501 453.146284 
L 227.592 453.146284 
L 235.683 453.146284 
L 243.774 453.146284 
L 251.865 453.146284 
L 259.956 453.146284 
L 268.047 453.146284 
L 276.138 453.146284 
L 284.229 453.146284 
L 292.32 453.146284 
L 300.411 453.146284 
L 308.502 453.146284 
L 316.593 453.146284 
L 324.684 453.146284 
L 332.775 453.146284 
L 340.866 453.146284 
L 348.957 453.146284 
L 357.048 453.146284 
L 365.139 453.146284 
L 373.23 453.146284 
L 381.321 453.146284 
L 389.412 453.146284 
L 397.503 453.146284 
L 405.594 453.146284 
L 413.685 453.146284 
L 421.776 453.146284 
L 429.867 453.146284 
L 437.958 453.146284 
L 446.049 453.146284 
L 454.14 453.146284 
L 462.231 453.146284 
L 470.322 453.146284 
L 478.413 453.146284 
L 486.504 453.146284 
L 494.595 453.146284 
L 502.686 453.146284 
L 510.777 453.146284 
L 518.868 453.146284 
L 526.959 453.146284 
L 535.05 453.146284 
L 543.141 453.146284 
L 551.232 453.146284 
L 559.323 453.146284 
L 567.414 453.146284 
L 575.505 453.146284 
L 583.596 453.146284 
L 591.687 453.146284 
L 599.778 453.146284 
L 607.869 453.146284 
L 615.96 453.146284 
L 624.051 453.146284 
L 632.142 453.146284 
L 640.233 453.146284 
L 648.324 453.146284 
L 656.415 453.146284 
L 664.506 453.146284 
L 672.597 453.146284 
L 680.688 453.146284 
L 688.779 453.146284 
L 696.87 453.146284 
L 704.961 453.146284 
L 713.052 452.842064 
L 721.143 451.261059 
L 729.234 451.261059 
L 737.325 451.261059 
L 745.416 451.261059 
L 753.507 451.261059 
L 761.598 451.261059 
L 769.689 451.261059 
L 777.78 451.261059 
L 785.871 451.261059 
L 793.962 451.261059 
L 802.053 451.261059 
L 810.144 451.261059 
L 818.235 451.261059 
L 826.326 451.261059 
L 834.417 451.261059 
L 842.508 451.261059 
L 850.599 451.261059 
L 858.69 451.261059 
L 866.781 451.261059 
L 874.872 451.261059 
L 882.963 451.261059 
L 891.054 451.261059 
L 899.145 451.261059 
L 907.236 451.261059 
L 915.327 451.21261 
L 923.418 451.900041 
L 931.509 452.395574 
" style="fill:none;stroke:#f18670;stroke-linecap:square;stroke-width:2;"/>
   </g>
   <g id="line2d_14">
    <path clip-path="url(#pc044df7a69)" d="M 130.5 468.285674 
L 138.591 468.285674 
L 146.682 468.285674 
L 154.773 468.285674 
L 162.864 468.285674 
L 170.955 468.285674 
L 179.046 468.285674 
L 187.137 468.285674 
L 195.228 468.285674 
L 203.319 468.285674 
L 211.41 468.285674 
L 219.501 468.285674 
L 227.592 468.285674 
L 235.683 468.285674 
L 243.774 468.285674 
L 251.865 468.285674 
L 259.956 468.285674 
L 268.047 468.285674 
L 276.138 468.285674 
L 284.229 468.285674 
L 292.32 468.285674 
L 300.411 468.285674 
L 308.502 468.285674 
L 316.593 468.285674 
L 324.684 468.285674 
L 332.775 468.285674 
L 340.866 468.285674 
L 348.957 468.285674 
L 357.048 468.285674 
L 365.139 468.285674 
L 373.23 468.285674 
L 381.321 468.285674 
L 389.412 468.285674 
L 397.503 468.285674 
L 405.594 468.285674 
L 413.685 468.285674 
L 421.776 468.285674 
L 429.867 468.285674 
L 437.958 468.285674 
L 446.049 468.285674 
L 454.14 468.285674 
L 462.231 468.285674 
L 470.322 468.285674 
L 478.413 468.285674 
L 486.504 468.285674 
L 494.595 468.285674 
L 502.686 468.285674 
L 510.777 468.285674 
L 518.868 468.285674 
L 526.959 468.285674 
L 535.05 468.285674 
L 543.141 468.285674 
L 551.232 468.285674 
L 559.323 468.285674 
L 567.414 468.285674 
L 575.505 468.285674 
L 583.596 468.285674 
L 591.687 468.285674 
L 599.778 468.285674 
L 607.869 468.285674 
L 615.96 468.285674 
L 624.051 468.285674 
L 632.142 468.285674 
L 640.233 468.285674 
L 648.324 468.285674 
L 656.415 468.285674 
L 664.506 468.285674 
L 672.597 468.285674 
L 680.688 468.285674 
L 688.779 468.285674 
L 696.87 468.285674 
L 704.961 468.285674 
L 713.052 468.287062 
L 721.143 468.283428 
L 729.234 468.283428 
L 737.325 468.283428 
L 745.416 468.283428 
L 753.507 468.283428 
L 761.598 468.283428 
L 769.689 468.283428 
L 777.78 468.283428 
L 785.871 468.283428 
L 793.962 468.283428 
L 802.053 468.283428 
L 810.144 468.283428 
L 818.235 468.283428 
L 826.326 468.283428 
L 834.417 468.283428 
L 842.508 468.283428 
L 850.599 468.283428 
L 858.69 468.283428 
L 866.781 468.283428 
L 874.872 468.283428 
L 882.963 468.283428 
L 891.054 468.283428 
L 899.145 468.283428 
L 907.236 468.283428 
L 915.327 468.287232 
L 923.418 468.2716 
L 931.509 468.269626 
" style="fill:none;stroke:#e24d3f;stroke-linecap:square;stroke-width:2;"/>
   </g>
   <g id="line2d_15">
    <path clip-path="url(#pc044df7a69)" d="M 130.5 464.383531 
L 138.591 464.383531 
L 146.682 464.383531 
L 154.773 464.383531 
L 162.864 464.383531 
L 170.955 464.383531 
L 179.046 464.383531 
L 187.137 464.383531 
L 195.228 464.383531 
L 203.319 464.383531 
L 211.41 464.383531 
L 219.501 464.383531 
L 227.592 464.383531 
L 235.683 464.383531 
L 243.774 464.383531 
L 251.865 464.383531 
L 259.956 464.383531 
L 268.047 464.383531 
L 276.138 464.383531 
L 284.229 464.383531 
L 292.32 464.383531 
L 300.411 464.383531 
L 308.502 464.383531 
L 316.593 464.383531 
L 324.684 464.383531 
L 332.775 464.383531 
L 340.866 464.383531 
L 348.957 464.383531 
L 357.048 464.383531 
L 365.139 464.383531 
L 373.23 464.383531 
L 381.321 464.383531 
L 389.412 464.383531 
L 397.503 464.383531 
L 405.594 464.383531 
L 413.685 464.383531 
L 421.776 464.383531 
L 429.867 464.383531 
L 437.958 464.383531 
L 446.049 464.383531 
L 454.14 464.383531 
L 462.231 464.383531 
L 470.322 464.383531 
L 478.413 464.383531 
L 486.504 464.383531 
L 494.595 464.383531 
L 502.686 464.383531 
L 510.777 464.383531 
L 518.868 464.383531 
L 526.959 464.383531 
L 535.05 464.383531 
L 543.141 464.383531 
L 551.232 464.383531 
L 559.323 464.383531 
L 567.414 464.383531 
L 575.505 464.383531 
L 583.596 464.383531 
L 591.687 464.383531 
L 599.778 464.383531 
L 607.869 464.383531 
L 615.96 464.383531 
L 624.051 464.383531 
L 632.142 464.383531 
L 640.233 464.383531 
L 648.324 464.383531 
L 656.415 464.383531 
L 664.506 464.383531 
L 672.597 464.383531 
L 680.688 464.383531 
L 688.779 464.383531 
L 696.87 464.383531 
L 704.961 464.383531 
L 713.052 464.872681 
L 721.143 464.641176 
L 729.234 464.641176 
L 737.325 464.641176 
L 745.416 464.641176 
L 753.507 464.641176 
L 761.598 464.641176 
L 769.689 464.641176 
L 777.78 464.641176 
L 785.871 464.641176 
L 793.962 464.641176 
L 802.053 464.641176 
L 810.144 464.641176 
L 818.235 464.641176 
L 826.326 464.641176 
L 834.417 464.641176 
L 842.508 464.641176 
L 850.599 464.641176 
L 858.69 464.641176 
L 866.781 464.641176 
L 874.872 464.641176 
L 882.963 464.641176 
L 891.054 464.641176 
L 899.145 464.641176 
L 907.236 464.641176 
L 915.327 465.391658 
L 923.418 465.342993 
L 931.509 465.905022 
" style="fill:none;stroke:#cf233e;stroke-linecap:square;stroke-width:2;"/>
   </g>
   <g id="line2d_16">
    <path clip-path="url(#pc044df7a69)" d="M 130.5 467.970657 
L 138.591 467.970657 
L 146.682 467.970657 
L 154.773 467.970657 
L 162.864 467.970657 
L 170.955 467.970657 
L 179.046 467.970657 
L 187.137 467.970657 
L 195.228 467.970657 
L 203.319 467.970657 
L 211.41 467.970657 
L 219.501 467.970657 
L 227.592 467.970657 
L 235.683 467.970657 
L 243.774 467.970657 
L 251.865 467.970657 
L 259.956 467.970657 
L 268.047 467.970657 
L 276.138 467.970657 
L 284.229 467.970657 
L 292.32 467.970657 
L 300.411 467.970657 
L 308.502 467.970657 
L 316.593 467.970657 
L 324.684 467.970657 
L 332.775 467.970657 
L 340.866 467.970657 
L 348.957 467.970657 
L 357.048 467.970657 
L 365.139 467.970657 
L 373.23 467.970657 
L 381.321 467.970657 
L 389.412 467.970657 
L 397.503 467.970657 
L 405.594 467.970657 
L 413.685 467.970657 
L 421.776 467.970657 
L 429.867 467.970657 
L 437.958 467.970657 
L 446.049 467.970657 
L 454.14 467.970657 
L 462.231 467.970657 
L 470.322 467.970657 
L 478.413 467.970657 
L 486.504 467.970657 
L 494.595 467.970657 
L 502.686 467.970657 
L 510.777 467.970657 
L 518.868 467.970657 
L 526.959 467.970657 
L 535.05 467.970657 
L 543.141 467.970657 
L 551.232 467.970657 
L 559.323 467.970657 
L 567.414 467.970657 
L 575.505 467.970657 
L 583.596 467.970657 
L 591.687 467.970657 
L 599.778 467.970657 
L 607.869 467.970657 
L 615.96 467.970657 
L 624.051 467.970657 
L 632.142 467.970657 
L 640.233 467.970657 
L 648.324 467.970657 
L 656.415 467.970657 
L 664.506 467.970657 
L 672.597 467.970657 
L 680.688 467.970657 
L 688.779 467.970657 
L 696.87 467.970657 
L 704.961 467.970657 
L 713.052 467.944532 
L 721.143 467.957376 
L 729.234 467.957376 
L 737.325 467.957376 
L 745.416 467.957376 
L 753.507 467.957376 
L 761.598 467.957376 
L 769.689 467.957376 
L 777.78 467.957376 
L 785.871 467.957376 
L 793.962 467.957376 
L 802.053 467.957376 
L 810.144 467.957376 
L 818.235 467.957376 
L 826.326 467.957376 
L 834.417 467.957376 
L 842.508 467.957376 
L 850.599 467.957376 
L 858.69 467.957376 
L 866.781 467.957376 
L 874.872 467.957376 
L 882.963 467.957376 
L 891.054 467.957376 
L 899.145 467.957376 
L 907.236 467.957376 
L 915.327 468.026565 
L 923.418 468.08652 
L 931.509 468.081622 
" style="fill:none;stroke:#681e33;stroke-linecap:square;stroke-width:2;"/>
   </g>
   <g id="line2d_17">
    <path clip-path="url(#pc044df7a69)" d="M 130.5 466.615869 
L 138.591 466.615869 
L 146.682 466.615869 
L 154.773 466.615869 
L 162.864 466.615869 
L 170.955 466.615869 
L 179.046 466.615869 
L 187.137 466.615869 
L 195.228 466.615869 
L 203.319 466.615869 
L 211.41 466.615869 
L 219.501 466.615869 
L 227.592 466.615869 
L 235.683 466.615869 
L 243.774 466.615869 
L 251.865 466.615869 
L 259.956 466.615869 
L 268.047 466.615869 
L 276.138 466.615869 
L 284.229 466.615869 
L 292.32 466.615869 
L 300.411 466.615869 
L 308.502 466.615869 
L 316.593 466.615869 
L 324.684 466.615869 
L 332.775 466.615869 
L 340.866 466.615869 
L 348.957 466.615869 
L 357.048 466.615869 
L 365.139 466.615869 
L 373.23 466.615869 
L 381.321 466.615869 
L 389.412 466.615869 
L 397.503 466.615869 
L 405.594 466.615869 
L 413.685 466.615869 
L 421.776 466.615869 
L 429.867 466.615869 
L 437.958 466.615869 
L 446.049 466.615869 
L 454.14 466.615869 
L 462.231 466.615869 
L 470.322 466.615869 
L 478.413 466.615869 
L 486.504 466.615869 
L 494.595 466.615869 
L 502.686 466.615869 
L 510.777 466.615869 
L 518.868 466.615869 
L 526.959 466.615869 
L 535.05 466.615869 
L 543.141 466.615869 
L 551.232 466.615869 
L 559.323 466.615869 
L 567.414 466.615869 
L 575.505 466.615869 
L 583.596 466.615869 
L 591.687 466.615869 
L 599.778 466.615869 
L 607.869 466.615869 
L 615.96 466.615869 
L 624.051 466.615869 
L 632.142 466.615869 
L 640.233 466.615869 
L 648.324 466.615869 
L 656.415 466.615869 
L 664.506 466.615869 
L 672.597 466.615869 
L 680.688 466.615869 
L 688.779 466.615869 
L 696.87 466.615869 
L 704.961 466.615869 
L 713.052 466.92383 
L 721.143 466.654099 
L 729.234 466.654099 
L 737.325 466.654099 
L 745.416 466.654099 
L 753.507 466.654099 
L 761.598 466.654099 
L 769.689 466.654099 
L 777.78 466.654099 
L 785.871 466.654099 
L 793.962 466.654099 
L 802.053 466.654099 
L 810.144 466.654099 
L 818.235 466.654099 
L 826.326 466.654099 
L 834.417 466.654099 
L 842.508 466.654099 
L 850.599 466.654099 
L 858.69 466.654099 
L 866.781 466.654099 
L 874.872 466.654099 
L 882.963 466.654099 
L 891.054 466.654099 
L 899.145 466.654099 
L 907.236 466.654099 
L 915.327 466.586304 
L 923.418 466.777657 
L 931.509 467.003216 
" style="fill:none;stroke:#676572;stroke-linecap:square;stroke-width:2;"/>
   </g>
   <g id="line2d_18">
    <path clip-path="url(#pc044df7a69)" d="M 130.5 317.631044 
L 138.591 317.631044 
L 146.682 317.631044 
L 154.773 317.631044 
L 162.864 317.631044 
L 170.955 317.631044 
L 179.046 317.631044 
L 187.137 317.631044 
L 195.228 317.631044 
L 203.319 317.631044 
L 211.41 317.631044 
L 219.501 317.631044 
L 227.592 317.631044 
L 235.683 317.631044 
L 243.774 317.631044 
L 251.865 317.631044 
L 259.956 317.631044 
L 268.047 317.631044 
L 276.138 317.631044 
L 284.229 317.631044 
L 292.32 317.631044 
L 300.411 317.631044 
L 308.502 317.631044 
L 316.593 317.631044 
L 324.684 317.631044 
L 332.775 317.631044 
L 340.866 317.631044 
L 348.957 317.631044 
L 357.048 317.631044 
L 365.139 317.631044 
L 373.23 317.631044 
L 381.321 317.631044 
L 389.412 317.631044 
L 397.503 317.631044 
L 405.594 317.631044 
L 413.685 317.631044 
L 421.776 317.631044 
L 429.867 317.631044 
L 437.958 317.631044 
L 446.049 317.631044 
L 454.14 317.631044 
L 462.231 317.631044 
L 470.322 317.631044 
L 478.413 317.631044 
L 486.504 317.631044 
L 494.595 317.631044 
L 502.686 317.631044 
L 510.777 317.631044 
L 518.868 317.631044 
L 526.959 317.631044 
L 535.05 317.631044 
L 543.141 317.631044 
L 551.232 317.631044 
L 559.323 317.631044 
L 567.414 317.631044 
L 575.505 317.631044 
L 583.596 317.631044 
L 591.687 317.631044 
L 599.778 317.631044 
L 607.869 317.631044 
L 615.96 317.631044 
L 624.051 317.631044 
L 632.142 317.631044 
L 640.233 317.631044 
L 648.324 317.631044 
L 656.415 317.631044 
L 664.506 317.631044 
L 672.597 317.631044 
L 680.688 317.631044 
L 688.779 317.631044 
L 696.87 317.631044 
L 704.961 317.631044 
L 713.052 311.884098 
L 721.143 309.413326 
L 729.234 309.413326 
L 737.325 309.413326 
L 745.416 309.413326 
L 753.507 309.413326 
L 761.598 309.413326 
L 769.689 309.413326 
L 777.78 309.413326 
L 785.871 309.413326 
L 793.962 309.413326 
L 802.053 309.413326 
L 810.144 309.413326 
L 818.235 309.413326 
L 826.326 309.413326 
L 834.417 309.413326 
L 842.508 309.413326 
L 850.599 309.413326 
L 858.69 309.413326 
L 866.781 309.413326 
L 874.872 309.413326 
L 882.963 309.413326 
L 891.054 309.413326 
L 899.145 309.413326 
L 907.236 309.413326 
L 915.327 304.832329 
L 923.418 303.132219 
L 931.509 309.613215 
" style="fill:none;stroke:#f3be22;stroke-linecap:square;stroke-width:2;"/>
   </g>
   <g id="line2d_19">
    <path clip-path="url(#pc044df7a69)" d="M 130.5 456.860102 
L 138.591 456.860102 
L 146.682 456.860102 
L 154.773 456.860102 
L 162.864 456.860102 
L 170.955 456.860102 
L 179.046 456.860102 
L 187.137 456.860102 
L 195.228 456.860102 
L 203.319 456.860102 
L 211.41 456.860102 
L 219.501 456.860102 
L 227.592 456.860102 
L 235.683 456.860102 
L 243.774 456.860102 
L 251.865 456.860102 
L 259.956 456.860102 
L 268.047 456.860102 
L 276.138 456.860102 
L 284.229 456.860102 
L 292.32 456.860102 
L 300.411 456.860102 
L 308.502 456.860102 
L 316.593 456.860102 
L 324.684 456.860102 
L 332.775 456.860102 
L 340.866 456.860102 
L 348.957 456.860102 
L 357.048 456.860102 
L 365.139 456.860102 
L 373.23 456.860102 
L 381.321 456.860102 
L 389.412 456.860102 
L 397.503 456.860102 
L 405.594 456.860102 
L 413.685 456.860102 
L 421.776 456.860102 
L 429.867 456.860102 
L 437.958 456.860102 
L 446.049 456.860102 
L 454.14 456.860102 
L 462.231 456.860102 
L 470.322 456.860102 
L 478.413 456.860102 
L 486.504 456.860102 
L 494.595 456.860102 
L 502.686 456.860102 
L 510.777 456.860102 
L 518.868 456.860102 
L 526.959 456.860102 
L 535.05 456.860102 
L 543.141 456.860102 
L 551.232 456.860102 
L 559.323 456.860102 
L 567.414 456.860102 
L 575.505 456.860102 
L 583.596 456.860102 
L 591.687 456.860102 
L 599.778 456.860102 
L 607.869 456.860102 
L 615.96 456.860102 
L 624.051 456.860102 
L 632.142 456.860102 
L 640.233 456.860102 
L 648.324 456.860102 
L 656.415 456.860102 
L 664.506 456.860102 
L 672.597 456.860102 
L 680.688 456.860102 
L 688.779 456.860102 
L 696.87 456.860102 
L 704.961 456.860102 
L 713.052 459.625949 
L 721.143 460.858555 
L 729.234 460.858555 
L 737.325 460.858555 
L 745.416 460.858555 
L 753.507 460.858555 
L 761.598 460.858555 
L 769.689 460.858555 
L 777.78 460.858555 
L 785.871 460.858555 
L 793.962 460.858555 
L 802.053 460.858555 
L 810.144 460.858555 
L 818.235 460.858555 
L 826.326 460.858555 
L 834.417 460.858555 
L 842.508 460.858555 
L 850.599 460.858555 
L 858.69 460.858555 
L 866.781 460.858555 
L 874.872 460.858555 
L 882.963 460.858555 
L 891.054 460.858555 
L 899.145 460.858555 
L 907.236 460.858555 
L 915.327 465.671099 
L 923.418 466.11751 
L 931.509 466.968392 
" style="fill:none;stroke:#59deba;stroke-linecap:square;stroke-width:2;"/>
   </g>
   <g id="line2d_20">
    <path clip-path="url(#pc044df7a69)" d="M 130.5 455.383123 
L 138.591 455.383123 
L 146.682 455.383123 
L 154.773 455.383123 
L 162.864 455.383123 
L 170.955 455.383123 
L 179.046 455.383123 
L 187.137 455.383123 
L 195.228 455.383123 
L 203.319 455.383123 
L 211.41 455.383123 
L 219.501 455.383123 
L 227.592 455.383123 
L 235.683 455.383123 
L 243.774 455.383123 
L 251.865 455.383123 
L 259.956 455.383123 
L 268.047 455.383123 
L 276.138 455.383123 
L 284.229 455.383123 
L 292.32 455.383123 
L 300.411 455.383123 
L 308.502 455.383123 
L 316.593 455.383123 
L 324.684 455.383123 
L 332.775 455.383123 
L 340.866 455.383123 
L 348.957 455.383123 
L 357.048 455.383123 
L 365.139 455.383123 
L 373.23 455.383123 
L 381.321 455.383123 
L 389.412 455.383123 
L 397.503 455.383123 
L 405.594 455.383123 
L 413.685 455.383123 
L 421.776 455.383123 
L 429.867 455.383123 
L 437.958 455.383123 
L 446.049 455.383123 
L 454.14 455.383123 
L 462.231 455.383123 
L 470.322 455.383123 
L 478.413 455.383123 
L 486.504 455.383123 
L 494.595 455.383123 
L 502.686 455.383123 
L 510.777 455.383123 
L 518.868 455.383123 
L 526.959 455.383123 
L 535.05 455.383123 
L 543.141 455.383123 
L 551.232 455.383123 
L 559.323 455.383123 
L 567.414 455.383123 
L 575.505 455.383123 
L 583.596 455.383123 
L 591.687 455.383123 
L 599.778 455.383123 
L 607.869 455.383123 
L 615.96 455.383123 
L 624.051 455.383123 
L 632.142 455.383123 
L 640.233 455.383123 
L 648.324 455.383123 
L 656.415 455.383123 
L 664.506 455.383123 
L 672.597 455.383123 
L 680.688 455.383123 
L 688.779 455.383123 
L 696.87 455.383123 
L 704.961 455.383123 
L 713.052 453.926061 
L 721.143 450.943792 
L 729.234 450.943792 
L 737.325 450.943792 
L 745.416 450.943792 
L 753.507 450.943792 
L 761.598 450.943792 
L 769.689 450.943792 
L 777.78 450.943792 
L 785.871 450.943792 
L 793.962 450.943792 
L 802.053 450.943792 
L 810.144 450.943792 
L 818.235 450.943792 
L 826.326 450.943792 
L 834.417 450.943792 
L 842.508 450.943792 
L 850.599 450.943792 
L 858.69 450.943792 
L 866.781 450.943792 
L 874.872 450.943792 
L 882.963 450.943792 
L 891.054 450.943792 
L 899.145 450.943792 
L 907.236 450.943792 
L 915.327 448.390116 
L 923.418 447.700288 
L 931.509 444.90808 
" style="fill:none;stroke:#14015c;stroke-linecap:square;stroke-width:2;"/>
   </g>
   <g id="line2d_21">
    <path clip-path="url(#pc044df7a69)" d="M 130.5 467.340215 
L 138.591 467.340215 
L 146.682 467.340215 
L 154.773 467.340215 
L 162.864 467.340215 
L 170.955 467.340215 
L 179.046 467.340215 
L 187.137 467.340215 
L 195.228 467.340215 
L 203.319 467.340215 
L 211.41 467.340215 
L 219.501 467.340215 
L 227.592 467.340215 
L 235.683 467.340215 
L 243.774 467.340215 
L 251.865 467.340215 
L 259.956 467.340215 
L 268.047 467.340215 
L 276.138 467.340215 
L 284.229 467.340215 
L 292.32 467.340215 
L 300.411 467.340215 
L 308.502 467.340215 
L 316.593 467.340215 
L 324.684 467.340215 
L 332.775 467.340215 
L 340.866 467.340215 
L 348.957 467.340215 
L 357.048 467.340215 
L 365.139 467.340215 
L 373.23 467.340215 
L 381.321 467.340215 
L 389.412 467.340215 
L 397.503 467.340215 
L 405.594 467.340215 
L 413.685 467.340215 
L 421.776 467.340215 
L 429.867 467.340215 
L 437.958 467.340215 
L 446.049 467.340215 
L 454.14 467.340215 
L 462.231 467.340215 
L 470.322 467.340215 
L 478.413 467.340215 
L 486.504 467.340215 
L 494.595 467.340215 
L 502.686 467.340215 
L 510.777 467.340215 
L 518.868 467.340215 
L 526.959 467.340215 
L 535.05 467.340215 
L 543.141 467.340215 
L 551.232 467.340215 
L 559.323 467.340215 
L 567.414 467.340215 
L 575.505 467.340215 
L 583.596 467.340215 
L 591.687 467.340215 
L 599.778 467.340215 
L 607.869 467.340215 
L 615.96 467.340215 
L 624.051 467.340215 
L 632.142 467.340215 
L 640.233 467.340215 
L 648.324 467.340215 
L 656.415 467.340215 
L 664.506 467.340215 
L 672.597 467.340215 
L 680.688 467.340215 
L 688.779 467.340215 
L 696.87 467.340215 
L 704.961 467.340215 
L 713.052 467.357713 
L 721.143 467.142479 
L 729.234 467.142479 
L 737.325 467.142479 
L 745.416 467.142479 
L 753.507 467.142479 
L 761.598 467.142479 
L 769.689 467.142479 
L 777.78 467.142479 
L 785.871 467.142479 
L 793.962 467.142479 
L 802.053 467.142479 
L 810.144 467.142479 
L 818.235 467.142479 
L 826.326 467.142479 
L 834.417 467.142479 
L 842.508 467.142479 
L 850.599 467.142479 
L 858.69 467.142479 
L 866.781 467.142479 
L 874.872 467.142479 
L 882.963 467.142479 
L 891.054 467.142479 
L 899.145 467.142479 
L 907.236 467.142479 
L 915.327 466.680384 
L 923.418 466.678521 
L 931.509 466.346392 
" style="fill:none;stroke:#daf8a3;stroke-linecap:square;stroke-width:2;"/>
   </g>
   <g id="line2d_22">
    <path clip-path="url(#pc044df7a69)" d="M 130.5 467.905275 
L 138.591 467.905275 
L 146.682 467.905275 
L 154.773 467.905275 
L 162.864 467.905275 
L 170.955 467.905275 
L 179.046 467.905275 
L 187.137 467.905275 
L 195.228 467.905275 
L 203.319 467.905275 
L 211.41 467.905275 
L 219.501 467.905275 
L 227.592 467.905275 
L 235.683 467.905275 
L 243.774 467.905275 
L 251.865 467.905275 
L 259.956 467.905275 
L 268.047 467.905275 
L 276.138 467.905275 
L 284.229 467.905275 
L 292.32 467.905275 
L 300.411 467.905275 
L 308.502 467.905275 
L 316.593 467.905275 
L 324.684 467.905275 
L 332.775 467.905275 
L 340.866 467.905275 
L 348.957 467.905275 
L 357.048 467.905275 
L 365.139 467.905275 
L 373.23 467.905275 
L 381.321 467.905275 
L 389.412 467.905275 
L 397.503 467.905275 
L 405.594 467.905275 
L 413.685 467.905275 
L 421.776 467.905275 
L 429.867 467.905275 
L 437.958 467.905275 
L 446.049 467.905275 
L 454.14 467.905275 
L 462.231 467.905275 
L 470.322 467.905275 
L 478.413 467.905275 
L 486.504 467.905275 
L 494.595 467.905275 
L 502.686 467.905275 
L 510.777 467.905275 
L 518.868 467.905275 
L 526.959 467.905275 
L 535.05 467.905275 
L 543.141 467.905275 
L 551.232 467.905275 
L 559.323 467.905275 
L 567.414 467.905275 
L 575.505 467.905275 
L 583.596 467.905275 
L 591.687 467.905275 
L 599.778 467.905275 
L 607.869 467.905275 
L 615.96 467.905275 
L 624.051 467.905275 
L 632.142 467.905275 
L 640.233 467.905275 
L 648.324 467.905275 
L 656.415 467.905275 
L 664.506 467.905275 
L 672.597 467.905275 
L 680.688 467.905275 
L 688.779 467.905275 
L 696.87 467.905275 
L 704.961 467.905275 
L 713.052 467.933825 
L 721.143 468.023156 
L 729.234 468.023156 
L 737.325 468.023156 
L 745.416 468.023156 
L 753.507 468.023156 
L 761.598 468.023156 
L 769.689 468.023156 
L 777.78 468.023156 
L 785.871 468.023156 
L 793.962 468.023156 
L 802.053 468.023156 
L 810.144 468.023156 
L 818.235 468.023156 
L 826.326 468.023156 
L 834.417 468.023156 
L 842.508 468.023156 
L 850.599 468.023156 
L 858.69 468.023156 
L 866.781 468.023156 
L 874.872 468.023156 
L 882.963 468.023156 
L 891.054 468.023156 
L 899.145 468.023156 
L 907.236 468.023156 
L 915.327 468.110039 
L 923.418 468.17687 
L 931.509 468.129528 
" style="fill:none;stroke:#0b7a0a;stroke-linecap:square;stroke-width:2;"/>
   </g>
   <g id="line2d_23">
    <path clip-path="url(#pc044df7a69)" d="M 130.5 468.233146 
L 138.591 468.233146 
L 146.682 468.233146 
L 154.773 468.233146 
L 162.864 468.233146 
L 170.955 468.233146 
L 179.046 468.233146 
L 187.137 468.233146 
L 195.228 468.233146 
L 203.319 468.233146 
L 211.41 468.233146 
L 219.501 468.233146 
L 227.592 468.233146 
L 235.683 468.233146 
L 243.774 468.233146 
L 251.865 468.233146 
L 259.956 468.233146 
L 268.047 468.233146 
L 276.138 468.233146 
L 284.229 468.233146 
L 292.32 468.233146 
L 300.411 468.233146 
L 308.502 468.233146 
L 316.593 468.233146 
L 324.684 468.233146 
L 332.775 468.233146 
L 340.866 468.233146 
L 348.957 468.233146 
L 357.048 468.233146 
L 365.139 468.233146 
L 373.23 468.233146 
L 381.321 468.233146 
L 389.412 468.233146 
L 397.503 468.233146 
L 405.594 468.233146 
L 413.685 468.233146 
L 421.776 468.233146 
L 429.867 468.233146 
L 437.958 468.233146 
L 446.049 468.233146 
L 454.14 468.233146 
L 462.231 468.233146 
L 470.322 468.233146 
L 478.413 468.233146 
L 486.504 468.233146 
L 494.595 468.233146 
L 502.686 468.233146 
L 510.777 468.233146 
L 518.868 468.233146 
L 526.959 468.233146 
L 535.05 468.233146 
L 543.141 468.233146 
L 551.232 468.233146 
L 559.323 468.233146 
L 567.414 468.233146 
L 575.505 468.233146 
L 583.596 468.233146 
L 591.687 468.233146 
L 599.778 468.233146 
L 607.869 468.233146 
L 615.96 468.233146 
L 624.051 468.233146 
L 632.142 468.233146 
L 640.233 468.233146 
L 648.324 468.233146 
L 656.415 468.233146 
L 664.506 468.233146 
L 672.597 468.233146 
L 680.688 468.233146 
L 688.779 468.233146 
L 696.87 468.233146 
L 704.961 468.233146 
L 713.052 468.231993 
L 721.143 468.15353 
L 729.234 468.15353 
L 737.325 468.15353 
L 745.416 468.15353 
L 753.507 468.15353 
L 761.598 468.15353 
L 769.689 468.15353 
L 777.78 468.15353 
L 785.871 468.15353 
L 793.962 468.15353 
L 802.053 468.15353 
L 810.144 468.15353 
L 818.235 468.15353 
L 826.326 468.15353 
L 834.417 468.15353 
L 842.508 468.15353 
L 850.599 468.15353 
L 858.69 468.15353 
L 866.781 468.15353 
L 874.872 468.15353 
L 882.963 468.15353 
L 891.054 468.15353 
L 899.145 468.15353 
L 907.236 468.15353 
L 915.327 468.176258 
L 923.418 468.0947 
L 931.509 468.141991 
" style="fill:none;stroke:#f8ffa2;stroke-linecap:square;stroke-width:2;"/>
   </g>
   <g id="line2d_24">
    <path clip-path="url(#pc044df7a69)" d="M 130.5 465.548753 
L 138.591 465.548753 
L 146.682 465.548753 
L 154.773 465.548753 
L 162.864 465.548753 
L 170.955 465.548753 
L 179.046 465.548753 
L 187.137 465.548753 
L 195.228 465.548753 
L 203.319 465.548753 
L 211.41 465.548753 
L 219.501 465.548753 
L 227.592 465.548753 
L 235.683 465.548753 
L 243.774 465.548753 
L 251.865 465.548753 
L 259.956 465.548753 
L 268.047 465.548753 
L 276.138 465.548753 
L 284.229 465.548753 
L 292.32 465.548753 
L 300.411 465.548753 
L 308.502 465.548753 
L 316.593 465.548753 
L 324.684 465.548753 
L 332.775 465.548753 
L 340.866 465.548753 
L 348.957 465.548753 
L 357.048 465.548753 
L 365.139 465.548753 
L 373.23 465.548753 
L 381.321 465.548753 
L 389.412 465.548753 
L 397.503 465.548753 
L 405.594 465.548753 
L 413.685 465.548753 
L 421.776 465.548753 
L 429.867 465.548753 
L 437.958 465.548753 
L 446.049 465.548753 
L 454.14 465.548753 
L 462.231 465.548753 
L 470.322 465.548753 
L 478.413 465.548753 
L 486.504 465.548753 
L 494.595 465.548753 
L 502.686 465.548753 
L 510.777 465.548753 
L 518.868 465.548753 
L 526.959 465.548753 
L 535.05 465.548753 
L 543.141 465.548753 
L 551.232 465.548753 
L 559.323 465.548753 
L 567.414 465.548753 
L 575.505 465.548753 
L 583.596 465.548753 
L 591.687 465.548753 
L 599.778 465.548753 
L 607.869 465.548753 
L 615.96 465.548753 
L 624.051 465.548753 
L 632.142 465.548753 
L 640.233 465.548753 
L 648.324 465.548753 
L 656.415 465.548753 
L 664.506 465.548753 
L 672.597 465.548753 
L 680.688 465.548753 
L 688.779 465.548753 
L 696.87 465.548753 
L 704.961 465.548753 
L 713.052 465.251984 
L 721.143 465.075733 
L 729.234 465.075733 
L 737.325 465.075733 
L 745.416 465.075733 
L 753.507 465.075733 
L 761.598 465.075733 
L 769.689 465.075733 
L 777.78 465.075733 
L 785.871 465.075733 
L 793.962 465.075733 
L 802.053 465.075733 
L 810.144 465.075733 
L 818.235 465.075733 
L 826.326 465.075733 
L 834.417 465.075733 
L 842.508 465.075733 
L 850.599 465.075733 
L 858.69 465.075733 
L 866.781 465.075733 
L 874.872 465.075733 
L 882.963 465.075733 
L 891.054 465.075733 
L 899.145 465.075733 
L 907.236 465.075733 
L 915.327 464.720101 
L 923.418 464.996617 
L 931.509 465.010745 
" style="fill:none;stroke:#578dc0;stroke-linecap:square;stroke-width:2;"/>
   </g>
   <g id="line2d_25">
    <path clip-path="url(#pc044df7a69)" d="M 130.5 467.951143 
L 138.591 467.951143 
L 146.682 467.951143 
L 154.773 467.951143 
L 162.864 467.951143 
L 170.955 467.951143 
L 179.046 467.951143 
L 187.137 467.951143 
L 195.228 467.951143 
L 203.319 467.951143 
L 211.41 467.951143 
L 219.501 467.951143 
L 227.592 467.951143 
L 235.683 467.951143 
L 243.774 467.951143 
L 251.865 467.951143 
L 259.956 467.951143 
L 268.047 467.951143 
L 276.138 467.951143 
L 284.229 467.951143 
L 292.32 467.951143 
L 300.411 467.951143 
L 308.502 467.951143 
L 316.593 467.951143 
L 324.684 467.951143 
L 332.775 467.951143 
L 340.866 467.951143 
L 348.957 467.951143 
L 357.048 467.951143 
L 365.139 467.951143 
L 373.23 467.951143 
L 381.321 467.951143 
L 389.412 467.951143 
L 397.503 467.951143 
L 405.594 467.951143 
L 413.685 467.951143 
L 421.776 467.951143 
L 429.867 467.951143 
L 437.958 467.951143 
L 446.049 467.951143 
L 454.14 467.951143 
L 462.231 467.951143 
L 470.322 467.951143 
L 478.413 467.951143 
L 486.504 467.951143 
L 494.595 467.951143 
L 502.686 467.951143 
L 510.777 467.951143 
L 518.868 467.951143 
L 526.959 467.951143 
L 535.05 467.951143 
L 543.141 467.951143 
L 551.232 467.951143 
L 559.323 467.951143 
L 567.414 467.951143 
L 575.505 467.951143 
L 583.596 467.951143 
L 591.687 467.951143 
L 599.778 467.951143 
L 607.869 467.951143 
L 615.96 467.951143 
L 624.051 467.951143 
L 632.142 467.951143 
L 640.233 467.951143 
L 648.324 467.951143 
L 656.415 467.951143 
L 664.506 467.951143 
L 672.597 467.951143 
L 680.688 467.951143 
L 688.779 467.951143 
L 696.87 467.951143 
L 704.961 467.951143 
L 713.052 468.030245 
L 721.143 468.000123 
L 729.234 468.000123 
L 737.325 468.000123 
L 745.416 468.000123 
L 753.507 468.000123 
L 761.598 468.000123 
L 769.689 468.000123 
L 777.78 468.000123 
L 785.871 468.000123 
L 793.962 468.000123 
L 802.053 468.000123 
L 810.144 468.000123 
L 818.235 468.000123 
L 826.326 468.000123 
L 834.417 468.000123 
L 842.508 468.000123 
L 850.599 468.000123 
L 858.69 468.000123 
L 866.781 468.000123 
L 874.872 468.000123 
L 882.963 468.000123 
L 891.054 468.000123 
L 899.145 468.000123 
L 907.236 468.000123 
L 915.327 468.007401 
L 923.418 468.025657 
L 931.509 468.079712 
" style="fill:none;stroke:#4e4ad8;stroke-linecap:square;stroke-width:2;"/>
   </g>
   <g id="line2d_26">
    <path clip-path="url(#pc044df7a69)" d="M 130.5 468.181323 
L 138.591 468.181323 
L 146.682 468.181323 
L 154.773 468.181323 
L 162.864 468.181323 
L 170.955 468.181323 
L 179.046 468.181323 
L 187.137 468.181323 
L 195.228 468.181323 
L 203.319 468.181323 
L 211.41 468.181323 
L 219.501 468.181323 
L 227.592 468.181323 
L 235.683 468.181323 
L 243.774 468.181323 
L 251.865 468.181323 
L 259.956 468.181323 
L 268.047 468.181323 
L 276.138 468.181323 
L 284.229 468.181323 
L 292.32 468.181323 
L 300.411 468.181323 
L 308.502 468.181323 
L 316.593 468.181323 
L 324.684 468.181323 
L 332.775 468.181323 
L 340.866 468.181323 
L 348.957 468.181323 
L 357.048 468.181323 
L 365.139 468.181323 
L 373.23 468.181323 
L 381.321 468.181323 
L 389.412 468.181323 
L 397.503 468.181323 
L 405.594 468.181323 
L 413.685 468.181323 
L 421.776 468.181323 
L 429.867 468.181323 
L 437.958 468.181323 
L 446.049 468.181323 
L 454.14 468.181323 
L 462.231 468.181323 
L 470.322 468.181323 
L 478.413 468.181323 
L 486.504 468.181323 
L 494.595 468.181323 
L 502.686 468.181323 
L 510.777 468.181323 
L 518.868 468.181323 
L 526.959 468.181323 
L 535.05 468.181323 
L 543.141 468.181323 
L 551.232 468.181323 
L 559.323 468.181323 
L 567.414 468.181323 
L 575.505 468.181323 
L 583.596 468.181323 
L 591.687 468.181323 
L 599.778 468.181323 
L 607.869 468.181323 
L 615.96 468.181323 
L 624.051 468.181323 
L 632.142 468.181323 
L 640.233 468.181323 
L 648.324 468.181323 
L 656.415 468.181323 
L 664.506 468.181323 
L 672.597 468.181323 
L 680.688 468.181323 
L 688.779 468.181323 
L 696.87 468.181323 
L 704.961 468.181323 
L 713.052 468.095458 
L 721.143 467.79611 
L 729.234 467.79611 
L 737.325 467.79611 
L 745.416 467.79611 
L 753.507 467.79611 
L 761.598 467.79611 
L 769.689 467.79611 
L 777.78 467.79611 
L 785.871 467.79611 
L 793.962 467.79611 
L 802.053 467.79611 
L 810.144 467.79611 
L 818.235 467.79611 
L 826.326 467.79611 
L 834.417 467.79611 
L 842.508 467.79611 
L 850.599 467.79611 
L 858.69 467.79611 
L 866.781 467.79611 
L 874.872 467.79611 
L 882.963 467.79611 
L 891.054 467.79611 
L 899.145 467.79611 
L 907.236 467.79611 
L 915.327 467.547431 
L 923.418 467.387298 
L 931.509 466.642182 
" style="fill:none;stroke:#32b3f7;stroke-linecap:square;stroke-width:2;"/>
   </g>
   <g id="patch_3">
    <path d="M 130.5 468.288 
L 130.5 113.472 
" style="fill:none;stroke:#000000;stroke-linecap:square;stroke-linejoin:miter;stroke-width:0.8;"/>
   </g>
   <g id="patch_4">
    <path d="M 939.6 468.288 
L 939.6 113.472 
" style="fill:none;stroke:#000000;stroke-linecap:square;stroke-linejoin:miter;stroke-width:0.8;"/>
   </g>
   <g id="patch_5">
    <path d="M 130.5 468.288 
L 939.6 468.288 
" style="fill:none;stroke:#000000;stroke-linecap:square;stroke-linejoin:miter;stroke-width:0.8;"/>
   </g>
   <g id="patch_6">
    <path d="M 130.5 113.472 
L 939.6 113.472 
" style="fill:none;stroke:#000000;stroke-linecap:square;stroke-linejoin:miter;stroke-width:0.8;"/>
   </g>
   <g id="text_15">
    <!-- R2 -->
    <defs>
     <path d="M 44.390625 34.1875 
Q 47.5625 33.109375 50.5625 29.59375 
Q 53.5625 26.078125 56.59375 19.921875 
L 66.609375 0 
L 56 0 
L 46.6875 18.703125 
Q 43.0625 26.03125 39.671875 28.421875 
Q 36.28125 30.8125 30.421875 30.8125 
L 19.671875 30.8125 
L 19.671875 0 
L 9.8125 0 
L 9.8125 72.90625 
L 32.078125 72.90625 
Q 44.578125 72.90625 50.734375 67.671875 
Q 56.890625 62.453125 56.890625 51.90625 
Q 56.890625 45.015625 53.6875 40.46875 
Q 50.484375 35.9375 44.390625 34.1875 
z
M 19.671875 64.796875 
L 19.671875 38.921875 
L 32.078125 38.921875 
Q 39.203125 38.921875 42.84375 42.21875 
Q 46.484375 45.515625 46.484375 51.90625 
Q 46.484375 58.296875 42.84375 61.546875 
Q 39.203125 64.796875 32.078125 64.796875 
z
" id="DejaVuSans-82"/>
    </defs>
    <g transform="translate(527.063437 107.472)scale(0.12 -0.12)">
     <use xlink:href="#DejaVuSans-82"/>
     <use x="69.482422" xlink:href="#DejaVuSans-50"/>
    </g>
   </g>
   <g id="legend_1">
    <g id="patch_7">
     <path d="M 152.324219 640.696 
L 917.775781 640.696 
Q 919.775781 640.696 919.775781 638.696 
L 919.775781 595.661625 
Q 919.775781 593.661625 917.775781 593.661625 
L 152.324219 593.661625 
Q 150.324219 593.661625 150.324219 595.661625 
L 150.324219 638.696 
Q 150.324219 640.696 152.324219 640.696 
z
" style="fill:#ffffff;opacity:0.8;stroke:#cccccc;stroke-linejoin:miter;"/>
    </g>
    <g id="line2d_27">
     <path style="fill:none;stroke:#f18670;stroke-linecap:square;stroke-width:2;"/>
    </g>
    <g id="line2d_28"/>
    <g id="text_16">
     <!-- IWR demand mutliplier -->
     <defs>
      <path d="M 9.8125 72.90625 
L 19.671875 72.90625 
L 19.671875 0 
L 9.8125 0 
z
" id="DejaVuSans-73"/>
      <path d="M 3.328125 72.90625 
L 13.28125 72.90625 
L 28.609375 11.28125 
L 43.890625 72.90625 
L 54.984375 72.90625 
L 70.3125 11.28125 
L 85.59375 72.90625 
L 95.609375 72.90625 
L 77.296875 0 
L 64.890625 0 
L 49.515625 63.28125 
L 33.984375 0 
L 21.578125 0 
z
" id="DejaVuSans-87"/>
     </defs>
     <g transform="translate(182.324219 605.260063)scale(0.1 -0.1)">
      <use xlink:href="#DejaVuSans-73"/>
      <use x="29.492188" xlink:href="#DejaVuSans-87"/>
      <use x="128.369141" xlink:href="#DejaVuSans-82"/>
      <use x="197.851562" xlink:href="#DejaVuSans-32"/>
      <use x="229.638672" xlink:href="#DejaVuSans-100"/>
      <use x="293.115234" xlink:href="#DejaVuSans-101"/>
      <use x="354.638672" xlink:href="#DejaVuSans-109"/>
      <use x="452.050781" xlink:href="#DejaVuSans-97"/>
      <use x="513.330078" xlink:href="#DejaVuSans-110"/>
      <use x="576.708984" xlink:href="#DejaVuSans-100"/>
      <use x="640.185547" xlink:href="#DejaVuSans-32"/>
      <use x="671.972656" xlink:href="#DejaVuSans-109"/>
      <use x="769.384766" xlink:href="#DejaVuSans-117"/>
      <use x="832.763672" xlink:href="#DejaVuSans-116"/>
      <use x="871.972656" xlink:href="#DejaVuSans-108"/>
      <use x="899.755859" xlink:href="#DejaVuSans-105"/>
      <use x="927.539062" xlink:href="#DejaVuSans-112"/>
      <use x="991.015625" xlink:href="#DejaVuSans-108"/>
      <use x="1018.798828" xlink:href="#DejaVuSans-105"/>
      <use x="1046.582031" xlink:href="#DejaVuSans-101"/>
      <use x="1108.105469" xlink:href="#DejaVuSans-114"/>
     </g>
    </g>
    <g id="line2d_29">
     <path style="fill:none;stroke:#e24d3f;stroke-linecap:square;stroke-width:2;"/>
    </g>
    <g id="line2d_30"/>
    <g id="text_17">
     <!-- Reservoir loss -->
     <defs>
      <path d="M 44.28125 53.078125 
L 44.28125 44.578125 
Q 40.484375 46.53125 36.375 47.5 
Q 32.28125 48.484375 27.875 48.484375 
Q 21.1875 48.484375 17.84375 46.4375 
Q 14.5 44.390625 14.5 40.28125 
Q 14.5 37.15625 16.890625 35.375 
Q 19.28125 33.59375 26.515625 31.984375 
L 29.59375 31.296875 
Q 39.15625 29.25 43.1875 25.515625 
Q 47.21875 21.78125 47.21875 15.09375 
Q 47.21875 7.46875 41.1875 3.015625 
Q 35.15625 -1.421875 24.609375 -1.421875 
Q 20.21875 -1.421875 15.453125 -0.5625 
Q 10.6875 0.296875 5.421875 2 
L 5.421875 11.28125 
Q 10.40625 8.6875 15.234375 7.390625 
Q 20.0625 6.109375 24.8125 6.109375 
Q 31.15625 6.109375 34.5625 8.28125 
Q 37.984375 10.453125 37.984375 14.40625 
Q 37.984375 18.0625 35.515625 20.015625 
Q 33.0625 21.96875 24.703125 23.78125 
L 21.578125 24.515625 
Q 13.234375 26.265625 9.515625 29.90625 
Q 5.8125 33.546875 5.8125 39.890625 
Q 5.8125 47.609375 11.28125 51.796875 
Q 16.75 56 26.8125 56 
Q 31.78125 56 36.171875 55.265625 
Q 40.578125 54.546875 44.28125 53.078125 
z
" id="DejaVuSans-115"/>
      <path d="M 2.984375 54.6875 
L 12.5 54.6875 
L 29.59375 8.796875 
L 46.6875 54.6875 
L 56.203125 54.6875 
L 35.6875 0 
L 23.484375 0 
z
" id="DejaVuSans-118"/>
     </defs>
     <g transform="translate(182.324219 619.938188)scale(0.1 -0.1)">
      <use xlink:href="#DejaVuSans-82"/>
      <use x="69.419922" xlink:href="#DejaVuSans-101"/>
      <use x="130.943359" xlink:href="#DejaVuSans-115"/>
      <use x="183.042969" xlink:href="#DejaVuSans-101"/>
      <use x="244.566406" xlink:href="#DejaVuSans-114"/>
      <use x="285.679688" xlink:href="#DejaVuSans-118"/>
      <use x="344.859375" xlink:href="#DejaVuSans-111"/>
      <use x="406.041016" xlink:href="#DejaVuSans-105"/>
      <use x="433.824219" xlink:href="#DejaVuSans-114"/>
      <use x="474.9375" xlink:href="#DejaVuSans-32"/>
      <use x="506.724609" xlink:href="#DejaVuSans-108"/>
      <use x="534.507812" xlink:href="#DejaVuSans-111"/>
      <use x="595.689453" xlink:href="#DejaVuSans-115"/>
      <use x="647.789062" xlink:href="#DejaVuSans-115"/>
     </g>
    </g>
    <g id="line2d_31">
     <path style="fill:none;stroke:#cf233e;stroke-linecap:square;stroke-width:2;"/>
    </g>
    <g id="line2d_32"/>
    <g id="text_18">
     <!-- TBD demand multiplier -->
     <defs>
      <path d="M -0.296875 72.90625 
L 61.375 72.90625 
L 61.375 64.59375 
L 35.5 64.59375 
L 35.5 0 
L 25.59375 0 
L 25.59375 64.59375 
L -0.296875 64.59375 
z
" id="DejaVuSans-84"/>
      <path d="M 19.671875 34.8125 
L 19.671875 8.109375 
L 35.5 8.109375 
Q 43.453125 8.109375 47.28125 11.40625 
Q 51.125 14.703125 51.125 21.484375 
Q 51.125 28.328125 47.28125 31.5625 
Q 43.453125 34.8125 35.5 34.8125 
z
M 19.671875 64.796875 
L 19.671875 42.828125 
L 34.28125 42.828125 
Q 41.5 42.828125 45.03125 45.53125 
Q 48.578125 48.25 48.578125 53.8125 
Q 48.578125 59.328125 45.03125 62.0625 
Q 41.5 64.796875 34.28125 64.796875 
z
M 9.8125 72.90625 
L 35.015625 72.90625 
Q 46.296875 72.90625 52.390625 68.21875 
Q 58.5 63.53125 58.5 54.890625 
Q 58.5 48.1875 55.375 44.234375 
Q 52.25 40.28125 46.1875 39.3125 
Q 53.46875 37.75 57.5 32.78125 
Q 61.53125 27.828125 61.53125 20.40625 
Q 61.53125 10.640625 54.890625 5.3125 
Q 48.25 0 35.984375 0 
L 9.8125 0 
z
" id="DejaVuSans-66"/>
      <path d="M 19.671875 64.796875 
L 19.671875 8.109375 
L 31.59375 8.109375 
Q 46.6875 8.109375 53.6875 14.9375 
Q 60.6875 21.78125 60.6875 36.53125 
Q 60.6875 51.171875 53.6875 57.984375 
Q 46.6875 64.796875 31.59375 64.796875 
z
M 9.8125 72.90625 
L 30.078125 72.90625 
Q 51.265625 72.90625 61.171875 64.09375 
Q 71.09375 55.28125 71.09375 36.53125 
Q 71.09375 17.671875 61.125 8.828125 
Q 51.171875 0 30.078125 0 
L 9.8125 0 
z
" id="DejaVuSans-68"/>
     </defs>
     <g transform="translate(182.324219 634.616313)scale(0.1 -0.1)">
      <use xlink:href="#DejaVuSans-84"/>
      <use x="61.083984" xlink:href="#DejaVuSans-66"/>
      <use x="129.6875" xlink:href="#DejaVuSans-68"/>
      <use x="206.689453" xlink:href="#DejaVuSans-32"/>
      <use x="238.476562" xlink:href="#DejaVuSans-100"/>
      <use x="301.953125" xlink:href="#DejaVuSans-101"/>
      <use x="363.476562" xlink:href="#DejaVuSans-109"/>
      <use x="460.888672" xlink:href="#DejaVuSans-97"/>
      <use x="522.167969" xlink:href="#DejaVuSans-110"/>
      <use x="585.546875" xlink:href="#DejaVuSans-100"/>
      <use x="649.023438" xlink:href="#DejaVuSans-32"/>
      <use x="680.810547" xlink:href="#DejaVuSans-109"/>
      <use x="778.222656" xlink:href="#DejaVuSans-117"/>
      <use x="841.601562" xlink:href="#DejaVuSans-108"/>
      <use x="869.384766" xlink:href="#DejaVuSans-116"/>
      <use x="908.59375" xlink:href="#DejaVuSans-105"/>
      <use x="936.376953" xlink:href="#DejaVuSans-112"/>
      <use x="999.853516" xlink:href="#DejaVuSans-108"/>
      <use x="1027.636719" xlink:href="#DejaVuSans-105"/>
      <use x="1055.419922" xlink:href="#DejaVuSans-101"/>
      <use x="1116.943359" xlink:href="#DejaVuSans-114"/>
     </g>
    </g>
    <g id="line2d_33">
     <path style="fill:none;stroke:#681e33;stroke-linecap:square;stroke-width:2;"/>
    </g>
    <g id="line2d_34"/>
    <g id="text_19">
     <!-- M&amp;I demand multiplier -->
     <defs>
      <path d="M 9.8125 72.90625 
L 24.515625 72.90625 
L 43.109375 23.296875 
L 61.8125 72.90625 
L 76.515625 72.90625 
L 76.515625 0 
L 66.890625 0 
L 66.890625 64.015625 
L 48.09375 14.015625 
L 38.1875 14.015625 
L 19.390625 64.015625 
L 19.390625 0 
L 9.8125 0 
z
" id="DejaVuSans-77"/>
      <path d="M 24.3125 39.203125 
Q 19.875 35.25 17.796875 31.3125 
Q 15.71875 27.390625 15.71875 23.09375 
Q 15.71875 15.96875 20.890625 11.234375 
Q 26.078125 6.5 33.890625 6.5 
Q 38.53125 6.5 42.578125 8.03125 
Q 46.625 9.578125 50.203125 12.703125 
z
M 31.203125 44.671875 
L 56 19.28125 
Q 58.890625 23.640625 60.5 28.59375 
Q 62.109375 33.546875 62.40625 39.109375 
L 71.484375 39.109375 
Q 70.90625 32.671875 68.359375 26.359375 
Q 65.828125 20.0625 61.28125 13.921875 
L 74.90625 0 
L 62.59375 0 
L 55.609375 7.171875 
Q 50.53125 2.828125 44.96875 0.703125 
Q 39.40625 -1.421875 33.015625 -1.421875 
Q 21.234375 -1.421875 13.765625 5.296875 
Q 6.296875 12.015625 6.296875 22.515625 
Q 6.296875 28.765625 9.5625 34.25 
Q 12.84375 39.75 19.390625 44.578125 
Q 17.046875 47.65625 15.8125 50.703125 
Q 14.59375 53.765625 14.59375 56.6875 
Q 14.59375 64.59375 20.015625 69.40625 
Q 25.4375 74.21875 34.421875 74.21875 
Q 38.484375 74.21875 42.5 73.34375 
Q 46.53125 72.46875 50.6875 70.703125 
L 50.6875 61.8125 
Q 46.4375 64.109375 42.578125 65.296875 
Q 38.71875 66.5 35.40625 66.5 
Q 30.28125 66.5 27.078125 63.78125 
Q 23.875 61.078125 23.875 56.78125 
Q 23.875 54.296875 25.3125 51.78125 
Q 26.765625 49.265625 31.203125 44.671875 
z
" id="DejaVuSans-38"/>
     </defs>
     <g transform="translate(346.128906 605.260063)scale(0.1 -0.1)">
      <use xlink:href="#DejaVuSans-77"/>
      <use x="86.279297" xlink:href="#DejaVuSans-38"/>
      <use x="164.257812" xlink:href="#DejaVuSans-73"/>
      <use x="193.75" xlink:href="#DejaVuSans-32"/>
      <use x="225.537109" xlink:href="#DejaVuSans-100"/>
      <use x="289.013672" xlink:href="#DejaVuSans-101"/>
      <use x="350.537109" xlink:href="#DejaVuSans-109"/>
      <use x="447.949219" xlink:href="#DejaVuSans-97"/>
      <use x="509.228516" xlink:href="#DejaVuSans-110"/>
      <use x="572.607422" xlink:href="#DejaVuSans-100"/>
      <use x="636.083984" xlink:href="#DejaVuSans-32"/>
      <use x="667.871094" xlink:href="#DejaVuSans-109"/>
      <use x="765.283203" xlink:href="#DejaVuSans-117"/>
      <use x="828.662109" xlink:href="#DejaVuSans-108"/>
      <use x="856.445312" xlink:href="#DejaVuSans-116"/>
      <use x="895.654297" xlink:href="#DejaVuSans-105"/>
      <use x="923.4375" xlink:href="#DejaVuSans-112"/>
      <use x="986.914062" xlink:href="#DejaVuSans-108"/>
      <use x="1014.697266" xlink:href="#DejaVuSans-105"/>
      <use x="1042.480469" xlink:href="#DejaVuSans-101"/>
      <use x="1104.003906" xlink:href="#DejaVuSans-114"/>
     </g>
    </g>
    <g id="line2d_35">
     <path style="fill:none;stroke:#676572;stroke-linecap:square;stroke-width:2;"/>
    </g>
    <g id="line2d_36"/>
    <g id="text_20">
     <!-- Shoshone active -->
     <g transform="translate(346.128906 619.938188)scale(0.1 -0.1)">
      <use xlink:href="#DejaVuSans-83"/>
      <use x="63.476562" xlink:href="#DejaVuSans-104"/>
      <use x="126.855469" xlink:href="#DejaVuSans-111"/>
      <use x="188.037109" xlink:href="#DejaVuSans-115"/>
      <use x="240.136719" xlink:href="#DejaVuSans-104"/>
      <use x="303.515625" xlink:href="#DejaVuSans-111"/>
      <use x="364.697266" xlink:href="#DejaVuSans-110"/>
      <use x="428.076172" xlink:href="#DejaVuSans-101"/>
      <use x="489.599609" xlink:href="#DejaVuSans-32"/>
      <use x="521.386719" xlink:href="#DejaVuSans-97"/>
      <use x="582.666016" xlink:href="#DejaVuSans-99"/>
      <use x="637.646484" xlink:href="#DejaVuSans-116"/>
      <use x="676.855469" xlink:href="#DejaVuSans-105"/>
      <use x="704.638672" xlink:href="#DejaVuSans-118"/>
      <use x="763.818359" xlink:href="#DejaVuSans-101"/>
     </g>
    </g>
    <g id="line2d_37">
     <path style="fill:none;stroke:#f3be22;stroke-linecap:square;stroke-width:2;"/>
    </g>
    <g id="line2d_38"/>
    <g id="text_21">
     <!-- Env. flow senior right -->
     <defs>
      <path d="M 9.8125 72.90625 
L 55.90625 72.90625 
L 55.90625 64.59375 
L 19.671875 64.59375 
L 19.671875 43.015625 
L 54.390625 43.015625 
L 54.390625 34.71875 
L 19.671875 34.71875 
L 19.671875 8.296875 
L 56.78125 8.296875 
L 56.78125 0 
L 9.8125 0 
z
" id="DejaVuSans-69"/>
      <path d="M 37.109375 75.984375 
L 37.109375 68.5 
L 28.515625 68.5 
Q 23.6875 68.5 21.796875 66.546875 
Q 19.921875 64.59375 19.921875 59.515625 
L 19.921875 54.6875 
L 34.71875 54.6875 
L 34.71875 47.703125 
L 19.921875 47.703125 
L 19.921875 0 
L 10.890625 0 
L 10.890625 47.703125 
L 2.296875 47.703125 
L 2.296875 54.6875 
L 10.890625 54.6875 
L 10.890625 58.5 
Q 10.890625 67.625 15.140625 71.796875 
Q 19.390625 75.984375 28.609375 75.984375 
z
" id="DejaVuSans-102"/>
      <path d="M 4.203125 54.6875 
L 13.1875 54.6875 
L 24.421875 12.015625 
L 35.59375 54.6875 
L 46.1875 54.6875 
L 57.421875 12.015625 
L 68.609375 54.6875 
L 77.59375 54.6875 
L 63.28125 0 
L 52.6875 0 
L 40.921875 44.828125 
L 29.109375 0 
L 18.5 0 
z
" id="DejaVuSans-119"/>
     </defs>
     <g transform="translate(346.128906 634.616313)scale(0.1 -0.1)">
      <use xlink:href="#DejaVuSans-69"/>
      <use x="63.183594" xlink:href="#DejaVuSans-110"/>
      <use x="126.5625" xlink:href="#DejaVuSans-118"/>
      <use x="185.632812" xlink:href="#DejaVuSans-46"/>
      <use x="217.419922" xlink:href="#DejaVuSans-32"/>
      <use x="249.207031" xlink:href="#DejaVuSans-102"/>
      <use x="284.412109" xlink:href="#DejaVuSans-108"/>
      <use x="312.195312" xlink:href="#DejaVuSans-111"/>
      <use x="373.376953" xlink:href="#DejaVuSans-119"/>
      <use x="455.164062" xlink:href="#DejaVuSans-32"/>
      <use x="486.951172" xlink:href="#DejaVuSans-115"/>
      <use x="539.050781" xlink:href="#DejaVuSans-101"/>
      <use x="600.574219" xlink:href="#DejaVuSans-110"/>
      <use x="663.953125" xlink:href="#DejaVuSans-105"/>
      <use x="691.736328" xlink:href="#DejaVuSans-111"/>
      <use x="752.917969" xlink:href="#DejaVuSans-114"/>
      <use x="794.03125" xlink:href="#DejaVuSans-32"/>
      <use x="825.818359" xlink:href="#DejaVuSans-114"/>
      <use x="866.931641" xlink:href="#DejaVuSans-105"/>
      <use x="894.714844" xlink:href="#DejaVuSans-103"/>
      <use x="958.191406" xlink:href="#DejaVuSans-104"/>
      <use x="1021.570312" xlink:href="#DejaVuSans-116"/>
     </g>
    </g>
    <g id="line2d_39">
     <path style="fill:none;stroke:#59deba;stroke-linecap:square;stroke-width:2;"/>
    </g>
    <g id="line2d_40"/>
    <g id="text_22">
     <!-- Evaporation delta -->
     <g transform="translate(508.641406 605.260063)scale(0.1 -0.1)">
      <use xlink:href="#DejaVuSans-69"/>
      <use x="63.183594" xlink:href="#DejaVuSans-118"/>
      <use x="122.363281" xlink:href="#DejaVuSans-97"/>
      <use x="183.642578" xlink:href="#DejaVuSans-112"/>
      <use x="247.119141" xlink:href="#DejaVuSans-111"/>
      <use x="308.300781" xlink:href="#DejaVuSans-114"/>
      <use x="349.414062" xlink:href="#DejaVuSans-97"/>
      <use x="410.693359" xlink:href="#DejaVuSans-116"/>
      <use x="449.902344" xlink:href="#DejaVuSans-105"/>
      <use x="477.685547" xlink:href="#DejaVuSans-111"/>
      <use x="538.867188" xlink:href="#DejaVuSans-110"/>
      <use x="602.246094" xlink:href="#DejaVuSans-32"/>
      <use x="634.033203" xlink:href="#DejaVuSans-100"/>
      <use x="697.509766" xlink:href="#DejaVuSans-101"/>
      <use x="759.033203" xlink:href="#DejaVuSans-108"/>
      <use x="786.816406" xlink:href="#DejaVuSans-116"/>
      <use x="826.025391" xlink:href="#DejaVuSans-97"/>
     </g>
    </g>
    <g id="line2d_41">
     <path style="fill:none;stroke:#14015c;stroke-linecap:square;stroke-width:2;"/>
    </g>
    <g id="line2d_42"/>
    <g id="text_23">
     <!-- Dry state mu -->
     <defs>
      <path d="M 32.171875 -5.078125 
Q 28.375 -14.84375 24.75 -17.8125 
Q 21.140625 -20.796875 15.09375 -20.796875 
L 7.90625 -20.796875 
L 7.90625 -13.28125 
L 13.1875 -13.28125 
Q 16.890625 -13.28125 18.9375 -11.515625 
Q 21 -9.765625 23.484375 -3.21875 
L 25.09375 0.875 
L 2.984375 54.6875 
L 12.5 54.6875 
L 29.59375 11.921875 
L 46.6875 54.6875 
L 56.203125 54.6875 
z
" id="DejaVuSans-121"/>
     </defs>
     <g transform="translate(508.641406 619.938188)scale(0.1 -0.1)">
      <use xlink:href="#DejaVuSans-68"/>
      <use x="77.001953" xlink:href="#DejaVuSans-114"/>
      <use x="118.115234" xlink:href="#DejaVuSans-121"/>
      <use x="177.294922" xlink:href="#DejaVuSans-32"/>
      <use x="209.082031" xlink:href="#DejaVuSans-115"/>
      <use x="261.181641" xlink:href="#DejaVuSans-116"/>
      <use x="300.390625" xlink:href="#DejaVuSans-97"/>
      <use x="361.669922" xlink:href="#DejaVuSans-116"/>
      <use x="400.878906" xlink:href="#DejaVuSans-101"/>
      <use x="462.402344" xlink:href="#DejaVuSans-32"/>
      <use x="494.189453" xlink:href="#DejaVuSans-109"/>
      <use x="591.601562" xlink:href="#DejaVuSans-117"/>
     </g>
    </g>
    <g id="line2d_43">
     <path style="fill:none;stroke:#daf8a3;stroke-linecap:square;stroke-width:2;"/>
    </g>
    <g id="line2d_44"/>
    <g id="text_24">
     <!-- Dry state sigma -->
     <g transform="translate(508.641406 634.616313)scale(0.1 -0.1)">
      <use xlink:href="#DejaVuSans-68"/>
      <use x="77.001953" xlink:href="#DejaVuSans-114"/>
      <use x="118.115234" xlink:href="#DejaVuSans-121"/>
      <use x="177.294922" xlink:href="#DejaVuSans-32"/>
      <use x="209.082031" xlink:href="#DejaVuSans-115"/>
      <use x="261.181641" xlink:href="#DejaVuSans-116"/>
      <use x="300.390625" xlink:href="#DejaVuSans-97"/>
      <use x="361.669922" xlink:href="#DejaVuSans-116"/>
      <use x="400.878906" xlink:href="#DejaVuSans-101"/>
      <use x="462.402344" xlink:href="#DejaVuSans-32"/>
      <use x="494.189453" xlink:href="#DejaVuSans-115"/>
      <use x="546.289062" xlink:href="#DejaVuSans-105"/>
      <use x="574.072266" xlink:href="#DejaVuSans-103"/>
      <use x="637.548828" xlink:href="#DejaVuSans-109"/>
      <use x="734.960938" xlink:href="#DejaVuSans-97"/>
     </g>
    </g>
    <g id="line2d_45">
     <path style="fill:none;stroke:#0b7a0a;stroke-linecap:square;stroke-width:2;"/>
    </g>
    <g id="line2d_46"/>
    <g id="text_25">
     <!-- Wet state mu -->
     <g transform="translate(645.374219 605.260063)scale(0.1 -0.1)">
      <use xlink:href="#DejaVuSans-87"/>
      <use x="98.798828" xlink:href="#DejaVuSans-101"/>
      <use x="160.322266" xlink:href="#DejaVuSans-116"/>
      <use x="199.53125" xlink:href="#DejaVuSans-32"/>
      <use x="231.318359" xlink:href="#DejaVuSans-115"/>
      <use x="283.417969" xlink:href="#DejaVuSans-116"/>
      <use x="322.626953" xlink:href="#DejaVuSans-97"/>
      <use x="383.90625" xlink:href="#DejaVuSans-116"/>
      <use x="423.115234" xlink:href="#DejaVuSans-101"/>
      <use x="484.638672" xlink:href="#DejaVuSans-32"/>
      <use x="516.425781" xlink:href="#DejaVuSans-109"/>
      <use x="613.837891" xlink:href="#DejaVuSans-117"/>
     </g>
    </g>
    <g id="line2d_47">
     <path style="fill:none;stroke:#f8ffa2;stroke-linecap:square;stroke-width:2;"/>
    </g>
    <g id="line2d_48"/>
    <g id="text_26">
     <!-- Wet state sigma -->
     <g transform="translate(645.374219 619.938188)scale(0.1 -0.1)">
      <use xlink:href="#DejaVuSans-87"/>
      <use x="98.798828" xlink:href="#DejaVuSans-101"/>
      <use x="160.322266" xlink:href="#DejaVuSans-116"/>
      <use x="199.53125" xlink:href="#DejaVuSans-32"/>
      <use x="231.318359" xlink:href="#DejaVuSans-115"/>
      <use x="283.417969" xlink:href="#DejaVuSans-116"/>
      <use x="322.626953" xlink:href="#DejaVuSans-97"/>
      <use x="383.90625" xlink:href="#DejaVuSans-116"/>
      <use x="423.115234" xlink:href="#DejaVuSans-101"/>
      <use x="484.638672" xlink:href="#DejaVuSans-32"/>
      <use x="516.425781" xlink:href="#DejaVuSans-115"/>
      <use x="568.525391" xlink:href="#DejaVuSans-105"/>
      <use x="596.308594" xlink:href="#DejaVuSans-103"/>
      <use x="659.785156" xlink:href="#DejaVuSans-109"/>
      <use x="757.197266" xlink:href="#DejaVuSans-97"/>
     </g>
    </g>
    <g id="line2d_49">
     <path style="fill:none;stroke:#578dc0;stroke-linecap:square;stroke-width:2;"/>
    </g>
    <g id="line2d_50"/>
    <g id="text_27">
     <!-- Dry-to-dry state prob. -->
     <defs>
      <path d="M 4.890625 31.390625 
L 31.203125 31.390625 
L 31.203125 23.390625 
L 4.890625 23.390625 
z
" id="DejaVuSans-45"/>
      <path d="M 48.6875 27.296875 
Q 48.6875 37.203125 44.609375 42.84375 
Q 40.53125 48.484375 33.40625 48.484375 
Q 26.265625 48.484375 22.1875 42.84375 
Q 18.109375 37.203125 18.109375 27.296875 
Q 18.109375 17.390625 22.1875 11.75 
Q 26.265625 6.109375 33.40625 6.109375 
Q 40.53125 6.109375 44.609375 11.75 
Q 48.6875 17.390625 48.6875 27.296875 
z
M 18.109375 46.390625 
Q 20.953125 51.265625 25.265625 53.625 
Q 29.59375 56 35.59375 56 
Q 45.5625 56 51.78125 48.09375 
Q 58.015625 40.1875 58.015625 27.296875 
Q 58.015625 14.40625 51.78125 6.484375 
Q 45.5625 -1.421875 35.59375 -1.421875 
Q 29.59375 -1.421875 25.265625 0.953125 
Q 20.953125 3.328125 18.109375 8.203125 
L 18.109375 0 
L 9.078125 0 
L 9.078125 75.984375 
L 18.109375 75.984375 
z
" id="DejaVuSans-98"/>
     </defs>
     <g transform="translate(645.374219 634.616313)scale(0.1 -0.1)">
      <use xlink:href="#DejaVuSans-68"/>
      <use x="77.001953" xlink:href="#DejaVuSans-114"/>
      <use x="118.115234" xlink:href="#DejaVuSans-121"/>
      <use x="177.279297" xlink:href="#DejaVuSans-45"/>
      <use x="213.363281" xlink:href="#DejaVuSans-116"/>
      <use x="252.572266" xlink:href="#DejaVuSans-111"/>
      <use x="313.769531" xlink:href="#DejaVuSans-45"/>
      <use x="349.853516" xlink:href="#DejaVuSans-100"/>
      <use x="413.330078" xlink:href="#DejaVuSans-114"/>
      <use x="454.443359" xlink:href="#DejaVuSans-121"/>
      <use x="513.623047" xlink:href="#DejaVuSans-32"/>
      <use x="545.410156" xlink:href="#DejaVuSans-115"/>
      <use x="597.509766" xlink:href="#DejaVuSans-116"/>
      <use x="636.71875" xlink:href="#DejaVuSans-97"/>
      <use x="697.998047" xlink:href="#DejaVuSans-116"/>
      <use x="737.207031" xlink:href="#DejaVuSans-101"/>
      <use x="798.730469" xlink:href="#DejaVuSans-32"/>
      <use x="830.517578" xlink:href="#DejaVuSans-112"/>
      <use x="893.994141" xlink:href="#DejaVuSans-114"/>
      <use x="935.076172" xlink:href="#DejaVuSans-111"/>
      <use x="996.257812" xlink:href="#DejaVuSans-98"/>
      <use x="1059.734375" xlink:href="#DejaVuSans-46"/>
     </g>
    </g>
    <g id="line2d_51">
     <path style="fill:none;stroke:#4e4ad8;stroke-linecap:square;stroke-width:2;"/>
    </g>
    <g id="line2d_52"/>
    <g id="text_28">
     <!-- Wet-to-wet state prob. -->
     <g transform="translate(802.525781 605.260063)scale(0.1 -0.1)">
      <use xlink:href="#DejaVuSans-87"/>
      <use x="98.798828" xlink:href="#DejaVuSans-101"/>
      <use x="160.322266" xlink:href="#DejaVuSans-116"/>
      <use x="199.53125" xlink:href="#DejaVuSans-45"/>
      <use x="235.615234" xlink:href="#DejaVuSans-116"/>
      <use x="274.824219" xlink:href="#DejaVuSans-111"/>
      <use x="336.021484" xlink:href="#DejaVuSans-45"/>
      <use x="372.105469" xlink:href="#DejaVuSans-119"/>
      <use x="453.892578" xlink:href="#DejaVuSans-101"/>
      <use x="515.416016" xlink:href="#DejaVuSans-116"/>
      <use x="554.625" xlink:href="#DejaVuSans-32"/>
      <use x="586.412109" xlink:href="#DejaVuSans-115"/>
      <use x="638.511719" xlink:href="#DejaVuSans-116"/>
      <use x="677.720703" xlink:href="#DejaVuSans-97"/>
      <use x="739" xlink:href="#DejaVuSans-116"/>
      <use x="778.208984" xlink:href="#DejaVuSans-101"/>
      <use x="839.732422" xlink:href="#DejaVuSans-32"/>
      <use x="871.519531" xlink:href="#DejaVuSans-112"/>
      <use x="934.996094" xlink:href="#DejaVuSans-114"/>
      <use x="976.078125" xlink:href="#DejaVuSans-111"/>
      <use x="1037.259766" xlink:href="#DejaVuSans-98"/>
      <use x="1100.736328" xlink:href="#DejaVuSans-46"/>
     </g>
    </g>
    <g id="line2d_53">
     <path style="fill:none;stroke:#32b3f7;stroke-linecap:square;stroke-width:2;"/>
    </g>
    <g id="line2d_54"/>
    <g id="text_29">
     <!-- Earlier snowmelt -->
     <g transform="translate(802.525781 619.938188)scale(0.1 -0.1)">
      <use xlink:href="#DejaVuSans-69"/>
      <use x="63.183594" xlink:href="#DejaVuSans-97"/>
      <use x="124.462891" xlink:href="#DejaVuSans-114"/>
      <use x="165.576172" xlink:href="#DejaVuSans-108"/>
      <use x="193.359375" xlink:href="#DejaVuSans-105"/>
      <use x="221.142578" xlink:href="#DejaVuSans-101"/>
      <use x="282.666016" xlink:href="#DejaVuSans-114"/>
      <use x="323.779297" xlink:href="#DejaVuSans-32"/>
      <use x="355.566406" xlink:href="#DejaVuSans-115"/>
      <use x="407.666016" xlink:href="#DejaVuSans-110"/>
      <use x="471.044922" xlink:href="#DejaVuSans-111"/>
      <use x="532.226562" xlink:href="#DejaVuSans-119"/>
      <use x="614.013672" xlink:href="#DejaVuSans-109"/>
      <use x="711.425781" xlink:href="#DejaVuSans-101"/>
      <use x="772.949219" xlink:href="#DejaVuSans-108"/>
      <use x="800.732422" xlink:href="#DejaVuSans-116"/>
     </g>
    </g>
   </g>
  </g>
  <g id="text_30">
   <!-- Shortage magnitude sensitivity for 7202003 -->
   <defs>
    <path d="M 8.203125 72.90625 
L 55.078125 72.90625 
L 55.078125 68.703125 
L 28.609375 0 
L 18.3125 0 
L 43.21875 64.59375 
L 8.203125 64.59375 
z
" id="DejaVuSans-55"/>
    <path d="M 40.578125 39.3125 
Q 47.65625 37.796875 51.625 33 
Q 55.609375 28.21875 55.609375 21.1875 
Q 55.609375 10.40625 48.1875 4.484375 
Q 40.765625 -1.421875 27.09375 -1.421875 
Q 22.515625 -1.421875 17.65625 -0.515625 
Q 12.796875 0.390625 7.625 2.203125 
L 7.625 11.71875 
Q 11.71875 9.328125 16.59375 8.109375 
Q 21.484375 6.890625 26.8125 6.890625 
Q 36.078125 6.890625 40.9375 10.546875 
Q 45.796875 14.203125 45.796875 21.1875 
Q 45.796875 27.640625 41.28125 31.265625 
Q 36.765625 34.90625 28.71875 34.90625 
L 20.21875 34.90625 
L 20.21875 43.015625 
L 29.109375 43.015625 
Q 36.375 43.015625 40.234375 45.921875 
Q 44.09375 48.828125 44.09375 54.296875 
Q 44.09375 59.90625 40.109375 62.90625 
Q 36.140625 65.921875 28.71875 65.921875 
Q 24.65625 65.921875 20.015625 65.03125 
Q 15.375 64.15625 9.8125 62.3125 
L 9.8125 71.09375 
Q 15.4375 72.65625 20.34375 73.4375 
Q 25.25 74.21875 29.59375 74.21875 
Q 40.828125 74.21875 47.359375 69.109375 
Q 53.90625 64.015625 53.90625 55.328125 
Q 53.90625 49.265625 50.4375 45.09375 
Q 46.96875 40.921875 40.578125 39.3125 
z
" id="DejaVuSans-51"/>
   </defs>
   <g transform="translate(344.81625 23.6775)scale(0.16 -0.16)">
    <use xlink:href="#DejaVuSans-83"/>
    <use x="63.476562" xlink:href="#DejaVuSans-104"/>
    <use x="126.855469" xlink:href="#DejaVuSans-111"/>
    <use x="188.037109" xlink:href="#DejaVuSans-114"/>
    <use x="229.150391" xlink:href="#DejaVuSans-116"/>
    <use x="268.359375" xlink:href="#DejaVuSans-97"/>
    <use x="329.638672" xlink:href="#DejaVuSans-103"/>
    <use x="393.115234" xlink:href="#DejaVuSans-101"/>
    <use x="454.638672" xlink:href="#DejaVuSans-32"/>
    <use x="486.425781" xlink:href="#DejaVuSans-109"/>
    <use x="583.837891" xlink:href="#DejaVuSans-97"/>
    <use x="645.117188" xlink:href="#DejaVuSans-103"/>
    <use x="708.59375" xlink:href="#DejaVuSans-110"/>
    <use x="771.972656" xlink:href="#DejaVuSans-105"/>
    <use x="799.755859" xlink:href="#DejaVuSans-116"/>
    <use x="838.964844" xlink:href="#DejaVuSans-117"/>
    <use x="902.34375" xlink:href="#DejaVuSans-100"/>
    <use x="965.820312" xlink:href="#DejaVuSans-101"/>
    <use x="1027.34375" xlink:href="#DejaVuSans-32"/>
    <use x="1059.130859" xlink:href="#DejaVuSans-115"/>
    <use x="1111.230469" xlink:href="#DejaVuSans-101"/>
    <use x="1172.753906" xlink:href="#DejaVuSans-110"/>
    <use x="1236.132812" xlink:href="#DejaVuSans-115"/>
    <use x="1288.232422" xlink:href="#DejaVuSans-105"/>
    <use x="1316.015625" xlink:href="#DejaVuSans-116"/>
    <use x="1355.224609" xlink:href="#DejaVuSans-105"/>
    <use x="1383.007812" xlink:href="#DejaVuSans-118"/>
    <use x="1442.1875" xlink:href="#DejaVuSans-105"/>
    <use x="1469.970703" xlink:href="#DejaVuSans-116"/>
    <use x="1509.179688" xlink:href="#DejaVuSans-121"/>
    <use x="1568.359375" xlink:href="#DejaVuSans-32"/>
    <use x="1600.146484" xlink:href="#DejaVuSans-102"/>
    <use x="1635.351562" xlink:href="#DejaVuSans-111"/>
    <use x="1696.533203" xlink:href="#DejaVuSans-114"/>
    <use x="1737.646484" xlink:href="#DejaVuSans-32"/>
    <use x="1769.433594" xlink:href="#DejaVuSans-55"/>
    <use x="1833.056641" xlink:href="#DejaVuSans-50"/>
    <use x="1896.679688" xlink:href="#DejaVuSans-48"/>
    <use x="1960.302734" xlink:href="#DejaVuSans-50"/>
    <use x="2023.925781" xlink:href="#DejaVuSans-48"/>
    <use x="2087.548828" xlink:href="#DejaVuSans-48"/>
    <use x="2151.171875" xlink:href="#DejaVuSans-51"/>
   </g>
  </g>
 </g>
 <defs>
  <clipPath id="pc044df7a69">
   <rect height="354.816" width="809.1" x="130.5" y="113.472"/>
  </clipPath>
 </defs>
</svg>
